<?xml version="1.0" encoding="utf-8"?>
<svg xmlns="http://www.w3.org/2000/svg" xmlns:xlink="http://www.w3.org/1999/xlink" width="600" height="400" viewBox="0 0 2400 1600">
<defs>
  <clipPath id="clip660">
    <rect x="0" y="0" width="2400" height="1600"/>
  </clipPath>
</defs>
<path clip-path="url(#clip660)" d="M0 1600 L2400 1600 L2400 0 L0 0  Z" fill="#ffffff" fill-rule="evenodd" fill-opacity="1"/>
<defs>
  <clipPath id="clip661">
    <rect x="480" y="0" width="1681" height="1600"/>
  </clipPath>
</defs>
<path clip-path="url(#clip660)" d="M186.274 1486.45 L2352.76 1486.45 L2352.76 123.472 L186.274 123.472  Z" fill="#ffffff" fill-rule="evenodd" fill-opacity="1"/>
<defs>
  <clipPath id="clip662">
    <rect x="186" y="123" width="2167" height="1364"/>
  </clipPath>
</defs>
<polyline clip-path="url(#clip662)" style="stroke:#000000; stroke-linecap:round; stroke-linejoin:round; stroke-width:2; stroke-opacity:0.1; fill:none" points="247.59,1486.45 247.59,123.472 "/>
<polyline clip-path="url(#clip662)" style="stroke:#000000; stroke-linecap:round; stroke-linejoin:round; stroke-width:2; stroke-opacity:0.1; fill:none" points="758.552,1486.45 758.552,123.472 "/>
<polyline clip-path="url(#clip662)" style="stroke:#000000; stroke-linecap:round; stroke-linejoin:round; stroke-width:2; stroke-opacity:0.1; fill:none" points="1269.51,1486.45 1269.51,123.472 "/>
<polyline clip-path="url(#clip662)" style="stroke:#000000; stroke-linecap:round; stroke-linejoin:round; stroke-width:2; stroke-opacity:0.1; fill:none" points="1780.48,1486.45 1780.48,123.472 "/>
<polyline clip-path="url(#clip662)" style="stroke:#000000; stroke-linecap:round; stroke-linejoin:round; stroke-width:2; stroke-opacity:0.1; fill:none" points="2291.44,1486.45 2291.44,123.472 "/>
<polyline clip-path="url(#clip662)" style="stroke:#000000; stroke-linecap:round; stroke-linejoin:round; stroke-width:2; stroke-opacity:0.1; fill:none" points="186.274,1447.87 2352.76,1447.87 "/>
<polyline clip-path="url(#clip662)" style="stroke:#000000; stroke-linecap:round; stroke-linejoin:round; stroke-width:2; stroke-opacity:0.1; fill:none" points="186.274,1126.42 2352.76,1126.42 "/>
<polyline clip-path="url(#clip662)" style="stroke:#000000; stroke-linecap:round; stroke-linejoin:round; stroke-width:2; stroke-opacity:0.1; fill:none" points="186.274,804.96 2352.76,804.96 "/>
<polyline clip-path="url(#clip662)" style="stroke:#000000; stroke-linecap:round; stroke-linejoin:round; stroke-width:2; stroke-opacity:0.1; fill:none" points="186.274,483.503 2352.76,483.503 "/>
<polyline clip-path="url(#clip662)" style="stroke:#000000; stroke-linecap:round; stroke-linejoin:round; stroke-width:2; stroke-opacity:0.1; fill:none" points="186.274,162.047 2352.76,162.047 "/>
<polyline clip-path="url(#clip660)" style="stroke:#000000; stroke-linecap:round; stroke-linejoin:round; stroke-width:4; stroke-opacity:1; fill:none" points="186.274,1486.45 2352.76,1486.45 "/>
<polyline clip-path="url(#clip660)" style="stroke:#000000; stroke-linecap:round; stroke-linejoin:round; stroke-width:4; stroke-opacity:1; fill:none" points="247.59,1486.45 247.59,1467.55 "/>
<polyline clip-path="url(#clip660)" style="stroke:#000000; stroke-linecap:round; stroke-linejoin:round; stroke-width:4; stroke-opacity:1; fill:none" points="758.552,1486.45 758.552,1467.55 "/>
<polyline clip-path="url(#clip660)" style="stroke:#000000; stroke-linecap:round; stroke-linejoin:round; stroke-width:4; stroke-opacity:1; fill:none" points="1269.51,1486.45 1269.51,1467.55 "/>
<polyline clip-path="url(#clip660)" style="stroke:#000000; stroke-linecap:round; stroke-linejoin:round; stroke-width:4; stroke-opacity:1; fill:none" points="1780.48,1486.45 1780.48,1467.55 "/>
<polyline clip-path="url(#clip660)" style="stroke:#000000; stroke-linecap:round; stroke-linejoin:round; stroke-width:4; stroke-opacity:1; fill:none" points="2291.44,1486.45 2291.44,1467.55 "/>
<path clip-path="url(#clip660)" d="M209.893 1517.37 Q206.282 1517.37 204.453 1520.93 Q202.648 1524.47 202.648 1531.6 Q202.648 1538.71 204.453 1542.27 Q206.282 1545.82 209.893 1545.82 Q213.527 1545.82 215.333 1542.27 Q217.161 1538.71 217.161 1531.6 Q217.161 1524.47 215.333 1520.93 Q213.527 1517.37 209.893 1517.37 M209.893 1513.66 Q215.703 1513.66 218.759 1518.27 Q221.837 1522.85 221.837 1531.6 Q221.837 1540.33 218.759 1544.94 Q215.703 1549.52 209.893 1549.52 Q204.083 1549.52 201.004 1544.94 Q197.949 1540.33 197.949 1531.6 Q197.949 1522.85 201.004 1518.27 Q204.083 1513.66 209.893 1513.66 Z" fill="#000000" fill-rule="nonzero" fill-opacity="1" /><path clip-path="url(#clip660)" d="M230.055 1542.97 L234.939 1542.97 L234.939 1548.85 L230.055 1548.85 L230.055 1542.97 Z" fill="#000000" fill-rule="nonzero" fill-opacity="1" /><path clip-path="url(#clip660)" d="M255.124 1517.37 Q251.513 1517.37 249.684 1520.93 Q247.879 1524.47 247.879 1531.6 Q247.879 1538.71 249.684 1542.27 Q251.513 1545.82 255.124 1545.82 Q258.758 1545.82 260.564 1542.27 Q262.393 1538.71 262.393 1531.6 Q262.393 1524.47 260.564 1520.93 Q258.758 1517.37 255.124 1517.37 M255.124 1513.66 Q260.934 1513.66 263.99 1518.27 Q267.069 1522.85 267.069 1531.6 Q267.069 1540.33 263.99 1544.94 Q260.934 1549.52 255.124 1549.52 Q249.314 1549.52 246.235 1544.94 Q243.18 1540.33 243.18 1531.6 Q243.18 1522.85 246.235 1518.27 Q249.314 1513.66 255.124 1513.66 Z" fill="#000000" fill-rule="nonzero" fill-opacity="1" /><path clip-path="url(#clip660)" d="M285.286 1517.37 Q281.675 1517.37 279.846 1520.93 Q278.041 1524.47 278.041 1531.6 Q278.041 1538.71 279.846 1542.27 Q281.675 1545.82 285.286 1545.82 Q288.92 1545.82 290.726 1542.27 Q292.555 1538.71 292.555 1531.6 Q292.555 1524.47 290.726 1520.93 Q288.92 1517.37 285.286 1517.37 M285.286 1513.66 Q291.096 1513.66 294.152 1518.27 Q297.23 1522.85 297.23 1531.6 Q297.23 1540.33 294.152 1544.94 Q291.096 1549.52 285.286 1549.52 Q279.476 1549.52 276.397 1544.94 Q273.342 1540.33 273.342 1531.6 Q273.342 1522.85 276.397 1518.27 Q279.476 1513.66 285.286 1513.66 Z" fill="#000000" fill-rule="nonzero" fill-opacity="1" /><path clip-path="url(#clip660)" d="M721.353 1517.37 Q717.742 1517.37 715.914 1520.93 Q714.108 1524.47 714.108 1531.6 Q714.108 1538.71 715.914 1542.27 Q717.742 1545.82 721.353 1545.82 Q724.988 1545.82 726.793 1542.27 Q728.622 1538.71 728.622 1531.6 Q728.622 1524.47 726.793 1520.93 Q724.988 1517.37 721.353 1517.37 M721.353 1513.66 Q727.164 1513.66 730.219 1518.27 Q733.298 1522.85 733.298 1531.6 Q733.298 1540.33 730.219 1544.94 Q727.164 1549.52 721.353 1549.52 Q715.543 1549.52 712.465 1544.94 Q709.409 1540.33 709.409 1531.6 Q709.409 1522.85 712.465 1518.27 Q715.543 1513.66 721.353 1513.66 Z" fill="#000000" fill-rule="nonzero" fill-opacity="1" /><path clip-path="url(#clip660)" d="M741.515 1542.97 L746.4 1542.97 L746.4 1548.85 L741.515 1548.85 L741.515 1542.97 Z" fill="#000000" fill-rule="nonzero" fill-opacity="1" /><path clip-path="url(#clip660)" d="M760.612 1544.91 L776.932 1544.91 L776.932 1548.85 L754.987 1548.85 L754.987 1544.91 Q757.649 1542.16 762.233 1537.53 Q766.839 1532.88 768.02 1531.53 Q770.265 1529.01 771.145 1527.27 Q772.048 1525.51 772.048 1523.82 Q772.048 1521.07 770.103 1519.33 Q768.182 1517.6 765.08 1517.6 Q762.881 1517.6 760.427 1518.36 Q757.997 1519.13 755.219 1520.68 L755.219 1515.95 Q758.043 1514.82 760.497 1514.24 Q762.95 1513.66 764.987 1513.66 Q770.358 1513.66 773.552 1516.35 Q776.747 1519.03 776.747 1523.52 Q776.747 1525.65 775.936 1527.57 Q775.149 1529.47 773.043 1532.07 Q772.464 1532.74 769.362 1535.95 Q766.261 1539.15 760.612 1544.91 Z" fill="#000000" fill-rule="nonzero" fill-opacity="1" /><path clip-path="url(#clip660)" d="M786.793 1514.29 L805.149 1514.29 L805.149 1518.22 L791.075 1518.22 L791.075 1526.7 Q792.094 1526.35 793.112 1526.19 Q794.131 1526 795.149 1526 Q800.936 1526 804.316 1529.17 Q807.695 1532.34 807.695 1537.76 Q807.695 1543.34 804.223 1546.44 Q800.751 1549.52 794.432 1549.52 Q792.256 1549.52 789.987 1549.15 Q787.742 1548.78 785.335 1548.04 L785.335 1543.34 Q787.418 1544.47 789.64 1545.03 Q791.862 1545.58 794.339 1545.58 Q798.344 1545.58 800.682 1543.48 Q803.02 1541.37 803.02 1537.76 Q803.02 1534.15 800.682 1532.04 Q798.344 1529.94 794.339 1529.94 Q792.464 1529.94 790.589 1530.35 Q788.737 1530.77 786.793 1531.65 L786.793 1514.29 Z" fill="#000000" fill-rule="nonzero" fill-opacity="1" /><path clip-path="url(#clip660)" d="M1231.82 1517.37 Q1228.21 1517.37 1226.38 1520.93 Q1224.57 1524.47 1224.57 1531.6 Q1224.57 1538.71 1226.38 1542.27 Q1228.21 1545.82 1231.82 1545.82 Q1235.45 1545.82 1237.26 1542.27 Q1239.09 1538.71 1239.09 1531.6 Q1239.09 1524.47 1237.26 1520.93 Q1235.45 1517.37 1231.82 1517.37 M1231.82 1513.66 Q1237.63 1513.66 1240.68 1518.27 Q1243.76 1522.85 1243.76 1531.6 Q1243.76 1540.33 1240.68 1544.94 Q1237.63 1549.52 1231.82 1549.52 Q1226.01 1549.52 1222.93 1544.94 Q1219.87 1540.33 1219.87 1531.6 Q1219.87 1522.85 1222.93 1518.27 Q1226.01 1513.66 1231.82 1513.66 Z" fill="#000000" fill-rule="nonzero" fill-opacity="1" /><path clip-path="url(#clip660)" d="M1251.98 1542.97 L1256.86 1542.97 L1256.86 1548.85 L1251.98 1548.85 L1251.98 1542.97 Z" fill="#000000" fill-rule="nonzero" fill-opacity="1" /><path clip-path="url(#clip660)" d="M1267.1 1514.29 L1285.45 1514.29 L1285.45 1518.22 L1271.38 1518.22 L1271.38 1526.7 Q1272.4 1526.35 1273.42 1526.19 Q1274.43 1526 1275.45 1526 Q1281.24 1526 1284.62 1529.17 Q1288 1532.34 1288 1537.76 Q1288 1543.34 1284.53 1546.44 Q1281.05 1549.52 1274.73 1549.52 Q1272.56 1549.52 1270.29 1549.15 Q1268.05 1548.78 1265.64 1548.04 L1265.64 1543.34 Q1267.72 1544.47 1269.94 1545.03 Q1272.17 1545.58 1274.64 1545.58 Q1278.65 1545.58 1280.98 1543.48 Q1283.32 1541.37 1283.32 1537.76 Q1283.32 1534.15 1280.98 1532.04 Q1278.65 1529.94 1274.64 1529.94 Q1272.77 1529.94 1270.89 1530.35 Q1269.04 1530.77 1267.1 1531.65 L1267.1 1514.29 Z" fill="#000000" fill-rule="nonzero" fill-opacity="1" /><path clip-path="url(#clip660)" d="M1307.21 1517.37 Q1303.6 1517.37 1301.77 1520.93 Q1299.97 1524.47 1299.97 1531.6 Q1299.97 1538.71 1301.77 1542.27 Q1303.6 1545.82 1307.21 1545.82 Q1310.85 1545.82 1312.65 1542.27 Q1314.48 1538.71 1314.48 1531.6 Q1314.48 1524.47 1312.65 1520.93 Q1310.85 1517.37 1307.21 1517.37 M1307.21 1513.66 Q1313.02 1513.66 1316.08 1518.27 Q1319.16 1522.85 1319.16 1531.6 Q1319.16 1540.33 1316.08 1544.94 Q1313.02 1549.52 1307.21 1549.52 Q1301.4 1549.52 1298.32 1544.94 Q1295.27 1540.33 1295.27 1531.6 Q1295.27 1522.85 1298.32 1518.27 Q1301.4 1513.66 1307.21 1513.66 Z" fill="#000000" fill-rule="nonzero" fill-opacity="1" /><path clip-path="url(#clip660)" d="M1743.28 1517.37 Q1739.67 1517.37 1737.84 1520.93 Q1736.03 1524.47 1736.03 1531.6 Q1736.03 1538.71 1737.84 1542.27 Q1739.67 1545.82 1743.28 1545.82 Q1746.91 1545.82 1748.72 1542.27 Q1750.55 1538.71 1750.55 1531.6 Q1750.55 1524.47 1748.72 1520.93 Q1746.91 1517.37 1743.28 1517.37 M1743.28 1513.66 Q1749.09 1513.66 1752.14 1518.27 Q1755.22 1522.85 1755.22 1531.6 Q1755.22 1540.33 1752.14 1544.94 Q1749.09 1549.52 1743.28 1549.52 Q1737.47 1549.52 1734.39 1544.94 Q1731.33 1540.33 1731.33 1531.6 Q1731.33 1522.85 1734.39 1518.27 Q1737.47 1513.66 1743.28 1513.66 Z" fill="#000000" fill-rule="nonzero" fill-opacity="1" /><path clip-path="url(#clip660)" d="M1763.44 1542.97 L1768.32 1542.97 L1768.32 1548.85 L1763.44 1548.85 L1763.44 1542.97 Z" fill="#000000" fill-rule="nonzero" fill-opacity="1" /><path clip-path="url(#clip660)" d="M1777.33 1514.29 L1799.55 1514.29 L1799.55 1516.28 L1787.01 1548.85 L1782.12 1548.85 L1793.93 1518.22 L1777.33 1518.22 L1777.33 1514.29 Z" fill="#000000" fill-rule="nonzero" fill-opacity="1" /><path clip-path="url(#clip660)" d="M1808.72 1514.29 L1827.07 1514.29 L1827.07 1518.22 L1813 1518.22 L1813 1526.7 Q1814.02 1526.35 1815.04 1526.19 Q1816.06 1526 1817.07 1526 Q1822.86 1526 1826.24 1529.17 Q1829.62 1532.34 1829.62 1537.76 Q1829.62 1543.34 1826.15 1546.44 Q1822.68 1549.52 1816.36 1549.52 Q1814.18 1549.52 1811.91 1549.15 Q1809.67 1548.78 1807.26 1548.04 L1807.26 1543.34 Q1809.34 1544.47 1811.57 1545.03 Q1813.79 1545.58 1816.26 1545.58 Q1820.27 1545.58 1822.61 1543.48 Q1824.95 1541.37 1824.95 1537.76 Q1824.95 1534.15 1822.61 1532.04 Q1820.27 1529.94 1816.26 1529.94 Q1814.39 1529.94 1812.51 1530.35 Q1810.66 1530.77 1808.72 1531.65 L1808.72 1514.29 Z" fill="#000000" fill-rule="nonzero" fill-opacity="1" /><path clip-path="url(#clip660)" d="M2243.51 1544.91 L2251.15 1544.91 L2251.15 1518.55 L2242.84 1520.21 L2242.84 1515.95 L2251.1 1514.29 L2255.78 1514.29 L2255.78 1544.91 L2263.42 1544.91 L2263.42 1548.85 L2243.51 1548.85 L2243.51 1544.91 Z" fill="#000000" fill-rule="nonzero" fill-opacity="1" /><path clip-path="url(#clip660)" d="M2272.86 1542.97 L2277.75 1542.97 L2277.75 1548.85 L2272.86 1548.85 L2272.86 1542.97 Z" fill="#000000" fill-rule="nonzero" fill-opacity="1" /><path clip-path="url(#clip660)" d="M2297.93 1517.37 Q2294.32 1517.37 2292.49 1520.93 Q2290.69 1524.47 2290.69 1531.6 Q2290.69 1538.71 2292.49 1542.27 Q2294.32 1545.82 2297.93 1545.82 Q2301.57 1545.82 2303.37 1542.27 Q2305.2 1538.71 2305.2 1531.6 Q2305.2 1524.47 2303.37 1520.93 Q2301.57 1517.37 2297.93 1517.37 M2297.93 1513.66 Q2303.74 1513.66 2306.8 1518.27 Q2309.88 1522.85 2309.88 1531.6 Q2309.88 1540.33 2306.8 1544.94 Q2303.74 1549.52 2297.93 1549.52 Q2292.12 1549.52 2289.04 1544.94 Q2285.99 1540.33 2285.99 1531.6 Q2285.99 1522.85 2289.04 1518.27 Q2292.12 1513.66 2297.93 1513.66 Z" fill="#000000" fill-rule="nonzero" fill-opacity="1" /><path clip-path="url(#clip660)" d="M2328.1 1517.37 Q2324.48 1517.37 2322.66 1520.93 Q2320.85 1524.47 2320.85 1531.6 Q2320.85 1538.71 2322.66 1542.27 Q2324.48 1545.82 2328.1 1545.82 Q2331.73 1545.82 2333.54 1542.27 Q2335.36 1538.71 2335.36 1531.6 Q2335.36 1524.47 2333.54 1520.93 Q2331.73 1517.37 2328.1 1517.37 M2328.1 1513.66 Q2333.91 1513.66 2336.96 1518.27 Q2340.04 1522.85 2340.04 1531.6 Q2340.04 1540.33 2336.96 1544.94 Q2333.91 1549.52 2328.1 1549.52 Q2322.29 1549.52 2319.21 1544.94 Q2316.15 1540.33 2316.15 1531.6 Q2316.15 1522.85 2319.21 1518.27 Q2322.29 1513.66 2328.1 1513.66 Z" fill="#000000" fill-rule="nonzero" fill-opacity="1" /><polyline clip-path="url(#clip660)" style="stroke:#000000; stroke-linecap:round; stroke-linejoin:round; stroke-width:4; stroke-opacity:1; fill:none" points="186.274,1486.45 186.274,123.472 "/>
<polyline clip-path="url(#clip660)" style="stroke:#000000; stroke-linecap:round; stroke-linejoin:round; stroke-width:4; stroke-opacity:1; fill:none" points="186.274,1447.87 205.172,1447.87 "/>
<polyline clip-path="url(#clip660)" style="stroke:#000000; stroke-linecap:round; stroke-linejoin:round; stroke-width:4; stroke-opacity:1; fill:none" points="186.274,1126.42 205.172,1126.42 "/>
<polyline clip-path="url(#clip660)" style="stroke:#000000; stroke-linecap:round; stroke-linejoin:round; stroke-width:4; stroke-opacity:1; fill:none" points="186.274,804.96 205.172,804.96 "/>
<polyline clip-path="url(#clip660)" style="stroke:#000000; stroke-linecap:round; stroke-linejoin:round; stroke-width:4; stroke-opacity:1; fill:none" points="186.274,483.503 205.172,483.503 "/>
<polyline clip-path="url(#clip660)" style="stroke:#000000; stroke-linecap:round; stroke-linejoin:round; stroke-width:4; stroke-opacity:1; fill:none" points="186.274,162.047 205.172,162.047 "/>
<path clip-path="url(#clip660)" d="M62.9365 1433.67 Q59.3254 1433.67 57.4967 1437.24 Q55.6912 1440.78 55.6912 1447.91 Q55.6912 1455.01 57.4967 1458.58 Q59.3254 1462.12 62.9365 1462.12 Q66.5707 1462.12 68.3763 1458.58 Q70.205 1455.01 70.205 1447.91 Q70.205 1440.78 68.3763 1437.24 Q66.5707 1433.67 62.9365 1433.67 M62.9365 1429.97 Q68.7467 1429.97 71.8022 1434.57 Q74.8809 1439.16 74.8809 1447.91 Q74.8809 1456.63 71.8022 1461.24 Q68.7467 1465.82 62.9365 1465.82 Q57.1264 1465.82 54.0477 1461.24 Q50.9921 1456.63 50.9921 1447.91 Q50.9921 1439.16 54.0477 1434.57 Q57.1264 1429.97 62.9365 1429.97 Z" fill="#000000" fill-rule="nonzero" fill-opacity="1" /><path clip-path="url(#clip660)" d="M83.0984 1459.27 L87.9827 1459.27 L87.9827 1465.15 L83.0984 1465.15 L83.0984 1459.27 Z" fill="#000000" fill-rule="nonzero" fill-opacity="1" /><path clip-path="url(#clip660)" d="M108.168 1433.67 Q104.557 1433.67 102.728 1437.24 Q100.922 1440.78 100.922 1447.91 Q100.922 1455.01 102.728 1458.58 Q104.557 1462.12 108.168 1462.12 Q111.802 1462.12 113.608 1458.58 Q115.436 1455.01 115.436 1447.91 Q115.436 1440.78 113.608 1437.24 Q111.802 1433.67 108.168 1433.67 M108.168 1429.97 Q113.978 1429.97 117.033 1434.57 Q120.112 1439.16 120.112 1447.91 Q120.112 1456.63 117.033 1461.24 Q113.978 1465.82 108.168 1465.82 Q102.358 1465.82 99.2789 1461.24 Q96.2234 1456.63 96.2234 1447.91 Q96.2234 1439.16 99.2789 1434.57 Q102.358 1429.97 108.168 1429.97 Z" fill="#000000" fill-rule="nonzero" fill-opacity="1" /><path clip-path="url(#clip660)" d="M138.33 1433.67 Q134.719 1433.67 132.89 1437.24 Q131.084 1440.78 131.084 1447.91 Q131.084 1455.01 132.89 1458.58 Q134.719 1462.12 138.33 1462.12 Q141.964 1462.12 143.769 1458.58 Q145.598 1455.01 145.598 1447.91 Q145.598 1440.78 143.769 1437.24 Q141.964 1433.67 138.33 1433.67 M138.33 1429.97 Q144.14 1429.97 147.195 1434.57 Q150.274 1439.16 150.274 1447.91 Q150.274 1456.63 147.195 1461.24 Q144.14 1465.82 138.33 1465.82 Q132.519 1465.82 129.441 1461.24 Q126.385 1456.63 126.385 1447.91 Q126.385 1439.16 129.441 1434.57 Q132.519 1429.97 138.33 1429.97 Z" fill="#000000" fill-rule="nonzero" fill-opacity="1" /><path clip-path="url(#clip660)" d="M63.9319 1112.22 Q60.3208 1112.22 58.4921 1115.78 Q56.6865 1119.32 56.6865 1126.45 Q56.6865 1133.56 58.4921 1137.12 Q60.3208 1140.66 63.9319 1140.66 Q67.5661 1140.66 69.3717 1137.12 Q71.2004 1133.56 71.2004 1126.45 Q71.2004 1119.32 69.3717 1115.78 Q67.5661 1112.22 63.9319 1112.22 M63.9319 1108.51 Q69.742 1108.51 72.7976 1113.12 Q75.8763 1117.7 75.8763 1126.45 Q75.8763 1135.18 72.7976 1139.78 Q69.742 1144.37 63.9319 1144.37 Q58.1217 1144.37 55.043 1139.78 Q51.9875 1135.18 51.9875 1126.45 Q51.9875 1117.7 55.043 1113.12 Q58.1217 1108.51 63.9319 1108.51 Z" fill="#000000" fill-rule="nonzero" fill-opacity="1" /><path clip-path="url(#clip660)" d="M84.0938 1137.82 L88.978 1137.82 L88.978 1143.7 L84.0938 1143.7 L84.0938 1137.82 Z" fill="#000000" fill-rule="nonzero" fill-opacity="1" /><path clip-path="url(#clip660)" d="M103.191 1139.76 L119.51 1139.76 L119.51 1143.7 L97.566 1143.7 L97.566 1139.76 Q100.228 1137.01 104.811 1132.38 Q109.418 1127.72 110.598 1126.38 Q112.844 1123.86 113.723 1122.12 Q114.626 1120.36 114.626 1118.67 Q114.626 1115.92 112.682 1114.18 Q110.76 1112.45 107.658 1112.45 Q105.459 1112.45 103.006 1113.21 Q100.575 1113.97 97.7974 1115.53 L97.7974 1110.8 Q100.621 1109.67 103.075 1109.09 Q105.529 1108.51 107.566 1108.51 Q112.936 1108.51 116.131 1111.2 Q119.325 1113.88 119.325 1118.37 Q119.325 1120.5 118.515 1122.42 Q117.728 1124.32 115.621 1126.91 Q115.043 1127.59 111.941 1130.8 Q108.839 1134 103.191 1139.76 Z" fill="#000000" fill-rule="nonzero" fill-opacity="1" /><path clip-path="url(#clip660)" d="M129.371 1109.14 L147.728 1109.14 L147.728 1113.07 L133.654 1113.07 L133.654 1121.54 Q134.672 1121.2 135.691 1121.03 Q136.709 1120.85 137.728 1120.85 Q143.515 1120.85 146.894 1124.02 Q150.274 1127.19 150.274 1132.61 Q150.274 1138.19 146.802 1141.29 Q143.33 1144.37 137.01 1144.37 Q134.834 1144.37 132.566 1144 Q130.32 1143.63 127.913 1142.89 L127.913 1138.19 Q129.996 1139.32 132.219 1139.88 Q134.441 1140.43 136.918 1140.43 Q140.922 1140.43 143.26 1138.33 Q145.598 1136.22 145.598 1132.61 Q145.598 1129 143.26 1126.89 Q140.922 1124.78 136.918 1124.78 Q135.043 1124.78 133.168 1125.2 Q131.316 1125.62 129.371 1126.5 L129.371 1109.14 Z" fill="#000000" fill-rule="nonzero" fill-opacity="1" /><path clip-path="url(#clip660)" d="M62.9365 790.759 Q59.3254 790.759 57.4967 794.323 Q55.6912 797.865 55.6912 804.995 Q55.6912 812.101 57.4967 815.666 Q59.3254 819.208 62.9365 819.208 Q66.5707 819.208 68.3763 815.666 Q70.205 812.101 70.205 804.995 Q70.205 797.865 68.3763 794.323 Q66.5707 790.759 62.9365 790.759 M62.9365 787.055 Q68.7467 787.055 71.8022 791.661 Q74.8809 796.245 74.8809 804.995 Q74.8809 813.722 71.8022 818.328 Q68.7467 822.911 62.9365 822.911 Q57.1264 822.911 54.0477 818.328 Q50.9921 813.722 50.9921 804.995 Q50.9921 796.245 54.0477 791.661 Q57.1264 787.055 62.9365 787.055 Z" fill="#000000" fill-rule="nonzero" fill-opacity="1" /><path clip-path="url(#clip660)" d="M83.0984 816.36 L87.9827 816.36 L87.9827 822.24 L83.0984 822.24 L83.0984 816.36 Z" fill="#000000" fill-rule="nonzero" fill-opacity="1" /><path clip-path="url(#clip660)" d="M98.2141 787.68 L116.57 787.68 L116.57 791.615 L102.496 791.615 L102.496 800.087 Q103.515 799.74 104.534 799.578 Q105.552 799.393 106.571 799.393 Q112.358 799.393 115.737 802.564 Q119.117 805.735 119.117 811.152 Q119.117 816.731 115.645 819.833 Q112.172 822.911 105.853 822.911 Q103.677 822.911 101.409 822.541 Q99.1632 822.171 96.7558 821.43 L96.7558 816.731 Q98.8391 817.865 101.061 818.421 Q103.284 818.976 105.76 818.976 Q109.765 818.976 112.103 816.87 Q114.441 814.763 114.441 811.152 Q114.441 807.541 112.103 805.435 Q109.765 803.328 105.76 803.328 Q103.885 803.328 102.01 803.745 Q100.159 804.161 98.2141 805.041 L98.2141 787.68 Z" fill="#000000" fill-rule="nonzero" fill-opacity="1" /><path clip-path="url(#clip660)" d="M138.33 790.759 Q134.719 790.759 132.89 794.323 Q131.084 797.865 131.084 804.995 Q131.084 812.101 132.89 815.666 Q134.719 819.208 138.33 819.208 Q141.964 819.208 143.769 815.666 Q145.598 812.101 145.598 804.995 Q145.598 797.865 143.769 794.323 Q141.964 790.759 138.33 790.759 M138.33 787.055 Q144.14 787.055 147.195 791.661 Q150.274 796.245 150.274 804.995 Q150.274 813.722 147.195 818.328 Q144.14 822.911 138.33 822.911 Q132.519 822.911 129.441 818.328 Q126.385 813.722 126.385 804.995 Q126.385 796.245 129.441 791.661 Q132.519 787.055 138.33 787.055 Z" fill="#000000" fill-rule="nonzero" fill-opacity="1" /><path clip-path="url(#clip660)" d="M63.9319 469.302 Q60.3208 469.302 58.4921 472.867 Q56.6865 476.409 56.6865 483.538 Q56.6865 490.645 58.4921 494.209 Q60.3208 497.751 63.9319 497.751 Q67.5661 497.751 69.3717 494.209 Q71.2004 490.645 71.2004 483.538 Q71.2004 476.409 69.3717 472.867 Q67.5661 469.302 63.9319 469.302 M63.9319 465.598 Q69.742 465.598 72.7976 470.205 Q75.8763 474.788 75.8763 483.538 Q75.8763 492.265 72.7976 496.871 Q69.742 501.455 63.9319 501.455 Q58.1217 501.455 55.043 496.871 Q51.9875 492.265 51.9875 483.538 Q51.9875 474.788 55.043 470.205 Q58.1217 465.598 63.9319 465.598 Z" fill="#000000" fill-rule="nonzero" fill-opacity="1" /><path clip-path="url(#clip660)" d="M84.0938 494.904 L88.978 494.904 L88.978 500.783 L84.0938 500.783 L84.0938 494.904 Z" fill="#000000" fill-rule="nonzero" fill-opacity="1" /><path clip-path="url(#clip660)" d="M97.9826 466.223 L120.205 466.223 L120.205 468.214 L107.658 500.783 L102.774 500.783 L114.58 470.159 L97.9826 470.159 L97.9826 466.223 Z" fill="#000000" fill-rule="nonzero" fill-opacity="1" /><path clip-path="url(#clip660)" d="M129.371 466.223 L147.728 466.223 L147.728 470.159 L133.654 470.159 L133.654 478.631 Q134.672 478.284 135.691 478.122 Q136.709 477.936 137.728 477.936 Q143.515 477.936 146.894 481.108 Q150.274 484.279 150.274 489.696 Q150.274 495.274 146.802 498.376 Q143.33 501.455 137.01 501.455 Q134.834 501.455 132.566 501.084 Q130.32 500.714 127.913 499.973 L127.913 495.274 Q129.996 496.408 132.219 496.964 Q134.441 497.52 136.918 497.52 Q140.922 497.52 143.26 495.413 Q145.598 493.307 145.598 489.696 Q145.598 486.084 143.26 483.978 Q140.922 481.872 136.918 481.872 Q135.043 481.872 133.168 482.288 Q131.316 482.705 129.371 483.584 L129.371 466.223 Z" fill="#000000" fill-rule="nonzero" fill-opacity="1" /><path clip-path="url(#clip660)" d="M53.7467 175.392 L61.3856 175.392 L61.3856 149.026 L53.0754 150.693 L53.0754 146.434 L61.3393 144.767 L66.0152 144.767 L66.0152 175.392 L73.654 175.392 L73.654 179.327 L53.7467 179.327 L53.7467 175.392 Z" fill="#000000" fill-rule="nonzero" fill-opacity="1" /><path clip-path="url(#clip660)" d="M83.0984 173.447 L87.9827 173.447 L87.9827 179.327 L83.0984 179.327 L83.0984 173.447 Z" fill="#000000" fill-rule="nonzero" fill-opacity="1" /><path clip-path="url(#clip660)" d="M108.168 147.846 Q104.557 147.846 102.728 151.41 Q100.922 154.952 100.922 162.082 Q100.922 169.188 102.728 172.753 Q104.557 176.295 108.168 176.295 Q111.802 176.295 113.608 172.753 Q115.436 169.188 115.436 162.082 Q115.436 154.952 113.608 151.41 Q111.802 147.846 108.168 147.846 M108.168 144.142 Q113.978 144.142 117.033 148.748 Q120.112 153.332 120.112 162.082 Q120.112 170.808 117.033 175.415 Q113.978 179.998 108.168 179.998 Q102.358 179.998 99.2789 175.415 Q96.2234 170.808 96.2234 162.082 Q96.2234 153.332 99.2789 148.748 Q102.358 144.142 108.168 144.142 Z" fill="#000000" fill-rule="nonzero" fill-opacity="1" /><path clip-path="url(#clip660)" d="M138.33 147.846 Q134.719 147.846 132.89 151.41 Q131.084 154.952 131.084 162.082 Q131.084 169.188 132.89 172.753 Q134.719 176.295 138.33 176.295 Q141.964 176.295 143.769 172.753 Q145.598 169.188 145.598 162.082 Q145.598 154.952 143.769 151.41 Q141.964 147.846 138.33 147.846 M138.33 144.142 Q144.14 144.142 147.195 148.748 Q150.274 153.332 150.274 162.082 Q150.274 170.808 147.195 175.415 Q144.14 179.998 138.33 179.998 Q132.519 179.998 129.441 175.415 Q126.385 170.808 126.385 162.082 Q126.385 153.332 129.441 148.748 Q132.519 144.142 138.33 144.142 Z" fill="#000000" fill-rule="nonzero" fill-opacity="1" /><path clip-path="url(#clip660)" d="M928.53 12.096 L936.713 12.096 L936.713 72.576 L928.53 72.576 L928.53 12.096 Z" fill="#000000" fill-rule="nonzero" fill-opacity="1" /><path clip-path="url(#clip660)" d="M990.387 45.1919 L990.387 72.576 L982.934 72.576 L982.934 45.4349 Q982.934 38.994 980.422 35.7938 Q977.911 32.5936 972.887 32.5936 Q966.852 32.5936 963.368 36.4419 Q959.884 40.2903 959.884 46.9338 L959.884 72.576 L952.39 72.576 L952.39 27.2059 L959.884 27.2059 L959.884 34.2544 Q962.558 30.163 966.163 28.1376 Q969.809 26.1121 974.548 26.1121 Q982.367 26.1121 986.377 30.9732 Q990.387 35.7938 990.387 45.1919 Z" fill="#000000" fill-rule="nonzero" fill-opacity="1" /><path clip-path="url(#clip660)" d="M1028.22 9.54393 L1028.22 15.7418 L1021.09 15.7418 Q1017.08 15.7418 1015.5 17.3622 Q1013.96 18.9825 1013.96 23.1955 L1013.96 27.2059 L1026.24 27.2059 L1026.24 32.9987 L1013.96 32.9987 L1013.96 72.576 L1006.47 72.576 L1006.47 32.9987 L999.34 32.9987 L999.34 27.2059 L1006.47 27.2059 L1006.47 24.0462 Q1006.47 16.471 1009.99 13.0277 Q1013.52 9.54393 1021.17 9.54393 L1028.22 9.54393 Z" fill="#000000" fill-rule="nonzero" fill-opacity="1" /><path clip-path="url(#clip660)" d="M1073.27 48.0275 L1073.27 51.6733 L1039 51.6733 Q1039.48 59.3701 1043.62 63.421 Q1047.79 67.4314 1055.2 67.4314 Q1059.5 67.4314 1063.51 66.3781 Q1067.56 65.3249 1071.53 63.2184 L1071.53 70.267 Q1067.52 71.9684 1063.3 72.8596 Q1059.09 73.7508 1054.76 73.7508 Q1043.9 73.7508 1037.54 67.4314 Q1031.22 61.1119 1031.22 50.3365 Q1031.22 39.1965 1037.22 32.6746 Q1043.25 26.1121 1053.46 26.1121 Q1062.62 26.1121 1067.92 32.0264 Q1073.27 37.9003 1073.27 48.0275 M1065.82 45.84 Q1065.73 39.7232 1062.37 36.0774 Q1059.05 32.4315 1053.54 32.4315 Q1047.3 32.4315 1043.54 35.9558 Q1039.81 39.4801 1039.24 45.8805 L1065.82 45.84 Z" fill="#000000" fill-rule="nonzero" fill-opacity="1" /><path clip-path="url(#clip660)" d="M1111.79 34.1734 Q1110.54 33.4443 1109.04 33.1202 Q1107.58 32.7556 1105.8 32.7556 Q1099.48 32.7556 1096.08 36.8875 Q1092.71 40.9789 1092.71 48.6757 L1092.71 72.576 L1085.22 72.576 L1085.22 27.2059 L1092.71 27.2059 L1092.71 34.2544 Q1095.06 30.1225 1098.83 28.1376 Q1102.6 26.1121 1107.99 26.1121 Q1108.75 26.1121 1109.69 26.2337 Q1110.62 26.3147 1111.75 26.5172 L1111.79 34.1734 Z" fill="#000000" fill-rule="nonzero" fill-opacity="1" /><path clip-path="url(#clip660)" d="M1156.6 48.0275 L1156.6 51.6733 L1122.33 51.6733 Q1122.81 59.3701 1126.94 63.421 Q1131.12 67.4314 1138.53 67.4314 Q1142.82 67.4314 1146.83 66.3781 Q1150.88 65.3249 1154.85 63.2184 L1154.85 70.267 Q1150.84 71.9684 1146.63 72.8596 Q1142.42 73.7508 1138.08 73.7508 Q1127.23 73.7508 1120.87 67.4314 Q1114.55 61.1119 1114.55 50.3365 Q1114.55 39.1965 1120.54 32.6746 Q1126.58 26.1121 1136.79 26.1121 Q1145.94 26.1121 1151.25 32.0264 Q1156.6 37.9003 1156.6 48.0275 M1149.14 45.84 Q1149.06 39.7232 1145.7 36.0774 Q1142.38 32.4315 1136.87 32.4315 Q1130.63 32.4315 1126.86 35.9558 Q1123.14 39.4801 1122.57 45.8805 L1149.14 45.84 Z" fill="#000000" fill-rule="nonzero" fill-opacity="1" /><path clip-path="url(#clip660)" d="M1206.54 45.1919 L1206.54 72.576 L1199.09 72.576 L1199.09 45.4349 Q1199.09 38.994 1196.58 35.7938 Q1194.07 32.5936 1189.04 32.5936 Q1183.01 32.5936 1179.52 36.4419 Q1176.04 40.2903 1176.04 46.9338 L1176.04 72.576 L1168.55 72.576 L1168.55 27.2059 L1176.04 27.2059 L1176.04 34.2544 Q1178.71 30.163 1182.32 28.1376 Q1185.97 26.1121 1190.7 26.1121 Q1198.52 26.1121 1202.53 30.9732 Q1206.54 35.7938 1206.54 45.1919 Z" fill="#000000" fill-rule="nonzero" fill-opacity="1" /><path clip-path="url(#clip660)" d="M1254.06 28.9478 L1254.06 35.9153 Q1250.9 34.1734 1247.7 33.3227 Q1244.54 32.4315 1241.3 32.4315 Q1234.05 32.4315 1230.04 37.0496 Q1226.03 41.6271 1226.03 49.9314 Q1226.03 58.2358 1230.04 62.8538 Q1234.05 67.4314 1241.3 67.4314 Q1244.54 67.4314 1247.7 66.5807 Q1250.9 65.6895 1254.06 63.9476 L1254.06 70.8341 Q1250.94 72.2924 1247.58 73.0216 Q1244.26 73.7508 1240.49 73.7508 Q1230.24 73.7508 1224.21 67.3098 Q1218.17 60.8689 1218.17 49.9314 Q1218.17 38.832 1224.25 32.472 Q1230.36 26.1121 1240.98 26.1121 Q1244.42 26.1121 1247.7 26.8413 Q1250.98 27.5299 1254.06 28.9478 Z" fill="#000000" fill-rule="nonzero" fill-opacity="1" /><path clip-path="url(#clip660)" d="M1305.83 48.0275 L1305.83 51.6733 L1271.56 51.6733 Q1272.05 59.3701 1276.18 63.421 Q1280.35 67.4314 1287.76 67.4314 Q1292.06 67.4314 1296.07 66.3781 Q1300.12 65.3249 1304.09 63.2184 L1304.09 70.267 Q1300.08 71.9684 1295.87 72.8596 Q1291.65 73.7508 1287.32 73.7508 Q1276.46 73.7508 1270.1 67.4314 Q1263.78 61.1119 1263.78 50.3365 Q1263.78 39.1965 1269.78 32.6746 Q1275.81 26.1121 1286.02 26.1121 Q1295.18 26.1121 1300.48 32.0264 Q1305.83 37.9003 1305.83 48.0275 M1298.38 45.84 Q1298.3 39.7232 1294.93 36.0774 Q1291.61 32.4315 1286.1 32.4315 Q1279.87 32.4315 1276.1 35.9558 Q1272.37 39.4801 1271.8 45.8805 L1298.38 45.84 Z" fill="#000000" fill-rule="nonzero" fill-opacity="1" /><path clip-path="url(#clip660)" d="M1370.73 34.1734 Q1369.47 33.4443 1367.97 33.1202 Q1366.51 32.7556 1364.73 32.7556 Q1358.41 32.7556 1355.01 36.8875 Q1351.65 40.9789 1351.65 48.6757 L1351.65 72.576 L1344.15 72.576 L1344.15 27.2059 L1351.65 27.2059 L1351.65 34.2544 Q1354 30.1225 1357.76 28.1376 Q1361.53 26.1121 1366.92 26.1121 Q1367.69 26.1121 1368.62 26.2337 Q1369.55 26.3147 1370.69 26.5172 L1370.73 34.1734 Z" fill="#000000" fill-rule="nonzero" fill-opacity="1" /><path clip-path="url(#clip660)" d="M1415.53 48.0275 L1415.53 51.6733 L1381.26 51.6733 Q1381.75 59.3701 1385.88 63.421 Q1390.05 67.4314 1397.46 67.4314 Q1401.76 67.4314 1405.77 66.3781 Q1409.82 65.3249 1413.79 63.2184 L1413.79 70.267 Q1409.78 71.9684 1405.56 72.8596 Q1401.35 73.7508 1397.02 73.7508 Q1386.16 73.7508 1379.8 67.4314 Q1373.48 61.1119 1373.48 50.3365 Q1373.48 39.1965 1379.48 32.6746 Q1385.51 26.1121 1395.72 26.1121 Q1404.88 26.1121 1410.18 32.0264 Q1415.53 37.9003 1415.53 48.0275 M1408.08 45.84 Q1408 39.7232 1404.63 36.0774 Q1401.31 32.4315 1395.8 32.4315 Q1389.56 32.4315 1385.8 35.9558 Q1382.07 39.4801 1381.5 45.8805 L1408.08 45.84 Z" fill="#000000" fill-rule="nonzero" fill-opacity="1" /><path clip-path="url(#clip660)" d="M1456.69 28.5427 L1456.69 35.5912 Q1453.53 33.9709 1450.12 33.1607 Q1446.72 32.3505 1443.08 32.3505 Q1437.53 32.3505 1434.73 34.0519 Q1431.98 35.7533 1431.98 39.156 Q1431.98 41.7486 1433.96 43.2475 Q1435.95 44.7058 1441.94 46.0426 L1444.49 46.6097 Q1452.43 48.3111 1455.76 51.4303 Q1459.12 54.509 1459.12 60.0587 Q1459.12 66.3781 1454.09 70.0644 Q1449.11 73.7508 1440.36 73.7508 Q1436.72 73.7508 1432.75 73.0216 Q1428.82 72.3329 1424.44 70.9151 L1424.44 63.2184 Q1428.57 65.3654 1432.58 66.4591 Q1436.59 67.5124 1440.52 67.5124 Q1445.79 67.5124 1448.63 65.73 Q1451.46 63.9071 1451.46 60.6258 Q1451.46 57.5877 1449.4 55.9673 Q1447.37 54.3469 1440.44 52.8481 L1437.85 52.2405 Q1430.92 50.7821 1427.84 47.7845 Q1424.77 44.7463 1424.77 39.4801 Q1424.77 33.0797 1429.3 29.5959 Q1433.84 26.1121 1442.18 26.1121 Q1446.32 26.1121 1449.96 26.7198 Q1453.61 27.3274 1456.69 28.5427 Z" fill="#000000" fill-rule="nonzero" fill-opacity="1" /><path clip-path="url(#clip660)" d="M1470.22 54.671 L1470.22 27.2059 L1477.67 27.2059 L1477.67 54.3874 Q1477.67 60.8284 1480.18 64.0691 Q1482.69 67.2693 1487.72 67.2693 Q1493.75 67.2693 1497.24 63.421 Q1500.76 59.5726 1500.76 52.9291 L1500.76 27.2059 L1508.21 27.2059 L1508.21 72.576 L1500.76 72.576 L1500.76 65.6084 Q1498.05 69.7404 1494.44 71.7658 Q1490.88 73.7508 1486.14 73.7508 Q1478.32 73.7508 1474.27 68.8897 Q1470.22 64.0286 1470.22 54.671 M1488.97 26.1121 L1488.97 26.1121 Z" fill="#000000" fill-rule="nonzero" fill-opacity="1" /><path clip-path="url(#clip660)" d="M1523.57 9.54393 L1531.02 9.54393 L1531.02 72.576 L1523.57 72.576 L1523.57 9.54393 Z" fill="#000000" fill-rule="nonzero" fill-opacity="1" /><path clip-path="url(#clip660)" d="M1553.99 14.324 L1553.99 27.2059 L1569.34 27.2059 L1569.34 32.9987 L1553.99 32.9987 L1553.99 57.6282 Q1553.99 63.1779 1555.49 64.7578 Q1557.03 66.3376 1561.69 66.3376 L1569.34 66.3376 L1569.34 72.576 L1561.69 72.576 Q1553.06 72.576 1549.78 69.3758 Q1546.5 66.1351 1546.5 57.6282 L1546.5 32.9987 L1541.03 32.9987 L1541.03 27.2059 L1546.5 27.2059 L1546.5 14.324 L1553.99 14.324 Z" fill="#000000" fill-rule="nonzero" fill-opacity="1" /><path clip-path="url(#clip660)" d="M1608.07 28.5427 L1608.07 35.5912 Q1604.91 33.9709 1601.51 33.1607 Q1598.1 32.3505 1594.46 32.3505 Q1588.91 32.3505 1586.11 34.0519 Q1583.36 35.7533 1583.36 39.156 Q1583.36 41.7486 1585.34 43.2475 Q1587.33 44.7058 1593.32 46.0426 L1595.88 46.6097 Q1603.82 48.3111 1607.14 51.4303 Q1610.5 54.509 1610.5 60.0587 Q1610.5 66.3781 1605.48 70.0644 Q1600.49 73.7508 1591.74 73.7508 Q1588.1 73.7508 1584.13 73.0216 Q1580.2 72.3329 1575.82 70.9151 L1575.82 63.2184 Q1579.96 65.3654 1583.97 66.4591 Q1587.98 67.5124 1591.91 67.5124 Q1597.17 67.5124 1600.01 65.73 Q1602.84 63.9071 1602.84 60.6258 Q1602.84 57.5877 1600.78 55.9673 Q1598.75 54.3469 1591.83 52.8481 L1589.23 52.2405 Q1582.31 50.7821 1579.23 47.7845 Q1576.15 44.7463 1576.15 39.4801 Q1576.15 33.0797 1580.69 29.5959 Q1585.22 26.1121 1593.57 26.1121 Q1597.7 26.1121 1601.34 26.7198 Q1604.99 27.3274 1608.07 28.5427 Z" fill="#000000" fill-rule="nonzero" fill-opacity="1" /><polyline clip-path="url(#clip662)" style="stroke:#009af9; stroke-linecap:round; stroke-linejoin:round; stroke-width:4; stroke-opacity:1; fill:none" points="247.59,1447.87 249.635,1447.87 251.681,1447.87 253.727,1447.87 255.773,1447.87 257.819,1447.87 259.865,1447.87 261.911,1447.87 263.957,1447.87 266.003,1447.87 268.048,1447.87 270.094,1447.87 272.14,1447.87 274.186,1447.87 276.232,1447.87 278.278,1447.87 280.324,1447.87 282.37,1447.87 284.416,1447.87 286.462,1447.87 288.507,1447.87 290.553,1447.87 292.599,1447.87 294.645,1447.87 296.691,1447.87 298.737,1447.87 300.783,1447.87 302.829,1447.87 304.875,1447.87 306.921,1447.87 308.966,1447.87 311.012,1447.87 313.058,1447.87 315.104,1447.87 317.15,1447.87 319.196,1447.87 321.242,1447.87 323.288,1447.87 325.334,1447.87 327.38,1447.87 329.425,1447.87 331.471,1447.87 333.517,1447.87 335.563,1447.87 337.609,1447.87 339.655,1447.87 341.701,1447.87 343.747,1447.87 345.793,1447.87 347.838,1447.87 349.884,1447.87 351.93,1447.87 353.976,1447.87 356.022,1447.87 358.068,1447.87 360.114,1447.87 362.16,1447.87 364.206,1447.87 366.252,1447.87 368.297,1447.87 370.343,1447.87 372.389,1447.87 374.435,1447.87 376.481,1447.87 378.527,1447.87 380.573,1447.87 382.619,1447.87 384.665,1447.87 386.711,1447.87 388.756,1447.87 390.802,1447.87 392.848,1447.87 394.894,1447.87 396.94,1447.87 398.986,1447.87 401.032,1447.87 403.078,1447.87 405.124,1447.87 407.169,1447.87 409.215,1447.87 411.261,1447.87 413.307,1447.87 415.353,1447.87 417.399,1447.87 419.445,1447.87 421.491,1447.87 423.537,1447.87 425.583,1447.87 427.628,1447.87 429.674,1447.87 431.72,1447.87 433.766,1447.87 435.812,1447.87 437.858,1447.87 439.904,1447.87 441.95,1447.87 443.996,1447.87 446.042,1447.87 448.087,1447.87 450.133,1447.87 452.179,1447.87 454.225,1447.87 456.271,1447.87 458.317,1447.87 460.363,1447.87 462.409,1447.87 464.455,1447.87 466.5,1447.87 468.546,1447.87 470.592,1447.87 472.638,1447.87 474.684,1447.87 476.73,1447.87 478.776,1447.87 480.822,1447.87 482.868,1447.87 484.914,1447.87 486.959,1447.87 489.005,1447.87 491.051,1447.87 493.097,1447.87 495.143,1447.87 497.189,1447.87 499.235,1447.87 501.281,1447.87 503.327,1447.87 505.373,1447.87 507.418,1447.87 509.464,1447.87 511.51,1447.87 513.556,1447.87 515.602,1447.87 517.648,1447.87 519.694,1447.87 521.74,1447.87 523.786,1447.87 525.831,1447.87 527.877,1447.87 529.923,1447.87 531.969,1447.87 534.015,1447.87 536.061,1447.87 538.107,1447.87 540.153,1447.87 542.199,1447.87 544.245,1447.87 546.29,1447.87 548.336,1447.87 550.382,1447.87 552.428,1447.87 554.474,1447.87 556.52,1447.87 558.566,1447.87 560.612,1447.87 562.658,1447.87 564.704,1447.87 566.749,1447.87 568.795,1447.87 570.841,1447.87 572.887,1447.87 574.933,1447.87 576.979,1447.87 579.025,1447.87 581.071,1447.87 583.117,1447.87 585.162,1447.87 587.208,1447.87 589.254,1447.87 591.3,1447.87 593.346,1447.87 595.392,1447.87 597.438,1447.87 599.484,1447.87 601.53,1447.87 603.576,1447.87 605.621,1447.87 607.667,1447.87 609.713,1447.87 611.759,1447.87 613.805,1447.87 615.851,1447.87 617.897,1447.87 619.943,1447.87 621.989,1447.87 624.035,1447.87 626.08,1447.87 628.126,1447.87 630.172,1447.87 632.218,1447.87 634.264,1447.87 636.31,1447.87 638.356,1447.87 640.402,1447.87 642.448,1447.87 644.493,1447.87 646.539,1447.87 648.585,1447.87 650.631,1447.87 652.677,1447.87 654.723,1447.87 656.769,1447.87 658.815,1447.87 660.861,1447.87 662.907,1447.87 664.952,1447.87 666.998,1447.87 669.044,1447.87 671.09,1447.87 673.136,1447.87 675.182,1447.87 677.228,1447.87 679.274,1447.87 681.32,1447.87 683.366,1447.87 685.411,1447.87 687.457,1447.87 689.503,1447.87 691.549,1447.87 693.595,1447.87 695.641,1447.87 697.687,1447.87 699.733,1447.87 701.779,1447.87 703.825,1447.87 705.87,1447.87 707.916,1447.87 709.962,1447.87 712.008,1447.87 714.054,1447.87 716.1,1447.87 718.146,1447.87 720.192,1447.87 722.238,1447.87 724.283,1447.87 726.329,1447.87 728.375,1447.87 730.421,1447.87 732.467,1447.87 734.513,1447.87 736.559,1447.87 738.605,1447.87 740.651,1447.87 742.697,1447.87 744.742,1447.87 746.788,1447.87 748.834,1447.87 750.88,1447.87 752.926,1447.87 754.972,1447.87 757.018,1447.87 759.064,1447.87 761.11,1447.87 763.156,1447.87 765.201,1447.87 767.247,1447.87 769.293,1447.87 771.339,1447.87 773.385,1447.87 775.431,1447.87 777.477,1447.87 779.523,1447.87 781.569,1447.87 783.614,1447.87 785.66,1447.87 787.706,1447.87 789.752,1447.87 791.798,1447.87 793.844,1447.87 795.89,1447.87 797.936,1447.87 799.982,1447.87 802.028,1447.87 804.073,1447.87 806.119,1447.87 808.165,1447.87 810.211,1447.87 812.257,1447.87 814.303,1447.87 816.349,1447.87 818.395,1447.87 820.441,1447.87 822.487,1447.87 824.532,1447.87 826.578,1447.87 828.624,1447.87 830.67,1447.87 832.716,1447.87 834.762,1447.87 836.808,1447.87 838.854,1447.87 840.9,1447.87 842.945,1447.87 844.991,1447.87 847.037,1447.87 849.083,1447.87 851.129,1447.87 853.175,1447.87 855.221,1447.87 857.267,1447.87 859.313,1447.87 861.359,1447.87 863.404,1447.87 865.45,1447.87 867.496,1447.87 869.542,1447.87 871.588,1447.87 873.634,1447.87 875.68,1447.87 877.726,1447.87 879.772,1447.87 881.818,1447.87 883.863,1447.87 885.909,1447.87 887.955,1447.87 890.001,1447.87 892.047,1447.87 894.093,1447.87 896.139,1447.87 898.185,1447.87 900.231,1447.87 902.276,1447.87 904.322,1447.87 906.368,1447.87 908.414,1447.87 910.46,1447.87 912.506,1447.87 914.552,1447.87 916.598,1447.87 918.644,1447.87 920.69,1447.87 922.735,1447.87 924.781,1447.87 926.827,1447.87 928.873,1447.87 930.919,1447.87 932.965,1447.87 935.011,1447.87 937.057,1447.87 939.103,1447.87 941.149,1447.87 943.194,1447.87 945.24,1447.87 947.286,1447.87 949.332,1447.87 951.378,1447.87 953.424,1447.87 955.47,1447.87 957.516,1447.87 959.562,1447.87 961.607,1447.87 963.653,1447.87 965.699,1447.87 967.745,1447.87 969.791,1447.87 971.837,1447.87 973.883,1447.87 975.929,1447.87 977.975,1447.87 980.021,1447.87 982.066,1447.87 984.112,1447.87 986.158,1447.87 988.204,1447.87 990.25,1447.87 992.296,1447.87 994.342,1447.87 996.388,1447.87 998.434,1447.87 1000.48,1447.87 1002.53,1447.87 1004.57,1447.87 1006.62,1447.87 1008.66,1447.87 1010.71,1447.87 1012.75,1447.87 1014.8,1447.87 1016.85,1447.87 1018.89,1447.87 1020.94,1447.87 1022.98,1447.87 1025.03,1447.87 1027.08,1447.87 1029.12,1447.87 1031.17,1447.87 1033.21,1447.87 1035.26,1447.87 1037.31,1447.87 1039.35,1447.87 1041.4,1447.87 1043.44,1447.87 1045.49,1447.87 1047.54,1447.87 1049.58,1447.87 1051.63,1447.87 1053.67,1447.87 1055.72,1447.87 1057.76,1447.87 1059.81,1447.87 1061.86,1447.87 1063.9,1447.87 1065.95,1447.87 1067.99,1447.87 1070.04,1447.87 1072.09,1447.87 1074.13,1447.87 1076.18,1447.87 1078.22,1447.87 1080.27,1447.87 1082.32,1447.87 1084.36,1447.87 1086.41,1447.87 1088.45,1447.87 1090.5,1447.87 1092.54,1447.87 1094.59,1447.87 1096.64,1447.87 1098.68,1447.87 1100.73,1447.87 1102.77,1447.87 1104.82,1447.87 1106.87,1447.87 1108.91,1447.87 1110.96,1447.87 1113,1447.87 1115.05,1447.87 1117.1,1447.87 1119.14,1447.87 1121.19,1447.87 1123.23,1447.87 1125.28,1447.87 1127.33,1447.87 1129.37,1447.87 1131.42,1447.87 1133.46,1447.87 1135.51,1447.87 1137.55,1447.87 1139.6,1447.87 1141.65,1447.87 1143.69,1447.87 1145.74,1447.87 1147.78,1447.87 1149.83,1447.87 1151.88,1447.87 1153.92,1447.87 1155.97,1447.87 1158.01,1447.87 1160.06,1447.87 1162.11,1447.87 1164.15,1447.87 1166.2,1447.87 1168.24,1447.87 1170.29,1447.87 1172.33,1447.87 1174.38,1447.87 1176.43,1447.87 1178.47,1447.87 1180.52,1447.87 1182.56,1447.87 1184.61,1447.87 1186.66,1447.87 1188.7,1447.87 1190.75,1447.87 1192.79,1447.87 1194.84,1447.87 1196.89,1447.87 1198.93,1447.87 1200.98,1447.87 1203.02,1447.87 1205.07,1447.87 1207.12,1447.87 1209.16,1447.87 1211.21,1447.87 1213.25,1447.87 1215.3,1447.87 1217.34,1447.87 1219.39,1447.87 1221.44,1447.87 1223.48,1447.87 1225.53,1447.87 1227.57,1447.87 1229.62,1447.87 1231.67,1447.87 1233.71,1447.87 1235.76,1447.87 1237.8,1447.87 1239.85,1447.87 1241.9,1447.87 1243.94,1447.87 1245.99,1447.87 1248.03,1447.87 1250.08,1447.87 1252.12,1447.87 1254.17,1447.87 1256.22,1447.87 1258.26,1447.87 1260.31,1447.87 1262.35,1447.87 1264.4,1447.87 1266.45,1447.87 1268.49,1447.87 1270.54,1447.87 1272.58,1447.87 1274.63,1447.87 1276.68,1447.87 1278.72,1447.87 1280.77,1447.87 1282.81,1447.87 1284.86,1447.87 1286.91,1447.87 1288.95,1447.87 1291,1447.87 1293.04,1447.87 1295.09,1447.87 1297.13,1447.87 1299.18,1447.87 1301.23,1447.87 1303.27,1447.87 1305.32,1447.87 1307.36,1447.87 1309.41,1447.87 1311.46,1447.87 1313.5,1447.87 1315.55,1447.87 1317.59,1447.87 1319.64,1447.87 1321.69,1447.87 1323.73,1447.87 1325.78,1447.87 1327.82,1447.87 1329.87,1447.87 1331.91,1447.87 1333.96,1447.87 1336.01,1447.87 1338.05,1447.87 1340.1,1447.87 1342.14,1447.87 1344.19,1447.87 1346.24,1447.87 1348.28,1447.87 1350.33,1447.87 1352.37,1447.87 1354.42,1447.87 1356.47,1447.87 1358.51,1447.87 1360.56,1447.87 1362.6,1447.87 1364.65,1447.87 1366.7,1447.87 1368.74,1447.87 1370.79,1447.87 1372.83,1447.87 1374.88,1447.87 1376.92,1447.87 1378.97,1447.87 1381.02,1447.87 1383.06,1447.87 1385.11,1447.87 1387.15,1447.87 1389.2,1447.87 1391.25,1447.87 1393.29,1447.87 1395.34,1447.87 1397.38,1447.87 1399.43,1447.87 1401.48,1447.87 1403.52,1447.87 1405.57,1447.87 1407.61,1447.87 1409.66,1447.87 1411.7,1447.87 1413.75,1447.87 1415.8,1447.87 1417.84,1447.87 1419.89,1447.87 1421.93,1447.87 1423.98,1447.87 1426.03,1447.87 1428.07,1447.87 1430.12,1447.87 1432.16,1447.87 1434.21,1447.87 1436.26,1447.87 1438.3,1447.87 1440.35,1447.87 1442.39,1447.87 1444.44,1447.87 1446.49,1447.87 1448.53,1447.87 1450.58,1447.87 1452.62,1447.87 1454.67,1447.87 1456.71,1447.87 1458.76,1447.87 1460.81,1447.87 1462.85,1447.87 1464.9,1447.87 1466.94,1447.87 1468.99,1447.87 1471.04,1447.87 1473.08,1447.87 1475.13,1447.87 1477.17,1447.87 1479.22,1447.87 1481.27,1447.87 1483.31,1447.87 1485.36,1447.87 1487.4,1447.87 1489.45,1447.87 1491.49,1447.87 1493.54,1447.87 1495.59,1447.87 1497.63,1447.87 1499.68,1447.87 1501.72,1447.87 1503.77,1447.87 1505.82,1447.87 1507.86,1447.87 1509.91,1447.87 1511.95,1447.87 1514,1447.87 1516.05,1447.87 1518.09,1447.87 1520.14,1447.87 1522.18,1447.87 1524.23,1447.87 1526.27,1447.87 1528.32,1447.87 1530.37,1447.87 1532.41,1447.87 1534.46,1447.87 1536.5,1447.87 1538.55,1447.87 1540.6,1447.87 1542.64,1447.87 1544.69,1447.87 1546.73,1447.87 1548.78,1447.87 1550.83,1447.87 1552.87,1447.87 1554.92,1447.87 1556.96,1447.87 1559.01,1447.87 1561.06,1447.87 1563.1,1447.87 1565.15,1447.87 1567.19,1447.87 1569.24,1447.87 1571.28,1447.87 1573.33,1447.87 1575.38,1447.87 1577.42,1447.87 1579.47,1447.87 1581.51,1447.87 1583.56,1447.87 1585.61,1447.87 1587.65,1447.87 1589.7,1447.87 1591.74,1447.87 1593.79,1447.87 1595.84,1447.87 1597.88,1447.87 1599.93,1447.87 1601.97,1447.87 1604.02,1447.87 1606.06,1447.87 1608.11,1447.87 1610.16,1447.87 1612.2,1447.87 1614.25,1447.87 1616.29,1447.87 1618.34,1447.87 1620.39,1447.87 1622.43,1447.87 1624.48,1447.87 1626.52,1447.87 1628.57,1447.87 1630.62,1447.87 1632.66,1447.87 1634.71,1447.87 1636.75,1447.87 1638.8,1447.87 1640.85,1447.87 1642.89,1447.87 1644.94,1447.87 1646.98,1447.87 1649.03,1447.87 1651.07,1447.87 1653.12,1447.87 1655.17,1447.87 1657.21,1447.87 1659.26,1447.87 1661.3,1447.87 1663.35,1447.87 1665.4,1447.87 1667.44,1447.87 1669.49,1447.87 1671.53,1447.87 1673.58,1447.87 1675.63,1447.87 1677.67,1447.87 1679.72,1447.87 1681.76,1447.87 1683.81,1447.87 1685.85,1447.87 1687.9,1447.87 1689.95,1447.87 1691.99,1447.87 1694.04,1447.87 1696.08,1447.87 1698.13,1447.87 1700.18,1447.87 1702.22,1447.87 1704.27,1447.87 1706.31,1447.87 1708.36,1447.87 1710.41,1447.87 1712.45,1447.87 1714.5,1447.87 1716.54,1447.87 1718.59,1447.87 1720.64,1447.87 1722.68,1447.87 1724.73,1447.87 1726.77,1447.87 1728.82,1447.87 1730.86,1447.87 1732.91,1447.87 1734.96,1447.87 1737,1447.87 1739.05,1447.87 1741.09,1447.87 1743.14,1447.87 1745.19,1447.87 1747.23,1447.87 1749.28,1447.87 1751.32,1447.87 1753.37,1447.87 1755.42,1447.87 1757.46,1447.87 1759.51,1447.87 1761.55,1447.87 1763.6,1447.87 1765.64,1447.87 1767.69,1447.87 1769.74,1447.87 1771.78,1447.87 1773.83,1447.87 1775.87,1447.87 1777.92,1447.87 1779.97,1447.87 1782.01,1447.87 1784.06,1447.87 1786.1,1447.87 1788.15,1447.87 1790.2,1447.87 1792.24,1447.87 1794.29,1447.87 1796.33,1447.87 1798.38,1447.87 1800.43,1447.87 1802.47,1447.87 1804.52,1447.87 1806.56,1447.87 1808.61,1447.87 1810.65,1447.87 1812.7,1447.87 1814.75,1447.87 1816.79,1447.87 1818.84,1447.87 1820.88,1447.87 1822.93,1447.87 1824.98,1447.87 1827.02,1447.87 1829.07,1447.87 1831.11,1447.87 1833.16,1447.87 1835.21,1447.87 1837.25,1447.87 1839.3,1447.87 1841.34,1447.87 1843.39,1447.87 1845.43,1447.87 1847.48,1447.87 1849.53,1447.87 1851.57,1447.87 1853.62,1447.87 1855.66,1447.87 1857.71,1447.87 1859.76,1447.87 1861.8,1447.87 1863.85,1447.87 1865.89,1447.87 1867.94,1447.87 1869.99,1447.87 1872.03,1447.87 1874.08,1447.87 1876.12,1447.87 1878.17,1447.87 1880.22,1447.87 1882.26,1447.87 1884.31,1447.87 1886.35,1447.87 1888.4,1447.87 1890.44,1447.87 1892.49,1447.87 1894.54,1447.87 1896.58,1447.87 1898.63,1447.87 1900.67,1447.87 1902.72,1447.87 1904.77,1447.87 1906.81,1447.87 1908.86,1447.87 1910.9,1447.87 1912.95,1447.87 1915,1447.87 1917.04,1447.87 1919.09,1447.87 1921.13,1447.87 1923.18,1447.87 1925.22,1447.87 1927.27,1447.87 1929.32,1447.87 1931.36,1447.87 1933.41,1447.87 1935.45,1447.87 1937.5,1447.87 1939.55,1447.87 1941.59,1447.87 1943.64,1447.87 1945.68,1447.87 1947.73,1447.87 1949.78,1447.87 1951.82,1447.87 1953.87,1447.87 1955.91,1447.87 1957.96,1447.87 1960.01,1447.87 1962.05,1447.87 1964.1,1447.87 1966.14,1447.87 1968.19,1447.87 1970.23,1447.87 1972.28,1447.87 1974.33,1447.87 1976.37,1447.87 1978.42,1447.87 1980.46,1447.87 1982.51,1447.87 1984.56,1447.87 1986.6,1447.87 1988.65,1447.87 1990.69,1447.87 1992.74,1447.87 1994.79,1447.87 1996.83,1447.87 1998.88,1447.87 2000.92,1447.87 2002.97,1447.87 2005.01,1447.87 2007.06,1447.87 2009.11,1447.87 2011.15,1447.87 2013.2,1447.87 2015.24,1447.87 2017.29,1447.87 2019.34,1447.87 2021.38,1447.87 2023.43,1447.87 2025.47,1447.87 2027.52,1447.87 2029.57,1447.87 2031.61,1447.87 2033.66,1447.87 2035.7,1447.87 2037.75,1447.87 2039.8,1447.87 2041.84,1447.87 2043.89,1447.87 2045.93,1447.87 2047.98,1447.87 2050.02,1447.87 2052.07,1447.87 2054.12,1447.87 2056.16,1447.87 2058.21,1447.87 2060.25,1447.87 2062.3,1447.87 2064.35,1447.87 2066.39,1447.87 2068.44,1447.87 2070.48,1447.87 2072.53,1447.87 2074.58,1447.87 2076.62,1447.87 2078.67,1447.87 2080.71,1447.87 2082.76,1447.87 2084.8,1447.87 2086.85,1447.87 2088.9,1447.87 2090.94,1447.87 2092.99,1447.87 2095.03,1447.87 2097.08,1447.87 2099.13,1447.87 2101.17,1447.87 2103.22,1447.87 2105.26,1447.87 2107.31,1447.87 2109.36,1447.87 2111.4,1447.87 2113.45,1447.87 2115.49,1447.87 2117.54,1447.87 2119.59,1447.87 2121.63,1447.87 2123.68,1447.87 2125.72,1447.87 2127.77,1447.87 2129.81,1447.87 2131.86,1447.87 2133.91,1447.87 2135.95,1447.87 2138,1447.87 2140.04,1447.87 2142.09,1447.87 2144.14,1447.87 2146.18,1447.87 2148.23,1447.87 2150.27,1447.87 2152.32,1447.87 2154.37,1447.87 2156.41,1447.87 2158.46,1447.87 2160.5,1447.87 2162.55,1447.87 2164.59,1447.87 2166.64,1447.87 2168.69,1447.87 2170.73,1447.87 2172.78,1447.87 2174.82,1447.87 2176.87,1447.87 2178.92,1447.87 2180.96,1447.87 2183.01,1447.87 2185.05,1447.87 2187.1,1447.87 2189.15,1447.87 2191.19,1447.87 2193.24,1447.87 2195.28,1447.87 2197.33,1447.87 2199.38,1447.87 2201.42,1447.87 2203.47,1447.87 2205.51,1447.87 2207.56,1447.87 2209.6,1447.87 2211.65,1447.87 2213.7,1447.87 2215.74,1447.87 2217.79,1447.87 2219.83,1447.87 2221.88,1447.87 2223.93,1447.87 2225.97,1447.87 2228.02,1447.87 2230.06,1447.87 2232.11,1447.87 2234.16,1447.87 2236.2,1447.87 2238.25,1447.87 2240.29,1447.87 2242.34,1447.87 2244.38,1447.87 2246.43,1447.87 2248.48,1447.87 2250.52,1447.87 2252.57,1447.87 2254.61,1447.87 2256.66,1447.87 2258.71,1447.87 2260.75,1447.87 2262.8,1447.87 2264.84,1447.87 2266.89,1447.87 2268.94,1447.87 2270.98,1447.87 2273.03,1447.87 2275.07,1447.87 2277.12,1447.87 2279.16,1447.87 2281.21,1447.87 2283.26,1447.87 2285.3,1447.87 2287.35,1447.87 2289.39,1447.87 2291.44,1447.87 "/>
<polyline clip-path="url(#clip662)" style="stroke:#e26f46; stroke-linecap:round; stroke-linejoin:round; stroke-width:4; stroke-opacity:1; fill:none" points="860.745,2849.42 860.745,-1239.5 "/>
<path clip-path="url(#clip660)" d="M1673.18 324.425 L2280.54 324.425 L2280.54 168.905 L1673.18 168.905  Z" fill="#ffffff" fill-rule="evenodd" fill-opacity="1"/>
<polyline clip-path="url(#clip660)" style="stroke:#000000; stroke-linecap:round; stroke-linejoin:round; stroke-width:4; stroke-opacity:1; fill:none" points="1673.18,324.425 2280.54,324.425 2280.54,168.905 1673.18,168.905 1673.18,324.425 "/>
<polyline clip-path="url(#clip660)" style="stroke:#009af9; stroke-linecap:round; stroke-linejoin:round; stroke-width:4; stroke-opacity:1; fill:none" points="1697.25,220.745 1841.68,220.745 "/>
<path clip-path="url(#clip660)" d="M1865.75 203.465 L1870.43 203.465 L1870.43 238.025 L1865.75 238.025 L1865.75 203.465 Z" fill="#000000" fill-rule="nonzero" fill-opacity="1" /><path clip-path="url(#clip660)" d="M1901.1 222.377 L1901.1 238.025 L1896.84 238.025 L1896.84 222.515 Q1896.84 218.835 1895.4 217.006 Q1893.97 215.178 1891.1 215.178 Q1887.65 215.178 1885.66 217.377 Q1883.67 219.576 1883.67 223.372 L1883.67 238.025 L1879.39 238.025 L1879.39 212.099 L1883.67 212.099 L1883.67 216.127 Q1885.2 213.789 1887.26 212.631 Q1889.34 211.474 1892.05 211.474 Q1896.52 211.474 1898.81 214.252 Q1901.1 217.006 1901.1 222.377 Z" fill="#000000" fill-rule="nonzero" fill-opacity="1" /><path clip-path="url(#clip660)" d="M1922.72 202.006 L1922.72 205.548 L1918.65 205.548 Q1916.35 205.548 1915.45 206.474 Q1914.57 207.4 1914.57 209.807 L1914.57 212.099 L1921.59 212.099 L1921.59 215.409 L1914.57 215.409 L1914.57 238.025 L1910.29 238.025 L1910.29 215.409 L1906.22 215.409 L1906.22 212.099 L1910.29 212.099 L1910.29 210.293 Q1910.29 205.965 1912.3 203.997 Q1914.32 202.006 1918.69 202.006 L1922.72 202.006 Z" fill="#000000" fill-rule="nonzero" fill-opacity="1" /><path clip-path="url(#clip660)" d="M1948.46 223.997 L1948.46 226.08 L1928.88 226.08 Q1929.15 230.478 1931.52 232.793 Q1933.9 235.085 1938.14 235.085 Q1940.59 235.085 1942.88 234.483 Q1945.2 233.881 1947.46 232.677 L1947.46 236.705 Q1945.17 237.677 1942.77 238.187 Q1940.36 238.696 1937.88 238.696 Q1931.68 238.696 1928.04 235.085 Q1924.43 231.474 1924.43 225.316 Q1924.43 218.951 1927.86 215.224 Q1931.31 211.474 1937.14 211.474 Q1942.37 211.474 1945.4 214.853 Q1948.46 218.21 1948.46 223.997 M1944.2 222.747 Q1944.15 219.252 1942.23 217.168 Q1940.34 215.085 1937.19 215.085 Q1933.62 215.085 1931.47 217.099 Q1929.34 219.113 1929.02 222.77 L1944.2 222.747 Z" fill="#000000" fill-rule="nonzero" fill-opacity="1" /><path clip-path="url(#clip660)" d="M1970.47 216.08 Q1969.76 215.664 1968.9 215.478 Q1968.07 215.27 1967.05 215.27 Q1963.44 215.27 1961.49 217.631 Q1959.57 219.969 1959.57 224.367 L1959.57 238.025 L1955.29 238.025 L1955.29 212.099 L1959.57 212.099 L1959.57 216.127 Q1960.91 213.766 1963.07 212.631 Q1965.22 211.474 1968.3 211.474 Q1968.74 211.474 1969.27 211.543 Q1969.8 211.59 1970.45 211.705 L1970.47 216.08 Z" fill="#000000" fill-rule="nonzero" fill-opacity="1" /><path clip-path="url(#clip660)" d="M1996.08 223.997 L1996.08 226.08 L1976.49 226.08 Q1976.77 230.478 1979.13 232.793 Q1981.52 235.085 1985.75 235.085 Q1988.21 235.085 1990.5 234.483 Q1992.81 233.881 1995.08 232.677 L1995.08 236.705 Q1992.79 237.677 1990.38 238.187 Q1987.97 238.696 1985.5 238.696 Q1979.29 238.696 1975.66 235.085 Q1972.05 231.474 1972.05 225.316 Q1972.05 218.951 1975.47 215.224 Q1978.92 211.474 1984.76 211.474 Q1989.99 211.474 1993.02 214.853 Q1996.08 218.21 1996.08 223.997 M1991.82 222.747 Q1991.77 219.252 1989.85 217.168 Q1987.95 215.085 1984.8 215.085 Q1981.24 215.085 1979.09 217.099 Q1976.96 219.113 1976.63 222.77 L1991.82 222.747 Z" fill="#000000" fill-rule="nonzero" fill-opacity="1" /><path clip-path="url(#clip660)" d="M2020.13 216.034 L2020.13 202.006 L2024.39 202.006 L2024.39 238.025 L2020.13 238.025 L2020.13 234.136 Q2018.78 236.451 2016.72 237.585 Q2014.69 238.696 2011.82 238.696 Q2007.12 238.696 2004.15 234.946 Q2001.21 231.196 2001.21 225.085 Q2001.21 218.974 2004.15 215.224 Q2007.12 211.474 2011.82 211.474 Q2014.69 211.474 2016.72 212.608 Q2018.78 213.719 2020.13 216.034 M2005.61 225.085 Q2005.61 229.784 2007.53 232.469 Q2009.48 235.131 2012.86 235.131 Q2016.24 235.131 2018.18 232.469 Q2020.13 229.784 2020.13 225.085 Q2020.13 220.386 2018.18 217.724 Q2016.24 215.039 2012.86 215.039 Q2009.48 215.039 2007.53 217.724 Q2005.61 220.386 2005.61 225.085 Z" fill="#000000" fill-rule="nonzero" fill-opacity="1" /><path clip-path="url(#clip660)" d="M2052.35 234.136 L2052.35 247.886 L2048.07 247.886 L2048.07 212.099 L2052.35 212.099 L2052.35 216.034 Q2053.69 213.719 2055.73 212.608 Q2057.79 211.474 2060.64 211.474 Q2065.36 211.474 2068.3 215.224 Q2071.26 218.974 2071.26 225.085 Q2071.26 231.196 2068.3 234.946 Q2065.36 238.696 2060.64 238.696 Q2057.79 238.696 2055.73 237.585 Q2053.69 236.451 2052.35 234.136 M2066.84 225.085 Q2066.84 220.386 2064.89 217.724 Q2062.97 215.039 2059.59 215.039 Q2056.21 215.039 2054.27 217.724 Q2052.35 220.386 2052.35 225.085 Q2052.35 229.784 2054.27 232.469 Q2056.21 235.131 2059.59 235.131 Q2062.97 235.131 2064.89 232.469 Q2066.84 229.784 2066.84 225.085 Z" fill="#000000" fill-rule="nonzero" fill-opacity="1" /><path clip-path="url(#clip660)" d="M2088.37 215.085 Q2084.94 215.085 2082.95 217.77 Q2080.96 220.432 2080.96 225.085 Q2080.96 229.738 2082.93 232.423 Q2084.92 235.085 2088.37 235.085 Q2091.77 235.085 2093.76 232.4 Q2095.75 229.715 2095.75 225.085 Q2095.75 220.478 2093.76 217.793 Q2091.77 215.085 2088.37 215.085 M2088.37 211.474 Q2093.92 211.474 2097.09 215.085 Q2100.26 218.696 2100.26 225.085 Q2100.26 231.451 2097.09 235.085 Q2093.92 238.696 2088.37 238.696 Q2082.79 238.696 2079.62 235.085 Q2076.47 231.451 2076.47 225.085 Q2076.47 218.696 2079.62 215.085 Q2082.79 211.474 2088.37 211.474 Z" fill="#000000" fill-rule="nonzero" fill-opacity="1" /><path clip-path="url(#clip660)" d="M2123.85 212.863 L2123.85 216.891 Q2122.05 215.965 2120.1 215.502 Q2118.16 215.039 2116.08 215.039 Q2112.9 215.039 2111.31 216.011 Q2109.73 216.983 2109.73 218.928 Q2109.73 220.409 2110.87 221.265 Q2112 222.099 2115.43 222.863 L2116.89 223.187 Q2121.42 224.159 2123.32 225.941 Q2125.24 227.701 2125.24 230.872 Q2125.24 234.483 2122.37 236.589 Q2119.52 238.696 2114.52 238.696 Q2112.44 238.696 2110.17 238.279 Q2107.93 237.886 2105.43 237.076 L2105.43 232.677 Q2107.79 233.904 2110.08 234.529 Q2112.37 235.131 2114.62 235.131 Q2117.63 235.131 2119.25 234.113 Q2120.87 233.071 2120.87 231.196 Q2120.87 229.46 2119.69 228.534 Q2118.53 227.608 2114.57 226.752 L2113.09 226.404 Q2109.13 225.571 2107.37 223.858 Q2105.61 222.122 2105.61 219.113 Q2105.61 215.455 2108.2 213.465 Q2110.8 211.474 2115.57 211.474 Q2117.93 211.474 2120.01 211.821 Q2122.09 212.168 2123.85 212.863 Z" fill="#000000" fill-rule="nonzero" fill-opacity="1" /><path clip-path="url(#clip660)" d="M2136.24 204.738 L2136.24 212.099 L2145.01 212.099 L2145.01 215.409 L2136.24 215.409 L2136.24 229.483 Q2136.24 232.654 2137.09 233.557 Q2137.97 234.46 2140.64 234.46 L2145.01 234.46 L2145.01 238.025 L2140.64 238.025 Q2135.7 238.025 2133.83 236.196 Q2131.95 234.344 2131.95 229.483 L2131.95 215.409 L2128.83 215.409 L2128.83 212.099 L2131.95 212.099 L2131.95 204.738 L2136.24 204.738 Z" fill="#000000" fill-rule="nonzero" fill-opacity="1" /><path clip-path="url(#clip660)" d="M2172.79 223.997 L2172.79 226.08 L2153.2 226.08 Q2153.48 230.478 2155.84 232.793 Q2158.23 235.085 2162.46 235.085 Q2164.92 235.085 2167.21 234.483 Q2169.52 233.881 2171.79 232.677 L2171.79 236.705 Q2169.5 237.677 2167.09 238.187 Q2164.69 238.696 2162.21 238.696 Q2156.01 238.696 2152.37 235.085 Q2148.76 231.474 2148.76 225.316 Q2148.76 218.951 2152.19 215.224 Q2155.64 211.474 2161.47 211.474 Q2166.7 211.474 2169.73 214.853 Q2172.79 218.21 2172.79 223.997 M2168.53 222.747 Q2168.48 219.252 2166.56 217.168 Q2164.66 215.085 2161.51 215.085 Q2157.95 215.085 2155.8 217.099 Q2153.67 219.113 2153.34 222.77 L2168.53 222.747 Z" fill="#000000" fill-rule="nonzero" fill-opacity="1" /><path clip-path="url(#clip660)" d="M2194.8 216.08 Q2194.08 215.664 2193.23 215.478 Q2192.39 215.27 2191.38 215.27 Q2187.76 215.27 2185.82 217.631 Q2183.9 219.969 2183.9 224.367 L2183.9 238.025 L2179.62 238.025 L2179.62 212.099 L2183.9 212.099 L2183.9 216.127 Q2185.24 213.766 2187.39 212.631 Q2189.55 211.474 2192.63 211.474 Q2193.07 211.474 2193.6 211.543 Q2194.13 211.59 2194.78 211.705 L2194.8 216.08 Z" fill="#000000" fill-rule="nonzero" fill-opacity="1" /><path clip-path="url(#clip660)" d="M2199.27 212.099 L2203.53 212.099 L2203.53 238.025 L2199.27 238.025 L2199.27 212.099 M2199.27 202.006 L2203.53 202.006 L2203.53 207.4 L2199.27 207.4 L2199.27 202.006 Z" fill="#000000" fill-rule="nonzero" fill-opacity="1" /><path clip-path="url(#clip660)" d="M2222.49 215.085 Q2219.06 215.085 2217.07 217.77 Q2215.08 220.432 2215.08 225.085 Q2215.08 229.738 2217.05 232.423 Q2219.04 235.085 2222.49 235.085 Q2225.89 235.085 2227.88 232.4 Q2229.87 229.715 2229.87 225.085 Q2229.87 220.478 2227.88 217.793 Q2225.89 215.085 2222.49 215.085 M2222.49 211.474 Q2228.04 211.474 2231.21 215.085 Q2234.38 218.696 2234.38 225.085 Q2234.38 231.451 2231.21 235.085 Q2228.04 238.696 2222.49 238.696 Q2216.91 238.696 2213.74 235.085 Q2210.59 231.451 2210.59 225.085 Q2210.59 218.696 2213.74 215.085 Q2216.91 211.474 2222.49 211.474 Z" fill="#000000" fill-rule="nonzero" fill-opacity="1" /><path clip-path="url(#clip660)" d="M2256.47 216.08 Q2255.75 215.664 2254.89 215.478 Q2254.06 215.27 2253.04 215.27 Q2249.43 215.27 2247.49 217.631 Q2245.57 219.969 2245.57 224.367 L2245.57 238.025 L2241.28 238.025 L2241.28 212.099 L2245.57 212.099 L2245.57 216.127 Q2246.91 213.766 2249.06 212.631 Q2251.21 211.474 2254.29 211.474 Q2254.73 211.474 2255.26 211.543 Q2255.8 211.59 2256.44 211.705 L2256.47 216.08 Z" fill="#000000" fill-rule="nonzero" fill-opacity="1" /><polyline clip-path="url(#clip660)" style="stroke:#e26f46; stroke-linecap:round; stroke-linejoin:round; stroke-width:4; stroke-opacity:1; fill:none" points="1697.25,272.585 1841.68,272.585 "/>
<path clip-path="url(#clip660)" d="M1882.14 273.661 Q1883.65 274.17 1885.06 275.837 Q1886.49 277.504 1887.93 280.42 L1892.67 289.865 L1887.65 289.865 L1883.23 280.999 Q1881.52 277.527 1879.9 276.393 Q1878.3 275.258 1875.52 275.258 L1870.43 275.258 L1870.43 289.865 L1865.75 289.865 L1865.75 255.305 L1876.31 255.305 Q1882.23 255.305 1885.15 257.781 Q1888.07 260.258 1888.07 265.258 Q1888.07 268.522 1886.54 270.675 Q1885.03 272.828 1882.14 273.661 M1870.43 259.147 L1870.43 271.416 L1876.31 271.416 Q1879.69 271.416 1881.4 269.865 Q1883.14 268.291 1883.14 265.258 Q1883.14 262.226 1881.4 260.698 Q1879.69 259.147 1876.31 259.147 L1870.43 259.147 Z" fill="#000000" fill-rule="nonzero" fill-opacity="1" /><path clip-path="url(#clip660)" d="M1918.55 275.837 L1918.55 277.92 L1898.97 277.92 Q1899.25 282.318 1901.61 284.633 Q1903.99 286.925 1908.23 286.925 Q1910.68 286.925 1912.97 286.323 Q1915.29 285.721 1917.56 284.517 L1917.56 288.545 Q1915.27 289.517 1912.86 290.027 Q1910.45 290.536 1907.97 290.536 Q1901.77 290.536 1898.14 286.925 Q1894.53 283.314 1894.53 277.156 Q1894.53 270.791 1897.95 267.064 Q1901.4 263.314 1907.23 263.314 Q1912.47 263.314 1915.5 266.693 Q1918.55 270.05 1918.55 275.837 M1914.29 274.587 Q1914.25 271.092 1912.33 269.008 Q1910.43 266.925 1907.28 266.925 Q1903.72 266.925 1901.56 268.939 Q1899.43 270.953 1899.11 274.61 L1914.29 274.587 Z" fill="#000000" fill-rule="nonzero" fill-opacity="1" /><path clip-path="url(#clip660)" d="M1937.33 276.832 Q1932.16 276.832 1930.17 278.013 Q1928.18 279.193 1928.18 282.041 Q1928.18 284.309 1929.66 285.652 Q1931.17 286.971 1933.74 286.971 Q1937.28 286.971 1939.41 284.471 Q1941.56 281.948 1941.56 277.781 L1941.56 276.832 L1937.33 276.832 M1945.82 275.073 L1945.82 289.865 L1941.56 289.865 L1941.56 285.929 Q1940.1 288.291 1937.93 289.425 Q1935.75 290.536 1932.6 290.536 Q1928.62 290.536 1926.26 288.314 Q1923.92 286.068 1923.92 282.318 Q1923.92 277.943 1926.84 275.721 Q1929.78 273.499 1935.59 273.499 L1941.56 273.499 L1941.56 273.082 Q1941.56 270.143 1939.62 268.545 Q1937.7 266.925 1934.2 266.925 Q1931.98 266.925 1929.87 267.457 Q1927.77 267.99 1925.82 269.055 L1925.82 265.119 Q1928.16 264.217 1930.36 263.777 Q1932.56 263.314 1934.64 263.314 Q1940.27 263.314 1943.04 266.231 Q1945.82 269.147 1945.82 275.073 Z" fill="#000000" fill-rule="nonzero" fill-opacity="1" /><path clip-path="url(#clip660)" d="M1954.59 253.846 L1958.85 253.846 L1958.85 289.865 L1954.59 289.865 L1954.59 253.846 Z" fill="#000000" fill-rule="nonzero" fill-opacity="1" /><path clip-path="url(#clip660)" d="M2000.24 273.43 L1985.5 273.43 Q1985.84 280.351 1987.44 283.291 Q1989.43 286.902 1992.88 286.902 Q1996.35 286.902 1998.27 283.267 Q1999.96 280.073 2000.24 273.43 M2000.17 269.494 Q1999.52 262.92 1998.27 260.606 Q1996.28 256.948 1992.88 256.948 Q1989.34 256.948 1987.46 260.559 Q1985.98 263.476 1985.54 269.494 L2000.17 269.494 M1992.88 253.476 Q1998.44 253.476 2001.61 258.383 Q2004.78 263.268 2004.78 271.925 Q2004.78 280.559 2001.61 285.467 Q1998.44 290.397 1992.88 290.397 Q1987.3 290.397 1984.15 285.467 Q1980.98 280.559 1980.98 271.925 Q1980.98 263.268 1984.15 258.383 Q1987.3 253.476 1992.88 253.476 Z" fill="#000000" fill-rule="nonzero" fill-opacity="1" /></svg>
