<?xml version="1.0" encoding="utf-8"?>
<svg xmlns="http://www.w3.org/2000/svg" xmlns:xlink="http://www.w3.org/1999/xlink" width="600" height="400" viewBox="0 0 2400 1600">
<defs>
  <clipPath id="clip250">
    <rect x="0" y="0" width="2400" height="1600"/>
  </clipPath>
</defs>
<path clip-path="url(#clip250)" d="M0 1600 L2400 1600 L2400 0 L0 0  Z" fill="#ffffff" fill-rule="evenodd" fill-opacity="1"/>
<defs>
  <clipPath id="clip251">
    <rect x="480" y="0" width="1681" height="1600"/>
  </clipPath>
</defs>
<path clip-path="url(#clip250)" d="M138.959 1486.45 L2352.76 1486.45 L2352.76 123.472 L138.959 123.472  Z" fill="#ffffff" fill-rule="evenodd" fill-opacity="1"/>
<defs>
  <clipPath id="clip252">
    <rect x="138" y="123" width="2215" height="1364"/>
  </clipPath>
</defs>
<polyline clip-path="url(#clip252)" style="stroke:#000000; stroke-linecap:round; stroke-linejoin:round; stroke-width:2; stroke-opacity:0.1; fill:none" points="201.614,1486.45 201.614,123.472 "/>
<polyline clip-path="url(#clip252)" style="stroke:#000000; stroke-linecap:round; stroke-linejoin:round; stroke-width:2; stroke-opacity:0.1; fill:none" points="723.736,1486.45 723.736,123.472 "/>
<polyline clip-path="url(#clip252)" style="stroke:#000000; stroke-linecap:round; stroke-linejoin:round; stroke-width:2; stroke-opacity:0.1; fill:none" points="1245.86,1486.45 1245.86,123.472 "/>
<polyline clip-path="url(#clip252)" style="stroke:#000000; stroke-linecap:round; stroke-linejoin:round; stroke-width:2; stroke-opacity:0.1; fill:none" points="1767.98,1486.45 1767.98,123.472 "/>
<polyline clip-path="url(#clip252)" style="stroke:#000000; stroke-linecap:round; stroke-linejoin:round; stroke-width:2; stroke-opacity:0.1; fill:none" points="2290.1,1486.45 2290.1,123.472 "/>
<polyline clip-path="url(#clip252)" style="stroke:#000000; stroke-linecap:round; stroke-linejoin:round; stroke-width:2; stroke-opacity:0.1; fill:none" points="138.959,1447.87 2352.76,1447.87 "/>
<polyline clip-path="url(#clip252)" style="stroke:#000000; stroke-linecap:round; stroke-linejoin:round; stroke-width:2; stroke-opacity:0.1; fill:none" points="138.959,1113.6 2352.76,1113.6 "/>
<polyline clip-path="url(#clip252)" style="stroke:#000000; stroke-linecap:round; stroke-linejoin:round; stroke-width:2; stroke-opacity:0.1; fill:none" points="138.959,779.322 2352.76,779.322 "/>
<polyline clip-path="url(#clip252)" style="stroke:#000000; stroke-linecap:round; stroke-linejoin:round; stroke-width:2; stroke-opacity:0.1; fill:none" points="138.959,445.047 2352.76,445.047 "/>
<polyline clip-path="url(#clip250)" style="stroke:#000000; stroke-linecap:round; stroke-linejoin:round; stroke-width:4; stroke-opacity:1; fill:none" points="138.959,1486.45 2352.76,1486.45 "/>
<polyline clip-path="url(#clip250)" style="stroke:#000000; stroke-linecap:round; stroke-linejoin:round; stroke-width:4; stroke-opacity:1; fill:none" points="201.614,1486.45 201.614,1467.55 "/>
<polyline clip-path="url(#clip250)" style="stroke:#000000; stroke-linecap:round; stroke-linejoin:round; stroke-width:4; stroke-opacity:1; fill:none" points="723.736,1486.45 723.736,1467.55 "/>
<polyline clip-path="url(#clip250)" style="stroke:#000000; stroke-linecap:round; stroke-linejoin:round; stroke-width:4; stroke-opacity:1; fill:none" points="1245.86,1486.45 1245.86,1467.55 "/>
<polyline clip-path="url(#clip250)" style="stroke:#000000; stroke-linecap:round; stroke-linejoin:round; stroke-width:4; stroke-opacity:1; fill:none" points="1767.98,1486.45 1767.98,1467.55 "/>
<polyline clip-path="url(#clip250)" style="stroke:#000000; stroke-linecap:round; stroke-linejoin:round; stroke-width:4; stroke-opacity:1; fill:none" points="2290.1,1486.45 2290.1,1467.55 "/>
<path clip-path="url(#clip250)" d="M163.917 1517.37 Q160.306 1517.37 158.478 1520.93 Q156.672 1524.47 156.672 1531.6 Q156.672 1538.71 158.478 1542.27 Q160.306 1545.82 163.917 1545.82 Q167.552 1545.82 169.357 1542.27 Q171.186 1538.71 171.186 1531.6 Q171.186 1524.47 169.357 1520.93 Q167.552 1517.37 163.917 1517.37 M163.917 1513.66 Q169.728 1513.66 172.783 1518.27 Q175.862 1522.85 175.862 1531.6 Q175.862 1540.33 172.783 1544.94 Q169.728 1549.52 163.917 1549.52 Q158.107 1549.52 155.029 1544.94 Q151.973 1540.33 151.973 1531.6 Q151.973 1522.85 155.029 1518.27 Q158.107 1513.66 163.917 1513.66 Z" fill="#000000" fill-rule="nonzero" fill-opacity="1" /><path clip-path="url(#clip250)" d="M184.079 1542.97 L188.964 1542.97 L188.964 1548.85 L184.079 1548.85 L184.079 1542.97 Z" fill="#000000" fill-rule="nonzero" fill-opacity="1" /><path clip-path="url(#clip250)" d="M209.149 1517.37 Q205.538 1517.37 203.709 1520.93 Q201.903 1524.47 201.903 1531.6 Q201.903 1538.71 203.709 1542.27 Q205.538 1545.82 209.149 1545.82 Q212.783 1545.82 214.589 1542.27 Q216.417 1538.71 216.417 1531.6 Q216.417 1524.47 214.589 1520.93 Q212.783 1517.37 209.149 1517.37 M209.149 1513.66 Q214.959 1513.66 218.014 1518.27 Q221.093 1522.85 221.093 1531.6 Q221.093 1540.33 218.014 1544.94 Q214.959 1549.52 209.149 1549.52 Q203.339 1549.52 200.26 1544.94 Q197.204 1540.33 197.204 1531.6 Q197.204 1522.85 200.26 1518.27 Q203.339 1513.66 209.149 1513.66 Z" fill="#000000" fill-rule="nonzero" fill-opacity="1" /><path clip-path="url(#clip250)" d="M239.311 1517.37 Q235.7 1517.37 233.871 1520.93 Q232.065 1524.47 232.065 1531.6 Q232.065 1538.71 233.871 1542.27 Q235.7 1545.82 239.311 1545.82 Q242.945 1545.82 244.75 1542.27 Q246.579 1538.71 246.579 1531.6 Q246.579 1524.47 244.75 1520.93 Q242.945 1517.37 239.311 1517.37 M239.311 1513.66 Q245.121 1513.66 248.176 1518.27 Q251.255 1522.85 251.255 1531.6 Q251.255 1540.33 248.176 1544.94 Q245.121 1549.52 239.311 1549.52 Q233.5 1549.52 230.422 1544.94 Q227.366 1540.33 227.366 1531.6 Q227.366 1522.85 230.422 1518.27 Q233.5 1513.66 239.311 1513.66 Z" fill="#000000" fill-rule="nonzero" fill-opacity="1" /><path clip-path="url(#clip250)" d="M686.537 1517.37 Q682.926 1517.37 681.097 1520.93 Q679.292 1524.47 679.292 1531.6 Q679.292 1538.71 681.097 1542.27 Q682.926 1545.82 686.537 1545.82 Q690.171 1545.82 691.977 1542.27 Q693.805 1538.71 693.805 1531.6 Q693.805 1524.47 691.977 1520.93 Q690.171 1517.37 686.537 1517.37 M686.537 1513.66 Q692.347 1513.66 695.403 1518.27 Q698.481 1522.85 698.481 1531.6 Q698.481 1540.33 695.403 1544.94 Q692.347 1549.52 686.537 1549.52 Q680.727 1549.52 677.648 1544.94 Q674.593 1540.33 674.593 1531.6 Q674.593 1522.85 677.648 1518.27 Q680.727 1513.66 686.537 1513.66 Z" fill="#000000" fill-rule="nonzero" fill-opacity="1" /><path clip-path="url(#clip250)" d="M706.699 1542.97 L711.583 1542.97 L711.583 1548.85 L706.699 1548.85 L706.699 1542.97 Z" fill="#000000" fill-rule="nonzero" fill-opacity="1" /><path clip-path="url(#clip250)" d="M725.796 1544.91 L742.115 1544.91 L742.115 1548.85 L720.171 1548.85 L720.171 1544.91 Q722.833 1542.16 727.416 1537.53 Q732.023 1532.88 733.203 1531.53 Q735.449 1529.01 736.328 1527.27 Q737.231 1525.51 737.231 1523.82 Q737.231 1521.07 735.287 1519.33 Q733.365 1517.6 730.264 1517.6 Q728.065 1517.6 725.611 1518.36 Q723.18 1519.13 720.403 1520.68 L720.403 1515.95 Q723.227 1514.82 725.68 1514.24 Q728.134 1513.66 730.171 1513.66 Q735.541 1513.66 738.736 1516.35 Q741.93 1519.03 741.93 1523.52 Q741.93 1525.65 741.12 1527.57 Q740.333 1529.47 738.227 1532.07 Q737.648 1532.74 734.546 1535.95 Q731.444 1539.15 725.796 1544.91 Z" fill="#000000" fill-rule="nonzero" fill-opacity="1" /><path clip-path="url(#clip250)" d="M751.976 1514.29 L770.333 1514.29 L770.333 1518.22 L756.259 1518.22 L756.259 1526.7 Q757.277 1526.35 758.296 1526.19 Q759.314 1526 760.333 1526 Q766.12 1526 769.5 1529.17 Q772.879 1532.34 772.879 1537.76 Q772.879 1543.34 769.407 1546.44 Q765.935 1549.52 759.615 1549.52 Q757.439 1549.52 755.171 1549.15 Q752.926 1548.78 750.518 1548.04 L750.518 1543.34 Q752.601 1544.47 754.824 1545.03 Q757.046 1545.58 759.523 1545.58 Q763.527 1545.58 765.865 1543.48 Q768.203 1541.37 768.203 1537.76 Q768.203 1534.15 765.865 1532.04 Q763.527 1529.94 759.523 1529.94 Q757.648 1529.94 755.773 1530.35 Q753.921 1530.77 751.976 1531.65 L751.976 1514.29 Z" fill="#000000" fill-rule="nonzero" fill-opacity="1" /><path clip-path="url(#clip250)" d="M1208.16 1517.37 Q1204.55 1517.37 1202.72 1520.93 Q1200.92 1524.47 1200.92 1531.6 Q1200.92 1538.71 1202.72 1542.27 Q1204.55 1545.82 1208.16 1545.82 Q1211.8 1545.82 1213.6 1542.27 Q1215.43 1538.71 1215.43 1531.6 Q1215.43 1524.47 1213.6 1520.93 Q1211.8 1517.37 1208.16 1517.37 M1208.16 1513.66 Q1213.97 1513.66 1217.03 1518.27 Q1220.11 1522.85 1220.11 1531.6 Q1220.11 1540.33 1217.03 1544.94 Q1213.97 1549.52 1208.16 1549.52 Q1202.35 1549.52 1199.27 1544.94 Q1196.22 1540.33 1196.22 1531.6 Q1196.22 1522.85 1199.27 1518.27 Q1202.35 1513.66 1208.16 1513.66 Z" fill="#000000" fill-rule="nonzero" fill-opacity="1" /><path clip-path="url(#clip250)" d="M1228.32 1542.97 L1233.21 1542.97 L1233.21 1548.85 L1228.32 1548.85 L1228.32 1542.97 Z" fill="#000000" fill-rule="nonzero" fill-opacity="1" /><path clip-path="url(#clip250)" d="M1243.44 1514.29 L1261.8 1514.29 L1261.8 1518.22 L1247.72 1518.22 L1247.72 1526.7 Q1248.74 1526.35 1249.76 1526.19 Q1250.78 1526 1251.8 1526 Q1257.58 1526 1260.96 1529.17 Q1264.34 1532.34 1264.34 1537.76 Q1264.34 1543.34 1260.87 1546.44 Q1257.4 1549.52 1251.08 1549.52 Q1248.9 1549.52 1246.63 1549.15 Q1244.39 1548.78 1241.98 1548.04 L1241.98 1543.34 Q1244.06 1544.47 1246.29 1545.03 Q1248.51 1545.58 1250.98 1545.58 Q1254.99 1545.58 1257.33 1543.48 Q1259.67 1541.37 1259.67 1537.76 Q1259.67 1534.15 1257.33 1532.04 Q1254.99 1529.94 1250.98 1529.94 Q1249.11 1529.94 1247.23 1530.35 Q1245.38 1530.77 1243.44 1531.65 L1243.44 1514.29 Z" fill="#000000" fill-rule="nonzero" fill-opacity="1" /><path clip-path="url(#clip250)" d="M1283.55 1517.37 Q1279.94 1517.37 1278.11 1520.93 Q1276.31 1524.47 1276.31 1531.6 Q1276.31 1538.71 1278.11 1542.27 Q1279.94 1545.82 1283.55 1545.82 Q1287.19 1545.82 1288.99 1542.27 Q1290.82 1538.71 1290.82 1531.6 Q1290.82 1524.47 1288.99 1520.93 Q1287.19 1517.37 1283.55 1517.37 M1283.55 1513.66 Q1289.36 1513.66 1292.42 1518.27 Q1295.5 1522.85 1295.5 1531.6 Q1295.5 1540.33 1292.42 1544.94 Q1289.36 1549.52 1283.55 1549.52 Q1277.74 1549.52 1274.67 1544.94 Q1271.61 1540.33 1271.61 1531.6 Q1271.61 1522.85 1274.67 1518.27 Q1277.74 1513.66 1283.55 1513.66 Z" fill="#000000" fill-rule="nonzero" fill-opacity="1" /><path clip-path="url(#clip250)" d="M1730.78 1517.37 Q1727.17 1517.37 1725.34 1520.93 Q1723.54 1524.47 1723.54 1531.6 Q1723.54 1538.71 1725.34 1542.27 Q1727.17 1545.82 1730.78 1545.82 Q1734.41 1545.82 1736.22 1542.27 Q1738.05 1538.71 1738.05 1531.6 Q1738.05 1524.47 1736.22 1520.93 Q1734.41 1517.37 1730.78 1517.37 M1730.78 1513.66 Q1736.59 1513.66 1739.65 1518.27 Q1742.72 1522.85 1742.72 1531.6 Q1742.72 1540.33 1739.65 1544.94 Q1736.59 1549.52 1730.78 1549.52 Q1724.97 1549.52 1721.89 1544.94 Q1718.84 1540.33 1718.84 1531.6 Q1718.84 1522.85 1721.89 1518.27 Q1724.97 1513.66 1730.78 1513.66 Z" fill="#000000" fill-rule="nonzero" fill-opacity="1" /><path clip-path="url(#clip250)" d="M1750.94 1542.97 L1755.83 1542.97 L1755.83 1548.85 L1750.94 1548.85 L1750.94 1542.97 Z" fill="#000000" fill-rule="nonzero" fill-opacity="1" /><path clip-path="url(#clip250)" d="M1764.83 1514.29 L1787.05 1514.29 L1787.05 1516.28 L1774.51 1548.85 L1769.62 1548.85 L1781.43 1518.22 L1764.83 1518.22 L1764.83 1514.29 Z" fill="#000000" fill-rule="nonzero" fill-opacity="1" /><path clip-path="url(#clip250)" d="M1796.22 1514.29 L1814.58 1514.29 L1814.58 1518.22 L1800.5 1518.22 L1800.5 1526.7 Q1801.52 1526.35 1802.54 1526.19 Q1803.56 1526 1804.58 1526 Q1810.36 1526 1813.74 1529.17 Q1817.12 1532.34 1817.12 1537.76 Q1817.12 1543.34 1813.65 1546.44 Q1810.18 1549.52 1803.86 1549.52 Q1801.68 1549.52 1799.41 1549.15 Q1797.17 1548.78 1794.76 1548.04 L1794.76 1543.34 Q1796.85 1544.47 1799.07 1545.03 Q1801.29 1545.58 1803.77 1545.58 Q1807.77 1545.58 1810.11 1543.48 Q1812.45 1541.37 1812.45 1537.76 Q1812.45 1534.15 1810.11 1532.04 Q1807.77 1529.94 1803.77 1529.94 Q1801.89 1529.94 1800.02 1530.35 Q1798.16 1530.77 1796.22 1531.65 L1796.22 1514.29 Z" fill="#000000" fill-rule="nonzero" fill-opacity="1" /><path clip-path="url(#clip250)" d="M2242.17 1544.91 L2249.81 1544.91 L2249.81 1518.55 L2241.5 1520.21 L2241.5 1515.95 L2249.77 1514.29 L2254.44 1514.29 L2254.44 1544.91 L2262.08 1544.91 L2262.08 1548.85 L2242.17 1548.85 L2242.17 1544.91 Z" fill="#000000" fill-rule="nonzero" fill-opacity="1" /><path clip-path="url(#clip250)" d="M2271.52 1542.97 L2276.41 1542.97 L2276.41 1548.85 L2271.52 1548.85 L2271.52 1542.97 Z" fill="#000000" fill-rule="nonzero" fill-opacity="1" /><path clip-path="url(#clip250)" d="M2296.59 1517.37 Q2292.98 1517.37 2291.15 1520.93 Q2289.35 1524.47 2289.35 1531.6 Q2289.35 1538.71 2291.15 1542.27 Q2292.98 1545.82 2296.59 1545.82 Q2300.23 1545.82 2302.03 1542.27 Q2303.86 1538.71 2303.86 1531.6 Q2303.86 1524.47 2302.03 1520.93 Q2300.23 1517.37 2296.59 1517.37 M2296.59 1513.66 Q2302.4 1513.66 2305.46 1518.27 Q2308.54 1522.85 2308.54 1531.6 Q2308.54 1540.33 2305.46 1544.94 Q2302.4 1549.52 2296.59 1549.52 Q2290.78 1549.52 2287.71 1544.94 Q2284.65 1540.33 2284.65 1531.6 Q2284.65 1522.85 2287.71 1518.27 Q2290.78 1513.66 2296.59 1513.66 Z" fill="#000000" fill-rule="nonzero" fill-opacity="1" /><path clip-path="url(#clip250)" d="M2326.76 1517.37 Q2323.15 1517.37 2321.32 1520.93 Q2319.51 1524.47 2319.51 1531.6 Q2319.51 1538.71 2321.32 1542.27 Q2323.15 1545.82 2326.76 1545.82 Q2330.39 1545.82 2332.2 1542.27 Q2334.02 1538.71 2334.02 1531.6 Q2334.02 1524.47 2332.2 1520.93 Q2330.39 1517.37 2326.76 1517.37 M2326.76 1513.66 Q2332.57 1513.66 2335.62 1518.27 Q2338.7 1522.85 2338.7 1531.6 Q2338.7 1540.33 2335.62 1544.94 Q2332.57 1549.52 2326.76 1549.52 Q2320.95 1549.52 2317.87 1544.94 Q2314.81 1540.33 2314.81 1531.6 Q2314.81 1522.85 2317.87 1518.27 Q2320.95 1513.66 2326.76 1513.66 Z" fill="#000000" fill-rule="nonzero" fill-opacity="1" /><polyline clip-path="url(#clip250)" style="stroke:#000000; stroke-linecap:round; stroke-linejoin:round; stroke-width:4; stroke-opacity:1; fill:none" points="138.959,1486.45 138.959,123.472 "/>
<polyline clip-path="url(#clip250)" style="stroke:#000000; stroke-linecap:round; stroke-linejoin:round; stroke-width:4; stroke-opacity:1; fill:none" points="138.959,1447.87 157.857,1447.87 "/>
<polyline clip-path="url(#clip250)" style="stroke:#000000; stroke-linecap:round; stroke-linejoin:round; stroke-width:4; stroke-opacity:1; fill:none" points="138.959,1113.6 157.857,1113.6 "/>
<polyline clip-path="url(#clip250)" style="stroke:#000000; stroke-linecap:round; stroke-linejoin:round; stroke-width:4; stroke-opacity:1; fill:none" points="138.959,779.322 157.857,779.322 "/>
<polyline clip-path="url(#clip250)" style="stroke:#000000; stroke-linecap:round; stroke-linejoin:round; stroke-width:4; stroke-opacity:1; fill:none" points="138.959,445.047 157.857,445.047 "/>
<path clip-path="url(#clip250)" d="M91.0151 1433.67 Q87.404 1433.67 85.5753 1437.24 Q83.7697 1440.78 83.7697 1447.91 Q83.7697 1455.01 85.5753 1458.58 Q87.404 1462.12 91.0151 1462.12 Q94.6493 1462.12 96.4548 1458.58 Q98.2835 1455.01 98.2835 1447.91 Q98.2835 1440.78 96.4548 1437.24 Q94.6493 1433.67 91.0151 1433.67 M91.0151 1429.97 Q96.8252 1429.97 99.8808 1434.57 Q102.959 1439.16 102.959 1447.91 Q102.959 1456.63 99.8808 1461.24 Q96.8252 1465.82 91.0151 1465.82 Q85.2049 1465.82 82.1262 1461.24 Q79.0707 1456.63 79.0707 1447.91 Q79.0707 1439.16 82.1262 1434.57 Q85.2049 1429.97 91.0151 1429.97 Z" fill="#000000" fill-rule="nonzero" fill-opacity="1" /><path clip-path="url(#clip250)" d="M82.0568 1096.32 L100.413 1096.32 L100.413 1100.25 L86.3392 1100.25 L86.3392 1108.72 Q87.3577 1108.38 88.3762 1108.22 Q89.3947 1108.03 90.4132 1108.03 Q96.2002 1108.03 99.5798 1111.2 Q102.959 1114.37 102.959 1119.79 Q102.959 1125.37 99.4872 1128.47 Q96.015 1131.55 89.6956 1131.55 Q87.5197 1131.55 85.2512 1131.18 Q83.0058 1130.81 80.5984 1130.07 L80.5984 1125.37 Q82.6818 1126.5 84.904 1127.06 Q87.1262 1127.61 89.603 1127.61 Q93.6076 1127.61 95.9456 1125.51 Q98.2835 1123.4 98.2835 1119.79 Q98.2835 1116.18 95.9456 1114.07 Q93.6076 1111.97 89.603 1111.97 Q87.728 1111.97 85.8531 1112.38 Q84.0012 1112.8 82.0568 1113.68 L82.0568 1096.32 Z" fill="#000000" fill-rule="nonzero" fill-opacity="1" /><path clip-path="url(#clip250)" d="M51.6634 792.667 L59.3023 792.667 L59.3023 766.301 L50.9921 767.968 L50.9921 763.709 L59.256 762.042 L63.9319 762.042 L63.9319 792.667 L71.5707 792.667 L71.5707 796.602 L51.6634 796.602 L51.6634 792.667 Z" fill="#000000" fill-rule="nonzero" fill-opacity="1" /><path clip-path="url(#clip250)" d="M91.0151 765.121 Q87.404 765.121 85.5753 768.686 Q83.7697 772.227 83.7697 779.357 Q83.7697 786.463 85.5753 790.028 Q87.404 793.57 91.0151 793.57 Q94.6493 793.57 96.4548 790.028 Q98.2835 786.463 98.2835 779.357 Q98.2835 772.227 96.4548 768.686 Q94.6493 765.121 91.0151 765.121 M91.0151 761.417 Q96.8252 761.417 99.8808 766.024 Q102.959 770.607 102.959 779.357 Q102.959 788.084 99.8808 792.69 Q96.8252 797.273 91.0151 797.273 Q85.2049 797.273 82.1262 792.69 Q79.0707 788.084 79.0707 779.357 Q79.0707 770.607 82.1262 766.024 Q85.2049 761.417 91.0151 761.417 Z" fill="#000000" fill-rule="nonzero" fill-opacity="1" /><path clip-path="url(#clip250)" d="M52.6588 458.392 L60.2976 458.392 L60.2976 432.026 L51.9875 433.693 L51.9875 429.433 L60.2513 427.767 L64.9272 427.767 L64.9272 458.392 L72.5661 458.392 L72.5661 462.327 L52.6588 462.327 L52.6588 458.392 Z" fill="#000000" fill-rule="nonzero" fill-opacity="1" /><path clip-path="url(#clip250)" d="M82.0568 427.767 L100.413 427.767 L100.413 431.702 L86.3392 431.702 L86.3392 440.174 Q87.3577 439.827 88.3762 439.665 Q89.3947 439.48 90.4132 439.48 Q96.2002 439.48 99.5798 442.651 Q102.959 445.822 102.959 451.239 Q102.959 456.817 99.4872 459.919 Q96.015 462.998 89.6956 462.998 Q87.5197 462.998 85.2512 462.628 Q83.0058 462.257 80.5984 461.516 L80.5984 456.817 Q82.6818 457.952 84.904 458.507 Q87.1262 459.063 89.603 459.063 Q93.6076 459.063 95.9456 456.956 Q98.2835 454.85 98.2835 451.239 Q98.2835 447.628 95.9456 445.521 Q93.6076 443.415 89.603 443.415 Q87.728 443.415 85.8531 443.831 Q84.0012 444.248 82.0568 445.128 L82.0568 427.767 Z" fill="#000000" fill-rule="nonzero" fill-opacity="1" /><path clip-path="url(#clip250)" d="M904.873 12.096 L913.056 12.096 L913.056 72.576 L904.873 72.576 L904.873 12.096 Z" fill="#000000" fill-rule="nonzero" fill-opacity="1" /><path clip-path="url(#clip250)" d="M966.73 45.1919 L966.73 72.576 L959.276 72.576 L959.276 45.4349 Q959.276 38.994 956.765 35.7938 Q954.253 32.5936 949.23 32.5936 Q943.194 32.5936 939.711 36.4419 Q936.227 40.2903 936.227 46.9338 L936.227 72.576 L928.733 72.576 L928.733 27.2059 L936.227 27.2059 L936.227 34.2544 Q938.9 30.163 942.506 28.1376 Q946.152 26.1121 950.891 26.1121 Q958.709 26.1121 962.72 30.9732 Q966.73 35.7938 966.73 45.1919 Z" fill="#000000" fill-rule="nonzero" fill-opacity="1" /><path clip-path="url(#clip250)" d="M1004.57 9.54393 L1004.57 15.7418 L997.436 15.7418 Q993.426 15.7418 991.846 17.3622 Q990.306 18.9825 990.306 23.1955 L990.306 27.2059 L1002.58 27.2059 L1002.58 32.9987 L990.306 32.9987 L990.306 72.576 L982.812 72.576 L982.812 32.9987 L975.683 32.9987 L975.683 27.2059 L982.812 27.2059 L982.812 24.0462 Q982.812 16.471 986.336 13.0277 Q989.861 9.54393 997.517 9.54393 L1004.57 9.54393 Z" fill="#000000" fill-rule="nonzero" fill-opacity="1" /><path clip-path="url(#clip250)" d="M1049.61 48.0275 L1049.61 51.6733 L1015.34 51.6733 Q1015.83 59.3701 1019.96 63.421 Q1024.13 67.4314 1031.54 67.4314 Q1035.84 67.4314 1039.85 66.3781 Q1043.9 65.3249 1047.87 63.2184 L1047.87 70.267 Q1043.86 71.9684 1039.65 72.8596 Q1035.43 73.7508 1031.1 73.7508 Q1020.24 73.7508 1013.88 67.4314 Q1007.56 61.1119 1007.56 50.3365 Q1007.56 39.1965 1013.56 32.6746 Q1019.59 26.1121 1029.8 26.1121 Q1038.96 26.1121 1044.26 32.0264 Q1049.61 37.9003 1049.61 48.0275 M1042.16 45.84 Q1042.08 39.7232 1038.71 36.0774 Q1035.39 32.4315 1029.88 32.4315 Q1023.65 32.4315 1019.88 35.9558 Q1016.15 39.4801 1015.58 45.8805 L1042.16 45.84 Z" fill="#000000" fill-rule="nonzero" fill-opacity="1" /><path clip-path="url(#clip250)" d="M1088.14 34.1734 Q1086.88 33.4443 1085.38 33.1202 Q1083.92 32.7556 1082.14 32.7556 Q1075.82 32.7556 1072.42 36.8875 Q1069.06 40.9789 1069.06 48.6757 L1069.06 72.576 L1061.56 72.576 L1061.56 27.2059 L1069.06 27.2059 L1069.06 34.2544 Q1071.41 30.1225 1075.17 28.1376 Q1078.94 26.1121 1084.33 26.1121 Q1085.1 26.1121 1086.03 26.2337 Q1086.96 26.3147 1088.1 26.5172 L1088.14 34.1734 Z" fill="#000000" fill-rule="nonzero" fill-opacity="1" /><path clip-path="url(#clip250)" d="M1132.94 48.0275 L1132.94 51.6733 L1098.67 51.6733 Q1099.15 59.3701 1103.29 63.421 Q1107.46 67.4314 1114.87 67.4314 Q1119.17 67.4314 1123.18 66.3781 Q1127.23 65.3249 1131.2 63.2184 L1131.2 70.267 Q1127.19 71.9684 1122.97 72.8596 Q1118.76 73.7508 1114.43 73.7508 Q1103.57 73.7508 1097.21 67.4314 Q1090.89 61.1119 1090.89 50.3365 Q1090.89 39.1965 1096.89 32.6746 Q1102.92 26.1121 1113.13 26.1121 Q1122.28 26.1121 1127.59 32.0264 Q1132.94 37.9003 1132.94 48.0275 M1125.49 45.84 Q1125.4 39.7232 1122.04 36.0774 Q1118.72 32.4315 1113.21 32.4315 Q1106.97 32.4315 1103.21 35.9558 Q1099.48 39.4801 1098.91 45.8805 L1125.49 45.84 Z" fill="#000000" fill-rule="nonzero" fill-opacity="1" /><path clip-path="url(#clip250)" d="M1182.89 45.1919 L1182.89 72.576 L1175.43 72.576 L1175.43 45.4349 Q1175.43 38.994 1172.92 35.7938 Q1170.41 32.5936 1165.39 32.5936 Q1159.35 32.5936 1155.87 36.4419 Q1152.38 40.2903 1152.38 46.9338 L1152.38 72.576 L1144.89 72.576 L1144.89 27.2059 L1152.38 27.2059 L1152.38 34.2544 Q1155.06 30.163 1158.66 28.1376 Q1162.31 26.1121 1167.05 26.1121 Q1174.87 26.1121 1178.88 30.9732 Q1182.89 35.7938 1182.89 45.1919 Z" fill="#000000" fill-rule="nonzero" fill-opacity="1" /><path clip-path="url(#clip250)" d="M1230.4 28.9478 L1230.4 35.9153 Q1227.24 34.1734 1224.04 33.3227 Q1220.88 32.4315 1217.64 32.4315 Q1210.39 32.4315 1206.38 37.0496 Q1202.37 41.6271 1202.37 49.9314 Q1202.37 58.2358 1206.38 62.8538 Q1210.39 67.4314 1217.64 67.4314 Q1220.88 67.4314 1224.04 66.5807 Q1227.24 65.6895 1230.4 63.9476 L1230.4 70.8341 Q1227.28 72.2924 1223.92 73.0216 Q1220.6 73.7508 1216.83 73.7508 Q1206.58 73.7508 1200.55 67.3098 Q1194.51 60.8689 1194.51 49.9314 Q1194.51 38.832 1200.59 32.472 Q1206.71 26.1121 1217.32 26.1121 Q1220.76 26.1121 1224.04 26.8413 Q1227.32 27.5299 1230.4 28.9478 Z" fill="#000000" fill-rule="nonzero" fill-opacity="1" /><path clip-path="url(#clip250)" d="M1282.17 48.0275 L1282.17 51.6733 L1247.9 51.6733 Q1248.39 59.3701 1252.52 63.421 Q1256.69 67.4314 1264.11 67.4314 Q1268.4 67.4314 1272.41 66.3781 Q1276.46 65.3249 1280.43 63.2184 L1280.43 70.267 Q1276.42 71.9684 1272.21 72.8596 Q1268 73.7508 1263.66 73.7508 Q1252.8 73.7508 1246.45 67.4314 Q1240.13 61.1119 1240.13 50.3365 Q1240.13 39.1965 1246.12 32.6746 Q1252.16 26.1121 1262.37 26.1121 Q1271.52 26.1121 1276.83 32.0264 Q1282.17 37.9003 1282.17 48.0275 M1274.72 45.84 Q1274.64 39.7232 1271.28 36.0774 Q1267.96 32.4315 1262.45 32.4315 Q1256.21 32.4315 1252.44 35.9558 Q1248.71 39.4801 1248.15 45.8805 L1274.72 45.84 Z" fill="#000000" fill-rule="nonzero" fill-opacity="1" /><path clip-path="url(#clip250)" d="M1347.07 34.1734 Q1345.81 33.4443 1344.31 33.1202 Q1342.86 32.7556 1341.07 32.7556 Q1334.75 32.7556 1331.35 36.8875 Q1327.99 40.9789 1327.99 48.6757 L1327.99 72.576 L1320.5 72.576 L1320.5 27.2059 L1327.99 27.2059 L1327.99 34.2544 Q1330.34 30.1225 1334.11 28.1376 Q1337.87 26.1121 1343.26 26.1121 Q1344.03 26.1121 1344.96 26.2337 Q1345.89 26.3147 1347.03 26.5172 L1347.07 34.1734 Z" fill="#000000" fill-rule="nonzero" fill-opacity="1" /><path clip-path="url(#clip250)" d="M1391.87 48.0275 L1391.87 51.6733 L1357.6 51.6733 Q1358.09 59.3701 1362.22 63.421 Q1366.39 67.4314 1373.81 67.4314 Q1378.1 67.4314 1382.11 66.3781 Q1386.16 65.3249 1390.13 63.2184 L1390.13 70.267 Q1386.12 71.9684 1381.91 72.8596 Q1377.69 73.7508 1373.36 73.7508 Q1362.5 73.7508 1356.14 67.4314 Q1349.82 61.1119 1349.82 50.3365 Q1349.82 39.1965 1355.82 32.6746 Q1361.86 26.1121 1372.06 26.1121 Q1381.22 26.1121 1386.53 32.0264 Q1391.87 37.9003 1391.87 48.0275 M1384.42 45.84 Q1384.34 39.7232 1380.98 36.0774 Q1377.65 32.4315 1372.14 32.4315 Q1365.91 32.4315 1362.14 35.9558 Q1358.41 39.4801 1357.84 45.8805 L1384.42 45.84 Z" fill="#000000" fill-rule="nonzero" fill-opacity="1" /><path clip-path="url(#clip250)" d="M1433.03 28.5427 L1433.03 35.5912 Q1429.87 33.9709 1426.47 33.1607 Q1423.06 32.3505 1419.42 32.3505 Q1413.87 32.3505 1411.07 34.0519 Q1408.32 35.7533 1408.32 39.156 Q1408.32 41.7486 1410.3 43.2475 Q1412.29 44.7058 1418.28 46.0426 L1420.84 46.6097 Q1428.78 48.3111 1432.1 51.4303 Q1435.46 54.509 1435.46 60.0587 Q1435.46 66.3781 1430.44 70.0644 Q1425.45 73.7508 1416.7 73.7508 Q1413.06 73.7508 1409.09 73.0216 Q1405.16 72.3329 1400.78 70.9151 L1400.78 63.2184 Q1404.92 65.3654 1408.93 66.4591 Q1412.94 67.5124 1416.87 67.5124 Q1422.13 67.5124 1424.97 65.73 Q1427.8 63.9071 1427.8 60.6258 Q1427.8 57.5877 1425.74 55.9673 Q1423.71 54.3469 1416.79 52.8481 L1414.19 52.2405 Q1407.27 50.7821 1404.19 47.7845 Q1401.11 44.7463 1401.11 39.4801 Q1401.11 33.0797 1405.65 29.5959 Q1410.18 26.1121 1418.53 26.1121 Q1422.66 26.1121 1426.31 26.7198 Q1429.95 27.3274 1433.03 28.5427 Z" fill="#000000" fill-rule="nonzero" fill-opacity="1" /><path clip-path="url(#clip250)" d="M1446.56 54.671 L1446.56 27.2059 L1454.01 27.2059 L1454.01 54.3874 Q1454.01 60.8284 1456.52 64.0691 Q1459.04 67.2693 1464.06 67.2693 Q1470.1 67.2693 1473.58 63.421 Q1477.1 59.5726 1477.1 52.9291 L1477.1 27.2059 L1484.56 27.2059 L1484.56 72.576 L1477.1 72.576 L1477.1 65.6084 Q1474.39 69.7404 1470.78 71.7658 Q1467.22 73.7508 1462.48 73.7508 Q1454.66 73.7508 1450.61 68.8897 Q1446.56 64.0286 1446.56 54.671 M1465.32 26.1121 L1465.32 26.1121 Z" fill="#000000" fill-rule="nonzero" fill-opacity="1" /><path clip-path="url(#clip250)" d="M1499.91 9.54393 L1507.36 9.54393 L1507.36 72.576 L1499.91 72.576 L1499.91 9.54393 Z" fill="#000000" fill-rule="nonzero" fill-opacity="1" /><path clip-path="url(#clip250)" d="M1530.33 14.324 L1530.33 27.2059 L1545.69 27.2059 L1545.69 32.9987 L1530.33 32.9987 L1530.33 57.6282 Q1530.33 63.1779 1531.83 64.7578 Q1533.37 66.3376 1538.03 66.3376 L1545.69 66.3376 L1545.69 72.576 L1538.03 72.576 Q1529.4 72.576 1526.12 69.3758 Q1522.84 66.1351 1522.84 57.6282 L1522.84 32.9987 L1517.37 32.9987 L1517.37 27.2059 L1522.84 27.2059 L1522.84 14.324 L1530.33 14.324 Z" fill="#000000" fill-rule="nonzero" fill-opacity="1" /><path clip-path="url(#clip250)" d="M1584.41 28.5427 L1584.41 35.5912 Q1581.25 33.9709 1577.85 33.1607 Q1574.45 32.3505 1570.8 32.3505 Q1565.25 32.3505 1562.46 34.0519 Q1559.7 35.7533 1559.7 39.156 Q1559.7 41.7486 1561.69 43.2475 Q1563.67 44.7058 1569.67 46.0426 L1572.22 46.6097 Q1580.16 48.3111 1583.48 51.4303 Q1586.84 54.509 1586.84 60.0587 Q1586.84 66.3781 1581.82 70.0644 Q1576.84 73.7508 1568.09 73.7508 Q1564.44 73.7508 1560.47 73.0216 Q1556.54 72.3329 1552.17 70.9151 L1552.17 63.2184 Q1556.3 65.3654 1560.31 66.4591 Q1564.32 67.5124 1568.25 67.5124 Q1573.52 67.5124 1576.35 65.73 Q1579.19 63.9071 1579.19 60.6258 Q1579.19 57.5877 1577.12 55.9673 Q1575.09 54.3469 1568.17 52.8481 L1565.58 52.2405 Q1558.65 50.7821 1555.57 47.7845 Q1552.49 44.7463 1552.49 39.4801 Q1552.49 33.0797 1557.03 29.5959 Q1561.56 26.1121 1569.91 26.1121 Q1574.04 26.1121 1577.69 26.7198 Q1581.33 27.3274 1584.41 28.5427 Z" fill="#000000" fill-rule="nonzero" fill-opacity="1" /><path clip-path="url(#clip252)" d="M201.614 1447.87 L203.705 1447.87 L205.795 1447.85 L207.886 1447.74 L209.976 1447.38 L212.067 1446.5 L214.158 1444.79 L216.248 1441.85 L218.339 1437.27 L220.429 1430.63 L222.52 1421.5 L224.61 1409.52 L226.701 1394.38 L228.792 1375.82 L230.882 1353.67 L232.973 1327.83 L235.063 1298.3 L237.154 1265.12 L239.244 1228.44 L241.335 1188.48 L243.426 1145.49 L245.516 1099.79 L247.607 1051.75 L249.697 1001.77 L251.788 950.269 L253.879 897.679 L255.969 844.446 L258.06 791.013 L260.15 737.816 L262.241 685.274 L264.331 633.79 L266.422 583.74 L268.513 535.474 L270.603 489.31 L272.694 445.535 L274.784 404.399 L276.875 366.119 L278.965 330.876 L281.056 298.817 L283.147 270.054 L285.237 244.666 L287.328 222.702 L289.418 204.18 L291.509 189.091 L293.599 177.401 L295.69 169.053 L297.781 163.967 L299.871 162.047 L301.962 163.179 L304.052 167.237 L306.143 174.081 L308.234 183.561 L310.324 195.523 L312.415 209.803 L314.505 226.235 L316.596 244.65 L318.686 264.88 L320.777 286.754 L322.868 310.107 L324.958 334.772 L327.049 360.591 L329.139 387.406 L331.23 415.068 L333.32 443.432 L335.411 472.359 L337.502 501.718 L339.592 531.385 L341.683 561.243 L343.773 591.183 L345.864 621.104 L347.955 650.909 L350.045 680.514 L352.136 709.838 L354.226 738.81 L356.317 767.363 L358.407 795.439 L360.498 822.987 L362.589 849.96 L364.679 876.32 L366.77 902.031 L368.86 927.065 L370.951 951.398 L373.041 975.012 L375.132 997.892 L377.223 1020.03 L379.313 1041.41 L381.404 1062.04 L383.494 1081.91 L385.585 1101.03 L387.675 1119.41 L389.766 1137.04 L391.857 1153.95 L393.947 1170.13 L396.038 1185.62 L398.128 1200.41 L400.219 1214.53 L402.31 1228 L404.4 1240.82 L406.491 1253.03 L408.581 1264.63 L410.672 1275.65 L412.762 1286.11 L414.853 1296.03 L416.944 1305.43 L419.034 1314.32 L421.125 1322.73 L423.215 1330.68 L425.306 1338.19 L427.396 1345.28 L429.487 1351.96 L431.578 1358.25 L433.668 1364.18 L435.759 1369.76 L437.849 1375 L439.94 1379.93 L442.031 1384.55 L444.121 1388.9 L446.212 1392.97 L448.302 1396.78 L450.393 1400.36 L452.483 1403.7 L454.574 1406.83 L456.665 1409.76 L458.755 1412.49 L460.846 1415.04 L462.936 1417.42 L465.027 1419.65 L467.117 1421.72 L469.208 1423.65 L471.299 1425.45 L473.389 1427.12 L475.48 1428.68 L477.57 1430.12 L479.661 1431.47 L481.751 1432.72 L483.842 1433.88 L485.933 1434.96 L488.023 1435.96 L490.114 1436.88 L492.204 1437.74 L494.295 1438.53 L496.386 1439.27 L498.476 1439.95 L500.567 1440.58 L502.657 1441.16 L504.748 1441.7 L506.838 1442.2 L508.929 1442.66 L511.02 1443.08 L513.11 1443.47 L515.201 1443.83 L517.291 1444.16 L519.382 1444.47 L521.472 1444.75 L523.563 1445.01 L525.654 1445.25 L527.744 1445.47 L529.835 1445.67 L531.925 1445.86 L534.016 1446.03 L536.107 1446.19 L538.197 1446.33 L540.288 1446.46 L542.378 1446.58 L544.469 1446.7 L546.559 1446.8 L548.65 1446.89 L550.741 1446.98 L552.831 1447.06 L554.922 1447.13 L557.012 1447.19 L559.103 1447.25 L561.193 1447.31 L563.284 1447.36 L565.375 1447.4 L567.465 1447.45 L569.556 1447.48 L571.646 1447.52 L573.737 1447.55 L575.827 1447.58 L577.918 1447.61 L580.009 1447.63 L582.099 1447.65 L584.19 1447.67 L586.28 1447.69 L588.371 1447.71 L590.462 1447.72 L592.552 1447.74 L594.643 1447.75 L596.733 1447.76 L598.824 1447.77 L600.914 1447.78 L603.005 1447.79 L605.096 1447.8 L607.186 1447.81 L609.277 1447.81 L611.367 1447.82 L613.458 1447.82 L615.548 1447.83 L617.639 1447.83 L619.73 1447.84 L621.82 1447.84 L623.911 1447.84 L626.001 1447.85 L628.092 1447.85 L630.183 1447.85 L632.273 1447.85 L634.364 1447.85 L636.454 1447.86 L638.545 1447.86 L640.635 1447.86 L642.726 1447.86 L644.817 1447.86 L646.907 1447.86 L648.998 1447.86 L651.088 1447.87 L653.179 1447.87 L655.269 1447.87 L657.36 1447.87 L659.451 1447.87 L661.541 1447.87 L663.632 1447.87 L665.722 1447.87 L667.813 1447.87 L669.903 1447.87 L671.994 1447.87 L674.085 1447.87 L676.175 1447.87 L678.266 1447.87 L680.356 1447.87 L682.447 1447.87 L684.538 1447.87 L686.628 1447.87 L688.719 1447.87 L690.809 1447.87 L692.9 1447.87 L694.99 1447.87 L697.081 1447.87 L699.172 1447.87 L701.262 1447.87 L703.353 1447.87 L705.443 1447.87 L707.534 1447.87 L709.624 1447.87 L711.715 1447.87 L713.806 1447.87 L715.896 1447.87 L717.987 1447.87 L720.077 1447.87 L722.168 1447.87 L724.259 1447.87 L726.349 1447.87 L728.44 1447.87 L730.53 1447.87 L732.621 1447.87 L734.711 1447.87 L736.802 1447.87 L738.893 1447.87 L740.983 1447.87 L743.074 1447.87 L745.164 1447.87 L747.255 1447.87 L749.345 1447.87 L751.436 1447.87 L753.527 1447.87 L755.617 1447.87 L757.708 1447.87 L759.798 1447.87 L761.889 1447.87 L763.979 1447.87 L766.07 1447.87 L768.161 1447.87 L770.251 1447.87 L772.342 1447.87 L774.432 1447.87 L776.523 1447.87 L778.614 1447.87 L780.704 1447.87 L782.795 1447.87 L784.885 1447.87 L786.976 1447.87 L789.066 1447.87 L791.157 1447.87 L793.248 1447.87 L795.338 1447.87 L797.429 1447.87 L799.519 1447.87 L801.61 1447.87 L803.7 1447.87 L805.791 1447.87 L807.882 1447.87 L809.972 1447.87 L812.063 1447.87 L814.153 1447.87 L816.244 1447.87 L818.335 1447.87 L820.425 1447.87 L822.516 1447.87 L824.606 1447.87 L826.697 1447.87 L828.787 1447.87 L830.878 1447.87 L832.969 1447.87 L835.059 1447.87 L837.15 1447.87 L839.24 1447.87 L841.331 1447.87 L843.421 1447.87 L845.512 1447.87 L847.603 1447.87 L849.693 1447.87 L851.784 1447.87 L853.874 1447.87 L855.965 1447.87 L858.055 1447.87 L860.146 1447.87 L862.237 1447.87 L864.327 1447.87 L866.418 1447.87 L868.508 1447.87 L870.599 1447.87 L872.69 1447.87 L874.78 1447.87 L876.871 1447.87 L878.961 1447.87 L881.052 1447.87 L883.142 1447.87 L885.233 1447.87 L887.324 1447.87 L889.414 1447.87 L891.505 1447.87 L893.595 1447.87 L895.686 1447.87 L897.776 1447.87 L899.867 1447.87 L901.958 1447.87 L904.048 1447.87 L906.139 1447.87 L908.229 1447.87 L910.32 1447.87 L912.411 1447.87 L914.501 1447.87 L916.592 1447.87 L918.682 1447.87 L920.773 1447.87 L922.863 1447.87 L924.954 1447.87 L927.045 1447.87 L929.135 1447.87 L931.226 1447.87 L933.316 1447.87 L935.407 1447.87 L937.497 1447.87 L939.588 1447.87 L941.679 1447.87 L943.769 1447.87 L945.86 1447.87 L947.95 1447.87 L950.041 1447.87 L952.131 1447.87 L954.222 1447.87 L956.313 1447.87 L958.403 1447.87 L960.494 1447.87 L962.584 1447.87 L964.675 1447.87 L966.766 1447.87 L968.856 1447.87 L970.947 1447.87 L973.037 1447.87 L975.128 1447.87 L977.218 1447.87 L979.309 1447.87 L981.4 1447.87 L983.49 1447.87 L985.581 1447.87 L987.671 1447.87 L989.762 1447.87 L991.852 1447.87 L993.943 1447.87 L996.034 1447.87 L998.124 1447.87 L1000.21 1447.87 L1002.31 1447.87 L1004.4 1447.87 L1006.49 1447.87 L1008.58 1447.87 L1010.67 1447.87 L1012.76 1447.87 L1014.85 1447.87 L1016.94 1447.87 L1019.03 1447.87 L1021.12 1447.87 L1023.21 1447.87 L1025.3 1447.87 L1027.39 1447.87 L1029.48 1447.87 L1031.57 1447.87 L1033.66 1447.87 L1035.75 1447.87 L1037.85 1447.87 L1039.94 1447.87 L1042.03 1447.87 L1044.12 1447.87 L1046.21 1447.87 L1048.3 1447.87 L1050.39 1447.87 L1052.48 1447.87 L1054.57 1447.87 L1056.66 1447.87 L1058.75 1447.87 L1060.84 1447.87 L1062.93 1447.87 L1065.02 1447.87 L1067.11 1447.87 L1069.2 1447.87 L1071.29 1447.87 L1073.39 1447.87 L1075.48 1447.87 L1077.57 1447.87 L1079.66 1447.87 L1081.75 1447.87 L1083.84 1447.87 L1085.93 1447.87 L1088.02 1447.87 L1090.11 1447.87 L1092.2 1447.87 L1094.29 1447.87 L1096.38 1447.87 L1098.47 1447.87 L1100.56 1447.87 L1102.65 1447.87 L1104.74 1447.87 L1106.83 1447.87 L1108.92 1447.87 L1111.02 1447.87 L1113.11 1447.87 L1115.2 1447.87 L1117.29 1447.87 L1119.38 1447.87 L1121.47 1447.87 L1123.56 1447.87 L1125.65 1447.87 L1127.74 1447.87 L1129.83 1447.87 L1131.92 1447.87 L1134.01 1447.87 L1136.1 1447.87 L1138.19 1447.87 L1140.28 1447.87 L1142.37 1447.87 L1144.46 1447.87 L1146.56 1447.87 L1148.65 1447.87 L1150.74 1447.87 L1152.83 1447.87 L1154.92 1447.87 L1157.01 1447.87 L1159.1 1447.87 L1161.19 1447.87 L1163.28 1447.87 L1165.37 1447.87 L1167.46 1447.87 L1169.55 1447.87 L1171.64 1447.87 L1173.73 1447.87 L1175.82 1447.87 L1177.91 1447.87 L1180 1447.87 L1182.1 1447.87 L1184.19 1447.87 L1186.28 1447.87 L1188.37 1447.87 L1190.46 1447.87 L1192.55 1447.87 L1194.64 1447.87 L1196.73 1447.87 L1198.82 1447.87 L1200.91 1447.87 L1203 1447.87 L1205.09 1447.87 L1207.18 1447.87 L1209.27 1447.87 L1211.36 1447.87 L1213.45 1447.87 L1215.54 1447.87 L1217.63 1447.87 L1219.73 1447.87 L1221.82 1447.87 L1223.91 1447.87 L1226 1447.87 L1228.09 1447.87 L1230.18 1447.87 L1232.27 1447.87 L1234.36 1447.87 L1236.45 1447.87 L1238.54 1447.87 L1240.63 1447.87 L1242.72 1447.87 L1244.81 1447.87 L1246.9 1447.87 L1248.99 1447.87 L1251.08 1447.87 L1253.17 1447.87 L1255.27 1447.87 L1257.36 1447.87 L1259.45 1447.87 L1261.54 1447.87 L1263.63 1447.87 L1265.72 1447.87 L1267.81 1447.87 L1269.9 1447.87 L1271.99 1447.87 L1274.08 1447.87 L1276.17 1447.87 L1278.26 1447.87 L1280.35 1447.87 L1282.44 1447.87 L1284.53 1447.87 L1286.62 1447.87 L1288.71 1447.87 L1290.81 1447.87 L1292.9 1447.87 L1294.99 1447.87 L1297.08 1447.87 L1299.17 1447.87 L1301.26 1447.87 L1303.35 1447.87 L1305.44 1447.87 L1307.53 1447.87 L1309.62 1447.87 L1311.71 1447.87 L1313.8 1447.87 L1315.89 1447.87 L1317.98 1447.87 L1320.07 1447.87 L1322.16 1447.87 L1324.25 1447.87 L1326.34 1447.87 L1328.44 1447.87 L1330.53 1447.87 L1332.62 1447.87 L1334.71 1447.87 L1336.8 1447.87 L1338.89 1447.87 L1340.98 1447.87 L1343.07 1447.87 L1345.16 1447.87 L1347.25 1447.87 L1349.34 1447.87 L1351.43 1447.87 L1353.52 1447.87 L1355.61 1447.87 L1357.7 1447.87 L1359.79 1447.87 L1361.88 1447.87 L1363.98 1447.87 L1366.07 1447.87 L1368.16 1447.87 L1370.25 1447.87 L1372.34 1447.87 L1374.43 1447.87 L1376.52 1447.87 L1378.61 1447.87 L1380.7 1447.87 L1382.79 1447.87 L1384.88 1447.87 L1386.97 1447.87 L1389.06 1447.87 L1391.15 1447.87 L1393.24 1447.87 L1395.33 1447.87 L1397.42 1447.87 L1399.52 1447.87 L1401.61 1447.87 L1403.7 1447.87 L1405.79 1447.87 L1407.88 1447.87 L1409.97 1447.87 L1412.06 1447.87 L1414.15 1447.87 L1416.24 1447.87 L1418.33 1447.87 L1420.42 1447.87 L1422.51 1447.87 L1424.6 1447.87 L1426.69 1447.87 L1428.78 1447.87 L1430.87 1447.87 L1432.96 1447.87 L1435.05 1447.87 L1437.15 1447.87 L1439.24 1447.87 L1441.33 1447.87 L1443.42 1447.87 L1445.51 1447.87 L1447.6 1447.87 L1449.69 1447.87 L1451.78 1447.87 L1453.87 1447.87 L1455.96 1447.87 L1458.05 1447.87 L1460.14 1447.87 L1462.23 1447.87 L1464.32 1447.87 L1466.41 1447.87 L1468.5 1447.87 L1470.59 1447.87 L1472.69 1447.87 L1474.78 1447.87 L1476.87 1447.87 L1478.96 1447.87 L1481.05 1447.87 L1483.14 1447.87 L1485.23 1447.87 L1487.32 1447.87 L1489.41 1447.87 L1491.5 1447.87 L1493.59 1447.87 L1495.68 1447.87 L1497.77 1447.87 L1499.86 1447.87 L1501.95 1447.87 L1504.04 1447.87 L1506.13 1447.87 L1508.23 1447.87 L1510.32 1447.87 L1512.41 1447.87 L1514.5 1447.87 L1516.59 1447.87 L1518.68 1447.87 L1520.77 1447.87 L1522.86 1447.87 L1524.95 1447.87 L1527.04 1447.87 L1529.13 1447.87 L1531.22 1447.87 L1533.31 1447.87 L1535.4 1447.87 L1537.49 1447.87 L1539.58 1447.87 L1541.67 1447.87 L1543.77 1447.87 L1545.86 1447.87 L1547.95 1447.87 L1550.04 1447.87 L1552.13 1447.87 L1554.22 1447.87 L1556.31 1447.87 L1558.4 1447.87 L1560.49 1447.87 L1562.58 1447.87 L1564.67 1447.87 L1566.76 1447.87 L1568.85 1447.87 L1570.94 1447.87 L1573.03 1447.87 L1575.12 1447.87 L1577.21 1447.87 L1579.3 1447.87 L1581.4 1447.87 L1583.49 1447.87 L1585.58 1447.87 L1587.67 1447.87 L1589.76 1447.87 L1591.85 1447.87 L1593.94 1447.87 L1596.03 1447.87 L1598.12 1447.87 L1600.21 1447.87 L1602.3 1447.87 L1604.39 1447.87 L1606.48 1447.87 L1608.57 1447.87 L1610.66 1447.87 L1612.75 1447.87 L1614.84 1447.87 L1616.94 1447.87 L1619.03 1447.87 L1621.12 1447.87 L1623.21 1447.87 L1625.3 1447.87 L1627.39 1447.87 L1629.48 1447.87 L1631.57 1447.87 L1633.66 1447.87 L1635.75 1447.87 L1637.84 1447.87 L1639.93 1447.87 L1642.02 1447.87 L1644.11 1447.87 L1646.2 1447.87 L1648.29 1447.87 L1650.38 1447.87 L1652.48 1447.87 L1654.57 1447.87 L1656.66 1447.87 L1658.75 1447.87 L1660.84 1447.87 L1662.93 1447.87 L1665.02 1447.87 L1667.11 1447.87 L1669.2 1447.87 L1671.29 1447.87 L1673.38 1447.87 L1675.47 1447.87 L1677.56 1447.87 L1679.65 1447.87 L1681.74 1447.87 L1683.83 1447.87 L1685.92 1447.87 L1688.01 1447.87 L1690.11 1447.87 L1692.2 1447.87 L1694.29 1447.87 L1696.38 1447.87 L1698.47 1447.87 L1700.56 1447.87 L1702.65 1447.87 L1704.74 1447.87 L1706.83 1447.87 L1708.92 1447.87 L1711.01 1447.87 L1713.1 1447.87 L1715.19 1447.87 L1717.28 1447.87 L1719.37 1447.87 L1721.46 1447.87 L1723.55 1447.87 L1725.65 1447.87 L1727.74 1447.87 L1729.83 1447.87 L1731.92 1447.87 L1734.01 1447.87 L1736.1 1447.87 L1738.19 1447.87 L1740.28 1447.87 L1742.37 1447.87 L1744.46 1447.87 L1746.55 1447.87 L1748.64 1447.87 L1750.73 1447.87 L1752.82 1447.87 L1754.91 1447.87 L1757 1447.87 L1759.09 1447.87 L1761.19 1447.87 L1763.28 1447.87 L1765.37 1447.87 L1767.46 1447.87 L1769.55 1447.87 L1771.64 1447.87 L1773.73 1447.87 L1775.82 1447.87 L1777.91 1447.87 L1780 1447.87 L1782.09 1447.87 L1784.18 1447.87 L1786.27 1447.87 L1788.36 1447.87 L1790.45 1447.87 L1792.54 1447.87 L1794.63 1447.87 L1796.72 1447.87 L1798.82 1447.87 L1800.91 1447.87 L1803 1447.87 L1805.09 1447.87 L1807.18 1447.87 L1809.27 1447.87 L1811.36 1447.87 L1813.45 1447.87 L1815.54 1447.87 L1817.63 1447.87 L1819.72 1447.87 L1821.81 1447.87 L1823.9 1447.87 L1825.99 1447.87 L1828.08 1447.87 L1830.17 1447.87 L1832.26 1447.87 L1834.36 1447.87 L1836.45 1447.87 L1838.54 1447.87 L1840.63 1447.87 L1842.72 1447.87 L1844.81 1447.87 L1846.9 1447.87 L1848.99 1447.87 L1851.08 1447.87 L1853.17 1447.87 L1855.26 1447.87 L1857.35 1447.87 L1859.44 1447.87 L1861.53 1447.87 L1863.62 1447.87 L1865.71 1447.87 L1867.8 1447.87 L1869.9 1447.87 L1871.99 1447.87 L1874.08 1447.87 L1876.17 1447.87 L1878.26 1447.87 L1880.35 1447.87 L1882.44 1447.87 L1884.53 1447.87 L1886.62 1447.87 L1888.71 1447.87 L1890.8 1447.87 L1892.89 1447.87 L1894.98 1447.87 L1897.07 1447.87 L1899.16 1447.87 L1901.25 1447.87 L1903.34 1447.87 L1905.43 1447.87 L1907.53 1447.87 L1909.62 1447.87 L1911.71 1447.87 L1913.8 1447.87 L1915.89 1447.87 L1917.98 1447.87 L1920.07 1447.87 L1922.16 1447.87 L1924.25 1447.87 L1926.34 1447.87 L1928.43 1447.87 L1930.52 1447.87 L1932.61 1447.87 L1934.7 1447.87 L1936.79 1447.87 L1938.88 1447.87 L1940.97 1447.87 L1943.07 1447.87 L1945.16 1447.87 L1947.25 1447.87 L1949.34 1447.87 L1951.43 1447.87 L1953.52 1447.87 L1955.61 1447.87 L1957.7 1447.87 L1959.79 1447.87 L1961.88 1447.87 L1963.97 1447.87 L1966.06 1447.87 L1968.15 1447.87 L1970.24 1447.87 L1972.33 1447.87 L1974.42 1447.87 L1976.51 1447.87 L1978.61 1447.87 L1980.7 1447.87 L1982.79 1447.87 L1984.88 1447.87 L1986.97 1447.87 L1989.06 1447.87 L1991.15 1447.87 L1993.24 1447.87 L1995.33 1447.87 L1997.42 1447.87 L1999.51 1447.87 L2001.6 1447.87 L2003.69 1447.87 L2005.78 1447.87 L2007.87 1447.87 L2009.96 1447.87 L2012.05 1447.87 L2014.15 1447.87 L2016.24 1447.87 L2018.33 1447.87 L2020.42 1447.87 L2022.51 1447.87 L2024.6 1447.87 L2026.69 1447.87 L2028.78 1447.87 L2030.87 1447.87 L2032.96 1447.87 L2035.05 1447.87 L2037.14 1447.87 L2039.23 1447.87 L2041.32 1447.87 L2043.41 1447.87 L2045.5 1447.87 L2047.59 1447.87 L2049.68 1447.87 L2051.78 1447.87 L2053.87 1447.87 L2055.96 1447.87 L2058.05 1447.87 L2060.14 1447.87 L2062.23 1447.87 L2064.32 1447.87 L2066.41 1447.87 L2068.5 1447.87 L2070.59 1447.87 L2072.68 1447.87 L2074.77 1447.87 L2076.86 1447.87 L2078.95 1447.87 L2081.04 1447.87 L2083.13 1447.87 L2085.22 1447.87 L2087.32 1447.87 L2089.41 1447.87 L2091.5 1447.87 L2093.59 1447.87 L2095.68 1447.87 L2097.77 1447.87 L2099.86 1447.87 L2101.95 1447.87 L2104.04 1447.87 L2106.13 1447.87 L2108.22 1447.87 L2110.31 1447.87 L2112.4 1447.87 L2114.49 1447.87 L2116.58 1447.87 L2118.67 1447.87 L2120.76 1447.87 L2122.86 1447.87 L2124.95 1447.87 L2127.04 1447.87 L2129.13 1447.87 L2131.22 1447.87 L2133.31 1447.87 L2135.4 1447.87 L2137.49 1447.87 L2139.58 1447.87 L2141.67 1447.87 L2143.76 1447.87 L2145.85 1447.87 L2147.94 1447.87 L2150.03 1447.87 L2152.12 1447.87 L2154.21 1447.87 L2156.3 1447.87 L2158.39 1447.87 L2160.49 1447.87 L2162.58 1447.87 L2164.67 1447.87 L2166.76 1447.87 L2168.85 1447.87 L2170.94 1447.87 L2173.03 1447.87 L2175.12 1447.87 L2177.21 1447.87 L2179.3 1447.87 L2181.39 1447.87 L2183.48 1447.87 L2185.57 1447.87 L2187.66 1447.87 L2189.75 1447.87 L2191.84 1447.87 L2193.93 1447.87 L2196.03 1447.87 L2198.12 1447.87 L2200.21 1447.87 L2202.3 1447.87 L2204.39 1447.87 L2206.48 1447.87 L2208.57 1447.87 L2210.66 1447.87 L2212.75 1447.87 L2214.84 1447.87 L2216.93 1447.87 L2219.02 1447.87 L2221.11 1447.87 L2223.2 1447.87 L2225.29 1447.87 L2227.38 1447.87 L2229.47 1447.87 L2231.57 1447.87 L2233.66 1447.87 L2235.75 1447.87 L2237.84 1447.87 L2239.93 1447.87 L2242.02 1447.87 L2244.11 1447.87 L2246.2 1447.87 L2248.29 1447.87 L2250.38 1447.87 L2252.47 1447.87 L2254.56 1447.87 L2256.65 1447.87 L2258.74 1447.87 L2260.83 1447.87 L2262.92 1447.87 L2265.01 1447.87 L2267.1 1447.87 L2269.2 1447.87 L2271.29 1447.87 L2273.38 1447.87 L2275.47 1447.87 L2277.56 1447.87 L2279.65 1447.87 L2281.74 1447.87 L2283.83 1447.87 L2285.92 1447.87 L2288.01 1447.87 L2290.1 1447.87 L2290.1 1447.87 L2288.01 1447.87 L2285.92 1447.87 L2283.83 1447.87 L2281.74 1447.87 L2279.65 1447.87 L2277.56 1447.87 L2275.47 1447.87 L2273.38 1447.87 L2271.29 1447.87 L2269.2 1447.87 L2267.1 1447.87 L2265.01 1447.87 L2262.92 1447.87 L2260.83 1447.87 L2258.74 1447.87 L2256.65 1447.87 L2254.56 1447.87 L2252.47 1447.87 L2250.38 1447.87 L2248.29 1447.87 L2246.2 1447.87 L2244.11 1447.87 L2242.02 1447.87 L2239.93 1447.87 L2237.84 1447.87 L2235.75 1447.87 L2233.66 1447.87 L2231.57 1447.87 L2229.47 1447.87 L2227.38 1447.87 L2225.29 1447.87 L2223.2 1447.87 L2221.11 1447.87 L2219.02 1447.87 L2216.93 1447.87 L2214.84 1447.87 L2212.75 1447.87 L2210.66 1447.87 L2208.57 1447.87 L2206.48 1447.87 L2204.39 1447.87 L2202.3 1447.87 L2200.21 1447.87 L2198.12 1447.87 L2196.03 1447.87 L2193.93 1447.87 L2191.84 1447.87 L2189.75 1447.87 L2187.66 1447.87 L2185.57 1447.87 L2183.48 1447.87 L2181.39 1447.87 L2179.3 1447.87 L2177.21 1447.87 L2175.12 1447.87 L2173.03 1447.87 L2170.94 1447.87 L2168.85 1447.87 L2166.76 1447.87 L2164.67 1447.87 L2162.58 1447.87 L2160.49 1447.87 L2158.39 1447.87 L2156.3 1447.87 L2154.21 1447.87 L2152.12 1447.87 L2150.03 1447.87 L2147.94 1447.87 L2145.85 1447.87 L2143.76 1447.87 L2141.67 1447.87 L2139.58 1447.87 L2137.49 1447.87 L2135.4 1447.87 L2133.31 1447.87 L2131.22 1447.87 L2129.13 1447.87 L2127.04 1447.87 L2124.95 1447.87 L2122.86 1447.87 L2120.76 1447.87 L2118.67 1447.87 L2116.58 1447.87 L2114.49 1447.87 L2112.4 1447.87 L2110.31 1447.87 L2108.22 1447.87 L2106.13 1447.87 L2104.04 1447.87 L2101.95 1447.87 L2099.86 1447.87 L2097.77 1447.87 L2095.68 1447.87 L2093.59 1447.87 L2091.5 1447.87 L2089.41 1447.87 L2087.32 1447.87 L2085.22 1447.87 L2083.13 1447.87 L2081.04 1447.87 L2078.95 1447.87 L2076.86 1447.87 L2074.77 1447.87 L2072.68 1447.87 L2070.59 1447.87 L2068.5 1447.87 L2066.41 1447.87 L2064.32 1447.87 L2062.23 1447.87 L2060.14 1447.87 L2058.05 1447.87 L2055.96 1447.87 L2053.87 1447.87 L2051.78 1447.87 L2049.68 1447.87 L2047.59 1447.87 L2045.5 1447.87 L2043.41 1447.87 L2041.32 1447.87 L2039.23 1447.87 L2037.14 1447.87 L2035.05 1447.87 L2032.96 1447.87 L2030.87 1447.87 L2028.78 1447.87 L2026.69 1447.87 L2024.6 1447.87 L2022.51 1447.87 L2020.42 1447.87 L2018.33 1447.87 L2016.24 1447.87 L2014.15 1447.87 L2012.05 1447.87 L2009.96 1447.87 L2007.87 1447.87 L2005.78 1447.87 L2003.69 1447.87 L2001.6 1447.87 L1999.51 1447.87 L1997.42 1447.87 L1995.33 1447.87 L1993.24 1447.87 L1991.15 1447.87 L1989.06 1447.87 L1986.97 1447.87 L1984.88 1447.87 L1982.79 1447.87 L1980.7 1447.87 L1978.61 1447.87 L1976.51 1447.87 L1974.42 1447.87 L1972.33 1447.87 L1970.24 1447.87 L1968.15 1447.87 L1966.06 1447.87 L1963.97 1447.87 L1961.88 1447.87 L1959.79 1447.87 L1957.7 1447.87 L1955.61 1447.87 L1953.52 1447.87 L1951.43 1447.87 L1949.34 1447.87 L1947.25 1447.87 L1945.16 1447.87 L1943.07 1447.87 L1940.97 1447.87 L1938.88 1447.87 L1936.79 1447.87 L1934.7 1447.87 L1932.61 1447.87 L1930.52 1447.87 L1928.43 1447.87 L1926.34 1447.87 L1924.25 1447.87 L1922.16 1447.87 L1920.07 1447.87 L1917.98 1447.87 L1915.89 1447.87 L1913.8 1447.87 L1911.71 1447.87 L1909.62 1447.87 L1907.53 1447.87 L1905.43 1447.87 L1903.34 1447.87 L1901.25 1447.87 L1899.16 1447.87 L1897.07 1447.87 L1894.98 1447.87 L1892.89 1447.87 L1890.8 1447.87 L1888.71 1447.87 L1886.62 1447.87 L1884.53 1447.87 L1882.44 1447.87 L1880.35 1447.87 L1878.26 1447.87 L1876.17 1447.87 L1874.08 1447.87 L1871.99 1447.87 L1869.9 1447.87 L1867.8 1447.87 L1865.71 1447.87 L1863.62 1447.87 L1861.53 1447.87 L1859.44 1447.87 L1857.35 1447.87 L1855.26 1447.87 L1853.17 1447.87 L1851.08 1447.87 L1848.99 1447.87 L1846.9 1447.87 L1844.81 1447.87 L1842.72 1447.87 L1840.63 1447.87 L1838.54 1447.87 L1836.45 1447.87 L1834.36 1447.87 L1832.26 1447.87 L1830.17 1447.87 L1828.08 1447.87 L1825.99 1447.87 L1823.9 1447.87 L1821.81 1447.87 L1819.72 1447.87 L1817.63 1447.87 L1815.54 1447.87 L1813.45 1447.87 L1811.36 1447.87 L1809.27 1447.87 L1807.18 1447.87 L1805.09 1447.87 L1803 1447.87 L1800.91 1447.87 L1798.82 1447.87 L1796.72 1447.87 L1794.63 1447.87 L1792.54 1447.87 L1790.45 1447.87 L1788.36 1447.87 L1786.27 1447.87 L1784.18 1447.87 L1782.09 1447.87 L1780 1447.87 L1777.91 1447.87 L1775.82 1447.87 L1773.73 1447.87 L1771.64 1447.87 L1769.55 1447.87 L1767.46 1447.87 L1765.37 1447.87 L1763.28 1447.87 L1761.19 1447.87 L1759.09 1447.87 L1757 1447.87 L1754.91 1447.87 L1752.82 1447.87 L1750.73 1447.87 L1748.64 1447.87 L1746.55 1447.87 L1744.46 1447.87 L1742.37 1447.87 L1740.28 1447.87 L1738.19 1447.87 L1736.1 1447.87 L1734.01 1447.87 L1731.92 1447.87 L1729.83 1447.87 L1727.74 1447.87 L1725.65 1447.87 L1723.55 1447.87 L1721.46 1447.87 L1719.37 1447.87 L1717.28 1447.87 L1715.19 1447.87 L1713.1 1447.87 L1711.01 1447.87 L1708.92 1447.87 L1706.83 1447.87 L1704.74 1447.87 L1702.65 1447.87 L1700.56 1447.87 L1698.47 1447.87 L1696.38 1447.87 L1694.29 1447.87 L1692.2 1447.87 L1690.11 1447.87 L1688.01 1447.87 L1685.92 1447.87 L1683.83 1447.87 L1681.74 1447.87 L1679.65 1447.87 L1677.56 1447.87 L1675.47 1447.87 L1673.38 1447.87 L1671.29 1447.87 L1669.2 1447.87 L1667.11 1447.87 L1665.02 1447.87 L1662.93 1447.87 L1660.84 1447.87 L1658.75 1447.87 L1656.66 1447.87 L1654.57 1447.87 L1652.48 1447.87 L1650.38 1447.87 L1648.29 1447.87 L1646.2 1447.87 L1644.11 1447.87 L1642.02 1447.87 L1639.93 1447.87 L1637.84 1447.87 L1635.75 1447.87 L1633.66 1447.87 L1631.57 1447.87 L1629.48 1447.87 L1627.39 1447.87 L1625.3 1447.87 L1623.21 1447.87 L1621.12 1447.87 L1619.03 1447.87 L1616.94 1447.87 L1614.84 1447.87 L1612.75 1447.87 L1610.66 1447.87 L1608.57 1447.87 L1606.48 1447.87 L1604.39 1447.87 L1602.3 1447.87 L1600.21 1447.87 L1598.12 1447.87 L1596.03 1447.87 L1593.94 1447.87 L1591.85 1447.87 L1589.76 1447.87 L1587.67 1447.87 L1585.58 1447.87 L1583.49 1447.87 L1581.4 1447.87 L1579.3 1447.87 L1577.21 1447.87 L1575.12 1447.87 L1573.03 1447.87 L1570.94 1447.87 L1568.85 1447.87 L1566.76 1447.87 L1564.67 1447.87 L1562.58 1447.87 L1560.49 1447.87 L1558.4 1447.87 L1556.31 1447.87 L1554.22 1447.87 L1552.13 1447.87 L1550.04 1447.87 L1547.95 1447.87 L1545.86 1447.87 L1543.77 1447.87 L1541.67 1447.87 L1539.58 1447.87 L1537.49 1447.87 L1535.4 1447.87 L1533.31 1447.87 L1531.22 1447.87 L1529.13 1447.87 L1527.04 1447.87 L1524.95 1447.87 L1522.86 1447.87 L1520.77 1447.87 L1518.68 1447.87 L1516.59 1447.87 L1514.5 1447.87 L1512.41 1447.87 L1510.32 1447.87 L1508.23 1447.87 L1506.13 1447.87 L1504.04 1447.87 L1501.95 1447.87 L1499.86 1447.87 L1497.77 1447.87 L1495.68 1447.87 L1493.59 1447.87 L1491.5 1447.87 L1489.41 1447.87 L1487.32 1447.87 L1485.23 1447.87 L1483.14 1447.87 L1481.05 1447.87 L1478.96 1447.87 L1476.87 1447.87 L1474.78 1447.87 L1472.69 1447.87 L1470.59 1447.87 L1468.5 1447.87 L1466.41 1447.87 L1464.32 1447.87 L1462.23 1447.87 L1460.14 1447.87 L1458.05 1447.87 L1455.96 1447.87 L1453.87 1447.87 L1451.78 1447.87 L1449.69 1447.87 L1447.6 1447.87 L1445.51 1447.87 L1443.42 1447.87 L1441.33 1447.87 L1439.24 1447.87 L1437.15 1447.87 L1435.05 1447.87 L1432.96 1447.87 L1430.87 1447.87 L1428.78 1447.87 L1426.69 1447.87 L1424.6 1447.87 L1422.51 1447.87 L1420.42 1447.87 L1418.33 1447.87 L1416.24 1447.87 L1414.15 1447.87 L1412.06 1447.87 L1409.97 1447.87 L1407.88 1447.87 L1405.79 1447.87 L1403.7 1447.87 L1401.61 1447.87 L1399.52 1447.87 L1397.42 1447.87 L1395.33 1447.87 L1393.24 1447.87 L1391.15 1447.87 L1389.06 1447.87 L1386.97 1447.87 L1384.88 1447.87 L1382.79 1447.87 L1380.7 1447.87 L1378.61 1447.87 L1376.52 1447.87 L1374.43 1447.87 L1372.34 1447.87 L1370.25 1447.87 L1368.16 1447.87 L1366.07 1447.87 L1363.98 1447.87 L1361.88 1447.87 L1359.79 1447.87 L1357.7 1447.87 L1355.61 1447.87 L1353.52 1447.87 L1351.43 1447.87 L1349.34 1447.87 L1347.25 1447.87 L1345.16 1447.87 L1343.07 1447.87 L1340.98 1447.87 L1338.89 1447.87 L1336.8 1447.87 L1334.71 1447.87 L1332.62 1447.87 L1330.53 1447.87 L1328.44 1447.87 L1326.34 1447.87 L1324.25 1447.87 L1322.16 1447.87 L1320.07 1447.87 L1317.98 1447.87 L1315.89 1447.87 L1313.8 1447.87 L1311.71 1447.87 L1309.62 1447.87 L1307.53 1447.87 L1305.44 1447.87 L1303.35 1447.87 L1301.26 1447.87 L1299.17 1447.87 L1297.08 1447.87 L1294.99 1447.87 L1292.9 1447.87 L1290.81 1447.87 L1288.71 1447.87 L1286.62 1447.87 L1284.53 1447.87 L1282.44 1447.87 L1280.35 1447.87 L1278.26 1447.87 L1276.17 1447.87 L1274.08 1447.87 L1271.99 1447.87 L1269.9 1447.87 L1267.81 1447.87 L1265.72 1447.87 L1263.63 1447.87 L1261.54 1447.87 L1259.45 1447.87 L1257.36 1447.87 L1255.27 1447.87 L1253.17 1447.87 L1251.08 1447.87 L1248.99 1447.87 L1246.9 1447.87 L1244.81 1447.87 L1242.72 1447.87 L1240.63 1447.87 L1238.54 1447.87 L1236.45 1447.87 L1234.36 1447.87 L1232.27 1447.87 L1230.18 1447.87 L1228.09 1447.87 L1226 1447.87 L1223.91 1447.87 L1221.82 1447.87 L1219.73 1447.87 L1217.63 1447.87 L1215.54 1447.87 L1213.45 1447.87 L1211.36 1447.87 L1209.27 1447.87 L1207.18 1447.87 L1205.09 1447.87 L1203 1447.87 L1200.91 1447.87 L1198.82 1447.87 L1196.73 1447.87 L1194.64 1447.87 L1192.55 1447.87 L1190.46 1447.87 L1188.37 1447.87 L1186.28 1447.87 L1184.19 1447.87 L1182.1 1447.87 L1180 1447.87 L1177.91 1447.87 L1175.82 1447.87 L1173.73 1447.87 L1171.64 1447.87 L1169.55 1447.87 L1167.46 1447.87 L1165.37 1447.87 L1163.28 1447.87 L1161.19 1447.87 L1159.1 1447.87 L1157.01 1447.87 L1154.92 1447.87 L1152.83 1447.87 L1150.74 1447.87 L1148.65 1447.87 L1146.56 1447.87 L1144.46 1447.87 L1142.37 1447.87 L1140.28 1447.87 L1138.19 1447.87 L1136.1 1447.87 L1134.01 1447.87 L1131.92 1447.87 L1129.83 1447.87 L1127.74 1447.87 L1125.65 1447.87 L1123.56 1447.87 L1121.47 1447.87 L1119.38 1447.87 L1117.29 1447.87 L1115.2 1447.87 L1113.11 1447.87 L1111.02 1447.87 L1108.92 1447.87 L1106.83 1447.87 L1104.74 1447.87 L1102.65 1447.87 L1100.56 1447.87 L1098.47 1447.87 L1096.38 1447.87 L1094.29 1447.87 L1092.2 1447.87 L1090.11 1447.87 L1088.02 1447.87 L1085.93 1447.87 L1083.84 1447.87 L1081.75 1447.87 L1079.66 1447.87 L1077.57 1447.87 L1075.48 1447.87 L1073.39 1447.87 L1071.29 1447.87 L1069.2 1447.87 L1067.11 1447.87 L1065.02 1447.87 L1062.93 1447.87 L1060.84 1447.87 L1058.75 1447.87 L1056.66 1447.87 L1054.57 1447.87 L1052.48 1447.87 L1050.39 1447.87 L1048.3 1447.87 L1046.21 1447.87 L1044.12 1447.87 L1042.03 1447.87 L1039.94 1447.87 L1037.85 1447.87 L1035.75 1447.87 L1033.66 1447.87 L1031.57 1447.87 L1029.48 1447.87 L1027.39 1447.87 L1025.3 1447.87 L1023.21 1447.87 L1021.12 1447.87 L1019.03 1447.87 L1016.94 1447.87 L1014.85 1447.87 L1012.76 1447.87 L1010.67 1447.87 L1008.58 1447.87 L1006.49 1447.87 L1004.4 1447.87 L1002.31 1447.87 L1000.21 1447.87 L998.124 1447.87 L996.034 1447.87 L993.943 1447.87 L991.852 1447.87 L989.762 1447.87 L987.671 1447.87 L985.581 1447.87 L983.49 1447.87 L981.4 1447.87 L979.309 1447.87 L977.218 1447.87 L975.128 1447.87 L973.037 1447.87 L970.947 1447.87 L968.856 1447.87 L966.766 1447.87 L964.675 1447.87 L962.584 1447.87 L960.494 1447.87 L958.403 1447.87 L956.313 1447.87 L954.222 1447.87 L952.131 1447.87 L950.041 1447.87 L947.95 1447.87 L945.86 1447.87 L943.769 1447.87 L941.679 1447.87 L939.588 1447.87 L937.497 1447.87 L935.407 1447.87 L933.316 1447.87 L931.226 1447.87 L929.135 1447.87 L927.045 1447.87 L924.954 1447.87 L922.863 1447.87 L920.773 1447.87 L918.682 1447.87 L916.592 1447.87 L914.501 1447.87 L912.411 1447.87 L910.32 1447.87 L908.229 1447.87 L906.139 1447.87 L904.048 1447.87 L901.958 1447.87 L899.867 1447.87 L897.776 1447.87 L895.686 1447.87 L893.595 1447.87 L891.505 1447.87 L889.414 1447.87 L887.324 1447.87 L885.233 1447.87 L883.142 1447.87 L881.052 1447.87 L878.961 1447.87 L876.871 1447.87 L874.78 1447.87 L872.69 1447.87 L870.599 1447.87 L868.508 1447.87 L866.418 1447.87 L864.327 1447.87 L862.237 1447.87 L860.146 1447.87 L858.055 1447.87 L855.965 1447.87 L853.874 1447.87 L851.784 1447.87 L849.693 1447.87 L847.603 1447.87 L845.512 1447.87 L843.421 1447.87 L841.331 1447.87 L839.24 1447.87 L837.15 1447.87 L835.059 1447.87 L832.969 1447.87 L830.878 1447.87 L828.787 1447.87 L826.697 1447.87 L824.606 1447.87 L822.516 1447.87 L820.425 1447.87 L818.335 1447.87 L816.244 1447.87 L814.153 1447.87 L812.063 1447.87 L809.972 1447.87 L807.882 1447.87 L805.791 1447.87 L803.7 1447.87 L801.61 1447.87 L799.519 1447.87 L797.429 1447.87 L795.338 1447.87 L793.248 1447.87 L791.157 1447.87 L789.066 1447.87 L786.976 1447.87 L784.885 1447.87 L782.795 1447.87 L780.704 1447.87 L778.614 1447.87 L776.523 1447.87 L774.432 1447.87 L772.342 1447.87 L770.251 1447.87 L768.161 1447.87 L766.07 1447.87 L763.979 1447.87 L761.889 1447.87 L759.798 1447.87 L757.708 1447.87 L755.617 1447.87 L753.527 1447.87 L751.436 1447.87 L749.345 1447.87 L747.255 1447.87 L745.164 1447.87 L743.074 1447.87 L740.983 1447.87 L738.893 1447.87 L736.802 1447.87 L734.711 1447.87 L732.621 1447.87 L730.53 1447.87 L728.44 1447.87 L726.349 1447.87 L724.259 1447.87 L722.168 1447.87 L720.077 1447.87 L717.987 1447.87 L715.896 1447.87 L713.806 1447.87 L711.715 1447.87 L709.624 1447.87 L707.534 1447.87 L705.443 1447.87 L703.353 1447.87 L701.262 1447.87 L699.172 1447.87 L697.081 1447.87 L694.99 1447.87 L692.9 1447.87 L690.809 1447.87 L688.719 1447.87 L686.628 1447.87 L684.538 1447.87 L682.447 1447.87 L680.356 1447.87 L678.266 1447.87 L676.175 1447.87 L674.085 1447.87 L671.994 1447.87 L669.903 1447.87 L667.813 1447.87 L665.722 1447.87 L663.632 1447.87 L661.541 1447.87 L659.451 1447.87 L657.36 1447.87 L655.269 1447.87 L653.179 1447.87 L651.088 1447.87 L648.998 1447.87 L646.907 1447.87 L644.817 1447.87 L642.726 1447.87 L640.635 1447.87 L638.545 1447.87 L636.454 1447.87 L634.364 1447.87 L632.273 1447.87 L630.183 1447.87 L628.092 1447.87 L626.001 1447.87 L623.911 1447.87 L621.82 1447.87 L619.73 1447.87 L617.639 1447.87 L615.548 1447.87 L613.458 1447.87 L611.367 1447.87 L609.277 1447.87 L607.186 1447.87 L605.096 1447.87 L603.005 1447.87 L600.914 1447.87 L598.824 1447.87 L596.733 1447.87 L594.643 1447.87 L592.552 1447.87 L590.462 1447.87 L588.371 1447.87 L586.28 1447.87 L584.19 1447.87 L582.099 1447.87 L580.009 1447.87 L577.918 1447.87 L575.827 1447.87 L573.737 1447.87 L571.646 1447.87 L569.556 1447.87 L567.465 1447.87 L565.375 1447.87 L563.284 1447.87 L561.193 1447.87 L559.103 1447.87 L557.012 1447.87 L554.922 1447.87 L552.831 1447.87 L550.741 1447.87 L548.65 1447.87 L546.559 1447.87 L544.469 1447.87 L542.378 1447.87 L540.288 1447.87 L538.197 1447.87 L536.107 1447.87 L534.016 1447.87 L531.925 1447.87 L529.835 1447.87 L527.744 1447.87 L525.654 1447.87 L523.563 1447.87 L521.472 1447.87 L519.382 1447.87 L517.291 1447.87 L515.201 1447.87 L513.11 1447.87 L511.02 1447.87 L508.929 1447.87 L506.838 1447.87 L504.748 1447.87 L502.657 1447.87 L500.567 1447.87 L498.476 1447.87 L496.386 1447.87 L494.295 1447.87 L492.204 1447.87 L490.114 1447.87 L488.023 1447.87 L485.933 1447.87 L483.842 1447.87 L481.751 1447.87 L479.661 1447.87 L477.57 1447.87 L475.48 1447.87 L473.389 1447.87 L471.299 1447.87 L469.208 1447.87 L467.117 1447.87 L465.027 1447.87 L462.936 1447.87 L460.846 1447.87 L458.755 1447.87 L456.665 1447.87 L454.574 1447.87 L452.483 1447.87 L450.393 1447.87 L448.302 1447.87 L446.212 1447.87 L444.121 1447.87 L442.031 1447.87 L439.94 1447.87 L437.849 1447.87 L435.759 1447.87 L433.668 1447.87 L431.578 1447.87 L429.487 1447.87 L427.396 1447.87 L425.306 1447.87 L423.215 1447.87 L421.125 1447.87 L419.034 1447.87 L416.944 1447.87 L414.853 1447.87 L412.762 1447.87 L410.672 1447.87 L408.581 1447.87 L406.491 1447.87 L404.4 1447.87 L402.31 1447.87 L400.219 1447.87 L398.128 1447.87 L396.038 1447.87 L393.947 1447.87 L391.857 1447.87 L389.766 1447.87 L387.675 1447.87 L385.585 1447.87 L383.494 1447.87 L381.404 1447.87 L379.313 1447.87 L377.223 1447.87 L375.132 1447.87 L373.041 1447.87 L370.951 1447.87 L368.86 1447.87 L366.77 1447.87 L364.679 1447.87 L362.589 1447.87 L360.498 1447.87 L358.407 1447.87 L356.317 1447.87 L354.226 1447.87 L352.136 1447.87 L350.045 1447.87 L347.955 1447.87 L345.864 1447.87 L343.773 1447.87 L341.683 1447.87 L339.592 1447.87 L337.502 1447.87 L335.411 1447.87 L333.32 1447.87 L331.23 1447.87 L329.139 1447.87 L327.049 1447.87 L324.958 1447.87 L322.868 1447.87 L320.777 1447.87 L318.686 1447.87 L316.596 1447.87 L314.505 1447.87 L312.415 1447.87 L310.324 1447.87 L308.234 1447.87 L306.143 1447.87 L304.052 1447.87 L301.962 1447.87 L299.871 1447.87 L297.781 1447.87 L295.69 1447.87 L293.599 1447.87 L291.509 1447.87 L289.418 1447.87 L287.328 1447.87 L285.237 1447.87 L283.147 1447.87 L281.056 1447.87 L278.965 1447.87 L276.875 1447.87 L274.784 1447.87 L272.694 1447.87 L270.603 1447.87 L268.513 1447.87 L266.422 1447.87 L264.331 1447.87 L262.241 1447.87 L260.15 1447.87 L258.06 1447.87 L255.969 1447.87 L253.879 1447.87 L251.788 1447.87 L249.697 1447.87 L247.607 1447.87 L245.516 1447.87 L243.426 1447.87 L241.335 1447.87 L239.244 1447.87 L237.154 1447.87 L235.063 1447.87 L232.973 1447.87 L230.882 1447.87 L228.792 1447.87 L226.701 1447.87 L224.61 1447.87 L222.52 1447.87 L220.429 1447.87 L218.339 1447.87 L216.248 1447.87 L214.158 1447.87 L212.067 1447.87 L209.976 1447.87 L207.886 1447.87 L205.795 1447.87 L203.705 1447.87 L201.614 1447.87  Z" fill="#009af9" fill-rule="evenodd" fill-opacity="0.4"/>
<polyline clip-path="url(#clip252)" style="stroke:#009af9; stroke-linecap:round; stroke-linejoin:round; stroke-width:4; stroke-opacity:1; fill:none" points="201.614,1447.87 203.705,1447.87 205.795,1447.85 207.886,1447.74 209.976,1447.38 212.067,1446.5 214.158,1444.79 216.248,1441.85 218.339,1437.27 220.429,1430.63 222.52,1421.5 224.61,1409.52 226.701,1394.38 228.792,1375.82 230.882,1353.67 232.973,1327.83 235.063,1298.3 237.154,1265.12 239.244,1228.44 241.335,1188.48 243.426,1145.49 245.516,1099.79 247.607,1051.75 249.697,1001.77 251.788,950.269 253.879,897.679 255.969,844.446 258.06,791.013 260.15,737.816 262.241,685.274 264.331,633.79 266.422,583.74 268.513,535.474 270.603,489.31 272.694,445.535 274.784,404.399 276.875,366.119 278.965,330.876 281.056,298.817 283.147,270.054 285.237,244.666 287.328,222.702 289.418,204.18 291.509,189.091 293.599,177.401 295.69,169.053 297.781,163.967 299.871,162.047 301.962,163.179 304.052,167.237 306.143,174.081 308.234,183.561 310.324,195.523 312.415,209.803 314.505,226.235 316.596,244.65 318.686,264.88 320.777,286.754 322.868,310.107 324.958,334.772 327.049,360.591 329.139,387.406 331.23,415.068 333.32,443.432 335.411,472.359 337.502,501.718 339.592,531.385 341.683,561.243 343.773,591.183 345.864,621.104 347.955,650.909 350.045,680.514 352.136,709.838 354.226,738.81 356.317,767.363 358.407,795.439 360.498,822.987 362.589,849.96 364.679,876.32 366.77,902.031 368.86,927.065 370.951,951.398 373.041,975.012 375.132,997.892 377.223,1020.03 379.313,1041.41 381.404,1062.04 383.494,1081.91 385.585,1101.03 387.675,1119.41 389.766,1137.04 391.857,1153.95 393.947,1170.13 396.038,1185.62 398.128,1200.41 400.219,1214.53 402.31,1228 404.4,1240.82 406.491,1253.03 408.581,1264.63 410.672,1275.65 412.762,1286.11 414.853,1296.03 416.944,1305.43 419.034,1314.32 421.125,1322.73 423.215,1330.68 425.306,1338.19 427.396,1345.28 429.487,1351.96 431.578,1358.25 433.668,1364.18 435.759,1369.76 437.849,1375 439.94,1379.93 442.031,1384.55 444.121,1388.9 446.212,1392.97 448.302,1396.78 450.393,1400.36 452.483,1403.7 454.574,1406.83 456.665,1409.76 458.755,1412.49 460.846,1415.04 462.936,1417.42 465.027,1419.65 467.117,1421.72 469.208,1423.65 471.299,1425.45 473.389,1427.12 475.48,1428.68 477.57,1430.12 479.661,1431.47 481.751,1432.72 483.842,1433.88 485.933,1434.96 488.023,1435.96 490.114,1436.88 492.204,1437.74 494.295,1438.53 496.386,1439.27 498.476,1439.95 500.567,1440.58 502.657,1441.16 504.748,1441.7 506.838,1442.2 508.929,1442.66 511.02,1443.08 513.11,1443.47 515.201,1443.83 517.291,1444.16 519.382,1444.47 521.472,1444.75 523.563,1445.01 525.654,1445.25 527.744,1445.47 529.835,1445.67 531.925,1445.86 534.016,1446.03 536.107,1446.19 538.197,1446.33 540.288,1446.46 542.378,1446.58 544.469,1446.7 546.559,1446.8 548.65,1446.89 550.741,1446.98 552.831,1447.06 554.922,1447.13 557.012,1447.19 559.103,1447.25 561.193,1447.31 563.284,1447.36 565.375,1447.4 567.465,1447.45 569.556,1447.48 571.646,1447.52 573.737,1447.55 575.827,1447.58 577.918,1447.61 580.009,1447.63 582.099,1447.65 584.19,1447.67 586.28,1447.69 588.371,1447.71 590.462,1447.72 592.552,1447.74 594.643,1447.75 596.733,1447.76 598.824,1447.77 600.914,1447.78 603.005,1447.79 605.096,1447.8 607.186,1447.81 609.277,1447.81 611.367,1447.82 613.458,1447.82 615.548,1447.83 617.639,1447.83 619.73,1447.84 621.82,1447.84 623.911,1447.84 626.001,1447.85 628.092,1447.85 630.183,1447.85 632.273,1447.85 634.364,1447.85 636.454,1447.86 638.545,1447.86 640.635,1447.86 642.726,1447.86 644.817,1447.86 646.907,1447.86 648.998,1447.86 651.088,1447.87 653.179,1447.87 655.269,1447.87 657.36,1447.87 659.451,1447.87 661.541,1447.87 663.632,1447.87 665.722,1447.87 667.813,1447.87 669.903,1447.87 671.994,1447.87 674.085,1447.87 676.175,1447.87 678.266,1447.87 680.356,1447.87 682.447,1447.87 684.538,1447.87 686.628,1447.87 688.719,1447.87 690.809,1447.87 692.9,1447.87 694.99,1447.87 697.081,1447.87 699.172,1447.87 701.262,1447.87 703.353,1447.87 705.443,1447.87 707.534,1447.87 709.624,1447.87 711.715,1447.87 713.806,1447.87 715.896,1447.87 717.987,1447.87 720.077,1447.87 722.168,1447.87 724.259,1447.87 726.349,1447.87 728.44,1447.87 730.53,1447.87 732.621,1447.87 734.711,1447.87 736.802,1447.87 738.893,1447.87 740.983,1447.87 743.074,1447.87 745.164,1447.87 747.255,1447.87 749.345,1447.87 751.436,1447.87 753.527,1447.87 755.617,1447.87 757.708,1447.87 759.798,1447.87 761.889,1447.87 763.979,1447.87 766.07,1447.87 768.161,1447.87 770.251,1447.87 772.342,1447.87 774.432,1447.87 776.523,1447.87 778.614,1447.87 780.704,1447.87 782.795,1447.87 784.885,1447.87 786.976,1447.87 789.066,1447.87 791.157,1447.87 793.248,1447.87 795.338,1447.87 797.429,1447.87 799.519,1447.87 801.61,1447.87 803.7,1447.87 805.791,1447.87 807.882,1447.87 809.972,1447.87 812.063,1447.87 814.153,1447.87 816.244,1447.87 818.335,1447.87 820.425,1447.87 822.516,1447.87 824.606,1447.87 826.697,1447.87 828.787,1447.87 830.878,1447.87 832.969,1447.87 835.059,1447.87 837.15,1447.87 839.24,1447.87 841.331,1447.87 843.421,1447.87 845.512,1447.87 847.603,1447.87 849.693,1447.87 851.784,1447.87 853.874,1447.87 855.965,1447.87 858.055,1447.87 860.146,1447.87 862.237,1447.87 864.327,1447.87 866.418,1447.87 868.508,1447.87 870.599,1447.87 872.69,1447.87 874.78,1447.87 876.871,1447.87 878.961,1447.87 881.052,1447.87 883.142,1447.87 885.233,1447.87 887.324,1447.87 889.414,1447.87 891.505,1447.87 893.595,1447.87 895.686,1447.87 897.776,1447.87 899.867,1447.87 901.958,1447.87 904.048,1447.87 906.139,1447.87 908.229,1447.87 910.32,1447.87 912.411,1447.87 914.501,1447.87 916.592,1447.87 918.682,1447.87 920.773,1447.87 922.863,1447.87 924.954,1447.87 927.045,1447.87 929.135,1447.87 931.226,1447.87 933.316,1447.87 935.407,1447.87 937.497,1447.87 939.588,1447.87 941.679,1447.87 943.769,1447.87 945.86,1447.87 947.95,1447.87 950.041,1447.87 952.131,1447.87 954.222,1447.87 956.313,1447.87 958.403,1447.87 960.494,1447.87 962.584,1447.87 964.675,1447.87 966.766,1447.87 968.856,1447.87 970.947,1447.87 973.037,1447.87 975.128,1447.87 977.218,1447.87 979.309,1447.87 981.4,1447.87 983.49,1447.87 985.581,1447.87 987.671,1447.87 989.762,1447.87 991.852,1447.87 993.943,1447.87 996.034,1447.87 998.124,1447.87 1000.21,1447.87 1002.31,1447.87 1004.4,1447.87 1006.49,1447.87 1008.58,1447.87 1010.67,1447.87 1012.76,1447.87 1014.85,1447.87 1016.94,1447.87 1019.03,1447.87 1021.12,1447.87 1023.21,1447.87 1025.3,1447.87 1027.39,1447.87 1029.48,1447.87 1031.57,1447.87 1033.66,1447.87 1035.75,1447.87 1037.85,1447.87 1039.94,1447.87 1042.03,1447.87 1044.12,1447.87 1046.21,1447.87 1048.3,1447.87 1050.39,1447.87 1052.48,1447.87 1054.57,1447.87 1056.66,1447.87 1058.75,1447.87 1060.84,1447.87 1062.93,1447.87 1065.02,1447.87 1067.11,1447.87 1069.2,1447.87 1071.29,1447.87 1073.39,1447.87 1075.48,1447.87 1077.57,1447.87 1079.66,1447.87 1081.75,1447.87 1083.84,1447.87 1085.93,1447.87 1088.02,1447.87 1090.11,1447.87 1092.2,1447.87 1094.29,1447.87 1096.38,1447.87 1098.47,1447.87 1100.56,1447.87 1102.65,1447.87 1104.74,1447.87 1106.83,1447.87 1108.92,1447.87 1111.02,1447.87 1113.11,1447.87 1115.2,1447.87 1117.29,1447.87 1119.38,1447.87 1121.47,1447.87 1123.56,1447.87 1125.65,1447.87 1127.74,1447.87 1129.83,1447.87 1131.92,1447.87 1134.01,1447.87 1136.1,1447.87 1138.19,1447.87 1140.28,1447.87 1142.37,1447.87 1144.46,1447.87 1146.56,1447.87 1148.65,1447.87 1150.74,1447.87 1152.83,1447.87 1154.92,1447.87 1157.01,1447.87 1159.1,1447.87 1161.19,1447.87 1163.28,1447.87 1165.37,1447.87 1167.46,1447.87 1169.55,1447.87 1171.64,1447.87 1173.73,1447.87 1175.82,1447.87 1177.91,1447.87 1180,1447.87 1182.1,1447.87 1184.19,1447.87 1186.28,1447.87 1188.37,1447.87 1190.46,1447.87 1192.55,1447.87 1194.64,1447.87 1196.73,1447.87 1198.82,1447.87 1200.91,1447.87 1203,1447.87 1205.09,1447.87 1207.18,1447.87 1209.27,1447.87 1211.36,1447.87 1213.45,1447.87 1215.54,1447.87 1217.63,1447.87 1219.73,1447.87 1221.82,1447.87 1223.91,1447.87 1226,1447.87 1228.09,1447.87 1230.18,1447.87 1232.27,1447.87 1234.36,1447.87 1236.45,1447.87 1238.54,1447.87 1240.63,1447.87 1242.72,1447.87 1244.81,1447.87 1246.9,1447.87 1248.99,1447.87 1251.08,1447.87 1253.17,1447.87 1255.27,1447.87 1257.36,1447.87 1259.45,1447.87 1261.54,1447.87 1263.63,1447.87 1265.72,1447.87 1267.81,1447.87 1269.9,1447.87 1271.99,1447.87 1274.08,1447.87 1276.17,1447.87 1278.26,1447.87 1280.35,1447.87 1282.44,1447.87 1284.53,1447.87 1286.62,1447.87 1288.71,1447.87 1290.81,1447.87 1292.9,1447.87 1294.99,1447.87 1297.08,1447.87 1299.17,1447.87 1301.26,1447.87 1303.35,1447.87 1305.44,1447.87 1307.53,1447.87 1309.62,1447.87 1311.71,1447.87 1313.8,1447.87 1315.89,1447.87 1317.98,1447.87 1320.07,1447.87 1322.16,1447.87 1324.25,1447.87 1326.34,1447.87 1328.44,1447.87 1330.53,1447.87 1332.62,1447.87 1334.71,1447.87 1336.8,1447.87 1338.89,1447.87 1340.98,1447.87 1343.07,1447.87 1345.16,1447.87 1347.25,1447.87 1349.34,1447.87 1351.43,1447.87 1353.52,1447.87 1355.61,1447.87 1357.7,1447.87 1359.79,1447.87 1361.88,1447.87 1363.98,1447.87 1366.07,1447.87 1368.16,1447.87 1370.25,1447.87 1372.34,1447.87 1374.43,1447.87 1376.52,1447.87 1378.61,1447.87 1380.7,1447.87 1382.79,1447.87 1384.88,1447.87 1386.97,1447.87 1389.06,1447.87 1391.15,1447.87 1393.24,1447.87 1395.33,1447.87 1397.42,1447.87 1399.52,1447.87 1401.61,1447.87 1403.7,1447.87 1405.79,1447.87 1407.88,1447.87 1409.97,1447.87 1412.06,1447.87 1414.15,1447.87 1416.24,1447.87 1418.33,1447.87 1420.42,1447.87 1422.51,1447.87 1424.6,1447.87 1426.69,1447.87 1428.78,1447.87 1430.87,1447.87 1432.96,1447.87 1435.05,1447.87 1437.15,1447.87 1439.24,1447.87 1441.33,1447.87 1443.42,1447.87 1445.51,1447.87 1447.6,1447.87 1449.69,1447.87 1451.78,1447.87 1453.87,1447.87 1455.96,1447.87 1458.05,1447.87 1460.14,1447.87 1462.23,1447.87 1464.32,1447.87 1466.41,1447.87 1468.5,1447.87 1470.59,1447.87 1472.69,1447.87 1474.78,1447.87 1476.87,1447.87 1478.96,1447.87 1481.05,1447.87 1483.14,1447.87 1485.23,1447.87 1487.32,1447.87 1489.41,1447.87 1491.5,1447.87 1493.59,1447.87 1495.68,1447.87 1497.77,1447.87 1499.86,1447.87 1501.95,1447.87 1504.04,1447.87 1506.13,1447.87 1508.23,1447.87 1510.32,1447.87 1512.41,1447.87 1514.5,1447.87 1516.59,1447.87 1518.68,1447.87 1520.77,1447.87 1522.86,1447.87 1524.95,1447.87 1527.04,1447.87 1529.13,1447.87 1531.22,1447.87 1533.31,1447.87 1535.4,1447.87 1537.49,1447.87 1539.58,1447.87 1541.67,1447.87 1543.77,1447.87 1545.86,1447.87 1547.95,1447.87 1550.04,1447.87 1552.13,1447.87 1554.22,1447.87 1556.31,1447.87 1558.4,1447.87 1560.49,1447.87 1562.58,1447.87 1564.67,1447.87 1566.76,1447.87 1568.85,1447.87 1570.94,1447.87 1573.03,1447.87 1575.12,1447.87 1577.21,1447.87 1579.3,1447.87 1581.4,1447.87 1583.49,1447.87 1585.58,1447.87 1587.67,1447.87 1589.76,1447.87 1591.85,1447.87 1593.94,1447.87 1596.03,1447.87 1598.12,1447.87 1600.21,1447.87 1602.3,1447.87 1604.39,1447.87 1606.48,1447.87 1608.57,1447.87 1610.66,1447.87 1612.75,1447.87 1614.84,1447.87 1616.94,1447.87 1619.03,1447.87 1621.12,1447.87 1623.21,1447.87 1625.3,1447.87 1627.39,1447.87 1629.48,1447.87 1631.57,1447.87 1633.66,1447.87 1635.75,1447.87 1637.84,1447.87 1639.93,1447.87 1642.02,1447.87 1644.11,1447.87 1646.2,1447.87 1648.29,1447.87 1650.38,1447.87 1652.48,1447.87 1654.57,1447.87 1656.66,1447.87 1658.75,1447.87 1660.84,1447.87 1662.93,1447.87 1665.02,1447.87 1667.11,1447.87 1669.2,1447.87 1671.29,1447.87 1673.38,1447.87 1675.47,1447.87 1677.56,1447.87 1679.65,1447.87 1681.74,1447.87 1683.83,1447.87 1685.92,1447.87 1688.01,1447.87 1690.11,1447.87 1692.2,1447.87 1694.29,1447.87 1696.38,1447.87 1698.47,1447.87 1700.56,1447.87 1702.65,1447.87 1704.74,1447.87 1706.83,1447.87 1708.92,1447.87 1711.01,1447.87 1713.1,1447.87 1715.19,1447.87 1717.28,1447.87 1719.37,1447.87 1721.46,1447.87 1723.55,1447.87 1725.65,1447.87 1727.74,1447.87 1729.83,1447.87 1731.92,1447.87 1734.01,1447.87 1736.1,1447.87 1738.19,1447.87 1740.28,1447.87 1742.37,1447.87 1744.46,1447.87 1746.55,1447.87 1748.64,1447.87 1750.73,1447.87 1752.82,1447.87 1754.91,1447.87 1757,1447.87 1759.09,1447.87 1761.19,1447.87 1763.28,1447.87 1765.37,1447.87 1767.46,1447.87 1769.55,1447.87 1771.64,1447.87 1773.73,1447.87 1775.82,1447.87 1777.91,1447.87 1780,1447.87 1782.09,1447.87 1784.18,1447.87 1786.27,1447.87 1788.36,1447.87 1790.45,1447.87 1792.54,1447.87 1794.63,1447.87 1796.72,1447.87 1798.82,1447.87 1800.91,1447.87 1803,1447.87 1805.09,1447.87 1807.18,1447.87 1809.27,1447.87 1811.36,1447.87 1813.45,1447.87 1815.54,1447.87 1817.63,1447.87 1819.72,1447.87 1821.81,1447.87 1823.9,1447.87 1825.99,1447.87 1828.08,1447.87 1830.17,1447.87 1832.26,1447.87 1834.36,1447.87 1836.45,1447.87 1838.54,1447.87 1840.63,1447.87 1842.72,1447.87 1844.81,1447.87 1846.9,1447.87 1848.99,1447.87 1851.08,1447.87 1853.17,1447.87 1855.26,1447.87 1857.35,1447.87 1859.44,1447.87 1861.53,1447.87 1863.62,1447.87 1865.71,1447.87 1867.8,1447.87 1869.9,1447.87 1871.99,1447.87 1874.08,1447.87 1876.17,1447.87 1878.26,1447.87 1880.35,1447.87 1882.44,1447.87 1884.53,1447.87 1886.62,1447.87 1888.71,1447.87 1890.8,1447.87 1892.89,1447.87 1894.98,1447.87 1897.07,1447.87 1899.16,1447.87 1901.25,1447.87 1903.34,1447.87 1905.43,1447.87 1907.53,1447.87 1909.62,1447.87 1911.71,1447.87 1913.8,1447.87 1915.89,1447.87 1917.98,1447.87 1920.07,1447.87 1922.16,1447.87 1924.25,1447.87 1926.34,1447.87 1928.43,1447.87 1930.52,1447.87 1932.61,1447.87 1934.7,1447.87 1936.79,1447.87 1938.88,1447.87 1940.97,1447.87 1943.07,1447.87 1945.16,1447.87 1947.25,1447.87 1949.34,1447.87 1951.43,1447.87 1953.52,1447.87 1955.61,1447.87 1957.7,1447.87 1959.79,1447.87 1961.88,1447.87 1963.97,1447.87 1966.06,1447.87 1968.15,1447.87 1970.24,1447.87 1972.33,1447.87 1974.42,1447.87 1976.51,1447.87 1978.61,1447.87 1980.7,1447.87 1982.79,1447.87 1984.88,1447.87 1986.97,1447.87 1989.06,1447.87 1991.15,1447.87 1993.24,1447.87 1995.33,1447.87 1997.42,1447.87 1999.51,1447.87 2001.6,1447.87 2003.69,1447.87 2005.78,1447.87 2007.87,1447.87 2009.96,1447.87 2012.05,1447.87 2014.15,1447.87 2016.24,1447.87 2018.33,1447.87 2020.42,1447.87 2022.51,1447.87 2024.6,1447.87 2026.69,1447.87 2028.78,1447.87 2030.87,1447.87 2032.96,1447.87 2035.05,1447.87 2037.14,1447.87 2039.23,1447.87 2041.32,1447.87 2043.41,1447.87 2045.5,1447.87 2047.59,1447.87 2049.68,1447.87 2051.78,1447.87 2053.87,1447.87 2055.96,1447.87 2058.05,1447.87 2060.14,1447.87 2062.23,1447.87 2064.32,1447.87 2066.41,1447.87 2068.5,1447.87 2070.59,1447.87 2072.68,1447.87 2074.77,1447.87 2076.86,1447.87 2078.95,1447.87 2081.04,1447.87 2083.13,1447.87 2085.22,1447.87 2087.32,1447.87 2089.41,1447.87 2091.5,1447.87 2093.59,1447.87 2095.68,1447.87 2097.77,1447.87 2099.86,1447.87 2101.95,1447.87 2104.04,1447.87 2106.13,1447.87 2108.22,1447.87 2110.31,1447.87 2112.4,1447.87 2114.49,1447.87 2116.58,1447.87 2118.67,1447.87 2120.76,1447.87 2122.86,1447.87 2124.95,1447.87 2127.04,1447.87 2129.13,1447.87 2131.22,1447.87 2133.31,1447.87 2135.4,1447.87 2137.49,1447.87 2139.58,1447.87 2141.67,1447.87 2143.76,1447.87 2145.85,1447.87 2147.94,1447.87 2150.03,1447.87 2152.12,1447.87 2154.21,1447.87 2156.3,1447.87 2158.39,1447.87 2160.49,1447.87 2162.58,1447.87 2164.67,1447.87 2166.76,1447.87 2168.85,1447.87 2170.94,1447.87 2173.03,1447.87 2175.12,1447.87 2177.21,1447.87 2179.3,1447.87 2181.39,1447.87 2183.48,1447.87 2185.57,1447.87 2187.66,1447.87 2189.75,1447.87 2191.84,1447.87 2193.93,1447.87 2196.03,1447.87 2198.12,1447.87 2200.21,1447.87 2202.3,1447.87 2204.39,1447.87 2206.48,1447.87 2208.57,1447.87 2210.66,1447.87 2212.75,1447.87 2214.84,1447.87 2216.93,1447.87 2219.02,1447.87 2221.11,1447.87 2223.2,1447.87 2225.29,1447.87 2227.38,1447.87 2229.47,1447.87 2231.57,1447.87 2233.66,1447.87 2235.75,1447.87 2237.84,1447.87 2239.93,1447.87 2242.02,1447.87 2244.11,1447.87 2246.2,1447.87 2248.29,1447.87 2250.38,1447.87 2252.47,1447.87 2254.56,1447.87 2256.65,1447.87 2258.74,1447.87 2260.83,1447.87 2262.92,1447.87 2265.01,1447.87 2267.1,1447.87 2269.2,1447.87 2271.29,1447.87 2273.38,1447.87 2275.47,1447.87 2277.56,1447.87 2279.65,1447.87 2281.74,1447.87 2283.83,1447.87 2285.92,1447.87 2288.01,1447.87 2290.1,1447.87 "/>
<polyline clip-path="url(#clip252)" style="stroke:#e26f46; stroke-linecap:round; stroke-linejoin:round; stroke-width:4; stroke-opacity:1; fill:none" points="828.16,2849.42 828.16,-1239.5 "/>
<path clip-path="url(#clip250)" d="M1666.87 324.425 L2278.96 324.425 L2278.96 168.905 L1666.87 168.905  Z" fill="#ffffff" fill-rule="evenodd" fill-opacity="1"/>
<polyline clip-path="url(#clip250)" style="stroke:#000000; stroke-linecap:round; stroke-linejoin:round; stroke-width:4; stroke-opacity:1; fill:none" points="1666.87,324.425 2278.96,324.425 2278.96,168.905 1666.87,168.905 1666.87,324.425 "/>
<path clip-path="url(#clip250)" d="M1691.47 241.481 L1839.05 241.481 L1839.05 200.009 L1691.47 200.009 L1691.47 241.481  Z" fill="#009af9" fill-rule="evenodd" fill-opacity="0.4"/>
<polyline clip-path="url(#clip250)" style="stroke:#009af9; stroke-linecap:round; stroke-linejoin:round; stroke-width:4; stroke-opacity:1; fill:none" points="1691.47,200.009 1839.05,200.009 "/>
<path clip-path="url(#clip250)" d="M1863.65 203.465 L1868.33 203.465 L1868.33 238.025 L1863.65 238.025 L1863.65 203.465 Z" fill="#000000" fill-rule="nonzero" fill-opacity="1" /><path clip-path="url(#clip250)" d="M1899 222.377 L1899 238.025 L1894.74 238.025 L1894.74 222.515 Q1894.74 218.835 1893.3 217.006 Q1891.87 215.178 1889 215.178 Q1885.55 215.178 1883.56 217.377 Q1881.57 219.576 1881.57 223.372 L1881.57 238.025 L1877.28 238.025 L1877.28 212.099 L1881.57 212.099 L1881.57 216.127 Q1883.09 213.789 1885.15 212.631 Q1887.24 211.474 1889.95 211.474 Q1894.41 211.474 1896.7 214.252 Q1899 217.006 1899 222.377 Z" fill="#000000" fill-rule="nonzero" fill-opacity="1" /><path clip-path="url(#clip250)" d="M1920.62 202.006 L1920.62 205.548 L1916.54 205.548 Q1914.25 205.548 1913.35 206.474 Q1912.47 207.4 1912.47 209.807 L1912.47 212.099 L1919.48 212.099 L1919.48 215.409 L1912.47 215.409 L1912.47 238.025 L1908.19 238.025 L1908.19 215.409 L1904.11 215.409 L1904.11 212.099 L1908.19 212.099 L1908.19 210.293 Q1908.19 205.965 1910.2 203.997 Q1912.21 202.006 1916.59 202.006 L1920.62 202.006 Z" fill="#000000" fill-rule="nonzero" fill-opacity="1" /><path clip-path="url(#clip250)" d="M1946.36 223.997 L1946.36 226.08 L1926.77 226.08 Q1927.05 230.478 1929.41 232.793 Q1931.8 235.085 1936.03 235.085 Q1938.49 235.085 1940.78 234.483 Q1943.09 233.881 1945.36 232.677 L1945.36 236.705 Q1943.07 237.677 1940.66 238.187 Q1938.26 238.696 1935.78 238.696 Q1929.58 238.696 1925.94 235.085 Q1922.33 231.474 1922.33 225.316 Q1922.33 218.951 1925.76 215.224 Q1929.2 211.474 1935.04 211.474 Q1940.27 211.474 1943.3 214.853 Q1946.36 218.21 1946.36 223.997 M1942.1 222.747 Q1942.05 219.252 1940.13 217.168 Q1938.23 215.085 1935.08 215.085 Q1931.52 215.085 1929.37 217.099 Q1927.24 219.113 1926.91 222.77 L1942.1 222.747 Z" fill="#000000" fill-rule="nonzero" fill-opacity="1" /><path clip-path="url(#clip250)" d="M1968.37 216.08 Q1967.65 215.664 1966.8 215.478 Q1965.96 215.27 1964.95 215.27 Q1961.33 215.27 1959.39 217.631 Q1957.47 219.969 1957.47 224.367 L1957.47 238.025 L1953.19 238.025 L1953.19 212.099 L1957.47 212.099 L1957.47 216.127 Q1958.81 213.766 1960.96 212.631 Q1963.12 211.474 1966.2 211.474 Q1966.64 211.474 1967.17 211.543 Q1967.7 211.59 1968.35 211.705 L1968.37 216.08 Z" fill="#000000" fill-rule="nonzero" fill-opacity="1" /><path clip-path="url(#clip250)" d="M1993.97 223.997 L1993.97 226.08 L1974.39 226.08 Q1974.67 230.478 1977.03 232.793 Q1979.41 235.085 1983.65 235.085 Q1986.1 235.085 1988.39 234.483 Q1990.71 233.881 1992.98 232.677 L1992.98 236.705 Q1990.69 237.677 1988.28 238.187 Q1985.87 238.696 1983.39 238.696 Q1977.19 238.696 1973.56 235.085 Q1969.95 231.474 1969.95 225.316 Q1969.95 218.951 1973.37 215.224 Q1976.82 211.474 1982.65 211.474 Q1987.88 211.474 1990.92 214.853 Q1993.97 218.21 1993.97 223.997 M1989.71 222.747 Q1989.67 219.252 1987.75 217.168 Q1985.85 215.085 1982.7 215.085 Q1979.13 215.085 1976.98 217.099 Q1974.85 219.113 1974.53 222.77 L1989.71 222.747 Z" fill="#000000" fill-rule="nonzero" fill-opacity="1" /><path clip-path="url(#clip250)" d="M2018.02 216.034 L2018.02 202.006 L2022.28 202.006 L2022.28 238.025 L2018.02 238.025 L2018.02 234.136 Q2016.68 236.451 2014.62 237.585 Q2012.58 238.696 2009.71 238.696 Q2005.01 238.696 2002.05 234.946 Q1999.11 231.196 1999.11 225.085 Q1999.11 218.974 2002.05 215.224 Q2005.01 211.474 2009.71 211.474 Q2012.58 211.474 2014.62 212.608 Q2016.68 213.719 2018.02 216.034 M2003.51 225.085 Q2003.51 229.784 2005.43 232.469 Q2007.38 235.131 2010.76 235.131 Q2014.13 235.131 2016.08 232.469 Q2018.02 229.784 2018.02 225.085 Q2018.02 220.386 2016.08 217.724 Q2014.13 215.039 2010.76 215.039 Q2007.38 215.039 2005.43 217.724 Q2003.51 220.386 2003.51 225.085 Z" fill="#000000" fill-rule="nonzero" fill-opacity="1" /><path clip-path="url(#clip250)" d="M2050.25 234.136 L2050.25 247.886 L2045.96 247.886 L2045.96 212.099 L2050.25 212.099 L2050.25 216.034 Q2051.59 213.719 2053.63 212.608 Q2055.69 211.474 2058.53 211.474 Q2063.25 211.474 2066.19 215.224 Q2069.16 218.974 2069.16 225.085 Q2069.16 231.196 2066.19 234.946 Q2063.25 238.696 2058.53 238.696 Q2055.69 238.696 2053.63 237.585 Q2051.59 236.451 2050.25 234.136 M2064.74 225.085 Q2064.74 220.386 2062.79 217.724 Q2060.87 215.039 2057.49 215.039 Q2054.11 215.039 2052.17 217.724 Q2050.25 220.386 2050.25 225.085 Q2050.25 229.784 2052.17 232.469 Q2054.11 235.131 2057.49 235.131 Q2060.87 235.131 2062.79 232.469 Q2064.74 229.784 2064.74 225.085 Z" fill="#000000" fill-rule="nonzero" fill-opacity="1" /><path clip-path="url(#clip250)" d="M2086.26 215.085 Q2082.84 215.085 2080.85 217.77 Q2078.86 220.432 2078.86 225.085 Q2078.86 229.738 2080.82 232.423 Q2082.81 235.085 2086.26 235.085 Q2089.67 235.085 2091.66 232.4 Q2093.65 229.715 2093.65 225.085 Q2093.65 220.478 2091.66 217.793 Q2089.67 215.085 2086.26 215.085 M2086.26 211.474 Q2091.82 211.474 2094.99 215.085 Q2098.16 218.696 2098.16 225.085 Q2098.16 231.451 2094.99 235.085 Q2091.82 238.696 2086.26 238.696 Q2080.69 238.696 2077.51 235.085 Q2074.37 231.451 2074.37 225.085 Q2074.37 218.696 2077.51 215.085 Q2080.69 211.474 2086.26 211.474 Z" fill="#000000" fill-rule="nonzero" fill-opacity="1" /><path clip-path="url(#clip250)" d="M2121.75 212.863 L2121.75 216.891 Q2119.94 215.965 2118 215.502 Q2116.06 215.039 2113.97 215.039 Q2110.8 215.039 2109.2 216.011 Q2107.63 216.983 2107.63 218.928 Q2107.63 220.409 2108.76 221.265 Q2109.9 222.099 2113.32 222.863 L2114.78 223.187 Q2119.32 224.159 2121.22 225.941 Q2123.14 227.701 2123.14 230.872 Q2123.14 234.483 2120.27 236.589 Q2117.42 238.696 2112.42 238.696 Q2110.34 238.696 2108.07 238.279 Q2105.82 237.886 2103.32 237.076 L2103.32 232.677 Q2105.69 233.904 2107.98 234.529 Q2110.27 235.131 2112.51 235.131 Q2115.52 235.131 2117.14 234.113 Q2118.76 233.071 2118.76 231.196 Q2118.76 229.46 2117.58 228.534 Q2116.43 227.608 2112.47 226.752 L2110.99 226.404 Q2107.03 225.571 2105.27 223.858 Q2103.51 222.122 2103.51 219.113 Q2103.51 215.455 2106.1 213.465 Q2108.69 211.474 2113.46 211.474 Q2115.82 211.474 2117.91 211.821 Q2119.99 212.168 2121.75 212.863 Z" fill="#000000" fill-rule="nonzero" fill-opacity="1" /><path clip-path="url(#clip250)" d="M2134.13 204.738 L2134.13 212.099 L2142.91 212.099 L2142.91 215.409 L2134.13 215.409 L2134.13 229.483 Q2134.13 232.654 2134.99 233.557 Q2135.87 234.46 2138.53 234.46 L2142.91 234.46 L2142.91 238.025 L2138.53 238.025 Q2133.6 238.025 2131.73 236.196 Q2129.85 234.344 2129.85 229.483 L2129.85 215.409 L2126.73 215.409 L2126.73 212.099 L2129.85 212.099 L2129.85 204.738 L2134.13 204.738 Z" fill="#000000" fill-rule="nonzero" fill-opacity="1" /><path clip-path="url(#clip250)" d="M2170.68 223.997 L2170.68 226.08 L2151.1 226.08 Q2151.38 230.478 2153.74 232.793 Q2156.12 235.085 2160.36 235.085 Q2162.81 235.085 2165.11 234.483 Q2167.42 233.881 2169.69 232.677 L2169.69 236.705 Q2167.4 237.677 2164.99 238.187 Q2162.58 238.696 2160.11 238.696 Q2153.9 238.696 2150.27 235.085 Q2146.66 231.474 2146.66 225.316 Q2146.66 218.951 2150.08 215.224 Q2153.53 211.474 2159.37 211.474 Q2164.6 211.474 2167.63 214.853 Q2170.68 218.21 2170.68 223.997 M2166.43 222.747 Q2166.38 219.252 2164.46 217.168 Q2162.56 215.085 2159.41 215.085 Q2155.85 215.085 2153.69 217.099 Q2151.56 219.113 2151.24 222.77 L2166.43 222.747 Z" fill="#000000" fill-rule="nonzero" fill-opacity="1" /><path clip-path="url(#clip250)" d="M2192.7 216.08 Q2191.98 215.664 2191.12 215.478 Q2190.29 215.27 2189.27 215.27 Q2185.66 215.27 2183.72 217.631 Q2181.8 219.969 2181.8 224.367 L2181.8 238.025 L2177.51 238.025 L2177.51 212.099 L2181.8 212.099 L2181.8 216.127 Q2183.14 213.766 2185.29 212.631 Q2187.44 211.474 2190.52 211.474 Q2190.96 211.474 2191.49 211.543 Q2192.03 211.59 2192.68 211.705 L2192.7 216.08 Z" fill="#000000" fill-rule="nonzero" fill-opacity="1" /><path clip-path="url(#clip250)" d="M2197.17 212.099 L2201.43 212.099 L2201.43 238.025 L2197.17 238.025 L2197.17 212.099 M2197.17 202.006 L2201.43 202.006 L2201.43 207.4 L2197.17 207.4 L2197.17 202.006 Z" fill="#000000" fill-rule="nonzero" fill-opacity="1" /><path clip-path="url(#clip250)" d="M2220.38 215.085 Q2216.96 215.085 2214.97 217.77 Q2212.98 220.432 2212.98 225.085 Q2212.98 229.738 2214.94 232.423 Q2216.93 235.085 2220.38 235.085 Q2223.79 235.085 2225.78 232.4 Q2227.77 229.715 2227.77 225.085 Q2227.77 220.478 2225.78 217.793 Q2223.79 215.085 2220.38 215.085 M2220.38 211.474 Q2225.94 211.474 2229.11 215.085 Q2232.28 218.696 2232.28 225.085 Q2232.28 231.451 2229.11 235.085 Q2225.94 238.696 2220.38 238.696 Q2214.8 238.696 2211.63 235.085 Q2208.49 231.451 2208.49 225.085 Q2208.49 218.696 2211.63 215.085 Q2214.8 211.474 2220.38 211.474 Z" fill="#000000" fill-rule="nonzero" fill-opacity="1" /><path clip-path="url(#clip250)" d="M2254.36 216.08 Q2253.65 215.664 2252.79 215.478 Q2251.96 215.27 2250.94 215.27 Q2247.33 215.27 2245.38 217.631 Q2243.46 219.969 2243.46 224.367 L2243.46 238.025 L2239.18 238.025 L2239.18 212.099 L2243.46 212.099 L2243.46 216.127 Q2244.8 213.766 2246.96 212.631 Q2249.11 211.474 2252.19 211.474 Q2252.63 211.474 2253.16 211.543 Q2253.69 211.59 2254.34 211.705 L2254.36 216.08 Z" fill="#000000" fill-rule="nonzero" fill-opacity="1" /><polyline clip-path="url(#clip250)" style="stroke:#e26f46; stroke-linecap:round; stroke-linejoin:round; stroke-width:4; stroke-opacity:1; fill:none" points="1691.47,272.585 1839.05,272.585 "/>
<path clip-path="url(#clip250)" d="M1880.04 273.661 Q1881.54 274.17 1882.95 275.837 Q1884.39 277.504 1885.83 280.42 L1890.57 289.865 L1885.55 289.865 L1881.13 280.999 Q1879.41 277.527 1877.79 276.393 Q1876.2 275.258 1873.42 275.258 L1868.33 275.258 L1868.33 289.865 L1863.65 289.865 L1863.65 255.305 L1874.2 255.305 Q1880.13 255.305 1883.05 257.781 Q1885.96 260.258 1885.96 265.258 Q1885.96 268.522 1884.44 270.675 Q1882.93 272.828 1880.04 273.661 M1868.33 259.147 L1868.33 271.416 L1874.2 271.416 Q1877.58 271.416 1879.3 269.865 Q1881.03 268.291 1881.03 265.258 Q1881.03 262.226 1879.3 260.698 Q1877.58 259.147 1874.2 259.147 L1868.33 259.147 Z" fill="#000000" fill-rule="nonzero" fill-opacity="1" /><path clip-path="url(#clip250)" d="M1916.45 275.837 L1916.45 277.92 L1896.87 277.92 Q1897.14 282.318 1899.51 284.633 Q1901.89 286.925 1906.13 286.925 Q1908.58 286.925 1910.87 286.323 Q1913.19 285.721 1915.45 284.517 L1915.45 288.545 Q1913.16 289.517 1910.76 290.027 Q1908.35 290.536 1905.87 290.536 Q1899.67 290.536 1896.03 286.925 Q1892.42 283.314 1892.42 277.156 Q1892.42 270.791 1895.85 267.064 Q1899.3 263.314 1905.13 263.314 Q1910.36 263.314 1913.39 266.693 Q1916.45 270.05 1916.45 275.837 M1912.19 274.587 Q1912.14 271.092 1910.22 269.008 Q1908.33 266.925 1905.18 266.925 Q1901.61 266.925 1899.46 268.939 Q1897.33 270.953 1897.01 274.61 L1912.19 274.587 Z" fill="#000000" fill-rule="nonzero" fill-opacity="1" /><path clip-path="url(#clip250)" d="M1935.22 276.832 Q1930.06 276.832 1928.07 278.013 Q1926.08 279.193 1926.08 282.041 Q1926.08 284.309 1927.56 285.652 Q1929.07 286.971 1931.64 286.971 Q1935.18 286.971 1937.31 284.471 Q1939.46 281.948 1939.46 277.781 L1939.46 276.832 L1935.22 276.832 M1943.72 275.073 L1943.72 289.865 L1939.46 289.865 L1939.46 285.929 Q1938 288.291 1935.82 289.425 Q1933.65 290.536 1930.5 290.536 Q1926.52 290.536 1924.16 288.314 Q1921.82 286.068 1921.82 282.318 Q1921.82 277.943 1924.74 275.721 Q1927.68 273.499 1933.49 273.499 L1939.46 273.499 L1939.46 273.082 Q1939.46 270.143 1937.51 268.545 Q1935.59 266.925 1932.1 266.925 Q1929.88 266.925 1927.77 267.457 Q1925.66 267.99 1923.72 269.055 L1923.72 265.119 Q1926.06 264.217 1928.26 263.777 Q1930.45 263.314 1932.54 263.314 Q1938.16 263.314 1940.94 266.231 Q1943.72 269.147 1943.72 275.073 Z" fill="#000000" fill-rule="nonzero" fill-opacity="1" /><path clip-path="url(#clip250)" d="M1952.49 253.846 L1956.75 253.846 L1956.75 289.865 L1952.49 289.865 L1952.49 253.846 Z" fill="#000000" fill-rule="nonzero" fill-opacity="1" /><path clip-path="url(#clip250)" d="M1998.14 273.43 L1983.39 273.43 Q1983.74 280.351 1985.34 283.291 Q1987.33 286.902 1990.78 286.902 Q1994.25 286.902 1996.17 283.267 Q1997.86 280.073 1998.14 273.43 M1998.07 269.494 Q1997.42 262.92 1996.17 260.606 Q1994.18 256.948 1990.78 256.948 Q1987.24 256.948 1985.36 260.559 Q1983.88 263.476 1983.44 269.494 L1998.07 269.494 M1990.78 253.476 Q1996.33 253.476 1999.51 258.383 Q2002.68 263.268 2002.68 271.925 Q2002.68 280.559 1999.51 285.467 Q1996.33 290.397 1990.78 290.397 Q1985.2 290.397 1982.05 285.467 Q1978.88 280.559 1978.88 271.925 Q1978.88 263.268 1982.05 258.383 Q1985.2 253.476 1990.78 253.476 Z" fill="#000000" fill-rule="nonzero" fill-opacity="1" /></svg>
