<?xml version="1.0" encoding="utf-8"?>
<svg xmlns="http://www.w3.org/2000/svg" xmlns:xlink="http://www.w3.org/1999/xlink" width="600" height="400" viewBox="0 0 2400 1600">
<defs>
  <clipPath id="clip930">
    <rect x="0" y="0" width="2400" height="1600"/>
  </clipPath>
</defs>
<path clip-path="url(#clip930)" d="M0 1600 L2400 1600 L2400 0 L0 0  Z" fill="#ffffff" fill-rule="evenodd" fill-opacity="1"/>
<defs>
  <clipPath id="clip931">
    <rect x="480" y="0" width="1681" height="1600"/>
  </clipPath>
</defs>
<path clip-path="url(#clip930)" d="M199.283 1486.45 L2352.76 1486.45 L2352.76 47.2441 L199.283 47.2441  Z" fill="#ffffff" fill-rule="evenodd" fill-opacity="1"/>
<defs>
  <clipPath id="clip932">
    <rect x="199" y="47" width="2154" height="1440"/>
  </clipPath>
</defs>
<polyline clip-path="url(#clip932)" style="stroke:#000000; stroke-linecap:round; stroke-linejoin:round; stroke-width:2; stroke-opacity:0.1; fill:none" points="598.827,1486.45 598.827,47.2441 "/>
<polyline clip-path="url(#clip932)" style="stroke:#000000; stroke-linecap:round; stroke-linejoin:round; stroke-width:2; stroke-opacity:0.1; fill:none" points="1022.07,1486.45 1022.07,47.2441 "/>
<polyline clip-path="url(#clip932)" style="stroke:#000000; stroke-linecap:round; stroke-linejoin:round; stroke-width:2; stroke-opacity:0.1; fill:none" points="1445.32,1486.45 1445.32,47.2441 "/>
<polyline clip-path="url(#clip932)" style="stroke:#000000; stroke-linecap:round; stroke-linejoin:round; stroke-width:2; stroke-opacity:0.1; fill:none" points="1868.56,1486.45 1868.56,47.2441 "/>
<polyline clip-path="url(#clip932)" style="stroke:#000000; stroke-linecap:round; stroke-linejoin:round; stroke-width:2; stroke-opacity:0.1; fill:none" points="2291.81,1486.45 2291.81,47.2441 "/>
<polyline clip-path="url(#clip932)" style="stroke:#000000; stroke-linecap:round; stroke-linejoin:round; stroke-width:2; stroke-opacity:0.1; fill:none" points="199.283,1195.57 2352.76,1195.57 "/>
<polyline clip-path="url(#clip932)" style="stroke:#000000; stroke-linecap:round; stroke-linejoin:round; stroke-width:2; stroke-opacity:0.1; fill:none" points="199.283,900.187 2352.76,900.187 "/>
<polyline clip-path="url(#clip932)" style="stroke:#000000; stroke-linecap:round; stroke-linejoin:round; stroke-width:2; stroke-opacity:0.1; fill:none" points="199.283,604.801 2352.76,604.801 "/>
<polyline clip-path="url(#clip932)" style="stroke:#000000; stroke-linecap:round; stroke-linejoin:round; stroke-width:2; stroke-opacity:0.1; fill:none" points="199.283,309.416 2352.76,309.416 "/>
<polyline clip-path="url(#clip930)" style="stroke:#000000; stroke-linecap:round; stroke-linejoin:round; stroke-width:4; stroke-opacity:1; fill:none" points="199.283,1486.45 2352.76,1486.45 "/>
<polyline clip-path="url(#clip930)" style="stroke:#000000; stroke-linecap:round; stroke-linejoin:round; stroke-width:4; stroke-opacity:1; fill:none" points="598.827,1486.45 598.827,1467.55 "/>
<polyline clip-path="url(#clip930)" style="stroke:#000000; stroke-linecap:round; stroke-linejoin:round; stroke-width:4; stroke-opacity:1; fill:none" points="1022.07,1486.45 1022.07,1467.55 "/>
<polyline clip-path="url(#clip930)" style="stroke:#000000; stroke-linecap:round; stroke-linejoin:round; stroke-width:4; stroke-opacity:1; fill:none" points="1445.32,1486.45 1445.32,1467.55 "/>
<polyline clip-path="url(#clip930)" style="stroke:#000000; stroke-linecap:round; stroke-linejoin:round; stroke-width:4; stroke-opacity:1; fill:none" points="1868.56,1486.45 1868.56,1467.55 "/>
<polyline clip-path="url(#clip930)" style="stroke:#000000; stroke-linecap:round; stroke-linejoin:round; stroke-width:4; stroke-opacity:1; fill:none" points="2291.81,1486.45 2291.81,1467.55 "/>
<path clip-path="url(#clip930)" d="M589.105 1514.29 L607.461 1514.29 L607.461 1518.22 L593.387 1518.22 L593.387 1526.7 Q594.406 1526.35 595.424 1526.19 Q596.443 1526 597.461 1526 Q603.248 1526 606.628 1529.17 Q610.007 1532.34 610.007 1537.76 Q610.007 1543.34 606.535 1546.44 Q603.063 1549.52 596.744 1549.52 Q594.568 1549.52 592.299 1549.15 Q590.054 1548.78 587.646 1548.04 L587.646 1543.34 Q589.73 1544.47 591.952 1545.03 Q594.174 1545.58 596.651 1545.58 Q600.656 1545.58 602.994 1543.48 Q605.331 1541.37 605.331 1537.76 Q605.331 1534.15 602.994 1532.04 Q600.656 1529.94 596.651 1529.94 Q594.776 1529.94 592.901 1530.35 Q591.049 1530.77 589.105 1531.65 L589.105 1514.29 Z" fill="#000000" fill-rule="nonzero" fill-opacity="1" /><path clip-path="url(#clip930)" d="M996.76 1544.91 L1004.4 1544.91 L1004.4 1518.55 L996.089 1520.21 L996.089 1515.95 L1004.35 1514.29 L1009.03 1514.29 L1009.03 1544.91 L1016.67 1544.91 L1016.67 1548.85 L996.76 1548.85 L996.76 1544.91 Z" fill="#000000" fill-rule="nonzero" fill-opacity="1" /><path clip-path="url(#clip930)" d="M1036.11 1517.37 Q1032.5 1517.37 1030.67 1520.93 Q1028.87 1524.47 1028.87 1531.6 Q1028.87 1538.71 1030.67 1542.27 Q1032.5 1545.82 1036.11 1545.82 Q1039.75 1545.82 1041.55 1542.27 Q1043.38 1538.71 1043.38 1531.6 Q1043.38 1524.47 1041.55 1520.93 Q1039.75 1517.37 1036.11 1517.37 M1036.11 1513.66 Q1041.92 1513.66 1044.98 1518.27 Q1048.06 1522.85 1048.06 1531.6 Q1048.06 1540.33 1044.98 1544.94 Q1041.92 1549.52 1036.11 1549.52 Q1030.3 1549.52 1027.22 1544.94 Q1024.17 1540.33 1024.17 1531.6 Q1024.17 1522.85 1027.22 1518.27 Q1030.3 1513.66 1036.11 1513.66 Z" fill="#000000" fill-rule="nonzero" fill-opacity="1" /><path clip-path="url(#clip930)" d="M1420.5 1544.91 L1428.14 1544.91 L1428.14 1518.55 L1419.83 1520.21 L1419.83 1515.95 L1428.1 1514.29 L1432.77 1514.29 L1432.77 1544.91 L1440.41 1544.91 L1440.41 1548.85 L1420.5 1548.85 L1420.5 1544.91 Z" fill="#000000" fill-rule="nonzero" fill-opacity="1" /><path clip-path="url(#clip930)" d="M1449.9 1514.29 L1468.26 1514.29 L1468.26 1518.22 L1454.18 1518.22 L1454.18 1526.7 Q1455.2 1526.35 1456.22 1526.19 Q1457.24 1526 1458.26 1526 Q1464.04 1526 1467.42 1529.17 Q1470.8 1532.34 1470.8 1537.76 Q1470.8 1543.34 1467.33 1546.44 Q1463.86 1549.52 1457.54 1549.52 Q1455.36 1549.52 1453.1 1549.15 Q1450.85 1548.78 1448.44 1548.04 L1448.44 1543.34 Q1450.53 1544.47 1452.75 1545.03 Q1454.97 1545.58 1457.45 1545.58 Q1461.45 1545.58 1463.79 1543.48 Q1466.13 1541.37 1466.13 1537.76 Q1466.13 1534.15 1463.79 1532.04 Q1461.45 1529.94 1457.45 1529.94 Q1455.57 1529.94 1453.7 1530.35 Q1451.85 1530.77 1449.9 1531.65 L1449.9 1514.29 Z" fill="#000000" fill-rule="nonzero" fill-opacity="1" /><path clip-path="url(#clip930)" d="M1847.34 1544.91 L1863.66 1544.91 L1863.66 1548.85 L1841.71 1548.85 L1841.71 1544.91 Q1844.37 1542.16 1848.96 1537.53 Q1853.56 1532.88 1854.74 1531.53 Q1856.99 1529.01 1857.87 1527.27 Q1858.77 1525.51 1858.77 1523.82 Q1858.77 1521.07 1856.83 1519.33 Q1854.91 1517.6 1851.8 1517.6 Q1849.6 1517.6 1847.15 1518.36 Q1844.72 1519.13 1841.94 1520.68 L1841.94 1515.95 Q1844.77 1514.82 1847.22 1514.24 Q1849.67 1513.66 1851.71 1513.66 Q1857.08 1513.66 1860.28 1516.35 Q1863.47 1519.03 1863.47 1523.52 Q1863.47 1525.65 1862.66 1527.57 Q1861.87 1529.47 1859.77 1532.07 Q1859.19 1532.74 1856.09 1535.95 Q1852.98 1539.15 1847.34 1544.91 Z" fill="#000000" fill-rule="nonzero" fill-opacity="1" /><path clip-path="url(#clip930)" d="M1883.47 1517.37 Q1879.86 1517.37 1878.03 1520.93 Q1876.23 1524.47 1876.23 1531.6 Q1876.23 1538.71 1878.03 1542.27 Q1879.86 1545.82 1883.47 1545.82 Q1887.1 1545.82 1888.91 1542.27 Q1890.74 1538.71 1890.74 1531.6 Q1890.74 1524.47 1888.91 1520.93 Q1887.1 1517.37 1883.47 1517.37 M1883.47 1513.66 Q1889.28 1513.66 1892.34 1518.27 Q1895.41 1522.85 1895.41 1531.6 Q1895.41 1540.33 1892.34 1544.94 Q1889.28 1549.52 1883.47 1549.52 Q1877.66 1549.52 1874.58 1544.94 Q1871.53 1540.33 1871.53 1531.6 Q1871.53 1522.85 1874.58 1518.27 Q1877.66 1513.66 1883.47 1513.66 Z" fill="#000000" fill-rule="nonzero" fill-opacity="1" /><path clip-path="url(#clip930)" d="M2271.08 1544.91 L2287.4 1544.91 L2287.4 1548.85 L2265.45 1548.85 L2265.45 1544.91 Q2268.12 1542.16 2272.7 1537.53 Q2277.31 1532.88 2278.49 1531.53 Q2280.73 1529.01 2281.61 1527.27 Q2282.51 1525.51 2282.51 1523.82 Q2282.51 1521.07 2280.57 1519.33 Q2278.65 1517.6 2275.55 1517.6 Q2273.35 1517.6 2270.89 1518.36 Q2268.46 1519.13 2265.69 1520.68 L2265.69 1515.95 Q2268.51 1514.82 2270.96 1514.24 Q2273.42 1513.66 2275.45 1513.66 Q2280.82 1513.66 2284.02 1516.35 Q2287.21 1519.03 2287.21 1523.52 Q2287.21 1525.65 2286.4 1527.57 Q2285.62 1529.47 2283.51 1532.07 Q2282.93 1532.74 2279.83 1535.95 Q2276.73 1539.15 2271.08 1544.91 Z" fill="#000000" fill-rule="nonzero" fill-opacity="1" /><path clip-path="url(#clip930)" d="M2297.26 1514.29 L2315.62 1514.29 L2315.62 1518.22 L2301.54 1518.22 L2301.54 1526.7 Q2302.56 1526.35 2303.58 1526.19 Q2304.6 1526 2305.62 1526 Q2311.4 1526 2314.78 1529.17 Q2318.16 1532.34 2318.16 1537.76 Q2318.16 1543.34 2314.69 1546.44 Q2311.22 1549.52 2304.9 1549.52 Q2302.72 1549.52 2300.45 1549.15 Q2298.21 1548.78 2295.8 1548.04 L2295.8 1543.34 Q2297.88 1544.47 2300.11 1545.03 Q2302.33 1545.58 2304.81 1545.58 Q2308.81 1545.58 2311.15 1543.48 Q2313.49 1541.37 2313.49 1537.76 Q2313.49 1534.15 2311.15 1532.04 Q2308.81 1529.94 2304.81 1529.94 Q2302.93 1529.94 2301.06 1530.35 Q2299.2 1530.77 2297.26 1531.65 L2297.26 1514.29 Z" fill="#000000" fill-rule="nonzero" fill-opacity="1" /><polyline clip-path="url(#clip930)" style="stroke:#000000; stroke-linecap:round; stroke-linejoin:round; stroke-width:4; stroke-opacity:1; fill:none" points="199.283,1486.45 199.283,47.2441 "/>
<polyline clip-path="url(#clip930)" style="stroke:#000000; stroke-linecap:round; stroke-linejoin:round; stroke-width:4; stroke-opacity:1; fill:none" points="199.283,1195.57 218.181,1195.57 "/>
<polyline clip-path="url(#clip930)" style="stroke:#000000; stroke-linecap:round; stroke-linejoin:round; stroke-width:4; stroke-opacity:1; fill:none" points="199.283,900.187 218.181,900.187 "/>
<polyline clip-path="url(#clip930)" style="stroke:#000000; stroke-linecap:round; stroke-linejoin:round; stroke-width:4; stroke-opacity:1; fill:none" points="199.283,604.801 218.181,604.801 "/>
<polyline clip-path="url(#clip930)" style="stroke:#000000; stroke-linecap:round; stroke-linejoin:round; stroke-width:4; stroke-opacity:1; fill:none" points="199.283,309.416 218.181,309.416 "/>
<path clip-path="url(#clip930)" d="M51.6634 1208.92 L59.3023 1208.92 L59.3023 1182.55 L50.9921 1184.22 L50.9921 1179.96 L59.256 1178.29 L63.9319 1178.29 L63.9319 1208.92 L71.5707 1208.92 L71.5707 1212.85 L51.6634 1212.85 L51.6634 1208.92 Z" fill="#000000" fill-rule="nonzero" fill-opacity="1" /><path clip-path="url(#clip930)" d="M81.0614 1178.29 L99.4178 1178.29 L99.4178 1182.23 L85.3438 1182.23 L85.3438 1190.7 Q86.3623 1190.35 87.3808 1190.19 Q88.3993 1190 89.4178 1190 Q95.2049 1190 98.5845 1193.18 Q101.964 1196.35 101.964 1201.76 Q101.964 1207.34 98.4919 1210.44 Q95.0197 1213.52 88.7003 1213.52 Q86.5243 1213.52 84.2558 1213.15 Q82.0105 1212.78 79.6031 1212.04 L79.6031 1207.34 Q81.6864 1208.48 83.9086 1209.03 Q86.1308 1209.59 88.6077 1209.59 Q92.6123 1209.59 94.9502 1207.48 Q97.2882 1205.37 97.2882 1201.76 Q97.2882 1198.15 94.9502 1196.05 Q92.6123 1193.94 88.6077 1193.94 Q86.7327 1193.94 84.8577 1194.36 Q83.0058 1194.77 81.0614 1195.65 L81.0614 1178.29 Z" fill="#000000" fill-rule="nonzero" fill-opacity="1" /><path clip-path="url(#clip930)" d="M121.756 1193.71 Q118.608 1193.71 116.756 1195.86 Q114.927 1198.01 114.927 1201.76 Q114.927 1205.49 116.756 1207.67 Q118.608 1209.82 121.756 1209.82 Q124.904 1209.82 126.732 1207.67 Q128.584 1205.49 128.584 1201.76 Q128.584 1198.01 126.732 1195.86 Q124.904 1193.71 121.756 1193.71 M131.038 1179.06 L131.038 1183.31 Q129.279 1182.48 127.473 1182.04 Q125.691 1181.6 123.932 1181.6 Q119.302 1181.6 116.848 1184.73 Q114.418 1187.85 114.07 1194.17 Q115.436 1192.16 117.496 1191.09 Q119.557 1190 122.033 1190 Q127.242 1190 130.251 1193.18 Q133.283 1196.32 133.283 1201.76 Q133.283 1207.09 130.135 1210.31 Q126.987 1213.52 121.756 1213.52 Q115.76 1213.52 112.589 1208.94 Q109.418 1204.33 109.418 1195.61 Q109.418 1187.41 113.307 1182.55 Q117.195 1177.67 123.746 1177.67 Q125.506 1177.67 127.288 1178.01 Q129.094 1178.36 131.038 1179.06 Z" fill="#000000" fill-rule="nonzero" fill-opacity="1" /><path clip-path="url(#clip930)" d="M151.339 1181.37 Q147.728 1181.37 145.899 1184.93 Q144.093 1188.48 144.093 1195.61 Q144.093 1202.71 145.899 1206.28 Q147.728 1209.82 151.339 1209.82 Q154.973 1209.82 156.779 1206.28 Q158.607 1202.71 158.607 1195.61 Q158.607 1188.48 156.779 1184.93 Q154.973 1181.37 151.339 1181.37 M151.339 1177.67 Q157.149 1177.67 160.205 1182.27 Q163.283 1186.86 163.283 1195.61 Q163.283 1204.33 160.205 1208.94 Q157.149 1213.52 151.339 1213.52 Q145.529 1213.52 142.45 1208.94 Q139.394 1204.33 139.394 1195.61 Q139.394 1186.86 142.45 1182.27 Q145.529 1177.67 151.339 1177.67 Z" fill="#000000" fill-rule="nonzero" fill-opacity="1" /><path clip-path="url(#clip930)" d="M52.8903 913.531 L60.5291 913.531 L60.5291 887.166 L52.219 888.832 L52.219 884.573 L60.4828 882.907 L65.1587 882.907 L65.1587 913.531 L72.7976 913.531 L72.7976 917.467 L52.8903 917.467 L52.8903 913.531 Z" fill="#000000" fill-rule="nonzero" fill-opacity="1" /><path clip-path="url(#clip930)" d="M82.2883 882.907 L100.645 882.907 L100.645 886.842 L86.5706 886.842 L86.5706 895.314 Q87.5892 894.967 88.6077 894.805 Q89.6262 894.619 90.6447 894.619 Q96.4317 894.619 99.8113 897.791 Q103.191 900.962 103.191 906.379 Q103.191 911.957 99.7187 915.059 Q96.2465 918.138 89.9271 918.138 Q87.7512 918.138 85.4827 917.767 Q83.2373 917.397 80.8299 916.656 L80.8299 911.957 Q82.9133 913.092 85.1355 913.647 Q87.3577 914.203 89.8345 914.203 Q93.8391 914.203 96.1771 912.096 Q98.515 909.99 98.515 906.379 Q98.515 902.768 96.1771 900.661 Q93.8391 898.555 89.8345 898.555 Q87.9595 898.555 86.0845 898.971 Q84.2327 899.388 82.2883 900.268 L82.2883 882.907 Z" fill="#000000" fill-rule="nonzero" fill-opacity="1" /><path clip-path="url(#clip930)" d="M122.982 898.323 Q119.834 898.323 117.983 900.476 Q116.154 902.629 116.154 906.379 Q116.154 910.105 117.983 912.281 Q119.834 914.434 122.982 914.434 Q126.131 914.434 127.959 912.281 Q129.811 910.105 129.811 906.379 Q129.811 902.629 127.959 900.476 Q126.131 898.323 122.982 898.323 M132.265 883.67 L132.265 887.93 Q130.506 887.096 128.7 886.656 Q126.918 886.217 125.158 886.217 Q120.529 886.217 118.075 889.342 Q115.645 892.467 115.297 898.786 Q116.663 896.772 118.723 895.707 Q120.783 894.619 123.26 894.619 Q128.469 894.619 131.478 897.791 Q134.51 900.939 134.51 906.379 Q134.51 911.703 131.362 914.92 Q128.214 918.138 122.982 918.138 Q116.987 918.138 113.816 913.554 Q110.645 908.948 110.645 900.221 Q110.645 892.027 114.533 887.166 Q118.422 882.282 124.973 882.282 Q126.732 882.282 128.515 882.629 Q130.32 882.976 132.265 883.67 Z" fill="#000000" fill-rule="nonzero" fill-opacity="1" /><path clip-path="url(#clip930)" d="M143.376 913.531 L151.015 913.531 L151.015 887.166 L142.705 888.832 L142.705 884.573 L150.968 882.907 L155.644 882.907 L155.644 913.531 L163.283 913.531 L163.283 917.467 L143.376 917.467 L143.376 913.531 Z" fill="#000000" fill-rule="nonzero" fill-opacity="1" /><path clip-path="url(#clip930)" d="M53.2606 618.146 L60.8995 618.146 L60.8995 591.781 L52.5893 593.447 L52.5893 589.188 L60.8532 587.521 L65.5291 587.521 L65.5291 618.146 L73.1679 618.146 L73.1679 622.081 L53.2606 622.081 L53.2606 618.146 Z" fill="#000000" fill-rule="nonzero" fill-opacity="1" /><path clip-path="url(#clip930)" d="M82.6586 587.521 L101.015 587.521 L101.015 591.457 L86.941 591.457 L86.941 599.929 Q87.9595 599.582 88.978 599.42 Q89.9965 599.234 91.0151 599.234 Q96.8021 599.234 100.182 602.406 Q103.561 605.577 103.561 610.994 Q103.561 616.572 100.089 619.674 Q96.6169 622.753 90.2975 622.753 Q88.1216 622.753 85.8531 622.382 Q83.6077 622.012 81.2003 621.271 L81.2003 616.572 Q83.2836 617.707 85.5058 618.262 Q87.728 618.818 90.2049 618.818 Q94.2095 618.818 96.5474 616.711 Q98.8854 614.605 98.8854 610.994 Q98.8854 607.382 96.5474 605.276 Q94.2095 603.17 90.2049 603.17 Q88.3299 603.17 86.4549 603.586 Q84.6031 604.003 82.6586 604.883 L82.6586 587.521 Z" fill="#000000" fill-rule="nonzero" fill-opacity="1" /><path clip-path="url(#clip930)" d="M123.353 602.938 Q120.205 602.938 118.353 605.091 Q116.524 607.244 116.524 610.994 Q116.524 614.72 118.353 616.896 Q120.205 619.049 123.353 619.049 Q126.501 619.049 128.33 616.896 Q130.182 614.72 130.182 610.994 Q130.182 607.244 128.33 605.091 Q126.501 602.938 123.353 602.938 M132.635 588.285 L132.635 592.545 Q130.876 591.711 129.07 591.271 Q127.288 590.832 125.529 590.832 Q120.899 590.832 118.445 593.957 Q116.015 597.082 115.668 603.401 Q117.033 601.387 119.094 600.322 Q121.154 599.234 123.631 599.234 Q128.839 599.234 131.848 602.406 Q134.881 605.554 134.881 610.994 Q134.881 616.318 131.732 619.535 Q128.584 622.753 123.353 622.753 Q117.358 622.753 114.186 618.169 Q111.015 613.563 111.015 604.836 Q111.015 596.642 114.904 591.781 Q118.793 586.896 125.344 586.896 Q127.103 586.896 128.885 587.244 Q130.691 587.591 132.635 588.285 Z" fill="#000000" fill-rule="nonzero" fill-opacity="1" /><path clip-path="url(#clip930)" d="M146.964 618.146 L163.283 618.146 L163.283 622.081 L141.339 622.081 L141.339 618.146 Q144.001 615.392 148.584 610.762 Q153.191 606.109 154.371 604.767 Q156.617 602.244 157.496 600.508 Q158.399 598.748 158.399 597.058 Q158.399 594.304 156.455 592.568 Q154.533 590.832 151.431 590.832 Q149.232 590.832 146.779 591.596 Q144.348 592.359 141.57 593.91 L141.57 589.188 Q144.394 588.054 146.848 587.475 Q149.302 586.896 151.339 586.896 Q156.709 586.896 159.904 589.582 Q163.098 592.267 163.098 596.758 Q163.098 598.887 162.288 600.808 Q161.501 602.707 159.394 605.299 Q158.816 605.97 155.714 609.188 Q152.612 612.382 146.964 618.146 Z" fill="#000000" fill-rule="nonzero" fill-opacity="1" /><path clip-path="url(#clip930)" d="M52.3116 322.761 L59.9504 322.761 L59.9504 296.396 L51.6403 298.062 L51.6403 293.803 L59.9041 292.136 L64.58 292.136 L64.58 322.761 L72.2189 322.761 L72.2189 326.696 L52.3116 326.696 L52.3116 322.761 Z" fill="#000000" fill-rule="nonzero" fill-opacity="1" /><path clip-path="url(#clip930)" d="M81.7096 292.136 L100.066 292.136 L100.066 296.072 L85.9919 296.072 L85.9919 304.544 Q87.0105 304.197 88.029 304.035 Q89.0475 303.849 90.066 303.849 Q95.853 303.849 99.2326 307.021 Q102.612 310.192 102.612 315.609 Q102.612 321.187 99.14 324.289 Q95.6678 327.368 89.3484 327.368 Q87.1725 327.368 84.904 326.997 Q82.6586 326.627 80.2512 325.886 L80.2512 321.187 Q82.3346 322.322 84.5568 322.877 Q86.779 323.433 89.2558 323.433 Q93.2604 323.433 95.5984 321.326 Q97.9363 319.22 97.9363 315.609 Q97.9363 311.997 95.5984 309.891 Q93.2604 307.785 89.2558 307.785 Q87.3808 307.785 85.5058 308.201 Q83.654 308.618 81.7096 309.497 L81.7096 292.136 Z" fill="#000000" fill-rule="nonzero" fill-opacity="1" /><path clip-path="url(#clip930)" d="M122.404 307.553 Q119.256 307.553 117.404 309.706 Q115.575 311.859 115.575 315.609 Q115.575 319.335 117.404 321.511 Q119.256 323.664 122.404 323.664 Q125.552 323.664 127.381 321.511 Q129.232 319.335 129.232 315.609 Q129.232 311.859 127.381 309.706 Q125.552 307.553 122.404 307.553 M131.686 292.9 L131.686 297.16 Q129.927 296.326 128.121 295.886 Q126.339 295.447 124.58 295.447 Q119.95 295.447 117.496 298.572 Q115.066 301.697 114.719 308.016 Q116.084 306.002 118.145 304.937 Q120.205 303.849 122.682 303.849 Q127.89 303.849 130.899 307.021 Q133.931 310.169 133.931 315.609 Q133.931 320.933 130.783 324.15 Q127.635 327.368 122.404 327.368 Q116.408 327.368 113.237 322.784 Q110.066 318.178 110.066 309.451 Q110.066 301.257 113.955 296.396 Q117.844 291.511 124.395 291.511 Q126.154 291.511 127.936 291.859 Q129.742 292.206 131.686 292.9 Z" fill="#000000" fill-rule="nonzero" fill-opacity="1" /><path clip-path="url(#clip930)" d="M156.154 308.062 Q159.51 308.78 161.385 311.048 Q163.283 313.317 163.283 316.65 Q163.283 321.766 159.765 324.567 Q156.246 327.368 149.765 327.368 Q147.589 327.368 145.274 326.928 Q142.982 326.511 140.529 325.655 L140.529 321.141 Q142.473 322.275 144.788 322.854 Q147.103 323.433 149.626 323.433 Q154.024 323.433 156.316 321.697 Q158.63 319.96 158.63 316.65 Q158.63 313.595 156.478 311.882 Q154.348 310.146 150.529 310.146 L146.501 310.146 L146.501 306.303 L150.714 306.303 Q154.163 306.303 155.992 304.937 Q157.82 303.548 157.82 300.956 Q157.82 298.294 155.922 296.882 Q154.047 295.447 150.529 295.447 Q148.607 295.447 146.408 295.863 Q144.209 296.28 141.57 297.16 L141.57 292.993 Q144.232 292.252 146.547 291.882 Q148.885 291.511 150.945 291.511 Q156.269 291.511 159.371 293.942 Q162.473 296.349 162.473 300.47 Q162.473 303.34 160.83 305.331 Q159.186 307.298 156.154 308.062 Z" fill="#000000" fill-rule="nonzero" fill-opacity="1" /><polyline clip-path="url(#clip932)" style="stroke:#009af9; stroke-linecap:round; stroke-linejoin:round; stroke-width:4; stroke-opacity:1; fill:none" points="260.231,87.9763 344.88,1445.72 429.529,1445.7 514.178,1445.7 598.827,1445.7 683.476,1445.7 768.125,1445.7 852.774,1445.7 937.423,1445.7 1022.07,1445.7 1106.72,1445.7 1191.37,1445.7 1276.02,1445.7 1360.67,1445.7 1445.32,1445.7 1529.97,1445.7 1614.62,1445.7 1699.26,1445.7 1783.91,1445.7 1868.56,1445.7 1953.21,1445.7 2037.86,1445.7 2122.51,1445.7 2207.16,1445.7 2291.81,1445.7 "/>
<path clip-path="url(#clip930)" d="M1292 198.898 L2280.97 198.898 L2280.97 95.2176 L1292 95.2176  Z" fill="#ffffff" fill-rule="evenodd" fill-opacity="1"/>
<polyline clip-path="url(#clip930)" style="stroke:#000000; stroke-linecap:round; stroke-linejoin:round; stroke-width:4; stroke-opacity:1; fill:none" points="1292,198.898 2280.97,198.898 2280.97,95.2176 1292,95.2176 1292,198.898 "/>
<polyline clip-path="url(#clip930)" style="stroke:#009af9; stroke-linecap:round; stroke-linejoin:round; stroke-width:4; stroke-opacity:1; fill:none" points="1315.92,147.058 1459.49,147.058 "/>
<path clip-path="url(#clip930)" d="M1488.09 147.833 L1488.09 160.495 L1495.59 160.495 Q1499.36 160.495 1501.17 158.944 Q1503 157.37 1503 154.152 Q1503 150.912 1501.17 149.384 Q1499.36 147.833 1495.59 147.833 L1488.09 147.833 M1488.09 133.62 L1488.09 144.037 L1495.01 144.037 Q1498.44 144.037 1500.11 142.764 Q1501.8 141.467 1501.8 138.828 Q1501.8 136.213 1500.11 134.916 Q1498.44 133.62 1495.01 133.62 L1488.09 133.62 M1483.42 129.778 L1495.36 129.778 Q1500.71 129.778 1503.6 132 Q1506.49 134.222 1506.49 138.319 Q1506.49 141.49 1505.01 143.365 Q1503.53 145.24 1500.66 145.703 Q1504.11 146.444 1506.01 148.805 Q1507.93 151.143 1507.93 154.662 Q1507.93 159.291 1504.78 161.814 Q1501.63 164.338 1495.82 164.338 L1483.42 164.338 L1483.42 129.778 Z" fill="#000000" fill-rule="nonzero" fill-opacity="1" /><path clip-path="url(#clip930)" d="M1537.93 150.31 L1537.93 152.393 L1518.35 152.393 Q1518.62 156.791 1520.99 159.106 Q1523.37 161.398 1527.61 161.398 Q1530.06 161.398 1532.35 160.796 Q1534.67 160.194 1536.93 158.99 L1536.93 163.018 Q1534.64 163.99 1532.24 164.5 Q1529.83 165.009 1527.35 165.009 Q1521.15 165.009 1517.51 161.398 Q1513.9 157.787 1513.9 151.629 Q1513.9 145.264 1517.33 141.537 Q1520.78 137.787 1526.61 137.787 Q1531.84 137.787 1534.87 141.166 Q1537.93 144.523 1537.93 150.31 M1533.67 149.06 Q1533.62 145.565 1531.7 143.481 Q1529.8 141.398 1526.66 141.398 Q1523.09 141.398 1520.94 143.412 Q1518.81 145.426 1518.49 149.083 L1533.67 149.06 Z" fill="#000000" fill-rule="nonzero" fill-opacity="1" /><path clip-path="url(#clip930)" d="M1549.13 131.051 L1549.13 138.412 L1557.91 138.412 L1557.91 141.722 L1549.13 141.722 L1549.13 155.796 Q1549.13 158.967 1549.99 159.87 Q1550.87 160.773 1553.53 160.773 L1557.91 160.773 L1557.91 164.338 L1553.53 164.338 Q1548.6 164.338 1546.73 162.509 Q1544.85 160.657 1544.85 155.796 L1544.85 141.722 L1541.73 141.722 L1541.73 138.412 L1544.85 138.412 L1544.85 131.051 L1549.13 131.051 Z" fill="#000000" fill-rule="nonzero" fill-opacity="1" /><path clip-path="url(#clip930)" d="M1585.06 148.689 L1585.06 164.338 L1580.8 164.338 L1580.8 148.828 Q1580.8 145.148 1579.36 143.319 Q1577.93 141.49 1575.06 141.49 Q1571.61 141.49 1569.62 143.69 Q1567.63 145.889 1567.63 149.685 L1567.63 164.338 L1563.35 164.338 L1563.35 128.319 L1567.63 128.319 L1567.63 142.44 Q1569.16 140.102 1571.22 138.944 Q1573.3 137.787 1576.01 137.787 Q1580.48 137.787 1582.77 140.565 Q1585.06 143.319 1585.06 148.689 Z" fill="#000000" fill-rule="nonzero" fill-opacity="1" /><path clip-path="url(#clip930)" d="M1615.73 150.31 L1615.73 152.393 L1596.15 152.393 Q1596.42 156.791 1598.79 159.106 Q1601.17 161.398 1605.41 161.398 Q1607.86 161.398 1610.15 160.796 Q1612.47 160.194 1614.73 158.99 L1614.73 163.018 Q1612.44 163.99 1610.04 164.5 Q1607.63 165.009 1605.15 165.009 Q1598.95 165.009 1595.31 161.398 Q1591.7 157.787 1591.7 151.629 Q1591.7 145.264 1595.13 141.537 Q1598.58 137.787 1604.41 137.787 Q1609.64 137.787 1612.67 141.166 Q1615.73 144.523 1615.73 150.31 M1611.47 149.06 Q1611.42 145.565 1609.5 143.481 Q1607.61 141.398 1604.46 141.398 Q1600.89 141.398 1598.74 143.412 Q1596.61 145.426 1596.29 149.083 L1611.47 149.06 Z" fill="#000000" fill-rule="nonzero" fill-opacity="1" /><path clip-path="url(#clip930)" d="M1637.98 129.778 L1657.84 129.778 L1657.84 133.713 L1642.65 133.713 L1642.65 143.898 L1656.35 143.898 L1656.35 147.833 L1642.65 147.833 L1642.65 164.338 L1637.98 164.338 L1637.98 129.778 Z" fill="#000000" fill-rule="nonzero" fill-opacity="1" /><path clip-path="url(#clip930)" d="M1676.63 142.393 Q1675.91 141.977 1675.06 141.791 Q1674.23 141.583 1673.21 141.583 Q1669.6 141.583 1667.65 143.944 Q1665.73 146.282 1665.73 150.68 L1665.73 164.338 L1661.45 164.338 L1661.45 138.412 L1665.73 138.412 L1665.73 142.44 Q1667.07 140.078 1669.23 138.944 Q1671.38 137.787 1674.46 137.787 Q1674.9 137.787 1675.43 137.856 Q1675.96 137.903 1676.61 138.018 L1676.63 142.393 Z" fill="#000000" fill-rule="nonzero" fill-opacity="1" /><path clip-path="url(#clip930)" d="M1702.23 150.31 L1702.23 152.393 L1682.65 152.393 Q1682.93 156.791 1685.29 159.106 Q1687.67 161.398 1691.91 161.398 Q1694.36 161.398 1696.66 160.796 Q1698.97 160.194 1701.24 158.99 L1701.24 163.018 Q1698.95 163.99 1696.54 164.5 Q1694.13 165.009 1691.66 165.009 Q1685.45 165.009 1681.82 161.398 Q1678.21 157.787 1678.21 151.629 Q1678.21 145.264 1681.63 141.537 Q1685.08 137.787 1690.91 137.787 Q1696.15 137.787 1699.18 141.166 Q1702.23 144.523 1702.23 150.31 M1697.97 149.06 Q1697.93 145.565 1696.01 143.481 Q1694.11 141.398 1690.96 141.398 Q1687.4 141.398 1685.24 143.412 Q1683.11 145.426 1682.79 149.083 L1697.97 149.06 Z" fill="#000000" fill-rule="nonzero" fill-opacity="1" /><path clip-path="url(#clip930)" d="M1731.4 150.31 L1731.4 152.393 L1711.82 152.393 Q1712.1 156.791 1714.46 159.106 Q1716.84 161.398 1721.08 161.398 Q1723.53 161.398 1725.82 160.796 Q1728.14 160.194 1730.41 158.99 L1730.41 163.018 Q1728.11 163.99 1725.71 164.5 Q1723.3 165.009 1720.82 165.009 Q1714.62 165.009 1710.98 161.398 Q1707.37 157.787 1707.37 151.629 Q1707.37 145.264 1710.8 141.537 Q1714.25 137.787 1720.08 137.787 Q1725.31 137.787 1728.35 141.166 Q1731.4 144.523 1731.4 150.31 M1727.14 149.06 Q1727.1 145.565 1725.17 143.481 Q1723.28 141.398 1720.13 141.398 Q1716.56 141.398 1714.41 143.412 Q1712.28 145.426 1711.96 149.083 L1727.14 149.06 Z" fill="#000000" fill-rule="nonzero" fill-opacity="1" /><path clip-path="url(#clip930)" d="M1753.65 129.778 L1775.5 129.778 L1775.5 133.713 L1758.32 133.713 L1758.32 143.944 L1774.78 143.944 L1774.78 147.879 L1758.32 147.879 L1758.32 160.402 L1775.91 160.402 L1775.91 164.338 L1753.65 164.338 L1753.65 129.778 Z" fill="#000000" fill-rule="nonzero" fill-opacity="1" /><path clip-path="url(#clip930)" d="M1804.97 148.689 L1804.97 164.338 L1800.71 164.338 L1800.71 148.828 Q1800.71 145.148 1799.27 143.319 Q1797.84 141.49 1794.97 141.49 Q1791.52 141.49 1789.53 143.69 Q1787.53 145.889 1787.53 149.685 L1787.53 164.338 L1783.25 164.338 L1783.25 138.412 L1787.53 138.412 L1787.53 142.44 Q1789.06 140.102 1791.12 138.944 Q1793.21 137.787 1795.91 137.787 Q1800.38 137.787 1802.67 140.565 Q1804.97 143.319 1804.97 148.689 Z" fill="#000000" fill-rule="nonzero" fill-opacity="1" /><path clip-path="url(#clip930)" d="M1835.64 150.31 L1835.64 152.393 L1816.05 152.393 Q1816.33 156.791 1818.69 159.106 Q1821.08 161.398 1825.31 161.398 Q1827.77 161.398 1830.06 160.796 Q1832.37 160.194 1834.64 158.99 L1834.64 163.018 Q1832.35 163.99 1829.94 164.5 Q1827.53 165.009 1825.06 165.009 Q1818.85 165.009 1815.22 161.398 Q1811.61 157.787 1811.61 151.629 Q1811.61 145.264 1815.03 141.537 Q1818.48 137.787 1824.32 137.787 Q1829.55 137.787 1832.58 141.166 Q1835.64 144.523 1835.64 150.31 M1831.38 149.06 Q1831.33 145.565 1829.41 143.481 Q1827.51 141.398 1824.36 141.398 Q1820.8 141.398 1818.65 143.412 Q1816.52 145.426 1816.19 149.083 L1831.38 149.06 Z" fill="#000000" fill-rule="nonzero" fill-opacity="1" /><path clip-path="url(#clip930)" d="M1857.65 142.393 Q1856.93 141.977 1856.08 141.791 Q1855.24 141.583 1854.22 141.583 Q1850.61 141.583 1848.67 143.944 Q1846.75 146.282 1846.75 150.68 L1846.75 164.338 L1842.46 164.338 L1842.46 138.412 L1846.75 138.412 L1846.75 142.44 Q1848.09 140.078 1850.24 138.944 Q1852.4 137.787 1855.47 137.787 Q1855.91 137.787 1856.45 137.856 Q1856.98 137.903 1857.63 138.018 L1857.65 142.393 Z" fill="#000000" fill-rule="nonzero" fill-opacity="1" /><path clip-path="url(#clip930)" d="M1878.34 151.074 Q1878.34 146.444 1876.42 143.898 Q1874.52 141.352 1871.08 141.352 Q1867.65 141.352 1865.73 143.898 Q1863.83 146.444 1863.83 151.074 Q1863.83 155.68 1865.73 158.226 Q1867.65 160.773 1871.08 160.773 Q1874.52 160.773 1876.42 158.226 Q1878.34 155.68 1878.34 151.074 M1882.6 161.12 Q1882.6 167.74 1879.66 170.958 Q1876.72 174.199 1870.66 174.199 Q1868.41 174.199 1866.42 173.851 Q1864.43 173.527 1862.56 172.833 L1862.56 168.689 Q1864.43 169.708 1866.26 170.194 Q1868.09 170.68 1869.99 170.68 Q1874.18 170.68 1876.26 168.481 Q1878.34 166.305 1878.34 161.884 L1878.34 159.777 Q1877.02 162.069 1874.96 163.203 Q1872.9 164.338 1870.03 164.338 Q1865.27 164.338 1862.35 160.703 Q1859.43 157.069 1859.43 151.074 Q1859.43 145.055 1862.35 141.421 Q1865.27 137.787 1870.03 137.787 Q1872.9 137.787 1874.96 138.921 Q1877.02 140.055 1878.34 142.347 L1878.34 138.412 L1882.6 138.412 L1882.6 161.12 Z" fill="#000000" fill-rule="nonzero" fill-opacity="1" /><path clip-path="url(#clip930)" d="M1902.16 166.745 Q1900.36 171.375 1898.65 172.787 Q1896.93 174.199 1894.06 174.199 L1890.66 174.199 L1890.66 170.634 L1893.16 170.634 Q1894.92 170.634 1895.89 169.8 Q1896.86 168.967 1898.04 165.865 L1898.81 163.921 L1888.32 138.412 L1892.83 138.412 L1900.94 158.689 L1909.04 138.412 L1913.55 138.412 L1902.16 166.745 Z" fill="#000000" fill-rule="nonzero" fill-opacity="1" /><path clip-path="url(#clip930)" d="M1944.73 128.366 Q1941.63 133.69 1940.13 138.898 Q1938.62 144.106 1938.62 149.453 Q1938.62 154.801 1940.13 160.055 Q1941.65 165.287 1944.73 170.588 L1941.03 170.588 Q1937.56 165.148 1935.82 159.893 Q1934.11 154.639 1934.11 149.453 Q1934.11 144.291 1935.82 139.06 Q1937.53 133.828 1941.03 128.366 L1944.73 128.366 Z" fill="#000000" fill-rule="nonzero" fill-opacity="1" /><path clip-path="url(#clip930)" d="M1957.12 160.449 L1957.12 174.199 L1952.83 174.199 L1952.83 138.412 L1957.12 138.412 L1957.12 142.347 Q1958.46 140.032 1960.5 138.921 Q1962.56 137.787 1965.4 137.787 Q1970.13 137.787 1973.07 141.537 Q1976.03 145.287 1976.03 151.398 Q1976.03 157.509 1973.07 161.259 Q1970.13 165.009 1965.4 165.009 Q1962.56 165.009 1960.5 163.898 Q1958.46 162.763 1957.12 160.449 M1971.61 151.398 Q1971.61 146.699 1969.66 144.037 Q1967.74 141.352 1964.36 141.352 Q1960.98 141.352 1959.04 144.037 Q1957.12 146.699 1957.12 151.398 Q1957.12 156.097 1959.04 158.782 Q1960.98 161.444 1964.36 161.444 Q1967.74 161.444 1969.66 158.782 Q1971.61 156.097 1971.61 151.398 Z" fill="#000000" fill-rule="nonzero" fill-opacity="1" /><path clip-path="url(#clip930)" d="M2005.26 150.31 L2005.26 152.393 L1985.68 152.393 Q1985.96 156.791 1988.32 159.106 Q1990.7 161.398 1994.94 161.398 Q1997.39 161.398 1999.69 160.796 Q2002 160.194 2004.27 158.99 L2004.27 163.018 Q2001.98 163.99 1999.57 164.5 Q1997.16 165.009 1994.69 165.009 Q1988.48 165.009 1984.85 161.398 Q1981.24 157.787 1981.24 151.629 Q1981.24 145.264 1984.66 141.537 Q1988.11 137.787 1993.95 137.787 Q1999.18 137.787 2002.21 141.166 Q2005.26 144.523 2005.26 150.31 M2001.01 149.06 Q2000.96 145.565 1999.04 143.481 Q1997.14 141.398 1993.99 141.398 Q1990.43 141.398 1988.27 143.412 Q1986.14 145.426 1985.82 149.083 L2001.01 149.06 Z" fill="#000000" fill-rule="nonzero" fill-opacity="1" /><path clip-path="url(#clip930)" d="M2027.28 142.393 Q2026.56 141.977 2025.7 141.791 Q2024.87 141.583 2023.85 141.583 Q2020.24 141.583 2018.3 143.944 Q2016.38 146.282 2016.38 150.68 L2016.38 164.338 L2012.09 164.338 L2012.09 138.412 L2016.38 138.412 L2016.38 142.44 Q2017.72 140.078 2019.87 138.944 Q2022.02 137.787 2025.1 137.787 Q2025.54 137.787 2026.08 137.856 Q2026.61 137.903 2027.26 138.018 L2027.28 142.393 Z" fill="#000000" fill-rule="nonzero" fill-opacity="1" /><path clip-path="url(#clip930)" d="M2046.82 138.412 L2051.07 138.412 L2051.07 164.338 L2046.82 164.338 L2046.82 138.412 M2046.82 128.319 L2051.07 128.319 L2051.07 133.713 L2046.82 133.713 L2046.82 128.319 Z" fill="#000000" fill-rule="nonzero" fill-opacity="1" /><path clip-path="url(#clip930)" d="M2064.2 131.051 L2064.2 138.412 L2072.97 138.412 L2072.97 141.722 L2064.2 141.722 L2064.2 155.796 Q2064.2 158.967 2065.06 159.87 Q2065.94 160.773 2068.6 160.773 L2072.97 160.773 L2072.97 164.338 L2068.6 164.338 Q2063.67 164.338 2061.79 162.509 Q2059.92 160.657 2059.92 155.796 L2059.92 141.722 L2056.79 141.722 L2056.79 138.412 L2059.92 138.412 L2059.92 131.051 L2064.2 131.051 Z" fill="#000000" fill-rule="nonzero" fill-opacity="1" /><path clip-path="url(#clip930)" d="M2100.75 150.31 L2100.75 152.393 L2081.17 152.393 Q2081.45 156.791 2083.81 159.106 Q2086.19 161.398 2090.43 161.398 Q2092.88 161.398 2095.17 160.796 Q2097.49 160.194 2099.76 158.99 L2099.76 163.018 Q2097.46 163.99 2095.06 164.5 Q2092.65 165.009 2090.17 165.009 Q2083.97 165.009 2080.33 161.398 Q2076.72 157.787 2076.72 151.629 Q2076.72 145.264 2080.15 141.537 Q2083.6 137.787 2089.43 137.787 Q2094.66 137.787 2097.7 141.166 Q2100.75 144.523 2100.75 150.31 M2096.49 149.06 Q2096.45 145.565 2094.52 143.481 Q2092.63 141.398 2089.48 141.398 Q2085.91 141.398 2083.76 143.412 Q2081.63 145.426 2081.31 149.083 L2096.49 149.06 Z" fill="#000000" fill-rule="nonzero" fill-opacity="1" /><path clip-path="url(#clip930)" d="M2122.76 142.393 Q2122.05 141.977 2121.19 141.791 Q2120.36 141.583 2119.34 141.583 Q2115.73 141.583 2113.78 143.944 Q2111.86 146.282 2111.86 150.68 L2111.86 164.338 L2107.58 164.338 L2107.58 138.412 L2111.86 138.412 L2111.86 142.44 Q2113.2 140.078 2115.36 138.944 Q2117.51 137.787 2120.59 137.787 Q2121.03 137.787 2121.56 137.856 Q2122.09 137.903 2122.74 138.018 L2122.76 142.393 Z" fill="#000000" fill-rule="nonzero" fill-opacity="1" /><path clip-path="url(#clip930)" d="M2139.01 151.305 Q2133.85 151.305 2131.86 152.486 Q2129.87 153.666 2129.87 156.514 Q2129.87 158.782 2131.35 160.125 Q2132.86 161.444 2135.43 161.444 Q2138.97 161.444 2141.1 158.944 Q2143.25 156.421 2143.25 152.254 L2143.25 151.305 L2139.01 151.305 M2147.51 149.546 L2147.51 164.338 L2143.25 164.338 L2143.25 160.402 Q2141.79 162.763 2139.62 163.898 Q2137.44 165.009 2134.29 165.009 Q2130.31 165.009 2127.95 162.787 Q2125.61 160.541 2125.61 156.791 Q2125.61 152.416 2128.53 150.194 Q2131.47 147.972 2137.28 147.972 L2143.25 147.972 L2143.25 147.555 Q2143.25 144.615 2141.31 143.018 Q2139.38 141.398 2135.89 141.398 Q2133.67 141.398 2131.56 141.93 Q2129.45 142.463 2127.51 143.527 L2127.51 139.592 Q2129.85 138.69 2132.05 138.25 Q2134.25 137.787 2136.33 137.787 Q2141.95 137.787 2144.73 140.703 Q2147.51 143.62 2147.51 149.546 Z" fill="#000000" fill-rule="nonzero" fill-opacity="1" /><path clip-path="url(#clip930)" d="M2160.5 131.051 L2160.5 138.412 L2169.27 138.412 L2169.27 141.722 L2160.5 141.722 L2160.5 155.796 Q2160.5 158.967 2161.35 159.87 Q2162.23 160.773 2164.89 160.773 L2169.27 160.773 L2169.27 164.338 L2164.89 164.338 Q2159.96 164.338 2158.09 162.509 Q2156.21 160.657 2156.21 155.796 L2156.21 141.722 L2153.09 141.722 L2153.09 138.412 L2156.21 138.412 L2156.21 131.051 L2160.5 131.051 Z" fill="#000000" fill-rule="nonzero" fill-opacity="1" /><path clip-path="url(#clip930)" d="M2174.87 138.412 L2179.13 138.412 L2179.13 164.338 L2174.87 164.338 L2174.87 138.412 M2174.87 128.319 L2179.13 128.319 L2179.13 133.713 L2174.87 133.713 L2174.87 128.319 Z" fill="#000000" fill-rule="nonzero" fill-opacity="1" /><path clip-path="url(#clip930)" d="M2198.09 141.398 Q2194.66 141.398 2192.67 144.083 Q2190.68 146.745 2190.68 151.398 Q2190.68 156.051 2192.65 158.736 Q2194.64 161.398 2198.09 161.398 Q2201.49 161.398 2203.48 158.713 Q2205.47 156.027 2205.47 151.398 Q2205.47 146.791 2203.48 144.106 Q2201.49 141.398 2198.09 141.398 M2198.09 137.787 Q2203.64 137.787 2206.81 141.398 Q2209.99 145.009 2209.99 151.398 Q2209.99 157.764 2206.81 161.398 Q2203.64 165.009 2198.09 165.009 Q2192.51 165.009 2189.34 161.398 Q2186.19 157.764 2186.19 151.398 Q2186.19 145.009 2189.34 141.398 Q2192.51 137.787 2198.09 137.787 Z" fill="#000000" fill-rule="nonzero" fill-opacity="1" /><path clip-path="url(#clip930)" d="M2238.6 148.689 L2238.6 164.338 L2234.34 164.338 L2234.34 148.828 Q2234.34 145.148 2232.9 143.319 Q2231.47 141.49 2228.6 141.49 Q2225.15 141.49 2223.16 143.69 Q2221.17 145.889 2221.17 149.685 L2221.17 164.338 L2216.88 164.338 L2216.88 138.412 L2221.17 138.412 L2221.17 142.44 Q2222.69 140.102 2224.75 138.944 Q2226.84 137.787 2229.55 137.787 Q2234.01 137.787 2236.31 140.565 Q2238.6 143.319 2238.6 148.689 Z" fill="#000000" fill-rule="nonzero" fill-opacity="1" /><path clip-path="url(#clip930)" d="M2246.42 128.366 L2250.12 128.366 Q2253.6 133.828 2255.31 139.06 Q2257.05 144.291 2257.05 149.453 Q2257.05 154.639 2255.31 159.893 Q2253.6 165.148 2250.12 170.588 L2246.42 170.588 Q2249.5 165.287 2251 160.055 Q2252.53 154.801 2252.53 149.453 Q2252.53 144.106 2251 138.898 Q2249.5 133.69 2246.42 128.366 Z" fill="#000000" fill-rule="nonzero" fill-opacity="1" /></svg>
