<?xml version="1.0" encoding="UTF-8"?>
<svg xmlns="http://www.w3.org/2000/svg"
     xmlns:xlink="http://www.w3.org/1999/xlink"
     version="1.2"
     width="141.42mm" height="100mm" viewBox="0 0 141.42 100"
     stroke="none"
     fill="#000000"
     stroke-width="0.3"
     font-size="3.88"
>
<defs>
  <marker id="arrow" markerWidth="15" markerHeight="7" refX="5" refY="3.5" orient="auto" markerUnits="strokeWidth">
    <path d="M0,0 L15,3.5 L0,7 z" stroke="context-stroke" fill="context-stroke"/>
  </marker>
</defs>
<g stroke-width="0.6" fill="#000000" fill-opacity="0.000" stroke="#D3D3D3" id="img-7b724f0f-1">
  <g transform="translate(90.19,72.3)">
    <path fill="none" d="M-5.18,-6.15 L5.18,6.15 " class="primitive"/>
  </g>
  <g transform="translate(83.61,57.22)">
    <path fill="none" d="M-0.08,5.06 L0.08,-5.06 " class="primitive"/>
  </g>
  <g transform="translate(75.11,58.16)">
    <path fill="none" d="M6.35,4.7 L-6.35,-4.7 " class="primitive"/>
  </g>
  <g transform="translate(98.15,85.95)">
    <path fill="none" d="M0.81,3.66 L-0.81,-3.66 " class="primitive"/>
  </g>
  <g transform="translate(103.32,83.85)">
    <path fill="none" d="M4.13,2.32 L-4.13,-2.32 " class="primitive"/>
  </g>
  <g transform="translate(83.53,44.14)">
    <path fill="none" d="M-0.12,-3.86 L0.12,3.86 " class="primitive"/>
  </g>
  <g transform="translate(79.17,46.03)">
    <path fill="none" d="M-2.72,-2.42 L2.72,2.42 " class="primitive"/>
  </g>
  <g transform="translate(82.07,16.58)">
    <path fill="none" d="M7.59,-1.14 L-7.59,1.14 " class="primitive"/>
  </g>
  <g transform="translate(103.04,15.99)">
    <path fill="none" d="M-7.57,-0.71 L7.57,0.71 " class="primitive"/>
  </g>
  <g transform="translate(95.16,18.53)">
    <path fill="none" d="M-1.25,-1.68 L1.25,1.68 " class="primitive"/>
  </g>
  <g transform="translate(65.57,42.87)">
    <path fill="none" d="M-0.89,-7.01 L0.89,7.01 " class="primitive"/>
  </g>
  <g transform="translate(68.01,25.97)">
    <path fill="none" d="M-2.68,5.84 L2.68,-5.84 " class="primitive"/>
  </g>
  <g transform="translate(63.42,56.79)">
    <path fill="none" d="M-2.02,2.96 L2.02,-2.96 " class="primitive"/>
  </g>
  <g transform="translate(66.69,13.24)">
    <path fill="none" d="M-3.21,-3.21 L3.21,3.21 " class="primitive"/>
  </g>
  <g transform="translate(112.06,22.2)">
    <path fill="none" d="M-0.9,3.19 L0.9,-3.19 " class="primitive"/>
  </g>
  <g transform="translate(121.58,16.44)">
    <path fill="none" d="M5.12,-0.34 L-5.12,0.34 " class="primitive"/>
  </g>
  <g transform="translate(61.06,58.36)">
    <path fill="none" d="M-10.2,3.71 L10.2,-3.71 " class="primitive"/>
  </g>
  <g transform="translate(37.46,66.95)">
    <path fill="none" d="M8.15,-2.96 L-8.15,2.96 " class="primitive"/>
  </g>
  <g transform="translate(93.94,30.04)">
    <path fill="none" d="M-2.88,6.01 L2.88,-6.01 " class="primitive"/>
  </g>
  <g transform="translate(81.99,45.86)">
    <path fill="none" d="M6.38,-6.16 L-6.38,6.16 " class="primitive"/>
  </g>
  <g transform="translate(101.97,15.96)">
    <path fill="none" d="M2.91,-4.22 L-2.91,4.22 " class="primitive"/>
  </g>
  <g transform="translate(81.7,56.08)">
    <path fill="none" d="M5.12,1.56 L-5.12,-1.56 " class="primitive"/>
  </g>
  <g transform="translate(19.24,70.74)">
    <path fill="none" d="M-4.51,-0.07 L4.51,0.07 " class="primitive"/>
  </g>
  <g transform="translate(21.28,75.17)">
    <path fill="none" d="M-3.46,2.75 L3.46,-2.75 " class="primitive"/>
  </g>
</g>
<g stroke-width="0.6" stroke="#D3D3D3" id="img-7b724f0f-2">
</g>
<g font-size="4" stroke="#000000" stroke-opacity="0.000" fill="#000000" id="img-7b724f0f-3">
</g>
<g stroke-width="0" stroke="#000000" stroke-opacity="0.000" fill="#40E0D0" id="img-7b724f0f-4">
  <g transform="translate(83.49,64.36)">
    <circle cx="0" cy="0" r="2.83" class="primitive"/>
  </g>
  <g transform="translate(99.43,91.67)">
    <circle cx="0" cy="0" r="2.83" class="primitive"/>
  </g>
  <g transform="translate(109.76,87.47)">
    <circle cx="0" cy="0" r="2.83" class="primitive"/>
  </g>
  <g transform="translate(96.88,80.24)">
    <circle cx="0" cy="0" r="2.83" class="primitive"/>
  </g>
  <g transform="translate(83.35,38.2)">
    <circle cx="0" cy="0" r="2.83" class="primitive"/>
  </g>
  <g transform="translate(74.63,41.97)">
    <circle cx="0" cy="0" r="2.83" class="primitive"/>
  </g>
  <g transform="translate(83.72,50.08)">
    <circle cx="0" cy="0" r="2.83" class="primitive"/>
  </g>
  <g transform="translate(92.55,15)">
    <circle cx="0" cy="0" r="2.83" class="primitive"/>
  </g>
  <g transform="translate(64.42,33.79)">
    <circle cx="0" cy="0" r="2.83" class="primitive"/>
  </g>
  <g transform="translate(60.11,61.63)">
    <circle cx="0" cy="0" r="2.83" class="primitive"/>
  </g>
  <g transform="translate(66.72,51.96)">
    <circle cx="0" cy="0" r="2.83" class="primitive"/>
  </g>
  <g transform="translate(61.78,8.33)">
    <circle cx="0" cy="0" r="2.83" class="primitive"/>
  </g>
  <g transform="translate(71.6,18.15)">
    <circle cx="0" cy="0" r="2.83" class="primitive"/>
  </g>
  <g transform="translate(110.59,27.44)">
    <circle cx="0" cy="0" r="2.83" class="primitive"/>
  </g>
  <g transform="translate(129.64,15.91)">
    <circle cx="0" cy="0" r="2.83" class="primitive"/>
  </g>
  <g transform="translate(113.53,16.97)">
    <circle cx="0" cy="0" r="2.83" class="primitive"/>
  </g>
  <g transform="translate(48.24,63.03)">
    <circle cx="0" cy="0" r="2.83" class="primitive"/>
  </g>
  <g transform="translate(90.12,38.02)">
    <circle cx="0" cy="0" r="2.83" class="primitive"/>
  </g>
  <g transform="translate(106.17,9.86)">
    <circle cx="0" cy="0" r="2.83" class="primitive"/>
  </g>
  <g transform="translate(97.77,22.06)">
    <circle cx="0" cy="0" r="2.83" class="primitive"/>
  </g>
  <g transform="translate(89.53,58.47)">
    <circle cx="0" cy="0" r="2.83" class="primitive"/>
  </g>
  <g transform="translate(73.87,53.69)">
    <circle cx="0" cy="0" r="2.83" class="primitive"/>
  </g>
  <g transform="translate(11.79,70.62)">
    <circle cx="0" cy="0" r="2.83" class="primitive"/>
  </g>
  <g transform="translate(15.87,79.48)">
    <circle cx="0" cy="0" r="2.83" class="primitive"/>
  </g>
  <g transform="translate(26.69,70.86)">
    <circle cx="0" cy="0" r="2.83" class="primitive"/>
  </g>
</g>
<g font-size="4" stroke="#000000" stroke-opacity="0.000" fill="#000000" id="img-7b724f0f-5">
  <g transform="translate(83.49,64.36)">
    <g class="primitive">
      <text text-anchor="middle" dy="0.35em">x</text>
    </g>
  </g>
  <g transform="translate(99.43,91.67)">
    <g class="primitive">
      <text text-anchor="middle" dy="0.35em">constvar_2</text>
    </g>
  </g>
  <g transform="translate(109.76,87.47)">
    <g class="primitive">
      <text text-anchor="middle" dy="0.35em">constvar_4</text>
    </g>
  </g>
  <g transform="translate(96.88,80.24)">
    <g class="primitive">
      <text text-anchor="middle" dy="0.35em">NormalMeanVariance</text>
    </g>
  </g>
  <g transform="translate(83.35,38.2)">
    <g class="primitive">
      <text text-anchor="middle" dy="0.35em">y</text>
    </g>
  </g>
  <g transform="translate(74.63,41.97)">
    <g class="primitive">
      <text text-anchor="middle" dy="0.35em">constvar_8</text>
    </g>
  </g>
  <g transform="translate(83.72,50.08)">
    <g class="primitive">
      <text text-anchor="middle" dy="0.35em">NormalMeanVariance</text>
    </g>
  </g>
  <g transform="translate(92.55,15)">
    <g class="primitive">
      <text text-anchor="middle" dy="0.35em">x</text>
    </g>
  </g>
  <g transform="translate(64.42,33.79)">
    <g class="primitive">
      <text text-anchor="middle" dy="0.35em">anonymous_var_graphppl</text>
    </g>
  </g>
  <g transform="translate(60.11,61.63)">
    <g class="primitive">
      <text text-anchor="middle" dy="0.35em">constvar_13</text>
    </g>
  </g>
  <g transform="translate(66.72,51.96)">
    <g class="primitive">
      <text text-anchor="middle" dy="0.35em">+</text>
    </g>
  </g>
  <g transform="translate(61.78,8.33)">
    <g class="primitive">
      <text text-anchor="middle" dy="0.35em">constvar_16</text>
    </g>
  </g>
  <g transform="translate(71.6,18.15)">
    <g class="primitive">
      <text text-anchor="middle" dy="0.35em">NormalMeanVariance</text>
    </g>
  </g>
  <g transform="translate(110.59,27.44)">
    <g class="primitive">
      <text text-anchor="middle" dy="0.35em">y</text>
    </g>
  </g>
  <g transform="translate(129.64,15.91)">
    <g class="primitive">
      <text text-anchor="middle" dy="0.35em">constvar_20</text>
    </g>
  </g>
  <g transform="translate(113.53,16.97)">
    <g class="primitive">
      <text text-anchor="middle" dy="0.35em">NormalMeanVariance</text>
    </g>
  </g>
  <g transform="translate(48.24,63.03)">
    <g class="primitive">
      <text text-anchor="middle" dy="0.35em">x</text>
    </g>
  </g>
  <g transform="translate(90.12,38.02)">
    <g class="primitive">
      <text text-anchor="middle" dy="0.35em">anonymous_var_graphppl</text>
    </g>
  </g>
  <g transform="translate(106.17,9.86)">
    <g class="primitive">
      <text text-anchor="middle" dy="0.35em">constvar_25</text>
    </g>
  </g>
  <g transform="translate(97.77,22.06)">
    <g class="primitive">
      <text text-anchor="middle" dy="0.35em">+</text>
    </g>
  </g>
  <g transform="translate(89.53,58.47)">
    <g class="primitive">
      <text text-anchor="middle" dy="0.35em">constvar_28</text>
    </g>
  </g>
  <g transform="translate(73.87,53.69)">
    <g class="primitive">
      <text text-anchor="middle" dy="0.35em">NormalMeanVariance</text>
    </g>
  </g>
  <g transform="translate(11.79,70.62)">
    <g class="primitive">
      <text text-anchor="middle" dy="0.35em">y</text>
    </g>
  </g>
  <g transform="translate(15.87,79.48)">
    <g class="primitive">
      <text text-anchor="middle" dy="0.35em">constvar_32</text>
    </g>
  </g>
  <g transform="translate(26.69,70.86)">
    <g class="primitive">
      <text text-anchor="middle" dy="0.35em">NormalMeanVariance</text>
    </g>
  </g>
</g>
</svg>
