<?xml version="1.0" encoding="utf-8"?>
<svg xmlns="http://www.w3.org/2000/svg" xmlns:xlink="http://www.w3.org/1999/xlink" width="600" height="400" viewBox="0 0 2400 1600">
<defs>
  <clipPath id="clip090">
    <rect x="0" y="0" width="2400" height="1600"/>
  </clipPath>
</defs>
<path clip-path="url(#clip090)" d="M0 1600 L2400 1600 L2400 0 L0 0  Z" fill="#ffffff" fill-rule="evenodd" fill-opacity="1"/>
<defs>
  <clipPath id="clip091">
    <rect x="480" y="0" width="1681" height="1600"/>
  </clipPath>
</defs>
<path clip-path="url(#clip090)" d="M138.959 1486.45 L2352.76 1486.45 L2352.76 47.2441 L138.959 47.2441  Z" fill="#ffffff" fill-rule="evenodd" fill-opacity="1"/>
<defs>
  <clipPath id="clip092">
    <rect x="138" y="47" width="2215" height="1440"/>
  </clipPath>
</defs>
<polyline clip-path="url(#clip092)" style="stroke:#000000; stroke-linecap:round; stroke-linejoin:round; stroke-width:2; stroke-opacity:0.1; fill:none" points="201.614,1486.45 201.614,47.2441 "/>
<polyline clip-path="url(#clip092)" style="stroke:#000000; stroke-linecap:round; stroke-linejoin:round; stroke-width:2; stroke-opacity:0.1; fill:none" points="723.736,1486.45 723.736,47.2441 "/>
<polyline clip-path="url(#clip092)" style="stroke:#000000; stroke-linecap:round; stroke-linejoin:round; stroke-width:2; stroke-opacity:0.1; fill:none" points="1245.86,1486.45 1245.86,47.2441 "/>
<polyline clip-path="url(#clip092)" style="stroke:#000000; stroke-linecap:round; stroke-linejoin:round; stroke-width:2; stroke-opacity:0.1; fill:none" points="1767.98,1486.45 1767.98,47.2441 "/>
<polyline clip-path="url(#clip092)" style="stroke:#000000; stroke-linecap:round; stroke-linejoin:round; stroke-width:2; stroke-opacity:0.1; fill:none" points="2290.1,1486.45 2290.1,47.2441 "/>
<polyline clip-path="url(#clip092)" style="stroke:#000000; stroke-linecap:round; stroke-linejoin:round; stroke-width:2; stroke-opacity:0.1; fill:none" points="138.959,1445.72 2352.76,1445.72 "/>
<polyline clip-path="url(#clip092)" style="stroke:#000000; stroke-linecap:round; stroke-linejoin:round; stroke-width:2; stroke-opacity:0.1; fill:none" points="138.959,1054.25 2352.76,1054.25 "/>
<polyline clip-path="url(#clip092)" style="stroke:#000000; stroke-linecap:round; stroke-linejoin:round; stroke-width:2; stroke-opacity:0.1; fill:none" points="138.959,662.777 2352.76,662.777 "/>
<polyline clip-path="url(#clip092)" style="stroke:#000000; stroke-linecap:round; stroke-linejoin:round; stroke-width:2; stroke-opacity:0.1; fill:none" points="138.959,271.307 2352.76,271.307 "/>
<polyline clip-path="url(#clip090)" style="stroke:#000000; stroke-linecap:round; stroke-linejoin:round; stroke-width:4; stroke-opacity:1; fill:none" points="138.959,1486.45 2352.76,1486.45 "/>
<polyline clip-path="url(#clip090)" style="stroke:#000000; stroke-linecap:round; stroke-linejoin:round; stroke-width:4; stroke-opacity:1; fill:none" points="201.614,1486.45 201.614,1467.55 "/>
<polyline clip-path="url(#clip090)" style="stroke:#000000; stroke-linecap:round; stroke-linejoin:round; stroke-width:4; stroke-opacity:1; fill:none" points="723.736,1486.45 723.736,1467.55 "/>
<polyline clip-path="url(#clip090)" style="stroke:#000000; stroke-linecap:round; stroke-linejoin:round; stroke-width:4; stroke-opacity:1; fill:none" points="1245.86,1486.45 1245.86,1467.55 "/>
<polyline clip-path="url(#clip090)" style="stroke:#000000; stroke-linecap:round; stroke-linejoin:round; stroke-width:4; stroke-opacity:1; fill:none" points="1767.98,1486.45 1767.98,1467.55 "/>
<polyline clip-path="url(#clip090)" style="stroke:#000000; stroke-linecap:round; stroke-linejoin:round; stroke-width:4; stroke-opacity:1; fill:none" points="2290.1,1486.45 2290.1,1467.55 "/>
<path clip-path="url(#clip090)" d="M163.917 1517.37 Q160.306 1517.37 158.478 1520.93 Q156.672 1524.47 156.672 1531.6 Q156.672 1538.71 158.478 1542.27 Q160.306 1545.82 163.917 1545.82 Q167.552 1545.82 169.357 1542.27 Q171.186 1538.71 171.186 1531.6 Q171.186 1524.47 169.357 1520.93 Q167.552 1517.37 163.917 1517.37 M163.917 1513.66 Q169.728 1513.66 172.783 1518.27 Q175.862 1522.85 175.862 1531.6 Q175.862 1540.33 172.783 1544.94 Q169.728 1549.52 163.917 1549.52 Q158.107 1549.52 155.029 1544.94 Q151.973 1540.33 151.973 1531.6 Q151.973 1522.85 155.029 1518.27 Q158.107 1513.66 163.917 1513.66 Z" fill="#000000" fill-rule="nonzero" fill-opacity="1" /><path clip-path="url(#clip090)" d="M184.079 1542.97 L188.964 1542.97 L188.964 1548.85 L184.079 1548.85 L184.079 1542.97 Z" fill="#000000" fill-rule="nonzero" fill-opacity="1" /><path clip-path="url(#clip090)" d="M209.149 1517.37 Q205.538 1517.37 203.709 1520.93 Q201.903 1524.47 201.903 1531.6 Q201.903 1538.71 203.709 1542.27 Q205.538 1545.82 209.149 1545.82 Q212.783 1545.82 214.589 1542.27 Q216.417 1538.71 216.417 1531.6 Q216.417 1524.47 214.589 1520.93 Q212.783 1517.37 209.149 1517.37 M209.149 1513.66 Q214.959 1513.66 218.014 1518.27 Q221.093 1522.85 221.093 1531.6 Q221.093 1540.33 218.014 1544.94 Q214.959 1549.52 209.149 1549.52 Q203.339 1549.52 200.26 1544.94 Q197.204 1540.33 197.204 1531.6 Q197.204 1522.85 200.26 1518.27 Q203.339 1513.66 209.149 1513.66 Z" fill="#000000" fill-rule="nonzero" fill-opacity="1" /><path clip-path="url(#clip090)" d="M239.311 1517.37 Q235.7 1517.37 233.871 1520.93 Q232.065 1524.47 232.065 1531.6 Q232.065 1538.71 233.871 1542.27 Q235.7 1545.82 239.311 1545.82 Q242.945 1545.82 244.75 1542.27 Q246.579 1538.71 246.579 1531.6 Q246.579 1524.47 244.75 1520.93 Q242.945 1517.37 239.311 1517.37 M239.311 1513.66 Q245.121 1513.66 248.176 1518.27 Q251.255 1522.85 251.255 1531.6 Q251.255 1540.33 248.176 1544.94 Q245.121 1549.52 239.311 1549.52 Q233.5 1549.52 230.422 1544.94 Q227.366 1540.33 227.366 1531.6 Q227.366 1522.85 230.422 1518.27 Q233.5 1513.66 239.311 1513.66 Z" fill="#000000" fill-rule="nonzero" fill-opacity="1" /><path clip-path="url(#clip090)" d="M686.537 1517.37 Q682.926 1517.37 681.097 1520.93 Q679.292 1524.47 679.292 1531.6 Q679.292 1538.71 681.097 1542.27 Q682.926 1545.82 686.537 1545.82 Q690.171 1545.82 691.977 1542.27 Q693.805 1538.71 693.805 1531.6 Q693.805 1524.47 691.977 1520.93 Q690.171 1517.37 686.537 1517.37 M686.537 1513.66 Q692.347 1513.66 695.403 1518.27 Q698.481 1522.85 698.481 1531.6 Q698.481 1540.33 695.403 1544.94 Q692.347 1549.52 686.537 1549.52 Q680.727 1549.52 677.648 1544.94 Q674.593 1540.33 674.593 1531.6 Q674.593 1522.85 677.648 1518.27 Q680.727 1513.66 686.537 1513.66 Z" fill="#000000" fill-rule="nonzero" fill-opacity="1" /><path clip-path="url(#clip090)" d="M706.699 1542.97 L711.583 1542.97 L711.583 1548.85 L706.699 1548.85 L706.699 1542.97 Z" fill="#000000" fill-rule="nonzero" fill-opacity="1" /><path clip-path="url(#clip090)" d="M725.796 1544.91 L742.115 1544.91 L742.115 1548.85 L720.171 1548.85 L720.171 1544.91 Q722.833 1542.16 727.416 1537.53 Q732.023 1532.88 733.203 1531.53 Q735.449 1529.01 736.328 1527.27 Q737.231 1525.51 737.231 1523.82 Q737.231 1521.07 735.287 1519.33 Q733.365 1517.6 730.264 1517.6 Q728.065 1517.6 725.611 1518.36 Q723.18 1519.13 720.403 1520.68 L720.403 1515.95 Q723.227 1514.82 725.68 1514.24 Q728.134 1513.66 730.171 1513.66 Q735.541 1513.66 738.736 1516.35 Q741.93 1519.03 741.93 1523.52 Q741.93 1525.65 741.12 1527.57 Q740.333 1529.47 738.227 1532.07 Q737.648 1532.74 734.546 1535.95 Q731.444 1539.15 725.796 1544.91 Z" fill="#000000" fill-rule="nonzero" fill-opacity="1" /><path clip-path="url(#clip090)" d="M751.976 1514.29 L770.333 1514.29 L770.333 1518.22 L756.259 1518.22 L756.259 1526.7 Q757.277 1526.35 758.296 1526.19 Q759.314 1526 760.333 1526 Q766.12 1526 769.5 1529.17 Q772.879 1532.34 772.879 1537.76 Q772.879 1543.34 769.407 1546.44 Q765.935 1549.52 759.615 1549.52 Q757.439 1549.52 755.171 1549.15 Q752.926 1548.78 750.518 1548.04 L750.518 1543.34 Q752.601 1544.47 754.824 1545.03 Q757.046 1545.58 759.523 1545.58 Q763.527 1545.58 765.865 1543.48 Q768.203 1541.37 768.203 1537.76 Q768.203 1534.15 765.865 1532.04 Q763.527 1529.94 759.523 1529.94 Q757.648 1529.94 755.773 1530.35 Q753.921 1530.77 751.976 1531.65 L751.976 1514.29 Z" fill="#000000" fill-rule="nonzero" fill-opacity="1" /><path clip-path="url(#clip090)" d="M1208.16 1517.37 Q1204.55 1517.37 1202.72 1520.93 Q1200.92 1524.47 1200.92 1531.6 Q1200.92 1538.71 1202.72 1542.27 Q1204.55 1545.82 1208.16 1545.82 Q1211.8 1545.82 1213.6 1542.27 Q1215.43 1538.71 1215.43 1531.6 Q1215.43 1524.47 1213.6 1520.93 Q1211.8 1517.37 1208.16 1517.37 M1208.16 1513.66 Q1213.97 1513.66 1217.03 1518.27 Q1220.11 1522.85 1220.11 1531.6 Q1220.11 1540.33 1217.03 1544.94 Q1213.97 1549.52 1208.16 1549.52 Q1202.35 1549.52 1199.27 1544.94 Q1196.22 1540.33 1196.22 1531.6 Q1196.22 1522.85 1199.27 1518.27 Q1202.35 1513.66 1208.16 1513.66 Z" fill="#000000" fill-rule="nonzero" fill-opacity="1" /><path clip-path="url(#clip090)" d="M1228.32 1542.97 L1233.21 1542.97 L1233.21 1548.85 L1228.32 1548.85 L1228.32 1542.97 Z" fill="#000000" fill-rule="nonzero" fill-opacity="1" /><path clip-path="url(#clip090)" d="M1243.44 1514.29 L1261.8 1514.29 L1261.8 1518.22 L1247.72 1518.22 L1247.72 1526.7 Q1248.74 1526.35 1249.76 1526.19 Q1250.78 1526 1251.8 1526 Q1257.58 1526 1260.96 1529.17 Q1264.34 1532.34 1264.34 1537.76 Q1264.34 1543.34 1260.87 1546.44 Q1257.4 1549.52 1251.08 1549.52 Q1248.9 1549.52 1246.63 1549.15 Q1244.39 1548.78 1241.98 1548.04 L1241.98 1543.34 Q1244.06 1544.47 1246.29 1545.03 Q1248.51 1545.58 1250.98 1545.58 Q1254.99 1545.58 1257.33 1543.48 Q1259.67 1541.37 1259.67 1537.76 Q1259.67 1534.15 1257.33 1532.04 Q1254.99 1529.94 1250.98 1529.94 Q1249.11 1529.94 1247.23 1530.35 Q1245.38 1530.77 1243.44 1531.65 L1243.44 1514.29 Z" fill="#000000" fill-rule="nonzero" fill-opacity="1" /><path clip-path="url(#clip090)" d="M1283.55 1517.37 Q1279.94 1517.37 1278.11 1520.93 Q1276.31 1524.47 1276.31 1531.6 Q1276.31 1538.71 1278.11 1542.27 Q1279.94 1545.82 1283.55 1545.82 Q1287.19 1545.82 1288.99 1542.27 Q1290.82 1538.71 1290.82 1531.6 Q1290.82 1524.47 1288.99 1520.93 Q1287.19 1517.37 1283.55 1517.37 M1283.55 1513.66 Q1289.36 1513.66 1292.42 1518.27 Q1295.5 1522.85 1295.5 1531.6 Q1295.5 1540.33 1292.42 1544.94 Q1289.36 1549.52 1283.55 1549.52 Q1277.74 1549.52 1274.67 1544.94 Q1271.61 1540.33 1271.61 1531.6 Q1271.61 1522.85 1274.67 1518.27 Q1277.74 1513.66 1283.55 1513.66 Z" fill="#000000" fill-rule="nonzero" fill-opacity="1" /><path clip-path="url(#clip090)" d="M1730.78 1517.37 Q1727.17 1517.37 1725.34 1520.93 Q1723.54 1524.47 1723.54 1531.6 Q1723.54 1538.71 1725.34 1542.27 Q1727.17 1545.82 1730.78 1545.82 Q1734.41 1545.82 1736.22 1542.27 Q1738.05 1538.71 1738.05 1531.6 Q1738.05 1524.47 1736.22 1520.93 Q1734.41 1517.37 1730.78 1517.37 M1730.78 1513.66 Q1736.59 1513.66 1739.65 1518.27 Q1742.72 1522.85 1742.72 1531.6 Q1742.72 1540.33 1739.65 1544.94 Q1736.59 1549.52 1730.78 1549.52 Q1724.97 1549.52 1721.89 1544.94 Q1718.84 1540.33 1718.84 1531.6 Q1718.84 1522.85 1721.89 1518.27 Q1724.97 1513.66 1730.78 1513.66 Z" fill="#000000" fill-rule="nonzero" fill-opacity="1" /><path clip-path="url(#clip090)" d="M1750.94 1542.97 L1755.83 1542.97 L1755.83 1548.85 L1750.94 1548.85 L1750.94 1542.97 Z" fill="#000000" fill-rule="nonzero" fill-opacity="1" /><path clip-path="url(#clip090)" d="M1764.83 1514.29 L1787.05 1514.29 L1787.05 1516.28 L1774.51 1548.85 L1769.62 1548.85 L1781.43 1518.22 L1764.83 1518.22 L1764.83 1514.29 Z" fill="#000000" fill-rule="nonzero" fill-opacity="1" /><path clip-path="url(#clip090)" d="M1796.22 1514.29 L1814.58 1514.29 L1814.58 1518.22 L1800.5 1518.22 L1800.5 1526.7 Q1801.52 1526.35 1802.54 1526.19 Q1803.56 1526 1804.58 1526 Q1810.36 1526 1813.74 1529.17 Q1817.12 1532.34 1817.12 1537.76 Q1817.12 1543.34 1813.65 1546.44 Q1810.18 1549.52 1803.86 1549.52 Q1801.68 1549.52 1799.41 1549.15 Q1797.17 1548.78 1794.76 1548.04 L1794.76 1543.34 Q1796.85 1544.47 1799.07 1545.03 Q1801.29 1545.58 1803.77 1545.58 Q1807.77 1545.58 1810.11 1543.48 Q1812.45 1541.37 1812.45 1537.76 Q1812.45 1534.15 1810.11 1532.04 Q1807.77 1529.94 1803.77 1529.94 Q1801.89 1529.94 1800.02 1530.35 Q1798.16 1530.77 1796.22 1531.65 L1796.22 1514.29 Z" fill="#000000" fill-rule="nonzero" fill-opacity="1" /><path clip-path="url(#clip090)" d="M2242.17 1544.91 L2249.81 1544.91 L2249.81 1518.55 L2241.5 1520.21 L2241.5 1515.95 L2249.77 1514.29 L2254.44 1514.29 L2254.44 1544.91 L2262.08 1544.91 L2262.08 1548.85 L2242.17 1548.85 L2242.17 1544.91 Z" fill="#000000" fill-rule="nonzero" fill-opacity="1" /><path clip-path="url(#clip090)" d="M2271.52 1542.97 L2276.41 1542.97 L2276.41 1548.85 L2271.52 1548.85 L2271.52 1542.97 Z" fill="#000000" fill-rule="nonzero" fill-opacity="1" /><path clip-path="url(#clip090)" d="M2296.59 1517.37 Q2292.98 1517.37 2291.15 1520.93 Q2289.35 1524.47 2289.35 1531.6 Q2289.35 1538.71 2291.15 1542.27 Q2292.98 1545.82 2296.59 1545.82 Q2300.23 1545.82 2302.03 1542.27 Q2303.86 1538.71 2303.86 1531.6 Q2303.86 1524.47 2302.03 1520.93 Q2300.23 1517.37 2296.59 1517.37 M2296.59 1513.66 Q2302.4 1513.66 2305.46 1518.27 Q2308.54 1522.85 2308.54 1531.6 Q2308.54 1540.33 2305.46 1544.94 Q2302.4 1549.52 2296.59 1549.52 Q2290.78 1549.52 2287.71 1544.94 Q2284.65 1540.33 2284.65 1531.6 Q2284.65 1522.85 2287.71 1518.27 Q2290.78 1513.66 2296.59 1513.66 Z" fill="#000000" fill-rule="nonzero" fill-opacity="1" /><path clip-path="url(#clip090)" d="M2326.76 1517.37 Q2323.15 1517.37 2321.32 1520.93 Q2319.51 1524.47 2319.51 1531.6 Q2319.51 1538.71 2321.32 1542.27 Q2323.15 1545.82 2326.76 1545.82 Q2330.39 1545.82 2332.2 1542.27 Q2334.02 1538.71 2334.02 1531.6 Q2334.02 1524.47 2332.2 1520.93 Q2330.39 1517.37 2326.76 1517.37 M2326.76 1513.66 Q2332.57 1513.66 2335.62 1518.27 Q2338.7 1522.85 2338.7 1531.6 Q2338.7 1540.33 2335.62 1544.94 Q2332.57 1549.52 2326.76 1549.52 Q2320.95 1549.52 2317.87 1544.94 Q2314.81 1540.33 2314.81 1531.6 Q2314.81 1522.85 2317.87 1518.27 Q2320.95 1513.66 2326.76 1513.66 Z" fill="#000000" fill-rule="nonzero" fill-opacity="1" /><polyline clip-path="url(#clip090)" style="stroke:#000000; stroke-linecap:round; stroke-linejoin:round; stroke-width:4; stroke-opacity:1; fill:none" points="138.959,1486.45 138.959,47.2441 "/>
<polyline clip-path="url(#clip090)" style="stroke:#000000; stroke-linecap:round; stroke-linejoin:round; stroke-width:4; stroke-opacity:1; fill:none" points="138.959,1445.72 157.857,1445.72 "/>
<polyline clip-path="url(#clip090)" style="stroke:#000000; stroke-linecap:round; stroke-linejoin:round; stroke-width:4; stroke-opacity:1; fill:none" points="138.959,1054.25 157.857,1054.25 "/>
<polyline clip-path="url(#clip090)" style="stroke:#000000; stroke-linecap:round; stroke-linejoin:round; stroke-width:4; stroke-opacity:1; fill:none" points="138.959,662.777 157.857,662.777 "/>
<polyline clip-path="url(#clip090)" style="stroke:#000000; stroke-linecap:round; stroke-linejoin:round; stroke-width:4; stroke-opacity:1; fill:none" points="138.959,271.307 157.857,271.307 "/>
<path clip-path="url(#clip090)" d="M91.0151 1431.51 Q87.404 1431.51 85.5753 1435.08 Q83.7697 1438.62 83.7697 1445.75 Q83.7697 1452.86 85.5753 1456.42 Q87.404 1459.96 91.0151 1459.96 Q94.6493 1459.96 96.4548 1456.42 Q98.2835 1452.86 98.2835 1445.75 Q98.2835 1438.62 96.4548 1435.08 Q94.6493 1431.51 91.0151 1431.51 M91.0151 1427.81 Q96.8252 1427.81 99.8808 1432.42 Q102.959 1437 102.959 1445.75 Q102.959 1454.48 99.8808 1459.08 Q96.8252 1463.67 91.0151 1463.67 Q85.2049 1463.67 82.1262 1459.08 Q79.0707 1454.48 79.0707 1445.75 Q79.0707 1437 82.1262 1432.42 Q85.2049 1427.81 91.0151 1427.81 Z" fill="#000000" fill-rule="nonzero" fill-opacity="1" /><path clip-path="url(#clip090)" d="M82.0568 1036.97 L100.413 1036.97 L100.413 1040.9 L86.3392 1040.9 L86.3392 1049.37 Q87.3577 1049.03 88.3762 1048.86 Q89.3947 1048.68 90.4132 1048.68 Q96.2002 1048.68 99.5798 1051.85 Q102.959 1055.02 102.959 1060.44 Q102.959 1066.02 99.4872 1069.12 Q96.015 1072.2 89.6956 1072.2 Q87.5197 1072.2 85.2512 1071.83 Q83.0058 1071.46 80.5984 1070.72 L80.5984 1066.02 Q82.6818 1067.15 84.904 1067.71 Q87.1262 1068.26 89.603 1068.26 Q93.6076 1068.26 95.9456 1066.16 Q98.2835 1064.05 98.2835 1060.44 Q98.2835 1056.83 95.9456 1054.72 Q93.6076 1052.61 89.603 1052.61 Q87.728 1052.61 85.8531 1053.03 Q84.0012 1053.45 82.0568 1054.33 L82.0568 1036.97 Z" fill="#000000" fill-rule="nonzero" fill-opacity="1" /><path clip-path="url(#clip090)" d="M51.6634 676.121 L59.3023 676.121 L59.3023 649.756 L50.9921 651.423 L50.9921 647.163 L59.256 645.497 L63.9319 645.497 L63.9319 676.121 L71.5707 676.121 L71.5707 680.057 L51.6634 680.057 L51.6634 676.121 Z" fill="#000000" fill-rule="nonzero" fill-opacity="1" /><path clip-path="url(#clip090)" d="M91.0151 648.575 Q87.404 648.575 85.5753 652.14 Q83.7697 655.682 83.7697 662.811 Q83.7697 669.918 85.5753 673.483 Q87.404 677.024 91.0151 677.024 Q94.6493 677.024 96.4548 673.483 Q98.2835 669.918 98.2835 662.811 Q98.2835 655.682 96.4548 652.14 Q94.6493 648.575 91.0151 648.575 M91.0151 644.872 Q96.8252 644.872 99.8808 649.478 Q102.959 654.061 102.959 662.811 Q102.959 671.538 99.8808 676.145 Q96.8252 680.728 91.0151 680.728 Q85.2049 680.728 82.1262 676.145 Q79.0707 671.538 79.0707 662.811 Q79.0707 654.061 82.1262 649.478 Q85.2049 644.872 91.0151 644.872 Z" fill="#000000" fill-rule="nonzero" fill-opacity="1" /><path clip-path="url(#clip090)" d="M52.6588 284.652 L60.2976 284.652 L60.2976 258.286 L51.9875 259.953 L51.9875 255.694 L60.2513 254.027 L64.9272 254.027 L64.9272 284.652 L72.5661 284.652 L72.5661 288.587 L52.6588 288.587 L52.6588 284.652 Z" fill="#000000" fill-rule="nonzero" fill-opacity="1" /><path clip-path="url(#clip090)" d="M82.0568 254.027 L100.413 254.027 L100.413 257.962 L86.3392 257.962 L86.3392 266.434 Q87.3577 266.087 88.3762 265.925 Q89.3947 265.74 90.4132 265.74 Q96.2002 265.74 99.5798 268.911 Q102.959 272.083 102.959 277.499 Q102.959 283.078 99.4872 286.18 Q96.015 289.258 89.6956 289.258 Q87.5197 289.258 85.2512 288.888 Q83.0058 288.518 80.5984 287.777 L80.5984 283.078 Q82.6818 284.212 84.904 284.768 Q87.1262 285.323 89.603 285.323 Q93.6076 285.323 95.9456 283.217 Q98.2835 281.11 98.2835 277.499 Q98.2835 273.888 95.9456 271.782 Q93.6076 269.675 89.603 269.675 Q87.728 269.675 85.8531 270.092 Q84.0012 270.508 82.0568 271.388 L82.0568 254.027 Z" fill="#000000" fill-rule="nonzero" fill-opacity="1" /><path clip-path="url(#clip092)" d="M201.614 1445.72 L215.211 1445.72 L340.937 1445.72 L416.493 1445.72 L480.374 1445.72 L549.768 1445.72 L613.742 1445.72 L648.036 1445.71 L682.329 1445.41 L692.263 1444.93 L702.196 1443.83 L712.129 1441.45 L722.062 1436.66 L727.029 1432.81 L731.995 1427.58 L736.962 1420.6 L741.928 1411.42 L746.895 1399.52 L751.861 1384.34 L754.345 1375.34 L756.828 1365.28 L759.311 1354.09 L761.795 1341.69 L764.001 1329.59 L766.208 1316.42 L768.415 1302.12 L770.622 1286.65 L772.829 1269.97 L775.036 1252.02 L777.243 1232.78 L779.449 1212.22 L781.656 1190.31 L783.863 1167.04 L786.07 1142.39 L788.277 1116.38 L790.484 1089.01 L792.691 1060.3 L794.897 1030.29 L797.104 999.029 L799.311 966.56 L801.518 932.958 L803.725 898.301 L805.932 862.683 L810.345 788.991 L814.759 712.855 L819.173 635.423 L823.587 557.985 L828 481.946 L832.414 408.78 L834.349 377.991 L836.284 348.167 L838.22 319.434 L840.155 291.911 L842.09 265.716 L844.025 240.961 L845.96 217.754 L847.896 196.196 L849.831 176.382 L851.766 158.399 L853.701 142.325 L855.636 128.232 L857.572 116.179 L859.507 106.219 L861.442 98.3932 L863.377 92.732 L865.313 89.2564 L867.248 87.9763 L869.183 88.8911 L871.118 91.9897 L873.053 97.2504 L874.989 104.642 L876.924 114.121 L878.859 125.639 L880.794 139.134 L882.729 154.537 L884.665 171.772 L886.6 190.754 L888.535 211.394 L890.47 233.593 L892.405 257.251 L894.341 282.259 L896.451 310.936 L898.56 340.941 L900.67 372.125 L902.78 404.336 L907 471.233 L911.22 540.427 L915.44 610.758 L919.659 681.135 L923.879 750.563 L928.099 818.164 L932.319 883.184 L936.539 945.003 L938.649 974.557 L940.758 1003.14 L942.868 1030.71 L944.978 1057.25 L947.088 1082.71 L949.198 1107.1 L951.308 1130.39 L953.418 1152.58 L955.528 1173.68 L957.638 1193.7 L959.748 1212.64 L961.857 1230.53 L963.98 1247.48 L966.102 1263.41 L968.225 1278.35 L970.347 1292.33 L972.47 1305.38 L974.592 1317.54 L976.715 1328.84 L978.837 1339.33 L983.082 1358.02 L987.327 1373.92 L991.572 1387.33 L995.816 1398.55 L1000.06 1407.87 L1004.31 1415.56 L1008.55 1421.84 L1012.8 1426.94 L1021.29 1434.33 L1029.78 1438.99 L1039.16 1442.08 L1048.55 1443.81 L1057.94 1444.75 L1067.32 1445.24 L1086.09 1445.61 L1104.87 1445.7 L1140.59 1445.72 L1176.32 1445.72 L1250.61 1445.72 L1313.14 1445.72 L1389.49 1445.72 L1459.43 1445.72 L1524.03 1445.72 L1589.46 1445.72 L1662.79 1445.72 L1729.24 1445.72 L1805.33 1445.72 L1875.77 1445.72 L1945.22 1445.72 L2012.65 1445.72 L2081.78 1445.72 L2157.51 1445.72 L2267.53 1445.72 L2290.1 1445.72 L2290.1 1445.72 L2267.53 1445.72 L2157.51 1445.72 L2081.78 1445.72 L2012.65 1445.72 L1945.22 1445.72 L1875.77 1445.72 L1805.33 1445.72 L1729.24 1445.72 L1662.79 1445.72 L1589.46 1445.72 L1524.03 1445.72 L1459.43 1445.72 L1389.49 1445.72 L1313.14 1445.72 L1250.61 1445.72 L1176.32 1445.72 L1140.59 1445.72 L1104.87 1445.72 L1086.09 1445.72 L1067.32 1445.72 L1057.94 1445.72 L1048.55 1445.72 L1039.16 1445.72 L1029.78 1445.72 L1021.29 1445.72 L1012.8 1445.72 L1008.55 1445.72 L1004.31 1445.72 L1000.06 1445.72 L995.816 1445.72 L991.572 1445.72 L987.327 1445.72 L983.082 1445.72 L978.837 1445.72 L976.715 1445.72 L974.592 1445.72 L972.47 1445.72 L970.347 1445.72 L968.225 1445.72 L966.102 1445.72 L963.98 1445.72 L961.857 1445.72 L959.748 1445.72 L957.638 1445.72 L955.528 1445.72 L953.418 1445.72 L951.308 1445.72 L949.198 1445.72 L947.088 1445.72 L944.978 1445.72 L942.868 1445.72 L940.758 1445.72 L938.649 1445.72 L936.539 1445.72 L932.319 1445.72 L928.099 1445.72 L923.879 1445.72 L919.659 1445.72 L915.44 1445.72 L911.22 1445.72 L907 1445.72 L902.78 1445.72 L900.67 1445.72 L898.56 1445.72 L896.451 1445.72 L894.341 1445.72 L892.405 1445.72 L890.47 1445.72 L888.535 1445.72 L886.6 1445.72 L884.665 1445.72 L882.729 1445.72 L880.794 1445.72 L878.859 1445.72 L876.924 1445.72 L874.989 1445.72 L873.053 1445.72 L871.118 1445.72 L869.183 1445.72 L867.248 1445.72 L865.313 1445.72 L863.377 1445.72 L861.442 1445.72 L859.507 1445.72 L857.572 1445.72 L855.636 1445.72 L853.701 1445.72 L851.766 1445.72 L849.831 1445.72 L847.896 1445.72 L845.96 1445.72 L844.025 1445.72 L842.09 1445.72 L840.155 1445.72 L838.22 1445.72 L836.284 1445.72 L834.349 1445.72 L832.414 1445.72 L828 1445.72 L823.587 1445.72 L819.173 1445.72 L814.759 1445.72 L810.345 1445.72 L805.932 1445.72 L803.725 1445.72 L801.518 1445.72 L799.311 1445.72 L797.104 1445.72 L794.897 1445.72 L792.691 1445.72 L790.484 1445.72 L788.277 1445.72 L786.07 1445.72 L783.863 1445.72 L781.656 1445.72 L779.449 1445.72 L777.243 1445.72 L775.036 1445.72 L772.829 1445.72 L770.622 1445.72 L768.415 1445.72 L766.208 1445.72 L764.001 1445.72 L761.795 1445.72 L759.311 1445.72 L756.828 1445.72 L754.345 1445.72 L751.861 1445.72 L746.895 1445.72 L741.928 1445.72 L736.962 1445.72 L731.995 1445.72 L727.029 1445.72 L722.062 1445.72 L712.129 1445.72 L702.196 1445.72 L692.263 1445.72 L682.329 1445.72 L648.036 1445.72 L613.742 1445.72 L549.768 1445.72 L480.374 1445.72 L416.493 1445.72 L340.937 1445.72 L215.211 1445.72 L201.614 1445.72  Z" fill="#009af9" fill-rule="evenodd" fill-opacity="0.2"/>
<polyline clip-path="url(#clip092)" style="stroke:#009af9; stroke-linecap:round; stroke-linejoin:round; stroke-width:4; stroke-opacity:1; fill:none" points="201.614,1445.72 215.211,1445.72 340.937,1445.72 416.493,1445.72 480.374,1445.72 549.768,1445.72 613.742,1445.72 648.036,1445.71 682.329,1445.41 692.263,1444.93 702.196,1443.83 712.129,1441.45 722.062,1436.66 727.029,1432.81 731.995,1427.58 736.962,1420.6 741.928,1411.42 746.895,1399.52 751.861,1384.34 754.345,1375.34 756.828,1365.28 759.311,1354.09 761.795,1341.69 764.001,1329.59 766.208,1316.42 768.415,1302.12 770.622,1286.65 772.829,1269.97 775.036,1252.02 777.243,1232.78 779.449,1212.22 781.656,1190.31 783.863,1167.04 786.07,1142.39 788.277,1116.38 790.484,1089.01 792.691,1060.3 794.897,1030.29 797.104,999.029 799.311,966.56 801.518,932.958 803.725,898.301 805.932,862.683 810.345,788.991 814.759,712.855 819.173,635.423 823.587,557.985 828,481.946 832.414,408.78 834.349,377.991 836.284,348.167 838.22,319.434 840.155,291.911 842.09,265.716 844.025,240.961 845.96,217.754 847.896,196.196 849.831,176.382 851.766,158.399 853.701,142.325 855.636,128.232 857.572,116.179 859.507,106.219 861.442,98.3932 863.377,92.732 865.313,89.2564 867.248,87.9763 869.183,88.8911 871.118,91.9897 873.053,97.2504 874.989,104.642 876.924,114.121 878.859,125.639 880.794,139.134 882.729,154.537 884.665,171.772 886.6,190.754 888.535,211.394 890.47,233.593 892.405,257.251 894.341,282.259 896.451,310.936 898.56,340.941 900.67,372.125 902.78,404.336 907,471.233 911.22,540.427 915.44,610.758 919.659,681.135 923.879,750.563 928.099,818.164 932.319,883.184 936.539,945.003 938.649,974.557 940.758,1003.14 942.868,1030.71 944.978,1057.25 947.088,1082.71 949.198,1107.1 951.308,1130.39 953.418,1152.58 955.528,1173.68 957.638,1193.7 959.748,1212.64 961.857,1230.53 963.98,1247.48 966.102,1263.41 968.225,1278.35 970.347,1292.33 972.47,1305.38 974.592,1317.54 976.715,1328.84 978.837,1339.33 983.082,1358.02 987.327,1373.92 991.572,1387.33 995.816,1398.55 1000.06,1407.87 1004.31,1415.56 1008.55,1421.84 1012.8,1426.94 1021.29,1434.33 1029.78,1438.99 1039.16,1442.08 1048.55,1443.81 1057.94,1444.75 1067.32,1445.24 1086.09,1445.61 1104.87,1445.7 1140.59,1445.72 1176.32,1445.72 1250.61,1445.72 1313.14,1445.72 1389.49,1445.72 1459.43,1445.72 1524.03,1445.72 1589.46,1445.72 1662.79,1445.72 1729.24,1445.72 1805.33,1445.72 1875.77,1445.72 1945.22,1445.72 2012.65,1445.72 2081.78,1445.72 2157.51,1445.72 2267.53,1445.72 2290.1,1445.72 "/>
<polyline clip-path="url(#clip092)" style="stroke:#e26f46; stroke-linecap:round; stroke-linejoin:round; stroke-width:4; stroke-opacity:1; fill:none" points="866.42,2925.65 866.42,-1391.96 "/>
<path clip-path="url(#clip090)" d="M1745.85 250.738 L2278.96 250.738 L2278.96 95.2176 L1745.85 95.2176  Z" fill="#ffffff" fill-rule="evenodd" fill-opacity="1"/>
<polyline clip-path="url(#clip090)" style="stroke:#000000; stroke-linecap:round; stroke-linejoin:round; stroke-width:4; stroke-opacity:1; fill:none" points="1745.85,250.738 2278.96,250.738 2278.96,95.2176 1745.85,95.2176 1745.85,250.738 "/>
<path clip-path="url(#clip090)" d="M1770.45 167.794 L1918.03 167.794 L1918.03 126.322 L1770.45 126.322 L1770.45 167.794  Z" fill="#009af9" fill-rule="evenodd" fill-opacity="0.2"/>
<polyline clip-path="url(#clip090)" style="stroke:#009af9; stroke-linecap:round; stroke-linejoin:round; stroke-width:4; stroke-opacity:1; fill:none" points="1770.45,126.322 1918.03,126.322 "/>
<path clip-path="url(#clip090)" d="M1946.91 160.449 L1946.91 174.199 L1942.63 174.199 L1942.63 138.412 L1946.91 138.412 L1946.91 142.347 Q1948.26 140.032 1950.29 138.921 Q1952.35 137.787 1955.2 137.787 Q1959.92 137.787 1962.86 141.537 Q1965.82 145.287 1965.82 151.398 Q1965.82 157.509 1962.86 161.259 Q1959.92 165.009 1955.2 165.009 Q1952.35 165.009 1950.29 163.898 Q1948.26 162.763 1946.91 160.449 M1961.4 151.398 Q1961.4 146.699 1959.46 144.037 Q1957.54 141.352 1954.16 141.352 Q1950.78 141.352 1948.83 144.037 Q1946.91 146.699 1946.91 151.398 Q1946.91 156.097 1948.83 158.782 Q1950.78 161.444 1954.16 161.444 Q1957.54 161.444 1959.46 158.782 Q1961.4 156.097 1961.4 151.398 Z" fill="#000000" fill-rule="nonzero" fill-opacity="1" /><path clip-path="url(#clip090)" d="M1982.93 141.398 Q1979.51 141.398 1977.51 144.083 Q1975.52 146.745 1975.52 151.398 Q1975.52 156.051 1977.49 158.736 Q1979.48 161.398 1982.93 161.398 Q1986.33 161.398 1988.32 158.713 Q1990.32 156.027 1990.32 151.398 Q1990.32 146.791 1988.32 144.106 Q1986.33 141.398 1982.93 141.398 M1982.93 137.787 Q1988.49 137.787 1991.66 141.398 Q1994.83 145.009 1994.83 151.398 Q1994.83 157.764 1991.66 161.398 Q1988.49 165.009 1982.93 165.009 Q1977.35 165.009 1974.18 161.398 Q1971.03 157.764 1971.03 151.398 Q1971.03 145.009 1974.18 141.398 Q1977.35 137.787 1982.93 137.787 Z" fill="#000000" fill-rule="nonzero" fill-opacity="1" /><path clip-path="url(#clip090)" d="M2018.42 139.176 L2018.42 143.203 Q2016.61 142.277 2014.67 141.815 Q2012.72 141.352 2010.64 141.352 Q2007.47 141.352 2005.87 142.324 Q2004.3 143.296 2004.3 145.24 Q2004.3 146.722 2005.43 147.578 Q2006.57 148.412 2009.99 149.176 L2011.45 149.5 Q2015.99 150.472 2017.88 152.254 Q2019.81 154.014 2019.81 157.185 Q2019.81 160.796 2016.94 162.902 Q2014.09 165.009 2009.09 165.009 Q2007.01 165.009 2004.74 164.592 Q2002.49 164.199 1999.99 163.388 L1999.99 158.99 Q2002.35 160.217 2004.64 160.842 Q2006.94 161.444 2009.18 161.444 Q2012.19 161.444 2013.81 160.426 Q2015.43 159.384 2015.43 157.509 Q2015.43 155.773 2014.25 154.847 Q2013.09 153.921 2009.13 153.064 L2007.65 152.717 Q2003.69 151.884 2001.94 150.171 Q2000.18 148.435 2000.18 145.426 Q2000.18 141.768 2002.77 139.778 Q2005.36 137.787 2010.13 137.787 Q2012.49 137.787 2014.57 138.134 Q2016.66 138.481 2018.42 139.176 Z" fill="#000000" fill-rule="nonzero" fill-opacity="1" /><path clip-path="url(#clip090)" d="M2030.8 131.051 L2030.8 138.412 L2039.57 138.412 L2039.57 141.722 L2030.8 141.722 L2030.8 155.796 Q2030.8 158.967 2031.66 159.87 Q2032.54 160.773 2035.2 160.773 L2039.57 160.773 L2039.57 164.338 L2035.2 164.338 Q2030.27 164.338 2028.39 162.509 Q2026.52 160.657 2026.52 155.796 L2026.52 141.722 L2023.39 141.722 L2023.39 138.412 L2026.52 138.412 L2026.52 131.051 L2030.8 131.051 Z" fill="#000000" fill-rule="nonzero" fill-opacity="1" /><path clip-path="url(#clip090)" d="M2067.35 150.31 L2067.35 152.393 L2047.77 152.393 Q2048.05 156.791 2050.41 159.106 Q2052.79 161.398 2057.03 161.398 Q2059.48 161.398 2061.77 160.796 Q2064.09 160.194 2066.36 158.99 L2066.36 163.018 Q2064.07 163.99 2061.66 164.5 Q2059.25 165.009 2056.77 165.009 Q2050.57 165.009 2046.94 161.398 Q2043.32 157.787 2043.32 151.629 Q2043.32 145.264 2046.75 141.537 Q2050.2 137.787 2056.03 137.787 Q2061.26 137.787 2064.3 141.166 Q2067.35 144.523 2067.35 150.31 M2063.09 149.06 Q2063.05 145.565 2061.13 143.481 Q2059.23 141.398 2056.08 141.398 Q2052.51 141.398 2050.36 143.412 Q2048.23 145.426 2047.91 149.083 L2063.09 149.06 Z" fill="#000000" fill-rule="nonzero" fill-opacity="1" /><path clip-path="url(#clip090)" d="M2089.37 142.393 Q2088.65 141.977 2087.79 141.791 Q2086.96 141.583 2085.94 141.583 Q2082.33 141.583 2080.38 143.944 Q2078.46 146.282 2078.46 150.68 L2078.46 164.338 L2074.18 164.338 L2074.18 138.412 L2078.46 138.412 L2078.46 142.44 Q2079.81 140.078 2081.96 138.944 Q2084.11 137.787 2087.19 137.787 Q2087.63 137.787 2088.16 137.856 Q2088.69 137.903 2089.34 138.018 L2089.37 142.393 Z" fill="#000000" fill-rule="nonzero" fill-opacity="1" /><path clip-path="url(#clip090)" d="M2093.83 138.412 L2098.09 138.412 L2098.09 164.338 L2093.83 164.338 L2093.83 138.412 M2093.83 128.319 L2098.09 128.319 L2098.09 133.713 L2093.83 133.713 L2093.83 128.319 Z" fill="#000000" fill-rule="nonzero" fill-opacity="1" /><path clip-path="url(#clip090)" d="M2117.05 141.398 Q2113.62 141.398 2111.63 144.083 Q2109.64 146.745 2109.64 151.398 Q2109.64 156.051 2111.61 158.736 Q2113.6 161.398 2117.05 161.398 Q2120.45 161.398 2122.44 158.713 Q2124.44 156.027 2124.44 151.398 Q2124.44 146.791 2122.44 144.106 Q2120.45 141.398 2117.05 141.398 M2117.05 137.787 Q2122.61 137.787 2125.78 141.398 Q2128.95 145.009 2128.95 151.398 Q2128.95 157.764 2125.78 161.398 Q2122.61 165.009 2117.05 165.009 Q2111.47 165.009 2108.3 161.398 Q2105.15 157.764 2105.15 151.398 Q2105.15 145.009 2108.3 141.398 Q2111.47 137.787 2117.05 137.787 Z" fill="#000000" fill-rule="nonzero" fill-opacity="1" /><path clip-path="url(#clip090)" d="M2151.03 142.393 Q2150.31 141.977 2149.46 141.791 Q2148.62 141.583 2147.61 141.583 Q2144 141.583 2142.05 143.944 Q2140.13 146.282 2140.13 150.68 L2140.13 164.338 L2135.85 164.338 L2135.85 138.412 L2140.13 138.412 L2140.13 142.44 Q2141.47 140.078 2143.62 138.944 Q2145.78 137.787 2148.86 137.787 Q2149.3 137.787 2149.83 137.856 Q2150.36 137.903 2151.01 138.018 L2151.03 142.393 Z" fill="#000000" fill-rule="nonzero" fill-opacity="1" /><path clip-path="url(#clip090)" d="M2180.62 141.398 Q2177.19 141.398 2175.2 144.083 Q2173.21 146.745 2173.21 151.398 Q2173.21 156.051 2175.18 158.736 Q2177.17 161.398 2180.62 161.398 Q2184.02 161.398 2186.01 158.713 Q2188 156.027 2188 151.398 Q2188 146.791 2186.01 144.106 Q2184.02 141.398 2180.62 141.398 M2180.62 137.787 Q2186.17 137.787 2189.34 141.398 Q2192.51 145.009 2192.51 151.398 Q2192.51 157.764 2189.34 161.398 Q2186.17 165.009 2180.62 165.009 Q2175.04 165.009 2171.87 161.398 Q2168.72 157.764 2168.72 151.398 Q2168.72 145.009 2171.87 141.398 Q2175.04 137.787 2180.62 137.787 Z" fill="#000000" fill-rule="nonzero" fill-opacity="1" /><path clip-path="url(#clip090)" d="M2212.7 128.319 L2212.7 131.861 L2208.62 131.861 Q2206.33 131.861 2205.43 132.787 Q2204.55 133.713 2204.55 136.12 L2204.55 138.412 L2211.56 138.412 L2211.56 141.722 L2204.55 141.722 L2204.55 164.338 L2200.27 164.338 L2200.27 141.722 L2196.19 141.722 L2196.19 138.412 L2200.27 138.412 L2200.27 136.606 Q2200.27 132.278 2202.28 130.31 Q2204.3 128.319 2208.67 128.319 L2212.7 128.319 Z" fill="#000000" fill-rule="nonzero" fill-opacity="1" /><path clip-path="url(#clip090)" d="M2235.45 160.449 L2235.45 174.199 L2231.17 174.199 L2231.17 138.412 L2235.45 138.412 L2235.45 142.347 Q2236.8 140.032 2238.83 138.921 Q2240.89 137.787 2243.74 137.787 Q2248.46 137.787 2251.4 141.537 Q2254.36 145.287 2254.36 151.398 Q2254.36 157.509 2251.4 161.259 Q2248.46 165.009 2243.74 165.009 Q2240.89 165.009 2238.83 163.898 Q2236.8 162.763 2235.45 160.449 M2249.94 151.398 Q2249.94 146.699 2248 144.037 Q2246.08 141.352 2242.7 141.352 Q2239.32 141.352 2237.37 144.037 Q2235.45 146.699 2235.45 151.398 Q2235.45 156.097 2237.37 158.782 Q2239.32 161.444 2242.7 161.444 Q2246.08 161.444 2248 158.782 Q2249.94 156.097 2249.94 151.398 Z" fill="#000000" fill-rule="nonzero" fill-opacity="1" /><polyline clip-path="url(#clip090)" style="stroke:#e26f46; stroke-linecap:round; stroke-linejoin:round; stroke-width:4; stroke-opacity:1; fill:none" points="1770.45,198.898 1918.03,198.898 "/>
<path clip-path="url(#clip090)" d="M1964.34 200.529 L1964.34 216.178 L1960.08 216.178 L1960.08 200.668 Q1960.08 196.988 1958.65 195.159 Q1957.21 193.33 1954.34 193.33 Q1950.89 193.33 1948.9 195.53 Q1946.91 197.729 1946.91 201.525 L1946.91 216.178 L1942.63 216.178 L1942.63 180.159 L1946.91 180.159 L1946.91 194.28 Q1948.44 191.942 1950.5 190.784 Q1952.58 189.627 1955.29 189.627 Q1959.76 189.627 1962.05 192.405 Q1964.34 195.159 1964.34 200.529 Z" fill="#000000" fill-rule="nonzero" fill-opacity="1" /><path clip-path="url(#clip090)" d="M1972.84 190.252 L1977.1 190.252 L1977.1 216.178 L1972.84 216.178 L1972.84 190.252 M1972.84 180.159 L1977.1 180.159 L1977.1 185.553 L1972.84 185.553 L1972.84 180.159 Z" fill="#000000" fill-rule="nonzero" fill-opacity="1" /><path clip-path="url(#clip090)" d="M2003.07 194.187 L2003.07 180.159 L2007.33 180.159 L2007.33 216.178 L2003.07 216.178 L2003.07 212.289 Q2001.73 214.603 1999.67 215.738 Q1997.63 216.849 1994.76 216.849 Q1990.06 216.849 1987.1 213.099 Q1984.16 209.349 1984.16 203.238 Q1984.16 197.127 1987.1 193.377 Q1990.06 189.627 1994.76 189.627 Q1997.63 189.627 1999.67 190.761 Q2001.73 191.872 2003.07 194.187 M1988.56 203.238 Q1988.56 207.937 1990.48 210.622 Q1992.42 213.284 1995.8 213.284 Q1999.18 213.284 2001.13 210.622 Q2003.07 207.937 2003.07 203.238 Q2003.07 198.539 2001.13 195.877 Q1999.18 193.192 1995.8 193.192 Q1992.42 193.192 1990.48 195.877 Q1988.56 198.539 1988.56 203.238 Z" fill="#000000" fill-rule="nonzero" fill-opacity="1" /><path clip-path="url(#clip090)" d="M2033.16 194.187 L2033.16 180.159 L2037.42 180.159 L2037.42 216.178 L2033.16 216.178 L2033.16 212.289 Q2031.82 214.603 2029.76 215.738 Q2027.72 216.849 2024.85 216.849 Q2020.15 216.849 2017.19 213.099 Q2014.25 209.349 2014.25 203.238 Q2014.25 197.127 2017.19 193.377 Q2020.15 189.627 2024.85 189.627 Q2027.72 189.627 2029.76 190.761 Q2031.82 191.872 2033.16 194.187 M2018.65 203.238 Q2018.65 207.937 2020.57 210.622 Q2022.51 213.284 2025.89 213.284 Q2029.27 213.284 2031.22 210.622 Q2033.16 207.937 2033.16 203.238 Q2033.16 198.539 2031.22 195.877 Q2029.27 193.192 2025.89 193.192 Q2022.51 193.192 2020.57 195.877 Q2018.65 198.539 2018.65 203.238 Z" fill="#000000" fill-rule="nonzero" fill-opacity="1" /><path clip-path="url(#clip090)" d="M2068.37 202.15 L2068.37 204.233 L2048.79 204.233 Q2049.07 208.631 2051.43 210.946 Q2053.81 213.238 2058.05 213.238 Q2060.5 213.238 2062.79 212.636 Q2065.11 212.034 2067.38 210.83 L2067.38 214.858 Q2065.08 215.83 2062.68 216.34 Q2060.27 216.849 2057.79 216.849 Q2051.59 216.849 2047.95 213.238 Q2044.34 209.627 2044.34 203.469 Q2044.34 197.104 2047.77 193.377 Q2051.22 189.627 2057.05 189.627 Q2062.28 189.627 2065.32 193.006 Q2068.37 196.363 2068.37 202.15 M2064.11 200.9 Q2064.07 197.405 2062.14 195.321 Q2060.25 193.238 2057.1 193.238 Q2053.53 193.238 2051.38 195.252 Q2049.25 197.266 2048.93 200.923 L2064.11 200.9 Z" fill="#000000" fill-rule="nonzero" fill-opacity="1" /><path clip-path="url(#clip090)" d="M2096.91 200.529 L2096.91 216.178 L2092.65 216.178 L2092.65 200.668 Q2092.65 196.988 2091.22 195.159 Q2089.78 193.33 2086.91 193.33 Q2083.46 193.33 2081.47 195.53 Q2079.48 197.729 2079.48 201.525 L2079.48 216.178 L2075.2 216.178 L2075.2 190.252 L2079.48 190.252 L2079.48 194.28 Q2081.01 191.942 2083.07 190.784 Q2085.15 189.627 2087.86 189.627 Q2092.33 189.627 2094.62 192.405 Q2096.91 195.159 2096.91 200.529 Z" fill="#000000" fill-rule="nonzero" fill-opacity="1" /><path clip-path="url(#clip090)" d="M2124.6 212.289 L2124.6 226.039 L2120.31 226.039 L2120.31 190.252 L2124.6 190.252 L2124.6 194.187 Q2125.94 191.872 2127.98 190.761 Q2130.04 189.627 2132.88 189.627 Q2137.61 189.627 2140.55 193.377 Q2143.51 197.127 2143.51 203.238 Q2143.51 209.349 2140.55 213.099 Q2137.61 216.849 2132.88 216.849 Q2130.04 216.849 2127.98 215.738 Q2125.94 214.603 2124.6 212.289 M2139.09 203.238 Q2139.09 198.539 2137.14 195.877 Q2135.22 193.192 2131.84 193.192 Q2128.46 193.192 2126.52 195.877 Q2124.6 198.539 2124.6 203.238 Q2124.6 207.937 2126.52 210.622 Q2128.46 213.284 2131.84 213.284 Q2135.22 213.284 2137.14 210.622 Q2139.09 207.937 2139.09 203.238 Z" fill="#000000" fill-rule="nonzero" fill-opacity="1" /></svg>
