<?xml version="1.0" encoding="UTF-8"?>
<svg xmlns="http://www.w3.org/2000/svg"
     xmlns:xlink="http://www.w3.org/1999/xlink"
     version="1.2"
     width="141.42mm" height="100mm" viewBox="0 0 141.42 100"
     stroke="none"
     fill="#000000"
     stroke-width="0.3"
     font-size="3.88"
>
<defs>
  <marker id="arrow" markerWidth="15" markerHeight="7" refX="5" refY="3.5" orient="auto" markerUnits="strokeWidth">
    <path d="M0,0 L15,3.5 L0,7 z" stroke="context-stroke" fill="context-stroke"/>
  </marker>
</defs>
<g stroke-width="0.6" fill="#000000" fill-opacity="0.000" stroke="#D3D3D3" id="img-bfae5b25-1">
  <g transform="translate(108.17,67.24)">
    <path fill="none" d="M-5.12,1.98 L5.12,-1.98 " class="primitive"/>
  </g>
  <g transform="translate(96.9,64.65)">
    <path fill="none" d="M2.35,3.67 L-2.35,-3.67 " class="primitive"/>
  </g>
  <g transform="translate(94.91,75.98)">
    <path fill="none" d="M3.89,-4.03 L-3.89,4.03 " class="primitive"/>
  </g>
  <g transform="translate(122.76,65.61)">
    <path fill="none" d="M4.04,0.8 L-4.04,-0.8 " class="primitive"/>
  </g>
  <g transform="translate(114.1,58.87)">
    <path fill="none" d="M-1.11,-3.35 L1.11,3.35 " class="primitive"/>
  </g>
  <g transform="translate(88.06,55.59)">
    <path fill="none" d="M-3.12,-2.06 L3.12,2.06 " class="primitive"/>
  </g>
  <g transform="translate(93.98,54.67)">
    <path fill="none" d="M0.34,-2.34 L-0.34,2.34 " class="primitive"/>
  </g>
  <g transform="translate(80.13,81.59)">
    <path fill="none" d="M-6.29,-0.09 L6.29,0.09 " class="primitive"/>
  </g>
  <g transform="translate(62.13,78.9)">
    <path fill="none" d="M6.04,1.76 L-6.04,-1.76 " class="primitive"/>
  </g>
  <g transform="translate(91.9,86.7)">
    <path fill="none" d="M1.54,3.01 L-1.54,-3.01 " class="primitive"/>
  </g>
  <g transform="translate(47.19,69.29)">
    <path fill="none" d="M-4.62,-5.28 L4.62,5.28 " class="primitive"/>
  </g>
  <g transform="translate(33.36,65.64)">
    <path fill="none" d="M5.16,-2.29 L-5.16,2.29 " class="primitive"/>
  </g>
  <g transform="translate(42.21,53.37)">
    <path fill="none" d="M-0.91,6.8 L0.91,-6.8 " class="primitive"/>
  </g>
  <g transform="translate(53.51,81.96)">
    <path fill="none" d="M0.09,3.54 L-0.09,-3.54 " class="primitive"/>
  </g>
  <g transform="translate(30.31,71.49)">
    <path fill="none" d="M2.26,1.2 L-2.26,-1.2 " class="primitive"/>
  </g>
  <g transform="translate(18.74,70.63)">
    <path fill="none" d="M-4.15,0.95 L4.15,-0.95 " class="primitive"/>
  </g>
  <g transform="translate(50,37.2)">
    <path fill="none" d="M5.01,-5.53 L-5.01,5.53 " class="primitive"/>
  </g>
  <g transform="translate(64.77,24)">
    <path fill="none" d="M-6.11,4.42 L6.11,-4.42 " class="primitive"/>
  </g>
  <g transform="translate(37.44,41.98)">
    <path fill="none" d="M-3.43,-1.44 L3.43,1.44 " class="primitive"/>
  </g>
  <g transform="translate(83.67,16.36)">
    <path fill="none" d="M7.85,-1.27 L-7.85,1.27 " class="primitive"/>
  </g>
  <g transform="translate(104.69,15.05)">
    <path fill="none" d="M-7.35,-0.3 L7.35,0.3 " class="primitive"/>
  </g>
  <g transform="translate(70.99,13.21)">
    <path fill="none" d="M-1.15,-2.87 L1.15,2.87 " class="primitive"/>
  </g>
  <g transform="translate(121.09,13.03)">
    <path fill="none" d="M3.54,-1.41 L-3.54,1.41 " class="primitive"/>
  </g>
  <g transform="translate(120.79,20.05)">
    <path fill="none" d="M3.84,3.03 L-3.84,-3.03 " class="primitive"/>
  </g>
</g>
<g stroke-width="0.6" stroke="#D3D3D3" id="img-bfae5b25-2">
</g>
<g font-size="4" stroke="#000000" stroke-opacity="0.000" fill="#000000" id="img-bfae5b25-3">
</g>
<g stroke-width="0" stroke="#000000" stroke-opacity="0.000" fill="#40E0D0" id="img-bfae5b25-4">
  <g transform="translate(100.46,70.22)">
    <circle cx="0" cy="0" r="2.83" class="primitive"/>
  </g>
  <g transform="translate(129.64,66.96)">
    <circle cx="0" cy="0" r="2.83" class="primitive"/>
  </g>
  <g transform="translate(112.33,53.49)">
    <circle cx="0" cy="0" r="2.83" class="primitive"/>
  </g>
  <g transform="translate(115.88,64.25)">
    <circle cx="0" cy="0" r="2.83" class="primitive"/>
  </g>
  <g transform="translate(82.78,52.11)">
    <circle cx="0" cy="0" r="2.83" class="primitive"/>
  </g>
  <g transform="translate(94.63,50.25)">
    <circle cx="0" cy="0" r="2.83" class="primitive"/>
  </g>
  <g transform="translate(93.33,59.08)">
    <circle cx="0" cy="0" r="2.83" class="primitive"/>
  </g>
  <g transform="translate(70.89,81.46)">
    <circle cx="0" cy="0" r="2.83" class="primitive"/>
  </g>
  <g transform="translate(94.44,91.67)">
    <circle cx="0" cy="0" r="2.83" class="primitive"/>
  </g>
  <g transform="translate(89.36,81.73)">
    <circle cx="0" cy="0" r="2.83" class="primitive"/>
  </g>
  <g transform="translate(41.02,62.24)">
    <circle cx="0" cy="0" r="2.83" class="primitive"/>
  </g>
  <g transform="translate(53.65,87.58)">
    <circle cx="0" cy="0" r="2.83" class="primitive"/>
  </g>
  <g transform="translate(53.37,76.34)">
    <circle cx="0" cy="0" r="2.83" class="primitive"/>
  </g>
  <g transform="translate(34.93,73.94)">
    <circle cx="0" cy="0" r="2.83" class="primitive"/>
  </g>
  <g transform="translate(11.79,72.22)">
    <circle cx="0" cy="0" r="2.83" class="primitive"/>
  </g>
  <g transform="translate(25.7,69.04)">
    <circle cx="0" cy="0" r="2.83" class="primitive"/>
  </g>
  <g transform="translate(56.6,29.91)">
    <circle cx="0" cy="0" r="2.83" class="primitive"/>
  </g>
  <g transform="translate(31.47,39.48)">
    <circle cx="0" cy="0" r="2.83" class="primitive"/>
  </g>
  <g transform="translate(43.4,44.49)">
    <circle cx="0" cy="0" r="2.83" class="primitive"/>
  </g>
  <g transform="translate(94.4,14.63)">
    <circle cx="0" cy="0" r="2.83" class="primitive"/>
  </g>
  <g transform="translate(69.03,8.33)">
    <circle cx="0" cy="0" r="2.83" class="primitive"/>
  </g>
  <g transform="translate(72.94,18.09)">
    <circle cx="0" cy="0" r="2.83" class="primitive"/>
  </g>
  <g transform="translate(127.21,10.6)">
    <circle cx="0" cy="0" r="2.83" class="primitive"/>
  </g>
  <g transform="translate(126.6,24.64)">
    <circle cx="0" cy="0" r="2.83" class="primitive"/>
  </g>
  <g transform="translate(114.98,15.46)">
    <circle cx="0" cy="0" r="2.83" class="primitive"/>
  </g>
</g>
<g font-size="4" stroke="#000000" stroke-opacity="0.000" fill="#000000" id="img-bfae5b25-5">
  <g transform="translate(100.46,70.22)">
    <g class="primitive">
      <text text-anchor="middle" dy="0.35em">x</text>
    </g>
  </g>
  <g transform="translate(129.64,66.96)">
    <g class="primitive">
      <text text-anchor="middle" dy="0.35em">constvar_2</text>
    </g>
  </g>
  <g transform="translate(112.33,53.49)">
    <g class="primitive">
      <text text-anchor="middle" dy="0.35em">constvar_4</text>
    </g>
  </g>
  <g transform="translate(115.88,64.25)">
    <g class="primitive">
      <text text-anchor="middle" dy="0.35em">NormalMeanVariance</text>
    </g>
  </g>
  <g transform="translate(82.78,52.11)">
    <g class="primitive">
      <text text-anchor="middle" dy="0.35em">y</text>
    </g>
  </g>
  <g transform="translate(94.63,50.25)">
    <g class="primitive">
      <text text-anchor="middle" dy="0.35em">constvar_8</text>
    </g>
  </g>
  <g transform="translate(93.33,59.08)">
    <g class="primitive">
      <text text-anchor="middle" dy="0.35em">NormalMeanVariance</text>
    </g>
  </g>
  <g transform="translate(70.89,81.46)">
    <g class="primitive">
      <text text-anchor="middle" dy="0.35em">anonymous_var_graphppl</text>
    </g>
  </g>
  <g transform="translate(94.44,91.67)">
    <g class="primitive">
      <text text-anchor="middle" dy="0.35em">constvar_12</text>
    </g>
  </g>
  <g transform="translate(89.36,81.73)">
    <g class="primitive">
      <text text-anchor="middle" dy="0.35em">+</text>
    </g>
  </g>
  <g transform="translate(41.02,62.24)">
    <g class="primitive">
      <text text-anchor="middle" dy="0.35em">x</text>
    </g>
  </g>
  <g transform="translate(53.65,87.58)">
    <g class="primitive">
      <text text-anchor="middle" dy="0.35em">constvar_16</text>
    </g>
  </g>
  <g transform="translate(53.37,76.34)">
    <g class="primitive">
      <text text-anchor="middle" dy="0.35em">NormalMeanVariance</text>
    </g>
  </g>
  <g transform="translate(34.93,73.94)">
    <g class="primitive">
      <text text-anchor="middle" dy="0.35em">y</text>
    </g>
  </g>
  <g transform="translate(11.79,72.22)">
    <g class="primitive">
      <text text-anchor="middle" dy="0.35em">constvar_20</text>
    </g>
  </g>
  <g transform="translate(25.7,69.04)">
    <g class="primitive">
      <text text-anchor="middle" dy="0.35em">NormalMeanVariance</text>
    </g>
  </g>
  <g transform="translate(56.6,29.91)">
    <g class="primitive">
      <text text-anchor="middle" dy="0.35em">anonymous_var_graphppl</text>
    </g>
  </g>
  <g transform="translate(31.47,39.48)">
    <g class="primitive">
      <text text-anchor="middle" dy="0.35em">constvar_24</text>
    </g>
  </g>
  <g transform="translate(43.4,44.49)">
    <g class="primitive">
      <text text-anchor="middle" dy="0.35em">+</text>
    </g>
  </g>
  <g transform="translate(94.4,14.63)">
    <g class="primitive">
      <text text-anchor="middle" dy="0.35em">x</text>
    </g>
  </g>
  <g transform="translate(69.03,8.33)">
    <g class="primitive">
      <text text-anchor="middle" dy="0.35em">constvar_28</text>
    </g>
  </g>
  <g transform="translate(72.94,18.09)">
    <g class="primitive">
      <text text-anchor="middle" dy="0.35em">NormalMeanVariance</text>
    </g>
  </g>
  <g transform="translate(127.21,10.6)">
    <g class="primitive">
      <text text-anchor="middle" dy="0.35em">y</text>
    </g>
  </g>
  <g transform="translate(126.6,24.64)">
    <g class="primitive">
      <text text-anchor="middle" dy="0.35em">constvar_32</text>
    </g>
  </g>
  <g transform="translate(114.98,15.46)">
    <g class="primitive">
      <text text-anchor="middle" dy="0.35em">NormalMeanVariance</text>
    </g>
  </g>
</g>
</svg>
