<?xml version="1.0" encoding="UTF-8" standalone="no"?><!DOCTYPE svg PUBLIC "-//W3C//DTD SVG 1.1//EN" "http://www.w3.org/Graphics/SVG/1.1/DTD/svg11.dtd"><svg width="100%" height="100%" viewBox="0 0 1281 394" version="1.1" xmlns="http://www.w3.org/2000/svg" xmlns:xlink="http://www.w3.org/1999/xlink" xml:space="preserve" xmlns:serif="http://www.serif.com/" style="fill-rule:evenodd;clip-rule:evenodd;stroke-linecap:round;stroke-linejoin:round;stroke-miterlimit:1.5;"><rect x="215.92" y="202.285" width="188.976" height="188.976" style="fill:none;stroke:#000;stroke-width:4.17px;"/><path d="M308.747,290.051c0,-0.001 0,-0.001 0,-0.001c0,0 0,0 0,0c0,0 0,0 0,0c0,0 0,0.001 0,0c0,0 0,0 0,0c0,0 0,0 0,0c0,0 0,0 0,0c0,0 0,0 0,0c0,0 0,0 0,0c0,0 0,0 0,0c0,0 0,0 0,0c0,0 0,0 0,0c0,0 0,0 0,0c0,0 0,0 0,0c0,0 0,0 0,0c0,0 0,0 0,0c0,0 0,0 0,0c0,0 0,0 0,0c0,0 0,0 0,0c0,0 0,0 0,0c0,0 0,0 0,0c0,0 0,0 0,0c0,0 0,0 0,0c0,0 0,0 0,0c0,0 0,0 0,0c0,0 0,0 0,0c0,0 0,0 0,0c0,0 0,0 0,0c0,0 0,0 0,0c0,0 0,0 0,0c0,0 0,0 0,0c0,0 0,0 0,0c0,0 0,0 0,0c0,0 0,0 0,0c0,0 0,0 0,0c0,0 0,0 0,0c0,0 0,0 0,0c0,0 0,0 0,0c0,0 0,0 0,0c0,0 0,0 0,0c0,0 0,0 0,0c0,0 0,0 0,0c0,0 0,0 0,0c0,0 0,0 0,0c0,0 0,0 0,0c0,0 0,0 0,0c0,0 0,0 0,0c0,0 0,0 0,0c0,0 0,0 0,0c0,0 0,0 0,0c0,0 0,0 0,0c0,0 0,0 0,0c0,0 0,0 0,0c0,0 0,0 0,0c0,0 0,0 0,0c0,0 0,0 0,0c0,0 0,0 0,0c0,0 0,0 0,0c0,0 0,0 0,0c0,0 0,0 0,0c0,0 0,0 0,0c0,0 0,0 0,0c0,0 0,0 0,0c0,0 0,0 0,0c0,0 0,0 0,0c0,0 0,0 0,0c0,0 0,0 0,0c0,0 0,0 0,0c0,0 0,0 0,0c0,0 0,0 0,0c0,0 0,0 0,0c0,0 0,0 0,0c0,0 0,0 0,0c0,0 0,0 0,0c0,0 0,0 0,0c0,0 0,0 0,0c0,0 0,0 0,0c0,0 0,0 0,0c0,0 0,0 0,0c0,0 0,0 0,0c0,0 0,0 0,0c0,0 0,0 0,0c0,0 0,0 0,0c0,0 0,0 0,0c0,0 0,0 0,0c0,0 0,0 0,0c0,0 0,0.001 0,0.001Z" style="fill:none;fill-rule:nonzero;stroke:#000;stroke-opacity:0;stroke-width:0.42px;stroke-linecap:butt;stroke-linejoin:miter;stroke-miterlimit:10;"/><path d="M317.107,281.197l8.927,0c2.078,0 3.117,0 3.117,-2.078c-0,-1.143 -1.039,-1.143 -2.805,-1.143l-8.62,0l2.182,-11.835c0.416,-2.182 1.87,-9.551 2.494,-10.797c0.935,-1.974 2.697,-3.533 4.879,-3.533c0.415,-0 3.117,-0 5.086,1.87c-4.567,0.416 -5.606,4.048 -5.606,5.606c0,2.39 1.87,3.637 3.845,3.637c2.696,0 5.71,-2.286 5.71,-6.234c-0,-4.775 -4.78,-7.161 -9.035,-7.161c-3.528,0 -10.07,1.866 -13.187,12.148c-0.623,2.177 -0.935,3.217 -3.429,16.299l-7.164,0c-1.97,0 -3.113,0 -3.113,1.974c0,1.247 0.935,1.247 2.909,1.247l6.853,0l-7.788,41.015c-1.87,10.074 -3.636,19.52 -9.035,19.52c-0.415,-0 -3.013,-0 -4.983,-1.866c4.775,-0.312 5.71,-4.052 5.71,-5.611c0,-2.385 -1.87,-3.632 -3.844,-3.632c-2.697,0 -5.71,2.286 -5.71,6.23c-0,4.671 4.572,7.165 8.827,7.165c5.71,-0 9.866,-6.126 11.732,-10.074c3.325,-6.542 5.71,-19.105 5.814,-19.832l6.234,-32.915" style="fill-rule:nonzero;"/><path d="M2.083,296.37l213.506,0.728" style="fill:none;stroke:#000;stroke-width:4.17px;"/><path d="M405.764,296.45l190.178,0.648" style="fill:none;stroke:#000;stroke-width:4.17px;"/><path d="M310.084,201.463l0.648,-190.178" style="fill:none;stroke:#000;stroke-width:4.17px;"/><path d="M193.32,272.713c0,-0 0,-0 0,-0c0,-0 0,-0 0,-0c0,-0 0,-0 0,-0c0,-0 0,-0 0,-0c0,-0 0,-0 0,-0c0,-0 0,-0 0,-0c0,-0 0,-0 0,-0c0,-0 0,-0 0,-0c0,-0 0,-0 0,-0c0,-0 0,-0 0,-0c0,-0 0,-0 0,-0c0,-0 0,-0 0,-0c0,-0 0,-0 0,-0c0,-0 0,-0 0,-0c0,-0 0,-0 0,-0c0,-0 0,-0 0,-0c0,-0 0,-0 0,-0c0,-0 0,-0 0,-0c0,-0 0,-0 0,-0c0,-0 0,-0 0,-0c0,-0 0,-0 0,-0c0,-0 0,-0 0,-0c0,-0 0,-0 0,-0c0,-0 0,-0 0,-0c0,-0 0,-0 0,-0c0,-0 0,-0 0,-0c0,-0 0,-0 0,-0c0,-0 0,-0 0,-0c0,-0 0,-0 0,-0c0,-0 0,-0 0,-0c0,-0 0,-0 0,-0c0,-0 0,-0 0,-0c0,-0 0,-0 0,-0c0,-0 0,-0 0,-0c0,-0 0,-0 0,-0c0,-0 0,-0 0,-0c0,-0 0,-0 0,-0c0,-0 0,-0 0,-0c0,-0 0,-0 0,-0c0,-0 0,-0 0,-0c0,-0 0,-0 0,-0c0,-0 0,-0 0,-0c0,-0 0,-0 0,-0c0,-0 0,-0 0,-0c0,-0 0,-0 0,-0c0,-0 0,-0 0,-0c0,-0 0,-0 0,-0c0,-0 0,-0 0,-0c0,-0 0,-0 0,-0c0,-0 0,-0 0,-0c0,-0 0,-0 0,-0c0,-0 0,-0 0,-0c0,-0 0,-0 0,-0c0,-0 0,-0 0,-0c0,-0 0,-0 0,-0c0,-0 0,-0 0,-0c0,-0 0,-0 0,-0c0,-0 0,-0 0,-0c0,-0 0,-0 0,-0c0,-0 0,-0 0,-0c0,-0 0,-0 0,-0c0,-0 0,-0 0,-0c0,-0 0,-0 0,-0c0,-0 0,-0 0,-0c0,-0 0,-0 0,-0c0,-0 0,-0 0,-0c0,-0 0,-0 0,-0c0,-0 0,-0 0,-0c0,-0 0,-0 0,-0c0,-0 0,-0 0,-0c0,-0 0,-0 0,-0c0,-0 0,-0 0,-0c0,-0 0,-0 0,-0c0,-0 0,-0 0,-0c0,-0 0,-0 0,-0c0,-0 0,-0 0,-0c0,-0 0,-0 0,-0c0,-0 0,-0 0,-0c0,-0 0,-0 0,-0c0,-0 0,-0 0,-0c0,-0 0,-0 0,-0c0,-0 0,-0 0,-0c0,-0 0,-0 0,-0c0,-0 0,-0 0,-0c0,-0 0,-0 0,-0c0,-0 0,-0 0,-0c0,-0 0,0 0,0Z" style="fill:none;fill-rule:nonzero;stroke:#000;stroke-opacity:0;stroke-width:0.42px;stroke-linecap:butt;stroke-linejoin:miter;stroke-miterlimit:10;"/><path d="M194.821,267.279c0.392,-1.696 1.892,-7.694 6.455,-7.694c0.323,-0 1.889,-0 3.259,0.848c-1.827,0.326 -3.129,1.957 -3.129,3.519c0,1.044 0.715,2.283 2.476,2.283c1.435,0 3.52,-1.174 3.52,-3.78c-0,-3.392 -3.846,-4.302 -6.061,-4.302c-3.783,-0 -6.063,3.454 -6.846,4.951c-1.63,-4.302 -5.15,-4.951 -7.038,-4.951c-6.781,-0 -10.496,8.408 -10.496,10.036c-0,0.652 0.652,0.652 0.783,0.652c0.521,0 0.717,-0.13 0.847,-0.717c2.215,-6.908 6.517,-8.539 8.735,-8.539c1.237,-0 3.519,0.587 3.519,4.367c0,2.022 -1.108,6.39 -3.519,15.516c-1.044,4.041 -3.326,6.777 -6.194,6.777c-0.391,0 -1.888,0 -3.258,-0.847c1.631,-0.327 3.063,-1.693 3.063,-3.52c-0,-1.758 -1.432,-2.28 -2.411,-2.28c-1.957,0 -3.584,1.693 -3.584,3.78c-0,2.998 3.258,4.302 6.125,4.302c4.302,0 6.65,-4.563 6.846,-4.954c0.78,2.411 3.128,4.954 7.039,4.954c6.712,0 10.43,-8.408 10.43,-10.039c0,-0.652 -0.587,-0.652 -0.782,-0.652c-0.587,0 -0.718,0.261 -0.848,0.718c-2.153,6.976 -6.585,8.538 -8.67,8.538c-2.541,0 -3.584,-2.084 -3.584,-4.302c-0,-1.435 0.391,-2.867 1.109,-5.737l2.214,-8.927" style="fill-rule:nonzero;"/><path d="M440.949,119.238c0,-0.001 0,-0.001 0,-0.001c0,0 -0,0 0,0c0,0 0,0 0,0c0,0 0,0 0,0c0,0 0,0 0,0c0,0 0,0 0,0c0,0 0,0 0,0c0,0 0,0 0,0c0,0 -0,0 0,0c0,0 0,0 0,0c0,0 0,0 0,0c0,0 0,0 0,0c0,0 0,0 0,0c0,0 0,0 0,0c0,0 0,0 0,0c0,0 0,0 0,0c0,0 0,0 0,0c0,0 0,0 0,0c0,0 0,0 0,0c0,0 0,0 0,0c0,0 0,0 0,0c0,0 0,0 0,0c0,0 0,0 0,0c0,0 0,0 0,0c0,0 0,0 0,0c0,0 0,0 0,0c0,0 0,0 0,0c0,0 0,0 0,0c0,0 0,0 0,0c0,0 0,0 0,0c0,0 0,0 0,0c0,0 0,0 0,0c0,0 0,0 0,0c0,0 0,0 0,0c0,0 0,0 0,0c0,0 0,0 0,0c0,0 0,0 0,0c0,0 0,0 0,0c0,0 0,0 0,0c0,0 0,0 0,0c0,0 0,0 0,0c0,0 0,0 0,0c0,0 0,0 0,0c0,0 0,0 0,0c0,0 0,0 0,0c0,0 0,0 0,0c0,0 0,0 0,0c0,0 0,0 0,0c0,0 0,0 0,0c0,0 0,0 0,0c0,0 0,0 0,0c0,0 0,0 0,0c0,0 0,0 0,0c0,0 0,0 0,0c0,0 0,0 0,0c0,0 0,0 0,0c0,0 0,0 0,0c0,0 0,0 0,0c0,0 0,0 0,0c0,0 0,0 0,0c0,0 0,0 0,0c0,0 0,0 0,0c0,0 0,0 0,0c0,0 0,0 0,0c0,0 0,0 0,0c0,0 0,0 0,0c0,0 0,0 0,0c0,0 0,0 0,0c0,0 0,0 0,0c0,0 0,0 0,0c0,0 0,0 0,0c0,0 0,0 0,0c0,0 0,0 0,0c0,0 0,0 0,0c0,0 0,0 0,0c0,0 0,0 0,0c0,0 0,0 0,0c0,0 0,0 0,0c0,0 0,0 0,0c0,0 0,0 0,0c0,0 0,0 0,0c0,0 0,0 0,0c0,0 0,0 0,0c0,0 0,0 0,0c0,0 0,0 0,0c0,0 0,0 0,0c0,0 -0,0.001 -0,0.001Z" style="fill:none;fill-rule:nonzero;stroke:#000;stroke-opacity:0;stroke-width:0.42px;stroke-linecap:butt;stroke-linejoin:miter;stroke-miterlimit:10;"/><path d="M325.938,186.819c3.519,-3.78 5.41,-5.411 7.756,-7.43c-0,-0.065 4.041,-3.519 6.389,-5.867c6.191,-6.061 7.626,-9.192 7.626,-9.453c-0,-0.649 -0.587,-0.649 -0.718,-0.649c-0.456,0 -0.652,0.13 -0.978,0.715c-1.954,3.131 -3.324,4.171 -4.886,4.171c-1.566,0 -2.348,-0.975 -3.327,-2.084c-1.236,-1.5 -2.345,-2.802 -4.498,-2.802c-4.889,0 -7.886,6.06 -7.886,7.43c-0,0.326 0.195,0.718 0.782,0.718c0.587,-0 0.718,-0.327 0.848,-0.718c1.237,-2.998 5.02,-3.063 5.539,-3.063c1.37,0 2.609,0.454 4.109,0.976c2.606,0.978 3.324,0.978 5.017,0.978c-2.345,2.805 -7.822,7.496 -9.061,8.539l-5.865,5.476c-4.432,4.368 -6.715,8.083 -6.715,8.539c-0,0.653 0.652,0.653 0.783,0.653c0.522,-0 0.652,-0.131 1.043,-0.848c1.501,-2.28 3.454,-4.041 5.542,-4.041c1.497,-0 2.149,0.587 3.78,2.475c1.109,1.37 2.28,2.414 4.172,2.414c6.451,-0 10.234,-8.278 10.234,-10.04c0,-0.326 -0.26,-0.652 -0.782,-0.652c-0.587,0 -0.718,0.392 -0.913,0.848c-1.501,4.237 -5.672,5.476 -7.822,5.476c-1.304,0 -2.478,-0.391 -3.845,-0.848c-2.218,-0.848 -3.196,-1.108 -4.563,-1.108c-0.131,-0 -1.174,-0 -1.761,0.195" style="fill-rule:nonzero;"/><g><path d="M373.417,29.98c-0,-0.001 -0,-0.001 -0,-0.001c-0,0 -0,0 -0,0c-0,0 -0,0 0,0c-0,0 -0,0.001 0,0c0,0 -0,0 -0,0c-0,0 -0,0 -0,0c-0,0 -0,0 -0,0c-0,0 -0,0 -0,0c-0,0 -0,0 -0,0c-0,0 -0,0 -0,0c-0,0 -0,0 -0,0c-0,0 -0,0 -0,0c-0,0 0,0 -0,0c0,0 -0,0 -0,0c-0,0 0,0 0,0c0,0 -0,0 -0,0c-0,0 -0,0 -0,0c0,0 -0,0 -0,0c0,0 -0,0 -0,0c-0,0 -0,0 -0,0c-0,0 -0,0 -0,0c0,0 -0,0 -0,0c-0,0 -0,0 -0,0c-0,0 0,0 -0,0c-0,0 -0,0 0,0c0,0 -0,0 -0,0c0,0 -0,0 -0,0c0,0 0,0 0,0c0,0 -0,0 0,0c-0,0 -0,0 -0,0c-0,0 0,0 -0,0c-0,0 0,0 -0,0c0,0 0,0 0,0c-0,0 -0,0 0,0c-0,0 -0,0 0,0c-0,0 -0,0 -0,0c-0,0 -0,0 -0,0c-0,0 0,0 -0,0c0,0 -0,0 0,0c-0,0 -0,0 -0,0c-0,0 -0,0 -0,0c-0,0 -0,0 -0,0c-0,0 -0,0 -0,0c0,0 -0,0 -0,0c0,0 -0,0 0,0c-0,0 -0,0 -0,0c-0,0 -0,0 -0,0c0,0 -0,0 -0,0c0,0 -0,0 -0,0c0,0 0,0 -0,0c-0,0 -0,0 -0,0c-0,0 -0,0 -0,0c0,0 0,0 -0,0c-0,0 -0,0 -0,0c-0,0 -0,0 -0,0c-0,0 0,0 -0,0c0,0 -0,0 -0,0c-0,0 0,0 -0,0c0,0 -0,0 0,0c-0,0 -0,0 -0,0c-0,0 -0,0 -0,0c-0,0 -0,0 -0,0c-0,0 -0,0 -0,0c-0,0 0,0 -0,0c-0,0 -0,0 0,0c-0,0 -0,0 -0,0c0,0 -0,0 -0,0c-0,0 0,0 0,0c-0,0 -0,0 -0,0c-0,0 0,0 -0,0c-0,0 -0,0 0,0c0,0 0,0 0,0c-0,0 -0,0 -0,0c-0,0 -0,0 -0,0c0,0 0,0 -0,0c-0,0 -0,0 -0,0c-0,0 0,0 -0,0c-0,0 -0,0 -0,0c-0,0 -0,0 0,0c-0,0 -0,0 -0,0c0,0 -0,0 -0,0c-0,0 -0,0 -0,0c-0,0 -0,0 -0,0c-0,0 0,0 -0,0c-0,0 -0,0 -0,0c-0,0 -0,0 -0,0c0,0 -0,0 -0,0c-0,0 -0,0 0,0c0,0 0,0 0,0l-0,0.001Z" style="fill:none;fill-rule:nonzero;stroke:#000;stroke-opacity:0;stroke-width:0.42px;stroke-linecap:butt;stroke-linejoin:miter;stroke-miterlimit:10;"/><path d="M353.476,9.154c-0.827,0.768 -2.775,2.421 -2.775,3.484c0,0.591 0.591,1.182 1.18,1.182c0.531,0 0.827,-0.413 1.122,-0.768c0.709,-0.886 2.069,-2.539 4.666,-3.839c0.414,-0.236 1.005,-0.532 1.005,-1.241c-0,-0.591 -0.414,-0.886 -0.827,-1.182c-1.301,-0.883 -1.951,-1.947 -2.423,-3.365c-0.116,-0.532 -0.352,-1.298 -1.18,-1.298c-0.827,0 -1.182,0.766 -1.182,1.239c0,0.295 0.473,2.186 1.419,3.424l-19.902,0c-1.005,0 -2.068,0 -2.068,1.182c-0,1.182 1.063,1.182 2.068,1.182l18.897,0" style="fill-rule:nonzero;"/><path d="M335.242,23.563c0.293,-1.239 0.884,-3.484 0.884,-3.78c-0,-1.004 -0.707,-1.592 -1.711,-1.592c-0.178,-0 -1.832,0.059 -2.364,2.124l-8.502,34.192c-0.177,0.71 -0.177,0.828 -0.177,0.946c-0,0.886 0.647,1.595 1.652,1.595c1.241,0 1.95,-1.063 2.068,-1.24c0.236,-0.532 1.002,-3.603 3.248,-12.698c1.888,1.596 4.547,1.832 5.727,1.832c4.134,-0 6.438,-2.657 7.854,-4.311c0.532,2.656 2.718,4.311 5.316,4.311c2.066,-0 3.425,-1.359 4.37,-3.248c1.005,-2.127 1.77,-5.729 1.77,-5.847c0,-0.591 -0.529,-0.591 -0.706,-0.591c-0.591,-0 -0.65,0.236 -0.827,1.064c-1.005,3.838 -2.069,7.322 -4.489,7.322c-1.596,-0 -1.773,-1.534 -1.773,-2.716c0,-1.3 0.709,-4.075 1.182,-6.143l1.655,-6.377c0.177,-0.886 0.768,-3.129 1.002,-4.016c0.295,-1.359 0.886,-3.602 0.886,-3.957c0,-1.063 -0.827,-1.595 -1.711,-1.595c-0.296,-0 -1.832,0.059 -2.305,2.068l-2.775,11.043c-0.709,2.952 -1.359,5.434 -1.536,6.025c-0.059,0.296 -2.893,5.668 -7.677,5.668c-2.952,-0 -4.37,-1.948 -4.37,-5.139c-0,-1.711 0.413,-3.365 0.827,-5.018l2.482,-9.922" style="fill-rule:nonzero;"/><path d="M376.664,58.464c-0,-0.177 -0,-0.295 -1.005,-1.297c-7.381,-7.441 -9.27,-18.605 -9.27,-27.638c0,-10.277 2.243,-20.552 9.507,-27.933c0.768,-0.71 0.768,-0.828 0.768,-1.005c-0,-0.414 -0.236,-0.591 -0.591,-0.591c-0.591,0 -5.904,4.016 -9.388,11.516c-3.014,6.497 -3.72,13.052 -3.72,18.013c-0,4.606 0.647,11.752 3.897,18.424c3.543,7.264 8.62,11.102 9.211,11.102c0.355,0 0.591,-0.177 0.591,-0.591" style="fill-rule:nonzero;"/><path d="M387.992,39.39c3.188,-3.425 4.902,-4.902 7.027,-6.732c-0,-0.059 3.661,-3.188 5.789,-5.316c5.608,-5.49 6.908,-8.327 6.908,-8.563c0,-0.588 -0.531,-0.588 -0.65,-0.588c-0.413,-0 -0.591,0.118 -0.886,0.647c-1.77,2.836 -3.011,3.779 -4.427,3.779c-1.418,0 -2.127,-0.884 -3.014,-1.888c-1.12,-1.359 -2.125,-2.538 -4.075,-2.538c-4.429,-0 -7.145,5.49 -7.145,6.731c0,0.296 0.178,0.65 0.709,0.65c0.532,0 0.65,-0.295 0.769,-0.65c1.12,-2.716 4.547,-2.775 5.017,-2.775c1.241,0 2.364,0.411 3.723,0.884c2.362,0.887 3.012,0.887 4.545,0.887c-2.124,2.541 -7.086,6.79 -8.209,7.736l-5.313,4.961c-4.016,3.957 -6.084,7.322 -6.084,7.736c0,0.591 0.591,0.591 0.709,0.591c0.473,-0 0.591,-0.118 0.946,-0.768c1.359,-2.066 3.129,-3.661 5.02,-3.661c1.357,-0 1.948,0.531 3.425,2.242c1.005,1.241 2.066,2.187 3.779,2.187c5.846,-0 9.273,-7.5 9.273,-9.095c-0,-0.296 -0.236,-0.591 -0.709,-0.591c-0.532,-0 -0.65,0.354 -0.827,0.768c-1.36,3.838 -5.139,4.961 -7.087,4.961c-1.181,0 -2.245,-0.354 -3.484,-0.768c-2.009,-0.768 -2.895,-1.005 -4.133,-1.005c-0.119,0 -1.064,0 -1.596,0.178" style="fill-rule:nonzero;"/><path d="M427.133,29.529c-0,-4.607 -0.65,-11.752 -3.898,-18.427c-3.543,-7.264 -8.623,-11.102 -9.213,-11.102c-0.355,0 -0.591,0.236 -0.591,0.591c-0,0.177 -0,0.295 1.122,1.359c5.786,5.845 9.155,15.236 9.155,27.579c-0,10.097 -2.187,20.492 -9.509,27.933c-0.768,0.707 -0.768,0.825 -0.768,1.002c-0,0.355 0.236,0.591 0.591,0.591c0.59,0 5.906,-4.016 9.39,-11.515c3.011,-6.496 3.721,-13.052 3.721,-18.011" style="fill-rule:nonzero;"/></g><g><path d="M54.706,258.734c0,-0 0,-0 0,-0c0,-0 0,-0 0,-0c0,-0 0,-0 0,-0c0,0 0,0 0,0c0,-0 0,-0 0,0c0,0 0,-0 0,0c0,-0 0,0 0,-0c0,-0 0,-0 0,-0c0,0 0,0 0,-0c0,-0 0,-0 0,-0c0,-0 0,-0 0,-0c0,-0 0,-0 0,-0c0,0 0,-0 0,-0c0,-0 0,-0 0,-0c0,0 0,-0 0,-0c0,-0 0,-0 0,-0c0,-0 0,-0 0,-0c0,-0 0,0 0,-0c0,-0 0,-0 0,-0c0,-0 0,-0 0,0c0,-0 0,-0 0,-0c0,0 0,-0 0,0c0,-0 0,0 0,-0c0,-0 0,-0 0,-0c0,0 0,-0 0,0c0,-0 0,-0 0,-0c0,-0 0,-0 0,0c0,-0 0,-0 0,0c0,-0 0,-0 0,-0c0,0 0,0 0,0c0,-0 0,-0 0,-0c0,-0 0,-0 0,-0c0,-0 0,-0 0,-0c0,-0 0,-0 0,-0c0,0 0,-0 0,-0c0,-0 0,-0 0,-0c0,-0 0,-0 0,-0c0,-0 0,0 0,-0c0,-0 0,-0 0,-0c0,-0 0,-0 0,-0c0,-0 0,-0 0,-0c0,0 0,-0 0,-0c0,-0 0,-0 0,-0c0,0 0,-0 0,-0c0,-0 0,-0 0,-0c0,-0 0,-0 0,-0c0,-0 0,-0 0,0c0,-0 0,-0 0,-0c0,-0 0,-0 0,-0c0,-0 0,-0 0,-0c0,-0 0,-0 0,0c0,-0 0,-0 0,-0c0,0 0,-0 0,-0c0,-0 0,-0 0,-0c0,0 0,-0 0,0c0,0 0,-0 0,-0c0,-0 0,-0 0,-0c0,-0 0,-0 0,-0c0,-0 0,-0 0,-0c0,-0 0,-0 0,-0c0,-0 0,-0 0,-0c0,-0 0,0 0,-0c0,-0 0,-0 0,-0c0,-0 0,-0 0,-0c0,0 0,-0 0,-0c0,-0 0,-0 0,-0c0,-0 0,-0 0,-0c0,-0 0,-0 0,-0c0,-0 0,-0 0,-0c0,-0 0,-0 0,-0c0,-0 0,-0 0,-0c0,-0 0,-0 0,-0c0,-0 0,-0 0,-0c0,-0 0,-0 0,-0c0,-0 0,-0 0,-0c0,0 0,0 0,-0c0,0 0,-0 0,-0c0,-0 0,-0 0,-0c0,-0 0,-0 0,-0c0,-0 0,-0 0,-0c0,-0 0,-0 0,-0c0,-0 0,-0 0,-0c0,-0 0,-0 0,-0c0,-0 0,-0 0,-0c0,-0 0,-0 0,-0c0,0 0,-0 0,0c0,-0 0,-0 0,-0c0,0 0,0 0,-0c0,-0 0,-0 0,0l0,0Z" style="fill:none;fill-rule:nonzero;stroke:#000;stroke-opacity:0;stroke-width:0.42px;stroke-linecap:butt;stroke-linejoin:miter;stroke-miterlimit:10;"/><path d="M32.779,237.909c-0.827,0.768 -2.775,2.42 -2.775,3.484c0,0.591 0.591,1.182 1.18,1.182c0.532,-0 0.827,-0.414 1.122,-0.768c0.71,-0.887 2.069,-2.539 4.666,-3.839c0.414,-0.236 1.005,-0.532 1.005,-1.241c-0,-0.591 -0.414,-0.886 -0.827,-1.182c-1.301,-0.884 -1.951,-1.947 -2.423,-3.366c-0.116,-0.532 -0.352,-1.297 -1.18,-1.297c-0.827,-0 -1.181,0.765 -1.181,1.238c-0,0.296 0.472,2.187 1.418,3.425l-19.902,0c-1.005,0 -2.068,0 -2.068,1.182c-0,1.182 1.063,1.182 2.068,1.182l18.897,-0" style="fill-rule:nonzero;"/><path d="M14.545,252.317c0.293,-1.238 0.884,-3.484 0.884,-3.779c-0,-1.005 -0.707,-1.593 -1.711,-1.593c-0.178,0 -1.832,0.059 -2.364,2.125l-8.502,34.192c-0.177,0.709 -0.177,0.827 -0.177,0.946c-0,0.886 0.647,1.595 1.652,1.595c1.241,0 1.95,-1.064 2.068,-1.241c0.236,-0.532 1.002,-3.602 3.248,-12.697c1.888,1.595 4.547,1.832 5.727,1.832c4.134,-0 6.438,-2.657 7.854,-4.312c0.532,2.657 2.718,4.312 5.316,4.312c2.066,-0 3.425,-1.36 4.37,-3.248c1.005,-2.127 1.77,-5.73 1.77,-5.848c0,-0.591 -0.529,-0.591 -0.706,-0.591c-0.591,0 -0.65,0.237 -0.827,1.064c-1.005,3.838 -2.069,7.322 -4.489,7.322c-1.595,0 -1.773,-1.533 -1.773,-2.715c0,-1.3 0.709,-4.075 1.182,-6.143l1.655,-6.377c0.177,-0.887 0.768,-3.13 1.002,-4.016c0.295,-1.359 0.886,-3.602 0.886,-3.957c0,-1.064 -0.827,-1.595 -1.711,-1.595c-0.295,-0 -1.832,0.059 -2.305,2.068l-2.775,11.043c-0.709,2.952 -1.359,5.434 -1.536,6.025c-0.059,0.295 -2.893,5.667 -7.677,5.667c-2.952,0 -4.37,-1.947 -4.37,-5.138c-0,-1.711 0.413,-3.366 0.827,-5.018l2.482,-9.923" style="fill-rule:nonzero;"/><path d="M55.967,287.219c0,-0.178 0,-0.296 -1.005,-1.298c-7.381,-7.44 -9.27,-18.604 -9.27,-27.638c0,-10.277 2.243,-20.551 9.507,-27.933c0.768,-0.709 0.768,-0.827 0.768,-1.005c0,-0.413 -0.236,-0.59 -0.591,-0.59c-0.591,-0 -5.904,4.015 -9.388,11.515c-3.014,6.498 -3.72,13.052 -3.72,18.013c-0,4.607 0.647,11.752 3.897,18.425c3.543,7.263 8.62,11.102 9.211,11.102c0.355,-0 0.591,-0.178 0.591,-0.591" style="fill-rule:nonzero;"/><path d="M79.001,255.213c0.354,-1.536 1.713,-6.97 5.847,-6.97c0.293,-0 1.712,-0 2.953,0.768c-1.655,0.295 -2.834,1.773 -2.834,3.188c-0,0.946 0.647,2.069 2.243,2.069c1.3,-0 3.188,-1.064 3.188,-3.425c0,-3.073 -3.484,-3.898 -5.49,-3.898c-3.428,0 -5.494,3.129 -6.203,4.486c-1.477,-3.898 -4.666,-4.486 -6.377,-4.486c-6.143,0 -9.509,7.618 -9.509,9.093c0,0.591 0.591,0.591 0.709,0.591c0.473,-0 0.651,-0.119 0.769,-0.65c2.006,-6.259 5.904,-7.736 7.913,-7.736c1.12,-0 3.189,0.531 3.189,3.956c-0,1.832 -1.005,5.789 -3.189,14.057c-0.945,3.661 -3.014,6.14 -5.611,6.14c-0.355,0 -1.711,0 -2.952,-0.768c1.477,-0.295 2.774,-1.534 2.774,-3.188c0,-1.593 -1.297,-2.066 -2.183,-2.066c-1.773,0 -3.248,1.534 -3.248,3.425c0,2.716 2.952,3.898 5.55,3.898c3.897,-0 6.025,-4.135 6.202,-4.489c0.707,2.184 2.834,4.489 6.377,4.489c6.081,-0 9.45,-7.618 9.45,-9.096c-0,-0.591 -0.532,-0.591 -0.709,-0.591c-0.532,0 -0.65,0.237 -0.769,0.65c-1.95,6.321 -5.965,7.736 -7.854,7.736c-2.302,0 -3.247,-1.888 -3.247,-3.897c-0,-1.3 0.354,-2.598 1.004,-5.198l2.007,-8.088" style="fill-rule:nonzero;"/><path d="M110.053,258.283c0,-4.606 -0.65,-11.752 -3.897,-18.427c-3.543,-7.263 -8.623,-11.101 -9.214,-11.101c-0.355,-0 -0.591,0.236 -0.591,0.59c0,0.178 0,0.296 1.123,1.36c5.786,5.845 9.154,15.235 9.154,27.578c0,10.098 -2.186,20.493 -9.509,27.934c-0.768,0.706 -0.768,0.824 -0.768,1.002c0,0.354 0.236,0.591 0.591,0.591c0.591,-0 5.907,-4.016 9.391,-11.516c3.011,-6.495 3.72,-13.052 3.72,-18.011" style="fill-rule:nonzero;"/></g><g><path d="M901.859,258.589c0,-0 0,-0 0,-0c0,-0 -0,-0 0,-0c-0,-0 0,-0 0,-0c-0,-0 0,-0 0,-0c0,-0 0,-0 -0,-0c0,-0 0,-0 -0,-0c0,-0 0,-0 0,-0c0,-0 0,-0 0,-0c-0,-0 -0,-0 0,-0c0,-0 0,-0 0,-0c0,-0 0,-0 0,-0c0,-0 0,-0 -0,-0c0,-0 0,-0 0,-0c0,-0 0,-0 0,-0c0,-0 0,-0 -0,-0c0,-0 0,-0 0,-0c0,-0 0,-0 0,-0c0,-0 0,-0 -0,-0c0,-0 0,-0 0,-0c0,-0 0,-0 0,-0c0,-0 0,-0 -0,-0c0,-0 0,-0 0,-0c0,-0 0,-0 0,-0c0,-0 0,-0 0,-0c0,-0 0,-0 0,-0c-0,-0 0,-0 0,-0c0,-0 0,-0 0,-0c-0,-0 0,-0 -0,-0c0,-0 0,-0 0,-0c0,-0 0,-0 0,-0c-0,-0 0,-0 0,-0c0,-0 0,-0 0,-0c0,-0 0,-0 0,-0c0,-0 0,-0 0,-0c0,-0 0,-0 0,-0c0,-0 0,-0 0,-0c0,-0 0,-0 -0,-0c0,-0 0,-0 0,-0c0,-0 0,-0 0,-0c0,-0 -0,-0 0,-0c0,-0 0,-0 0,-0c0,-0 0,-0 0,-0c0,-0 0,-0 0,-0c0,-0 -0,-0 0,-0c-0,-0 0,-0 0,-0c-0,-0 0,-0 0,-0c-0,-0 0,-0 -0,-0c0,-0 0,-0 -0,-0c-0,-0 0,-0 0,-0c0,-0 0,-0 -0,-0c0,-0 -0,-0 0,-0c0,-0 0,-0 0,-0c0,-0 0,-0 0,-0c0,-0 0,-0 0,-0c0,-0 0,-0 -0,-0c0,-0 0,-0 0,-0c0,-0 0,-0 0,-0c-0,-0 0,-0 0,-0c0,-0 0,-0 0,-0c0,-0 0,-0 0,-0c0,-0 0,-0 0,-0c0,-0 0,-0 0,-0c0,-0 0,-0 -0,-0c0,-0 -0,-0 0,-0c0,-0 0,-0 -0,-0c-0,-0 0,-0 0,-0c0,-0 0,-0 0,-0c0,-0 0,-0 -0,-0c0,-0 0,-0 0,-0c0,-0 -0,-0 0,-0c-0,-0 -0,-0 0,-0c0,-0 0,-0 0,-0c0,-0 0,-0 0,-0c0,-0 0,-0 0,-0c0,-0 -0,-0 0,-0c0,-0 0,-0 0,-0c0,-0 0,-0 0,-0c0,-0 0,-0 0,-0c0,-0 -0,-0 0,-0c-0,-0 0,-0 0,-0c0,-0 -0,-0 0,-0c0,-0 0,-0 0,-0c0,-0 -0,-0 -0,-0c0,-0 0,-0 0,-0c0,-0 0,-0 -0,-0c0,-0 0,-0 0,-0c0,-0 0,-0 -0,-0c0,-0 0,-0 -0,-0c0,-0 -0,-0 -0,-0c0,-0 0,-0 -0,-0c0,-0 0,-0 -0,-0c0,-0 0,-0 0,-0c0,-0 0,-0 0,-0c0,-0 0,-0 0,-0c0,-0 0,-0 0,-0c0,-0 0,-0 0,-0c0,-0 -0,-0 -0,-0Z" style="fill:none;fill-rule:nonzero;stroke:#000;stroke-opacity:0;stroke-width:0.42px;stroke-linecap:butt;stroke-linejoin:miter;stroke-miterlimit:10;"/><path d="M551.607,240.043c-0.745,0.691 -2.498,2.178 -2.498,3.136c0,0.532 0.532,1.063 1.062,1.063c0.479,0 0.745,-0.372 1.01,-0.691c0.639,-0.798 1.862,-2.285 4.2,-3.455c0.372,-0.213 0.904,-0.479 0.904,-1.117c0,-0.532 -0.372,-0.798 -0.744,-1.064c-1.171,-0.795 -1.756,-1.753 -2.181,-3.029c-0.104,-0.479 -0.317,-1.168 -1.062,-1.168c-0.744,-0 -1.063,0.689 -1.063,1.115c-0,0.266 0.425,1.968 1.276,3.082l-17.913,0c-0.904,0 -1.862,0 -1.862,1.064c0,1.064 0.958,1.064 1.862,1.064l17.009,-0" style="fill-rule:nonzero;"/><path d="M535.195,253.012c0.263,-1.115 0.795,-3.136 0.795,-3.402c0,-0.904 -0.636,-1.434 -1.54,-1.434c-0.16,0 -1.649,0.053 -2.128,1.913l-7.652,30.775c-0.159,0.639 -0.159,0.745 -0.159,0.851c-0,0.798 0.582,1.437 1.487,1.437c1.116,-0 1.755,-0.958 1.861,-1.117c0.213,-0.479 0.902,-3.243 2.923,-11.429c1.7,1.436 4.093,1.649 5.155,1.649c3.721,-0 5.795,-2.391 7.07,-3.881c0.478,2.391 2.446,3.881 4.784,3.881c1.86,-0 3.083,-1.224 3.934,-2.923c0.904,-1.915 1.593,-5.157 1.593,-5.264c0,-0.532 -0.476,-0.532 -0.636,-0.532c-0.532,0 -0.585,0.213 -0.744,0.958c-0.905,3.455 -1.862,6.591 -4.04,6.591c-1.436,-0 -1.596,-1.381 -1.596,-2.445c-0,-1.17 0.638,-3.668 1.064,-5.529l1.489,-5.74c0.16,-0.798 0.692,-2.817 0.902,-3.615c0.266,-1.223 0.798,-3.242 0.798,-3.561c-0,-0.957 -0.745,-1.436 -1.54,-1.436c-0.266,-0 -1.649,0.053 -2.075,1.862l-2.497,9.939c-0.639,2.657 -1.224,4.891 -1.383,5.423c-0.053,0.266 -2.604,5.102 -6.91,5.102c-2.657,-0 -3.934,-1.753 -3.934,-4.626c0,-1.54 0.372,-3.029 0.745,-4.516l2.234,-8.931" style="fill-rule:nonzero;"/><path d="M572.478,284.426c-0,-0.16 -0,-0.266 -0.904,-1.168c-6.644,-6.697 -8.344,-16.745 -8.344,-24.876c0,-9.251 2.019,-18.499 8.557,-25.143c0.691,-0.638 0.691,-0.744 0.691,-0.904c-0,-0.372 -0.213,-0.532 -0.532,-0.532c-0.532,0 -5.314,3.615 -8.45,10.365c-2.713,5.849 -3.349,11.748 -3.349,16.214c0,4.146 0.583,10.577 3.509,16.583c3.189,6.538 7.758,9.993 8.29,9.993c0.319,-0 0.532,-0.16 0.532,-0.532" style="fill-rule:nonzero;"/><path d="M601.29,251.418c0.213,-0.744 0.213,-0.851 0.213,-1.223c0,-0.957 -0.745,-1.436 -1.542,-1.436c-0.532,-0 -1.381,0.319 -1.86,1.117c-0.106,0.266 -0.532,1.915 -0.744,2.87c-0.373,1.383 -0.745,2.819 -1.064,4.253l-2.391,9.567c-0.213,0.798 -2.498,4.519 -6.006,4.519c-2.713,-0 -3.298,-2.338 -3.298,-4.306c0,-2.445 0.904,-5.74 2.713,-10.419c0.849,-2.178 1.061,-2.763 1.061,-3.827c0,-2.391 -1.699,-4.357 -4.357,-4.357c-5.05,0 -7.016,7.706 -7.016,8.184c0,0.532 0.53,0.532 0.636,0.532c0.532,0 0.585,-0.106 0.851,-0.957c1.436,-4.995 3.561,-6.591 5.37,-6.591c0.425,0 1.327,0 1.327,1.702c0,1.328 -0.532,2.71 -0.902,3.721c-2.127,5.633 -3.085,8.663 -3.085,11.163c0,4.729 3.349,6.325 6.487,6.325c2.072,-0 3.878,-0.904 5.368,-2.391c-0.692,2.763 -1.33,5.367 -3.455,8.184c-1.383,1.808 -3.402,3.348 -5.847,3.348c-0.744,0 -3.135,-0.159 -4.04,-2.231c0.851,-0 1.541,-0 2.285,-0.639c0.532,-0.478 1.064,-1.17 1.064,-2.178c-0,-1.649 -1.436,-1.862 -1.968,-1.862c-1.221,0 -2.976,0.851 -2.976,3.455c-0,2.658 2.34,4.626 5.635,4.626c5.474,-0 10.951,-4.838 12.438,-10.844l5.103,-20.305" style="fill-rule:nonzero;"/><path d="M618.792,258.382c-0,-4.147 -0.585,-10.578 -3.508,-16.586c-3.189,-6.538 -7.761,-9.993 -8.293,-9.993c-0.319,0 -0.532,0.213 -0.532,0.532c0,0.16 0,0.266 1.011,1.223c5.207,5.262 8.239,13.714 8.239,24.824c0,9.088 -1.968,18.445 -8.558,25.142c-0.692,0.636 -0.692,0.742 -0.692,0.902c0,0.319 0.213,0.532 0.532,0.532c0.532,-0 5.316,-3.615 8.452,-10.365c2.711,-5.846 3.349,-11.748 3.349,-16.211" style="fill-rule:nonzero;"/><path d="M675.268,249.131c0.903,0 1.912,0 1.912,-1.061c0,-1.064 -0.957,-1.064 -1.86,-1.064l-31.733,-0c-0.904,-0 -1.861,-0 -1.861,1.064c-0,1.061 1.064,1.061 1.915,1.061l31.627,0Zm0.052,20.626c0.903,0 1.86,0 1.86,-1.064c0,-1.063 -1.009,-1.063 -1.912,-1.063l-31.627,-0c-0.851,-0 -1.915,-0 -1.915,1.063c-0,1.064 0.957,1.064 1.861,1.064l31.733,0Zm-0,-10.314c0.903,0 1.86,0 1.86,-1.061c0,-1.064 -0.957,-1.064 -1.86,-1.064l-31.733,-0c-0.904,-0 -1.861,-0 -1.861,1.064c-0,1.061 0.957,1.061 1.861,1.061l31.733,0" style="fill-rule:nonzero;"/><path d="M700.423,315.162c1.702,-0.106 2.606,-1.276 2.606,-2.606c0,-1.753 -1.329,-2.604 -2.553,-2.604c-1.274,0 -2.603,0.798 -2.603,2.657c-0,2.711 2.657,4.944 5.901,4.944c8.078,0 11.108,-12.439 14.882,-27.852c4.094,-16.799 7.548,-33.754 10.418,-50.817c1.968,-11.322 3.934,-21.953 5.742,-28.81c0.638,-2.604 2.444,-9.461 4.519,-9.461c1.647,0 2.976,1.009 3.19,1.221c-1.756,0.107 -2.66,1.277 -2.66,2.607c-0,1.753 1.329,2.604 2.553,2.604c1.274,-0 2.603,-0.798 2.603,-2.657c0,-2.873 -2.869,-4.945 -5.793,-4.945c-4.04,0 -7.015,5.793 -9.941,16.637c-0.16,0.585 -7.388,27.27 -13.235,62.032c-1.383,8.134 -2.923,17.009 -4.678,24.398c-0.955,3.881 -3.403,13.873 -7.705,13.873c-1.915,0 -3.193,-1.221 -3.246,-1.221" style="fill-rule:nonzero;"/><path d="M776.271,250.408l4.571,-0c1.064,-0 1.595,-0 1.595,-1.064c0,-0.585 -0.531,-0.585 -1.436,-0.585l-4.413,-0l1.117,-6.059c0.213,-1.117 0.958,-4.889 1.278,-5.527c0.478,-1.011 1.379,-1.809 2.496,-1.809c0.214,0 1.596,0 2.604,0.958c-2.337,0.213 -2.87,2.072 -2.87,2.87c0,1.223 0.958,1.862 1.968,1.862c1.381,-0 2.924,-1.171 2.924,-3.192c-0,-2.444 -2.447,-3.665 -4.626,-3.665c-1.805,-0 -5.155,0.955 -6.75,6.218c-0.32,1.115 -0.478,1.647 -1.755,8.344l-3.668,-0c-1.008,-0 -1.594,-0 -1.594,1.011c-0,0.638 0.48,0.638 1.49,0.638l3.508,-0l-3.987,20.996c-0.958,5.157 -1.862,9.992 -4.625,9.992c-0.212,0 -1.542,0 -2.55,-0.955c2.443,-0.159 2.923,-2.074 2.923,-2.872c-0,-1.221 -0.958,-1.859 -1.969,-1.859c-1.381,-0 -2.923,1.17 -2.923,3.189c0,2.391 2.34,3.668 4.519,3.668c2.923,-0 5.051,-3.136 6.006,-5.158c1.702,-3.348 2.923,-9.779 2.976,-10.152l3.191,-16.849" style="fill-rule:nonzero;"/><path d="M806.03,284.426c0,-0.16 0,-0.266 -0.904,-1.168c-6.644,-6.697 -8.344,-16.745 -8.344,-24.876c-0,-9.251 2.018,-18.499 8.556,-25.143c0.692,-0.638 0.692,-0.744 0.692,-0.904c0,-0.372 -0.213,-0.532 -0.532,-0.532c-0.532,0 -5.314,3.615 -8.45,10.365c-2.713,5.849 -3.349,11.748 -3.349,16.214c-0,4.146 0.583,10.577 3.509,16.583c3.188,6.538 7.758,9.993 8.29,9.993c0.319,-0 0.532,-0.16 0.532,-0.532" style="fill-rule:nonzero;"/><path d="M826.91,255.618c0.319,-1.383 1.543,-6.274 5.264,-6.274c0.264,0 1.539,0 2.657,0.691c-1.489,0.266 -2.552,1.596 -2.552,2.87c0,0.851 0.583,1.862 2.02,1.862c1.17,0 2.87,-0.957 2.87,-3.083c0,-2.766 -3.136,-3.508 -4.942,-3.508c-3.086,0 -4.945,2.817 -5.582,4.038c-1.331,-3.508 -4.201,-4.038 -5.74,-4.038c-5.53,0 -8.559,6.857 -8.559,8.184c-0,0.532 0.531,0.532 0.638,0.532c0.425,0 0.584,-0.106 0.691,-0.585c1.806,-5.633 5.315,-6.963 7.123,-6.963c1.008,0 2.87,0.479 2.87,3.561c0,1.649 -0.904,5.211 -2.87,12.653c-0.851,3.295 -2.713,5.527 -5.051,5.527c-0.318,-0 -1.539,-0 -2.657,-0.692c1.329,-0.266 2.497,-1.38 2.497,-2.87c0,-1.434 -1.168,-1.859 -1.965,-1.859c-1.596,-0 -2.923,1.381 -2.923,3.083c-0,2.444 2.658,3.508 4.995,3.508c3.509,-0 5.423,-3.721 5.582,-4.04c0.637,1.965 2.552,4.04 5.74,4.04c5.475,-0 8.506,-6.857 8.506,-8.187c-0,-0.532 -0.478,-0.532 -0.638,-0.532c-0.48,0 -0.585,0.213 -0.691,0.585c-1.755,5.689 -5.37,6.964 -7.07,6.964c-2.072,-0 -2.923,-1.7 -2.923,-3.509c-0,-1.17 0.319,-2.338 0.904,-4.678l1.806,-7.28" style="fill-rule:nonzero;"/><path d="M850.288,271.617c0,-3.509 -1.33,-5.581 -3.402,-5.581c-1.756,0 -2.817,1.328 -2.817,2.817c0,1.434 1.061,2.817 2.817,2.817c0.638,-0 1.33,-0.213 1.859,-0.692c0.16,-0.106 0.213,-0.159 0.266,-0.159c0.053,-0 0.107,0.053 0.107,0.798c-0,3.933 -1.859,7.122 -3.615,8.877c-0.584,0.583 -0.584,0.69 -0.584,0.849c-0,0.372 0.265,0.585 0.531,0.585c0.585,0 4.838,-4.093 4.838,-10.311" style="fill-rule:nonzero;"/><path d="M888.864,251.418c0.212,-0.744 0.212,-0.851 0.212,-1.223c0,-0.957 -0.744,-1.436 -1.542,-1.436c-0.532,-0 -1.381,0.319 -1.859,1.117c-0.107,0.266 -0.531,1.915 -0.745,2.87c-0.373,1.383 -0.744,2.819 -1.064,4.253l-2.39,9.567c-0.213,0.798 -2.498,4.519 -6.006,4.519c-2.713,-0 -3.298,-2.338 -3.298,-4.306c0,-2.445 0.905,-5.74 2.712,-10.419c0.849,-2.178 1.063,-2.763 1.063,-3.827c-0,-2.391 -1.701,-4.357 -4.358,-4.357c-5.051,0 -7.017,7.706 -7.017,8.184c0,0.532 0.53,0.532 0.637,0.532c0.531,0 0.584,-0.106 0.851,-0.957c1.435,-4.995 3.561,-6.591 5.369,-6.591c0.427,0 1.328,0 1.328,1.702c0,1.328 -0.531,2.71 -0.901,3.721c-2.129,5.633 -3.086,8.663 -3.086,11.163c-0,4.729 3.349,6.325 6.487,6.325c2.072,-0 3.878,-0.904 5.368,-2.391c-0.693,2.763 -1.331,5.367 -3.456,8.184c-1.382,1.808 -3.401,3.348 -5.846,3.348c-0.745,0 -3.136,-0.159 -4.041,-2.231c0.851,-0 1.541,-0 2.285,-0.639c0.533,-0.478 1.065,-1.17 1.065,-2.178c-0,-1.649 -1.436,-1.862 -1.969,-1.862c-1.221,0 -2.976,0.851 -2.976,3.455c-0,2.658 2.341,4.626 5.636,4.626c5.475,-0 10.951,-4.838 12.437,-10.844l5.104,-20.305" style="fill-rule:nonzero;"/><path d="M901.794,271.617c0,-3.509 -1.33,-5.581 -3.403,-5.581c-1.755,0 -2.816,1.328 -2.816,2.817c-0,1.434 1.061,2.817 2.816,2.817c0.638,-0 1.331,-0.213 1.859,-0.692c0.16,-0.106 0.214,-0.159 0.267,-0.159c0.053,-0 0.106,0.053 0.106,0.798c0,3.933 -1.859,7.122 -3.614,8.877c-0.585,0.583 -0.585,0.69 -0.585,0.849c0,0.372 0.265,0.585 0.532,0.585c0.584,0 4.838,-4.093 4.838,-10.311" style="fill-rule:nonzero;"/><path d="M921.606,267.257c2.87,-3.082 4.412,-4.412 6.324,-6.059c0,-0.053 3.296,-2.87 5.21,-4.784c5.048,-4.942 6.219,-7.496 6.219,-7.708c0,-0.53 -0.479,-0.53 -0.584,-0.53c-0.373,0 -0.533,0.107 -0.798,0.583c-1.594,2.553 -2.712,3.402 -3.986,3.402c-1.276,-0 -1.914,-0.796 -2.711,-1.7c-1.01,-1.223 -1.914,-2.285 -3.669,-2.285c-3.986,0 -6.431,4.942 -6.431,6.059c-0,0.266 0.16,0.585 0.638,0.585c0.479,0 0.586,-0.266 0.692,-0.585c1.008,-2.444 4.093,-2.497 4.516,-2.497c1.117,-0 2.128,0.37 3.351,0.795c2.125,0.798 2.71,0.798 4.091,0.798c-1.913,2.287 -6.378,6.112 -7.389,6.963l-4.782,4.466c-3.614,3.561 -5.476,6.591 -5.476,6.963c0,0.532 0.531,0.532 0.638,0.532c0.426,-0 0.531,-0.107 0.851,-0.692c1.224,-1.859 2.816,-3.295 4.519,-3.295c1.221,-0 1.753,0.479 3.082,2.019c0.905,1.117 1.859,1.968 3.402,1.968c5.261,-0 8.346,-6.751 8.346,-8.187c-0,-0.266 -0.212,-0.532 -0.638,-0.532c-0.478,0 -0.585,0.319 -0.745,0.692c-1.222,3.455 -4.625,4.465 -6.377,4.465c-1.064,0 -2.022,-0.319 -3.136,-0.691c-1.809,-0.692 -2.607,-0.904 -3.721,-0.904c-0.107,-0 -0.958,-0 -1.436,0.159" style="fill-rule:nonzero;"/><path d="M956.984,258.382c-0,-4.147 -0.586,-10.578 -3.51,-16.586c-3.188,-6.538 -7.759,-9.993 -8.292,-9.993c-0.318,0 -0.532,0.213 -0.532,0.532c0,0.16 0,0.266 1.011,1.223c5.207,5.262 8.24,13.714 8.24,24.824c-0,9.088 -1.969,18.445 -8.559,25.142c-0.692,0.636 -0.692,0.742 -0.692,0.902c0,0.319 0.214,0.532 0.532,0.532c0.533,-0 5.316,-3.615 8.452,-10.365c2.71,-5.846 3.35,-11.748 3.35,-16.211" style="fill-rule:nonzero;"/><path d="M974.473,253.012c0.264,-1.115 0.795,-3.136 0.795,-3.402c0,-0.904 -0.635,-1.434 -1.539,-1.434c-0.16,0 -1.649,0.053 -2.128,1.913l-7.652,30.775c-0.16,0.639 -0.16,0.745 -0.16,0.851c-0,0.798 0.583,1.437 1.487,1.437c1.118,-0 1.756,-0.958 1.862,-1.117c0.212,-0.479 0.902,-3.243 2.923,-11.429c1.699,1.436 4.093,1.649 5.154,1.649c3.722,-0 5.796,-2.391 7.07,-3.881c0.478,2.391 2.447,3.881 4.785,3.881c1.859,-0 3.083,-1.224 3.934,-2.923c0.904,-1.915 1.593,-5.157 1.593,-5.264c-0,-0.532 -0.477,-0.532 -0.635,-0.532c-0.533,0 -0.586,0.213 -0.746,0.958c-0.905,3.455 -1.861,6.591 -4.039,6.591c-1.437,-0 -1.596,-1.381 -1.596,-2.445c0,-1.17 0.638,-3.668 1.063,-5.529l1.49,-5.74c0.159,-0.798 0.691,-2.817 0.902,-3.615c0.266,-1.223 0.797,-3.242 0.797,-3.561c0,-0.957 -0.744,-1.436 -1.54,-1.436c-0.265,-0 -1.649,0.053 -2.074,1.862l-2.498,9.939c-0.638,2.657 -1.223,4.891 -1.383,5.423c-0.053,0.266 -2.603,5.102 -6.91,5.102c-2.657,-0 -3.934,-1.753 -3.934,-4.626c0,-1.54 0.373,-3.029 0.746,-4.516l2.233,-8.931" style="fill-rule:nonzero;"/><path d="M1011.76,284.426c0,-0.16 0,-0.266 -0.904,-1.168c-6.644,-6.697 -8.345,-16.745 -8.345,-24.876c0,-9.251 2.019,-18.499 8.557,-25.143c0.692,-0.638 0.692,-0.744 0.692,-0.904c0,-0.372 -0.213,-0.532 -0.533,-0.532c-0.531,0 -5.313,3.615 -8.449,10.365c-2.713,5.849 -3.349,11.748 -3.349,16.214c-0,4.146 0.583,10.577 3.509,16.583c3.188,6.538 7.758,9.993 8.289,9.993c0.32,-0 0.533,-0.16 0.533,-0.532" style="fill-rule:nonzero;"/><path d="M1032.64,255.618c0.32,-1.383 1.544,-6.274 5.265,-6.274c0.263,0 1.539,0 2.657,0.691c-1.489,0.266 -2.552,1.596 -2.552,2.87c-0,0.851 0.583,1.862 2.02,1.862c1.169,0 2.87,-0.957 2.87,-3.083c0,-2.766 -3.136,-3.508 -4.942,-3.508c-3.086,0 -4.945,2.817 -5.583,4.038c-1.33,-3.508 -4.2,-4.038 -5.739,-4.038c-5.53,0 -8.559,6.857 -8.559,8.184c-0,0.532 0.531,0.532 0.638,0.532c0.424,0 0.584,-0.106 0.691,-0.585c1.805,-5.633 5.315,-6.963 7.123,-6.963c1.008,0 2.87,0.479 2.87,3.561c0,1.649 -0.904,5.211 -2.87,12.653c-0.851,3.295 -2.713,5.527 -5.051,5.527c-0.318,-0 -1.539,-0 -2.657,-0.692c1.329,-0.266 2.497,-1.38 2.497,-2.87c-0,-1.434 -1.168,-1.859 -1.966,-1.859c-1.595,-0 -2.923,1.381 -2.923,3.083c0,2.444 2.659,3.508 4.996,3.508c3.509,-0 5.422,-3.721 5.582,-4.04c0.637,1.965 2.552,4.04 5.74,4.04c5.475,-0 8.506,-6.857 8.506,-8.187c-0,-0.532 -0.478,-0.532 -0.638,-0.532c-0.48,0 -0.585,0.213 -0.691,0.585c-1.756,5.689 -5.37,6.964 -7.071,6.964c-2.072,-0 -2.923,-1.7 -2.923,-3.509c0,-1.17 0.32,-2.338 0.905,-4.678l1.805,-7.28" style="fill-rule:nonzero;"/><path d="M1060.59,258.382c0,-4.147 -0.586,-10.578 -3.509,-16.586c-3.188,-6.538 -7.76,-9.993 -8.293,-9.993c-0.318,0 -0.531,0.213 -0.531,0.532c-0,0.16 -0,0.266 1.011,1.223c5.207,5.262 8.239,13.714 8.239,24.824c0,9.088 -1.968,18.445 -8.559,25.142c-0.691,0.636 -0.691,0.742 -0.691,0.902c-0,0.319 0.213,0.532 0.531,0.532c0.533,-0 5.317,-3.615 8.453,-10.365c2.71,-5.846 3.349,-11.748 3.349,-16.211" style="fill-rule:nonzero;"/><path d="M1078.08,253.012c0.263,-1.115 0.795,-3.136 0.795,-3.402c-0,-0.904 -0.635,-1.434 -1.54,-1.434c-0.159,0 -1.648,0.053 -2.128,1.913l-7.652,30.775c-0.16,0.639 -0.16,0.745 -0.16,0.851c0,0.798 0.583,1.437 1.488,1.437c1.117,-0 1.755,-0.958 1.862,-1.117c0.211,-0.479 0.901,-3.243 2.923,-11.429c1.699,1.436 4.092,1.649 5.153,1.649c3.723,-0 5.796,-2.391 7.071,-3.881c0.478,2.391 2.446,3.881 4.785,3.881c1.858,-0 3.082,-1.224 3.933,-2.923c0.905,-1.915 1.593,-5.157 1.593,-5.264c0,-0.532 -0.477,-0.532 -0.635,-0.532c-0.533,0 -0.586,0.213 -0.746,0.958c-0.904,3.455 -1.86,6.591 -4.039,6.591c-1.437,-0 -1.595,-1.381 -1.595,-2.445c-0,-1.17 0.637,-3.668 1.062,-5.529l1.491,-5.74c0.158,-0.798 0.691,-2.817 0.901,-3.615c0.266,-1.223 0.798,-3.242 0.798,-3.561c-0,-0.957 -0.745,-1.436 -1.541,-1.436c-0.265,-0 -1.649,0.053 -2.074,1.862l-2.498,9.939c-0.638,2.657 -1.222,4.891 -1.382,5.423c-0.053,0.266 -2.604,5.102 -6.911,5.102c-2.656,-0 -3.934,-1.753 -3.934,-4.626c0,-1.54 0.373,-3.029 0.746,-4.516l2.234,-8.931" style="fill-rule:nonzero;"/><path d="M1115.51,284.426c-0,-0.16 -0,-0.266 -0.905,-1.168c-6.644,-6.697 -8.344,-16.745 -8.344,-24.876c-0,-9.251 2.019,-18.499 8.556,-25.143c0.693,-0.638 0.693,-0.744 0.693,-0.904c-0,-0.372 -0.213,-0.532 -0.533,-0.532c-0.531,0 -5.313,3.615 -8.45,10.365c-2.713,5.849 -3.349,11.748 -3.349,16.214c-0,4.146 0.583,10.577 3.509,16.583c3.188,6.538 7.759,9.993 8.29,9.993c0.32,-0 0.533,-0.16 0.533,-0.532" style="fill-rule:nonzero;"/><path d="M1125.56,267.257c2.87,-3.082 4.412,-4.412 6.324,-6.059c0,-0.053 3.296,-2.87 5.21,-4.784c5.048,-4.942 6.219,-7.496 6.219,-7.708c-0,-0.53 -0.48,-0.53 -0.585,-0.53c-0.373,0 -0.532,0.107 -0.797,0.583c-1.594,2.553 -2.712,3.402 -3.986,3.402c-1.276,-0 -1.914,-0.796 -2.712,-1.7c-1.009,-1.223 -1.913,-2.285 -3.669,-2.285c-3.985,0 -6.43,4.942 -6.43,6.059c-0,0.266 0.159,0.585 0.637,0.585c0.48,0 0.587,-0.266 0.693,-0.585c1.008,-2.444 4.092,-2.497 4.516,-2.497c1.117,-0 2.128,0.37 3.351,0.795c2.125,0.798 2.71,0.798 4.09,0.798c-1.912,2.287 -6.377,6.112 -7.388,6.963l-4.782,4.466c-3.614,3.561 -5.476,6.591 -5.476,6.963c-0,0.532 0.531,0.532 0.638,0.532c0.426,-0 0.531,-0.107 0.851,-0.692c1.224,-1.859 2.816,-3.295 4.518,-3.295c1.221,-0 1.754,0.479 3.083,2.019c0.905,1.117 1.859,1.968 3.401,1.968c5.262,-0 8.346,-6.751 8.346,-8.187c0,-0.266 -0.211,-0.532 -0.637,-0.532c-0.479,0 -0.585,0.319 -0.745,0.692c-1.222,3.455 -4.625,4.465 -6.377,4.465c-1.065,0 -2.022,-0.319 -3.137,-0.691c-1.808,-0.692 -2.606,-0.904 -3.721,-0.904c-0.106,-0 -0.957,-0 -1.435,0.159" style="fill-rule:nonzero;"/><path d="M1160.93,258.382c0,-4.147 -0.586,-10.578 -3.509,-16.586c-3.188,-6.538 -7.76,-9.993 -8.292,-9.993c-0.319,0 -0.532,0.213 -0.532,0.532c0,0.16 0,0.266 1.011,1.223c5.207,5.262 8.239,13.714 8.239,24.824c0,9.088 -1.968,18.445 -8.559,25.142c-0.691,0.636 -0.691,0.742 -0.691,0.902c0,0.319 0.213,0.532 0.532,0.532c0.532,-0 5.316,-3.615 8.452,-10.365c2.71,-5.846 3.349,-11.748 3.349,-16.211" style="fill-rule:nonzero;"/><path d="M1186.34,268.747l0,3.508l7.815,-0.585l0,-1.649c-3.721,-0 -4.147,-0.37 -4.147,-2.976l-0,-32.266l-7.655,0.585l0,1.649c3.721,0 4.147,0.373 4.147,2.977l0,11.482c-1.54,-1.915 -3.827,-3.296 -6.697,-3.296c-6.272,0 -11.855,5.208 -11.855,12.065c-0,6.75 5.211,12.014 11.269,12.014c3.403,-0 5.796,-1.809 7.123,-3.508Zm0,-14.246l0,10.897c0,0.955 0,1.061 -0.584,1.966c-1.594,2.55 -3.986,3.721 -6.273,3.721c-2.391,-0 -4.305,-1.381 -5.579,-3.402c-1.384,-2.179 -1.543,-5.208 -1.543,-7.389c0,-1.966 0.105,-5.155 1.649,-7.548c1.115,-1.647 3.135,-3.402 6.005,-3.402c1.862,0 4.094,0.798 5.741,3.189c0.584,0.904 0.584,1.011 0.584,1.968" style="fill-rule:nonzero;"/><path d="M1213.35,255.618c0.32,-1.383 1.544,-6.274 5.265,-6.274c0.263,0 1.539,0 2.657,0.691c-1.489,0.266 -2.552,1.596 -2.552,2.87c-0,0.851 0.583,1.862 2.02,1.862c1.169,0 2.87,-0.957 2.87,-3.083c0,-2.766 -3.136,-3.508 -4.942,-3.508c-3.086,0 -4.945,2.817 -5.583,4.038c-1.33,-3.508 -4.2,-4.038 -5.739,-4.038c-5.53,0 -8.559,6.857 -8.559,8.184c-0,0.532 0.531,0.532 0.638,0.532c0.424,0 0.584,-0.106 0.691,-0.585c1.805,-5.633 5.315,-6.963 7.123,-6.963c1.008,0 2.87,0.479 2.87,3.561c0,1.649 -0.904,5.211 -2.87,12.653c-0.851,3.295 -2.713,5.527 -5.051,5.527c-0.318,-0 -1.539,-0 -2.657,-0.692c1.329,-0.266 2.497,-1.38 2.497,-2.87c-0,-1.434 -1.168,-1.859 -1.966,-1.859c-1.595,-0 -2.923,1.381 -2.923,3.083c0,2.444 2.659,3.508 4.996,3.508c3.509,-0 5.422,-3.721 5.582,-4.04c0.637,1.965 2.552,4.04 5.74,4.04c5.475,-0 8.506,-6.857 8.506,-8.187c-0,-0.532 -0.478,-0.532 -0.638,-0.532c-0.48,0 -0.585,0.213 -0.691,0.585c-1.756,5.689 -5.37,6.964 -7.071,6.964c-2.072,-0 -2.923,-1.7 -2.923,-3.509c0,-1.17 0.32,-2.338 0.905,-4.678l1.805,-7.28" style="fill-rule:nonzero;"/><path d="M1246.14,268.747l0,3.508l7.815,-0.585l0,-1.649c-3.721,-0 -4.147,-0.37 -4.147,-2.976l-0,-32.266l-7.655,0.585l0,1.649c3.721,0 4.147,0.373 4.147,2.977l0,11.482c-1.54,-1.915 -3.827,-3.296 -6.697,-3.296c-6.272,0 -11.855,5.208 -11.855,12.065c-0,6.75 5.211,12.014 11.269,12.014c3.403,-0 5.796,-1.809 7.123,-3.508Zm0,-14.246l0,10.897c0,0.955 0,1.061 -0.584,1.966c-1.594,2.55 -3.986,3.721 -6.273,3.721c-2.391,-0 -4.305,-1.381 -5.579,-3.402c-1.384,-2.179 -1.543,-5.208 -1.543,-7.389c0,-1.966 0.105,-5.155 1.649,-7.548c1.115,-1.647 3.135,-3.402 6.005,-3.402c1.862,0 4.093,0.798 5.741,3.189c0.584,0.904 0.584,1.011 0.584,1.968" style="fill-rule:nonzero;"/><path d="M1262.61,267.257c2.87,-3.082 4.412,-4.412 6.325,-6.059c-0,-0.053 3.296,-2.87 5.209,-4.784c5.049,-4.942 6.22,-7.496 6.22,-7.708c-0,-0.53 -0.48,-0.53 -0.585,-0.53c-0.373,0 -0.533,0.107 -0.798,0.583c-1.594,2.553 -2.711,3.402 -3.986,3.402c-1.275,-0 -1.913,-0.796 -2.711,-1.7c-1.009,-1.223 -1.914,-2.285 -3.669,-2.285c-3.986,0 -6.431,4.942 -6.431,6.059c0,0.266 0.16,0.585 0.638,0.585c0.48,0 0.586,-0.266 0.693,-0.585c1.008,-2.444 4.092,-2.497 4.515,-2.497c1.118,-0 2.129,0.37 3.351,0.795c2.125,0.798 2.71,0.798 4.091,0.798c-1.912,2.287 -6.378,6.112 -7.388,6.963l-4.782,4.466c-3.615,3.561 -5.477,6.591 -5.477,6.963c0,0.532 0.532,0.532 0.638,0.532c0.427,-0 0.532,-0.107 0.851,-0.692c1.224,-1.859 2.817,-3.295 4.519,-3.295c1.221,-0 1.754,0.479 3.083,2.019c0.904,1.117 1.859,1.968 3.401,1.968c5.262,-0 8.346,-6.751 8.346,-8.187c-0,-0.266 -0.212,-0.532 -0.638,-0.532c-0.478,0 -0.585,0.319 -0.744,0.692c-1.223,3.455 -4.626,4.465 -6.378,4.465c-1.064,0 -2.022,-0.319 -3.136,-0.691c-1.809,-0.692 -2.607,-0.904 -3.721,-0.904c-0.107,-0 -0.958,-0 -1.436,0.159" style="fill-rule:nonzero;"/></g><path d="M434.247,278.571c0,-0 0.001,-0 0.001,-0c-0,-0 -0.001,-0 -0,-0c-0.001,-0 -0,-0 -0,-0c-0.001,0 -0.001,0 -0.001,-0c0,-0 0,-0 0,-0c0.001,-0 0,-0 0,-0c0,-0 0,-0 0,-0c0.001,-0 0,0 0.001,0c-0.001,0 -0.001,0 -0.001,0c0,0 0,-0 0.001,-0c-0,-0 -0.001,-0 -0.001,0c0,0 0,-0 0,-0c0.001,-0 0.001,0 0.001,-0c-0.001,0 -0.001,-0 -0,-0c-0,-0 -0.001,-0 -0.001,-0c0,-0 0.001,-0 0,-0c0,-0 0,-0 0,0c0.001,-0 0,-0 0.001,0c-0,-0 -0,0 -0.001,-0c0,-0 0.001,-0 0.001,-0c-0.001,-0 -0,0 -0,-0c-0,0 -0,-0 -0.001,0c0.001,0 0,0 0.001,-0c-0.001,0 -0.001,-0 -0,0c-0,0 -0,0 -0,-0c-0,-0 -0.001,-0 -0,-0c-0.001,0 -0.001,0 -0.001,-0c0.001,-0 0,0 0.001,-0c-0,-0 -0.001,0 -0.001,0c0.001,-0 0,0 0,0c0.001,-0 0,-0 0.001,-0c-0,-0 -0.001,-0 -0,-0c-0.001,0 -0,-0 -0,0c-0.001,-0 -0.001,0 -0.001,0c0,-0 0.001,-0 0.001,-0c-0.001,-0 -0.001,-0 -0,-0c-0,-0 -0,0 -0.001,-0c0.001,-0 0,0 0.001,-0c-0,0 -0,-0 -0.001,-0c0.001,-0 0,0 0,-0c0.001,0 0.001,-0 0,-0c0.001,-0 0.001,-0 0,-0c0.001,-0 0.001,-0 0,-0c0.001,0 0.001,0 0.001,-0c-0,-0 -0.001,0 -0,-0c-0.001,-0 -0.001,0 -0.001,-0c0.001,0 0,-0 0,-0c0,-0 0.001,-0 0,-0c0,-0 0,-0 0.001,-0c-0.001,-0 -0.001,0 -0,-0c-0.001,-0 -0,-0 -0.001,-0c0,0 0.001,-0 0.001,-0c-0.001,0 -0.001,-0 -0,0c-0,-0 -0.001,-0 -0,-0c-0,0 -0.001,-0 -0.001,-0c0.001,-0 0.001,-0 0,-0c0,-0 0,-0 0,-0c0.001,-0 0.001,-0 0,0c0.001,0 0,0 0,0c0,-0 0,-0 0,0c0,-0 0.001,-0 0,-0c0,0 0,-0 0,-0c0.001,-0 0,-0 0,-0c0,-0 0,-0 0,-0c0.001,-0 0.001,-0 0,-0c0,-0 0.001,-0 0.001,-0c-0,-0 -0.001,-0 -0,-0c-0,-0 -0,-0 -0.001,-0c0,-0 0,-0 0.001,0c-0.001,-0 -0,-0 -0,-0c-0.001,-0 -0.001,0 -0.001,-0c0,-0 0.001,-0 0,-0c0.001,-0 0.001,-0 0,-0c0,-0 0.001,0 0,-0c0.001,-0 0,-0 0,0c0.001,-0 0,0 0,-0c0,0 0,0 0,-0c0,-0 0,-0 0.001,-0c-0.001,0 -0,-0 -0.001,0c0,-0 0.001,0 0.001,-0c-0.001,-0 -0.001,0 -0.001,-0c0,-0 0,-0 0,-0c0.001,-0 0.001,0 0,-0c0.001,-0 0,0 0,-0c0.001,-0 0.001,0 0,0c0.001,-0 0.001,-0 0.001,-0c-0,0 -0.001,0 -0.001,0Z" style="fill:none;fill-rule:nonzero;stroke:#000;stroke-opacity:0;stroke-width:0.42px;stroke-linecap:butt;stroke-linejoin:miter;stroke-miterlimit:10;"/><path d="M442.078,257.144c0.22,-0.767 0.22,-0.877 0.22,-1.26c-0,-0.987 -0.768,-1.48 -1.59,-1.48c-0.548,0 -1.422,0.329 -1.915,1.151c-0.11,0.274 -0.548,1.973 -0.767,2.957c-0.384,1.425 -0.768,2.904 -1.097,4.382l-2.463,9.857c-0.219,0.822 -2.574,4.656 -6.188,4.656c-2.795,-0 -3.398,-2.409 -3.398,-4.437c0,-2.518 0.932,-5.914 2.795,-10.734c0.874,-2.244 1.094,-2.847 1.094,-3.943c-0,-2.464 -1.752,-4.489 -4.489,-4.489c-5.204,-0 -7.229,7.939 -7.229,8.432c-0,0.548 0.545,0.548 0.655,0.548c0.548,0 0.603,-0.11 0.877,-0.986c1.479,-5.147 3.669,-6.791 5.532,-6.791c0.439,-0 1.368,-0 1.368,1.754c-0,1.367 -0.548,2.792 -0.929,3.833c-2.192,5.805 -3.179,8.926 -3.179,11.502c0,4.872 3.45,6.516 6.684,6.516c2.135,0 3.995,-0.931 5.53,-2.463c-0.713,2.847 -1.37,5.53 -3.56,8.432c-1.425,1.863 -3.505,3.45 -6.023,3.45c-0.768,0 -3.231,-0.164 -4.163,-2.299c0.877,-0 1.587,-0 2.354,-0.658c0.548,-0.493 1.096,-1.205 1.096,-2.244c0,-1.699 -1.479,-1.918 -2.027,-1.918c-1.258,-0 -3.067,0.877 -3.067,3.559c0,2.738 2.411,4.766 5.807,4.766c5.64,-0 11.282,-4.985 12.814,-11.173l5.258,-20.92" style="fill-rule:nonzero;"/></svg>