<?xml version="1.0" encoding="utf-8"?>
<svg xmlns="http://www.w3.org/2000/svg" xmlns:xlink="http://www.w3.org/1999/xlink" width="600" height="400" viewBox="0 0 2400 1600">
<defs>
  <clipPath id="clip700">
    <rect x="0" y="0" width="2400" height="1600"/>
  </clipPath>
</defs>
<path clip-path="url(#clip700)" d="M0 1600 L2400 1600 L2400 0 L0 0  Z" fill="#ffffff" fill-rule="evenodd" fill-opacity="1"/>
<defs>
  <clipPath id="clip701">
    <rect x="156" y="123" width="2197" height="1364"/>
  </clipPath>
</defs>
<path clip-path="url(#clip700)" d="M156.598 1486.45 L2352.76 1486.45 L2352.76 123.472 L156.598 123.472  Z" fill="#ffffff" fill-rule="evenodd" fill-opacity="1"/>
<polyline clip-path="url(#clip701)" style="stroke:#000000; stroke-linecap:round; stroke-linejoin:round; stroke-width:2; stroke-opacity:0.1; fill:none" points="218.754,1486.45 218.754,123.472 "/>
<polyline clip-path="url(#clip701)" style="stroke:#000000; stroke-linecap:round; stroke-linejoin:round; stroke-width:2; stroke-opacity:0.1; fill:none" points="736.715,1486.45 736.715,123.472 "/>
<polyline clip-path="url(#clip701)" style="stroke:#000000; stroke-linecap:round; stroke-linejoin:round; stroke-width:2; stroke-opacity:0.1; fill:none" points="1254.68,1486.45 1254.68,123.472 "/>
<polyline clip-path="url(#clip701)" style="stroke:#000000; stroke-linecap:round; stroke-linejoin:round; stroke-width:2; stroke-opacity:0.1; fill:none" points="1772.64,1486.45 1772.64,123.472 "/>
<polyline clip-path="url(#clip701)" style="stroke:#000000; stroke-linecap:round; stroke-linejoin:round; stroke-width:2; stroke-opacity:0.1; fill:none" points="2290.6,1486.45 2290.6,123.472 "/>
<polyline clip-path="url(#clip701)" style="stroke:#000000; stroke-linecap:round; stroke-linejoin:round; stroke-width:2; stroke-opacity:0.1; fill:none" points="156.598,1447.87 2352.76,1447.87 "/>
<polyline clip-path="url(#clip701)" style="stroke:#000000; stroke-linecap:round; stroke-linejoin:round; stroke-width:2; stroke-opacity:0.1; fill:none" points="156.598,1219.97 2352.76,1219.97 "/>
<polyline clip-path="url(#clip701)" style="stroke:#000000; stroke-linecap:round; stroke-linejoin:round; stroke-width:2; stroke-opacity:0.1; fill:none" points="156.598,992.06 2352.76,992.06 "/>
<polyline clip-path="url(#clip701)" style="stroke:#000000; stroke-linecap:round; stroke-linejoin:round; stroke-width:2; stroke-opacity:0.1; fill:none" points="156.598,764.153 2352.76,764.153 "/>
<polyline clip-path="url(#clip701)" style="stroke:#000000; stroke-linecap:round; stroke-linejoin:round; stroke-width:2; stroke-opacity:0.1; fill:none" points="156.598,536.246 2352.76,536.246 "/>
<polyline clip-path="url(#clip701)" style="stroke:#000000; stroke-linecap:round; stroke-linejoin:round; stroke-width:2; stroke-opacity:0.1; fill:none" points="156.598,308.339 2352.76,308.339 "/>
<polyline clip-path="url(#clip700)" style="stroke:#000000; stroke-linecap:round; stroke-linejoin:round; stroke-width:4; stroke-opacity:1; fill:none" points="156.598,1486.45 2352.76,1486.45 "/>
<polyline clip-path="url(#clip700)" style="stroke:#000000; stroke-linecap:round; stroke-linejoin:round; stroke-width:4; stroke-opacity:1; fill:none" points="218.754,1486.45 218.754,1467.55 "/>
<polyline clip-path="url(#clip700)" style="stroke:#000000; stroke-linecap:round; stroke-linejoin:round; stroke-width:4; stroke-opacity:1; fill:none" points="736.715,1486.45 736.715,1467.55 "/>
<polyline clip-path="url(#clip700)" style="stroke:#000000; stroke-linecap:round; stroke-linejoin:round; stroke-width:4; stroke-opacity:1; fill:none" points="1254.68,1486.45 1254.68,1467.55 "/>
<polyline clip-path="url(#clip700)" style="stroke:#000000; stroke-linecap:round; stroke-linejoin:round; stroke-width:4; stroke-opacity:1; fill:none" points="1772.64,1486.45 1772.64,1467.55 "/>
<polyline clip-path="url(#clip700)" style="stroke:#000000; stroke-linecap:round; stroke-linejoin:round; stroke-width:4; stroke-opacity:1; fill:none" points="2290.6,1486.45 2290.6,1467.55 "/>
<path clip-path="url(#clip700)" d="M218.754 1517.37 Q215.143 1517.37 213.314 1520.93 Q211.508 1524.47 211.508 1531.6 Q211.508 1538.71 213.314 1542.27 Q215.143 1545.82 218.754 1545.82 Q222.388 1545.82 224.193 1542.27 Q226.022 1538.71 226.022 1531.6 Q226.022 1524.47 224.193 1520.93 Q222.388 1517.37 218.754 1517.37 M218.754 1513.66 Q224.564 1513.66 227.619 1518.27 Q230.698 1522.85 230.698 1531.6 Q230.698 1540.33 227.619 1544.94 Q224.564 1549.52 218.754 1549.52 Q212.943 1549.52 209.865 1544.94 Q206.809 1540.33 206.809 1531.6 Q206.809 1522.85 209.865 1518.27 Q212.943 1513.66 218.754 1513.66 Z" fill="#000000" fill-rule="nonzero" fill-opacity="1" /><path clip-path="url(#clip700)" d="M726.993 1514.29 L745.35 1514.29 L745.35 1518.22 L731.276 1518.22 L731.276 1526.7 Q732.294 1526.35 733.313 1526.19 Q734.331 1526 735.35 1526 Q741.137 1526 744.516 1529.17 Q747.896 1532.34 747.896 1537.76 Q747.896 1543.34 744.424 1546.44 Q740.951 1549.52 734.632 1549.52 Q732.456 1549.52 730.188 1549.15 Q727.942 1548.78 725.535 1548.04 L725.535 1543.34 Q727.618 1544.47 729.84 1545.03 Q732.063 1545.58 734.539 1545.58 Q738.544 1545.58 740.882 1543.48 Q743.22 1541.37 743.22 1537.76 Q743.22 1534.15 740.882 1532.04 Q738.544 1529.94 734.539 1529.94 Q732.664 1529.94 730.789 1530.35 Q728.938 1530.77 726.993 1531.65 L726.993 1514.29 Z" fill="#000000" fill-rule="nonzero" fill-opacity="1" /><path clip-path="url(#clip700)" d="M1229.36 1544.91 L1237 1544.91 L1237 1518.55 L1228.69 1520.21 L1228.69 1515.95 L1236.96 1514.29 L1241.63 1514.29 L1241.63 1544.91 L1249.27 1544.91 L1249.27 1548.85 L1229.36 1548.85 L1229.36 1544.91 Z" fill="#000000" fill-rule="nonzero" fill-opacity="1" /><path clip-path="url(#clip700)" d="M1268.72 1517.37 Q1265.11 1517.37 1263.28 1520.93 Q1261.47 1524.47 1261.47 1531.6 Q1261.47 1538.71 1263.28 1542.27 Q1265.11 1545.82 1268.72 1545.82 Q1272.35 1545.82 1274.16 1542.27 Q1275.98 1538.71 1275.98 1531.6 Q1275.98 1524.47 1274.16 1520.93 Q1272.35 1517.37 1268.72 1517.37 M1268.72 1513.66 Q1274.53 1513.66 1277.58 1518.27 Q1280.66 1522.85 1280.66 1531.6 Q1280.66 1540.33 1277.58 1544.94 Q1274.53 1549.52 1268.72 1549.52 Q1262.91 1549.52 1259.83 1544.94 Q1256.77 1540.33 1256.77 1531.6 Q1256.77 1522.85 1259.83 1518.27 Q1262.91 1513.66 1268.72 1513.66 Z" fill="#000000" fill-rule="nonzero" fill-opacity="1" /><path clip-path="url(#clip700)" d="M1747.82 1544.91 L1755.46 1544.91 L1755.46 1518.55 L1747.15 1520.21 L1747.15 1515.95 L1755.42 1514.29 L1760.09 1514.29 L1760.09 1544.91 L1767.73 1544.91 L1767.73 1548.85 L1747.82 1548.85 L1747.82 1544.91 Z" fill="#000000" fill-rule="nonzero" fill-opacity="1" /><path clip-path="url(#clip700)" d="M1777.22 1514.29 L1795.58 1514.29 L1795.58 1518.22 L1781.5 1518.22 L1781.5 1526.7 Q1782.52 1526.35 1783.54 1526.19 Q1784.56 1526 1785.58 1526 Q1791.37 1526 1794.75 1529.17 Q1798.12 1532.34 1798.12 1537.76 Q1798.12 1543.34 1794.65 1546.44 Q1791.18 1549.52 1784.86 1549.52 Q1782.69 1549.52 1780.42 1549.15 Q1778.17 1548.78 1775.76 1548.04 L1775.76 1543.34 Q1777.85 1544.47 1780.07 1545.03 Q1782.29 1545.58 1784.77 1545.58 Q1788.77 1545.58 1791.11 1543.48 Q1793.45 1541.37 1793.45 1537.76 Q1793.45 1534.15 1791.11 1532.04 Q1788.77 1529.94 1784.77 1529.94 Q1782.89 1529.94 1781.02 1530.35 Q1779.17 1530.77 1777.22 1531.65 L1777.22 1514.29 Z" fill="#000000" fill-rule="nonzero" fill-opacity="1" /><path clip-path="url(#clip700)" d="M2269.37 1544.91 L2285.69 1544.91 L2285.69 1548.85 L2263.75 1548.85 L2263.75 1544.91 Q2266.41 1542.16 2270.99 1537.53 Q2275.6 1532.88 2276.78 1531.53 Q2279.03 1529.01 2279.91 1527.27 Q2280.81 1525.51 2280.81 1523.82 Q2280.81 1521.07 2278.86 1519.33 Q2276.94 1517.6 2273.84 1517.6 Q2271.64 1517.6 2269.19 1518.36 Q2266.76 1519.13 2263.98 1520.68 L2263.98 1515.95 Q2266.8 1514.82 2269.26 1514.24 Q2271.71 1513.66 2273.75 1513.66 Q2279.12 1513.66 2282.31 1516.35 Q2285.51 1519.03 2285.51 1523.52 Q2285.51 1525.65 2284.7 1527.57 Q2283.91 1529.47 2281.8 1532.07 Q2281.23 1532.74 2278.12 1535.95 Q2275.02 1539.15 2269.37 1544.91 Z" fill="#000000" fill-rule="nonzero" fill-opacity="1" /><path clip-path="url(#clip700)" d="M2305.51 1517.37 Q2301.9 1517.37 2300.07 1520.93 Q2298.26 1524.47 2298.26 1531.6 Q2298.26 1538.71 2300.07 1542.27 Q2301.9 1545.82 2305.51 1545.82 Q2309.14 1545.82 2310.95 1542.27 Q2312.78 1538.71 2312.78 1531.6 Q2312.78 1524.47 2310.95 1520.93 Q2309.14 1517.37 2305.51 1517.37 M2305.51 1513.66 Q2311.32 1513.66 2314.37 1518.27 Q2317.45 1522.85 2317.45 1531.6 Q2317.45 1540.33 2314.37 1544.94 Q2311.32 1549.52 2305.51 1549.52 Q2299.7 1549.52 2296.62 1544.94 Q2293.56 1540.33 2293.56 1531.6 Q2293.56 1522.85 2296.62 1518.27 Q2299.7 1513.66 2305.51 1513.66 Z" fill="#000000" fill-rule="nonzero" fill-opacity="1" /><polyline clip-path="url(#clip700)" style="stroke:#000000; stroke-linecap:round; stroke-linejoin:round; stroke-width:4; stroke-opacity:1; fill:none" points="156.598,1486.45 156.598,123.472 "/>
<polyline clip-path="url(#clip700)" style="stroke:#000000; stroke-linecap:round; stroke-linejoin:round; stroke-width:4; stroke-opacity:1; fill:none" points="156.598,1447.87 175.496,1447.87 "/>
<polyline clip-path="url(#clip700)" style="stroke:#000000; stroke-linecap:round; stroke-linejoin:round; stroke-width:4; stroke-opacity:1; fill:none" points="156.598,1219.97 175.496,1219.97 "/>
<polyline clip-path="url(#clip700)" style="stroke:#000000; stroke-linecap:round; stroke-linejoin:round; stroke-width:4; stroke-opacity:1; fill:none" points="156.598,992.06 175.496,992.06 "/>
<polyline clip-path="url(#clip700)" style="stroke:#000000; stroke-linecap:round; stroke-linejoin:round; stroke-width:4; stroke-opacity:1; fill:none" points="156.598,764.153 175.496,764.153 "/>
<polyline clip-path="url(#clip700)" style="stroke:#000000; stroke-linecap:round; stroke-linejoin:round; stroke-width:4; stroke-opacity:1; fill:none" points="156.598,536.246 175.496,536.246 "/>
<polyline clip-path="url(#clip700)" style="stroke:#000000; stroke-linecap:round; stroke-linejoin:round; stroke-width:4; stroke-opacity:1; fill:none" points="156.598,308.339 175.496,308.339 "/>
<path clip-path="url(#clip700)" d="M63.4226 1433.67 Q59.8115 1433.67 57.9828 1437.24 Q56.1773 1440.78 56.1773 1447.91 Q56.1773 1455.01 57.9828 1458.58 Q59.8115 1462.12 63.4226 1462.12 Q67.0569 1462.12 68.8624 1458.58 Q70.6911 1455.01 70.6911 1447.91 Q70.6911 1440.78 68.8624 1437.24 Q67.0569 1433.67 63.4226 1433.67 M63.4226 1429.97 Q69.2328 1429.97 72.2883 1434.57 Q75.367 1439.16 75.367 1447.91 Q75.367 1456.63 72.2883 1461.24 Q69.2328 1465.82 63.4226 1465.82 Q57.6125 1465.82 54.5338 1461.24 Q51.4782 1456.63 51.4782 1447.91 Q51.4782 1439.16 54.5338 1434.57 Q57.6125 1429.97 63.4226 1429.97 Z" fill="#000000" fill-rule="nonzero" fill-opacity="1" /><path clip-path="url(#clip700)" d="M83.5845 1459.27 L88.4688 1459.27 L88.4688 1465.15 L83.5845 1465.15 L83.5845 1459.27 Z" fill="#000000" fill-rule="nonzero" fill-opacity="1" /><path clip-path="url(#clip700)" d="M108.654 1433.67 Q105.043 1433.67 103.214 1437.24 Q101.409 1440.78 101.409 1447.91 Q101.409 1455.01 103.214 1458.58 Q105.043 1462.12 108.654 1462.12 Q112.288 1462.12 114.094 1458.58 Q115.922 1455.01 115.922 1447.91 Q115.922 1440.78 114.094 1437.24 Q112.288 1433.67 108.654 1433.67 M108.654 1429.97 Q114.464 1429.97 117.52 1434.57 Q120.598 1439.16 120.598 1447.91 Q120.598 1456.63 117.52 1461.24 Q114.464 1465.82 108.654 1465.82 Q102.844 1465.82 99.765 1461.24 Q96.7095 1456.63 96.7095 1447.91 Q96.7095 1439.16 99.765 1434.57 Q102.844 1429.97 108.654 1429.97 Z" fill="#000000" fill-rule="nonzero" fill-opacity="1" /><path clip-path="url(#clip700)" d="M64.6495 1205.77 Q61.0384 1205.77 59.2097 1209.33 Q57.4041 1212.87 57.4041 1220 Q57.4041 1227.11 59.2097 1230.67 Q61.0384 1234.21 64.6495 1234.21 Q68.2837 1234.21 70.0892 1230.67 Q71.9179 1227.11 71.9179 1220 Q71.9179 1212.87 70.0892 1209.33 Q68.2837 1205.77 64.6495 1205.77 M64.6495 1202.06 Q70.4596 1202.06 73.5152 1206.67 Q76.5938 1211.25 76.5938 1220 Q76.5938 1228.73 73.5152 1233.33 Q70.4596 1237.92 64.6495 1237.92 Q58.8393 1237.92 55.7606 1233.33 Q52.7051 1228.73 52.7051 1220 Q52.7051 1211.25 55.7606 1206.67 Q58.8393 1202.06 64.6495 1202.06 Z" fill="#000000" fill-rule="nonzero" fill-opacity="1" /><path clip-path="url(#clip700)" d="M84.8114 1231.37 L89.6956 1231.37 L89.6956 1237.25 L84.8114 1237.25 L84.8114 1231.37 Z" fill="#000000" fill-rule="nonzero" fill-opacity="1" /><path clip-path="url(#clip700)" d="M100.691 1233.31 L108.33 1233.31 L108.33 1206.95 L100.02 1208.61 L100.02 1204.35 L108.283 1202.69 L112.959 1202.69 L112.959 1233.31 L120.598 1233.31 L120.598 1237.25 L100.691 1237.25 L100.691 1233.31 Z" fill="#000000" fill-rule="nonzero" fill-opacity="1" /><path clip-path="url(#clip700)" d="M65.0198 977.858 Q61.4087 977.858 59.58 981.423 Q57.7745 984.965 57.7745 992.094 Q57.7745 999.201 59.58 1002.77 Q61.4087 1006.31 65.0198 1006.31 Q68.6541 1006.31 70.4596 1002.77 Q72.2883 999.201 72.2883 992.094 Q72.2883 984.965 70.4596 981.423 Q68.6541 977.858 65.0198 977.858 M65.0198 974.155 Q70.83 974.155 73.8855 978.761 Q76.9642 983.344 76.9642 992.094 Q76.9642 1000.82 73.8855 1005.43 Q70.83 1010.01 65.0198 1010.01 Q59.2097 1010.01 56.131 1005.43 Q53.0754 1000.82 53.0754 992.094 Q53.0754 983.344 56.131 978.761 Q59.2097 974.155 65.0198 974.155 Z" fill="#000000" fill-rule="nonzero" fill-opacity="1" /><path clip-path="url(#clip700)" d="M85.1818 1003.46 L90.066 1003.46 L90.066 1009.34 L85.1818 1009.34 L85.1818 1003.46 Z" fill="#000000" fill-rule="nonzero" fill-opacity="1" /><path clip-path="url(#clip700)" d="M104.279 1005.4 L120.598 1005.4 L120.598 1009.34 L98.6539 1009.34 L98.6539 1005.4 Q101.316 1002.65 105.899 998.02 Q110.506 993.367 111.686 992.025 Q113.932 989.502 114.811 987.766 Q115.714 986.006 115.714 984.317 Q115.714 981.562 113.77 979.826 Q111.848 978.09 108.746 978.09 Q106.547 978.09 104.094 978.854 Q101.663 979.618 98.8854 981.168 L98.8854 976.446 Q101.709 975.312 104.163 974.733 Q106.617 974.155 108.654 974.155 Q114.024 974.155 117.219 976.84 Q120.413 979.525 120.413 984.016 Q120.413 986.145 119.603 988.067 Q118.816 989.965 116.709 992.557 Q116.131 993.229 113.029 996.446 Q109.927 999.641 104.279 1005.4 Z" fill="#000000" fill-rule="nonzero" fill-opacity="1" /><path clip-path="url(#clip700)" d="M64.0708 749.952 Q60.4597 749.952 58.631 753.516 Q56.8254 757.058 56.8254 764.188 Q56.8254 771.294 58.631 774.859 Q60.4597 778.4 64.0708 778.4 Q67.705 778.4 69.5105 774.859 Q71.3392 771.294 71.3392 764.188 Q71.3392 757.058 69.5105 753.516 Q67.705 749.952 64.0708 749.952 M64.0708 746.248 Q69.8809 746.248 72.9365 750.854 Q76.0151 755.438 76.0151 764.188 Q76.0151 772.914 72.9365 777.521 Q69.8809 782.104 64.0708 782.104 Q58.2606 782.104 55.1819 777.521 Q52.1264 772.914 52.1264 764.188 Q52.1264 755.438 55.1819 750.854 Q58.2606 746.248 64.0708 746.248 Z" fill="#000000" fill-rule="nonzero" fill-opacity="1" /><path clip-path="url(#clip700)" d="M84.2327 775.553 L89.1169 775.553 L89.1169 781.433 L84.2327 781.433 L84.2327 775.553 Z" fill="#000000" fill-rule="nonzero" fill-opacity="1" /><path clip-path="url(#clip700)" d="M113.469 762.799 Q116.825 763.516 118.7 765.785 Q120.598 768.053 120.598 771.387 Q120.598 776.502 117.08 779.303 Q113.561 782.104 107.08 782.104 Q104.904 782.104 102.589 781.664 Q100.297 781.248 97.8437 780.391 L97.8437 775.877 Q99.7882 777.012 102.103 777.59 Q104.418 778.169 106.941 778.169 Q111.339 778.169 113.631 776.433 Q115.945 774.697 115.945 771.387 Q115.945 768.331 113.793 766.618 Q111.663 764.882 107.844 764.882 L103.816 764.882 L103.816 761.039 L108.029 761.039 Q111.478 761.039 113.307 759.674 Q115.135 758.285 115.135 755.692 Q115.135 753.03 113.237 751.618 Q111.362 750.183 107.844 750.183 Q105.922 750.183 103.723 750.6 Q101.524 751.016 98.8854 751.896 L98.8854 747.729 Q101.547 746.989 103.862 746.618 Q106.2 746.248 108.26 746.248 Q113.584 746.248 116.686 748.678 Q119.788 751.086 119.788 755.206 Q119.788 758.076 118.145 760.067 Q116.501 762.035 113.469 762.799 Z" fill="#000000" fill-rule="nonzero" fill-opacity="1" /><path clip-path="url(#clip700)" d="M62.9365 522.045 Q59.3254 522.045 57.4967 525.61 Q55.6912 529.151 55.6912 536.281 Q55.6912 543.387 57.4967 546.952 Q59.3254 550.494 62.9365 550.494 Q66.5707 550.494 68.3763 546.952 Q70.205 543.387 70.205 536.281 Q70.205 529.151 68.3763 525.61 Q66.5707 522.045 62.9365 522.045 M62.9365 518.341 Q68.7467 518.341 71.8022 522.948 Q74.8809 527.531 74.8809 536.281 Q74.8809 545.008 71.8022 549.614 Q68.7467 554.197 62.9365 554.197 Q57.1264 554.197 54.0477 549.614 Q50.9921 545.008 50.9921 536.281 Q50.9921 527.531 54.0477 522.948 Q57.1264 518.341 62.9365 518.341 Z" fill="#000000" fill-rule="nonzero" fill-opacity="1" /><path clip-path="url(#clip700)" d="M83.0984 547.646 L87.9827 547.646 L87.9827 553.526 L83.0984 553.526 L83.0984 547.646 Z" fill="#000000" fill-rule="nonzero" fill-opacity="1" /><path clip-path="url(#clip700)" d="M111.015 523.04 L99.2095 541.489 L111.015 541.489 L111.015 523.04 M109.788 518.966 L115.668 518.966 L115.668 541.489 L120.598 541.489 L120.598 545.378 L115.668 545.378 L115.668 553.526 L111.015 553.526 L111.015 545.378 L95.4132 545.378 L95.4132 540.864 L109.788 518.966 Z" fill="#000000" fill-rule="nonzero" fill-opacity="1" /><path clip-path="url(#clip700)" d="M64.418 294.138 Q60.8069 294.138 58.9782 297.703 Q57.1726 301.244 57.1726 308.374 Q57.1726 315.48 58.9782 319.045 Q60.8069 322.587 64.418 322.587 Q68.0522 322.587 69.8578 319.045 Q71.6865 315.48 71.6865 308.374 Q71.6865 301.244 69.8578 297.703 Q68.0522 294.138 64.418 294.138 M64.418 290.434 Q70.2281 290.434 73.2837 295.041 Q76.3624 299.624 76.3624 308.374 Q76.3624 317.101 73.2837 321.707 Q70.2281 326.291 64.418 326.291 Q58.6078 326.291 55.5291 321.707 Q52.4736 317.101 52.4736 308.374 Q52.4736 299.624 55.5291 295.041 Q58.6078 290.434 64.418 290.434 Z" fill="#000000" fill-rule="nonzero" fill-opacity="1" /><path clip-path="url(#clip700)" d="M84.5799 319.74 L89.4641 319.74 L89.4641 325.619 L84.5799 325.619 L84.5799 319.74 Z" fill="#000000" fill-rule="nonzero" fill-opacity="1" /><path clip-path="url(#clip700)" d="M99.6956 291.059 L118.052 291.059 L118.052 294.994 L103.978 294.994 L103.978 303.467 Q104.996 303.119 106.015 302.957 Q107.033 302.772 108.052 302.772 Q113.839 302.772 117.219 305.943 Q120.598 309.115 120.598 314.531 Q120.598 320.11 117.126 323.212 Q113.654 326.291 107.334 326.291 Q105.159 326.291 102.89 325.92 Q100.645 325.55 98.2372 324.809 L98.2372 320.11 Q100.321 321.244 102.543 321.8 Q104.765 322.355 107.242 322.355 Q111.246 322.355 113.584 320.249 Q115.922 318.142 115.922 314.531 Q115.922 310.92 113.584 308.814 Q111.246 306.707 107.242 306.707 Q105.367 306.707 103.492 307.124 Q101.64 307.541 99.6956 308.42 L99.6956 291.059 Z" fill="#000000" fill-rule="nonzero" fill-opacity="1" /><path clip-path="url(#clip700)" d="M641.269 12.096 L649.452 12.096 L649.452 72.576 L641.269 72.576 L641.269 12.096 Z" fill="#000000" fill-rule="nonzero" fill-opacity="1" /><path clip-path="url(#clip700)" d="M703.126 45.1919 L703.126 72.576 L695.673 72.576 L695.673 45.4349 Q695.673 38.994 693.161 35.7938 Q690.649 32.5936 685.626 32.5936 Q679.59 32.5936 676.107 36.4419 Q672.623 40.2903 672.623 46.9338 L672.623 72.576 L665.129 72.576 L665.129 27.2059 L672.623 27.2059 L672.623 34.2544 Q675.296 30.163 678.902 28.1376 Q682.548 26.1121 687.287 26.1121 Q695.105 26.1121 699.116 30.9732 Q703.126 35.7938 703.126 45.1919 Z" fill="#000000" fill-rule="nonzero" fill-opacity="1" /><path clip-path="url(#clip700)" d="M740.962 9.54393 L740.962 15.7418 L733.832 15.7418 Q729.822 15.7418 728.242 17.3622 Q726.702 18.9825 726.702 23.1955 L726.702 27.2059 L738.977 27.2059 L738.977 32.9987 L726.702 32.9987 L726.702 72.576 L719.208 72.576 L719.208 32.9987 L712.079 32.9987 L712.079 27.2059 L719.208 27.2059 L719.208 24.0462 Q719.208 16.471 722.733 13.0277 Q726.257 9.54393 733.913 9.54393 L740.962 9.54393 Z" fill="#000000" fill-rule="nonzero" fill-opacity="1" /><path clip-path="url(#clip700)" d="M786.008 48.0275 L786.008 51.6733 L751.737 51.6733 Q752.223 59.3701 756.355 63.421 Q760.528 67.4314 767.941 67.4314 Q772.235 67.4314 776.245 66.3781 Q780.296 65.3249 784.266 63.2184 L784.266 70.267 Q780.255 71.9684 776.042 72.8596 Q771.83 73.7508 767.495 73.7508 Q756.639 73.7508 750.279 67.4314 Q743.959 61.1119 743.959 50.3365 Q743.959 39.1965 749.955 32.6746 Q755.991 26.1121 766.199 26.1121 Q775.354 26.1121 780.661 32.0264 Q786.008 37.9003 786.008 48.0275 M778.554 45.84 Q778.473 39.7232 775.111 36.0774 Q771.789 32.4315 766.28 32.4315 Q760.041 32.4315 756.274 35.9558 Q752.547 39.4801 751.98 45.8805 L778.554 45.84 Z" fill="#000000" fill-rule="nonzero" fill-opacity="1" /><path clip-path="url(#clip700)" d="M824.532 34.1734 Q823.276 33.4443 821.777 33.1202 Q820.319 32.7556 818.536 32.7556 Q812.217 32.7556 808.814 36.8875 Q805.452 40.9789 805.452 48.6757 L805.452 72.576 L797.958 72.576 L797.958 27.2059 L805.452 27.2059 L805.452 34.2544 Q807.802 30.1225 811.569 28.1376 Q815.336 26.1121 820.724 26.1121 Q821.494 26.1121 822.425 26.2337 Q823.357 26.3147 824.491 26.5172 L824.532 34.1734 Z" fill="#000000" fill-rule="nonzero" fill-opacity="1" /><path clip-path="url(#clip700)" d="M869.335 48.0275 L869.335 51.6733 L835.064 51.6733 Q835.55 59.3701 839.682 63.421 Q843.855 67.4314 851.268 67.4314 Q855.562 67.4314 859.572 66.3781 Q863.623 65.3249 867.593 63.2184 L867.593 70.267 Q863.583 71.9684 859.37 72.8596 Q855.157 73.7508 850.822 73.7508 Q839.966 73.7508 833.606 67.4314 Q827.286 61.1119 827.286 50.3365 Q827.286 39.1965 833.282 32.6746 Q839.318 26.1121 849.526 26.1121 Q858.681 26.1121 863.988 32.0264 Q869.335 37.9003 869.335 48.0275 M861.881 45.84 Q861.8 39.7232 858.438 36.0774 Q855.116 32.4315 849.607 32.4315 Q843.369 32.4315 839.601 35.9558 Q835.874 39.4801 835.307 45.8805 L861.881 45.84 Z" fill="#000000" fill-rule="nonzero" fill-opacity="1" /><path clip-path="url(#clip700)" d="M919.282 45.1919 L919.282 72.576 L911.829 72.576 L911.829 45.4349 Q911.829 38.994 909.317 35.7938 Q906.806 32.5936 901.783 32.5936 Q895.747 32.5936 892.263 36.4419 Q888.779 40.2903 888.779 46.9338 L888.779 72.576 L881.285 72.576 L881.285 27.2059 L888.779 27.2059 L888.779 34.2544 Q891.453 30.163 895.058 28.1376 Q898.704 26.1121 903.443 26.1121 Q911.262 26.1121 915.272 30.9732 Q919.282 35.7938 919.282 45.1919 Z" fill="#000000" fill-rule="nonzero" fill-opacity="1" /><path clip-path="url(#clip700)" d="M966.8 28.9478 L966.8 35.9153 Q963.64 34.1734 960.44 33.3227 Q957.28 32.4315 954.039 32.4315 Q946.788 32.4315 942.778 37.0496 Q938.767 41.6271 938.767 49.9314 Q938.767 58.2358 942.778 62.8538 Q946.788 67.4314 954.039 67.4314 Q957.28 67.4314 960.44 66.5807 Q963.64 65.6895 966.8 63.9476 L966.8 70.8341 Q963.68 72.2924 960.318 73.0216 Q956.996 73.7508 953.229 73.7508 Q942.98 73.7508 936.944 67.3098 Q930.909 60.8689 930.909 49.9314 Q930.909 38.832 936.985 32.472 Q943.102 26.1121 953.715 26.1121 Q957.158 26.1121 960.44 26.8413 Q963.721 27.5299 966.8 28.9478 Z" fill="#000000" fill-rule="nonzero" fill-opacity="1" /><path clip-path="url(#clip700)" d="M1018.57 48.0275 L1018.57 51.6733 L984.299 51.6733 Q984.786 59.3701 988.917 63.421 Q993.09 67.4314 1000.5 67.4314 Q1004.8 67.4314 1008.81 66.3781 Q1012.86 65.3249 1016.83 63.2184 L1016.83 70.267 Q1012.82 71.9684 1008.6 72.8596 Q1004.39 73.7508 1000.06 73.7508 Q989.201 73.7508 982.841 67.4314 Q976.522 61.1119 976.522 50.3365 Q976.522 39.1965 982.517 32.6746 Q988.553 26.1121 998.761 26.1121 Q1007.92 26.1121 1013.22 32.0264 Q1018.57 37.9003 1018.57 48.0275 M1011.12 45.84 Q1011.04 39.7232 1007.67 36.0774 Q1004.35 32.4315 998.842 32.4315 Q992.604 32.4315 988.836 35.9558 Q985.11 39.4801 984.543 45.8805 L1011.12 45.84 Z" fill="#000000" fill-rule="nonzero" fill-opacity="1" /><path clip-path="url(#clip700)" d="M1083.47 34.1734 Q1082.21 33.4443 1080.71 33.1202 Q1079.25 32.7556 1077.47 32.7556 Q1071.15 32.7556 1067.75 36.8875 Q1064.39 40.9789 1064.39 48.6757 L1064.39 72.576 L1056.89 72.576 L1056.89 27.2059 L1064.39 27.2059 L1064.39 34.2544 Q1066.74 30.1225 1070.5 28.1376 Q1074.27 26.1121 1079.66 26.1121 Q1080.43 26.1121 1081.36 26.2337 Q1082.29 26.3147 1083.43 26.5172 L1083.47 34.1734 Z" fill="#000000" fill-rule="nonzero" fill-opacity="1" /><path clip-path="url(#clip700)" d="M1128.27 48.0275 L1128.27 51.6733 L1094 51.6733 Q1094.48 59.3701 1098.62 63.421 Q1102.79 67.4314 1110.2 67.4314 Q1114.5 67.4314 1118.51 66.3781 Q1122.56 65.3249 1126.53 63.2184 L1126.53 70.267 Q1122.52 71.9684 1118.3 72.8596 Q1114.09 73.7508 1109.76 73.7508 Q1098.9 73.7508 1092.54 67.4314 Q1086.22 61.1119 1086.22 50.3365 Q1086.22 39.1965 1092.22 32.6746 Q1098.25 26.1121 1108.46 26.1121 Q1117.61 26.1121 1122.92 32.0264 Q1128.27 37.9003 1128.27 48.0275 M1120.81 45.84 Q1120.73 39.7232 1117.37 36.0774 Q1114.05 32.4315 1108.54 32.4315 Q1102.3 32.4315 1098.53 35.9558 Q1094.81 39.4801 1094.24 45.8805 L1120.81 45.84 Z" fill="#000000" fill-rule="nonzero" fill-opacity="1" /><path clip-path="url(#clip700)" d="M1169.43 28.5427 L1169.43 35.5912 Q1166.27 33.9709 1162.86 33.1607 Q1159.46 32.3505 1155.81 32.3505 Q1150.27 32.3505 1147.47 34.0519 Q1144.72 35.7533 1144.72 39.156 Q1144.72 41.7486 1146.7 43.2475 Q1148.69 44.7058 1154.68 46.0426 L1157.23 46.6097 Q1165.17 48.3111 1168.49 51.4303 Q1171.86 54.509 1171.86 60.0587 Q1171.86 66.3781 1166.83 70.0644 Q1161.85 73.7508 1153.1 73.7508 Q1149.45 73.7508 1145.48 73.0216 Q1141.56 72.3329 1137.18 70.9151 L1137.18 63.2184 Q1141.31 65.3654 1145.32 66.4591 Q1149.33 67.5124 1153.26 67.5124 Q1158.53 67.5124 1161.36 65.73 Q1164.2 63.9071 1164.2 60.6258 Q1164.2 57.5877 1162.13 55.9673 Q1160.11 54.3469 1153.18 52.8481 L1150.59 52.2405 Q1143.66 50.7821 1140.58 47.7845 Q1137.5 44.7463 1137.5 39.4801 Q1137.5 33.0797 1142.04 29.5959 Q1146.58 26.1121 1154.92 26.1121 Q1159.06 26.1121 1162.7 26.7198 Q1166.35 27.3274 1169.43 28.5427 Z" fill="#000000" fill-rule="nonzero" fill-opacity="1" /><path clip-path="url(#clip700)" d="M1182.96 54.671 L1182.96 27.2059 L1190.41 27.2059 L1190.41 54.3874 Q1190.41 60.8284 1192.92 64.0691 Q1195.43 67.2693 1200.46 67.2693 Q1206.49 67.2693 1209.98 63.421 Q1213.5 59.5726 1213.5 52.9291 L1213.5 27.2059 L1220.95 27.2059 L1220.95 72.576 L1213.5 72.576 L1213.5 65.6084 Q1210.79 69.7404 1207.18 71.7658 Q1203.62 73.7508 1198.88 73.7508 Q1191.06 73.7508 1187.01 68.8897 Q1182.96 64.0286 1182.96 54.671 M1201.71 26.1121 L1201.71 26.1121 Z" fill="#000000" fill-rule="nonzero" fill-opacity="1" /><path clip-path="url(#clip700)" d="M1236.31 9.54393 L1243.76 9.54393 L1243.76 72.576 L1236.31 72.576 L1236.31 9.54393 Z" fill="#000000" fill-rule="nonzero" fill-opacity="1" /><path clip-path="url(#clip700)" d="M1266.73 14.324 L1266.73 27.2059 L1282.08 27.2059 L1282.08 32.9987 L1266.73 32.9987 L1266.73 57.6282 Q1266.73 63.1779 1268.23 64.7578 Q1269.77 66.3376 1274.43 66.3376 L1282.08 66.3376 L1282.08 72.576 L1274.43 72.576 Q1265.8 72.576 1262.52 69.3758 Q1259.23 66.1351 1259.23 57.6282 L1259.23 32.9987 L1253.77 32.9987 L1253.77 27.2059 L1259.23 27.2059 L1259.23 14.324 L1266.73 14.324 Z" fill="#000000" fill-rule="nonzero" fill-opacity="1" /><path clip-path="url(#clip700)" d="M1320.81 28.5427 L1320.81 35.5912 Q1317.65 33.9709 1314.25 33.1607 Q1310.84 32.3505 1307.2 32.3505 Q1301.65 32.3505 1298.85 34.0519 Q1296.1 35.7533 1296.1 39.156 Q1296.1 41.7486 1298.08 43.2475 Q1300.07 44.7058 1306.06 46.0426 L1308.61 46.6097 Q1316.55 48.3111 1319.88 51.4303 Q1323.24 54.509 1323.24 60.0587 Q1323.24 66.3781 1318.22 70.0644 Q1313.23 73.7508 1304.48 73.7508 Q1300.84 73.7508 1296.87 73.0216 Q1292.94 72.3329 1288.56 70.9151 L1288.56 63.2184 Q1292.69 65.3654 1296.71 66.4591 Q1300.72 67.5124 1304.64 67.5124 Q1309.91 67.5124 1312.75 65.73 Q1315.58 63.9071 1315.58 60.6258 Q1315.58 57.5877 1313.52 55.9673 Q1311.49 54.3469 1304.56 52.8481 L1301.97 52.2405 Q1295.04 50.7821 1291.97 47.7845 Q1288.89 44.7463 1288.89 39.4801 Q1288.89 33.0797 1293.42 29.5959 Q1297.96 26.1121 1306.31 26.1121 Q1310.44 26.1121 1314.08 26.7198 Q1317.73 27.3274 1320.81 28.5427 Z" fill="#000000" fill-rule="nonzero" fill-opacity="1" /><path clip-path="url(#clip700)" d="M1379.06 32.4315 Q1373.06 32.4315 1369.58 37.1306 Q1366.1 41.7891 1366.1 49.9314 Q1366.1 58.0738 1369.54 62.7728 Q1373.02 67.4314 1379.06 67.4314 Q1385.01 67.4314 1388.5 62.7323 Q1391.98 58.0333 1391.98 49.9314 Q1391.98 41.8701 1388.5 37.1711 Q1385.01 32.4315 1379.06 32.4315 M1379.06 26.1121 Q1388.78 26.1121 1394.33 32.4315 Q1399.88 38.7509 1399.88 49.9314 Q1399.88 61.0714 1394.33 67.4314 Q1388.78 73.7508 1379.06 73.7508 Q1369.3 73.7508 1363.75 67.4314 Q1358.24 61.0714 1358.24 49.9314 Q1358.24 38.7509 1363.75 32.4315 Q1369.3 26.1121 1379.06 26.1121 Z" fill="#000000" fill-rule="nonzero" fill-opacity="1" /><path clip-path="url(#clip700)" d="M1406.89 27.2059 L1414.79 27.2059 L1428.97 65.2844 L1443.15 27.2059 L1451.04 27.2059 L1434.03 72.576 L1423.9 72.576 L1406.89 27.2059 Z" fill="#000000" fill-rule="nonzero" fill-opacity="1" /><path clip-path="url(#clip700)" d="M1500.14 48.0275 L1500.14 51.6733 L1465.87 51.6733 Q1466.36 59.3701 1470.49 63.421 Q1474.66 67.4314 1482.07 67.4314 Q1486.37 67.4314 1490.38 66.3781 Q1494.43 65.3249 1498.4 63.2184 L1498.4 70.267 Q1494.39 71.9684 1490.18 72.8596 Q1485.96 73.7508 1481.63 73.7508 Q1470.77 73.7508 1464.41 67.4314 Q1458.09 61.1119 1458.09 50.3365 Q1458.09 39.1965 1464.09 32.6746 Q1470.12 26.1121 1480.33 26.1121 Q1489.49 26.1121 1494.79 32.0264 Q1500.14 37.9003 1500.14 48.0275 M1492.69 45.84 Q1492.61 39.7232 1489.24 36.0774 Q1485.92 32.4315 1480.41 32.4315 Q1474.18 32.4315 1470.41 35.9558 Q1466.68 39.4801 1466.11 45.8805 L1492.69 45.84 Z" fill="#000000" fill-rule="nonzero" fill-opacity="1" /><path clip-path="url(#clip700)" d="M1538.67 34.1734 Q1537.41 33.4443 1535.91 33.1202 Q1534.45 32.7556 1532.67 32.7556 Q1526.35 32.7556 1522.95 36.8875 Q1519.59 40.9789 1519.59 48.6757 L1519.59 72.576 L1512.09 72.576 L1512.09 27.2059 L1519.59 27.2059 L1519.59 34.2544 Q1521.94 30.1225 1525.7 28.1376 Q1529.47 26.1121 1534.86 26.1121 Q1535.63 26.1121 1536.56 26.2337 Q1537.49 26.3147 1538.63 26.5172 L1538.67 34.1734 Z" fill="#000000" fill-rule="nonzero" fill-opacity="1" /><path clip-path="url(#clip700)" d="M1579.9 6.22219 L1591.33 21.3726 L1585.13 21.3726 L1571.92 6.22219 L1579.9 6.22219 Z" fill="#000000" fill-rule="nonzero" fill-opacity="1" /><path clip-path="url(#clip700)" d="M1649.66 35.9153 Q1652.46 30.8922 1656.34 28.5022 Q1660.23 26.1121 1665.5 26.1121 Q1672.59 26.1121 1676.44 31.0947 Q1680.29 36.0368 1680.29 45.1919 L1680.29 72.576 L1672.79 72.576 L1672.79 45.4349 Q1672.79 38.913 1670.48 35.7533 Q1668.17 32.5936 1663.43 32.5936 Q1657.64 32.5936 1654.28 36.4419 Q1650.92 40.2903 1650.92 46.9338 L1650.92 72.576 L1643.42 72.576 L1643.42 45.4349 Q1643.42 38.8725 1641.11 35.7533 Q1638.8 32.5936 1633.98 32.5936 Q1628.27 32.5936 1624.91 36.4824 Q1621.55 40.3308 1621.55 46.9338 L1621.55 72.576 L1614.05 72.576 L1614.05 27.2059 L1621.55 27.2059 L1621.55 34.2544 Q1624.1 30.082 1627.66 28.0971 Q1631.23 26.1121 1636.13 26.1121 Q1641.07 26.1121 1644.52 28.6237 Q1648 31.1352 1649.66 35.9153 Z" fill="#000000" fill-rule="nonzero" fill-opacity="1" /><path clip-path="url(#clip700)" d="M1733.96 48.0275 L1733.96 51.6733 L1699.69 51.6733 Q1700.18 59.3701 1704.31 63.421 Q1708.48 67.4314 1715.89 67.4314 Q1720.19 67.4314 1724.2 66.3781 Q1728.25 65.3249 1732.22 63.2184 L1732.22 70.267 Q1728.21 71.9684 1723.99 72.8596 Q1719.78 73.7508 1715.45 73.7508 Q1704.59 73.7508 1698.23 67.4314 Q1691.91 61.1119 1691.91 50.3365 Q1691.91 39.1965 1697.91 32.6746 Q1703.94 26.1121 1714.15 26.1121 Q1723.31 26.1121 1728.61 32.0264 Q1733.96 37.9003 1733.96 48.0275 M1726.51 45.84 Q1726.43 39.7232 1723.06 36.0774 Q1719.74 32.4315 1714.23 32.4315 Q1707.99 32.4315 1704.23 35.9558 Q1700.5 39.4801 1699.93 45.8805 L1726.51 45.84 Z" fill="#000000" fill-rule="nonzero" fill-opacity="1" /><path clip-path="url(#clip700)" d="M1766.81 49.7694 Q1757.78 49.7694 1754.3 51.8354 Q1750.81 53.9013 1750.81 58.8839 Q1750.81 62.8538 1753.4 65.2034 Q1756.04 67.5124 1760.53 67.5124 Q1766.73 67.5124 1770.46 63.1374 Q1774.23 58.7219 1774.23 51.4303 L1774.23 49.7694 L1766.81 49.7694 M1781.68 46.6907 L1781.68 72.576 L1774.23 72.576 L1774.23 65.6895 Q1771.67 69.8214 1767.87 71.8063 Q1764.06 73.7508 1758.55 73.7508 Q1751.58 73.7508 1747.45 69.8619 Q1743.36 65.9325 1743.36 59.3701 Q1743.36 51.7138 1748.46 47.825 Q1753.61 43.9361 1763.77 43.9361 L1774.23 43.9361 L1774.23 43.2069 Q1774.23 38.0623 1770.82 35.2672 Q1767.46 32.4315 1761.34 32.4315 Q1757.46 32.4315 1753.77 33.3632 Q1750.08 34.295 1746.68 36.1584 L1746.68 29.2718 Q1750.77 27.692 1754.62 26.9223 Q1758.47 26.1121 1762.11 26.1121 Q1771.96 26.1121 1776.82 31.2163 Q1781.68 36.3204 1781.68 46.6907 Z" fill="#000000" fill-rule="nonzero" fill-opacity="1" /><path clip-path="url(#clip700)" d="M1834.75 45.1919 L1834.75 72.576 L1827.29 72.576 L1827.29 45.4349 Q1827.29 38.994 1824.78 35.7938 Q1822.27 32.5936 1817.25 32.5936 Q1811.21 32.5936 1807.73 36.4419 Q1804.24 40.2903 1804.24 46.9338 L1804.24 72.576 L1796.75 72.576 L1796.75 27.2059 L1804.24 27.2059 L1804.24 34.2544 Q1806.92 30.163 1810.52 28.1376 Q1814.17 26.1121 1818.91 26.1121 Q1826.73 26.1121 1830.74 30.9732 Q1834.75 35.7938 1834.75 45.1919 Z" fill="#000000" fill-rule="nonzero" fill-opacity="1" /><path clip-path="url(#clip700)" d="M1856.66 6.22219 L1868.09 21.3726 L1861.89 21.3726 L1848.68 6.22219 L1856.66 6.22219 Z" fill="#000000" fill-rule="nonzero" fill-opacity="1" /><path clip-path="url(#clip701)" d="M218.754 1447.87 L229.113 1447.87 L239.472 1447.87 L249.831 1447.87 L260.191 1447.87 L270.55 1447.87 L280.909 1447.87 L291.268 1447.87 L301.628 1447.87 L311.987 1447.87 L322.346 1447.87 L332.705 1447.87 L343.064 1447.87 L353.424 1447.87 L363.783 1447.87 L374.142 1447.87 L384.501 1447.87 L394.861 1447.87 L405.22 1447.87 L415.579 1447.87 L425.938 1447.87 L436.298 1447.87 L446.657 1447.87 L457.016 1447.87 L467.375 1447.87 L477.734 1447.87 L488.094 1447.87 L498.453 1447.87 L508.812 1447.87 L519.171 1447.87 L529.531 1447.87 L539.89 1447.87 L550.249 1447.87 L560.608 1447.87 L570.968 1447.87 L581.327 1447.87 L591.686 1447.87 L602.045 1447.87 L612.405 1447.87 L622.764 1447.87 L633.123 1447.87 L643.482 1447.87 L653.841 1447.87 L664.201 1447.87 L674.56 1447.87 L684.919 1447.87 L695.278 1447.87 L705.638 1447.87 L715.997 1447.87 L726.356 1447.87 L736.715 1447.87 L747.075 1447.87 L757.434 1447.87 L767.793 1447.87 L778.152 1447.87 L788.512 1447.87 L798.871 1447.87 L809.23 1447.87 L819.589 1447.87 L829.948 1447.87 L840.308 1447.87 L850.667 1447.87 L861.026 1447.87 L871.385 1447.87 L881.745 1447.87 L892.104 1447.87 L902.463 1447.87 L912.822 1447.87 L923.182 1447.87 L933.541 1447.87 L943.9 1447.87 L954.259 1447.87 L964.619 1447.87 L974.978 1447.87 L985.337 1447.87 L995.696 1447.87 L1006.06 1447.87 L1016.41 1447.87 L1026.77 1447.87 L1037.13 1447.87 L1047.49 1447.87 L1057.85 1447.87 L1068.21 1447.87 L1078.57 1447.87 L1088.93 1447.87 L1099.29 1447.87 L1109.65 1447.87 L1120.01 1447.87 L1130.37 1447.87 L1140.73 1447.87 L1151.08 1447.87 L1161.44 1447.87 L1171.8 1447.87 L1182.16 1447.87 L1192.52 1447.87 L1202.88 1447.87 L1213.24 1447.87 L1223.6 1447.87 L1233.96 1447.87 L1244.32 1447.87 L1254.68 1447.87 L1265.04 1447.87 L1275.4 1447.86 L1285.75 1447.86 L1296.11 1447.85 L1306.47 1447.84 L1316.83 1447.82 L1327.19 1447.79 L1337.55 1447.74 L1347.91 1447.67 L1358.27 1447.57 L1368.63 1447.42 L1378.99 1447.21 L1389.35 1446.9 L1399.71 1446.48 L1410.07 1445.88 L1420.42 1445.06 L1430.78 1443.95 L1441.14 1442.44 L1451.5 1440.43 L1461.86 1437.77 L1472.22 1434.31 L1482.58 1429.83 L1492.94 1424.12 L1503.3 1416.92 L1513.66 1407.92 L1524.02 1396.83 L1534.38 1383.31 L1544.74 1367.02 L1555.09 1347.63 L1565.45 1324.82 L1575.81 1298.33 L1586.17 1267.94 L1596.53 1233.53 L1606.89 1195.08 L1617.25 1152.69 L1627.61 1106.63 L1637.97 1057.31 L1648.33 1005.31 L1658.69 951.373 L1669.05 896.405 L1679.41 841.447 L1689.76 787.646 L1700.12 736.225 L1710.48 688.432 L1720.84 645.492 L1731.2 608.561 L1741.56 578.664 L1751.92 556.66 L1762.28 543.191 L1772.64 538.657 L1783 543.191 L1793.36 556.66 L1803.72 578.664 L1814.08 608.561 L1824.43 645.492 L1834.79 688.432 L1845.15 736.225 L1855.51 787.646 L1865.87 841.447 L1876.23 896.405 L1886.59 951.373 L1896.95 1005.31 L1907.31 1057.31 L1917.67 1106.63 L1928.03 1152.69 L1938.39 1195.08 L1948.75 1233.53 L1959.11 1267.94 L1969.46 1298.33 L1979.82 1324.82 L1990.18 1347.63 L2000.54 1367.02 L2010.9 1383.31 L2021.26 1396.83 L2031.62 1407.92 L2041.98 1416.92 L2052.34 1424.12 L2062.7 1429.83 L2073.06 1434.31 L2083.42 1437.77 L2093.78 1440.43 L2104.13 1442.44 L2114.49 1443.95 L2124.85 1445.06 L2135.21 1445.88 L2145.57 1446.48 L2155.93 1446.9 L2166.29 1447.21 L2176.65 1447.42 L2187.01 1447.57 L2197.37 1447.67 L2207.73 1447.74 L2218.09 1447.79 L2228.45 1447.82 L2238.8 1447.84 L2249.16 1447.85 L2259.52 1447.86 L2269.88 1447.86 L2280.24 1447.87 L2290.6 1447.87 L2290.6 1447.87 L2280.24 1447.87 L2269.88 1447.87 L2259.52 1447.87 L2249.16 1447.87 L2238.8 1447.87 L2228.45 1447.87 L2218.09 1447.87 L2207.73 1447.87 L2197.37 1447.87 L2187.01 1447.87 L2176.65 1447.87 L2166.29 1447.87 L2155.93 1447.87 L2145.57 1447.87 L2135.21 1447.87 L2124.85 1447.87 L2114.49 1447.87 L2104.13 1447.87 L2093.78 1447.87 L2083.42 1447.87 L2073.06 1447.87 L2062.7 1447.87 L2052.34 1447.87 L2041.98 1447.87 L2031.62 1447.87 L2021.26 1447.87 L2010.9 1447.87 L2000.54 1447.87 L1990.18 1447.87 L1979.82 1447.87 L1969.46 1447.87 L1959.11 1447.87 L1948.75 1447.87 L1938.39 1447.87 L1928.03 1447.87 L1917.67 1447.87 L1907.31 1447.87 L1896.95 1447.87 L1886.59 1447.87 L1876.23 1447.87 L1865.87 1447.87 L1855.51 1447.87 L1845.15 1447.87 L1834.79 1447.87 L1824.43 1447.87 L1814.08 1447.87 L1803.72 1447.87 L1793.36 1447.87 L1783 1447.87 L1772.64 1447.87 L1762.28 1447.87 L1751.92 1447.87 L1741.56 1447.87 L1731.2 1447.87 L1720.84 1447.87 L1710.48 1447.87 L1700.12 1447.87 L1689.76 1447.87 L1679.41 1447.87 L1669.05 1447.87 L1658.69 1447.87 L1648.33 1447.87 L1637.97 1447.87 L1627.61 1447.87 L1617.25 1447.87 L1606.89 1447.87 L1596.53 1447.87 L1586.17 1447.87 L1575.81 1447.87 L1565.45 1447.87 L1555.09 1447.87 L1544.74 1447.87 L1534.38 1447.87 L1524.02 1447.87 L1513.66 1447.87 L1503.3 1447.87 L1492.94 1447.87 L1482.58 1447.87 L1472.22 1447.87 L1461.86 1447.87 L1451.5 1447.87 L1441.14 1447.87 L1430.78 1447.87 L1420.42 1447.87 L1410.07 1447.87 L1399.71 1447.87 L1389.35 1447.87 L1378.99 1447.87 L1368.63 1447.87 L1358.27 1447.87 L1347.91 1447.87 L1337.55 1447.87 L1327.19 1447.87 L1316.83 1447.87 L1306.47 1447.87 L1296.11 1447.87 L1285.75 1447.87 L1275.4 1447.87 L1265.04 1447.87 L1254.68 1447.87 L1244.32 1447.87 L1233.96 1447.87 L1223.6 1447.87 L1213.24 1447.87 L1202.88 1447.87 L1192.52 1447.87 L1182.16 1447.87 L1171.8 1447.87 L1161.44 1447.87 L1151.08 1447.87 L1140.73 1447.87 L1130.37 1447.87 L1120.01 1447.87 L1109.65 1447.87 L1099.29 1447.87 L1088.93 1447.87 L1078.57 1447.87 L1068.21 1447.87 L1057.85 1447.87 L1047.49 1447.87 L1037.13 1447.87 L1026.77 1447.87 L1016.41 1447.87 L1006.06 1447.87 L995.696 1447.87 L985.337 1447.87 L974.978 1447.87 L964.619 1447.87 L954.259 1447.87 L943.9 1447.87 L933.541 1447.87 L923.182 1447.87 L912.822 1447.87 L902.463 1447.87 L892.104 1447.87 L881.745 1447.87 L871.385 1447.87 L861.026 1447.87 L850.667 1447.87 L840.308 1447.87 L829.948 1447.87 L819.589 1447.87 L809.23 1447.87 L798.871 1447.87 L788.512 1447.87 L778.152 1447.87 L767.793 1447.87 L757.434 1447.87 L747.075 1447.87 L736.715 1447.87 L726.356 1447.87 L715.997 1447.87 L705.638 1447.87 L695.278 1447.87 L684.919 1447.87 L674.56 1447.87 L664.201 1447.87 L653.841 1447.87 L643.482 1447.87 L633.123 1447.87 L622.764 1447.87 L612.405 1447.87 L602.045 1447.87 L591.686 1447.87 L581.327 1447.87 L570.968 1447.87 L560.608 1447.87 L550.249 1447.87 L539.89 1447.87 L529.531 1447.87 L519.171 1447.87 L508.812 1447.87 L498.453 1447.87 L488.094 1447.87 L477.734 1447.87 L467.375 1447.87 L457.016 1447.87 L446.657 1447.87 L436.298 1447.87 L425.938 1447.87 L415.579 1447.87 L405.22 1447.87 L394.861 1447.87 L384.501 1447.87 L374.142 1447.87 L363.783 1447.87 L353.424 1447.87 L343.064 1447.87 L332.705 1447.87 L322.346 1447.87 L311.987 1447.87 L301.628 1447.87 L291.268 1447.87 L280.909 1447.87 L270.55 1447.87 L260.191 1447.87 L249.831 1447.87 L239.472 1447.87 L229.113 1447.87 L218.754 1447.87  Z" fill="#009af9" fill-rule="evenodd" fill-opacity="0.2"/>
<polyline clip-path="url(#clip701)" style="stroke:#009af9; stroke-linecap:round; stroke-linejoin:round; stroke-width:4; stroke-opacity:1; fill:none" points="218.754,1447.87 229.113,1447.87 239.472,1447.87 249.831,1447.87 260.191,1447.87 270.55,1447.87 280.909,1447.87 291.268,1447.87 301.628,1447.87 311.987,1447.87 322.346,1447.87 332.705,1447.87 343.064,1447.87 353.424,1447.87 363.783,1447.87 374.142,1447.87 384.501,1447.87 394.861,1447.87 405.22,1447.87 415.579,1447.87 425.938,1447.87 436.298,1447.87 446.657,1447.87 457.016,1447.87 467.375,1447.87 477.734,1447.87 488.094,1447.87 498.453,1447.87 508.812,1447.87 519.171,1447.87 529.531,1447.87 539.89,1447.87 550.249,1447.87 560.608,1447.87 570.968,1447.87 581.327,1447.87 591.686,1447.87 602.045,1447.87 612.405,1447.87 622.764,1447.87 633.123,1447.87 643.482,1447.87 653.841,1447.87 664.201,1447.87 674.56,1447.87 684.919,1447.87 695.278,1447.87 705.638,1447.87 715.997,1447.87 726.356,1447.87 736.715,1447.87 747.075,1447.87 757.434,1447.87 767.793,1447.87 778.152,1447.87 788.512,1447.87 798.871,1447.87 809.23,1447.87 819.589,1447.87 829.948,1447.87 840.308,1447.87 850.667,1447.87 861.026,1447.87 871.385,1447.87 881.745,1447.87 892.104,1447.87 902.463,1447.87 912.822,1447.87 923.182,1447.87 933.541,1447.87 943.9,1447.87 954.259,1447.87 964.619,1447.87 974.978,1447.87 985.337,1447.87 995.696,1447.87 1006.06,1447.87 1016.41,1447.87 1026.77,1447.87 1037.13,1447.87 1047.49,1447.87 1057.85,1447.87 1068.21,1447.87 1078.57,1447.87 1088.93,1447.87 1099.29,1447.87 1109.65,1447.87 1120.01,1447.87 1130.37,1447.87 1140.73,1447.87 1151.08,1447.87 1161.44,1447.87 1171.8,1447.87 1182.16,1447.87 1192.52,1447.87 1202.88,1447.87 1213.24,1447.87 1223.6,1447.87 1233.96,1447.87 1244.32,1447.87 1254.68,1447.87 1265.04,1447.87 1275.4,1447.86 1285.75,1447.86 1296.11,1447.85 1306.47,1447.84 1316.83,1447.82 1327.19,1447.79 1337.55,1447.74 1347.91,1447.67 1358.27,1447.57 1368.63,1447.42 1378.99,1447.21 1389.35,1446.9 1399.71,1446.48 1410.07,1445.88 1420.42,1445.06 1430.78,1443.95 1441.14,1442.44 1451.5,1440.43 1461.86,1437.77 1472.22,1434.31 1482.58,1429.83 1492.94,1424.12 1503.3,1416.92 1513.66,1407.92 1524.02,1396.83 1534.38,1383.31 1544.74,1367.02 1555.09,1347.63 1565.45,1324.82 1575.81,1298.33 1586.17,1267.94 1596.53,1233.53 1606.89,1195.08 1617.25,1152.69 1627.61,1106.63 1637.97,1057.31 1648.33,1005.31 1658.69,951.373 1669.05,896.405 1679.41,841.447 1689.76,787.646 1700.12,736.225 1710.48,688.432 1720.84,645.492 1731.2,608.561 1741.56,578.664 1751.92,556.66 1762.28,543.191 1772.64,538.657 1783,543.191 1793.36,556.66 1803.72,578.664 1814.08,608.561 1824.43,645.492 1834.79,688.432 1845.15,736.225 1855.51,787.646 1865.87,841.447 1876.23,896.405 1886.59,951.373 1896.95,1005.31 1907.31,1057.31 1917.67,1106.63 1928.03,1152.69 1938.39,1195.08 1948.75,1233.53 1959.11,1267.94 1969.46,1298.33 1979.82,1324.82 1990.18,1347.63 2000.54,1367.02 2010.9,1383.31 2021.26,1396.83 2031.62,1407.92 2041.98,1416.92 2052.34,1424.12 2062.7,1429.83 2073.06,1434.31 2083.42,1437.77 2093.78,1440.43 2104.13,1442.44 2114.49,1443.95 2124.85,1445.06 2135.21,1445.88 2145.57,1446.48 2155.93,1446.9 2166.29,1447.21 2176.65,1447.42 2187.01,1447.57 2197.37,1447.67 2207.73,1447.74 2218.09,1447.79 2228.45,1447.82 2238.8,1447.84 2249.16,1447.85 2259.52,1447.86 2269.88,1447.86 2280.24,1447.87 2290.6,1447.87 "/>
<path clip-path="url(#clip701)" d="M218.754 1447.87 L229.113 1447.87 L239.472 1447.87 L249.831 1447.87 L260.191 1447.87 L270.55 1447.87 L280.909 1447.87 L291.268 1447.87 L301.628 1447.87 L311.987 1447.87 L322.346 1447.87 L332.705 1447.87 L343.064 1447.87 L353.424 1447.87 L363.783 1447.87 L374.142 1447.87 L384.501 1447.87 L394.861 1447.87 L405.22 1447.87 L415.579 1447.87 L425.938 1447.87 L436.298 1447.87 L446.657 1447.87 L457.016 1447.87 L467.375 1447.87 L477.734 1447.87 L488.094 1447.87 L498.453 1447.87 L508.812 1447.87 L519.171 1447.87 L529.531 1447.87 L539.89 1447.87 L550.249 1447.87 L560.608 1447.87 L570.968 1447.87 L581.327 1447.87 L591.686 1447.87 L602.045 1447.87 L612.405 1447.87 L622.764 1447.87 L633.123 1447.87 L643.482 1447.87 L653.841 1447.87 L664.201 1447.87 L674.56 1447.87 L684.919 1447.87 L695.278 1447.87 L705.638 1447.87 L715.997 1447.87 L726.356 1447.87 L736.715 1447.87 L747.075 1447.87 L757.434 1447.87 L767.793 1447.87 L778.152 1447.87 L788.512 1447.87 L798.871 1447.87 L809.23 1447.87 L819.589 1447.87 L829.948 1447.87 L840.308 1447.87 L850.667 1447.87 L861.026 1447.87 L871.385 1447.87 L881.745 1447.87 L892.104 1447.87 L902.463 1447.87 L912.822 1447.87 L923.182 1447.87 L933.541 1447.87 L943.9 1447.87 L954.259 1447.87 L964.619 1447.87 L974.978 1447.87 L985.337 1447.87 L995.696 1447.87 L1006.06 1447.87 L1016.41 1447.87 L1026.77 1447.87 L1037.13 1447.87 L1047.49 1447.87 L1057.85 1447.87 L1068.21 1447.87 L1078.57 1447.87 L1088.93 1447.87 L1099.29 1447.87 L1109.65 1447.86 L1120.01 1447.85 L1130.37 1447.83 L1140.73 1447.79 L1151.08 1447.71 L1161.44 1447.59 L1171.8 1447.37 L1182.16 1447 L1192.52 1446.38 L1202.88 1445.39 L1213.24 1443.82 L1223.6 1441.39 L1233.96 1437.71 L1244.32 1432.24 L1254.68 1424.32 L1265.04 1413.09 L1275.4 1397.52 L1285.75 1376.41 L1296.11 1348.47 L1306.47 1312.35 L1316.83 1266.75 L1327.19 1210.61 L1337.55 1143.23 L1347.91 1064.44 L1358.27 974.844 L1368.63 875.863 L1378.99 769.867 L1389.35 660.142 L1399.71 550.783 L1410.07 446.471 L1420.42 352.164 L1430.78 272.716 L1441.14 212.465 L1451.5 174.841 L1461.86 162.047 L1472.22 174.841 L1482.58 212.465 L1492.94 272.716 L1503.3 352.164 L1513.66 446.471 L1524.02 550.783 L1534.38 660.142 L1544.74 769.867 L1555.09 875.863 L1565.45 974.844 L1575.81 1064.44 L1586.17 1143.23 L1596.53 1210.61 L1606.89 1266.75 L1617.25 1312.35 L1627.61 1348.47 L1637.97 1376.41 L1648.33 1397.52 L1658.69 1413.09 L1669.05 1424.32 L1679.41 1432.24 L1689.76 1437.71 L1700.12 1441.39 L1710.48 1443.82 L1720.84 1445.39 L1731.2 1446.38 L1741.56 1447 L1751.92 1447.37 L1762.28 1447.59 L1772.64 1447.71 L1783 1447.79 L1793.36 1447.83 L1803.72 1447.85 L1814.08 1447.86 L1824.43 1447.87 L1834.79 1447.87 L1845.15 1447.87 L1855.51 1447.87 L1865.87 1447.87 L1876.23 1447.87 L1886.59 1447.87 L1896.95 1447.87 L1907.31 1447.87 L1917.67 1447.87 L1928.03 1447.87 L1938.39 1447.87 L1948.75 1447.87 L1959.11 1447.87 L1969.46 1447.87 L1979.82 1447.87 L1990.18 1447.87 L2000.54 1447.87 L2010.9 1447.87 L2021.26 1447.87 L2031.62 1447.87 L2041.98 1447.87 L2052.34 1447.87 L2062.7 1447.87 L2073.06 1447.87 L2083.42 1447.87 L2093.78 1447.87 L2104.13 1447.87 L2114.49 1447.87 L2124.85 1447.87 L2135.21 1447.87 L2145.57 1447.87 L2155.93 1447.87 L2166.29 1447.87 L2176.65 1447.87 L2187.01 1447.87 L2197.37 1447.87 L2207.73 1447.87 L2218.09 1447.87 L2228.45 1447.87 L2238.8 1447.87 L2249.16 1447.87 L2259.52 1447.87 L2269.88 1447.87 L2280.24 1447.87 L2290.6 1447.87 L2290.6 1447.87 L2280.24 1447.87 L2269.88 1447.87 L2259.52 1447.87 L2249.16 1447.87 L2238.8 1447.87 L2228.45 1447.87 L2218.09 1447.87 L2207.73 1447.87 L2197.37 1447.87 L2187.01 1447.87 L2176.65 1447.87 L2166.29 1447.87 L2155.93 1447.87 L2145.57 1447.87 L2135.21 1447.87 L2124.85 1447.87 L2114.49 1447.87 L2104.13 1447.87 L2093.78 1447.87 L2083.42 1447.87 L2073.06 1447.87 L2062.7 1447.87 L2052.34 1447.87 L2041.98 1447.87 L2031.62 1447.87 L2021.26 1447.87 L2010.9 1447.87 L2000.54 1447.87 L1990.18 1447.87 L1979.82 1447.87 L1969.46 1447.87 L1959.11 1447.87 L1948.75 1447.87 L1938.39 1447.87 L1928.03 1447.87 L1917.67 1447.87 L1907.31 1447.87 L1896.95 1447.87 L1886.59 1447.87 L1876.23 1447.87 L1865.87 1447.87 L1855.51 1447.87 L1845.15 1447.87 L1834.79 1447.87 L1824.43 1447.87 L1814.08 1447.87 L1803.72 1447.87 L1793.36 1447.87 L1783 1447.87 L1772.64 1447.87 L1762.28 1447.87 L1751.92 1447.87 L1741.56 1447.87 L1731.2 1447.87 L1720.84 1447.87 L1710.48 1447.87 L1700.12 1447.87 L1689.76 1447.87 L1679.41 1447.87 L1669.05 1447.87 L1658.69 1447.87 L1648.33 1447.87 L1637.97 1447.87 L1627.61 1447.87 L1617.25 1447.87 L1606.89 1447.87 L1596.53 1447.87 L1586.17 1447.87 L1575.81 1447.87 L1565.45 1447.87 L1555.09 1447.87 L1544.74 1447.87 L1534.38 1447.87 L1524.02 1447.87 L1513.66 1447.87 L1503.3 1447.87 L1492.94 1447.87 L1482.58 1447.87 L1472.22 1447.87 L1461.86 1447.87 L1451.5 1447.87 L1441.14 1447.87 L1430.78 1447.87 L1420.42 1447.87 L1410.07 1447.87 L1399.71 1447.87 L1389.35 1447.87 L1378.99 1447.87 L1368.63 1447.87 L1358.27 1447.87 L1347.91 1447.87 L1337.55 1447.87 L1327.19 1447.87 L1316.83 1447.87 L1306.47 1447.87 L1296.11 1447.87 L1285.75 1447.87 L1275.4 1447.87 L1265.04 1447.87 L1254.68 1447.87 L1244.32 1447.87 L1233.96 1447.87 L1223.6 1447.87 L1213.24 1447.87 L1202.88 1447.87 L1192.52 1447.87 L1182.16 1447.87 L1171.8 1447.87 L1161.44 1447.87 L1151.08 1447.87 L1140.73 1447.87 L1130.37 1447.87 L1120.01 1447.87 L1109.65 1447.87 L1099.29 1447.87 L1088.93 1447.87 L1078.57 1447.87 L1068.21 1447.87 L1057.85 1447.87 L1047.49 1447.87 L1037.13 1447.87 L1026.77 1447.87 L1016.41 1447.87 L1006.06 1447.87 L995.696 1447.87 L985.337 1447.87 L974.978 1447.87 L964.619 1447.87 L954.259 1447.87 L943.9 1447.87 L933.541 1447.87 L923.182 1447.87 L912.822 1447.87 L902.463 1447.87 L892.104 1447.87 L881.745 1447.87 L871.385 1447.87 L861.026 1447.87 L850.667 1447.87 L840.308 1447.87 L829.948 1447.87 L819.589 1447.87 L809.23 1447.87 L798.871 1447.87 L788.512 1447.87 L778.152 1447.87 L767.793 1447.87 L757.434 1447.87 L747.075 1447.87 L736.715 1447.87 L726.356 1447.87 L715.997 1447.87 L705.638 1447.87 L695.278 1447.87 L684.919 1447.87 L674.56 1447.87 L664.201 1447.87 L653.841 1447.87 L643.482 1447.87 L633.123 1447.87 L622.764 1447.87 L612.405 1447.87 L602.045 1447.87 L591.686 1447.87 L581.327 1447.87 L570.968 1447.87 L560.608 1447.87 L550.249 1447.87 L539.89 1447.87 L529.531 1447.87 L519.171 1447.87 L508.812 1447.87 L498.453 1447.87 L488.094 1447.87 L477.734 1447.87 L467.375 1447.87 L457.016 1447.87 L446.657 1447.87 L436.298 1447.87 L425.938 1447.87 L415.579 1447.87 L405.22 1447.87 L394.861 1447.87 L384.501 1447.87 L374.142 1447.87 L363.783 1447.87 L353.424 1447.87 L343.064 1447.87 L332.705 1447.87 L322.346 1447.87 L311.987 1447.87 L301.628 1447.87 L291.268 1447.87 L280.909 1447.87 L270.55 1447.87 L260.191 1447.87 L249.831 1447.87 L239.472 1447.87 L229.113 1447.87 L218.754 1447.87  Z" fill="#e26f46" fill-rule="evenodd" fill-opacity="0.2"/>
<polyline clip-path="url(#clip701)" style="stroke:#e26f46; stroke-linecap:round; stroke-linejoin:round; stroke-width:4; stroke-opacity:1; fill:none" points="218.754,1447.87 229.113,1447.87 239.472,1447.87 249.831,1447.87 260.191,1447.87 270.55,1447.87 280.909,1447.87 291.268,1447.87 301.628,1447.87 311.987,1447.87 322.346,1447.87 332.705,1447.87 343.064,1447.87 353.424,1447.87 363.783,1447.87 374.142,1447.87 384.501,1447.87 394.861,1447.87 405.22,1447.87 415.579,1447.87 425.938,1447.87 436.298,1447.87 446.657,1447.87 457.016,1447.87 467.375,1447.87 477.734,1447.87 488.094,1447.87 498.453,1447.87 508.812,1447.87 519.171,1447.87 529.531,1447.87 539.89,1447.87 550.249,1447.87 560.608,1447.87 570.968,1447.87 581.327,1447.87 591.686,1447.87 602.045,1447.87 612.405,1447.87 622.764,1447.87 633.123,1447.87 643.482,1447.87 653.841,1447.87 664.201,1447.87 674.56,1447.87 684.919,1447.87 695.278,1447.87 705.638,1447.87 715.997,1447.87 726.356,1447.87 736.715,1447.87 747.075,1447.87 757.434,1447.87 767.793,1447.87 778.152,1447.87 788.512,1447.87 798.871,1447.87 809.23,1447.87 819.589,1447.87 829.948,1447.87 840.308,1447.87 850.667,1447.87 861.026,1447.87 871.385,1447.87 881.745,1447.87 892.104,1447.87 902.463,1447.87 912.822,1447.87 923.182,1447.87 933.541,1447.87 943.9,1447.87 954.259,1447.87 964.619,1447.87 974.978,1447.87 985.337,1447.87 995.696,1447.87 1006.06,1447.87 1016.41,1447.87 1026.77,1447.87 1037.13,1447.87 1047.49,1447.87 1057.85,1447.87 1068.21,1447.87 1078.57,1447.87 1088.93,1447.87 1099.29,1447.87 1109.65,1447.86 1120.01,1447.85 1130.37,1447.83 1140.73,1447.79 1151.08,1447.71 1161.44,1447.59 1171.8,1447.37 1182.16,1447 1192.52,1446.38 1202.88,1445.39 1213.24,1443.82 1223.6,1441.39 1233.96,1437.71 1244.32,1432.24 1254.68,1424.32 1265.04,1413.09 1275.4,1397.52 1285.75,1376.41 1296.11,1348.47 1306.47,1312.35 1316.83,1266.75 1327.19,1210.61 1337.55,1143.23 1347.91,1064.44 1358.27,974.844 1368.63,875.863 1378.99,769.867 1389.35,660.142 1399.71,550.783 1410.07,446.471 1420.42,352.164 1430.78,272.716 1441.14,212.465 1451.5,174.841 1461.86,162.047 1472.22,174.841 1482.58,212.465 1492.94,272.716 1503.3,352.164 1513.66,446.471 1524.02,550.783 1534.38,660.142 1544.74,769.867 1555.09,875.863 1565.45,974.844 1575.81,1064.44 1586.17,1143.23 1596.53,1210.61 1606.89,1266.75 1617.25,1312.35 1627.61,1348.47 1637.97,1376.41 1648.33,1397.52 1658.69,1413.09 1669.05,1424.32 1679.41,1432.24 1689.76,1437.71 1700.12,1441.39 1710.48,1443.82 1720.84,1445.39 1731.2,1446.38 1741.56,1447 1751.92,1447.37 1762.28,1447.59 1772.64,1447.71 1783,1447.79 1793.36,1447.83 1803.72,1447.85 1814.08,1447.86 1824.43,1447.87 1834.79,1447.87 1845.15,1447.87 1855.51,1447.87 1865.87,1447.87 1876.23,1447.87 1886.59,1447.87 1896.95,1447.87 1907.31,1447.87 1917.67,1447.87 1928.03,1447.87 1938.39,1447.87 1948.75,1447.87 1959.11,1447.87 1969.46,1447.87 1979.82,1447.87 1990.18,1447.87 2000.54,1447.87 2010.9,1447.87 2021.26,1447.87 2031.62,1447.87 2041.98,1447.87 2052.34,1447.87 2062.7,1447.87 2073.06,1447.87 2083.42,1447.87 2093.78,1447.87 2104.13,1447.87 2114.49,1447.87 2124.85,1447.87 2135.21,1447.87 2145.57,1447.87 2155.93,1447.87 2166.29,1447.87 2176.65,1447.87 2187.01,1447.87 2197.37,1447.87 2207.73,1447.87 2218.09,1447.87 2228.45,1447.87 2238.8,1447.87 2249.16,1447.87 2259.52,1447.87 2269.88,1447.87 2280.24,1447.87 2290.6,1447.87 "/>
<polyline clip-path="url(#clip701)" style="stroke:#3da44d; stroke-linecap:round; stroke-linejoin:round; stroke-width:4; stroke-opacity:1; fill:none" points="1254.68,2849.42 1254.68,-1239.5 "/>
<path clip-path="url(#clip700)" d="M1820.93 376.265 L2279.55 376.265 L2279.55 168.905 L1820.93 168.905  Z" fill="#ffffff" fill-rule="evenodd" fill-opacity="1"/>
<polyline clip-path="url(#clip700)" style="stroke:#000000; stroke-linecap:round; stroke-linejoin:round; stroke-width:4; stroke-opacity:1; fill:none" points="1820.93,376.265 2279.55,376.265 2279.55,168.905 1820.93,168.905 1820.93,376.265 "/>
<path clip-path="url(#clip700)" d="M1845.33 241.481 L1991.74 241.481 L1991.74 200.009 L1845.33 200.009 L1845.33 241.481  Z" fill="#009af9" fill-rule="evenodd" fill-opacity="0.2"/>
<polyline clip-path="url(#clip700)" style="stroke:#009af9; stroke-linecap:round; stroke-linejoin:round; stroke-width:4; stroke-opacity:1; fill:none" points="1845.33,200.009 1991.74,200.009 "/>
<path clip-path="url(#clip700)" d="M2020.43 234.136 L2020.43 247.886 L2016.15 247.886 L2016.15 212.099 L2020.43 212.099 L2020.43 216.034 Q2021.77 213.719 2023.81 212.608 Q2025.87 211.474 2028.71 211.474 Q2033.44 211.474 2036.38 215.224 Q2039.34 218.974 2039.34 225.085 Q2039.34 231.196 2036.38 234.946 Q2033.44 238.696 2028.71 238.696 Q2025.87 238.696 2023.81 237.585 Q2021.77 236.451 2020.43 234.136 M2034.92 225.085 Q2034.92 220.386 2032.97 217.724 Q2031.05 215.039 2027.67 215.039 Q2024.29 215.039 2022.35 217.724 Q2020.43 220.386 2020.43 225.085 Q2020.43 229.784 2022.35 232.469 Q2024.29 235.131 2027.67 235.131 Q2031.05 235.131 2032.97 232.469 Q2034.92 229.784 2034.92 225.085 Z" fill="#000000" fill-rule="nonzero" fill-opacity="1" /><path clip-path="url(#clip700)" d="M2061.42 216.08 Q2060.71 215.664 2059.85 215.478 Q2059.02 215.27 2058 215.27 Q2054.39 215.27 2052.44 217.631 Q2050.52 219.969 2050.52 224.367 L2050.52 238.025 L2046.24 238.025 L2046.24 212.099 L2050.52 212.099 L2050.52 216.127 Q2051.86 213.766 2054.02 212.631 Q2056.17 211.474 2059.25 211.474 Q2059.69 211.474 2060.22 211.543 Q2060.75 211.59 2061.4 211.705 L2061.42 216.08 Z" fill="#000000" fill-rule="nonzero" fill-opacity="1" /><path clip-path="url(#clip700)" d="M2065.89 212.099 L2070.15 212.099 L2070.15 238.025 L2065.89 238.025 L2065.89 212.099 M2065.89 202.006 L2070.15 202.006 L2070.15 207.4 L2065.89 207.4 L2065.89 202.006 Z" fill="#000000" fill-rule="nonzero" fill-opacity="1" /><path clip-path="url(#clip700)" d="M2089.11 215.085 Q2085.68 215.085 2083.69 217.77 Q2081.7 220.432 2081.7 225.085 Q2081.7 229.738 2083.67 232.423 Q2085.66 235.085 2089.11 235.085 Q2092.51 235.085 2094.5 232.4 Q2096.49 229.715 2096.49 225.085 Q2096.49 220.478 2094.5 217.793 Q2092.51 215.085 2089.11 215.085 M2089.11 211.474 Q2094.66 211.474 2097.83 215.085 Q2101.01 218.696 2101.01 225.085 Q2101.01 231.451 2097.83 235.085 Q2094.66 238.696 2089.11 238.696 Q2083.53 238.696 2080.36 235.085 Q2077.21 231.451 2077.21 225.085 Q2077.21 218.696 2080.36 215.085 Q2083.53 211.474 2089.11 211.474 Z" fill="#000000" fill-rule="nonzero" fill-opacity="1" /><path clip-path="url(#clip700)" d="M2123.09 216.08 Q2122.37 215.664 2121.52 215.478 Q2120.68 215.27 2119.66 215.27 Q2116.05 215.27 2114.11 217.631 Q2112.19 219.969 2112.19 224.367 L2112.19 238.025 L2107.9 238.025 L2107.9 212.099 L2112.19 212.099 L2112.19 216.127 Q2113.53 213.766 2115.68 212.631 Q2117.83 211.474 2120.91 211.474 Q2121.35 211.474 2121.89 211.543 Q2122.42 211.59 2123.07 211.705 L2123.09 216.08 Z" fill="#000000" fill-rule="nonzero" fill-opacity="1" /><path clip-path="url(#clip700)" d="M1845.33 293.321 L1991.74 293.321 L1991.74 251.849 L1845.33 251.849 L1845.33 293.321  Z" fill="#e26f46" fill-rule="evenodd" fill-opacity="0.2"/>
<polyline clip-path="url(#clip700)" style="stroke:#e26f46; stroke-linecap:round; stroke-linejoin:round; stroke-width:4; stroke-opacity:1; fill:none" points="1845.33,251.849 1991.74,251.849 "/>
<path clip-path="url(#clip700)" d="M2020.43 285.976 L2020.43 299.726 L2016.15 299.726 L2016.15 263.939 L2020.43 263.939 L2020.43 267.874 Q2021.77 265.559 2023.81 264.448 Q2025.87 263.314 2028.71 263.314 Q2033.44 263.314 2036.38 267.064 Q2039.34 270.814 2039.34 276.925 Q2039.34 283.036 2036.38 286.786 Q2033.44 290.536 2028.71 290.536 Q2025.87 290.536 2023.81 289.425 Q2021.77 288.291 2020.43 285.976 M2034.92 276.925 Q2034.92 272.226 2032.97 269.564 Q2031.05 266.879 2027.67 266.879 Q2024.29 266.879 2022.35 269.564 Q2020.43 272.226 2020.43 276.925 Q2020.43 281.624 2022.35 284.309 Q2024.29 286.971 2027.67 286.971 Q2031.05 286.971 2032.97 284.309 Q2034.92 281.624 2034.92 276.925 Z" fill="#000000" fill-rule="nonzero" fill-opacity="1" /><path clip-path="url(#clip700)" d="M2056.45 266.925 Q2053.02 266.925 2051.03 269.61 Q2049.04 272.272 2049.04 276.925 Q2049.04 281.578 2051.01 284.263 Q2053 286.925 2056.45 286.925 Q2059.85 286.925 2061.84 284.24 Q2063.83 281.555 2063.83 276.925 Q2063.83 272.318 2061.84 269.633 Q2059.85 266.925 2056.45 266.925 M2056.45 263.314 Q2062 263.314 2065.17 266.925 Q2068.34 270.536 2068.34 276.925 Q2068.34 283.291 2065.17 286.925 Q2062 290.536 2056.45 290.536 Q2050.87 290.536 2047.7 286.925 Q2044.55 283.291 2044.55 276.925 Q2044.55 270.536 2047.7 266.925 Q2050.87 263.314 2056.45 263.314 Z" fill="#000000" fill-rule="nonzero" fill-opacity="1" /><path clip-path="url(#clip700)" d="M2091.93 264.703 L2091.93 268.731 Q2090.13 267.805 2088.18 267.342 Q2086.24 266.879 2084.15 266.879 Q2080.98 266.879 2079.39 267.851 Q2077.81 268.823 2077.81 270.768 Q2077.81 272.249 2078.95 273.105 Q2080.08 273.939 2083.51 274.703 L2084.96 275.027 Q2089.5 275.999 2091.4 277.781 Q2093.32 279.541 2093.32 282.712 Q2093.32 286.323 2090.45 288.429 Q2087.6 290.536 2082.6 290.536 Q2080.52 290.536 2078.25 290.119 Q2076.01 289.726 2073.51 288.916 L2073.51 284.517 Q2075.87 285.744 2078.16 286.369 Q2080.45 286.971 2082.7 286.971 Q2085.71 286.971 2087.33 285.953 Q2088.95 284.911 2088.95 283.036 Q2088.95 281.3 2087.77 280.374 Q2086.61 279.448 2082.65 278.592 L2081.17 278.244 Q2077.21 277.411 2075.45 275.698 Q2073.69 273.962 2073.69 270.953 Q2073.69 267.295 2076.28 265.305 Q2078.88 263.314 2083.65 263.314 Q2086.01 263.314 2088.09 263.661 Q2090.17 264.008 2091.93 264.703 Z" fill="#000000" fill-rule="nonzero" fill-opacity="1" /><path clip-path="url(#clip700)" d="M2104.32 256.578 L2104.32 263.939 L2113.09 263.939 L2113.09 267.249 L2104.32 267.249 L2104.32 281.323 Q2104.32 284.494 2105.17 285.397 Q2106.05 286.3 2108.71 286.3 L2113.09 286.3 L2113.09 289.865 L2108.71 289.865 Q2103.78 289.865 2101.91 288.036 Q2100.03 286.184 2100.03 281.323 L2100.03 267.249 L2096.91 267.249 L2096.91 263.939 L2100.03 263.939 L2100.03 256.578 L2104.32 256.578 Z" fill="#000000" fill-rule="nonzero" fill-opacity="1" /><path clip-path="url(#clip700)" d="M2140.87 275.837 L2140.87 277.92 L2121.28 277.92 Q2121.56 282.318 2123.92 284.633 Q2126.31 286.925 2130.54 286.925 Q2133 286.925 2135.29 286.323 Q2137.6 285.721 2139.87 284.517 L2139.87 288.545 Q2137.58 289.517 2135.17 290.027 Q2132.77 290.536 2130.29 290.536 Q2124.08 290.536 2120.45 286.925 Q2116.84 283.314 2116.84 277.156 Q2116.84 270.791 2120.27 267.064 Q2123.71 263.314 2129.55 263.314 Q2134.78 263.314 2137.81 266.693 Q2140.87 270.05 2140.87 275.837 M2136.61 274.587 Q2136.56 271.092 2134.64 269.008 Q2132.74 266.925 2129.59 266.925 Q2126.03 266.925 2123.88 268.939 Q2121.75 270.953 2121.42 274.61 L2136.61 274.587 Z" fill="#000000" fill-rule="nonzero" fill-opacity="1" /><path clip-path="url(#clip700)" d="M2162.88 267.92 Q2162.16 267.504 2161.31 267.318 Q2160.47 267.11 2159.45 267.11 Q2155.84 267.11 2153.9 269.471 Q2151.98 271.809 2151.98 276.207 L2151.98 289.865 L2147.7 289.865 L2147.7 263.939 L2151.98 263.939 L2151.98 267.967 Q2153.32 265.606 2155.47 264.471 Q2157.63 263.314 2160.7 263.314 Q2161.14 263.314 2161.68 263.383 Q2162.21 263.43 2162.86 263.545 L2162.88 267.92 Z" fill="#000000" fill-rule="nonzero" fill-opacity="1" /><path clip-path="url(#clip700)" d="M2167.35 263.939 L2171.61 263.939 L2171.61 289.865 L2167.35 289.865 L2167.35 263.939 M2167.35 253.846 L2171.61 253.846 L2171.61 259.24 L2167.35 259.24 L2167.35 253.846 Z" fill="#000000" fill-rule="nonzero" fill-opacity="1" /><path clip-path="url(#clip700)" d="M2190.57 266.925 Q2187.14 266.925 2185.15 269.61 Q2183.16 272.272 2183.16 276.925 Q2183.16 281.578 2185.13 284.263 Q2187.12 286.925 2190.57 286.925 Q2193.97 286.925 2195.96 284.24 Q2197.95 281.555 2197.95 276.925 Q2197.95 272.318 2195.96 269.633 Q2193.97 266.925 2190.57 266.925 M2190.57 263.314 Q2196.12 263.314 2199.29 266.925 Q2202.46 270.536 2202.46 276.925 Q2202.46 283.291 2199.29 286.925 Q2196.12 290.536 2190.57 290.536 Q2184.99 290.536 2181.82 286.925 Q2178.67 283.291 2178.67 276.925 Q2178.67 270.536 2181.82 266.925 Q2184.99 263.314 2190.57 263.314 Z" fill="#000000" fill-rule="nonzero" fill-opacity="1" /><path clip-path="url(#clip700)" d="M2224.55 267.92 Q2223.83 267.504 2222.97 267.318 Q2222.14 267.11 2221.12 267.11 Q2217.51 267.11 2215.57 269.471 Q2213.64 271.809 2213.64 276.207 L2213.64 289.865 L2209.36 289.865 L2209.36 263.939 L2213.64 263.939 L2213.64 267.967 Q2214.99 265.606 2217.14 264.471 Q2219.29 263.314 2222.37 263.314 Q2222.81 263.314 2223.34 263.383 Q2223.88 263.43 2224.52 263.545 L2224.55 267.92 Z" fill="#000000" fill-rule="nonzero" fill-opacity="1" /><polyline clip-path="url(#clip700)" style="stroke:#3da44d; stroke-linecap:round; stroke-linejoin:round; stroke-width:4; stroke-opacity:1; fill:none" points="1845.33,324.425 1991.74,324.425 "/>
<path clip-path="url(#clip700)" d="M2035.06 319.714 L2035.06 305.686 L2039.32 305.686 L2039.32 341.705 L2035.06 341.705 L2035.06 337.816 Q2033.71 340.131 2031.65 341.265 Q2029.62 342.376 2026.75 342.376 Q2022.05 342.376 2019.09 338.626 Q2016.15 334.876 2016.15 328.765 Q2016.15 322.654 2019.09 318.904 Q2022.05 315.154 2026.75 315.154 Q2029.62 315.154 2031.65 316.288 Q2033.71 317.399 2035.06 319.714 M2020.54 328.765 Q2020.54 333.464 2022.46 336.149 Q2024.41 338.811 2027.79 338.811 Q2031.17 338.811 2033.11 336.149 Q2035.06 333.464 2035.06 328.765 Q2035.06 324.066 2033.11 321.404 Q2031.17 318.719 2027.79 318.719 Q2024.41 318.719 2022.46 321.404 Q2020.54 324.066 2020.54 328.765 Z" fill="#000000" fill-rule="nonzero" fill-opacity="1" /><path clip-path="url(#clip700)" d="M2059.87 328.672 Q2054.71 328.672 2052.72 329.853 Q2050.73 331.033 2050.73 333.881 Q2050.73 336.149 2052.21 337.492 Q2053.71 338.811 2056.28 338.811 Q2059.83 338.811 2061.96 336.311 Q2064.11 333.788 2064.11 329.621 L2064.11 328.672 L2059.87 328.672 M2068.37 326.913 L2068.37 341.705 L2064.11 341.705 L2064.11 337.769 Q2062.65 340.131 2060.47 341.265 Q2058.3 342.376 2055.15 342.376 Q2051.17 342.376 2048.81 340.154 Q2046.47 337.908 2046.47 334.158 Q2046.47 329.783 2049.39 327.561 Q2052.33 325.339 2058.14 325.339 L2064.11 325.339 L2064.11 324.922 Q2064.11 321.983 2062.16 320.385 Q2060.24 318.765 2056.75 318.765 Q2054.52 318.765 2052.42 319.297 Q2050.31 319.83 2048.37 320.895 L2048.37 316.959 Q2050.71 316.057 2052.9 315.617 Q2055.1 315.154 2057.19 315.154 Q2062.81 315.154 2065.59 318.071 Q2068.37 320.987 2068.37 326.913 Z" fill="#000000" fill-rule="nonzero" fill-opacity="1" /><path clip-path="url(#clip700)" d="M2081.35 308.418 L2081.35 315.779 L2090.13 315.779 L2090.13 319.089 L2081.35 319.089 L2081.35 333.163 Q2081.35 336.334 2082.21 337.237 Q2083.09 338.14 2085.75 338.14 L2090.13 338.14 L2090.13 341.705 L2085.75 341.705 Q2080.82 341.705 2078.95 339.876 Q2077.07 338.024 2077.07 333.163 L2077.07 319.089 L2073.95 319.089 L2073.95 315.779 L2077.07 315.779 L2077.07 308.418 L2081.35 308.418 Z" fill="#000000" fill-rule="nonzero" fill-opacity="1" /><path clip-path="url(#clip700)" d="M2107.51 328.672 Q2102.35 328.672 2100.36 329.853 Q2098.37 331.033 2098.37 333.881 Q2098.37 336.149 2099.85 337.492 Q2101.35 338.811 2103.92 338.811 Q2107.46 338.811 2109.59 336.311 Q2111.75 333.788 2111.75 329.621 L2111.75 328.672 L2107.51 328.672 M2116.01 326.913 L2116.01 341.705 L2111.75 341.705 L2111.75 337.769 Q2110.29 340.131 2108.11 341.265 Q2105.94 342.376 2102.79 342.376 Q2098.81 342.376 2096.45 340.154 Q2094.11 337.908 2094.11 334.158 Q2094.11 329.783 2097.02 327.561 Q2099.96 325.339 2105.77 325.339 L2111.75 325.339 L2111.75 324.922 Q2111.75 321.983 2109.8 320.385 Q2107.88 318.765 2104.39 318.765 Q2102.16 318.765 2100.06 319.297 Q2097.95 319.83 2096.01 320.895 L2096.01 316.959 Q2098.34 316.057 2100.54 315.617 Q2102.74 315.154 2104.83 315.154 Q2110.45 315.154 2113.23 318.071 Q2116.01 320.987 2116.01 326.913 Z" fill="#000000" fill-rule="nonzero" fill-opacity="1" /><path clip-path="url(#clip700)" d="M2143.97 337.816 L2143.97 351.566 L2139.69 351.566 L2139.69 315.779 L2143.97 315.779 L2143.97 319.714 Q2145.31 317.399 2147.35 316.288 Q2149.41 315.154 2152.26 315.154 Q2156.98 315.154 2159.92 318.904 Q2162.88 322.654 2162.88 328.765 Q2162.88 334.876 2159.92 338.626 Q2156.98 342.376 2152.26 342.376 Q2149.41 342.376 2147.35 341.265 Q2145.31 340.131 2143.97 337.816 M2158.46 328.765 Q2158.46 324.066 2156.52 321.404 Q2154.59 318.719 2151.21 318.719 Q2147.83 318.719 2145.89 321.404 Q2143.97 324.066 2143.97 328.765 Q2143.97 333.464 2145.89 336.149 Q2147.83 338.811 2151.21 338.811 Q2154.59 338.811 2156.52 336.149 Q2158.46 333.464 2158.46 328.765 Z" fill="#000000" fill-rule="nonzero" fill-opacity="1" /><path clip-path="url(#clip700)" d="M2179.99 318.765 Q2176.56 318.765 2174.57 321.45 Q2172.58 324.112 2172.58 328.765 Q2172.58 333.418 2174.55 336.103 Q2176.54 338.765 2179.99 338.765 Q2183.39 338.765 2185.38 336.08 Q2187.37 333.395 2187.37 328.765 Q2187.37 324.158 2185.38 321.473 Q2183.39 318.765 2179.99 318.765 M2179.99 315.154 Q2185.54 315.154 2188.71 318.765 Q2191.89 322.376 2191.89 328.765 Q2191.89 335.131 2188.71 338.765 Q2185.54 342.376 2179.99 342.376 Q2174.41 342.376 2171.24 338.765 Q2168.09 335.131 2168.09 328.765 Q2168.09 322.376 2171.24 318.765 Q2174.41 315.154 2179.99 315.154 Z" fill="#000000" fill-rule="nonzero" fill-opacity="1" /><path clip-path="url(#clip700)" d="M2198.95 315.779 L2203.2 315.779 L2203.2 341.705 L2198.95 341.705 L2198.95 315.779 M2198.95 305.686 L2203.2 305.686 L2203.2 311.08 L2198.95 311.08 L2198.95 305.686 Z" fill="#000000" fill-rule="nonzero" fill-opacity="1" /><path clip-path="url(#clip700)" d="M2233.67 326.057 L2233.67 341.705 L2229.41 341.705 L2229.41 326.195 Q2229.41 322.515 2227.97 320.686 Q2226.54 318.858 2223.67 318.858 Q2220.22 318.858 2218.23 321.057 Q2216.24 323.256 2216.24 327.052 L2216.24 341.705 L2211.95 341.705 L2211.95 315.779 L2216.24 315.779 L2216.24 319.807 Q2217.76 317.469 2219.83 316.311 Q2221.91 315.154 2224.62 315.154 Q2229.08 315.154 2231.38 317.932 Q2233.67 320.686 2233.67 326.057 Z" fill="#000000" fill-rule="nonzero" fill-opacity="1" /><path clip-path="url(#clip700)" d="M2246.38 308.418 L2246.38 315.779 L2255.15 315.779 L2255.15 319.089 L2246.38 319.089 L2246.38 333.163 Q2246.38 336.334 2247.23 337.237 Q2248.11 338.14 2250.77 338.14 L2255.15 338.14 L2255.15 341.705 L2250.77 341.705 Q2245.84 341.705 2243.97 339.876 Q2242.09 338.024 2242.09 333.163 L2242.09 319.089 L2238.97 319.089 L2238.97 315.779 L2242.09 315.779 L2242.09 308.418 L2246.38 308.418 Z" fill="#000000" fill-rule="nonzero" fill-opacity="1" /></svg>
