<?xml version="1.0" encoding="utf-8"?>
<svg xmlns="http://www.w3.org/2000/svg" xmlns:xlink="http://www.w3.org/1999/xlink" width="600" height="400" viewBox="0 0 2400 1600">
<defs>
  <clipPath id="clip790">
    <rect x="0" y="0" width="2400" height="1600"/>
  </clipPath>
</defs>
<path clip-path="url(#clip790)" d="M0 1600 L2400 1600 L2400 0 L0 0  Z" fill="#ffffff" fill-rule="evenodd" fill-opacity="1"/>
<defs>
  <clipPath id="clip791">
    <rect x="480" y="0" width="1681" height="1600"/>
  </clipPath>
</defs>
<path clip-path="url(#clip790)" d="M156.598 1486.45 L2352.76 1486.45 L2352.76 123.472 L156.598 123.472  Z" fill="#ffffff" fill-rule="evenodd" fill-opacity="1"/>
<defs>
  <clipPath id="clip792">
    <rect x="156" y="123" width="2197" height="1364"/>
  </clipPath>
</defs>
<polyline clip-path="url(#clip792)" style="stroke:#000000; stroke-linecap:round; stroke-linejoin:round; stroke-width:2; stroke-opacity:0.1; fill:none" points="218.754,1486.45 218.754,123.472 "/>
<polyline clip-path="url(#clip792)" style="stroke:#000000; stroke-linecap:round; stroke-linejoin:round; stroke-width:2; stroke-opacity:0.1; fill:none" points="736.715,1486.45 736.715,123.472 "/>
<polyline clip-path="url(#clip792)" style="stroke:#000000; stroke-linecap:round; stroke-linejoin:round; stroke-width:2; stroke-opacity:0.1; fill:none" points="1254.68,1486.45 1254.68,123.472 "/>
<polyline clip-path="url(#clip792)" style="stroke:#000000; stroke-linecap:round; stroke-linejoin:round; stroke-width:2; stroke-opacity:0.1; fill:none" points="1772.64,1486.45 1772.64,123.472 "/>
<polyline clip-path="url(#clip792)" style="stroke:#000000; stroke-linecap:round; stroke-linejoin:round; stroke-width:2; stroke-opacity:0.1; fill:none" points="2290.6,1486.45 2290.6,123.472 "/>
<polyline clip-path="url(#clip792)" style="stroke:#000000; stroke-linecap:round; stroke-linejoin:round; stroke-width:2; stroke-opacity:0.1; fill:none" points="156.598,1447.87 2352.76,1447.87 "/>
<polyline clip-path="url(#clip792)" style="stroke:#000000; stroke-linecap:round; stroke-linejoin:round; stroke-width:2; stroke-opacity:0.1; fill:none" points="156.598,1219.97 2352.76,1219.97 "/>
<polyline clip-path="url(#clip792)" style="stroke:#000000; stroke-linecap:round; stroke-linejoin:round; stroke-width:2; stroke-opacity:0.1; fill:none" points="156.598,992.06 2352.76,992.06 "/>
<polyline clip-path="url(#clip792)" style="stroke:#000000; stroke-linecap:round; stroke-linejoin:round; stroke-width:2; stroke-opacity:0.1; fill:none" points="156.598,764.153 2352.76,764.153 "/>
<polyline clip-path="url(#clip792)" style="stroke:#000000; stroke-linecap:round; stroke-linejoin:round; stroke-width:2; stroke-opacity:0.1; fill:none" points="156.598,536.246 2352.76,536.246 "/>
<polyline clip-path="url(#clip792)" style="stroke:#000000; stroke-linecap:round; stroke-linejoin:round; stroke-width:2; stroke-opacity:0.1; fill:none" points="156.598,308.339 2352.76,308.339 "/>
<polyline clip-path="url(#clip790)" style="stroke:#000000; stroke-linecap:round; stroke-linejoin:round; stroke-width:4; stroke-opacity:1; fill:none" points="156.598,1486.45 2352.76,1486.45 "/>
<polyline clip-path="url(#clip790)" style="stroke:#000000; stroke-linecap:round; stroke-linejoin:round; stroke-width:4; stroke-opacity:1; fill:none" points="218.754,1486.45 218.754,1467.55 "/>
<polyline clip-path="url(#clip790)" style="stroke:#000000; stroke-linecap:round; stroke-linejoin:round; stroke-width:4; stroke-opacity:1; fill:none" points="736.715,1486.45 736.715,1467.55 "/>
<polyline clip-path="url(#clip790)" style="stroke:#000000; stroke-linecap:round; stroke-linejoin:round; stroke-width:4; stroke-opacity:1; fill:none" points="1254.68,1486.45 1254.68,1467.55 "/>
<polyline clip-path="url(#clip790)" style="stroke:#000000; stroke-linecap:round; stroke-linejoin:round; stroke-width:4; stroke-opacity:1; fill:none" points="1772.64,1486.45 1772.64,1467.55 "/>
<polyline clip-path="url(#clip790)" style="stroke:#000000; stroke-linecap:round; stroke-linejoin:round; stroke-width:4; stroke-opacity:1; fill:none" points="2290.6,1486.45 2290.6,1467.55 "/>
<path clip-path="url(#clip790)" d="M218.754 1517.37 Q215.143 1517.37 213.314 1520.93 Q211.508 1524.47 211.508 1531.6 Q211.508 1538.71 213.314 1542.27 Q215.143 1545.82 218.754 1545.82 Q222.388 1545.82 224.193 1542.27 Q226.022 1538.71 226.022 1531.6 Q226.022 1524.47 224.193 1520.93 Q222.388 1517.37 218.754 1517.37 M218.754 1513.66 Q224.564 1513.66 227.619 1518.27 Q230.698 1522.85 230.698 1531.6 Q230.698 1540.33 227.619 1544.94 Q224.564 1549.52 218.754 1549.52 Q212.943 1549.52 209.865 1544.94 Q206.809 1540.33 206.809 1531.6 Q206.809 1522.85 209.865 1518.27 Q212.943 1513.66 218.754 1513.66 Z" fill="#000000" fill-rule="nonzero" fill-opacity="1" /><path clip-path="url(#clip790)" d="M726.993 1514.29 L745.35 1514.29 L745.35 1518.22 L731.276 1518.22 L731.276 1526.7 Q732.294 1526.35 733.313 1526.19 Q734.331 1526 735.35 1526 Q741.137 1526 744.516 1529.17 Q747.896 1532.34 747.896 1537.76 Q747.896 1543.34 744.424 1546.44 Q740.951 1549.52 734.632 1549.52 Q732.456 1549.52 730.188 1549.15 Q727.942 1548.78 725.535 1548.04 L725.535 1543.34 Q727.618 1544.47 729.84 1545.03 Q732.063 1545.58 734.539 1545.58 Q738.544 1545.58 740.882 1543.48 Q743.22 1541.37 743.22 1537.76 Q743.22 1534.15 740.882 1532.04 Q738.544 1529.94 734.539 1529.94 Q732.664 1529.94 730.789 1530.35 Q728.938 1530.77 726.993 1531.65 L726.993 1514.29 Z" fill="#000000" fill-rule="nonzero" fill-opacity="1" /><path clip-path="url(#clip790)" d="M1229.36 1544.91 L1237 1544.91 L1237 1518.55 L1228.69 1520.21 L1228.69 1515.95 L1236.96 1514.29 L1241.63 1514.29 L1241.63 1544.91 L1249.27 1544.91 L1249.27 1548.85 L1229.36 1548.85 L1229.36 1544.91 Z" fill="#000000" fill-rule="nonzero" fill-opacity="1" /><path clip-path="url(#clip790)" d="M1268.72 1517.37 Q1265.11 1517.37 1263.28 1520.93 Q1261.47 1524.47 1261.47 1531.6 Q1261.47 1538.71 1263.28 1542.27 Q1265.11 1545.82 1268.72 1545.82 Q1272.35 1545.82 1274.16 1542.27 Q1275.98 1538.71 1275.98 1531.6 Q1275.98 1524.47 1274.16 1520.93 Q1272.35 1517.37 1268.72 1517.37 M1268.72 1513.66 Q1274.53 1513.66 1277.58 1518.27 Q1280.66 1522.85 1280.66 1531.6 Q1280.66 1540.33 1277.58 1544.94 Q1274.53 1549.52 1268.72 1549.52 Q1262.91 1549.52 1259.83 1544.94 Q1256.77 1540.33 1256.77 1531.6 Q1256.77 1522.85 1259.83 1518.27 Q1262.91 1513.66 1268.72 1513.66 Z" fill="#000000" fill-rule="nonzero" fill-opacity="1" /><path clip-path="url(#clip790)" d="M1747.82 1544.91 L1755.46 1544.91 L1755.46 1518.55 L1747.15 1520.21 L1747.15 1515.95 L1755.42 1514.29 L1760.09 1514.29 L1760.09 1544.91 L1767.73 1544.91 L1767.73 1548.85 L1747.82 1548.85 L1747.82 1544.91 Z" fill="#000000" fill-rule="nonzero" fill-opacity="1" /><path clip-path="url(#clip790)" d="M1777.22 1514.29 L1795.58 1514.29 L1795.58 1518.22 L1781.5 1518.22 L1781.5 1526.7 Q1782.52 1526.35 1783.54 1526.19 Q1784.56 1526 1785.58 1526 Q1791.37 1526 1794.75 1529.17 Q1798.12 1532.34 1798.12 1537.76 Q1798.12 1543.34 1794.65 1546.44 Q1791.18 1549.52 1784.86 1549.52 Q1782.69 1549.52 1780.42 1549.15 Q1778.17 1548.78 1775.76 1548.04 L1775.76 1543.34 Q1777.85 1544.47 1780.07 1545.03 Q1782.29 1545.58 1784.77 1545.58 Q1788.77 1545.58 1791.11 1543.48 Q1793.45 1541.37 1793.45 1537.76 Q1793.45 1534.15 1791.11 1532.04 Q1788.77 1529.94 1784.77 1529.94 Q1782.89 1529.94 1781.02 1530.35 Q1779.17 1530.77 1777.22 1531.65 L1777.22 1514.29 Z" fill="#000000" fill-rule="nonzero" fill-opacity="1" /><path clip-path="url(#clip790)" d="M2269.37 1544.91 L2285.69 1544.91 L2285.69 1548.85 L2263.75 1548.85 L2263.75 1544.91 Q2266.41 1542.16 2270.99 1537.53 Q2275.6 1532.88 2276.78 1531.53 Q2279.03 1529.01 2279.91 1527.27 Q2280.81 1525.51 2280.81 1523.82 Q2280.81 1521.07 2278.86 1519.33 Q2276.94 1517.6 2273.84 1517.6 Q2271.64 1517.6 2269.19 1518.36 Q2266.76 1519.13 2263.98 1520.68 L2263.98 1515.95 Q2266.8 1514.82 2269.26 1514.24 Q2271.71 1513.66 2273.75 1513.66 Q2279.12 1513.66 2282.31 1516.35 Q2285.51 1519.03 2285.51 1523.52 Q2285.51 1525.65 2284.7 1527.57 Q2283.91 1529.47 2281.8 1532.07 Q2281.23 1532.74 2278.12 1535.95 Q2275.02 1539.15 2269.37 1544.91 Z" fill="#000000" fill-rule="nonzero" fill-opacity="1" /><path clip-path="url(#clip790)" d="M2305.51 1517.37 Q2301.9 1517.37 2300.07 1520.93 Q2298.26 1524.47 2298.26 1531.6 Q2298.26 1538.71 2300.07 1542.27 Q2301.9 1545.82 2305.51 1545.82 Q2309.14 1545.82 2310.95 1542.27 Q2312.78 1538.71 2312.78 1531.6 Q2312.78 1524.47 2310.95 1520.93 Q2309.14 1517.37 2305.51 1517.37 M2305.51 1513.66 Q2311.32 1513.66 2314.37 1518.27 Q2317.45 1522.85 2317.45 1531.6 Q2317.45 1540.33 2314.37 1544.94 Q2311.32 1549.52 2305.51 1549.52 Q2299.7 1549.52 2296.62 1544.94 Q2293.56 1540.33 2293.56 1531.6 Q2293.56 1522.85 2296.62 1518.27 Q2299.7 1513.66 2305.51 1513.66 Z" fill="#000000" fill-rule="nonzero" fill-opacity="1" /><polyline clip-path="url(#clip790)" style="stroke:#000000; stroke-linecap:round; stroke-linejoin:round; stroke-width:4; stroke-opacity:1; fill:none" points="156.598,1486.45 156.598,123.472 "/>
<polyline clip-path="url(#clip790)" style="stroke:#000000; stroke-linecap:round; stroke-linejoin:round; stroke-width:4; stroke-opacity:1; fill:none" points="156.598,1447.87 175.496,1447.87 "/>
<polyline clip-path="url(#clip790)" style="stroke:#000000; stroke-linecap:round; stroke-linejoin:round; stroke-width:4; stroke-opacity:1; fill:none" points="156.598,1219.97 175.496,1219.97 "/>
<polyline clip-path="url(#clip790)" style="stroke:#000000; stroke-linecap:round; stroke-linejoin:round; stroke-width:4; stroke-opacity:1; fill:none" points="156.598,992.06 175.496,992.06 "/>
<polyline clip-path="url(#clip790)" style="stroke:#000000; stroke-linecap:round; stroke-linejoin:round; stroke-width:4; stroke-opacity:1; fill:none" points="156.598,764.153 175.496,764.153 "/>
<polyline clip-path="url(#clip790)" style="stroke:#000000; stroke-linecap:round; stroke-linejoin:round; stroke-width:4; stroke-opacity:1; fill:none" points="156.598,536.246 175.496,536.246 "/>
<polyline clip-path="url(#clip790)" style="stroke:#000000; stroke-linecap:round; stroke-linejoin:round; stroke-width:4; stroke-opacity:1; fill:none" points="156.598,308.339 175.496,308.339 "/>
<path clip-path="url(#clip790)" d="M63.4226 1433.67 Q59.8115 1433.67 57.9828 1437.24 Q56.1773 1440.78 56.1773 1447.91 Q56.1773 1455.01 57.9828 1458.58 Q59.8115 1462.12 63.4226 1462.12 Q67.0569 1462.12 68.8624 1458.58 Q70.6911 1455.01 70.6911 1447.91 Q70.6911 1440.78 68.8624 1437.24 Q67.0569 1433.67 63.4226 1433.67 M63.4226 1429.97 Q69.2328 1429.97 72.2883 1434.57 Q75.367 1439.16 75.367 1447.91 Q75.367 1456.63 72.2883 1461.24 Q69.2328 1465.82 63.4226 1465.82 Q57.6125 1465.82 54.5338 1461.24 Q51.4782 1456.63 51.4782 1447.91 Q51.4782 1439.16 54.5338 1434.57 Q57.6125 1429.97 63.4226 1429.97 Z" fill="#000000" fill-rule="nonzero" fill-opacity="1" /><path clip-path="url(#clip790)" d="M83.5845 1459.27 L88.4688 1459.27 L88.4688 1465.15 L83.5845 1465.15 L83.5845 1459.27 Z" fill="#000000" fill-rule="nonzero" fill-opacity="1" /><path clip-path="url(#clip790)" d="M108.654 1433.67 Q105.043 1433.67 103.214 1437.24 Q101.409 1440.78 101.409 1447.91 Q101.409 1455.01 103.214 1458.58 Q105.043 1462.12 108.654 1462.12 Q112.288 1462.12 114.094 1458.58 Q115.922 1455.01 115.922 1447.91 Q115.922 1440.78 114.094 1437.24 Q112.288 1433.67 108.654 1433.67 M108.654 1429.97 Q114.464 1429.97 117.52 1434.57 Q120.598 1439.16 120.598 1447.91 Q120.598 1456.63 117.52 1461.24 Q114.464 1465.82 108.654 1465.82 Q102.844 1465.82 99.765 1461.24 Q96.7095 1456.63 96.7095 1447.91 Q96.7095 1439.16 99.765 1434.57 Q102.844 1429.97 108.654 1429.97 Z" fill="#000000" fill-rule="nonzero" fill-opacity="1" /><path clip-path="url(#clip790)" d="M64.6495 1205.77 Q61.0384 1205.77 59.2097 1209.33 Q57.4041 1212.87 57.4041 1220 Q57.4041 1227.11 59.2097 1230.67 Q61.0384 1234.21 64.6495 1234.21 Q68.2837 1234.21 70.0892 1230.67 Q71.9179 1227.11 71.9179 1220 Q71.9179 1212.87 70.0892 1209.33 Q68.2837 1205.77 64.6495 1205.77 M64.6495 1202.06 Q70.4596 1202.06 73.5152 1206.67 Q76.5938 1211.25 76.5938 1220 Q76.5938 1228.73 73.5152 1233.33 Q70.4596 1237.92 64.6495 1237.92 Q58.8393 1237.92 55.7606 1233.33 Q52.7051 1228.73 52.7051 1220 Q52.7051 1211.25 55.7606 1206.67 Q58.8393 1202.06 64.6495 1202.06 Z" fill="#000000" fill-rule="nonzero" fill-opacity="1" /><path clip-path="url(#clip790)" d="M84.8114 1231.37 L89.6956 1231.37 L89.6956 1237.25 L84.8114 1237.25 L84.8114 1231.37 Z" fill="#000000" fill-rule="nonzero" fill-opacity="1" /><path clip-path="url(#clip790)" d="M100.691 1233.31 L108.33 1233.31 L108.33 1206.95 L100.02 1208.61 L100.02 1204.35 L108.283 1202.69 L112.959 1202.69 L112.959 1233.31 L120.598 1233.31 L120.598 1237.25 L100.691 1237.25 L100.691 1233.31 Z" fill="#000000" fill-rule="nonzero" fill-opacity="1" /><path clip-path="url(#clip790)" d="M65.0198 977.858 Q61.4087 977.858 59.58 981.423 Q57.7745 984.965 57.7745 992.094 Q57.7745 999.201 59.58 1002.77 Q61.4087 1006.31 65.0198 1006.31 Q68.6541 1006.31 70.4596 1002.77 Q72.2883 999.201 72.2883 992.094 Q72.2883 984.965 70.4596 981.423 Q68.6541 977.858 65.0198 977.858 M65.0198 974.155 Q70.83 974.155 73.8855 978.761 Q76.9642 983.344 76.9642 992.094 Q76.9642 1000.82 73.8855 1005.43 Q70.83 1010.01 65.0198 1010.01 Q59.2097 1010.01 56.131 1005.43 Q53.0754 1000.82 53.0754 992.094 Q53.0754 983.344 56.131 978.761 Q59.2097 974.155 65.0198 974.155 Z" fill="#000000" fill-rule="nonzero" fill-opacity="1" /><path clip-path="url(#clip790)" d="M85.1818 1003.46 L90.066 1003.46 L90.066 1009.34 L85.1818 1009.34 L85.1818 1003.46 Z" fill="#000000" fill-rule="nonzero" fill-opacity="1" /><path clip-path="url(#clip790)" d="M104.279 1005.4 L120.598 1005.4 L120.598 1009.34 L98.6539 1009.34 L98.6539 1005.4 Q101.316 1002.65 105.899 998.02 Q110.506 993.367 111.686 992.025 Q113.932 989.502 114.811 987.766 Q115.714 986.006 115.714 984.317 Q115.714 981.562 113.77 979.826 Q111.848 978.09 108.746 978.09 Q106.547 978.09 104.094 978.854 Q101.663 979.618 98.8854 981.168 L98.8854 976.446 Q101.709 975.312 104.163 974.733 Q106.617 974.155 108.654 974.155 Q114.024 974.155 117.219 976.84 Q120.413 979.525 120.413 984.016 Q120.413 986.145 119.603 988.067 Q118.816 989.965 116.709 992.557 Q116.131 993.229 113.029 996.446 Q109.927 999.641 104.279 1005.4 Z" fill="#000000" fill-rule="nonzero" fill-opacity="1" /><path clip-path="url(#clip790)" d="M64.0708 749.952 Q60.4597 749.952 58.631 753.516 Q56.8254 757.058 56.8254 764.188 Q56.8254 771.294 58.631 774.859 Q60.4597 778.4 64.0708 778.4 Q67.705 778.4 69.5105 774.859 Q71.3392 771.294 71.3392 764.188 Q71.3392 757.058 69.5105 753.516 Q67.705 749.952 64.0708 749.952 M64.0708 746.248 Q69.8809 746.248 72.9365 750.854 Q76.0151 755.438 76.0151 764.188 Q76.0151 772.914 72.9365 777.521 Q69.8809 782.104 64.0708 782.104 Q58.2606 782.104 55.1819 777.521 Q52.1264 772.914 52.1264 764.188 Q52.1264 755.438 55.1819 750.854 Q58.2606 746.248 64.0708 746.248 Z" fill="#000000" fill-rule="nonzero" fill-opacity="1" /><path clip-path="url(#clip790)" d="M84.2327 775.553 L89.1169 775.553 L89.1169 781.433 L84.2327 781.433 L84.2327 775.553 Z" fill="#000000" fill-rule="nonzero" fill-opacity="1" /><path clip-path="url(#clip790)" d="M113.469 762.799 Q116.825 763.516 118.7 765.785 Q120.598 768.053 120.598 771.387 Q120.598 776.502 117.08 779.303 Q113.561 782.104 107.08 782.104 Q104.904 782.104 102.589 781.664 Q100.297 781.248 97.8437 780.391 L97.8437 775.877 Q99.7882 777.012 102.103 777.59 Q104.418 778.169 106.941 778.169 Q111.339 778.169 113.631 776.433 Q115.945 774.697 115.945 771.387 Q115.945 768.331 113.793 766.618 Q111.663 764.882 107.844 764.882 L103.816 764.882 L103.816 761.039 L108.029 761.039 Q111.478 761.039 113.307 759.674 Q115.135 758.285 115.135 755.692 Q115.135 753.03 113.237 751.618 Q111.362 750.183 107.844 750.183 Q105.922 750.183 103.723 750.6 Q101.524 751.016 98.8854 751.896 L98.8854 747.729 Q101.547 746.989 103.862 746.618 Q106.2 746.248 108.26 746.248 Q113.584 746.248 116.686 748.678 Q119.788 751.086 119.788 755.206 Q119.788 758.076 118.145 760.067 Q116.501 762.035 113.469 762.799 Z" fill="#000000" fill-rule="nonzero" fill-opacity="1" /><path clip-path="url(#clip790)" d="M62.9365 522.045 Q59.3254 522.045 57.4967 525.61 Q55.6912 529.151 55.6912 536.281 Q55.6912 543.387 57.4967 546.952 Q59.3254 550.494 62.9365 550.494 Q66.5707 550.494 68.3763 546.952 Q70.205 543.387 70.205 536.281 Q70.205 529.151 68.3763 525.61 Q66.5707 522.045 62.9365 522.045 M62.9365 518.341 Q68.7467 518.341 71.8022 522.948 Q74.8809 527.531 74.8809 536.281 Q74.8809 545.008 71.8022 549.614 Q68.7467 554.197 62.9365 554.197 Q57.1264 554.197 54.0477 549.614 Q50.9921 545.008 50.9921 536.281 Q50.9921 527.531 54.0477 522.948 Q57.1264 518.341 62.9365 518.341 Z" fill="#000000" fill-rule="nonzero" fill-opacity="1" /><path clip-path="url(#clip790)" d="M83.0984 547.646 L87.9827 547.646 L87.9827 553.526 L83.0984 553.526 L83.0984 547.646 Z" fill="#000000" fill-rule="nonzero" fill-opacity="1" /><path clip-path="url(#clip790)" d="M111.015 523.04 L99.2095 541.489 L111.015 541.489 L111.015 523.04 M109.788 518.966 L115.668 518.966 L115.668 541.489 L120.598 541.489 L120.598 545.378 L115.668 545.378 L115.668 553.526 L111.015 553.526 L111.015 545.378 L95.4132 545.378 L95.4132 540.864 L109.788 518.966 Z" fill="#000000" fill-rule="nonzero" fill-opacity="1" /><path clip-path="url(#clip790)" d="M64.418 294.138 Q60.8069 294.138 58.9782 297.703 Q57.1726 301.244 57.1726 308.374 Q57.1726 315.48 58.9782 319.045 Q60.8069 322.587 64.418 322.587 Q68.0522 322.587 69.8578 319.045 Q71.6865 315.48 71.6865 308.374 Q71.6865 301.244 69.8578 297.703 Q68.0522 294.138 64.418 294.138 M64.418 290.434 Q70.2281 290.434 73.2837 295.041 Q76.3624 299.624 76.3624 308.374 Q76.3624 317.101 73.2837 321.707 Q70.2281 326.291 64.418 326.291 Q58.6078 326.291 55.5291 321.707 Q52.4736 317.101 52.4736 308.374 Q52.4736 299.624 55.5291 295.041 Q58.6078 290.434 64.418 290.434 Z" fill="#000000" fill-rule="nonzero" fill-opacity="1" /><path clip-path="url(#clip790)" d="M84.5799 319.74 L89.4641 319.74 L89.4641 325.619 L84.5799 325.619 L84.5799 319.74 Z" fill="#000000" fill-rule="nonzero" fill-opacity="1" /><path clip-path="url(#clip790)" d="M99.6956 291.059 L118.052 291.059 L118.052 294.994 L103.978 294.994 L103.978 303.467 Q104.996 303.119 106.015 302.957 Q107.033 302.772 108.052 302.772 Q113.839 302.772 117.219 305.943 Q120.598 309.115 120.598 314.531 Q120.598 320.11 117.126 323.212 Q113.654 326.291 107.334 326.291 Q105.159 326.291 102.89 325.92 Q100.645 325.55 98.2372 324.809 L98.2372 320.11 Q100.321 321.244 102.543 321.8 Q104.765 322.355 107.242 322.355 Q111.246 322.355 113.584 320.249 Q115.922 318.142 115.922 314.531 Q115.922 310.92 113.584 308.814 Q111.246 306.707 107.242 306.707 Q105.367 306.707 103.492 307.124 Q101.64 307.541 99.6956 308.42 L99.6956 291.059 Z" fill="#000000" fill-rule="nonzero" fill-opacity="1" /><path clip-path="url(#clip790)" d="M170.635 12.096 L178.818 12.096 L178.818 72.576 L170.635 72.576 L170.635 12.096 Z" fill="#000000" fill-rule="nonzero" fill-opacity="1" /><path clip-path="url(#clip790)" d="M232.492 45.1919 L232.492 72.576 L225.038 72.576 L225.038 45.4349 Q225.038 38.994 222.527 35.7938 Q220.015 32.5936 214.992 32.5936 Q208.956 32.5936 205.473 36.4419 Q201.989 40.2903 201.989 46.9338 L201.989 72.576 L194.495 72.576 L194.495 27.2059 L201.989 27.2059 L201.989 34.2544 Q204.662 30.163 208.268 28.1376 Q211.914 26.1121 216.653 26.1121 Q224.471 26.1121 228.482 30.9732 Q232.492 35.7938 232.492 45.1919 Z" fill="#000000" fill-rule="nonzero" fill-opacity="1" /><path clip-path="url(#clip790)" d="M270.328 9.54393 L270.328 15.7418 L263.198 15.7418 Q259.188 15.7418 257.608 17.3622 Q256.068 18.9825 256.068 23.1955 L256.068 27.2059 L268.343 27.2059 L268.343 32.9987 L256.068 32.9987 L256.068 72.576 L248.574 72.576 L248.574 32.9987 L241.445 32.9987 L241.445 27.2059 L248.574 27.2059 L248.574 24.0462 Q248.574 16.471 252.099 13.0277 Q255.623 9.54393 263.279 9.54393 L270.328 9.54393 Z" fill="#000000" fill-rule="nonzero" fill-opacity="1" /><path clip-path="url(#clip790)" d="M315.374 48.0275 L315.374 51.6733 L281.103 51.6733 Q281.589 59.3701 285.721 63.421 Q289.893 67.4314 297.307 67.4314 Q301.601 67.4314 305.611 66.3781 Q309.662 65.3249 313.632 63.2184 L313.632 70.267 Q309.621 71.9684 305.408 72.8596 Q301.195 73.7508 296.861 73.7508 Q286.005 73.7508 279.645 67.4314 Q273.325 61.1119 273.325 50.3365 Q273.325 39.1965 279.321 32.6746 Q285.356 26.1121 295.565 26.1121 Q304.72 26.1121 310.026 32.0264 Q315.374 37.9003 315.374 48.0275 M307.92 45.84 Q307.839 39.7232 304.477 36.0774 Q301.155 32.4315 295.646 32.4315 Q289.407 32.4315 285.64 35.9558 Q281.913 39.4801 281.346 45.8805 L307.92 45.84 Z" fill="#000000" fill-rule="nonzero" fill-opacity="1" /><path clip-path="url(#clip790)" d="M353.898 34.1734 Q352.642 33.4443 351.143 33.1202 Q349.685 32.7556 347.902 32.7556 Q341.583 32.7556 338.18 36.8875 Q334.818 40.9789 334.818 48.6757 L334.818 72.576 L327.324 72.576 L327.324 27.2059 L334.818 27.2059 L334.818 34.2544 Q337.168 30.1225 340.935 28.1376 Q344.702 26.1121 350.09 26.1121 Q350.86 26.1121 351.791 26.2337 Q352.723 26.3147 353.857 26.5172 L353.898 34.1734 Z" fill="#000000" fill-rule="nonzero" fill-opacity="1" /><path clip-path="url(#clip790)" d="M398.701 48.0275 L398.701 51.6733 L364.43 51.6733 Q364.916 59.3701 369.048 63.421 Q373.221 67.4314 380.634 67.4314 Q384.928 67.4314 388.938 66.3781 Q392.989 65.3249 396.959 63.2184 L396.959 70.267 Q392.948 71.9684 388.736 72.8596 Q384.523 73.7508 380.188 73.7508 Q369.332 73.7508 362.972 67.4314 Q356.652 61.1119 356.652 50.3365 Q356.652 39.1965 362.648 32.6746 Q368.684 26.1121 378.892 26.1121 Q388.047 26.1121 393.354 32.0264 Q398.701 37.9003 398.701 48.0275 M391.247 45.84 Q391.166 39.7232 387.804 36.0774 Q384.482 32.4315 378.973 32.4315 Q372.734 32.4315 368.967 35.9558 Q365.24 39.4801 364.673 45.8805 L391.247 45.84 Z" fill="#000000" fill-rule="nonzero" fill-opacity="1" /><path clip-path="url(#clip790)" d="M448.648 45.1919 L448.648 72.576 L441.195 72.576 L441.195 45.4349 Q441.195 38.994 438.683 35.7938 Q436.172 32.5936 431.148 32.5936 Q425.113 32.5936 421.629 36.4419 Q418.145 40.2903 418.145 46.9338 L418.145 72.576 L410.651 72.576 L410.651 27.2059 L418.145 27.2059 L418.145 34.2544 Q420.819 30.163 424.424 28.1376 Q428.07 26.1121 432.809 26.1121 Q440.628 26.1121 444.638 30.9732 Q448.648 35.7938 448.648 45.1919 Z" fill="#000000" fill-rule="nonzero" fill-opacity="1" /><path clip-path="url(#clip790)" d="M496.166 28.9478 L496.166 35.9153 Q493.006 34.1734 489.806 33.3227 Q486.646 32.4315 483.405 32.4315 Q476.154 32.4315 472.144 37.0496 Q468.133 41.6271 468.133 49.9314 Q468.133 58.2358 472.144 62.8538 Q476.154 67.4314 483.405 67.4314 Q486.646 67.4314 489.806 66.5807 Q493.006 65.6895 496.166 63.9476 L496.166 70.8341 Q493.046 72.2924 489.684 73.0216 Q486.362 73.7508 482.595 73.7508 Q472.346 73.7508 466.31 67.3098 Q460.274 60.8689 460.274 49.9314 Q460.274 38.832 466.351 32.472 Q472.468 26.1121 483.081 26.1121 Q486.524 26.1121 489.806 26.8413 Q493.087 27.5299 496.166 28.9478 Z" fill="#000000" fill-rule="nonzero" fill-opacity="1" /><path clip-path="url(#clip790)" d="M547.936 48.0275 L547.936 51.6733 L513.665 51.6733 Q514.152 59.3701 518.283 63.421 Q522.456 67.4314 529.869 67.4314 Q534.163 67.4314 538.173 66.3781 Q542.224 65.3249 546.194 63.2184 L546.194 70.267 Q542.184 71.9684 537.971 72.8596 Q533.758 73.7508 529.423 73.7508 Q518.567 73.7508 512.207 67.4314 Q505.888 61.1119 505.888 50.3365 Q505.888 39.1965 511.883 32.6746 Q517.919 26.1121 528.127 26.1121 Q537.282 26.1121 542.589 32.0264 Q547.936 37.9003 547.936 48.0275 M540.482 45.84 Q540.401 39.7232 537.039 36.0774 Q533.717 32.4315 528.208 32.4315 Q521.97 32.4315 518.202 35.9558 Q514.476 39.4801 513.908 45.8805 L540.482 45.84 Z" fill="#000000" fill-rule="nonzero" fill-opacity="1" /><path clip-path="url(#clip790)" d="M612.832 34.1734 Q611.576 33.4443 610.077 33.1202 Q608.619 32.7556 606.836 32.7556 Q600.517 32.7556 597.114 36.8875 Q593.752 40.9789 593.752 48.6757 L593.752 72.576 L586.258 72.576 L586.258 27.2059 L593.752 27.2059 L593.752 34.2544 Q596.101 30.1225 599.869 28.1376 Q603.636 26.1121 609.024 26.1121 Q609.793 26.1121 610.725 26.2337 Q611.657 26.3147 612.791 26.5172 L612.832 34.1734 Z" fill="#000000" fill-rule="nonzero" fill-opacity="1" /><path clip-path="url(#clip790)" d="M657.635 48.0275 L657.635 51.6733 L623.364 51.6733 Q623.85 59.3701 627.982 63.421 Q632.154 67.4314 639.568 67.4314 Q643.861 67.4314 647.872 66.3781 Q651.923 65.3249 655.893 63.2184 L655.893 70.267 Q651.882 71.9684 647.669 72.8596 Q643.456 73.7508 639.122 73.7508 Q628.265 73.7508 621.906 67.4314 Q615.586 61.1119 615.586 50.3365 Q615.586 39.1965 621.582 32.6746 Q627.617 26.1121 637.826 26.1121 Q646.981 26.1121 652.287 32.0264 Q657.635 37.9003 657.635 48.0275 M650.181 45.84 Q650.1 39.7232 646.738 36.0774 Q643.416 32.4315 637.907 32.4315 Q631.668 32.4315 627.901 35.9558 Q624.174 39.4801 623.607 45.8805 L650.181 45.84 Z" fill="#000000" fill-rule="nonzero" fill-opacity="1" /><path clip-path="url(#clip790)" d="M698.792 28.5427 L698.792 35.5912 Q695.632 33.9709 692.229 33.1607 Q688.827 32.3505 685.181 32.3505 Q679.631 32.3505 676.836 34.0519 Q674.081 35.7533 674.081 39.156 Q674.081 41.7486 676.066 43.2475 Q678.051 44.7058 684.046 46.0426 L686.599 46.6097 Q694.538 48.3111 697.86 51.4303 Q701.222 54.509 701.222 60.0587 Q701.222 66.3781 696.199 70.0644 Q691.217 73.7508 682.467 73.7508 Q678.821 73.7508 674.851 73.0216 Q670.922 72.3329 666.547 70.9151 L666.547 63.2184 Q670.678 65.3654 674.689 66.4591 Q678.699 67.5124 682.629 67.5124 Q687.895 67.5124 690.73 65.73 Q693.566 63.9071 693.566 60.6258 Q693.566 57.5877 691.5 55.9673 Q689.475 54.3469 682.548 52.8481 L679.955 52.2405 Q673.028 50.7821 669.949 47.7845 Q666.871 44.7463 666.871 39.4801 Q666.871 33.0797 671.408 29.5959 Q675.945 26.1121 684.29 26.1121 Q688.421 26.1121 692.067 26.7198 Q695.713 27.3274 698.792 28.5427 Z" fill="#000000" fill-rule="nonzero" fill-opacity="1" /><path clip-path="url(#clip790)" d="M712.322 54.671 L712.322 27.2059 L719.775 27.2059 L719.775 54.3874 Q719.775 60.8284 722.287 64.0691 Q724.799 67.2693 729.822 67.2693 Q735.858 67.2693 739.341 63.421 Q742.866 59.5726 742.866 52.9291 L742.866 27.2059 L750.319 27.2059 L750.319 72.576 L742.866 72.576 L742.866 65.6084 Q740.151 69.7404 736.546 71.7658 Q732.981 73.7508 728.242 73.7508 Q720.424 73.7508 716.373 68.8897 Q712.322 64.0286 712.322 54.671 M731.077 26.1121 L731.077 26.1121 Z" fill="#000000" fill-rule="nonzero" fill-opacity="1" /><path clip-path="url(#clip790)" d="M765.672 9.54393 L773.126 9.54393 L773.126 72.576 L765.672 72.576 L765.672 9.54393 Z" fill="#000000" fill-rule="nonzero" fill-opacity="1" /><path clip-path="url(#clip790)" d="M796.094 14.324 L796.094 27.2059 L811.447 27.2059 L811.447 32.9987 L796.094 32.9987 L796.094 57.6282 Q796.094 63.1779 797.593 64.7578 Q799.133 66.3376 803.791 66.3376 L811.447 66.3376 L811.447 72.576 L803.791 72.576 Q795.163 72.576 791.882 69.3758 Q788.6 66.1351 788.6 57.6282 L788.6 32.9987 L783.132 32.9987 L783.132 27.2059 L788.6 27.2059 L788.6 14.324 L796.094 14.324 Z" fill="#000000" fill-rule="nonzero" fill-opacity="1" /><path clip-path="url(#clip790)" d="M850.174 28.5427 L850.174 35.5912 Q847.014 33.9709 843.612 33.1607 Q840.209 32.3505 836.563 32.3505 Q831.013 32.3505 828.218 34.0519 Q825.464 35.7533 825.464 39.156 Q825.464 41.7486 827.448 43.2475 Q829.433 44.7058 835.429 46.0426 L837.981 46.6097 Q845.921 48.3111 849.242 51.4303 Q852.605 54.509 852.605 60.0587 Q852.605 66.3781 847.581 70.0644 Q842.599 73.7508 833.849 73.7508 Q830.203 73.7508 826.233 73.0216 Q822.304 72.3329 817.929 70.9151 L817.929 63.2184 Q822.061 65.3654 826.071 66.4591 Q830.082 67.5124 834.011 67.5124 Q839.277 67.5124 842.113 65.73 Q844.948 63.9071 844.948 60.6258 Q844.948 57.5877 842.882 55.9673 Q840.857 54.3469 833.93 52.8481 L831.337 52.2405 Q824.41 50.7821 821.332 47.7845 Q818.253 44.7463 818.253 39.4801 Q818.253 33.0797 822.79 29.5959 Q827.327 26.1121 835.672 26.1121 Q839.804 26.1121 843.45 26.7198 Q847.095 27.3274 850.174 28.5427 Z" fill="#000000" fill-rule="nonzero" fill-opacity="1" /><path clip-path="url(#clip790)" d="M908.426 32.4315 Q902.431 32.4315 898.947 37.1306 Q895.463 41.7891 895.463 49.9314 Q895.463 58.0738 898.906 62.7728 Q902.39 67.4314 908.426 67.4314 Q914.381 67.4314 917.865 62.7323 Q921.348 58.0333 921.348 49.9314 Q921.348 41.8701 917.865 37.1711 Q914.381 32.4315 908.426 32.4315 M908.426 26.1121 Q918.148 26.1121 923.698 32.4315 Q929.248 38.7509 929.248 49.9314 Q929.248 61.0714 923.698 67.4314 Q918.148 73.7508 908.426 73.7508 Q898.663 73.7508 893.114 67.4314 Q887.604 61.0714 887.604 49.9314 Q887.604 38.7509 893.114 32.4315 Q898.663 26.1121 908.426 26.1121 Z" fill="#000000" fill-rule="nonzero" fill-opacity="1" /><path clip-path="url(#clip790)" d="M936.256 27.2059 L944.155 27.2059 L958.333 65.2844 L972.511 27.2059 L980.411 27.2059 L963.397 72.576 L953.27 72.576 L936.256 27.2059 Z" fill="#000000" fill-rule="nonzero" fill-opacity="1" /><path clip-path="url(#clip790)" d="M1029.51 48.0275 L1029.51 51.6733 L995.237 51.6733 Q995.723 59.3701 999.855 63.421 Q1004.03 67.4314 1011.44 67.4314 Q1015.73 67.4314 1019.74 66.3781 Q1023.8 65.3249 1027.77 63.2184 L1027.77 70.267 Q1023.76 71.9684 1019.54 72.8596 Q1015.33 73.7508 1010.99 73.7508 Q1000.14 73.7508 993.779 67.4314 Q987.459 61.1119 987.459 50.3365 Q987.459 39.1965 993.455 32.6746 Q999.49 26.1121 1009.7 26.1121 Q1018.85 26.1121 1024.16 32.0264 Q1029.51 37.9003 1029.51 48.0275 M1022.05 45.84 Q1021.97 39.7232 1018.61 36.0774 Q1015.29 32.4315 1009.78 32.4315 Q1003.54 32.4315 999.774 35.9558 Q996.047 39.4801 995.48 45.8805 L1022.05 45.84 Z" fill="#000000" fill-rule="nonzero" fill-opacity="1" /><path clip-path="url(#clip790)" d="M1068.03 34.1734 Q1066.78 33.4443 1065.28 33.1202 Q1063.82 32.7556 1062.04 32.7556 Q1055.72 32.7556 1052.31 36.8875 Q1048.95 40.9789 1048.95 48.6757 L1048.95 72.576 L1041.46 72.576 L1041.46 27.2059 L1048.95 27.2059 L1048.95 34.2544 Q1051.3 30.1225 1055.07 28.1376 Q1058.84 26.1121 1064.22 26.1121 Q1064.99 26.1121 1065.93 26.2337 Q1066.86 26.3147 1067.99 26.5172 L1068.03 34.1734 Z" fill="#000000" fill-rule="nonzero" fill-opacity="1" /><path clip-path="url(#clip790)" d="M1109.27 6.22219 L1120.69 21.3726 L1114.5 21.3726 L1101.29 6.22219 L1109.27 6.22219 Z" fill="#000000" fill-rule="nonzero" fill-opacity="1" /><path clip-path="url(#clip790)" d="M1179.03 35.9153 Q1181.82 30.8922 1185.71 28.5022 Q1189.6 26.1121 1194.87 26.1121 Q1201.95 26.1121 1205.8 31.0947 Q1209.65 36.0368 1209.65 45.1919 L1209.65 72.576 L1202.16 72.576 L1202.16 45.4349 Q1202.16 38.913 1199.85 35.7533 Q1197.54 32.5936 1192.8 32.5936 Q1187.01 32.5936 1183.64 36.4419 Q1180.28 40.2903 1180.28 46.9338 L1180.28 72.576 L1172.79 72.576 L1172.79 45.4349 Q1172.79 38.8725 1170.48 35.7533 Q1168.17 32.5936 1163.35 32.5936 Q1157.64 32.5936 1154.28 36.4824 Q1150.91 40.3308 1150.91 46.9338 L1150.91 72.576 L1143.42 72.576 L1143.42 27.2059 L1150.91 27.2059 L1150.91 34.2544 Q1153.47 30.082 1157.03 28.0971 Q1160.59 26.1121 1165.5 26.1121 Q1170.44 26.1121 1173.88 28.6237 Q1177.37 31.1352 1179.03 35.9153 Z" fill="#000000" fill-rule="nonzero" fill-opacity="1" /><path clip-path="url(#clip790)" d="M1263.33 48.0275 L1263.33 51.6733 L1229.06 51.6733 Q1229.54 59.3701 1233.67 63.421 Q1237.85 67.4314 1245.26 67.4314 Q1249.55 67.4314 1253.56 66.3781 Q1257.61 65.3249 1261.58 63.2184 L1261.58 70.267 Q1257.57 71.9684 1253.36 72.8596 Q1249.15 73.7508 1244.81 73.7508 Q1233.96 73.7508 1227.6 67.4314 Q1221.28 61.1119 1221.28 50.3365 Q1221.28 39.1965 1227.27 32.6746 Q1233.31 26.1121 1243.52 26.1121 Q1252.67 26.1121 1257.98 32.0264 Q1263.33 37.9003 1263.33 48.0275 M1255.87 45.84 Q1255.79 39.7232 1252.43 36.0774 Q1249.11 32.4315 1243.6 32.4315 Q1237.36 32.4315 1233.59 35.9558 Q1229.87 39.4801 1229.3 45.8805 L1255.87 45.84 Z" fill="#000000" fill-rule="nonzero" fill-opacity="1" /><path clip-path="url(#clip790)" d="M1296.18 49.7694 Q1287.15 49.7694 1283.66 51.8354 Q1280.18 53.9013 1280.18 58.8839 Q1280.18 62.8538 1282.77 65.2034 Q1285.4 67.5124 1289.9 67.5124 Q1296.1 67.5124 1299.82 63.1374 Q1303.59 58.7219 1303.59 51.4303 L1303.59 49.7694 L1296.18 49.7694 M1311.05 46.6907 L1311.05 72.576 L1303.59 72.576 L1303.59 65.6895 Q1301.04 69.8214 1297.23 71.8063 Q1293.42 73.7508 1287.91 73.7508 Q1280.95 73.7508 1276.82 69.8619 Q1272.72 65.9325 1272.72 59.3701 Q1272.72 51.7138 1277.83 47.825 Q1282.97 43.9361 1293.14 43.9361 L1303.59 43.9361 L1303.59 43.2069 Q1303.59 38.0623 1300.19 35.2672 Q1296.83 32.4315 1290.71 32.4315 Q1286.82 32.4315 1283.13 33.3632 Q1279.45 34.295 1276.05 36.1584 L1276.05 29.2718 Q1280.14 27.692 1283.99 26.9223 Q1287.83 26.1121 1291.48 26.1121 Q1301.32 26.1121 1306.18 31.2163 Q1311.05 36.3204 1311.05 46.6907 Z" fill="#000000" fill-rule="nonzero" fill-opacity="1" /><path clip-path="url(#clip790)" d="M1364.11 45.1919 L1364.11 72.576 L1356.66 72.576 L1356.66 45.4349 Q1356.66 38.994 1354.15 35.7938 Q1351.64 32.5936 1346.61 32.5936 Q1340.58 32.5936 1337.09 36.4419 Q1333.61 40.2903 1333.61 46.9338 L1333.61 72.576 L1326.11 72.576 L1326.11 27.2059 L1333.61 27.2059 L1333.61 34.2544 Q1336.28 30.163 1339.89 28.1376 Q1343.53 26.1121 1348.27 26.1121 Q1356.09 26.1121 1360.1 30.9732 Q1364.11 35.7938 1364.11 45.1919 Z" fill="#000000" fill-rule="nonzero" fill-opacity="1" /><path clip-path="url(#clip790)" d="M1386.03 6.22219 L1397.45 21.3726 L1391.25 21.3726 L1378.05 6.22219 L1386.03 6.22219 Z" fill="#000000" fill-rule="nonzero" fill-opacity="1" /><path clip-path="url(#clip790)" d="M1442.5 27.2059 L1449.95 27.2059 L1459.27 62.6108 L1468.54 27.2059 L1477.34 27.2059 L1486.65 62.6108 L1495.93 27.2059 L1503.38 27.2059 L1491.51 72.576 L1482.72 72.576 L1472.96 35.3887 L1463.16 72.576 L1454.37 72.576 L1442.5 27.2059 Z" fill="#000000" fill-rule="nonzero" fill-opacity="1" /><path clip-path="url(#clip790)" d="M1514.68 27.2059 L1522.14 27.2059 L1522.14 72.576 L1514.68 72.576 L1514.68 27.2059 M1514.68 9.54393 L1522.14 9.54393 L1522.14 18.9825 L1514.68 18.9825 L1514.68 9.54393 Z" fill="#000000" fill-rule="nonzero" fill-opacity="1" /><path clip-path="url(#clip790)" d="M1545.11 14.324 L1545.11 27.2059 L1560.46 27.2059 L1560.46 32.9987 L1545.11 32.9987 L1545.11 57.6282 Q1545.11 63.1779 1546.61 64.7578 Q1548.14 66.3376 1552.8 66.3376 L1560.46 66.3376 L1560.46 72.576 L1552.8 72.576 Q1544.17 72.576 1540.89 69.3758 Q1537.61 66.1351 1537.61 57.6282 L1537.61 32.9987 L1532.14 32.9987 L1532.14 27.2059 L1537.61 27.2059 L1537.61 14.324 L1545.11 14.324 Z" fill="#000000" fill-rule="nonzero" fill-opacity="1" /><path clip-path="url(#clip790)" d="M1607.98 45.1919 L1607.98 72.576 L1600.52 72.576 L1600.52 45.4349 Q1600.52 38.994 1598.01 35.7938 Q1595.5 32.5936 1590.48 32.5936 Q1584.44 32.5936 1580.96 36.4419 Q1577.47 40.2903 1577.47 46.9338 L1577.47 72.576 L1569.98 72.576 L1569.98 9.54393 L1577.47 9.54393 L1577.47 34.2544 Q1580.15 30.163 1583.75 28.1376 Q1587.4 26.1121 1592.14 26.1121 Q1599.96 26.1121 1603.97 30.9732 Q1607.98 35.7938 1607.98 45.1919 Z" fill="#000000" fill-rule="nonzero" fill-opacity="1" /><path clip-path="url(#clip790)" d="M1686.93 45.1919 L1686.93 72.576 L1679.48 72.576 L1679.48 45.4349 Q1679.48 38.994 1676.96 35.7938 Q1674.45 32.5936 1669.43 32.5936 Q1663.39 32.5936 1659.91 36.4419 Q1656.43 40.2903 1656.43 46.9338 L1656.43 72.576 L1648.93 72.576 L1648.93 27.2059 L1656.43 27.2059 L1656.43 34.2544 Q1659.1 30.163 1662.7 28.1376 Q1666.35 26.1121 1671.09 26.1121 Q1678.91 26.1121 1682.92 30.9732 Q1686.93 35.7938 1686.93 45.1919 Z" fill="#000000" fill-rule="nonzero" fill-opacity="1" /><path clip-path="url(#clip790)" d="M1719.38 32.4315 Q1713.38 32.4315 1709.9 37.1306 Q1706.41 41.7891 1706.41 49.9314 Q1706.41 58.0738 1709.86 62.7728 Q1713.34 67.4314 1719.38 67.4314 Q1725.33 67.4314 1728.82 62.7323 Q1732.3 58.0333 1732.3 49.9314 Q1732.3 41.8701 1728.82 37.1711 Q1725.33 32.4315 1719.38 32.4315 M1719.38 26.1121 Q1729.1 26.1121 1734.65 32.4315 Q1740.2 38.7509 1740.2 49.9314 Q1740.2 61.0714 1734.65 67.4314 Q1729.1 73.7508 1719.38 73.7508 Q1709.61 73.7508 1704.06 67.4314 Q1698.55 61.0714 1698.55 49.9314 Q1698.55 38.7509 1704.06 32.4315 Q1709.61 26.1121 1719.38 26.1121 Z" fill="#000000" fill-rule="nonzero" fill-opacity="1" /><path clip-path="url(#clip790)" d="M1782.41 34.0924 L1782.41 9.54393 L1789.86 9.54393 L1789.86 72.576 L1782.41 72.576 L1782.41 65.7705 Q1780.06 69.8214 1776.45 71.8063 Q1772.89 73.7508 1767.87 73.7508 Q1759.64 73.7508 1754.46 67.1883 Q1749.31 60.6258 1749.31 49.9314 Q1749.31 39.2371 1754.46 32.6746 Q1759.64 26.1121 1767.87 26.1121 Q1772.89 26.1121 1776.45 28.0971 Q1780.06 30.0415 1782.41 34.0924 M1757.01 49.9314 Q1757.01 58.1548 1760.37 62.8538 Q1763.77 67.5124 1769.69 67.5124 Q1775.6 67.5124 1779.01 62.8538 Q1782.41 58.1548 1782.41 49.9314 Q1782.41 41.7081 1779.01 37.0496 Q1775.6 32.3505 1769.69 32.3505 Q1763.77 32.3505 1760.37 37.0496 Q1757.01 41.7081 1757.01 49.9314 Z" fill="#000000" fill-rule="nonzero" fill-opacity="1" /><path clip-path="url(#clip790)" d="M1844.02 48.0275 L1844.02 51.6733 L1809.75 51.6733 Q1810.24 59.3701 1814.37 63.421 Q1818.54 67.4314 1825.96 67.4314 Q1830.25 67.4314 1834.26 66.3781 Q1838.31 65.3249 1842.28 63.2184 L1842.28 70.267 Q1838.27 71.9684 1834.06 72.8596 Q1829.84 73.7508 1825.51 73.7508 Q1814.65 73.7508 1808.29 67.4314 Q1801.97 61.1119 1801.97 50.3365 Q1801.97 39.1965 1807.97 32.6746 Q1814.01 26.1121 1824.21 26.1121 Q1833.37 26.1121 1838.68 32.0264 Q1844.02 37.9003 1844.02 48.0275 M1836.57 45.84 Q1836.49 39.7232 1833.13 36.0774 Q1829.8 32.4315 1824.29 32.4315 Q1818.06 32.4315 1814.29 35.9558 Q1810.56 39.4801 1810 45.8805 L1836.57 45.84 Z" fill="#000000" fill-rule="nonzero" fill-opacity="1" /><path clip-path="url(#clip790)" d="M1915.28 28.9478 L1915.28 35.9153 Q1912.12 34.1734 1908.92 33.3227 Q1905.76 32.4315 1902.52 32.4315 Q1895.27 32.4315 1891.26 37.0496 Q1887.25 41.6271 1887.25 49.9314 Q1887.25 58.2358 1891.26 62.8538 Q1895.27 67.4314 1902.52 67.4314 Q1905.76 67.4314 1908.92 66.5807 Q1912.12 65.6895 1915.28 63.9476 L1915.28 70.8341 Q1912.16 72.2924 1908.8 73.0216 Q1905.48 73.7508 1901.71 73.7508 Q1891.46 73.7508 1885.42 67.3098 Q1879.39 60.8689 1879.39 49.9314 Q1879.39 38.832 1885.46 32.472 Q1891.58 26.1121 1902.19 26.1121 Q1905.64 26.1121 1908.92 26.8413 Q1912.2 27.5299 1915.28 28.9478 Z" fill="#000000" fill-rule="nonzero" fill-opacity="1" /><path clip-path="url(#clip790)" d="M1945.82 32.4315 Q1939.83 32.4315 1936.34 37.1306 Q1932.86 41.7891 1932.86 49.9314 Q1932.86 58.0738 1936.3 62.7728 Q1939.79 67.4314 1945.82 67.4314 Q1951.78 67.4314 1955.26 62.7323 Q1958.74 58.0333 1958.74 49.9314 Q1958.74 41.8701 1955.26 37.1711 Q1951.78 32.4315 1945.82 32.4315 M1945.82 26.1121 Q1955.54 26.1121 1961.09 32.4315 Q1966.64 38.7509 1966.64 49.9314 Q1966.64 61.0714 1961.09 67.4314 Q1955.54 73.7508 1945.82 73.7508 Q1936.06 73.7508 1930.51 67.4314 Q1925 61.0714 1925 49.9314 Q1925 38.7509 1930.51 32.4315 Q1936.06 26.1121 1945.82 26.1121 Z" fill="#000000" fill-rule="nonzero" fill-opacity="1" /><path clip-path="url(#clip790)" d="M2016.71 45.1919 L2016.71 72.576 L2009.26 72.576 L2009.26 45.4349 Q2009.26 38.994 2006.75 35.7938 Q2004.24 32.5936 1999.21 32.5936 Q1993.18 32.5936 1989.69 36.4419 Q1986.21 40.2903 1986.21 46.9338 L1986.21 72.576 L1978.72 72.576 L1978.72 27.2059 L1986.21 27.2059 L1986.21 34.2544 Q1988.88 30.163 1992.49 28.1376 Q1996.13 26.1121 2000.87 26.1121 Q2008.69 26.1121 2012.7 30.9732 Q2016.71 35.7938 2016.71 45.1919 Z" fill="#000000" fill-rule="nonzero" fill-opacity="1" /><path clip-path="url(#clip790)" d="M2038.95 14.324 L2038.95 27.2059 L2054.31 27.2059 L2054.31 32.9987 L2038.95 32.9987 L2038.95 57.6282 Q2038.95 63.1779 2040.45 64.7578 Q2041.99 66.3376 2046.65 66.3376 L2054.31 66.3376 L2054.31 72.576 L2046.65 72.576 Q2038.02 72.576 2034.74 69.3758 Q2031.46 66.1351 2031.46 57.6282 L2031.46 32.9987 L2025.99 32.9987 L2025.99 27.2059 L2031.46 27.2059 L2031.46 14.324 L2038.95 14.324 Z" fill="#000000" fill-rule="nonzero" fill-opacity="1" /><path clip-path="url(#clip790)" d="M2090.4 34.1734 Q2089.14 33.4443 2087.64 33.1202 Q2086.19 32.7556 2084.4 32.7556 Q2078.08 32.7556 2074.68 36.8875 Q2071.32 40.9789 2071.32 48.6757 L2071.32 72.576 L2063.82 72.576 L2063.82 27.2059 L2071.32 27.2059 L2071.32 34.2544 Q2073.67 30.1225 2077.44 28.1376 Q2081.2 26.1121 2086.59 26.1121 Q2087.36 26.1121 2088.29 26.2337 Q2089.22 26.3147 2090.36 26.5172 L2090.4 34.1734 Z" fill="#000000" fill-rule="nonzero" fill-opacity="1" /><path clip-path="url(#clip790)" d="M2118.84 49.7694 Q2109.8 49.7694 2106.32 51.8354 Q2102.84 53.9013 2102.84 58.8839 Q2102.84 62.8538 2105.43 65.2034 Q2108.06 67.5124 2112.56 67.5124 Q2118.76 67.5124 2122.48 63.1374 Q2126.25 58.7219 2126.25 51.4303 L2126.25 49.7694 L2118.84 49.7694 M2133.7 46.6907 L2133.7 72.576 L2126.25 72.576 L2126.25 65.6895 Q2123.7 69.8214 2119.89 71.8063 Q2116.08 73.7508 2110.57 73.7508 Q2103.6 73.7508 2099.47 69.8619 Q2095.38 65.9325 2095.38 59.3701 Q2095.38 51.7138 2100.49 47.825 Q2105.63 43.9361 2115.8 43.9361 L2126.25 43.9361 L2126.25 43.2069 Q2126.25 38.0623 2122.85 35.2672 Q2119.48 32.4315 2113.37 32.4315 Q2109.48 32.4315 2105.79 33.3632 Q2102.11 34.295 2098.7 36.1584 L2098.7 29.2718 Q2102.79 27.692 2106.64 26.9223 Q2110.49 26.1121 2114.14 26.1121 Q2123.98 26.1121 2128.84 31.2163 Q2133.7 36.3204 2133.7 46.6907 Z" fill="#000000" fill-rule="nonzero" fill-opacity="1" /><path clip-path="url(#clip790)" d="M2181.71 28.9478 L2181.71 35.9153 Q2178.55 34.1734 2175.35 33.3227 Q2172.19 32.4315 2168.95 32.4315 Q2161.69 32.4315 2157.68 37.0496 Q2153.67 41.6271 2153.67 49.9314 Q2153.67 58.2358 2157.68 62.8538 Q2161.69 67.4314 2168.95 67.4314 Q2172.19 67.4314 2175.35 66.5807 Q2178.55 65.6895 2181.71 63.9476 L2181.71 70.8341 Q2178.59 72.2924 2175.22 73.0216 Q2171.9 73.7508 2168.14 73.7508 Q2157.89 73.7508 2151.85 67.3098 Q2145.82 60.8689 2145.82 49.9314 Q2145.82 38.832 2151.89 32.472 Q2158.01 26.1121 2168.62 26.1121 Q2172.07 26.1121 2175.35 26.8413 Q2178.63 27.5299 2181.71 28.9478 Z" fill="#000000" fill-rule="nonzero" fill-opacity="1" /><path clip-path="url(#clip790)" d="M2202.04 14.324 L2202.04 27.2059 L2217.39 27.2059 L2217.39 32.9987 L2202.04 32.9987 L2202.04 57.6282 Q2202.04 63.1779 2203.54 64.7578 Q2205.08 66.3376 2209.74 66.3376 L2217.39 66.3376 L2217.39 72.576 L2209.74 72.576 Q2201.11 72.576 2197.83 69.3758 Q2194.55 66.1351 2194.55 57.6282 L2194.55 32.9987 L2189.08 32.9987 L2189.08 27.2059 L2194.55 27.2059 L2194.55 14.324 L2202.04 14.324 Z" fill="#000000" fill-rule="nonzero" fill-opacity="1" /><path clip-path="url(#clip790)" d="M2227.2 27.2059 L2234.65 27.2059 L2234.65 72.576 L2227.2 72.576 L2227.2 27.2059 M2227.2 9.54393 L2234.65 9.54393 L2234.65 18.9825 L2227.2 18.9825 L2227.2 9.54393 Z" fill="#000000" fill-rule="nonzero" fill-opacity="1" /><path clip-path="url(#clip790)" d="M2267.83 32.4315 Q2261.83 32.4315 2258.35 37.1306 Q2254.87 41.7891 2254.87 49.9314 Q2254.87 58.0738 2258.31 62.7728 Q2261.79 67.4314 2267.83 67.4314 Q2273.78 67.4314 2277.27 62.7323 Q2280.75 58.0333 2280.75 49.9314 Q2280.75 41.8701 2277.27 37.1711 Q2273.78 32.4315 2267.83 32.4315 M2267.83 26.1121 Q2277.55 26.1121 2283.1 32.4315 Q2288.65 38.7509 2288.65 49.9314 Q2288.65 61.0714 2283.1 67.4314 Q2277.55 73.7508 2267.83 73.7508 Q2258.07 73.7508 2252.52 67.4314 Q2247.01 61.0714 2247.01 49.9314 Q2247.01 38.7509 2252.52 32.4315 Q2258.07 26.1121 2267.83 26.1121 Z" fill="#000000" fill-rule="nonzero" fill-opacity="1" /><path clip-path="url(#clip790)" d="M2338.72 45.1919 L2338.72 72.576 L2331.27 72.576 L2331.27 45.4349 Q2331.27 38.994 2328.75 35.7938 Q2326.24 32.5936 2321.22 32.5936 Q2315.18 32.5936 2311.7 36.4419 Q2308.22 40.2903 2308.22 46.9338 L2308.22 72.576 L2300.72 72.576 L2300.72 27.2059 L2308.22 27.2059 L2308.22 34.2544 Q2310.89 30.163 2314.49 28.1376 Q2318.14 26.1121 2322.88 26.1121 Q2330.7 26.1121 2334.71 30.9732 Q2338.72 35.7938 2338.72 45.1919 Z" fill="#000000" fill-rule="nonzero" fill-opacity="1" /><path clip-path="url(#clip792)" d="M218.754 1447.87 L229.113 1447.87 L239.472 1447.87 L249.831 1447.87 L260.191 1447.87 L270.55 1447.87 L280.909 1447.87 L291.268 1447.87 L301.628 1447.87 L311.987 1447.87 L322.346 1447.87 L332.705 1447.87 L343.064 1447.87 L353.424 1447.87 L363.783 1447.87 L374.142 1447.87 L384.501 1447.87 L394.861 1447.87 L405.22 1447.87 L415.579 1447.87 L425.938 1447.87 L436.298 1447.87 L446.657 1447.87 L457.016 1447.87 L467.375 1447.87 L477.734 1447.87 L488.094 1447.87 L498.453 1447.87 L508.812 1447.87 L519.171 1447.87 L529.531 1447.87 L539.89 1447.87 L550.249 1447.87 L560.608 1447.87 L570.968 1447.87 L581.327 1447.87 L591.686 1447.87 L602.045 1447.87 L612.405 1447.87 L622.764 1447.87 L633.123 1447.87 L643.482 1447.87 L653.841 1447.87 L664.201 1447.87 L674.56 1447.87 L684.919 1447.87 L695.278 1447.87 L705.638 1447.87 L715.997 1447.87 L726.356 1447.87 L736.715 1447.87 L747.075 1447.87 L757.434 1447.87 L767.793 1447.87 L778.152 1447.87 L788.512 1447.87 L798.871 1447.87 L809.23 1447.87 L819.589 1447.87 L829.948 1447.87 L840.308 1447.87 L850.667 1447.87 L861.026 1447.87 L871.385 1447.87 L881.745 1447.87 L892.104 1447.87 L902.463 1447.87 L912.822 1447.87 L923.182 1447.87 L933.541 1447.87 L943.9 1447.87 L954.259 1447.87 L964.619 1447.87 L974.978 1447.87 L985.337 1447.87 L995.696 1447.87 L1006.06 1447.87 L1016.41 1447.87 L1026.77 1447.87 L1037.13 1447.87 L1047.49 1447.87 L1057.85 1447.87 L1068.21 1447.87 L1078.57 1447.87 L1088.93 1447.87 L1099.29 1447.87 L1109.65 1447.87 L1120.01 1447.87 L1130.37 1447.87 L1140.73 1447.87 L1151.08 1447.87 L1161.44 1447.87 L1171.8 1447.87 L1182.16 1447.87 L1192.52 1447.87 L1202.88 1447.87 L1213.24 1447.87 L1223.6 1447.87 L1233.96 1447.87 L1244.32 1447.87 L1254.68 1447.87 L1265.04 1447.87 L1275.4 1447.86 L1285.75 1447.86 L1296.11 1447.85 L1306.47 1447.84 L1316.83 1447.82 L1327.19 1447.79 L1337.55 1447.74 L1347.91 1447.67 L1358.27 1447.57 L1368.63 1447.42 L1378.99 1447.21 L1389.35 1446.9 L1399.71 1446.48 L1410.07 1445.88 L1420.42 1445.06 L1430.78 1443.95 L1441.14 1442.44 L1451.5 1440.43 L1461.86 1437.77 L1472.22 1434.31 L1482.58 1429.83 L1492.94 1424.12 L1503.3 1416.92 L1513.66 1407.92 L1524.02 1396.83 L1534.38 1383.31 L1544.74 1367.02 L1555.09 1347.63 L1565.45 1324.82 L1575.81 1298.33 L1586.17 1267.94 L1596.53 1233.53 L1606.89 1195.08 L1617.25 1152.69 L1627.61 1106.63 L1637.97 1057.31 L1648.33 1005.31 L1658.69 951.373 L1669.05 896.405 L1679.41 841.447 L1689.76 787.646 L1700.12 736.225 L1710.48 688.432 L1720.84 645.492 L1731.2 608.561 L1741.56 578.664 L1751.92 556.66 L1762.28 543.191 L1772.64 538.657 L1783 543.191 L1793.36 556.66 L1803.72 578.664 L1814.08 608.561 L1824.43 645.492 L1834.79 688.432 L1845.15 736.225 L1855.51 787.646 L1865.87 841.447 L1876.23 896.405 L1886.59 951.373 L1896.95 1005.31 L1907.31 1057.31 L1917.67 1106.63 L1928.03 1152.69 L1938.39 1195.08 L1948.75 1233.53 L1959.11 1267.94 L1969.46 1298.33 L1979.82 1324.82 L1990.18 1347.63 L2000.54 1367.02 L2010.9 1383.31 L2021.26 1396.83 L2031.62 1407.92 L2041.98 1416.92 L2052.34 1424.12 L2062.7 1429.83 L2073.06 1434.31 L2083.42 1437.77 L2093.78 1440.43 L2104.13 1442.44 L2114.49 1443.95 L2124.85 1445.06 L2135.21 1445.88 L2145.57 1446.48 L2155.93 1446.9 L2166.29 1447.21 L2176.65 1447.42 L2187.01 1447.57 L2197.37 1447.67 L2207.73 1447.74 L2218.09 1447.79 L2228.45 1447.82 L2238.8 1447.84 L2249.16 1447.85 L2259.52 1447.86 L2269.88 1447.86 L2280.24 1447.87 L2290.6 1447.87 L2290.6 1447.87 L2280.24 1447.87 L2269.88 1447.87 L2259.52 1447.87 L2249.16 1447.87 L2238.8 1447.87 L2228.45 1447.87 L2218.09 1447.87 L2207.73 1447.87 L2197.37 1447.87 L2187.01 1447.87 L2176.65 1447.87 L2166.29 1447.87 L2155.93 1447.87 L2145.57 1447.87 L2135.21 1447.87 L2124.85 1447.87 L2114.49 1447.87 L2104.13 1447.87 L2093.78 1447.87 L2083.42 1447.87 L2073.06 1447.87 L2062.7 1447.87 L2052.34 1447.87 L2041.98 1447.87 L2031.62 1447.87 L2021.26 1447.87 L2010.9 1447.87 L2000.54 1447.87 L1990.18 1447.87 L1979.82 1447.87 L1969.46 1447.87 L1959.11 1447.87 L1948.75 1447.87 L1938.39 1447.87 L1928.03 1447.87 L1917.67 1447.87 L1907.31 1447.87 L1896.95 1447.87 L1886.59 1447.87 L1876.23 1447.87 L1865.87 1447.87 L1855.51 1447.87 L1845.15 1447.87 L1834.79 1447.87 L1824.43 1447.87 L1814.08 1447.87 L1803.72 1447.87 L1793.36 1447.87 L1783 1447.87 L1772.64 1447.87 L1762.28 1447.87 L1751.92 1447.87 L1741.56 1447.87 L1731.2 1447.87 L1720.84 1447.87 L1710.48 1447.87 L1700.12 1447.87 L1689.76 1447.87 L1679.41 1447.87 L1669.05 1447.87 L1658.69 1447.87 L1648.33 1447.87 L1637.97 1447.87 L1627.61 1447.87 L1617.25 1447.87 L1606.89 1447.87 L1596.53 1447.87 L1586.17 1447.87 L1575.81 1447.87 L1565.45 1447.87 L1555.09 1447.87 L1544.74 1447.87 L1534.38 1447.87 L1524.02 1447.87 L1513.66 1447.87 L1503.3 1447.87 L1492.94 1447.87 L1482.58 1447.87 L1472.22 1447.87 L1461.86 1447.87 L1451.5 1447.87 L1441.14 1447.87 L1430.78 1447.87 L1420.42 1447.87 L1410.07 1447.87 L1399.71 1447.87 L1389.35 1447.87 L1378.99 1447.87 L1368.63 1447.87 L1358.27 1447.87 L1347.91 1447.87 L1337.55 1447.87 L1327.19 1447.87 L1316.83 1447.87 L1306.47 1447.87 L1296.11 1447.87 L1285.75 1447.87 L1275.4 1447.87 L1265.04 1447.87 L1254.68 1447.87 L1244.32 1447.87 L1233.96 1447.87 L1223.6 1447.87 L1213.24 1447.87 L1202.88 1447.87 L1192.52 1447.87 L1182.16 1447.87 L1171.8 1447.87 L1161.44 1447.87 L1151.08 1447.87 L1140.73 1447.87 L1130.37 1447.87 L1120.01 1447.87 L1109.65 1447.87 L1099.29 1447.87 L1088.93 1447.87 L1078.57 1447.87 L1068.21 1447.87 L1057.85 1447.87 L1047.49 1447.87 L1037.13 1447.87 L1026.77 1447.87 L1016.41 1447.87 L1006.06 1447.87 L995.696 1447.87 L985.337 1447.87 L974.978 1447.87 L964.619 1447.87 L954.259 1447.87 L943.9 1447.87 L933.541 1447.87 L923.182 1447.87 L912.822 1447.87 L902.463 1447.87 L892.104 1447.87 L881.745 1447.87 L871.385 1447.87 L861.026 1447.87 L850.667 1447.87 L840.308 1447.87 L829.948 1447.87 L819.589 1447.87 L809.23 1447.87 L798.871 1447.87 L788.512 1447.87 L778.152 1447.87 L767.793 1447.87 L757.434 1447.87 L747.075 1447.87 L736.715 1447.87 L726.356 1447.87 L715.997 1447.87 L705.638 1447.87 L695.278 1447.87 L684.919 1447.87 L674.56 1447.87 L664.201 1447.87 L653.841 1447.87 L643.482 1447.87 L633.123 1447.87 L622.764 1447.87 L612.405 1447.87 L602.045 1447.87 L591.686 1447.87 L581.327 1447.87 L570.968 1447.87 L560.608 1447.87 L550.249 1447.87 L539.89 1447.87 L529.531 1447.87 L519.171 1447.87 L508.812 1447.87 L498.453 1447.87 L488.094 1447.87 L477.734 1447.87 L467.375 1447.87 L457.016 1447.87 L446.657 1447.87 L436.298 1447.87 L425.938 1447.87 L415.579 1447.87 L405.22 1447.87 L394.861 1447.87 L384.501 1447.87 L374.142 1447.87 L363.783 1447.87 L353.424 1447.87 L343.064 1447.87 L332.705 1447.87 L322.346 1447.87 L311.987 1447.87 L301.628 1447.87 L291.268 1447.87 L280.909 1447.87 L270.55 1447.87 L260.191 1447.87 L249.831 1447.87 L239.472 1447.87 L229.113 1447.87 L218.754 1447.87  Z" fill="#009af9" fill-rule="evenodd" fill-opacity="0.2"/>
<polyline clip-path="url(#clip792)" style="stroke:#009af9; stroke-linecap:round; stroke-linejoin:round; stroke-width:4; stroke-opacity:1; fill:none" points="218.754,1447.87 229.113,1447.87 239.472,1447.87 249.831,1447.87 260.191,1447.87 270.55,1447.87 280.909,1447.87 291.268,1447.87 301.628,1447.87 311.987,1447.87 322.346,1447.87 332.705,1447.87 343.064,1447.87 353.424,1447.87 363.783,1447.87 374.142,1447.87 384.501,1447.87 394.861,1447.87 405.22,1447.87 415.579,1447.87 425.938,1447.87 436.298,1447.87 446.657,1447.87 457.016,1447.87 467.375,1447.87 477.734,1447.87 488.094,1447.87 498.453,1447.87 508.812,1447.87 519.171,1447.87 529.531,1447.87 539.89,1447.87 550.249,1447.87 560.608,1447.87 570.968,1447.87 581.327,1447.87 591.686,1447.87 602.045,1447.87 612.405,1447.87 622.764,1447.87 633.123,1447.87 643.482,1447.87 653.841,1447.87 664.201,1447.87 674.56,1447.87 684.919,1447.87 695.278,1447.87 705.638,1447.87 715.997,1447.87 726.356,1447.87 736.715,1447.87 747.075,1447.87 757.434,1447.87 767.793,1447.87 778.152,1447.87 788.512,1447.87 798.871,1447.87 809.23,1447.87 819.589,1447.87 829.948,1447.87 840.308,1447.87 850.667,1447.87 861.026,1447.87 871.385,1447.87 881.745,1447.87 892.104,1447.87 902.463,1447.87 912.822,1447.87 923.182,1447.87 933.541,1447.87 943.9,1447.87 954.259,1447.87 964.619,1447.87 974.978,1447.87 985.337,1447.87 995.696,1447.87 1006.06,1447.87 1016.41,1447.87 1026.77,1447.87 1037.13,1447.87 1047.49,1447.87 1057.85,1447.87 1068.21,1447.87 1078.57,1447.87 1088.93,1447.87 1099.29,1447.87 1109.65,1447.87 1120.01,1447.87 1130.37,1447.87 1140.73,1447.87 1151.08,1447.87 1161.44,1447.87 1171.8,1447.87 1182.16,1447.87 1192.52,1447.87 1202.88,1447.87 1213.24,1447.87 1223.6,1447.87 1233.96,1447.87 1244.32,1447.87 1254.68,1447.87 1265.04,1447.87 1275.4,1447.86 1285.75,1447.86 1296.11,1447.85 1306.47,1447.84 1316.83,1447.82 1327.19,1447.79 1337.55,1447.74 1347.91,1447.67 1358.27,1447.57 1368.63,1447.42 1378.99,1447.21 1389.35,1446.9 1399.71,1446.48 1410.07,1445.88 1420.42,1445.06 1430.78,1443.95 1441.14,1442.44 1451.5,1440.43 1461.86,1437.77 1472.22,1434.31 1482.58,1429.83 1492.94,1424.12 1503.3,1416.92 1513.66,1407.92 1524.02,1396.83 1534.38,1383.31 1544.74,1367.02 1555.09,1347.63 1565.45,1324.82 1575.81,1298.33 1586.17,1267.94 1596.53,1233.53 1606.89,1195.08 1617.25,1152.69 1627.61,1106.63 1637.97,1057.31 1648.33,1005.31 1658.69,951.373 1669.05,896.405 1679.41,841.447 1689.76,787.646 1700.12,736.225 1710.48,688.432 1720.84,645.492 1731.2,608.561 1741.56,578.664 1751.92,556.66 1762.28,543.191 1772.64,538.657 1783,543.191 1793.36,556.66 1803.72,578.664 1814.08,608.561 1824.43,645.492 1834.79,688.432 1845.15,736.225 1855.51,787.646 1865.87,841.447 1876.23,896.405 1886.59,951.373 1896.95,1005.31 1907.31,1057.31 1917.67,1106.63 1928.03,1152.69 1938.39,1195.08 1948.75,1233.53 1959.11,1267.94 1969.46,1298.33 1979.82,1324.82 1990.18,1347.63 2000.54,1367.02 2010.9,1383.31 2021.26,1396.83 2031.62,1407.92 2041.98,1416.92 2052.34,1424.12 2062.7,1429.83 2073.06,1434.31 2083.42,1437.77 2093.78,1440.43 2104.13,1442.44 2114.49,1443.95 2124.85,1445.06 2135.21,1445.88 2145.57,1446.48 2155.93,1446.9 2166.29,1447.21 2176.65,1447.42 2187.01,1447.57 2197.37,1447.67 2207.73,1447.74 2218.09,1447.79 2228.45,1447.82 2238.8,1447.84 2249.16,1447.85 2259.52,1447.86 2269.88,1447.86 2280.24,1447.87 2290.6,1447.87 "/>
<path clip-path="url(#clip792)" d="M218.754 1447.87 L229.113 1447.87 L239.472 1447.87 L249.831 1447.87 L260.191 1447.87 L270.55 1447.87 L280.909 1447.87 L291.268 1447.87 L301.628 1447.87 L311.987 1447.87 L322.346 1447.87 L332.705 1447.87 L343.064 1447.87 L353.424 1447.87 L363.783 1447.87 L374.142 1447.87 L384.501 1447.87 L394.861 1447.87 L405.22 1447.87 L415.579 1447.87 L425.938 1447.87 L436.298 1447.87 L446.657 1447.87 L457.016 1447.87 L467.375 1447.87 L477.734 1447.87 L488.094 1447.87 L498.453 1447.87 L508.812 1447.87 L519.171 1447.87 L529.531 1447.87 L539.89 1447.87 L550.249 1447.87 L560.608 1447.87 L570.968 1447.87 L581.327 1447.87 L591.686 1447.87 L602.045 1447.87 L612.405 1447.87 L622.764 1447.87 L633.123 1447.87 L643.482 1447.87 L653.841 1447.87 L664.201 1447.87 L674.56 1447.87 L684.919 1447.87 L695.278 1447.87 L705.638 1447.87 L715.997 1447.87 L726.356 1447.87 L736.715 1447.87 L747.075 1447.87 L757.434 1447.87 L767.793 1447.87 L778.152 1447.87 L788.512 1447.87 L798.871 1447.87 L809.23 1447.87 L819.589 1447.87 L829.948 1447.87 L840.308 1447.87 L850.667 1447.87 L861.026 1447.87 L871.385 1447.87 L881.745 1447.87 L892.104 1447.87 L902.463 1447.87 L912.822 1447.87 L923.182 1447.87 L933.541 1447.87 L943.9 1447.87 L954.259 1447.87 L964.619 1447.87 L974.978 1447.87 L985.337 1447.87 L995.696 1447.87 L1006.06 1447.87 L1016.41 1447.87 L1026.77 1447.87 L1037.13 1447.87 L1047.49 1447.87 L1057.85 1447.87 L1068.21 1447.87 L1078.57 1447.87 L1088.93 1447.87 L1099.29 1447.87 L1109.65 1447.86 L1120.01 1447.85 L1130.37 1447.83 L1140.73 1447.79 L1151.08 1447.71 L1161.44 1447.59 L1171.8 1447.37 L1182.16 1447 L1192.52 1446.38 L1202.88 1445.39 L1213.24 1443.82 L1223.6 1441.39 L1233.96 1437.71 L1244.32 1432.24 L1254.68 1424.32 L1265.04 1413.09 L1275.4 1397.52 L1285.75 1376.41 L1296.11 1348.47 L1306.47 1312.35 L1316.83 1266.75 L1327.19 1210.61 L1337.55 1143.23 L1347.91 1064.44 L1358.27 974.844 L1368.63 875.863 L1378.99 769.867 L1389.35 660.142 L1399.71 550.783 L1410.07 446.471 L1420.42 352.164 L1430.78 272.716 L1441.14 212.465 L1451.5 174.841 L1461.86 162.047 L1472.22 174.841 L1482.58 212.465 L1492.94 272.716 L1503.3 352.164 L1513.66 446.471 L1524.02 550.783 L1534.38 660.142 L1544.74 769.867 L1555.09 875.863 L1565.45 974.844 L1575.81 1064.44 L1586.17 1143.23 L1596.53 1210.61 L1606.89 1266.75 L1617.25 1312.35 L1627.61 1348.47 L1637.97 1376.41 L1648.33 1397.52 L1658.69 1413.09 L1669.05 1424.32 L1679.41 1432.24 L1689.76 1437.71 L1700.12 1441.39 L1710.48 1443.82 L1720.84 1445.39 L1731.2 1446.38 L1741.56 1447 L1751.92 1447.37 L1762.28 1447.59 L1772.64 1447.71 L1783 1447.79 L1793.36 1447.83 L1803.72 1447.85 L1814.08 1447.86 L1824.43 1447.87 L1834.79 1447.87 L1845.15 1447.87 L1855.51 1447.87 L1865.87 1447.87 L1876.23 1447.87 L1886.59 1447.87 L1896.95 1447.87 L1907.31 1447.87 L1917.67 1447.87 L1928.03 1447.87 L1938.39 1447.87 L1948.75 1447.87 L1959.11 1447.87 L1969.46 1447.87 L1979.82 1447.87 L1990.18 1447.87 L2000.54 1447.87 L2010.9 1447.87 L2021.26 1447.87 L2031.62 1447.87 L2041.98 1447.87 L2052.34 1447.87 L2062.7 1447.87 L2073.06 1447.87 L2083.42 1447.87 L2093.78 1447.87 L2104.13 1447.87 L2114.49 1447.87 L2124.85 1447.87 L2135.21 1447.87 L2145.57 1447.87 L2155.93 1447.87 L2166.29 1447.87 L2176.65 1447.87 L2187.01 1447.87 L2197.37 1447.87 L2207.73 1447.87 L2218.09 1447.87 L2228.45 1447.87 L2238.8 1447.87 L2249.16 1447.87 L2259.52 1447.87 L2269.88 1447.87 L2280.24 1447.87 L2290.6 1447.87 L2290.6 1447.87 L2280.24 1447.87 L2269.88 1447.87 L2259.52 1447.87 L2249.16 1447.87 L2238.8 1447.87 L2228.45 1447.87 L2218.09 1447.87 L2207.73 1447.87 L2197.37 1447.87 L2187.01 1447.87 L2176.65 1447.87 L2166.29 1447.87 L2155.93 1447.87 L2145.57 1447.87 L2135.21 1447.87 L2124.85 1447.87 L2114.49 1447.87 L2104.13 1447.87 L2093.78 1447.87 L2083.42 1447.87 L2073.06 1447.87 L2062.7 1447.87 L2052.34 1447.87 L2041.98 1447.87 L2031.62 1447.87 L2021.26 1447.87 L2010.9 1447.87 L2000.54 1447.87 L1990.18 1447.87 L1979.82 1447.87 L1969.46 1447.87 L1959.11 1447.87 L1948.75 1447.87 L1938.39 1447.87 L1928.03 1447.87 L1917.67 1447.87 L1907.31 1447.87 L1896.95 1447.87 L1886.59 1447.87 L1876.23 1447.87 L1865.87 1447.87 L1855.51 1447.87 L1845.15 1447.87 L1834.79 1447.87 L1824.43 1447.87 L1814.08 1447.87 L1803.72 1447.87 L1793.36 1447.87 L1783 1447.87 L1772.64 1447.87 L1762.28 1447.87 L1751.92 1447.87 L1741.56 1447.87 L1731.2 1447.87 L1720.84 1447.87 L1710.48 1447.87 L1700.12 1447.87 L1689.76 1447.87 L1679.41 1447.87 L1669.05 1447.87 L1658.69 1447.87 L1648.33 1447.87 L1637.97 1447.87 L1627.61 1447.87 L1617.25 1447.87 L1606.89 1447.87 L1596.53 1447.87 L1586.17 1447.87 L1575.81 1447.87 L1565.45 1447.87 L1555.09 1447.87 L1544.74 1447.87 L1534.38 1447.87 L1524.02 1447.87 L1513.66 1447.87 L1503.3 1447.87 L1492.94 1447.87 L1482.58 1447.87 L1472.22 1447.87 L1461.86 1447.87 L1451.5 1447.87 L1441.14 1447.87 L1430.78 1447.87 L1420.42 1447.87 L1410.07 1447.87 L1399.71 1447.87 L1389.35 1447.87 L1378.99 1447.87 L1368.63 1447.87 L1358.27 1447.87 L1347.91 1447.87 L1337.55 1447.87 L1327.19 1447.87 L1316.83 1447.87 L1306.47 1447.87 L1296.11 1447.87 L1285.75 1447.87 L1275.4 1447.87 L1265.04 1447.87 L1254.68 1447.87 L1244.32 1447.87 L1233.96 1447.87 L1223.6 1447.87 L1213.24 1447.87 L1202.88 1447.87 L1192.52 1447.87 L1182.16 1447.87 L1171.8 1447.87 L1161.44 1447.87 L1151.08 1447.87 L1140.73 1447.87 L1130.37 1447.87 L1120.01 1447.87 L1109.65 1447.87 L1099.29 1447.87 L1088.93 1447.87 L1078.57 1447.87 L1068.21 1447.87 L1057.85 1447.87 L1047.49 1447.87 L1037.13 1447.87 L1026.77 1447.87 L1016.41 1447.87 L1006.06 1447.87 L995.696 1447.87 L985.337 1447.87 L974.978 1447.87 L964.619 1447.87 L954.259 1447.87 L943.9 1447.87 L933.541 1447.87 L923.182 1447.87 L912.822 1447.87 L902.463 1447.87 L892.104 1447.87 L881.745 1447.87 L871.385 1447.87 L861.026 1447.87 L850.667 1447.87 L840.308 1447.87 L829.948 1447.87 L819.589 1447.87 L809.23 1447.87 L798.871 1447.87 L788.512 1447.87 L778.152 1447.87 L767.793 1447.87 L757.434 1447.87 L747.075 1447.87 L736.715 1447.87 L726.356 1447.87 L715.997 1447.87 L705.638 1447.87 L695.278 1447.87 L684.919 1447.87 L674.56 1447.87 L664.201 1447.87 L653.841 1447.87 L643.482 1447.87 L633.123 1447.87 L622.764 1447.87 L612.405 1447.87 L602.045 1447.87 L591.686 1447.87 L581.327 1447.87 L570.968 1447.87 L560.608 1447.87 L550.249 1447.87 L539.89 1447.87 L529.531 1447.87 L519.171 1447.87 L508.812 1447.87 L498.453 1447.87 L488.094 1447.87 L477.734 1447.87 L467.375 1447.87 L457.016 1447.87 L446.657 1447.87 L436.298 1447.87 L425.938 1447.87 L415.579 1447.87 L405.22 1447.87 L394.861 1447.87 L384.501 1447.87 L374.142 1447.87 L363.783 1447.87 L353.424 1447.87 L343.064 1447.87 L332.705 1447.87 L322.346 1447.87 L311.987 1447.87 L301.628 1447.87 L291.268 1447.87 L280.909 1447.87 L270.55 1447.87 L260.191 1447.87 L249.831 1447.87 L239.472 1447.87 L229.113 1447.87 L218.754 1447.87  Z" fill="#e26f46" fill-rule="evenodd" fill-opacity="0.2"/>
<polyline clip-path="url(#clip792)" style="stroke:#e26f46; stroke-linecap:round; stroke-linejoin:round; stroke-width:4; stroke-opacity:1; fill:none" points="218.754,1447.87 229.113,1447.87 239.472,1447.87 249.831,1447.87 260.191,1447.87 270.55,1447.87 280.909,1447.87 291.268,1447.87 301.628,1447.87 311.987,1447.87 322.346,1447.87 332.705,1447.87 343.064,1447.87 353.424,1447.87 363.783,1447.87 374.142,1447.87 384.501,1447.87 394.861,1447.87 405.22,1447.87 415.579,1447.87 425.938,1447.87 436.298,1447.87 446.657,1447.87 457.016,1447.87 467.375,1447.87 477.734,1447.87 488.094,1447.87 498.453,1447.87 508.812,1447.87 519.171,1447.87 529.531,1447.87 539.89,1447.87 550.249,1447.87 560.608,1447.87 570.968,1447.87 581.327,1447.87 591.686,1447.87 602.045,1447.87 612.405,1447.87 622.764,1447.87 633.123,1447.87 643.482,1447.87 653.841,1447.87 664.201,1447.87 674.56,1447.87 684.919,1447.87 695.278,1447.87 705.638,1447.87 715.997,1447.87 726.356,1447.87 736.715,1447.87 747.075,1447.87 757.434,1447.87 767.793,1447.87 778.152,1447.87 788.512,1447.87 798.871,1447.87 809.23,1447.87 819.589,1447.87 829.948,1447.87 840.308,1447.87 850.667,1447.87 861.026,1447.87 871.385,1447.87 881.745,1447.87 892.104,1447.87 902.463,1447.87 912.822,1447.87 923.182,1447.87 933.541,1447.87 943.9,1447.87 954.259,1447.87 964.619,1447.87 974.978,1447.87 985.337,1447.87 995.696,1447.87 1006.06,1447.87 1016.41,1447.87 1026.77,1447.87 1037.13,1447.87 1047.49,1447.87 1057.85,1447.87 1068.21,1447.87 1078.57,1447.87 1088.93,1447.87 1099.29,1447.87 1109.65,1447.86 1120.01,1447.85 1130.37,1447.83 1140.73,1447.79 1151.08,1447.71 1161.44,1447.59 1171.8,1447.37 1182.16,1447 1192.52,1446.38 1202.88,1445.39 1213.24,1443.82 1223.6,1441.39 1233.96,1437.71 1244.32,1432.24 1254.68,1424.32 1265.04,1413.09 1275.4,1397.52 1285.75,1376.41 1296.11,1348.47 1306.47,1312.35 1316.83,1266.75 1327.19,1210.61 1337.55,1143.23 1347.91,1064.44 1358.27,974.844 1368.63,875.863 1378.99,769.867 1389.35,660.142 1399.71,550.783 1410.07,446.471 1420.42,352.164 1430.78,272.716 1441.14,212.465 1451.5,174.841 1461.86,162.047 1472.22,174.841 1482.58,212.465 1492.94,272.716 1503.3,352.164 1513.66,446.471 1524.02,550.783 1534.38,660.142 1544.74,769.867 1555.09,875.863 1565.45,974.844 1575.81,1064.44 1586.17,1143.23 1596.53,1210.61 1606.89,1266.75 1617.25,1312.35 1627.61,1348.47 1637.97,1376.41 1648.33,1397.52 1658.69,1413.09 1669.05,1424.32 1679.41,1432.24 1689.76,1437.71 1700.12,1441.39 1710.48,1443.82 1720.84,1445.39 1731.2,1446.38 1741.56,1447 1751.92,1447.37 1762.28,1447.59 1772.64,1447.71 1783,1447.79 1793.36,1447.83 1803.72,1447.85 1814.08,1447.86 1824.43,1447.87 1834.79,1447.87 1845.15,1447.87 1855.51,1447.87 1865.87,1447.87 1876.23,1447.87 1886.59,1447.87 1896.95,1447.87 1907.31,1447.87 1917.67,1447.87 1928.03,1447.87 1938.39,1447.87 1948.75,1447.87 1959.11,1447.87 1969.46,1447.87 1979.82,1447.87 1990.18,1447.87 2000.54,1447.87 2010.9,1447.87 2021.26,1447.87 2031.62,1447.87 2041.98,1447.87 2052.34,1447.87 2062.7,1447.87 2073.06,1447.87 2083.42,1447.87 2093.78,1447.87 2104.13,1447.87 2114.49,1447.87 2124.85,1447.87 2135.21,1447.87 2145.57,1447.87 2155.93,1447.87 2166.29,1447.87 2176.65,1447.87 2187.01,1447.87 2197.37,1447.87 2207.73,1447.87 2218.09,1447.87 2228.45,1447.87 2238.8,1447.87 2249.16,1447.87 2259.52,1447.87 2269.88,1447.87 2280.24,1447.87 2290.6,1447.87 "/>
<polyline clip-path="url(#clip792)" style="stroke:#3da44d; stroke-linecap:round; stroke-linejoin:round; stroke-width:4; stroke-opacity:1; fill:none" points="1254.68,2849.42 1254.68,-1239.5 "/>
<path clip-path="url(#clip790)" d="M1820.93 376.265 L2279.55 376.265 L2279.55 168.905 L1820.93 168.905  Z" fill="#ffffff" fill-rule="evenodd" fill-opacity="1"/>
<polyline clip-path="url(#clip790)" style="stroke:#000000; stroke-linecap:round; stroke-linejoin:round; stroke-width:4; stroke-opacity:1; fill:none" points="1820.93,376.265 2279.55,376.265 2279.55,168.905 1820.93,168.905 1820.93,376.265 "/>
<path clip-path="url(#clip790)" d="M1845.33 241.481 L1991.74 241.481 L1991.74 200.009 L1845.33 200.009 L1845.33 241.481  Z" fill="#009af9" fill-rule="evenodd" fill-opacity="0.2"/>
<polyline clip-path="url(#clip790)" style="stroke:#009af9; stroke-linecap:round; stroke-linejoin:round; stroke-width:4; stroke-opacity:1; fill:none" points="1845.33,200.009 1991.74,200.009 "/>
<path clip-path="url(#clip790)" d="M2020.43 234.136 L2020.43 247.886 L2016.15 247.886 L2016.15 212.099 L2020.43 212.099 L2020.43 216.034 Q2021.77 213.719 2023.81 212.608 Q2025.87 211.474 2028.71 211.474 Q2033.44 211.474 2036.38 215.224 Q2039.34 218.974 2039.34 225.085 Q2039.34 231.196 2036.38 234.946 Q2033.44 238.696 2028.71 238.696 Q2025.87 238.696 2023.81 237.585 Q2021.77 236.451 2020.43 234.136 M2034.92 225.085 Q2034.92 220.386 2032.97 217.724 Q2031.05 215.039 2027.67 215.039 Q2024.29 215.039 2022.35 217.724 Q2020.43 220.386 2020.43 225.085 Q2020.43 229.784 2022.35 232.469 Q2024.29 235.131 2027.67 235.131 Q2031.05 235.131 2032.97 232.469 Q2034.92 229.784 2034.92 225.085 Z" fill="#000000" fill-rule="nonzero" fill-opacity="1" /><path clip-path="url(#clip790)" d="M2061.42 216.08 Q2060.71 215.664 2059.85 215.478 Q2059.02 215.27 2058 215.27 Q2054.39 215.27 2052.44 217.631 Q2050.52 219.969 2050.52 224.367 L2050.52 238.025 L2046.24 238.025 L2046.24 212.099 L2050.52 212.099 L2050.52 216.127 Q2051.86 213.766 2054.02 212.631 Q2056.17 211.474 2059.25 211.474 Q2059.69 211.474 2060.22 211.543 Q2060.75 211.59 2061.4 211.705 L2061.42 216.08 Z" fill="#000000" fill-rule="nonzero" fill-opacity="1" /><path clip-path="url(#clip790)" d="M2065.89 212.099 L2070.15 212.099 L2070.15 238.025 L2065.89 238.025 L2065.89 212.099 M2065.89 202.006 L2070.15 202.006 L2070.15 207.4 L2065.89 207.4 L2065.89 202.006 Z" fill="#000000" fill-rule="nonzero" fill-opacity="1" /><path clip-path="url(#clip790)" d="M2089.11 215.085 Q2085.68 215.085 2083.69 217.77 Q2081.7 220.432 2081.7 225.085 Q2081.7 229.738 2083.67 232.423 Q2085.66 235.085 2089.11 235.085 Q2092.51 235.085 2094.5 232.4 Q2096.49 229.715 2096.49 225.085 Q2096.49 220.478 2094.5 217.793 Q2092.51 215.085 2089.11 215.085 M2089.11 211.474 Q2094.66 211.474 2097.83 215.085 Q2101.01 218.696 2101.01 225.085 Q2101.01 231.451 2097.83 235.085 Q2094.66 238.696 2089.11 238.696 Q2083.53 238.696 2080.36 235.085 Q2077.21 231.451 2077.21 225.085 Q2077.21 218.696 2080.36 215.085 Q2083.53 211.474 2089.11 211.474 Z" fill="#000000" fill-rule="nonzero" fill-opacity="1" /><path clip-path="url(#clip790)" d="M2123.09 216.08 Q2122.37 215.664 2121.52 215.478 Q2120.68 215.27 2119.66 215.27 Q2116.05 215.27 2114.11 217.631 Q2112.19 219.969 2112.19 224.367 L2112.19 238.025 L2107.9 238.025 L2107.9 212.099 L2112.19 212.099 L2112.19 216.127 Q2113.53 213.766 2115.68 212.631 Q2117.83 211.474 2120.91 211.474 Q2121.35 211.474 2121.89 211.543 Q2122.42 211.59 2123.07 211.705 L2123.09 216.08 Z" fill="#000000" fill-rule="nonzero" fill-opacity="1" /><path clip-path="url(#clip790)" d="M1845.33 293.321 L1991.74 293.321 L1991.74 251.849 L1845.33 251.849 L1845.33 293.321  Z" fill="#e26f46" fill-rule="evenodd" fill-opacity="0.2"/>
<polyline clip-path="url(#clip790)" style="stroke:#e26f46; stroke-linecap:round; stroke-linejoin:round; stroke-width:4; stroke-opacity:1; fill:none" points="1845.33,251.849 1991.74,251.849 "/>
<path clip-path="url(#clip790)" d="M2020.43 285.976 L2020.43 299.726 L2016.15 299.726 L2016.15 263.939 L2020.43 263.939 L2020.43 267.874 Q2021.77 265.559 2023.81 264.448 Q2025.87 263.314 2028.71 263.314 Q2033.44 263.314 2036.38 267.064 Q2039.34 270.814 2039.34 276.925 Q2039.34 283.036 2036.38 286.786 Q2033.44 290.536 2028.71 290.536 Q2025.87 290.536 2023.81 289.425 Q2021.77 288.291 2020.43 285.976 M2034.92 276.925 Q2034.92 272.226 2032.97 269.564 Q2031.05 266.879 2027.67 266.879 Q2024.29 266.879 2022.35 269.564 Q2020.43 272.226 2020.43 276.925 Q2020.43 281.624 2022.35 284.309 Q2024.29 286.971 2027.67 286.971 Q2031.05 286.971 2032.97 284.309 Q2034.92 281.624 2034.92 276.925 Z" fill="#000000" fill-rule="nonzero" fill-opacity="1" /><path clip-path="url(#clip790)" d="M2056.45 266.925 Q2053.02 266.925 2051.03 269.61 Q2049.04 272.272 2049.04 276.925 Q2049.04 281.578 2051.01 284.263 Q2053 286.925 2056.45 286.925 Q2059.85 286.925 2061.84 284.24 Q2063.83 281.555 2063.83 276.925 Q2063.83 272.318 2061.84 269.633 Q2059.85 266.925 2056.45 266.925 M2056.45 263.314 Q2062 263.314 2065.17 266.925 Q2068.34 270.536 2068.34 276.925 Q2068.34 283.291 2065.17 286.925 Q2062 290.536 2056.45 290.536 Q2050.87 290.536 2047.7 286.925 Q2044.55 283.291 2044.55 276.925 Q2044.55 270.536 2047.7 266.925 Q2050.87 263.314 2056.45 263.314 Z" fill="#000000" fill-rule="nonzero" fill-opacity="1" /><path clip-path="url(#clip790)" d="M2091.93 264.703 L2091.93 268.731 Q2090.13 267.805 2088.18 267.342 Q2086.24 266.879 2084.15 266.879 Q2080.98 266.879 2079.39 267.851 Q2077.81 268.823 2077.81 270.768 Q2077.81 272.249 2078.95 273.105 Q2080.08 273.939 2083.51 274.703 L2084.96 275.027 Q2089.5 275.999 2091.4 277.781 Q2093.32 279.541 2093.32 282.712 Q2093.32 286.323 2090.45 288.429 Q2087.6 290.536 2082.6 290.536 Q2080.52 290.536 2078.25 290.119 Q2076.01 289.726 2073.51 288.916 L2073.51 284.517 Q2075.87 285.744 2078.16 286.369 Q2080.45 286.971 2082.7 286.971 Q2085.71 286.971 2087.33 285.953 Q2088.95 284.911 2088.95 283.036 Q2088.95 281.3 2087.77 280.374 Q2086.61 279.448 2082.65 278.592 L2081.17 278.244 Q2077.21 277.411 2075.45 275.698 Q2073.69 273.962 2073.69 270.953 Q2073.69 267.295 2076.28 265.305 Q2078.88 263.314 2083.65 263.314 Q2086.01 263.314 2088.09 263.661 Q2090.17 264.008 2091.93 264.703 Z" fill="#000000" fill-rule="nonzero" fill-opacity="1" /><path clip-path="url(#clip790)" d="M2104.32 256.578 L2104.32 263.939 L2113.09 263.939 L2113.09 267.249 L2104.32 267.249 L2104.32 281.323 Q2104.32 284.494 2105.17 285.397 Q2106.05 286.3 2108.71 286.3 L2113.09 286.3 L2113.09 289.865 L2108.71 289.865 Q2103.78 289.865 2101.91 288.036 Q2100.03 286.184 2100.03 281.323 L2100.03 267.249 L2096.91 267.249 L2096.91 263.939 L2100.03 263.939 L2100.03 256.578 L2104.32 256.578 Z" fill="#000000" fill-rule="nonzero" fill-opacity="1" /><path clip-path="url(#clip790)" d="M2140.87 275.837 L2140.87 277.92 L2121.28 277.92 Q2121.56 282.318 2123.92 284.633 Q2126.31 286.925 2130.54 286.925 Q2133 286.925 2135.29 286.323 Q2137.6 285.721 2139.87 284.517 L2139.87 288.545 Q2137.58 289.517 2135.17 290.027 Q2132.77 290.536 2130.29 290.536 Q2124.08 290.536 2120.45 286.925 Q2116.84 283.314 2116.84 277.156 Q2116.84 270.791 2120.27 267.064 Q2123.71 263.314 2129.55 263.314 Q2134.78 263.314 2137.81 266.693 Q2140.87 270.05 2140.87 275.837 M2136.61 274.587 Q2136.56 271.092 2134.64 269.008 Q2132.74 266.925 2129.59 266.925 Q2126.03 266.925 2123.88 268.939 Q2121.75 270.953 2121.42 274.61 L2136.61 274.587 Z" fill="#000000" fill-rule="nonzero" fill-opacity="1" /><path clip-path="url(#clip790)" d="M2162.88 267.92 Q2162.16 267.504 2161.31 267.318 Q2160.47 267.11 2159.45 267.11 Q2155.84 267.11 2153.9 269.471 Q2151.98 271.809 2151.98 276.207 L2151.98 289.865 L2147.7 289.865 L2147.7 263.939 L2151.98 263.939 L2151.98 267.967 Q2153.32 265.606 2155.47 264.471 Q2157.63 263.314 2160.7 263.314 Q2161.14 263.314 2161.68 263.383 Q2162.21 263.43 2162.86 263.545 L2162.88 267.92 Z" fill="#000000" fill-rule="nonzero" fill-opacity="1" /><path clip-path="url(#clip790)" d="M2167.35 263.939 L2171.61 263.939 L2171.61 289.865 L2167.35 289.865 L2167.35 263.939 M2167.35 253.846 L2171.61 253.846 L2171.61 259.24 L2167.35 259.24 L2167.35 253.846 Z" fill="#000000" fill-rule="nonzero" fill-opacity="1" /><path clip-path="url(#clip790)" d="M2190.57 266.925 Q2187.14 266.925 2185.15 269.61 Q2183.16 272.272 2183.16 276.925 Q2183.16 281.578 2185.13 284.263 Q2187.12 286.925 2190.57 286.925 Q2193.97 286.925 2195.96 284.24 Q2197.95 281.555 2197.95 276.925 Q2197.95 272.318 2195.96 269.633 Q2193.97 266.925 2190.57 266.925 M2190.57 263.314 Q2196.12 263.314 2199.29 266.925 Q2202.46 270.536 2202.46 276.925 Q2202.46 283.291 2199.29 286.925 Q2196.12 290.536 2190.57 290.536 Q2184.99 290.536 2181.82 286.925 Q2178.67 283.291 2178.67 276.925 Q2178.67 270.536 2181.82 266.925 Q2184.99 263.314 2190.57 263.314 Z" fill="#000000" fill-rule="nonzero" fill-opacity="1" /><path clip-path="url(#clip790)" d="M2224.55 267.92 Q2223.83 267.504 2222.97 267.318 Q2222.14 267.11 2221.12 267.11 Q2217.51 267.11 2215.57 269.471 Q2213.64 271.809 2213.64 276.207 L2213.64 289.865 L2209.36 289.865 L2209.36 263.939 L2213.64 263.939 L2213.64 267.967 Q2214.99 265.606 2217.14 264.471 Q2219.29 263.314 2222.37 263.314 Q2222.81 263.314 2223.34 263.383 Q2223.88 263.43 2224.52 263.545 L2224.55 267.92 Z" fill="#000000" fill-rule="nonzero" fill-opacity="1" /><polyline clip-path="url(#clip790)" style="stroke:#3da44d; stroke-linecap:round; stroke-linejoin:round; stroke-width:4; stroke-opacity:1; fill:none" points="1845.33,324.425 1991.74,324.425 "/>
<path clip-path="url(#clip790)" d="M2035.06 319.714 L2035.06 305.686 L2039.32 305.686 L2039.32 341.705 L2035.06 341.705 L2035.06 337.816 Q2033.71 340.131 2031.65 341.265 Q2029.62 342.376 2026.75 342.376 Q2022.05 342.376 2019.09 338.626 Q2016.15 334.876 2016.15 328.765 Q2016.15 322.654 2019.09 318.904 Q2022.05 315.154 2026.75 315.154 Q2029.62 315.154 2031.65 316.288 Q2033.71 317.399 2035.06 319.714 M2020.54 328.765 Q2020.54 333.464 2022.46 336.149 Q2024.41 338.811 2027.79 338.811 Q2031.17 338.811 2033.11 336.149 Q2035.06 333.464 2035.06 328.765 Q2035.06 324.066 2033.11 321.404 Q2031.17 318.719 2027.79 318.719 Q2024.41 318.719 2022.46 321.404 Q2020.54 324.066 2020.54 328.765 Z" fill="#000000" fill-rule="nonzero" fill-opacity="1" /><path clip-path="url(#clip790)" d="M2059.87 328.672 Q2054.71 328.672 2052.72 329.853 Q2050.73 331.033 2050.73 333.881 Q2050.73 336.149 2052.21 337.492 Q2053.71 338.811 2056.28 338.811 Q2059.83 338.811 2061.96 336.311 Q2064.11 333.788 2064.11 329.621 L2064.11 328.672 L2059.87 328.672 M2068.37 326.913 L2068.37 341.705 L2064.11 341.705 L2064.11 337.769 Q2062.65 340.131 2060.47 341.265 Q2058.3 342.376 2055.15 342.376 Q2051.17 342.376 2048.81 340.154 Q2046.47 337.908 2046.47 334.158 Q2046.47 329.783 2049.39 327.561 Q2052.33 325.339 2058.14 325.339 L2064.11 325.339 L2064.11 324.922 Q2064.11 321.983 2062.16 320.385 Q2060.24 318.765 2056.75 318.765 Q2054.52 318.765 2052.42 319.297 Q2050.31 319.83 2048.37 320.895 L2048.37 316.959 Q2050.71 316.057 2052.9 315.617 Q2055.1 315.154 2057.19 315.154 Q2062.81 315.154 2065.59 318.071 Q2068.37 320.987 2068.37 326.913 Z" fill="#000000" fill-rule="nonzero" fill-opacity="1" /><path clip-path="url(#clip790)" d="M2081.35 308.418 L2081.35 315.779 L2090.13 315.779 L2090.13 319.089 L2081.35 319.089 L2081.35 333.163 Q2081.35 336.334 2082.21 337.237 Q2083.09 338.14 2085.75 338.14 L2090.13 338.14 L2090.13 341.705 L2085.75 341.705 Q2080.82 341.705 2078.95 339.876 Q2077.07 338.024 2077.07 333.163 L2077.07 319.089 L2073.95 319.089 L2073.95 315.779 L2077.07 315.779 L2077.07 308.418 L2081.35 308.418 Z" fill="#000000" fill-rule="nonzero" fill-opacity="1" /><path clip-path="url(#clip790)" d="M2107.51 328.672 Q2102.35 328.672 2100.36 329.853 Q2098.37 331.033 2098.37 333.881 Q2098.37 336.149 2099.85 337.492 Q2101.35 338.811 2103.92 338.811 Q2107.46 338.811 2109.59 336.311 Q2111.75 333.788 2111.75 329.621 L2111.75 328.672 L2107.51 328.672 M2116.01 326.913 L2116.01 341.705 L2111.75 341.705 L2111.75 337.769 Q2110.29 340.131 2108.11 341.265 Q2105.94 342.376 2102.79 342.376 Q2098.81 342.376 2096.45 340.154 Q2094.11 337.908 2094.11 334.158 Q2094.11 329.783 2097.02 327.561 Q2099.96 325.339 2105.77 325.339 L2111.75 325.339 L2111.75 324.922 Q2111.75 321.983 2109.8 320.385 Q2107.88 318.765 2104.39 318.765 Q2102.16 318.765 2100.06 319.297 Q2097.95 319.83 2096.01 320.895 L2096.01 316.959 Q2098.34 316.057 2100.54 315.617 Q2102.74 315.154 2104.83 315.154 Q2110.45 315.154 2113.23 318.071 Q2116.01 320.987 2116.01 326.913 Z" fill="#000000" fill-rule="nonzero" fill-opacity="1" /><path clip-path="url(#clip790)" d="M2143.97 337.816 L2143.97 351.566 L2139.69 351.566 L2139.69 315.779 L2143.97 315.779 L2143.97 319.714 Q2145.31 317.399 2147.35 316.288 Q2149.41 315.154 2152.26 315.154 Q2156.98 315.154 2159.92 318.904 Q2162.88 322.654 2162.88 328.765 Q2162.88 334.876 2159.92 338.626 Q2156.98 342.376 2152.26 342.376 Q2149.41 342.376 2147.35 341.265 Q2145.31 340.131 2143.97 337.816 M2158.46 328.765 Q2158.46 324.066 2156.52 321.404 Q2154.59 318.719 2151.21 318.719 Q2147.83 318.719 2145.89 321.404 Q2143.97 324.066 2143.97 328.765 Q2143.97 333.464 2145.89 336.149 Q2147.83 338.811 2151.21 338.811 Q2154.59 338.811 2156.52 336.149 Q2158.46 333.464 2158.46 328.765 Z" fill="#000000" fill-rule="nonzero" fill-opacity="1" /><path clip-path="url(#clip790)" d="M2179.99 318.765 Q2176.56 318.765 2174.57 321.45 Q2172.58 324.112 2172.58 328.765 Q2172.58 333.418 2174.55 336.103 Q2176.54 338.765 2179.99 338.765 Q2183.39 338.765 2185.38 336.08 Q2187.37 333.395 2187.37 328.765 Q2187.37 324.158 2185.38 321.473 Q2183.39 318.765 2179.99 318.765 M2179.99 315.154 Q2185.54 315.154 2188.71 318.765 Q2191.89 322.376 2191.89 328.765 Q2191.89 335.131 2188.71 338.765 Q2185.54 342.376 2179.99 342.376 Q2174.41 342.376 2171.24 338.765 Q2168.09 335.131 2168.09 328.765 Q2168.09 322.376 2171.24 318.765 Q2174.41 315.154 2179.99 315.154 Z" fill="#000000" fill-rule="nonzero" fill-opacity="1" /><path clip-path="url(#clip790)" d="M2198.95 315.779 L2203.2 315.779 L2203.2 341.705 L2198.95 341.705 L2198.95 315.779 M2198.95 305.686 L2203.2 305.686 L2203.2 311.08 L2198.95 311.08 L2198.95 305.686 Z" fill="#000000" fill-rule="nonzero" fill-opacity="1" /><path clip-path="url(#clip790)" d="M2233.67 326.057 L2233.67 341.705 L2229.41 341.705 L2229.41 326.195 Q2229.41 322.515 2227.97 320.686 Q2226.54 318.858 2223.67 318.858 Q2220.22 318.858 2218.23 321.057 Q2216.24 323.256 2216.24 327.052 L2216.24 341.705 L2211.95 341.705 L2211.95 315.779 L2216.24 315.779 L2216.24 319.807 Q2217.76 317.469 2219.83 316.311 Q2221.91 315.154 2224.62 315.154 Q2229.08 315.154 2231.38 317.932 Q2233.67 320.686 2233.67 326.057 Z" fill="#000000" fill-rule="nonzero" fill-opacity="1" /><path clip-path="url(#clip790)" d="M2246.38 308.418 L2246.38 315.779 L2255.15 315.779 L2255.15 319.089 L2246.38 319.089 L2246.38 333.163 Q2246.38 336.334 2247.23 337.237 Q2248.11 338.14 2250.77 338.14 L2255.15 338.14 L2255.15 341.705 L2250.77 341.705 Q2245.84 341.705 2243.97 339.876 Q2242.09 338.024 2242.09 333.163 L2242.09 319.089 L2238.97 319.089 L2238.97 315.779 L2242.09 315.779 L2242.09 308.418 L2246.38 308.418 Z" fill="#000000" fill-rule="nonzero" fill-opacity="1" /></svg>
