<?xml version="1.0" encoding="utf-8"?>
<svg xmlns="http://www.w3.org/2000/svg" xmlns:xlink="http://www.w3.org/1999/xlink" width="600" height="400" viewBox="0 0 2400 1600">
<defs>
  <clipPath id="clip200">
    <rect x="0" y="0" width="2400" height="1600"/>
  </clipPath>
</defs>
<path clip-path="url(#clip200)" d="M0 1600 L2400 1600 L2400 0 L0 0  Z" fill="#ffffff" fill-rule="evenodd" fill-opacity="1"/>
<defs>
  <clipPath id="clip201">
    <rect x="480" y="0" width="1681" height="1600"/>
  </clipPath>
</defs>
<path clip-path="url(#clip200)" d="M265.445 1423.18 L2352.76 1423.18 L2352.76 123.472 L265.445 123.472  Z" fill="#ffffff" fill-rule="evenodd" fill-opacity="1"/>
<defs>
  <clipPath id="clip202">
    <rect x="265" y="123" width="2088" height="1301"/>
  </clipPath>
</defs>
<polyline clip-path="url(#clip202)" style="stroke:#000000; stroke-linecap:round; stroke-linejoin:round; stroke-width:2; stroke-opacity:0.1; fill:none" points="652.713,1423.18 652.713,123.472 "/>
<polyline clip-path="url(#clip202)" style="stroke:#000000; stroke-linecap:round; stroke-linejoin:round; stroke-width:2; stroke-opacity:0.1; fill:none" points="1199.7,1423.18 1199.7,123.472 "/>
<polyline clip-path="url(#clip202)" style="stroke:#000000; stroke-linecap:round; stroke-linejoin:round; stroke-width:2; stroke-opacity:0.1; fill:none" points="1746.69,1423.18 1746.69,123.472 "/>
<polyline clip-path="url(#clip202)" style="stroke:#000000; stroke-linecap:round; stroke-linejoin:round; stroke-width:2; stroke-opacity:0.1; fill:none" points="2293.68,1423.18 2293.68,123.472 "/>
<polyline clip-path="url(#clip202)" style="stroke:#000000; stroke-linecap:round; stroke-linejoin:round; stroke-width:2; stroke-opacity:0.1; fill:none" points="265.445,1141.49 2352.76,1141.49 "/>
<polyline clip-path="url(#clip202)" style="stroke:#000000; stroke-linecap:round; stroke-linejoin:round; stroke-width:2; stroke-opacity:0.1; fill:none" points="265.445,840.813 2352.76,840.813 "/>
<polyline clip-path="url(#clip202)" style="stroke:#000000; stroke-linecap:round; stroke-linejoin:round; stroke-width:2; stroke-opacity:0.1; fill:none" points="265.445,540.137 2352.76,540.137 "/>
<polyline clip-path="url(#clip202)" style="stroke:#000000; stroke-linecap:round; stroke-linejoin:round; stroke-width:2; stroke-opacity:0.1; fill:none" points="265.445,239.461 2352.76,239.461 "/>
<polyline clip-path="url(#clip200)" style="stroke:#000000; stroke-linecap:round; stroke-linejoin:round; stroke-width:4; stroke-opacity:1; fill:none" points="265.445,1423.18 2352.76,1423.18 "/>
<polyline clip-path="url(#clip200)" style="stroke:#000000; stroke-linecap:round; stroke-linejoin:round; stroke-width:4; stroke-opacity:1; fill:none" points="652.713,1423.18 652.713,1404.28 "/>
<polyline clip-path="url(#clip200)" style="stroke:#000000; stroke-linecap:round; stroke-linejoin:round; stroke-width:4; stroke-opacity:1; fill:none" points="1199.7,1423.18 1199.7,1404.28 "/>
<polyline clip-path="url(#clip200)" style="stroke:#000000; stroke-linecap:round; stroke-linejoin:round; stroke-width:4; stroke-opacity:1; fill:none" points="1746.69,1423.18 1746.69,1404.28 "/>
<polyline clip-path="url(#clip200)" style="stroke:#000000; stroke-linecap:round; stroke-linejoin:round; stroke-width:4; stroke-opacity:1; fill:none" points="2293.68,1423.18 2293.68,1404.28 "/>
<path clip-path="url(#clip200)" d="M642.991 1451.02 L661.347 1451.02 L661.347 1454.96 L647.273 1454.96 L647.273 1463.43 Q648.292 1463.08 649.31 1462.92 Q650.329 1462.73 651.347 1462.73 Q657.134 1462.73 660.514 1465.9 Q663.894 1469.08 663.894 1474.49 Q663.894 1480.07 660.421 1483.17 Q656.949 1486.25 650.63 1486.25 Q648.454 1486.25 646.185 1485.88 Q643.94 1485.51 641.533 1484.77 L641.533 1480.07 Q643.616 1481.2 645.838 1481.76 Q648.06 1482.32 650.537 1482.32 Q654.542 1482.32 656.88 1480.21 Q659.218 1478.1 659.218 1474.49 Q659.218 1470.88 656.88 1468.77 Q654.542 1466.67 650.537 1466.67 Q648.662 1466.67 646.787 1467.08 Q644.935 1467.5 642.991 1468.38 L642.991 1451.02 Z" fill="#000000" fill-rule="nonzero" fill-opacity="1" /><path clip-path="url(#clip200)" d="M1174.39 1481.64 L1182.03 1481.64 L1182.03 1455.28 L1173.72 1456.95 L1173.72 1452.69 L1181.98 1451.02 L1186.66 1451.02 L1186.66 1481.64 L1194.3 1481.64 L1194.3 1485.58 L1174.39 1485.58 L1174.39 1481.64 Z" fill="#000000" fill-rule="nonzero" fill-opacity="1" /><path clip-path="url(#clip200)" d="M1213.74 1454.1 Q1210.13 1454.1 1208.3 1457.66 Q1206.5 1461.2 1206.5 1468.33 Q1206.5 1475.44 1208.3 1479.01 Q1210.13 1482.55 1213.74 1482.55 Q1217.38 1482.55 1219.18 1479.01 Q1221.01 1475.44 1221.01 1468.33 Q1221.01 1461.2 1219.18 1457.66 Q1217.38 1454.1 1213.74 1454.1 M1213.74 1450.39 Q1219.55 1450.39 1222.61 1455 Q1225.69 1459.58 1225.69 1468.33 Q1225.69 1477.06 1222.61 1481.67 Q1219.55 1486.25 1213.74 1486.25 Q1207.93 1486.25 1204.85 1481.67 Q1201.8 1477.06 1201.8 1468.33 Q1201.8 1459.58 1204.85 1455 Q1207.93 1450.39 1213.74 1450.39 Z" fill="#000000" fill-rule="nonzero" fill-opacity="1" /><path clip-path="url(#clip200)" d="M1721.88 1481.64 L1729.52 1481.64 L1729.52 1455.28 L1721.21 1456.95 L1721.21 1452.69 L1729.47 1451.02 L1734.15 1451.02 L1734.15 1481.64 L1741.78 1481.64 L1741.78 1485.58 L1721.88 1485.58 L1721.88 1481.64 Z" fill="#000000" fill-rule="nonzero" fill-opacity="1" /><path clip-path="url(#clip200)" d="M1751.28 1451.02 L1769.63 1451.02 L1769.63 1454.96 L1755.56 1454.96 L1755.56 1463.43 Q1756.58 1463.08 1757.59 1462.92 Q1758.61 1462.73 1759.63 1462.73 Q1765.42 1462.73 1768.8 1465.9 Q1772.18 1469.08 1772.18 1474.49 Q1772.18 1480.07 1768.71 1483.17 Q1765.23 1486.25 1758.91 1486.25 Q1756.74 1486.25 1754.47 1485.88 Q1752.22 1485.51 1749.82 1484.77 L1749.82 1480.07 Q1751.9 1481.2 1754.12 1481.76 Q1756.34 1482.32 1758.82 1482.32 Q1762.83 1482.32 1765.16 1480.21 Q1767.5 1478.1 1767.5 1474.49 Q1767.5 1470.88 1765.16 1468.77 Q1762.83 1466.67 1758.82 1466.67 Q1756.95 1466.67 1755.07 1467.08 Q1753.22 1467.5 1751.28 1468.38 L1751.28 1451.02 Z" fill="#000000" fill-rule="nonzero" fill-opacity="1" /><path clip-path="url(#clip200)" d="M2272.45 1481.64 L2288.77 1481.64 L2288.77 1485.58 L2266.83 1485.58 L2266.83 1481.64 Q2269.49 1478.89 2274.07 1474.26 Q2278.68 1469.61 2279.86 1468.27 Q2282.11 1465.74 2282.99 1464.01 Q2283.89 1462.25 2283.89 1460.56 Q2283.89 1457.8 2281.95 1456.07 Q2280.02 1454.33 2276.92 1454.33 Q2274.72 1454.33 2272.27 1455.09 Q2269.84 1455.86 2267.06 1457.41 L2267.06 1452.69 Q2269.88 1451.55 2272.34 1450.97 Q2274.79 1450.39 2276.83 1450.39 Q2282.2 1450.39 2285.39 1453.08 Q2288.59 1455.77 2288.59 1460.26 Q2288.59 1462.39 2287.78 1464.31 Q2286.99 1466.2 2284.88 1468.8 Q2284.31 1469.47 2281.2 1472.69 Q2278.1 1475.88 2272.45 1481.64 Z" fill="#000000" fill-rule="nonzero" fill-opacity="1" /><path clip-path="url(#clip200)" d="M2308.59 1454.1 Q2304.98 1454.1 2303.15 1457.66 Q2301.34 1461.2 2301.34 1468.33 Q2301.34 1475.44 2303.15 1479.01 Q2304.98 1482.55 2308.59 1482.55 Q2312.22 1482.55 2314.03 1479.01 Q2315.86 1475.44 2315.86 1468.33 Q2315.86 1461.2 2314.03 1457.66 Q2312.22 1454.1 2308.59 1454.1 M2308.59 1450.39 Q2314.4 1450.39 2317.45 1455 Q2320.53 1459.58 2320.53 1468.33 Q2320.53 1477.06 2317.45 1481.67 Q2314.4 1486.25 2308.59 1486.25 Q2302.78 1486.25 2299.7 1481.67 Q2296.64 1477.06 2296.64 1468.33 Q2296.64 1459.58 2299.7 1455 Q2302.78 1450.39 2308.59 1450.39 Z" fill="#000000" fill-rule="nonzero" fill-opacity="1" /><path clip-path="url(#clip200)" d="M1176.82 1520.52 L1183.25 1520.52 L1183.25 1568.04 L1176.82 1568.04 L1176.82 1520.52 Z" fill="#000000" fill-rule="nonzero" fill-opacity="1" /><path clip-path="url(#clip200)" d="M1201.58 1522.27 L1201.58 1532.4 L1213.65 1532.4 L1213.65 1536.95 L1201.58 1536.95 L1201.58 1556.3 Q1201.58 1560.66 1202.76 1561.9 Q1203.97 1563.14 1207.63 1563.14 L1213.65 1563.14 L1213.65 1568.04 L1207.63 1568.04 Q1200.85 1568.04 1198.27 1565.53 Q1195.7 1562.98 1195.7 1556.3 L1195.7 1536.95 L1191.4 1536.95 L1191.4 1532.4 L1195.7 1532.4 L1195.7 1522.27 L1201.58 1522.27 Z" fill="#000000" fill-rule="nonzero" fill-opacity="1" /><path clip-path="url(#clip200)" d="M1251.84 1548.76 L1251.84 1551.62 L1224.91 1551.62 Q1225.3 1557.67 1228.54 1560.85 Q1231.82 1564 1237.65 1564 Q1241.02 1564 1244.17 1563.17 Q1247.35 1562.35 1250.47 1560.69 L1250.47 1566.23 Q1247.32 1567.57 1244.01 1568.27 Q1240.7 1568.97 1237.3 1568.97 Q1228.77 1568.97 1223.77 1564 Q1218.8 1559.04 1218.8 1550.57 Q1218.8 1541.82 1223.51 1536.69 Q1228.26 1531.54 1236.28 1531.54 Q1243.47 1531.54 1247.64 1536.18 Q1251.84 1540.8 1251.84 1548.76 M1245.98 1547.04 Q1245.92 1542.23 1243.28 1539.37 Q1240.67 1536.5 1236.34 1536.5 Q1231.44 1536.5 1228.48 1539.27 Q1225.55 1542.04 1225.1 1547.07 L1245.98 1547.04 Z" fill="#000000" fill-rule="nonzero" fill-opacity="1" /><path clip-path="url(#clip200)" d="M1282.11 1537.87 Q1281.12 1537.3 1279.95 1537.04 Q1278.8 1536.76 1277.4 1536.76 Q1272.43 1536.76 1269.76 1540 Q1267.12 1543.22 1267.12 1549.27 L1267.12 1568.04 L1261.23 1568.04 L1261.23 1532.4 L1267.12 1532.4 L1267.12 1537.93 Q1268.96 1534.69 1271.92 1533.13 Q1274.88 1531.54 1279.12 1531.54 Q1279.72 1531.54 1280.45 1531.63 Q1281.19 1531.7 1282.08 1531.85 L1282.11 1537.87 Z" fill="#000000" fill-rule="nonzero" fill-opacity="1" /><path clip-path="url(#clip200)" d="M1304.45 1550.12 Q1297.36 1550.12 1294.62 1551.75 Q1291.88 1553.37 1291.88 1557.29 Q1291.88 1560.4 1293.92 1562.25 Q1295.99 1564.07 1299.52 1564.07 Q1304.39 1564.07 1307.32 1560.63 Q1310.28 1557.16 1310.28 1551.43 L1310.28 1550.12 L1304.45 1550.12 M1316.13 1547.71 L1316.13 1568.04 L1310.28 1568.04 L1310.28 1562.63 Q1308.27 1565.88 1305.28 1567.44 Q1302.29 1568.97 1297.96 1568.97 Q1292.49 1568.97 1289.24 1565.91 Q1286.02 1562.82 1286.02 1557.67 Q1286.02 1551.65 1290.04 1548.6 Q1294.08 1545.54 1302.07 1545.54 L1310.28 1545.54 L1310.28 1544.97 Q1310.28 1540.93 1307.6 1538.73 Q1304.96 1536.5 1300.16 1536.5 Q1297.1 1536.5 1294.2 1537.23 Q1291.31 1537.97 1288.63 1539.43 L1288.63 1534.02 Q1291.85 1532.78 1294.87 1532.17 Q1297.9 1531.54 1300.76 1531.54 Q1308.5 1531.54 1312.31 1535.55 Q1316.13 1539.56 1316.13 1547.71 Z" fill="#000000" fill-rule="nonzero" fill-opacity="1" /><path clip-path="url(#clip200)" d="M1333.99 1522.27 L1333.99 1532.4 L1346.05 1532.4 L1346.05 1536.95 L1333.99 1536.95 L1333.99 1556.3 Q1333.99 1560.66 1335.17 1561.9 Q1336.38 1563.14 1340.04 1563.14 L1346.05 1563.14 L1346.05 1568.04 L1340.04 1568.04 Q1333.26 1568.04 1330.68 1565.53 Q1328.1 1562.98 1328.1 1556.3 L1328.1 1536.95 L1323.81 1536.95 L1323.81 1532.4 L1328.1 1532.4 L1328.1 1522.27 L1333.99 1522.27 Z" fill="#000000" fill-rule="nonzero" fill-opacity="1" /><path clip-path="url(#clip200)" d="M1353.76 1532.4 L1359.61 1532.4 L1359.61 1568.04 L1353.76 1568.04 L1353.76 1532.4 M1353.76 1518.52 L1359.61 1518.52 L1359.61 1525.93 L1353.76 1525.93 L1353.76 1518.52 Z" fill="#000000" fill-rule="nonzero" fill-opacity="1" /><path clip-path="url(#clip200)" d="M1385.68 1536.5 Q1380.97 1536.5 1378.23 1540.19 Q1375.49 1543.85 1375.49 1550.25 Q1375.49 1556.65 1378.2 1560.34 Q1380.94 1564 1385.68 1564 Q1390.36 1564 1393.1 1560.31 Q1395.83 1556.62 1395.83 1550.25 Q1395.83 1543.92 1393.1 1540.23 Q1390.36 1536.5 1385.68 1536.5 M1385.68 1531.54 Q1393.32 1531.54 1397.68 1536.5 Q1402.04 1541.47 1402.04 1550.25 Q1402.04 1559 1397.68 1564 Q1393.32 1568.97 1385.68 1568.97 Q1378.01 1568.97 1373.65 1564 Q1369.32 1559 1369.32 1550.25 Q1369.32 1541.47 1373.65 1536.5 Q1378.01 1531.54 1385.68 1531.54 Z" fill="#000000" fill-rule="nonzero" fill-opacity="1" /><path clip-path="url(#clip200)" d="M1441.38 1546.53 L1441.38 1568.04 L1435.52 1568.04 L1435.52 1546.72 Q1435.52 1541.66 1433.55 1539.14 Q1431.58 1536.63 1427.63 1536.63 Q1422.89 1536.63 1420.15 1539.65 Q1417.41 1542.68 1417.41 1547.9 L1417.41 1568.04 L1411.52 1568.04 L1411.52 1532.4 L1417.41 1532.4 L1417.41 1537.93 Q1419.51 1534.72 1422.35 1533.13 Q1425.21 1531.54 1428.93 1531.54 Q1435.08 1531.54 1438.23 1535.36 Q1441.38 1539.14 1441.38 1546.53 Z" fill="#000000" fill-rule="nonzero" fill-opacity="1" /><polyline clip-path="url(#clip200)" style="stroke:#000000; stroke-linecap:round; stroke-linejoin:round; stroke-width:4; stroke-opacity:1; fill:none" points="265.445,1423.18 265.445,123.472 "/>
<polyline clip-path="url(#clip200)" style="stroke:#000000; stroke-linecap:round; stroke-linejoin:round; stroke-width:4; stroke-opacity:1; fill:none" points="265.445,1141.49 284.342,1141.49 "/>
<polyline clip-path="url(#clip200)" style="stroke:#000000; stroke-linecap:round; stroke-linejoin:round; stroke-width:4; stroke-opacity:1; fill:none" points="265.445,840.813 284.342,840.813 "/>
<polyline clip-path="url(#clip200)" style="stroke:#000000; stroke-linecap:round; stroke-linejoin:round; stroke-width:4; stroke-opacity:1; fill:none" points="265.445,540.137 284.342,540.137 "/>
<polyline clip-path="url(#clip200)" style="stroke:#000000; stroke-linecap:round; stroke-linejoin:round; stroke-width:4; stroke-opacity:1; fill:none" points="265.445,239.461 284.342,239.461 "/>
<path clip-path="url(#clip200)" d="M121.043 1154.83 L137.362 1154.83 L137.362 1158.77 L115.418 1158.77 L115.418 1154.83 Q118.08 1152.08 122.663 1147.45 Q127.269 1142.8 128.45 1141.46 Q130.695 1138.93 131.575 1137.2 Q132.478 1135.44 132.478 1133.75 Q132.478 1130.99 130.533 1129.26 Q128.612 1127.52 125.51 1127.52 Q123.311 1127.52 120.857 1128.28 Q118.427 1129.05 115.649 1130.6 L115.649 1125.88 Q118.473 1124.74 120.927 1124.16 Q123.38 1123.58 125.418 1123.58 Q130.788 1123.58 133.982 1126.27 Q137.177 1128.96 137.177 1133.45 Q137.177 1135.58 136.367 1137.5 Q135.579 1139.39 133.473 1141.99 Q132.894 1142.66 129.792 1145.88 Q126.691 1149.07 121.043 1154.83 Z" fill="#000000" fill-rule="nonzero" fill-opacity="1" /><path clip-path="url(#clip200)" d="M157.177 1127.29 Q153.566 1127.29 151.737 1130.85 Q149.931 1134.39 149.931 1141.52 Q149.931 1148.63 151.737 1152.2 Q153.566 1155.74 157.177 1155.74 Q160.811 1155.74 162.616 1152.2 Q164.445 1148.63 164.445 1141.52 Q164.445 1134.39 162.616 1130.85 Q160.811 1127.29 157.177 1127.29 M157.177 1123.58 Q162.987 1123.58 166.042 1128.19 Q169.121 1132.77 169.121 1141.52 Q169.121 1150.25 166.042 1154.86 Q162.987 1159.44 157.177 1159.44 Q151.366 1159.44 148.288 1154.86 Q145.232 1150.25 145.232 1141.52 Q145.232 1132.77 148.288 1128.19 Q151.366 1123.58 157.177 1123.58 Z" fill="#000000" fill-rule="nonzero" fill-opacity="1" /><path clip-path="url(#clip200)" d="M187.338 1127.29 Q183.727 1127.29 181.899 1130.85 Q180.093 1134.39 180.093 1141.52 Q180.093 1148.63 181.899 1152.2 Q183.727 1155.74 187.338 1155.74 Q190.973 1155.74 192.778 1152.2 Q194.607 1148.63 194.607 1141.52 Q194.607 1134.39 192.778 1130.85 Q190.973 1127.29 187.338 1127.29 M187.338 1123.58 Q193.149 1123.58 196.204 1128.19 Q199.283 1132.77 199.283 1141.52 Q199.283 1150.25 196.204 1154.86 Q193.149 1159.44 187.338 1159.44 Q181.528 1159.44 178.45 1154.86 Q175.394 1150.25 175.394 1141.52 Q175.394 1132.77 178.45 1128.19 Q181.528 1123.58 187.338 1123.58 Z" fill="#000000" fill-rule="nonzero" fill-opacity="1" /><path clip-path="url(#clip200)" d="M217.5 1127.29 Q213.889 1127.29 212.061 1130.85 Q210.255 1134.39 210.255 1141.52 Q210.255 1148.63 212.061 1152.2 Q213.889 1155.74 217.5 1155.74 Q221.135 1155.74 222.94 1152.2 Q224.769 1148.63 224.769 1141.52 Q224.769 1134.39 222.94 1130.85 Q221.135 1127.29 217.5 1127.29 M217.5 1123.58 Q223.31 1123.58 226.366 1128.19 Q229.445 1132.77 229.445 1141.52 Q229.445 1150.25 226.366 1154.86 Q223.31 1159.44 217.5 1159.44 Q211.69 1159.44 208.612 1154.86 Q205.556 1150.25 205.556 1141.52 Q205.556 1132.77 208.612 1128.19 Q211.69 1123.58 217.5 1123.58 Z" fill="#000000" fill-rule="nonzero" fill-opacity="1" /><path clip-path="url(#clip200)" d="M129.862 827.608 L118.056 846.057 L129.862 846.057 L129.862 827.608 M128.635 823.533 L134.515 823.533 L134.515 846.057 L139.445 846.057 L139.445 849.945 L134.515 849.945 L134.515 858.093 L129.862 858.093 L129.862 849.945 L114.26 849.945 L114.26 845.432 L128.635 823.533 Z" fill="#000000" fill-rule="nonzero" fill-opacity="1" /><path clip-path="url(#clip200)" d="M157.177 826.612 Q153.566 826.612 151.737 830.177 Q149.931 833.719 149.931 840.848 Q149.931 847.955 151.737 851.519 Q153.566 855.061 157.177 855.061 Q160.811 855.061 162.616 851.519 Q164.445 847.955 164.445 840.848 Q164.445 833.719 162.616 830.177 Q160.811 826.612 157.177 826.612 M157.177 822.908 Q162.987 822.908 166.042 827.515 Q169.121 832.098 169.121 840.848 Q169.121 849.575 166.042 854.181 Q162.987 858.765 157.177 858.765 Q151.366 858.765 148.288 854.181 Q145.232 849.575 145.232 840.848 Q145.232 832.098 148.288 827.515 Q151.366 822.908 157.177 822.908 Z" fill="#000000" fill-rule="nonzero" fill-opacity="1" /><path clip-path="url(#clip200)" d="M187.338 826.612 Q183.727 826.612 181.899 830.177 Q180.093 833.719 180.093 840.848 Q180.093 847.955 181.899 851.519 Q183.727 855.061 187.338 855.061 Q190.973 855.061 192.778 851.519 Q194.607 847.955 194.607 840.848 Q194.607 833.719 192.778 830.177 Q190.973 826.612 187.338 826.612 M187.338 822.908 Q193.149 822.908 196.204 827.515 Q199.283 832.098 199.283 840.848 Q199.283 849.575 196.204 854.181 Q193.149 858.765 187.338 858.765 Q181.528 858.765 178.45 854.181 Q175.394 849.575 175.394 840.848 Q175.394 832.098 178.45 827.515 Q181.528 822.908 187.338 822.908 Z" fill="#000000" fill-rule="nonzero" fill-opacity="1" /><path clip-path="url(#clip200)" d="M217.5 826.612 Q213.889 826.612 212.061 830.177 Q210.255 833.719 210.255 840.848 Q210.255 847.955 212.061 851.519 Q213.889 855.061 217.5 855.061 Q221.135 855.061 222.94 851.519 Q224.769 847.955 224.769 840.848 Q224.769 833.719 222.94 830.177 Q221.135 826.612 217.5 826.612 M217.5 822.908 Q223.31 822.908 226.366 827.515 Q229.445 832.098 229.445 840.848 Q229.445 849.575 226.366 854.181 Q223.31 858.765 217.5 858.765 Q211.69 858.765 208.612 854.181 Q205.556 849.575 205.556 840.848 Q205.556 832.098 208.612 827.515 Q211.69 822.908 217.5 822.908 Z" fill="#000000" fill-rule="nonzero" fill-opacity="1" /><path clip-path="url(#clip200)" d="M127.593 538.274 Q124.445 538.274 122.593 540.427 Q120.765 542.579 120.765 546.329 Q120.765 550.056 122.593 552.232 Q124.445 554.385 127.593 554.385 Q130.742 554.385 132.57 552.232 Q134.422 550.056 134.422 546.329 Q134.422 542.579 132.57 540.427 Q130.742 538.274 127.593 538.274 M136.876 523.621 L136.876 527.88 Q135.117 527.047 133.311 526.607 Q131.529 526.167 129.769 526.167 Q125.14 526.167 122.686 529.292 Q120.255 532.417 119.908 538.737 Q121.274 536.723 123.334 535.658 Q125.394 534.57 127.871 534.57 Q133.08 534.57 136.089 537.741 Q139.121 540.89 139.121 546.329 Q139.121 551.653 135.973 554.871 Q132.825 558.089 127.593 558.089 Q121.598 558.089 118.427 553.505 Q115.256 548.899 115.256 540.172 Q115.256 531.978 119.144 527.116 Q123.033 522.232 129.584 522.232 Q131.343 522.232 133.126 522.579 Q134.931 522.927 136.876 523.621 Z" fill="#000000" fill-rule="nonzero" fill-opacity="1" /><path clip-path="url(#clip200)" d="M157.177 525.936 Q153.566 525.936 151.737 529.501 Q149.931 533.042 149.931 540.172 Q149.931 547.278 151.737 550.843 Q153.566 554.385 157.177 554.385 Q160.811 554.385 162.616 550.843 Q164.445 547.278 164.445 540.172 Q164.445 533.042 162.616 529.501 Q160.811 525.936 157.177 525.936 M157.177 522.232 Q162.987 522.232 166.042 526.839 Q169.121 531.422 169.121 540.172 Q169.121 548.899 166.042 553.505 Q162.987 558.089 157.177 558.089 Q151.366 558.089 148.288 553.505 Q145.232 548.899 145.232 540.172 Q145.232 531.422 148.288 526.839 Q151.366 522.232 157.177 522.232 Z" fill="#000000" fill-rule="nonzero" fill-opacity="1" /><path clip-path="url(#clip200)" d="M187.338 525.936 Q183.727 525.936 181.899 529.501 Q180.093 533.042 180.093 540.172 Q180.093 547.278 181.899 550.843 Q183.727 554.385 187.338 554.385 Q190.973 554.385 192.778 550.843 Q194.607 547.278 194.607 540.172 Q194.607 533.042 192.778 529.501 Q190.973 525.936 187.338 525.936 M187.338 522.232 Q193.149 522.232 196.204 526.839 Q199.283 531.422 199.283 540.172 Q199.283 548.899 196.204 553.505 Q193.149 558.089 187.338 558.089 Q181.528 558.089 178.45 553.505 Q175.394 548.899 175.394 540.172 Q175.394 531.422 178.45 526.839 Q181.528 522.232 187.338 522.232 Z" fill="#000000" fill-rule="nonzero" fill-opacity="1" /><path clip-path="url(#clip200)" d="M217.5 525.936 Q213.889 525.936 212.061 529.501 Q210.255 533.042 210.255 540.172 Q210.255 547.278 212.061 550.843 Q213.889 554.385 217.5 554.385 Q221.135 554.385 222.94 550.843 Q224.769 547.278 224.769 540.172 Q224.769 533.042 222.94 529.501 Q221.135 525.936 217.5 525.936 M217.5 522.232 Q223.31 522.232 226.366 526.839 Q229.445 531.422 229.445 540.172 Q229.445 548.899 226.366 553.505 Q223.31 558.089 217.5 558.089 Q211.69 558.089 208.612 553.505 Q205.556 548.899 205.556 540.172 Q205.556 531.422 208.612 526.839 Q211.69 522.232 217.5 522.232 Z" fill="#000000" fill-rule="nonzero" fill-opacity="1" /><path clip-path="url(#clip200)" d="M127.015 240.329 Q123.681 240.329 121.76 242.111 Q119.862 243.894 119.862 247.019 Q119.862 250.144 121.76 251.926 Q123.681 253.709 127.015 253.709 Q130.348 253.709 132.269 251.926 Q134.191 250.121 134.191 247.019 Q134.191 243.894 132.269 242.111 Q130.371 240.329 127.015 240.329 M122.339 238.338 Q119.33 237.598 117.64 235.537 Q115.973 233.477 115.973 230.514 Q115.973 226.371 118.913 223.963 Q121.876 221.556 127.015 221.556 Q132.177 221.556 135.117 223.963 Q138.056 226.371 138.056 230.514 Q138.056 233.477 136.367 235.537 Q134.7 237.598 131.714 238.338 Q135.093 239.125 136.968 241.417 Q138.867 243.709 138.867 247.019 Q138.867 252.042 135.788 254.727 Q132.732 257.412 127.015 257.412 Q121.297 257.412 118.218 254.727 Q115.163 252.042 115.163 247.019 Q115.163 243.709 117.061 241.417 Q118.959 239.125 122.339 238.338 M120.626 230.954 Q120.626 233.639 122.293 235.144 Q123.982 236.648 127.015 236.648 Q130.024 236.648 131.714 235.144 Q133.427 233.639 133.427 230.954 Q133.427 228.269 131.714 226.764 Q130.024 225.26 127.015 225.26 Q123.982 225.26 122.293 226.764 Q120.626 228.269 120.626 230.954 Z" fill="#000000" fill-rule="nonzero" fill-opacity="1" /><path clip-path="url(#clip200)" d="M157.177 225.26 Q153.566 225.26 151.737 228.824 Q149.931 232.366 149.931 239.496 Q149.931 246.602 151.737 250.167 Q153.566 253.709 157.177 253.709 Q160.811 253.709 162.616 250.167 Q164.445 246.602 164.445 239.496 Q164.445 232.366 162.616 228.824 Q160.811 225.26 157.177 225.26 M157.177 221.556 Q162.987 221.556 166.042 226.162 Q169.121 230.746 169.121 239.496 Q169.121 248.222 166.042 252.829 Q162.987 257.412 157.177 257.412 Q151.366 257.412 148.288 252.829 Q145.232 248.222 145.232 239.496 Q145.232 230.746 148.288 226.162 Q151.366 221.556 157.177 221.556 Z" fill="#000000" fill-rule="nonzero" fill-opacity="1" /><path clip-path="url(#clip200)" d="M187.338 225.26 Q183.727 225.26 181.899 228.824 Q180.093 232.366 180.093 239.496 Q180.093 246.602 181.899 250.167 Q183.727 253.709 187.338 253.709 Q190.973 253.709 192.778 250.167 Q194.607 246.602 194.607 239.496 Q194.607 232.366 192.778 228.824 Q190.973 225.26 187.338 225.26 M187.338 221.556 Q193.149 221.556 196.204 226.162 Q199.283 230.746 199.283 239.496 Q199.283 248.222 196.204 252.829 Q193.149 257.412 187.338 257.412 Q181.528 257.412 178.45 252.829 Q175.394 248.222 175.394 239.496 Q175.394 230.746 178.45 226.162 Q181.528 221.556 187.338 221.556 Z" fill="#000000" fill-rule="nonzero" fill-opacity="1" /><path clip-path="url(#clip200)" d="M217.5 225.26 Q213.889 225.26 212.061 228.824 Q210.255 232.366 210.255 239.496 Q210.255 246.602 212.061 250.167 Q213.889 253.709 217.5 253.709 Q221.135 253.709 222.94 250.167 Q224.769 246.602 224.769 239.496 Q224.769 232.366 222.94 228.824 Q221.135 225.26 217.5 225.26 M217.5 221.556 Q223.31 221.556 226.366 226.162 Q229.445 230.746 229.445 239.496 Q229.445 248.222 226.366 252.829 Q223.31 257.412 217.5 257.412 Q211.69 257.412 208.612 252.829 Q205.556 248.222 205.556 239.496 Q205.556 230.746 208.612 226.162 Q211.69 221.556 217.5 221.556 Z" fill="#000000" fill-rule="nonzero" fill-opacity="1" /><path clip-path="url(#clip200)" d="M16.4842 1066.59 L16.4842 1039.29 L21.895 1039.29 L21.895 1060.16 L35.8996 1060.16 L35.8996 1041.32 L41.3104 1041.32 L41.3104 1060.16 L64.0042 1060.16 L64.0042 1066.59 L16.4842 1066.59 Z" fill="#000000" fill-rule="nonzero" fill-opacity="1" /><path clip-path="url(#clip200)" d="M33.8307 1013.44 Q33.2578 1014.43 33.0032 1015.6 Q32.7167 1016.75 32.7167 1018.15 Q32.7167 1023.12 35.9632 1025.79 Q39.1779 1028.43 45.2253 1028.43 L64.0042 1028.43 L64.0042 1034.32 L28.3562 1034.32 L28.3562 1028.43 L33.8944 1028.43 Q30.6479 1026.59 29.0883 1023.63 Q27.4968 1020.67 27.4968 1016.43 Q27.4968 1015.83 27.5923 1015.1 Q27.656 1014.36 27.8151 1013.47 L33.8307 1013.44 Z" fill="#000000" fill-rule="nonzero" fill-opacity="1" /><path clip-path="url(#clip200)" d="M44.7161 978.238 L47.5806 978.238 L47.5806 1005.17 Q53.6281 1004.78 56.8109 1001.54 Q59.9619 998.258 59.9619 992.434 Q59.9619 989.06 59.1344 985.909 Q58.3069 982.726 56.6518 979.607 L62.1899 979.607 Q63.5267 982.758 64.227 986.068 Q64.9272 989.378 64.9272 992.784 Q64.9272 1001.31 59.9619 1006.31 Q54.9967 1011.28 46.5303 1011.28 Q37.7774 1011.28 32.6531 1006.57 Q27.4968 1001.82 27.4968 993.802 Q27.4968 986.609 32.1438 982.439 Q36.7589 978.238 44.7161 978.238 M42.9973 984.095 Q38.1912 984.158 35.3266 986.8 Q32.4621 989.41 32.4621 993.739 Q32.4621 998.64 35.2312 1001.6 Q38.0002 1004.53 43.0292 1004.97 L42.9973 984.095 Z" fill="#000000" fill-rule="nonzero" fill-opacity="1" /><path clip-path="url(#clip200)" d="M44.7161 938.134 L47.5806 938.134 L47.5806 965.061 Q53.6281 964.679 56.8109 961.433 Q59.9619 958.154 59.9619 952.33 Q59.9619 948.956 59.1344 945.805 Q58.3069 942.622 56.6518 939.503 L62.1899 939.503 Q63.5267 942.654 64.227 945.964 Q64.9272 949.274 64.9272 952.68 Q64.9272 961.21 59.9619 966.207 Q54.9967 971.172 46.5303 971.172 Q37.7774 971.172 32.6531 966.462 Q27.4968 961.719 27.4968 953.698 Q27.4968 946.505 32.1438 942.335 Q36.7589 938.134 44.7161 938.134 M42.9973 943.991 Q38.1912 944.054 35.3266 946.696 Q32.4621 949.306 32.4621 953.635 Q32.4621 958.536 35.2312 961.496 Q38.0002 964.424 43.0292 964.87 L42.9973 943.991 Z" fill="#000000" fill-rule="nonzero" fill-opacity="1" /><path clip-path="url(#clip200)" d="M44.7161 877.31 L47.5806 877.31 L47.5806 904.237 Q53.6281 903.855 56.8109 900.608 Q59.9619 897.33 59.9619 891.505 Q59.9619 888.132 59.1344 884.98 Q58.3069 881.798 56.6518 878.678 L62.1899 878.678 Q63.5267 881.829 64.227 885.14 Q64.9272 888.45 64.9272 891.855 Q64.9272 900.385 59.9619 905.383 Q54.9967 910.348 46.5303 910.348 Q37.7774 910.348 32.6531 905.637 Q27.4968 900.895 27.4968 892.874 Q27.4968 885.681 32.1438 881.511 Q36.7589 877.31 44.7161 877.31 M42.9973 883.166 Q38.1912 883.23 35.3266 885.872 Q32.4621 888.482 32.4621 892.81 Q32.4621 897.712 35.2312 900.672 Q38.0002 903.6 43.0292 904.046 L42.9973 883.166 Z" fill="#000000" fill-rule="nonzero" fill-opacity="1" /><path clip-path="url(#clip200)" d="M42.4881 838.065 L64.0042 838.065 L64.0042 843.922 L42.679 843.922 Q37.6183 843.922 35.1038 845.895 Q32.5894 847.868 32.5894 851.815 Q32.5894 856.558 35.6131 859.295 Q38.6368 862.032 43.8567 862.032 L64.0042 862.032 L64.0042 867.92 L28.3562 867.92 L28.3562 862.032 L33.8944 862.032 Q30.6797 859.931 29.0883 857.099 Q27.4968 854.234 27.4968 850.51 Q27.4968 844.367 31.3163 841.216 Q35.1038 838.065 42.4881 838.065 Z" fill="#000000" fill-rule="nonzero" fill-opacity="1" /><path clip-path="url(#clip200)" d="M44.7161 795.892 L47.5806 795.892 L47.5806 822.819 Q53.6281 822.437 56.8109 819.191 Q59.9619 815.913 59.9619 810.088 Q59.9619 806.714 59.1344 803.563 Q58.3069 800.38 56.6518 797.261 L62.1899 797.261 Q63.5267 800.412 64.227 803.722 Q64.9272 807.032 64.9272 810.438 Q64.9272 818.968 59.9619 823.965 Q54.9967 828.93 46.5303 828.93 Q37.7774 828.93 32.6531 824.22 Q27.4968 819.477 27.4968 811.457 Q27.4968 804.263 32.1438 800.094 Q36.7589 795.892 44.7161 795.892 M42.9973 801.749 Q38.1912 801.813 35.3266 804.454 Q32.4621 807.064 32.4621 811.393 Q32.4621 816.295 35.2312 819.255 Q38.0002 822.183 43.0292 822.628 L42.9973 801.749 Z" fill="#000000" fill-rule="nonzero" fill-opacity="1" /><path clip-path="url(#clip200)" d="M33.8307 765.623 Q33.2578 766.61 33.0032 767.788 Q32.7167 768.934 32.7167 770.334 Q32.7167 775.299 35.9632 777.973 Q39.1779 780.615 45.2253 780.615 L64.0042 780.615 L64.0042 786.503 L28.3562 786.503 L28.3562 780.615 L33.8944 780.615 Q30.6479 778.769 29.0883 775.809 Q27.4968 772.849 27.4968 768.615 Q27.4968 768.011 27.5923 767.279 Q27.656 766.547 27.8151 765.655 L33.8307 765.623 Z" fill="#000000" fill-rule="nonzero" fill-opacity="1" /><path clip-path="url(#clip200)" d="M45.7664 737.169 Q39.4007 737.169 35.8996 739.811 Q32.3984 742.42 32.3984 747.163 Q32.3984 751.874 35.8996 754.515 Q39.4007 757.125 45.7664 757.125 Q52.1003 757.125 55.6014 754.515 Q59.1026 751.874 59.1026 747.163 Q59.1026 742.42 55.6014 739.811 Q52.1003 737.169 45.7664 737.169 M59.58 731.312 Q68.683 731.312 73.1071 735.355 Q77.5631 739.397 77.5631 747.736 Q77.5631 750.823 77.0857 753.56 Q76.6401 756.298 75.6852 758.876 L69.9879 758.876 Q71.3884 756.298 72.0568 753.783 Q72.7252 751.269 72.7252 748.659 Q72.7252 742.898 69.7015 740.033 Q66.7096 737.169 60.6303 737.169 L57.7339 737.169 Q60.885 738.983 62.4446 741.816 Q64.0042 744.648 64.0042 748.595 Q64.0042 755.152 59.0071 759.162 Q54.01 763.173 45.7664 763.173 Q37.491 763.173 32.4939 759.162 Q27.4968 755.152 27.4968 748.595 Q27.4968 744.648 29.0564 741.816 Q30.616 738.983 33.7671 737.169 L28.3562 737.169 L28.3562 731.312 L59.58 731.312 Z" fill="#000000" fill-rule="nonzero" fill-opacity="1" /><path clip-path="url(#clip200)" d="M67.3143 704.417 Q73.68 706.9 75.6216 709.255 Q77.5631 711.61 77.5631 715.557 L77.5631 720.236 L72.6615 720.236 L72.6615 716.799 Q72.6615 714.38 71.5157 713.043 Q70.3699 711.706 66.1048 710.083 L63.4312 709.032 L28.3562 723.451 L28.3562 717.244 L56.238 706.104 L28.3562 694.964 L28.3562 688.758 L67.3143 704.417 Z" fill="#000000" fill-rule="nonzero" fill-opacity="1" /><path clip-path="url(#clip200)" d="M14.479 660.494 L14.479 646.999 L19.0304 646.999 L19.0304 654.637 L68.0464 654.637 L68.0464 646.999 L72.5979 646.999 L72.5979 660.494 L14.479 660.494 Z" fill="#000000" fill-rule="nonzero" fill-opacity="1" /><path clip-path="url(#clip200)" d="M42.4881 604.889 L64.0042 604.889 L64.0042 610.746 L42.679 610.746 Q37.6183 610.746 35.1038 612.719 Q32.5894 614.693 32.5894 618.639 Q32.5894 623.382 35.6131 626.119 Q38.6368 628.856 43.8567 628.856 L64.0042 628.856 L64.0042 634.745 L28.3562 634.745 L28.3562 628.856 L33.8944 628.856 Q30.6797 626.756 29.0883 623.923 Q27.4968 621.058 27.4968 617.334 Q27.4968 611.191 31.3163 608.04 Q35.1038 604.889 42.4881 604.889 Z" fill="#000000" fill-rule="nonzero" fill-opacity="1" /><path clip-path="url(#clip200)" d="M46.0847 577.008 Q46.0847 584.105 47.7079 586.843 Q49.3312 589.58 53.2461 589.58 Q56.3653 589.58 58.2114 587.543 Q60.0256 585.474 60.0256 581.941 Q60.0256 577.071 56.5881 574.143 Q53.1188 571.183 47.3897 571.183 L46.0847 571.183 L46.0847 577.008 M43.6657 565.327 L64.0042 565.327 L64.0042 571.183 L58.5933 571.183 Q61.8398 573.188 63.3994 576.18 Q64.9272 579.172 64.9272 583.501 Q64.9272 588.975 61.8716 592.222 Q58.7843 595.436 53.6281 595.436 Q47.6125 595.436 44.5569 591.426 Q41.5014 587.384 41.5014 579.395 L41.5014 571.183 L40.9285 571.183 Q36.8862 571.183 34.6901 573.857 Q32.4621 576.498 32.4621 581.304 Q32.4621 584.36 33.1941 587.256 Q33.9262 590.153 35.3903 592.826 L29.9795 592.826 Q28.7381 589.612 28.1334 586.588 Q27.4968 583.564 27.4968 580.7 Q27.4968 572.965 31.5072 569.146 Q35.5176 565.327 43.6657 565.327 Z" fill="#000000" fill-rule="nonzero" fill-opacity="1" /><path clip-path="url(#clip200)" d="M18.2347 547.471 L28.3562 547.471 L28.3562 535.408 L32.9077 535.408 L32.9077 547.471 L52.2594 547.471 Q56.6199 547.471 57.8613 546.293 Q59.1026 545.084 59.1026 541.423 L59.1026 535.408 L64.0042 535.408 L64.0042 541.423 Q64.0042 548.203 61.4897 550.781 Q58.9434 553.359 52.2594 553.359 L32.9077 553.359 L32.9077 557.656 L28.3562 557.656 L28.3562 553.359 L18.2347 553.359 L18.2347 547.471 Z" fill="#000000" fill-rule="nonzero" fill-opacity="1" /><path clip-path="url(#clip200)" d="M29.4065 504.98 L34.9447 504.98 Q33.6716 507.462 33.035 510.136 Q32.3984 512.809 32.3984 515.674 Q32.3984 520.035 33.7352 522.231 Q35.072 524.395 37.7456 524.395 Q39.7826 524.395 40.9603 522.835 Q42.1061 521.276 43.1565 516.565 L43.6021 514.56 Q44.9389 508.322 47.3897 505.712 Q49.8086 503.07 54.1691 503.07 Q59.1344 503.07 62.0308 507.017 Q64.9272 510.932 64.9272 517.807 Q64.9272 520.671 64.3543 523.79 Q63.8132 526.878 62.6992 530.315 L56.6518 530.315 Q58.3387 527.069 59.198 523.918 Q60.0256 520.767 60.0256 517.679 Q60.0256 513.541 58.6251 511.313 Q57.1929 509.086 54.6147 509.086 Q52.2276 509.086 50.9545 510.709 Q49.6813 512.3 48.5037 517.743 L48.0262 519.78 Q46.8804 525.223 44.5251 527.642 Q42.138 530.061 38.0002 530.061 Q32.9713 530.061 30.2341 526.496 Q27.4968 522.931 27.4968 516.374 Q27.4968 513.128 27.9743 510.263 Q28.4517 507.399 29.4065 504.98 Z" fill="#000000" fill-rule="nonzero" fill-opacity="1" /><path clip-path="url(#clip200)" d="M14.479 480.058 L72.5979 480.058 L72.5979 493.553 L68.0464 493.553 L68.0464 485.946 L19.0304 485.946 L19.0304 493.553 L14.479 493.553 L14.479 480.058 Z" fill="#000000" fill-rule="nonzero" fill-opacity="1" /><path clip-path="url(#clip200)" d="M1068.66 12.096 L1103.42 12.096 L1103.42 18.9825 L1076.84 18.9825 L1076.84 36.8065 L1100.82 36.8065 L1100.82 43.6931 L1076.84 43.6931 L1076.84 72.576 L1068.66 72.576 L1068.66 12.096 Z" fill="#000000" fill-rule="nonzero" fill-opacity="1" /><path clip-path="url(#clip200)" d="M1136.31 34.1734 Q1135.05 33.4443 1133.55 33.1202 Q1132.1 32.7556 1130.31 32.7556 Q1123.99 32.7556 1120.59 36.8875 Q1117.23 40.9789 1117.23 48.6757 L1117.23 72.576 L1109.74 72.576 L1109.74 27.2059 L1117.23 27.2059 L1117.23 34.2544 Q1119.58 30.1225 1123.35 28.1376 Q1127.11 26.1121 1132.5 26.1121 Q1133.27 26.1121 1134.2 26.2337 Q1135.13 26.3147 1136.27 26.5172 L1136.31 34.1734 Z" fill="#000000" fill-rule="nonzero" fill-opacity="1" /><path clip-path="url(#clip200)" d="M1181.11 48.0275 L1181.11 51.6733 L1146.84 51.6733 Q1147.33 59.3701 1151.46 63.421 Q1155.63 67.4314 1163.04 67.4314 Q1167.34 67.4314 1171.35 66.3781 Q1175.4 65.3249 1179.37 63.2184 L1179.37 70.267 Q1175.36 71.9684 1171.15 72.8596 Q1166.93 73.7508 1162.6 73.7508 Q1151.74 73.7508 1145.38 67.4314 Q1139.06 61.1119 1139.06 50.3365 Q1139.06 39.1965 1145.06 32.6746 Q1151.09 26.1121 1161.3 26.1121 Q1170.46 26.1121 1175.76 32.0264 Q1181.11 37.9003 1181.11 48.0275 M1173.66 45.84 Q1173.58 39.7232 1170.22 36.0774 Q1166.89 32.4315 1161.38 32.4315 Q1155.15 32.4315 1151.38 35.9558 Q1147.65 39.4801 1147.08 45.8805 L1173.66 45.84 Z" fill="#000000" fill-rule="nonzero" fill-opacity="1" /><path clip-path="url(#clip200)" d="M1232.15 48.0275 L1232.15 51.6733 L1197.88 51.6733 Q1198.37 59.3701 1202.5 63.421 Q1206.67 67.4314 1214.09 67.4314 Q1218.38 67.4314 1222.39 66.3781 Q1226.44 65.3249 1230.41 63.2184 L1230.41 70.267 Q1226.4 71.9684 1222.19 72.8596 Q1217.98 73.7508 1213.64 73.7508 Q1202.78 73.7508 1196.42 67.4314 Q1190.11 61.1119 1190.11 50.3365 Q1190.11 39.1965 1196.1 32.6746 Q1202.14 26.1121 1212.34 26.1121 Q1221.5 26.1121 1226.81 32.0264 Q1232.15 37.9003 1232.15 48.0275 M1224.7 45.84 Q1224.62 39.7232 1221.26 36.0774 Q1217.93 32.4315 1212.43 32.4315 Q1206.19 32.4315 1202.42 35.9558 Q1198.69 39.4801 1198.13 45.8805 L1224.7 45.84 Z" fill="#000000" fill-rule="nonzero" fill-opacity="1" /><path clip-path="url(#clip200)" d="M1309.57 48.0275 L1309.57 51.6733 L1275.3 51.6733 Q1275.78 59.3701 1279.91 63.421 Q1284.09 67.4314 1291.5 67.4314 Q1295.79 67.4314 1299.8 66.3781 Q1303.85 65.3249 1307.82 63.2184 L1307.82 70.267 Q1303.81 71.9684 1299.6 72.8596 Q1295.39 73.7508 1291.05 73.7508 Q1280.2 73.7508 1273.84 67.4314 Q1267.52 61.1119 1267.52 50.3365 Q1267.52 39.1965 1273.51 32.6746 Q1279.55 26.1121 1289.76 26.1121 Q1298.91 26.1121 1304.22 32.0264 Q1309.57 37.9003 1309.57 48.0275 M1302.11 45.84 Q1302.03 39.7232 1298.67 36.0774 Q1295.35 32.4315 1289.84 32.4315 Q1283.6 32.4315 1279.83 35.9558 Q1276.11 39.4801 1275.54 45.8805 L1302.11 45.84 Z" fill="#000000" fill-rule="nonzero" fill-opacity="1" /><path clip-path="url(#clip200)" d="M1359.51 45.1919 L1359.51 72.576 L1352.06 72.576 L1352.06 45.4349 Q1352.06 38.994 1349.55 35.7938 Q1347.04 32.5936 1342.01 32.5936 Q1335.98 32.5936 1332.49 36.4419 Q1329.01 40.2903 1329.01 46.9338 L1329.01 72.576 L1321.52 72.576 L1321.52 27.2059 L1329.01 27.2059 L1329.01 34.2544 Q1331.68 30.163 1335.29 28.1376 Q1338.94 26.1121 1343.67 26.1121 Q1351.49 26.1121 1355.5 30.9732 Q1359.51 35.7938 1359.51 45.1919 Z" fill="#000000" fill-rule="nonzero" fill-opacity="1" /><path clip-path="url(#clip200)" d="M1413.19 48.0275 L1413.19 51.6733 L1378.92 51.6733 Q1379.4 59.3701 1383.54 63.421 Q1387.71 67.4314 1395.12 67.4314 Q1399.42 67.4314 1403.43 66.3781 Q1407.48 65.3249 1411.45 63.2184 L1411.45 70.267 Q1407.44 71.9684 1403.22 72.8596 Q1399.01 73.7508 1394.68 73.7508 Q1383.82 73.7508 1377.46 67.4314 Q1371.14 61.1119 1371.14 50.3365 Q1371.14 39.1965 1377.14 32.6746 Q1383.17 26.1121 1393.38 26.1121 Q1402.53 26.1121 1407.84 32.0264 Q1413.19 37.9003 1413.19 48.0275 M1405.73 45.84 Q1405.65 39.7232 1402.29 36.0774 Q1398.97 32.4315 1393.46 32.4315 Q1387.22 32.4315 1383.45 35.9558 Q1379.73 39.4801 1379.16 45.8805 L1405.73 45.84 Z" fill="#000000" fill-rule="nonzero" fill-opacity="1" /><path clip-path="url(#clip200)" d="M1451.71 34.1734 Q1450.46 33.4443 1448.96 33.1202 Q1447.5 32.7556 1445.72 32.7556 Q1439.4 32.7556 1435.99 36.8875 Q1432.63 40.9789 1432.63 48.6757 L1432.63 72.576 L1425.14 72.576 L1425.14 27.2059 L1432.63 27.2059 L1432.63 34.2544 Q1434.98 30.1225 1438.75 28.1376 Q1442.52 26.1121 1447.9 26.1121 Q1448.67 26.1121 1449.61 26.2337 Q1450.54 26.3147 1451.67 26.5172 L1451.71 34.1734 Z" fill="#000000" fill-rule="nonzero" fill-opacity="1" /><path clip-path="url(#clip200)" d="M1487.93 49.3643 Q1487.93 41.2625 1484.57 36.8065 Q1481.24 32.3505 1475.21 32.3505 Q1469.21 32.3505 1465.85 36.8065 Q1462.53 41.2625 1462.53 49.3643 Q1462.53 57.4256 1465.85 61.8816 Q1469.21 66.3376 1475.21 66.3376 Q1481.24 66.3376 1484.57 61.8816 Q1487.93 57.4256 1487.93 49.3643 M1495.38 66.9452 Q1495.38 78.5308 1490.24 84.1616 Q1485.09 89.8329 1474.48 89.8329 Q1470.55 89.8329 1467.07 89.2252 Q1463.58 88.6581 1460.3 87.4428 L1460.3 80.1917 Q1463.58 81.9741 1466.78 82.8248 Q1469.98 83.6755 1473.3 83.6755 Q1480.64 83.6755 1484.28 79.8271 Q1487.93 76.0193 1487.93 68.282 L1487.93 64.5957 Q1485.62 68.6061 1482.01 70.5911 Q1478.41 72.576 1473.38 72.576 Q1465.04 72.576 1459.94 66.2161 Q1454.83 59.8562 1454.83 49.3643 Q1454.83 38.832 1459.94 32.472 Q1465.04 26.1121 1473.38 26.1121 Q1478.41 26.1121 1482.01 28.0971 Q1485.62 30.082 1487.93 34.0924 L1487.93 27.2059 L1495.38 27.2059 L1495.38 66.9452 Z" fill="#000000" fill-rule="nonzero" fill-opacity="1" /><path clip-path="url(#clip200)" d="M1529.61 76.7889 Q1526.45 84.8907 1523.45 87.3618 Q1520.46 89.8329 1515.43 89.8329 L1509.48 89.8329 L1509.48 83.5945 L1513.85 83.5945 Q1516.93 83.5945 1518.63 82.1361 Q1520.33 80.6778 1522.4 75.2496 L1523.74 71.8468 L1505.39 27.2059 L1513.29 27.2059 L1527.46 62.6918 L1541.64 27.2059 L1549.54 27.2059 L1529.61 76.7889 Z" fill="#000000" fill-rule="nonzero" fill-opacity="1" /><polyline clip-path="url(#clip202)" style="stroke:#009af9; stroke-linecap:round; stroke-linejoin:round; stroke-width:4; stroke-opacity:1; fill:none" points="324.52,160.256 433.917,696.425 543.315,998.816 652.713,1168.68 762.111,1264.1 871.509,1317.7 980.907,1347.81 1090.3,1364.73 1199.7,1374.24 1309.1,1379.58 1418.5,1382.58 1527.9,1384.27 1637.29,1385.21 1746.69,1385.75 1856.09,1386.05 1965.49,1386.22 2074.89,1386.31 2184.28,1386.37 2293.68,1386.4 "/>
</svg>
