<?xml version="1.0" encoding="utf-8"?>
<svg xmlns="http://www.w3.org/2000/svg" xmlns:xlink="http://www.w3.org/1999/xlink" width="600" height="400" viewBox="0 0 2400 1600">
<defs>
  <clipPath id="clip960">
    <rect x="0" y="0" width="2400" height="1600"/>
  </clipPath>
</defs>
<path clip-path="url(#clip960)" d="M0 1600 L2400 1600 L2400 0 L0 0  Z" fill="#ffffff" fill-rule="evenodd" fill-opacity="1"/>
<defs>
  <clipPath id="clip961">
    <rect x="480" y="0" width="1681" height="1600"/>
  </clipPath>
</defs>
<path clip-path="url(#clip960)" d="M209.029 1486.45 L2352.76 1486.45 L2352.76 47.2441 L209.029 47.2441  Z" fill="#ffffff" fill-rule="evenodd" fill-opacity="1"/>
<defs>
  <clipPath id="clip962">
    <rect x="209" y="47" width="2145" height="1440"/>
  </clipPath>
</defs>
<polyline clip-path="url(#clip962)" style="stroke:#000000; stroke-linecap:round; stroke-linejoin:round; stroke-width:2; stroke-opacity:0.1; fill:none" points="261.769,1486.45 261.769,47.2441 "/>
<polyline clip-path="url(#clip962)" style="stroke:#000000; stroke-linecap:round; stroke-linejoin:round; stroke-width:2; stroke-opacity:0.1; fill:none" points="658.315,1486.45 658.315,47.2441 "/>
<polyline clip-path="url(#clip962)" style="stroke:#000000; stroke-linecap:round; stroke-linejoin:round; stroke-width:2; stroke-opacity:0.1; fill:none" points="1054.86,1486.45 1054.86,47.2441 "/>
<polyline clip-path="url(#clip962)" style="stroke:#000000; stroke-linecap:round; stroke-linejoin:round; stroke-width:2; stroke-opacity:0.1; fill:none" points="1451.41,1486.45 1451.41,47.2441 "/>
<polyline clip-path="url(#clip962)" style="stroke:#000000; stroke-linecap:round; stroke-linejoin:round; stroke-width:2; stroke-opacity:0.1; fill:none" points="1847.95,1486.45 1847.95,47.2441 "/>
<polyline clip-path="url(#clip962)" style="stroke:#000000; stroke-linecap:round; stroke-linejoin:round; stroke-width:2; stroke-opacity:0.1; fill:none" points="2244.5,1486.45 2244.5,47.2441 "/>
<polyline clip-path="url(#clip962)" style="stroke:#000000; stroke-linecap:round; stroke-linejoin:round; stroke-width:2; stroke-opacity:0.1; fill:none" points="209.029,1440.76 2352.76,1440.76 "/>
<polyline clip-path="url(#clip962)" style="stroke:#000000; stroke-linecap:round; stroke-linejoin:round; stroke-width:2; stroke-opacity:0.1; fill:none" points="209.029,1116.44 2352.76,1116.44 "/>
<polyline clip-path="url(#clip962)" style="stroke:#000000; stroke-linecap:round; stroke-linejoin:round; stroke-width:2; stroke-opacity:0.1; fill:none" points="209.029,792.123 2352.76,792.123 "/>
<polyline clip-path="url(#clip962)" style="stroke:#000000; stroke-linecap:round; stroke-linejoin:round; stroke-width:2; stroke-opacity:0.1; fill:none" points="209.029,467.807 2352.76,467.807 "/>
<polyline clip-path="url(#clip962)" style="stroke:#000000; stroke-linecap:round; stroke-linejoin:round; stroke-width:2; stroke-opacity:0.1; fill:none" points="209.029,143.491 2352.76,143.491 "/>
<polyline clip-path="url(#clip960)" style="stroke:#000000; stroke-linecap:round; stroke-linejoin:round; stroke-width:4; stroke-opacity:1; fill:none" points="209.029,1486.45 2352.76,1486.45 "/>
<polyline clip-path="url(#clip960)" style="stroke:#000000; stroke-linecap:round; stroke-linejoin:round; stroke-width:4; stroke-opacity:1; fill:none" points="261.769,1486.45 261.769,1467.55 "/>
<polyline clip-path="url(#clip960)" style="stroke:#000000; stroke-linecap:round; stroke-linejoin:round; stroke-width:4; stroke-opacity:1; fill:none" points="658.315,1486.45 658.315,1467.55 "/>
<polyline clip-path="url(#clip960)" style="stroke:#000000; stroke-linecap:round; stroke-linejoin:round; stroke-width:4; stroke-opacity:1; fill:none" points="1054.86,1486.45 1054.86,1467.55 "/>
<polyline clip-path="url(#clip960)" style="stroke:#000000; stroke-linecap:round; stroke-linejoin:round; stroke-width:4; stroke-opacity:1; fill:none" points="1451.41,1486.45 1451.41,1467.55 "/>
<polyline clip-path="url(#clip960)" style="stroke:#000000; stroke-linecap:round; stroke-linejoin:round; stroke-width:4; stroke-opacity:1; fill:none" points="1847.95,1486.45 1847.95,1467.55 "/>
<polyline clip-path="url(#clip960)" style="stroke:#000000; stroke-linecap:round; stroke-linejoin:round; stroke-width:4; stroke-opacity:1; fill:none" points="2244.5,1486.45 2244.5,1467.55 "/>
<path clip-path="url(#clip960)" d="M261.769 1517.37 Q258.158 1517.37 256.329 1520.93 Q254.524 1524.47 254.524 1531.6 Q254.524 1538.71 256.329 1542.27 Q258.158 1545.82 261.769 1545.82 Q265.403 1545.82 267.209 1542.27 Q269.038 1538.71 269.038 1531.6 Q269.038 1524.47 267.209 1520.93 Q265.403 1517.37 261.769 1517.37 M261.769 1513.66 Q267.579 1513.66 270.635 1518.27 Q273.714 1522.85 273.714 1531.6 Q273.714 1540.33 270.635 1544.94 Q267.579 1549.52 261.769 1549.52 Q255.959 1549.52 252.88 1544.94 Q249.825 1540.33 249.825 1531.6 Q249.825 1522.85 252.88 1518.27 Q255.959 1513.66 261.769 1513.66 Z" fill="#000000" fill-rule="nonzero" fill-opacity="1" /><path clip-path="url(#clip960)" d="M633.014 1514.29 L651.371 1514.29 L651.371 1518.22 L637.297 1518.22 L637.297 1526.7 Q638.315 1526.35 639.334 1526.19 Q640.352 1526 641.371 1526 Q647.158 1526 650.537 1529.17 Q653.917 1532.34 653.917 1537.76 Q653.917 1543.34 650.445 1546.44 Q646.973 1549.52 640.653 1549.52 Q638.477 1549.52 636.209 1549.15 Q633.963 1548.78 631.556 1548.04 L631.556 1543.34 Q633.639 1544.47 635.861 1545.03 Q638.084 1545.58 640.561 1545.58 Q644.565 1545.58 646.903 1543.48 Q649.241 1541.37 649.241 1537.76 Q649.241 1534.15 646.903 1532.04 Q644.565 1529.94 640.561 1529.94 Q638.686 1529.94 636.811 1530.35 Q634.959 1530.77 633.014 1531.65 L633.014 1514.29 Z" fill="#000000" fill-rule="nonzero" fill-opacity="1" /><path clip-path="url(#clip960)" d="M673.13 1517.37 Q669.519 1517.37 667.69 1520.93 Q665.884 1524.47 665.884 1531.6 Q665.884 1538.71 667.69 1542.27 Q669.519 1545.82 673.13 1545.82 Q676.764 1545.82 678.57 1542.27 Q680.398 1538.71 680.398 1531.6 Q680.398 1524.47 678.57 1520.93 Q676.764 1517.37 673.13 1517.37 M673.13 1513.66 Q678.94 1513.66 681.995 1518.27 Q685.074 1522.85 685.074 1531.6 Q685.074 1540.33 681.995 1544.94 Q678.94 1549.52 673.13 1549.52 Q667.32 1549.52 664.241 1544.94 Q661.185 1540.33 661.185 1531.6 Q661.185 1522.85 664.241 1518.27 Q667.32 1513.66 673.13 1513.66 Z" fill="#000000" fill-rule="nonzero" fill-opacity="1" /><path clip-path="url(#clip960)" d="M1014.47 1544.91 L1022.11 1544.91 L1022.11 1518.55 L1013.8 1520.21 L1013.8 1515.95 L1022.06 1514.29 L1026.74 1514.29 L1026.74 1544.91 L1034.38 1544.91 L1034.38 1548.85 L1014.47 1548.85 L1014.47 1544.91 Z" fill="#000000" fill-rule="nonzero" fill-opacity="1" /><path clip-path="url(#clip960)" d="M1053.82 1517.37 Q1050.21 1517.37 1048.38 1520.93 Q1046.57 1524.47 1046.57 1531.6 Q1046.57 1538.71 1048.38 1542.27 Q1050.21 1545.82 1053.82 1545.82 Q1057.45 1545.82 1059.26 1542.27 Q1061.09 1538.71 1061.09 1531.6 Q1061.09 1524.47 1059.26 1520.93 Q1057.45 1517.37 1053.82 1517.37 M1053.82 1513.66 Q1059.63 1513.66 1062.69 1518.27 Q1065.76 1522.85 1065.76 1531.6 Q1065.76 1540.33 1062.69 1544.94 Q1059.63 1549.52 1053.82 1549.52 Q1048.01 1549.52 1044.93 1544.94 Q1041.87 1540.33 1041.87 1531.6 Q1041.87 1522.85 1044.93 1518.27 Q1048.01 1513.66 1053.82 1513.66 Z" fill="#000000" fill-rule="nonzero" fill-opacity="1" /><path clip-path="url(#clip960)" d="M1083.98 1517.37 Q1080.37 1517.37 1078.54 1520.93 Q1076.74 1524.47 1076.74 1531.6 Q1076.74 1538.71 1078.54 1542.27 Q1080.37 1545.82 1083.98 1545.82 Q1087.62 1545.82 1089.42 1542.27 Q1091.25 1538.71 1091.25 1531.6 Q1091.25 1524.47 1089.42 1520.93 Q1087.62 1517.37 1083.98 1517.37 M1083.98 1513.66 Q1089.79 1513.66 1092.85 1518.27 Q1095.93 1522.85 1095.93 1531.6 Q1095.93 1540.33 1092.85 1544.94 Q1089.79 1549.52 1083.98 1549.52 Q1078.17 1549.52 1075.09 1544.94 Q1072.04 1540.33 1072.04 1531.6 Q1072.04 1522.85 1075.09 1518.27 Q1078.17 1513.66 1083.98 1513.66 Z" fill="#000000" fill-rule="nonzero" fill-opacity="1" /><path clip-path="url(#clip960)" d="M1411.01 1544.91 L1418.65 1544.91 L1418.65 1518.55 L1410.34 1520.21 L1410.34 1515.95 L1418.61 1514.29 L1423.28 1514.29 L1423.28 1544.91 L1430.92 1544.91 L1430.92 1548.85 L1411.01 1548.85 L1411.01 1544.91 Z" fill="#000000" fill-rule="nonzero" fill-opacity="1" /><path clip-path="url(#clip960)" d="M1440.41 1514.29 L1458.77 1514.29 L1458.77 1518.22 L1444.69 1518.22 L1444.69 1526.7 Q1445.71 1526.35 1446.73 1526.19 Q1447.75 1526 1448.77 1526 Q1454.56 1526 1457.93 1529.17 Q1461.31 1532.34 1461.31 1537.76 Q1461.31 1543.34 1457.84 1546.44 Q1454.37 1549.52 1448.05 1549.52 Q1445.87 1549.52 1443.61 1549.15 Q1441.36 1548.78 1438.95 1548.04 L1438.95 1543.34 Q1441.04 1544.47 1443.26 1545.03 Q1445.48 1545.58 1447.96 1545.58 Q1451.96 1545.58 1454.3 1543.48 Q1456.64 1541.37 1456.64 1537.76 Q1456.64 1534.15 1454.3 1532.04 Q1451.96 1529.94 1447.96 1529.94 Q1446.08 1529.94 1444.21 1530.35 Q1442.36 1530.77 1440.41 1531.65 L1440.41 1514.29 Z" fill="#000000" fill-rule="nonzero" fill-opacity="1" /><path clip-path="url(#clip960)" d="M1480.53 1517.37 Q1476.92 1517.37 1475.09 1520.93 Q1473.28 1524.47 1473.28 1531.6 Q1473.28 1538.71 1475.09 1542.27 Q1476.92 1545.82 1480.53 1545.82 Q1484.16 1545.82 1485.97 1542.27 Q1487.8 1538.71 1487.8 1531.6 Q1487.8 1524.47 1485.97 1520.93 Q1484.16 1517.37 1480.53 1517.37 M1480.53 1513.66 Q1486.34 1513.66 1489.39 1518.27 Q1492.47 1522.85 1492.47 1531.6 Q1492.47 1540.33 1489.39 1544.94 Q1486.34 1549.52 1480.53 1549.52 Q1474.72 1549.52 1471.64 1544.94 Q1468.58 1540.33 1468.58 1531.6 Q1468.58 1522.85 1471.64 1518.27 Q1474.72 1513.66 1480.53 1513.66 Z" fill="#000000" fill-rule="nonzero" fill-opacity="1" /><path clip-path="url(#clip960)" d="M1811.65 1544.91 L1827.96 1544.91 L1827.96 1548.85 L1806.02 1548.85 L1806.02 1544.91 Q1808.68 1542.16 1813.27 1537.53 Q1817.87 1532.88 1819.05 1531.53 Q1821.3 1529.01 1822.18 1527.27 Q1823.08 1525.51 1823.08 1523.82 Q1823.08 1521.07 1821.14 1519.33 Q1819.21 1517.6 1816.11 1517.6 Q1813.91 1517.6 1811.46 1518.36 Q1809.03 1519.13 1806.25 1520.68 L1806.25 1515.95 Q1809.08 1514.82 1811.53 1514.24 Q1813.98 1513.66 1816.02 1513.66 Q1821.39 1513.66 1824.58 1516.35 Q1827.78 1519.03 1827.78 1523.52 Q1827.78 1525.65 1826.97 1527.57 Q1826.18 1529.47 1824.08 1532.07 Q1823.5 1532.74 1820.4 1535.95 Q1817.29 1539.15 1811.65 1544.91 Z" fill="#000000" fill-rule="nonzero" fill-opacity="1" /><path clip-path="url(#clip960)" d="M1847.78 1517.37 Q1844.17 1517.37 1842.34 1520.93 Q1840.53 1524.47 1840.53 1531.6 Q1840.53 1538.71 1842.34 1542.27 Q1844.17 1545.82 1847.78 1545.82 Q1851.41 1545.82 1853.22 1542.27 Q1855.05 1538.71 1855.05 1531.6 Q1855.05 1524.47 1853.22 1520.93 Q1851.41 1517.37 1847.78 1517.37 M1847.78 1513.66 Q1853.59 1513.66 1856.64 1518.27 Q1859.72 1522.85 1859.72 1531.6 Q1859.72 1540.33 1856.64 1544.94 Q1853.59 1549.52 1847.78 1549.52 Q1841.97 1549.52 1838.89 1544.94 Q1835.83 1540.33 1835.83 1531.6 Q1835.83 1522.85 1838.89 1518.27 Q1841.97 1513.66 1847.78 1513.66 Z" fill="#000000" fill-rule="nonzero" fill-opacity="1" /><path clip-path="url(#clip960)" d="M1877.94 1517.37 Q1874.33 1517.37 1872.5 1520.93 Q1870.7 1524.47 1870.7 1531.6 Q1870.7 1538.71 1872.5 1542.27 Q1874.33 1545.82 1877.94 1545.82 Q1881.58 1545.82 1883.38 1542.27 Q1885.21 1538.71 1885.21 1531.6 Q1885.21 1524.47 1883.38 1520.93 Q1881.58 1517.37 1877.94 1517.37 M1877.94 1513.66 Q1883.75 1513.66 1886.81 1518.27 Q1889.89 1522.85 1889.89 1531.6 Q1889.89 1540.33 1886.81 1544.94 Q1883.75 1549.52 1877.94 1549.52 Q1872.13 1549.52 1869.05 1544.94 Q1866 1540.33 1866 1531.6 Q1866 1522.85 1869.05 1518.27 Q1872.13 1513.66 1877.94 1513.66 Z" fill="#000000" fill-rule="nonzero" fill-opacity="1" /><path clip-path="url(#clip960)" d="M2208.19 1544.91 L2224.51 1544.91 L2224.51 1548.85 L2202.57 1548.85 L2202.57 1544.91 Q2205.23 1542.16 2209.81 1537.53 Q2214.42 1532.88 2215.6 1531.53 Q2217.84 1529.01 2218.72 1527.27 Q2219.63 1525.51 2219.63 1523.82 Q2219.63 1521.07 2217.68 1519.33 Q2215.76 1517.6 2212.66 1517.6 Q2210.46 1517.6 2208.01 1518.36 Q2205.58 1519.13 2202.8 1520.68 L2202.8 1515.95 Q2205.62 1514.82 2208.08 1514.24 Q2210.53 1513.66 2212.57 1513.66 Q2217.94 1513.66 2221.13 1516.35 Q2224.33 1519.03 2224.33 1523.52 Q2224.33 1525.65 2223.52 1527.57 Q2222.73 1529.47 2220.62 1532.07 Q2220.04 1532.74 2216.94 1535.95 Q2213.84 1539.15 2208.19 1544.91 Z" fill="#000000" fill-rule="nonzero" fill-opacity="1" /><path clip-path="url(#clip960)" d="M2234.37 1514.29 L2252.73 1514.29 L2252.73 1518.22 L2238.65 1518.22 L2238.65 1526.7 Q2239.67 1526.35 2240.69 1526.19 Q2241.71 1526 2242.73 1526 Q2248.52 1526 2251.89 1529.17 Q2255.27 1532.34 2255.27 1537.76 Q2255.27 1543.34 2251.8 1546.44 Q2248.33 1549.52 2242.01 1549.52 Q2239.83 1549.52 2237.57 1549.15 Q2235.32 1548.78 2232.91 1548.04 L2232.91 1543.34 Q2235 1544.47 2237.22 1545.03 Q2239.44 1545.58 2241.92 1545.58 Q2245.92 1545.58 2248.26 1543.48 Q2250.6 1541.37 2250.6 1537.76 Q2250.6 1534.15 2248.26 1532.04 Q2245.92 1529.94 2241.92 1529.94 Q2240.04 1529.94 2238.17 1530.35 Q2236.32 1530.77 2234.37 1531.65 L2234.37 1514.29 Z" fill="#000000" fill-rule="nonzero" fill-opacity="1" /><path clip-path="url(#clip960)" d="M2274.49 1517.37 Q2270.88 1517.37 2269.05 1520.93 Q2267.24 1524.47 2267.24 1531.6 Q2267.24 1538.71 2269.05 1542.27 Q2270.88 1545.82 2274.49 1545.82 Q2278.12 1545.82 2279.93 1542.27 Q2281.76 1538.71 2281.76 1531.6 Q2281.76 1524.47 2279.93 1520.93 Q2278.12 1517.37 2274.49 1517.37 M2274.49 1513.66 Q2280.3 1513.66 2283.35 1518.27 Q2286.43 1522.85 2286.43 1531.6 Q2286.43 1540.33 2283.35 1544.94 Q2280.3 1549.52 2274.49 1549.52 Q2268.68 1549.52 2265.6 1544.94 Q2262.54 1540.33 2262.54 1531.6 Q2262.54 1522.85 2265.6 1518.27 Q2268.68 1513.66 2274.49 1513.66 Z" fill="#000000" fill-rule="nonzero" fill-opacity="1" /><polyline clip-path="url(#clip960)" style="stroke:#000000; stroke-linecap:round; stroke-linejoin:round; stroke-width:4; stroke-opacity:1; fill:none" points="209.029,1486.45 209.029,47.2441 "/>
<polyline clip-path="url(#clip960)" style="stroke:#000000; stroke-linecap:round; stroke-linejoin:round; stroke-width:4; stroke-opacity:1; fill:none" points="209.029,1440.76 227.926,1440.76 "/>
<polyline clip-path="url(#clip960)" style="stroke:#000000; stroke-linecap:round; stroke-linejoin:round; stroke-width:4; stroke-opacity:1; fill:none" points="209.029,1116.44 227.926,1116.44 "/>
<polyline clip-path="url(#clip960)" style="stroke:#000000; stroke-linecap:round; stroke-linejoin:round; stroke-width:4; stroke-opacity:1; fill:none" points="209.029,792.123 227.926,792.123 "/>
<polyline clip-path="url(#clip960)" style="stroke:#000000; stroke-linecap:round; stroke-linejoin:round; stroke-width:4; stroke-opacity:1; fill:none" points="209.029,467.807 227.926,467.807 "/>
<polyline clip-path="url(#clip960)" style="stroke:#000000; stroke-linecap:round; stroke-linejoin:round; stroke-width:4; stroke-opacity:1; fill:none" points="209.029,143.491 227.926,143.491 "/>
<path clip-path="url(#clip960)" d="M50.9921 1441.21 L80.6679 1441.21 L80.6679 1445.14 L50.9921 1445.14 L50.9921 1441.21 Z" fill="#000000" fill-rule="nonzero" fill-opacity="1" /><path clip-path="url(#clip960)" d="M91.5706 1454.1 L99.2095 1454.1 L99.2095 1427.73 L90.8993 1429.4 L90.8993 1425.14 L99.1632 1423.48 L103.839 1423.48 L103.839 1454.1 L111.478 1454.1 L111.478 1458.04 L91.5706 1458.04 L91.5706 1454.1 Z" fill="#000000" fill-rule="nonzero" fill-opacity="1" /><path clip-path="url(#clip960)" d="M130.922 1426.55 Q127.311 1426.55 125.482 1430.12 Q123.677 1433.66 123.677 1440.79 Q123.677 1447.9 125.482 1451.46 Q127.311 1455 130.922 1455 Q134.556 1455 136.362 1451.46 Q138.191 1447.9 138.191 1440.79 Q138.191 1433.66 136.362 1430.12 Q134.556 1426.55 130.922 1426.55 M130.922 1422.85 Q136.732 1422.85 139.788 1427.46 Q142.867 1432.04 142.867 1440.79 Q142.867 1449.52 139.788 1454.12 Q136.732 1458.71 130.922 1458.71 Q125.112 1458.71 122.033 1454.12 Q118.978 1449.52 118.978 1440.79 Q118.978 1432.04 122.033 1427.46 Q125.112 1422.85 130.922 1422.85 Z" fill="#000000" fill-rule="nonzero" fill-opacity="1" /><path clip-path="url(#clip960)" d="M161.084 1426.55 Q157.473 1426.55 155.644 1430.12 Q153.839 1433.66 153.839 1440.79 Q153.839 1447.9 155.644 1451.46 Q157.473 1455 161.084 1455 Q164.718 1455 166.524 1451.46 Q168.353 1447.9 168.353 1440.79 Q168.353 1433.66 166.524 1430.12 Q164.718 1426.55 161.084 1426.55 M161.084 1422.85 Q166.894 1422.85 169.95 1427.46 Q173.029 1432.04 173.029 1440.79 Q173.029 1449.52 169.95 1454.12 Q166.894 1458.71 161.084 1458.71 Q155.274 1458.71 152.195 1454.12 Q149.14 1449.52 149.14 1440.79 Q149.14 1432.04 152.195 1427.46 Q155.274 1422.85 161.084 1422.85 Z" fill="#000000" fill-rule="nonzero" fill-opacity="1" /><path clip-path="url(#clip960)" d="M82.1494 1116.89 L111.825 1116.89 L111.825 1120.83 L82.1494 1120.83 L82.1494 1116.89 Z" fill="#000000" fill-rule="nonzero" fill-opacity="1" /><path clip-path="url(#clip960)" d="M120.737 1099.16 L142.959 1099.16 L142.959 1101.15 L130.413 1133.72 L125.529 1133.72 L137.334 1103.09 L120.737 1103.09 L120.737 1099.16 Z" fill="#000000" fill-rule="nonzero" fill-opacity="1" /><path clip-path="url(#clip960)" d="M152.126 1099.16 L170.482 1099.16 L170.482 1103.09 L156.408 1103.09 L156.408 1111.57 Q157.427 1111.22 158.445 1111.06 Q159.464 1110.87 160.482 1110.87 Q166.269 1110.87 169.649 1114.04 Q173.029 1117.21 173.029 1122.63 Q173.029 1128.21 169.556 1131.31 Q166.084 1134.39 159.765 1134.39 Q157.589 1134.39 155.32 1134.02 Q153.075 1133.65 150.668 1132.91 L150.668 1128.21 Q152.751 1129.34 154.973 1129.9 Q157.195 1130.46 159.672 1130.46 Q163.677 1130.46 166.015 1128.35 Q168.353 1126.24 168.353 1122.63 Q168.353 1119.02 166.015 1116.91 Q163.677 1114.81 159.672 1114.81 Q157.797 1114.81 155.922 1115.22 Q154.07 1115.64 152.126 1116.52 L152.126 1099.16 Z" fill="#000000" fill-rule="nonzero" fill-opacity="1" /><path clip-path="url(#clip960)" d="M81.154 792.575 L110.83 792.575 L110.83 796.51 L81.154 796.51 L81.154 792.575 Z" fill="#000000" fill-rule="nonzero" fill-opacity="1" /><path clip-path="url(#clip960)" d="M120.969 774.843 L139.325 774.843 L139.325 778.778 L125.251 778.778 L125.251 787.251 Q126.27 786.903 127.288 786.741 Q128.307 786.556 129.325 786.556 Q135.112 786.556 138.492 789.727 Q141.871 792.899 141.871 798.315 Q141.871 803.894 138.399 806.996 Q134.927 810.075 128.607 810.075 Q126.432 810.075 124.163 809.704 Q121.918 809.334 119.51 808.593 L119.51 803.894 Q121.594 805.028 123.816 805.584 Q126.038 806.139 128.515 806.139 Q132.519 806.139 134.857 804.033 Q137.195 801.926 137.195 798.315 Q137.195 794.704 134.857 792.598 Q132.519 790.491 128.515 790.491 Q126.64 790.491 124.765 790.908 Q122.913 791.325 120.969 792.204 L120.969 774.843 Z" fill="#000000" fill-rule="nonzero" fill-opacity="1" /><path clip-path="url(#clip960)" d="M161.084 777.922 Q157.473 777.922 155.644 781.487 Q153.839 785.028 153.839 792.158 Q153.839 799.264 155.644 802.829 Q157.473 806.371 161.084 806.371 Q164.718 806.371 166.524 802.829 Q168.353 799.264 168.353 792.158 Q168.353 785.028 166.524 781.487 Q164.718 777.922 161.084 777.922 M161.084 774.218 Q166.894 774.218 169.95 778.825 Q173.029 783.408 173.029 792.158 Q173.029 800.885 169.95 805.491 Q166.894 810.075 161.084 810.075 Q155.274 810.075 152.195 805.491 Q149.14 800.885 149.14 792.158 Q149.14 783.408 152.195 778.825 Q155.274 774.218 161.084 774.218 Z" fill="#000000" fill-rule="nonzero" fill-opacity="1" /><path clip-path="url(#clip960)" d="M82.1494 468.259 L111.825 468.259 L111.825 472.194 L82.1494 472.194 L82.1494 468.259 Z" fill="#000000" fill-rule="nonzero" fill-opacity="1" /><path clip-path="url(#clip960)" d="M125.945 481.152 L142.265 481.152 L142.265 485.087 L120.32 485.087 L120.32 481.152 Q122.982 478.397 127.566 473.768 Q132.172 469.115 133.353 467.772 Q135.598 465.249 136.478 463.513 Q137.381 461.754 137.381 460.064 Q137.381 457.31 135.436 455.573 Q133.515 453.837 130.413 453.837 Q128.214 453.837 125.76 454.601 Q123.33 455.365 120.552 456.916 L120.552 452.194 Q123.376 451.06 125.83 450.481 Q128.283 449.902 130.32 449.902 Q135.691 449.902 138.885 452.587 Q142.08 455.272 142.08 459.763 Q142.08 461.893 141.269 463.814 Q140.482 465.712 138.376 468.305 Q137.797 468.976 134.695 472.194 Q131.594 475.388 125.945 481.152 Z" fill="#000000" fill-rule="nonzero" fill-opacity="1" /><path clip-path="url(#clip960)" d="M152.126 450.527 L170.482 450.527 L170.482 454.462 L156.408 454.462 L156.408 462.934 Q157.427 462.587 158.445 462.425 Q159.464 462.24 160.482 462.24 Q166.269 462.24 169.649 465.411 Q173.029 468.583 173.029 473.999 Q173.029 479.578 169.556 482.68 Q166.084 485.758 159.765 485.758 Q157.589 485.758 155.32 485.388 Q153.075 485.018 150.668 484.277 L150.668 479.578 Q152.751 480.712 154.973 481.268 Q157.195 481.823 159.672 481.823 Q163.677 481.823 166.015 479.717 Q168.353 477.61 168.353 473.999 Q168.353 470.388 166.015 468.282 Q163.677 466.175 159.672 466.175 Q157.797 466.175 155.922 466.592 Q154.07 467.009 152.126 467.888 L152.126 450.527 Z" fill="#000000" fill-rule="nonzero" fill-opacity="1" /><path clip-path="url(#clip960)" d="M161.084 129.29 Q157.473 129.29 155.644 132.854 Q153.839 136.396 153.839 143.526 Q153.839 150.632 155.644 154.197 Q157.473 157.739 161.084 157.739 Q164.718 157.739 166.524 154.197 Q168.353 150.632 168.353 143.526 Q168.353 136.396 166.524 132.854 Q164.718 129.29 161.084 129.29 M161.084 125.586 Q166.894 125.586 169.95 130.192 Q173.029 134.776 173.029 143.526 Q173.029 152.252 169.95 156.859 Q166.894 161.442 161.084 161.442 Q155.274 161.442 152.195 156.859 Q149.14 152.252 149.14 143.526 Q149.14 134.776 152.195 130.192 Q155.274 125.586 161.084 125.586 Z" fill="#000000" fill-rule="nonzero" fill-opacity="1" /><polyline clip-path="url(#clip962)" style="stroke:#009af9; stroke-linecap:round; stroke-linejoin:round; stroke-width:4; stroke-opacity:1; fill:none" points="269.7,152.186 277.631,141.013 285.562,139.457 293.493,132.226 301.424,142.625 309.355,148.928 317.286,149.467 325.216,164.972 333.147,173.027 341.078,172.772 349.009,174.758 356.94,175.869 364.871,182.836 372.802,177.09 380.733,188.314 388.664,196.494 396.595,209.268 404.526,219.871 412.457,230.992 420.387,241.007 428.318,253.899 436.249,255.399 444.18,262.245 452.111,274.95 460.042,278.389 467.973,270.675 475.904,279.713 483.835,281.948 491.766,294.595 499.697,301.713 507.628,306.051 515.559,327.262 523.489,341.484 531.42,346.816 539.351,346.184 547.282,353.259 555.213,357.481 563.144,373.137 571.075,392.704 579.006,416.114 586.937,435.683 594.868,457.558 602.799,480.031 610.73,486.802 618.66,500.962 626.591,519.263 634.522,535.898 642.453,554.18 650.384,567.399 658.315,589.275 666.246,607.764 674.177,624.221 682.108,632.786 690.039,637.25 697.97,645.041 705.901,653.038 713.832,655.539 721.762,667.496 729.693,671.129 737.624,683.061 745.555,682.886 753.486,688.389 761.417,698.916 769.348,712.495 777.279,716.864 785.21,722.641 793.141,729.498 801.072,735.096 809.003,737.262 816.933,735.257 824.864,725.668 832.795,715.753 840.726,714.413 848.657,717.448 856.588,714.209 864.519,714.468 872.45,704.219 880.381,697.638 888.312,700.921 896.243,703.651 904.174,706.913 912.104,713.987 920.035,719.754 927.966,732.277 935.897,728.356 943.828,742.707 951.759,748.961 959.69,748.631 967.621,748.431 975.552,748.868 983.483,752.868 991.414,749.481 999.345,748.765 1007.28,742.726 1015.21,736.858 1023.14,732.334 1031.07,739.301 1039,733.029 1046.93,734.836 1054.86,727.964 1062.79,714.606 1070.72,703.953 1078.65,690.351 1086.58,680.173 1094.52,681.946 1102.45,685.647 1110.38,688.574 1118.31,684.539 1126.24,680.213 1134.17,682.618 1142.1,691.97 1150.03,698.067 1157.96,690.279 1165.89,692.885 1173.82,702.813 1181.76,706.224 1189.69,714.399 1197.62,720.574 1205.55,734.937 1213.48,738.73 1221.41,757.104 1229.34,764.9 1237.27,765.322 1245.2,769.786 1253.13,784.131 1261.06,794.092 1269,802.313 1276.93,810.038 1284.86,811.008 1292.79,815.02 1300.72,833.573 1308.65,861.948 1316.58,883.321 1324.51,904.613 1332.44,933.83 1340.37,959.674 1348.31,975.944 1356.24,994.809 1364.17,1006.01 1372.1,1027.62 1380.03,1055.79 1387.96,1073.92 1395.89,1098.39 1403.82,1115.02 1411.75,1138.56 1419.68,1151.33 1427.61,1158.97 1435.55,1159.44 1443.48,1156.33 1451.41,1154.27 1459.34,1160.66 1467.27,1177.39 1475.2,1183.07 1483.13,1181.02 1491.06,1182.23 1498.99,1184.27 1506.92,1183.86 1514.85,1181.67 1522.79,1169.97 1530.72,1154.16 1538.65,1140.77 1546.58,1140.09 1554.51,1133.27 1562.44,1130.4 1570.37,1130.55 1578.3,1127.75 1586.23,1131.17 1594.16,1134.88 1602.09,1141.63 1610.03,1150.67 1617.96,1151.4 1625.89,1153.42 1633.82,1166.91 1641.75,1174.75 1649.68,1177.31 1657.61,1189.58 1665.54,1187.78 1673.47,1203.01 1681.4,1206.36 1689.33,1222.54 1697.27,1243.31 1705.2,1242.3 1713.13,1249.19 1721.06,1261.27 1728.99,1270.87 1736.92,1273.67 1744.85,1277.04 1752.78,1292.99 1760.71,1303.19 1768.64,1305.27 1776.57,1311.63 1784.51,1321.34 1792.44,1319.12 1800.37,1320.14 1808.3,1324.53 1816.23,1317.77 1824.16,1318 1832.09,1316.63 1840.02,1328.94 1847.95,1333.95 1855.88,1338.68 1863.81,1340.45 1871.75,1346.96 1879.68,1354.43 1887.61,1349.78 1895.54,1346.2 1903.47,1340.63 1911.4,1348.92 1919.33,1345.35 1927.26,1347.18 1935.19,1355.98 1943.12,1358.88 1951.05,1366.05 1958.99,1372.3 1966.92,1387.73 1974.85,1398.03 1982.78,1396.31 1990.71,1392.09 1998.64,1388.52 2006.57,1389.48 2014.5,1385.38 2022.43,1373.56 2030.36,1374.17 2038.29,1374.29 2046.23,1371.68 2054.16,1371.74 2062.09,1378.02 2070.02,1377.78 2077.95,1384.84 2085.88,1386.79 2093.81,1391.63 2101.74,1389.91 2109.67,1387.79 2117.6,1384.23 2125.54,1381.2 2133.47,1372.95 2141.4,1365.03 2149.33,1366.14 2157.26,1358.16 2165.19,1351.57 2173.12,1355.01 2181.05,1353.79 2188.98,1346.07 2196.91,1339.19 2204.84,1328.19 2212.78,1312.09 2220.71,1295.57 2228.64,1277.97 2236.57,1255.28 2244.5,1236.3 2252.43,1221.39 2260.36,1218.08 2268.29,1205.69 2276.22,1199.25 2284.15,1190.1 2292.08,1182.44 "/>
<circle clip-path="url(#clip962)" cx="269.7" cy="112.34" r="14.4" fill="#e26f46" fill-rule="evenodd" fill-opacity="1" stroke="#000000" stroke-opacity="1" stroke-width="3.2"/>
<circle clip-path="url(#clip962)" cx="277.631" cy="121.174" r="14.4" fill="#e26f46" fill-rule="evenodd" fill-opacity="1" stroke="#000000" stroke-opacity="1" stroke-width="3.2"/>
<circle clip-path="url(#clip962)" cx="285.562" cy="87.9763" r="14.4" fill="#e26f46" fill-rule="evenodd" fill-opacity="1" stroke="#000000" stroke-opacity="1" stroke-width="3.2"/>
<circle clip-path="url(#clip962)" cx="293.493" cy="109.181" r="14.4" fill="#e26f46" fill-rule="evenodd" fill-opacity="1" stroke="#000000" stroke-opacity="1" stroke-width="3.2"/>
<circle clip-path="url(#clip962)" cx="301.424" cy="111.519" r="14.4" fill="#e26f46" fill-rule="evenodd" fill-opacity="1" stroke="#000000" stroke-opacity="1" stroke-width="3.2"/>
<circle clip-path="url(#clip962)" cx="309.355" cy="167.802" r="14.4" fill="#e26f46" fill-rule="evenodd" fill-opacity="1" stroke="#000000" stroke-opacity="1" stroke-width="3.2"/>
<circle clip-path="url(#clip962)" cx="317.286" cy="88.9722" r="14.4" fill="#e26f46" fill-rule="evenodd" fill-opacity="1" stroke="#000000" stroke-opacity="1" stroke-width="3.2"/>
<circle clip-path="url(#clip962)" cx="325.216" cy="181.509" r="14.4" fill="#e26f46" fill-rule="evenodd" fill-opacity="1" stroke="#000000" stroke-opacity="1" stroke-width="3.2"/>
<circle clip-path="url(#clip962)" cx="333.147" cy="215.497" r="14.4" fill="#e26f46" fill-rule="evenodd" fill-opacity="1" stroke="#000000" stroke-opacity="1" stroke-width="3.2"/>
<circle clip-path="url(#clip962)" cx="341.078" cy="195.601" r="14.4" fill="#e26f46" fill-rule="evenodd" fill-opacity="1" stroke="#000000" stroke-opacity="1" stroke-width="3.2"/>
<circle clip-path="url(#clip962)" cx="349.009" cy="161.552" r="14.4" fill="#e26f46" fill-rule="evenodd" fill-opacity="1" stroke="#000000" stroke-opacity="1" stroke-width="3.2"/>
<circle clip-path="url(#clip962)" cx="356.94" cy="158.847" r="14.4" fill="#e26f46" fill-rule="evenodd" fill-opacity="1" stroke="#000000" stroke-opacity="1" stroke-width="3.2"/>
<circle clip-path="url(#clip962)" cx="364.871" cy="191.567" r="14.4" fill="#e26f46" fill-rule="evenodd" fill-opacity="1" stroke="#000000" stroke-opacity="1" stroke-width="3.2"/>
<circle clip-path="url(#clip962)" cx="372.802" cy="198.265" r="14.4" fill="#e26f46" fill-rule="evenodd" fill-opacity="1" stroke="#000000" stroke-opacity="1" stroke-width="3.2"/>
<circle clip-path="url(#clip962)" cx="380.733" cy="153.482" r="14.4" fill="#e26f46" fill-rule="evenodd" fill-opacity="1" stroke="#000000" stroke-opacity="1" stroke-width="3.2"/>
<circle clip-path="url(#clip962)" cx="388.664" cy="178.334" r="14.4" fill="#e26f46" fill-rule="evenodd" fill-opacity="1" stroke="#000000" stroke-opacity="1" stroke-width="3.2"/>
<circle clip-path="url(#clip962)" cx="396.595" cy="246.591" r="14.4" fill="#e26f46" fill-rule="evenodd" fill-opacity="1" stroke="#000000" stroke-opacity="1" stroke-width="3.2"/>
<circle clip-path="url(#clip962)" cx="404.526" cy="164.509" r="14.4" fill="#e26f46" fill-rule="evenodd" fill-opacity="1" stroke="#000000" stroke-opacity="1" stroke-width="3.2"/>
<circle clip-path="url(#clip962)" cx="412.457" cy="209.431" r="14.4" fill="#e26f46" fill-rule="evenodd" fill-opacity="1" stroke="#000000" stroke-opacity="1" stroke-width="3.2"/>
<circle clip-path="url(#clip962)" cx="420.387" cy="241.246" r="14.4" fill="#e26f46" fill-rule="evenodd" fill-opacity="1" stroke="#000000" stroke-opacity="1" stroke-width="3.2"/>
<circle clip-path="url(#clip962)" cx="428.318" cy="284.541" r="14.4" fill="#e26f46" fill-rule="evenodd" fill-opacity="1" stroke="#000000" stroke-opacity="1" stroke-width="3.2"/>
<circle clip-path="url(#clip962)" cx="436.249" cy="221.712" r="14.4" fill="#e26f46" fill-rule="evenodd" fill-opacity="1" stroke="#000000" stroke-opacity="1" stroke-width="3.2"/>
<circle clip-path="url(#clip962)" cx="444.18" cy="259.094" r="14.4" fill="#e26f46" fill-rule="evenodd" fill-opacity="1" stroke="#000000" stroke-opacity="1" stroke-width="3.2"/>
<circle clip-path="url(#clip962)" cx="452.111" cy="274.477" r="14.4" fill="#e26f46" fill-rule="evenodd" fill-opacity="1" stroke="#000000" stroke-opacity="1" stroke-width="3.2"/>
<circle clip-path="url(#clip962)" cx="460.042" cy="274.298" r="14.4" fill="#e26f46" fill-rule="evenodd" fill-opacity="1" stroke="#000000" stroke-opacity="1" stroke-width="3.2"/>
<circle clip-path="url(#clip962)" cx="467.973" cy="239.449" r="14.4" fill="#e26f46" fill-rule="evenodd" fill-opacity="1" stroke="#000000" stroke-opacity="1" stroke-width="3.2"/>
<circle clip-path="url(#clip962)" cx="475.904" cy="286.009" r="14.4" fill="#e26f46" fill-rule="evenodd" fill-opacity="1" stroke="#000000" stroke-opacity="1" stroke-width="3.2"/>
<circle clip-path="url(#clip962)" cx="483.835" cy="325.078" r="14.4" fill="#e26f46" fill-rule="evenodd" fill-opacity="1" stroke="#000000" stroke-opacity="1" stroke-width="3.2"/>
<circle clip-path="url(#clip962)" cx="491.766" cy="311.7" r="14.4" fill="#e26f46" fill-rule="evenodd" fill-opacity="1" stroke="#000000" stroke-opacity="1" stroke-width="3.2"/>
<circle clip-path="url(#clip962)" cx="499.697" cy="287.998" r="14.4" fill="#e26f46" fill-rule="evenodd" fill-opacity="1" stroke="#000000" stroke-opacity="1" stroke-width="3.2"/>
<circle clip-path="url(#clip962)" cx="507.628" cy="319.12" r="14.4" fill="#e26f46" fill-rule="evenodd" fill-opacity="1" stroke="#000000" stroke-opacity="1" stroke-width="3.2"/>
<circle clip-path="url(#clip962)" cx="515.559" cy="313.886" r="14.4" fill="#e26f46" fill-rule="evenodd" fill-opacity="1" stroke="#000000" stroke-opacity="1" stroke-width="3.2"/>
<circle clip-path="url(#clip962)" cx="523.489" cy="394.485" r="14.4" fill="#e26f46" fill-rule="evenodd" fill-opacity="1" stroke="#000000" stroke-opacity="1" stroke-width="3.2"/>
<circle clip-path="url(#clip962)" cx="531.42" cy="337.166" r="14.4" fill="#e26f46" fill-rule="evenodd" fill-opacity="1" stroke="#000000" stroke-opacity="1" stroke-width="3.2"/>
<circle clip-path="url(#clip962)" cx="539.351" cy="293.494" r="14.4" fill="#e26f46" fill-rule="evenodd" fill-opacity="1" stroke="#000000" stroke-opacity="1" stroke-width="3.2"/>
<circle clip-path="url(#clip962)" cx="547.282" cy="339.19" r="14.4" fill="#e26f46" fill-rule="evenodd" fill-opacity="1" stroke="#000000" stroke-opacity="1" stroke-width="3.2"/>
<circle clip-path="url(#clip962)" cx="555.213" cy="398" r="14.4" fill="#e26f46" fill-rule="evenodd" fill-opacity="1" stroke="#000000" stroke-opacity="1" stroke-width="3.2"/>
<circle clip-path="url(#clip962)" cx="563.144" cy="393.78" r="14.4" fill="#e26f46" fill-rule="evenodd" fill-opacity="1" stroke="#000000" stroke-opacity="1" stroke-width="3.2"/>
<circle clip-path="url(#clip962)" cx="571.075" cy="332.32" r="14.4" fill="#e26f46" fill-rule="evenodd" fill-opacity="1" stroke="#000000" stroke-opacity="1" stroke-width="3.2"/>
<circle clip-path="url(#clip962)" cx="579.006" cy="438.413" r="14.4" fill="#e26f46" fill-rule="evenodd" fill-opacity="1" stroke="#000000" stroke-opacity="1" stroke-width="3.2"/>
<circle clip-path="url(#clip962)" cx="586.937" cy="400.427" r="14.4" fill="#e26f46" fill-rule="evenodd" fill-opacity="1" stroke="#000000" stroke-opacity="1" stroke-width="3.2"/>
<circle clip-path="url(#clip962)" cx="594.868" cy="433.793" r="14.4" fill="#e26f46" fill-rule="evenodd" fill-opacity="1" stroke="#000000" stroke-opacity="1" stroke-width="3.2"/>
<circle clip-path="url(#clip962)" cx="602.799" cy="510.976" r="14.4" fill="#e26f46" fill-rule="evenodd" fill-opacity="1" stroke="#000000" stroke-opacity="1" stroke-width="3.2"/>
<circle clip-path="url(#clip962)" cx="610.73" cy="516.701" r="14.4" fill="#e26f46" fill-rule="evenodd" fill-opacity="1" stroke="#000000" stroke-opacity="1" stroke-width="3.2"/>
<circle clip-path="url(#clip962)" cx="618.66" cy="493.235" r="14.4" fill="#e26f46" fill-rule="evenodd" fill-opacity="1" stroke="#000000" stroke-opacity="1" stroke-width="3.2"/>
<circle clip-path="url(#clip962)" cx="626.591" cy="556.558" r="14.4" fill="#e26f46" fill-rule="evenodd" fill-opacity="1" stroke="#000000" stroke-opacity="1" stroke-width="3.2"/>
<circle clip-path="url(#clip962)" cx="634.522" cy="554.77" r="14.4" fill="#e26f46" fill-rule="evenodd" fill-opacity="1" stroke="#000000" stroke-opacity="1" stroke-width="3.2"/>
<circle clip-path="url(#clip962)" cx="642.453" cy="510.331" r="14.4" fill="#e26f46" fill-rule="evenodd" fill-opacity="1" stroke="#000000" stroke-opacity="1" stroke-width="3.2"/>
<circle clip-path="url(#clip962)" cx="650.384" cy="575.742" r="14.4" fill="#e26f46" fill-rule="evenodd" fill-opacity="1" stroke="#000000" stroke-opacity="1" stroke-width="3.2"/>
<circle clip-path="url(#clip962)" cx="658.315" cy="593.645" r="14.4" fill="#e26f46" fill-rule="evenodd" fill-opacity="1" stroke="#000000" stroke-opacity="1" stroke-width="3.2"/>
<circle clip-path="url(#clip962)" cx="666.246" cy="645.139" r="14.4" fill="#e26f46" fill-rule="evenodd" fill-opacity="1" stroke="#000000" stroke-opacity="1" stroke-width="3.2"/>
<circle clip-path="url(#clip962)" cx="674.177" cy="603.379" r="14.4" fill="#e26f46" fill-rule="evenodd" fill-opacity="1" stroke="#000000" stroke-opacity="1" stroke-width="3.2"/>
<circle clip-path="url(#clip962)" cx="682.108" cy="665.71" r="14.4" fill="#e26f46" fill-rule="evenodd" fill-opacity="1" stroke="#000000" stroke-opacity="1" stroke-width="3.2"/>
<circle clip-path="url(#clip962)" cx="690.039" cy="566.729" r="14.4" fill="#e26f46" fill-rule="evenodd" fill-opacity="1" stroke="#000000" stroke-opacity="1" stroke-width="3.2"/>
<circle clip-path="url(#clip962)" cx="697.97" cy="608.175" r="14.4" fill="#e26f46" fill-rule="evenodd" fill-opacity="1" stroke="#000000" stroke-opacity="1" stroke-width="3.2"/>
<circle clip-path="url(#clip962)" cx="705.901" cy="640.77" r="14.4" fill="#e26f46" fill-rule="evenodd" fill-opacity="1" stroke="#000000" stroke-opacity="1" stroke-width="3.2"/>
<circle clip-path="url(#clip962)" cx="713.832" cy="657.209" r="14.4" fill="#e26f46" fill-rule="evenodd" fill-opacity="1" stroke="#000000" stroke-opacity="1" stroke-width="3.2"/>
<circle clip-path="url(#clip962)" cx="721.762" cy="674.357" r="14.4" fill="#e26f46" fill-rule="evenodd" fill-opacity="1" stroke="#000000" stroke-opacity="1" stroke-width="3.2"/>
<circle clip-path="url(#clip962)" cx="729.693" cy="666.97" r="14.4" fill="#e26f46" fill-rule="evenodd" fill-opacity="1" stroke="#000000" stroke-opacity="1" stroke-width="3.2"/>
<circle clip-path="url(#clip962)" cx="737.624" cy="655.675" r="14.4" fill="#e26f46" fill-rule="evenodd" fill-opacity="1" stroke="#000000" stroke-opacity="1" stroke-width="3.2"/>
<circle clip-path="url(#clip962)" cx="745.555" cy="665.473" r="14.4" fill="#e26f46" fill-rule="evenodd" fill-opacity="1" stroke="#000000" stroke-opacity="1" stroke-width="3.2"/>
<circle clip-path="url(#clip962)" cx="753.486" cy="686.956" r="14.4" fill="#e26f46" fill-rule="evenodd" fill-opacity="1" stroke="#000000" stroke-opacity="1" stroke-width="3.2"/>
<circle clip-path="url(#clip962)" cx="761.417" cy="705.998" r="14.4" fill="#e26f46" fill-rule="evenodd" fill-opacity="1" stroke="#000000" stroke-opacity="1" stroke-width="3.2"/>
<circle clip-path="url(#clip962)" cx="769.348" cy="736.686" r="14.4" fill="#e26f46" fill-rule="evenodd" fill-opacity="1" stroke="#000000" stroke-opacity="1" stroke-width="3.2"/>
<circle clip-path="url(#clip962)" cx="777.279" cy="728.102" r="14.4" fill="#e26f46" fill-rule="evenodd" fill-opacity="1" stroke="#000000" stroke-opacity="1" stroke-width="3.2"/>
<circle clip-path="url(#clip962)" cx="785.21" cy="753.089" r="14.4" fill="#e26f46" fill-rule="evenodd" fill-opacity="1" stroke="#000000" stroke-opacity="1" stroke-width="3.2"/>
<circle clip-path="url(#clip962)" cx="793.141" cy="718.048" r="14.4" fill="#e26f46" fill-rule="evenodd" fill-opacity="1" stroke="#000000" stroke-opacity="1" stroke-width="3.2"/>
<circle clip-path="url(#clip962)" cx="801.072" cy="769.717" r="14.4" fill="#e26f46" fill-rule="evenodd" fill-opacity="1" stroke="#000000" stroke-opacity="1" stroke-width="3.2"/>
<circle clip-path="url(#clip962)" cx="809.003" cy="677.788" r="14.4" fill="#e26f46" fill-rule="evenodd" fill-opacity="1" stroke="#000000" stroke-opacity="1" stroke-width="3.2"/>
<circle clip-path="url(#clip962)" cx="816.933" cy="730.72" r="14.4" fill="#e26f46" fill-rule="evenodd" fill-opacity="1" stroke="#000000" stroke-opacity="1" stroke-width="3.2"/>
<circle clip-path="url(#clip962)" cx="824.864" cy="734.997" r="14.4" fill="#e26f46" fill-rule="evenodd" fill-opacity="1" stroke="#000000" stroke-opacity="1" stroke-width="3.2"/>
<circle clip-path="url(#clip962)" cx="832.795" cy="786.838" r="14.4" fill="#e26f46" fill-rule="evenodd" fill-opacity="1" stroke="#000000" stroke-opacity="1" stroke-width="3.2"/>
<circle clip-path="url(#clip962)" cx="840.726" cy="716.902" r="14.4" fill="#e26f46" fill-rule="evenodd" fill-opacity="1" stroke="#000000" stroke-opacity="1" stroke-width="3.2"/>
<circle clip-path="url(#clip962)" cx="848.657" cy="714.98" r="14.4" fill="#e26f46" fill-rule="evenodd" fill-opacity="1" stroke="#000000" stroke-opacity="1" stroke-width="3.2"/>
<circle clip-path="url(#clip962)" cx="856.588" cy="694.745" r="14.4" fill="#e26f46" fill-rule="evenodd" fill-opacity="1" stroke="#000000" stroke-opacity="1" stroke-width="3.2"/>
<circle clip-path="url(#clip962)" cx="864.519" cy="735.308" r="14.4" fill="#e26f46" fill-rule="evenodd" fill-opacity="1" stroke="#000000" stroke-opacity="1" stroke-width="3.2"/>
<circle clip-path="url(#clip962)" cx="872.45" cy="764.246" r="14.4" fill="#e26f46" fill-rule="evenodd" fill-opacity="1" stroke="#000000" stroke-opacity="1" stroke-width="3.2"/>
<circle clip-path="url(#clip962)" cx="880.381" cy="694.955" r="14.4" fill="#e26f46" fill-rule="evenodd" fill-opacity="1" stroke="#000000" stroke-opacity="1" stroke-width="3.2"/>
<circle clip-path="url(#clip962)" cx="888.312" cy="758.702" r="14.4" fill="#e26f46" fill-rule="evenodd" fill-opacity="1" stroke="#000000" stroke-opacity="1" stroke-width="3.2"/>
<circle clip-path="url(#clip962)" cx="896.243" cy="713.033" r="14.4" fill="#e26f46" fill-rule="evenodd" fill-opacity="1" stroke="#000000" stroke-opacity="1" stroke-width="3.2"/>
<circle clip-path="url(#clip962)" cx="904.174" cy="713.852" r="14.4" fill="#e26f46" fill-rule="evenodd" fill-opacity="1" stroke="#000000" stroke-opacity="1" stroke-width="3.2"/>
<circle clip-path="url(#clip962)" cx="912.104" cy="745.295" r="14.4" fill="#e26f46" fill-rule="evenodd" fill-opacity="1" stroke="#000000" stroke-opacity="1" stroke-width="3.2"/>
<circle clip-path="url(#clip962)" cx="920.035" cy="739.217" r="14.4" fill="#e26f46" fill-rule="evenodd" fill-opacity="1" stroke="#000000" stroke-opacity="1" stroke-width="3.2"/>
<circle clip-path="url(#clip962)" cx="927.966" cy="750.088" r="14.4" fill="#e26f46" fill-rule="evenodd" fill-opacity="1" stroke="#000000" stroke-opacity="1" stroke-width="3.2"/>
<circle clip-path="url(#clip962)" cx="935.897" cy="737.091" r="14.4" fill="#e26f46" fill-rule="evenodd" fill-opacity="1" stroke="#000000" stroke-opacity="1" stroke-width="3.2"/>
<circle clip-path="url(#clip962)" cx="943.828" cy="702.05" r="14.4" fill="#e26f46" fill-rule="evenodd" fill-opacity="1" stroke="#000000" stroke-opacity="1" stroke-width="3.2"/>
<circle clip-path="url(#clip962)" cx="951.759" cy="756.962" r="14.4" fill="#e26f46" fill-rule="evenodd" fill-opacity="1" stroke="#000000" stroke-opacity="1" stroke-width="3.2"/>
<circle clip-path="url(#clip962)" cx="959.69" cy="740.748" r="14.4" fill="#e26f46" fill-rule="evenodd" fill-opacity="1" stroke="#000000" stroke-opacity="1" stroke-width="3.2"/>
<circle clip-path="url(#clip962)" cx="967.621" cy="712.879" r="14.4" fill="#e26f46" fill-rule="evenodd" fill-opacity="1" stroke="#000000" stroke-opacity="1" stroke-width="3.2"/>
<circle clip-path="url(#clip962)" cx="975.552" cy="787.929" r="14.4" fill="#e26f46" fill-rule="evenodd" fill-opacity="1" stroke="#000000" stroke-opacity="1" stroke-width="3.2"/>
<circle clip-path="url(#clip962)" cx="983.483" cy="753.87" r="14.4" fill="#e26f46" fill-rule="evenodd" fill-opacity="1" stroke="#000000" stroke-opacity="1" stroke-width="3.2"/>
<circle clip-path="url(#clip962)" cx="991.414" cy="736.463" r="14.4" fill="#e26f46" fill-rule="evenodd" fill-opacity="1" stroke="#000000" stroke-opacity="1" stroke-width="3.2"/>
<circle clip-path="url(#clip962)" cx="999.345" cy="757.683" r="14.4" fill="#e26f46" fill-rule="evenodd" fill-opacity="1" stroke="#000000" stroke-opacity="1" stroke-width="3.2"/>
<circle clip-path="url(#clip962)" cx="1007.28" cy="759.701" r="14.4" fill="#e26f46" fill-rule="evenodd" fill-opacity="1" stroke="#000000" stroke-opacity="1" stroke-width="3.2"/>
<circle clip-path="url(#clip962)" cx="1015.21" cy="722.088" r="14.4" fill="#e26f46" fill-rule="evenodd" fill-opacity="1" stroke="#000000" stroke-opacity="1" stroke-width="3.2"/>
<circle clip-path="url(#clip962)" cx="1023.14" cy="720.81" r="14.4" fill="#e26f46" fill-rule="evenodd" fill-opacity="1" stroke="#000000" stroke-opacity="1" stroke-width="3.2"/>
<circle clip-path="url(#clip962)" cx="1031.07" cy="730.617" r="14.4" fill="#e26f46" fill-rule="evenodd" fill-opacity="1" stroke="#000000" stroke-opacity="1" stroke-width="3.2"/>
<circle clip-path="url(#clip962)" cx="1039" cy="744.435" r="14.4" fill="#e26f46" fill-rule="evenodd" fill-opacity="1" stroke="#000000" stroke-opacity="1" stroke-width="3.2"/>
<circle clip-path="url(#clip962)" cx="1046.93" cy="715.926" r="14.4" fill="#e26f46" fill-rule="evenodd" fill-opacity="1" stroke="#000000" stroke-opacity="1" stroke-width="3.2"/>
<circle clip-path="url(#clip962)" cx="1054.86" cy="765.377" r="14.4" fill="#e26f46" fill-rule="evenodd" fill-opacity="1" stroke="#000000" stroke-opacity="1" stroke-width="3.2"/>
<circle clip-path="url(#clip962)" cx="1062.79" cy="721.516" r="14.4" fill="#e26f46" fill-rule="evenodd" fill-opacity="1" stroke="#000000" stroke-opacity="1" stroke-width="3.2"/>
<circle clip-path="url(#clip962)" cx="1070.72" cy="767.272" r="14.4" fill="#e26f46" fill-rule="evenodd" fill-opacity="1" stroke="#000000" stroke-opacity="1" stroke-width="3.2"/>
<circle clip-path="url(#clip962)" cx="1078.65" cy="685.711" r="14.4" fill="#e26f46" fill-rule="evenodd" fill-opacity="1" stroke="#000000" stroke-opacity="1" stroke-width="3.2"/>
<circle clip-path="url(#clip962)" cx="1086.58" cy="706.552" r="14.4" fill="#e26f46" fill-rule="evenodd" fill-opacity="1" stroke="#000000" stroke-opacity="1" stroke-width="3.2"/>
<circle clip-path="url(#clip962)" cx="1094.52" cy="678.413" r="14.4" fill="#e26f46" fill-rule="evenodd" fill-opacity="1" stroke="#000000" stroke-opacity="1" stroke-width="3.2"/>
<circle clip-path="url(#clip962)" cx="1102.45" cy="668.419" r="14.4" fill="#e26f46" fill-rule="evenodd" fill-opacity="1" stroke="#000000" stroke-opacity="1" stroke-width="3.2"/>
<circle clip-path="url(#clip962)" cx="1110.38" cy="743.562" r="14.4" fill="#e26f46" fill-rule="evenodd" fill-opacity="1" stroke="#000000" stroke-opacity="1" stroke-width="3.2"/>
<circle clip-path="url(#clip962)" cx="1118.31" cy="672.187" r="14.4" fill="#e26f46" fill-rule="evenodd" fill-opacity="1" stroke="#000000" stroke-opacity="1" stroke-width="3.2"/>
<circle clip-path="url(#clip962)" cx="1126.24" cy="711.87" r="14.4" fill="#e26f46" fill-rule="evenodd" fill-opacity="1" stroke="#000000" stroke-opacity="1" stroke-width="3.2"/>
<circle clip-path="url(#clip962)" cx="1134.17" cy="659.914" r="14.4" fill="#e26f46" fill-rule="evenodd" fill-opacity="1" stroke="#000000" stroke-opacity="1" stroke-width="3.2"/>
<circle clip-path="url(#clip962)" cx="1142.1" cy="686.217" r="14.4" fill="#e26f46" fill-rule="evenodd" fill-opacity="1" stroke="#000000" stroke-opacity="1" stroke-width="3.2"/>
<circle clip-path="url(#clip962)" cx="1150.03" cy="689.506" r="14.4" fill="#e26f46" fill-rule="evenodd" fill-opacity="1" stroke="#000000" stroke-opacity="1" stroke-width="3.2"/>
<circle clip-path="url(#clip962)" cx="1157.96" cy="678.491" r="14.4" fill="#e26f46" fill-rule="evenodd" fill-opacity="1" stroke="#000000" stroke-opacity="1" stroke-width="3.2"/>
<circle clip-path="url(#clip962)" cx="1165.89" cy="684.214" r="14.4" fill="#e26f46" fill-rule="evenodd" fill-opacity="1" stroke="#000000" stroke-opacity="1" stroke-width="3.2"/>
<circle clip-path="url(#clip962)" cx="1173.82" cy="683.767" r="14.4" fill="#e26f46" fill-rule="evenodd" fill-opacity="1" stroke="#000000" stroke-opacity="1" stroke-width="3.2"/>
<circle clip-path="url(#clip962)" cx="1181.76" cy="688.156" r="14.4" fill="#e26f46" fill-rule="evenodd" fill-opacity="1" stroke="#000000" stroke-opacity="1" stroke-width="3.2"/>
<circle clip-path="url(#clip962)" cx="1189.69" cy="748.453" r="14.4" fill="#e26f46" fill-rule="evenodd" fill-opacity="1" stroke="#000000" stroke-opacity="1" stroke-width="3.2"/>
<circle clip-path="url(#clip962)" cx="1197.62" cy="707.528" r="14.4" fill="#e26f46" fill-rule="evenodd" fill-opacity="1" stroke="#000000" stroke-opacity="1" stroke-width="3.2"/>
<circle clip-path="url(#clip962)" cx="1205.55" cy="705.306" r="14.4" fill="#e26f46" fill-rule="evenodd" fill-opacity="1" stroke="#000000" stroke-opacity="1" stroke-width="3.2"/>
<circle clip-path="url(#clip962)" cx="1213.48" cy="817.303" r="14.4" fill="#e26f46" fill-rule="evenodd" fill-opacity="1" stroke="#000000" stroke-opacity="1" stroke-width="3.2"/>
<circle clip-path="url(#clip962)" cx="1221.41" cy="716.543" r="14.4" fill="#e26f46" fill-rule="evenodd" fill-opacity="1" stroke="#000000" stroke-opacity="1" stroke-width="3.2"/>
<circle clip-path="url(#clip962)" cx="1229.34" cy="775.542" r="14.4" fill="#e26f46" fill-rule="evenodd" fill-opacity="1" stroke="#000000" stroke-opacity="1" stroke-width="3.2"/>
<circle clip-path="url(#clip962)" cx="1237.27" cy="749.94" r="14.4" fill="#e26f46" fill-rule="evenodd" fill-opacity="1" stroke="#000000" stroke-opacity="1" stroke-width="3.2"/>
<circle clip-path="url(#clip962)" cx="1245.2" cy="810.955" r="14.4" fill="#e26f46" fill-rule="evenodd" fill-opacity="1" stroke="#000000" stroke-opacity="1" stroke-width="3.2"/>
<circle clip-path="url(#clip962)" cx="1253.13" cy="768.957" r="14.4" fill="#e26f46" fill-rule="evenodd" fill-opacity="1" stroke="#000000" stroke-opacity="1" stroke-width="3.2"/>
<circle clip-path="url(#clip962)" cx="1261.06" cy="718.163" r="14.4" fill="#e26f46" fill-rule="evenodd" fill-opacity="1" stroke="#000000" stroke-opacity="1" stroke-width="3.2"/>
<circle clip-path="url(#clip962)" cx="1269" cy="791.388" r="14.4" fill="#e26f46" fill-rule="evenodd" fill-opacity="1" stroke="#000000" stroke-opacity="1" stroke-width="3.2"/>
<circle clip-path="url(#clip962)" cx="1276.93" cy="862.247" r="14.4" fill="#e26f46" fill-rule="evenodd" fill-opacity="1" stroke="#000000" stroke-opacity="1" stroke-width="3.2"/>
<circle clip-path="url(#clip962)" cx="1284.86" cy="798.729" r="14.4" fill="#e26f46" fill-rule="evenodd" fill-opacity="1" stroke="#000000" stroke-opacity="1" stroke-width="3.2"/>
<circle clip-path="url(#clip962)" cx="1292.79" cy="780.52" r="14.4" fill="#e26f46" fill-rule="evenodd" fill-opacity="1" stroke="#000000" stroke-opacity="1" stroke-width="3.2"/>
<circle clip-path="url(#clip962)" cx="1300.72" cy="852.94" r="14.4" fill="#e26f46" fill-rule="evenodd" fill-opacity="1" stroke="#000000" stroke-opacity="1" stroke-width="3.2"/>
<circle clip-path="url(#clip962)" cx="1308.65" cy="809.769" r="14.4" fill="#e26f46" fill-rule="evenodd" fill-opacity="1" stroke="#000000" stroke-opacity="1" stroke-width="3.2"/>
<circle clip-path="url(#clip962)" cx="1316.58" cy="893.167" r="14.4" fill="#e26f46" fill-rule="evenodd" fill-opacity="1" stroke="#000000" stroke-opacity="1" stroke-width="3.2"/>
<circle clip-path="url(#clip962)" cx="1324.51" cy="908.27" r="14.4" fill="#e26f46" fill-rule="evenodd" fill-opacity="1" stroke="#000000" stroke-opacity="1" stroke-width="3.2"/>
<circle clip-path="url(#clip962)" cx="1332.44" cy="907.911" r="14.4" fill="#e26f46" fill-rule="evenodd" fill-opacity="1" stroke="#000000" stroke-opacity="1" stroke-width="3.2"/>
<circle clip-path="url(#clip962)" cx="1340.37" cy="960.124" r="14.4" fill="#e26f46" fill-rule="evenodd" fill-opacity="1" stroke="#000000" stroke-opacity="1" stroke-width="3.2"/>
<circle clip-path="url(#clip962)" cx="1348.31" cy="1000.13" r="14.4" fill="#e26f46" fill-rule="evenodd" fill-opacity="1" stroke="#000000" stroke-opacity="1" stroke-width="3.2"/>
<circle clip-path="url(#clip962)" cx="1356.24" cy="959.212" r="14.4" fill="#e26f46" fill-rule="evenodd" fill-opacity="1" stroke="#000000" stroke-opacity="1" stroke-width="3.2"/>
<circle clip-path="url(#clip962)" cx="1364.17" cy="963.933" r="14.4" fill="#e26f46" fill-rule="evenodd" fill-opacity="1" stroke="#000000" stroke-opacity="1" stroke-width="3.2"/>
<circle clip-path="url(#clip962)" cx="1372.1" cy="1016.32" r="14.4" fill="#e26f46" fill-rule="evenodd" fill-opacity="1" stroke="#000000" stroke-opacity="1" stroke-width="3.2"/>
<circle clip-path="url(#clip962)" cx="1380.03" cy="1058.44" r="14.4" fill="#e26f46" fill-rule="evenodd" fill-opacity="1" stroke="#000000" stroke-opacity="1" stroke-width="3.2"/>
<circle clip-path="url(#clip962)" cx="1387.96" cy="1030.52" r="14.4" fill="#e26f46" fill-rule="evenodd" fill-opacity="1" stroke="#000000" stroke-opacity="1" stroke-width="3.2"/>
<circle clip-path="url(#clip962)" cx="1395.89" cy="1076.46" r="14.4" fill="#e26f46" fill-rule="evenodd" fill-opacity="1" stroke="#000000" stroke-opacity="1" stroke-width="3.2"/>
<circle clip-path="url(#clip962)" cx="1403.82" cy="1159.44" r="14.4" fill="#e26f46" fill-rule="evenodd" fill-opacity="1" stroke="#000000" stroke-opacity="1" stroke-width="3.2"/>
<circle clip-path="url(#clip962)" cx="1411.75" cy="1142.53" r="14.4" fill="#e26f46" fill-rule="evenodd" fill-opacity="1" stroke="#000000" stroke-opacity="1" stroke-width="3.2"/>
<circle clip-path="url(#clip962)" cx="1419.68" cy="1115.82" r="14.4" fill="#e26f46" fill-rule="evenodd" fill-opacity="1" stroke="#000000" stroke-opacity="1" stroke-width="3.2"/>
<circle clip-path="url(#clip962)" cx="1427.61" cy="1118.55" r="14.4" fill="#e26f46" fill-rule="evenodd" fill-opacity="1" stroke="#000000" stroke-opacity="1" stroke-width="3.2"/>
<circle clip-path="url(#clip962)" cx="1435.55" cy="1166.02" r="14.4" fill="#e26f46" fill-rule="evenodd" fill-opacity="1" stroke="#000000" stroke-opacity="1" stroke-width="3.2"/>
<circle clip-path="url(#clip962)" cx="1443.48" cy="1165.94" r="14.4" fill="#e26f46" fill-rule="evenodd" fill-opacity="1" stroke="#000000" stroke-opacity="1" stroke-width="3.2"/>
<circle clip-path="url(#clip962)" cx="1451.41" cy="1135.9" r="14.4" fill="#e26f46" fill-rule="evenodd" fill-opacity="1" stroke="#000000" stroke-opacity="1" stroke-width="3.2"/>
<circle clip-path="url(#clip962)" cx="1459.34" cy="1162.79" r="14.4" fill="#e26f46" fill-rule="evenodd" fill-opacity="1" stroke="#000000" stroke-opacity="1" stroke-width="3.2"/>
<circle clip-path="url(#clip962)" cx="1467.27" cy="1161.74" r="14.4" fill="#e26f46" fill-rule="evenodd" fill-opacity="1" stroke="#000000" stroke-opacity="1" stroke-width="3.2"/>
<circle clip-path="url(#clip962)" cx="1475.2" cy="1227.98" r="14.4" fill="#e26f46" fill-rule="evenodd" fill-opacity="1" stroke="#000000" stroke-opacity="1" stroke-width="3.2"/>
<circle clip-path="url(#clip962)" cx="1483.13" cy="1157.2" r="14.4" fill="#e26f46" fill-rule="evenodd" fill-opacity="1" stroke="#000000" stroke-opacity="1" stroke-width="3.2"/>
<circle clip-path="url(#clip962)" cx="1491.06" cy="1171.19" r="14.4" fill="#e26f46" fill-rule="evenodd" fill-opacity="1" stroke="#000000" stroke-opacity="1" stroke-width="3.2"/>
<circle clip-path="url(#clip962)" cx="1498.99" cy="1195.64" r="14.4" fill="#e26f46" fill-rule="evenodd" fill-opacity="1" stroke="#000000" stroke-opacity="1" stroke-width="3.2"/>
<circle clip-path="url(#clip962)" cx="1506.92" cy="1223.59" r="14.4" fill="#e26f46" fill-rule="evenodd" fill-opacity="1" stroke="#000000" stroke-opacity="1" stroke-width="3.2"/>
<circle clip-path="url(#clip962)" cx="1514.85" cy="1187.6" r="14.4" fill="#e26f46" fill-rule="evenodd" fill-opacity="1" stroke="#000000" stroke-opacity="1" stroke-width="3.2"/>
<circle clip-path="url(#clip962)" cx="1522.79" cy="1158.08" r="14.4" fill="#e26f46" fill-rule="evenodd" fill-opacity="1" stroke="#000000" stroke-opacity="1" stroke-width="3.2"/>
<circle clip-path="url(#clip962)" cx="1530.72" cy="1172.62" r="14.4" fill="#e26f46" fill-rule="evenodd" fill-opacity="1" stroke="#000000" stroke-opacity="1" stroke-width="3.2"/>
<circle clip-path="url(#clip962)" cx="1538.65" cy="1133.1" r="14.4" fill="#e26f46" fill-rule="evenodd" fill-opacity="1" stroke="#000000" stroke-opacity="1" stroke-width="3.2"/>
<circle clip-path="url(#clip962)" cx="1546.58" cy="1184.92" r="14.4" fill="#e26f46" fill-rule="evenodd" fill-opacity="1" stroke="#000000" stroke-opacity="1" stroke-width="3.2"/>
<circle clip-path="url(#clip962)" cx="1554.51" cy="1110.36" r="14.4" fill="#e26f46" fill-rule="evenodd" fill-opacity="1" stroke="#000000" stroke-opacity="1" stroke-width="3.2"/>
<circle clip-path="url(#clip962)" cx="1562.44" cy="1132.89" r="14.4" fill="#e26f46" fill-rule="evenodd" fill-opacity="1" stroke="#000000" stroke-opacity="1" stroke-width="3.2"/>
<circle clip-path="url(#clip962)" cx="1570.37" cy="1179.52" r="14.4" fill="#e26f46" fill-rule="evenodd" fill-opacity="1" stroke="#000000" stroke-opacity="1" stroke-width="3.2"/>
<circle clip-path="url(#clip962)" cx="1578.3" cy="1095.71" r="14.4" fill="#e26f46" fill-rule="evenodd" fill-opacity="1" stroke="#000000" stroke-opacity="1" stroke-width="3.2"/>
<circle clip-path="url(#clip962)" cx="1586.23" cy="1109.4" r="14.4" fill="#e26f46" fill-rule="evenodd" fill-opacity="1" stroke="#000000" stroke-opacity="1" stroke-width="3.2"/>
<circle clip-path="url(#clip962)" cx="1594.16" cy="1141.66" r="14.4" fill="#e26f46" fill-rule="evenodd" fill-opacity="1" stroke="#000000" stroke-opacity="1" stroke-width="3.2"/>
<circle clip-path="url(#clip962)" cx="1602.09" cy="1210.59" r="14.4" fill="#e26f46" fill-rule="evenodd" fill-opacity="1" stroke="#000000" stroke-opacity="1" stroke-width="3.2"/>
<circle clip-path="url(#clip962)" cx="1610.03" cy="1145.72" r="14.4" fill="#e26f46" fill-rule="evenodd" fill-opacity="1" stroke="#000000" stroke-opacity="1" stroke-width="3.2"/>
<circle clip-path="url(#clip962)" cx="1617.96" cy="1164.65" r="14.4" fill="#e26f46" fill-rule="evenodd" fill-opacity="1" stroke="#000000" stroke-opacity="1" stroke-width="3.2"/>
<circle clip-path="url(#clip962)" cx="1625.89" cy="1158.4" r="14.4" fill="#e26f46" fill-rule="evenodd" fill-opacity="1" stroke="#000000" stroke-opacity="1" stroke-width="3.2"/>
<circle clip-path="url(#clip962)" cx="1633.82" cy="1192.01" r="14.4" fill="#e26f46" fill-rule="evenodd" fill-opacity="1" stroke="#000000" stroke-opacity="1" stroke-width="3.2"/>
<circle clip-path="url(#clip962)" cx="1641.75" cy="1186.21" r="14.4" fill="#e26f46" fill-rule="evenodd" fill-opacity="1" stroke="#000000" stroke-opacity="1" stroke-width="3.2"/>
<circle clip-path="url(#clip962)" cx="1649.68" cy="1211.86" r="14.4" fill="#e26f46" fill-rule="evenodd" fill-opacity="1" stroke="#000000" stroke-opacity="1" stroke-width="3.2"/>
<circle clip-path="url(#clip962)" cx="1657.61" cy="1191.9" r="14.4" fill="#e26f46" fill-rule="evenodd" fill-opacity="1" stroke="#000000" stroke-opacity="1" stroke-width="3.2"/>
<circle clip-path="url(#clip962)" cx="1665.54" cy="1216.75" r="14.4" fill="#e26f46" fill-rule="evenodd" fill-opacity="1" stroke="#000000" stroke-opacity="1" stroke-width="3.2"/>
<circle clip-path="url(#clip962)" cx="1673.47" cy="1174.75" r="14.4" fill="#e26f46" fill-rule="evenodd" fill-opacity="1" stroke="#000000" stroke-opacity="1" stroke-width="3.2"/>
<circle clip-path="url(#clip962)" cx="1681.4" cy="1210.41" r="14.4" fill="#e26f46" fill-rule="evenodd" fill-opacity="1" stroke="#000000" stroke-opacity="1" stroke-width="3.2"/>
<circle clip-path="url(#clip962)" cx="1689.33" cy="1222.41" r="14.4" fill="#e26f46" fill-rule="evenodd" fill-opacity="1" stroke="#000000" stroke-opacity="1" stroke-width="3.2"/>
<circle clip-path="url(#clip962)" cx="1697.27" cy="1191.92" r="14.4" fill="#e26f46" fill-rule="evenodd" fill-opacity="1" stroke="#000000" stroke-opacity="1" stroke-width="3.2"/>
<circle clip-path="url(#clip962)" cx="1705.2" cy="1231.6" r="14.4" fill="#e26f46" fill-rule="evenodd" fill-opacity="1" stroke="#000000" stroke-opacity="1" stroke-width="3.2"/>
<circle clip-path="url(#clip962)" cx="1713.13" cy="1248.26" r="14.4" fill="#e26f46" fill-rule="evenodd" fill-opacity="1" stroke="#000000" stroke-opacity="1" stroke-width="3.2"/>
<circle clip-path="url(#clip962)" cx="1721.06" cy="1289.74" r="14.4" fill="#e26f46" fill-rule="evenodd" fill-opacity="1" stroke="#000000" stroke-opacity="1" stroke-width="3.2"/>
<circle clip-path="url(#clip962)" cx="1728.99" cy="1297.84" r="14.4" fill="#e26f46" fill-rule="evenodd" fill-opacity="1" stroke="#000000" stroke-opacity="1" stroke-width="3.2"/>
<circle clip-path="url(#clip962)" cx="1736.92" cy="1274.87" r="14.4" fill="#e26f46" fill-rule="evenodd" fill-opacity="1" stroke="#000000" stroke-opacity="1" stroke-width="3.2"/>
<circle clip-path="url(#clip962)" cx="1744.85" cy="1298.13" r="14.4" fill="#e26f46" fill-rule="evenodd" fill-opacity="1" stroke="#000000" stroke-opacity="1" stroke-width="3.2"/>
<circle clip-path="url(#clip962)" cx="1752.78" cy="1284.74" r="14.4" fill="#e26f46" fill-rule="evenodd" fill-opacity="1" stroke="#000000" stroke-opacity="1" stroke-width="3.2"/>
<circle clip-path="url(#clip962)" cx="1760.71" cy="1312.74" r="14.4" fill="#e26f46" fill-rule="evenodd" fill-opacity="1" stroke="#000000" stroke-opacity="1" stroke-width="3.2"/>
<circle clip-path="url(#clip962)" cx="1768.64" cy="1284.5" r="14.4" fill="#e26f46" fill-rule="evenodd" fill-opacity="1" stroke="#000000" stroke-opacity="1" stroke-width="3.2"/>
<circle clip-path="url(#clip962)" cx="1776.57" cy="1302.11" r="14.4" fill="#e26f46" fill-rule="evenodd" fill-opacity="1" stroke="#000000" stroke-opacity="1" stroke-width="3.2"/>
<circle clip-path="url(#clip962)" cx="1784.51" cy="1332.03" r="14.4" fill="#e26f46" fill-rule="evenodd" fill-opacity="1" stroke="#000000" stroke-opacity="1" stroke-width="3.2"/>
<circle clip-path="url(#clip962)" cx="1792.44" cy="1300.35" r="14.4" fill="#e26f46" fill-rule="evenodd" fill-opacity="1" stroke="#000000" stroke-opacity="1" stroke-width="3.2"/>
<circle clip-path="url(#clip962)" cx="1800.37" cy="1282.75" r="14.4" fill="#e26f46" fill-rule="evenodd" fill-opacity="1" stroke="#000000" stroke-opacity="1" stroke-width="3.2"/>
<circle clip-path="url(#clip962)" cx="1808.3" cy="1325.07" r="14.4" fill="#e26f46" fill-rule="evenodd" fill-opacity="1" stroke="#000000" stroke-opacity="1" stroke-width="3.2"/>
<circle clip-path="url(#clip962)" cx="1816.23" cy="1336.85" r="14.4" fill="#e26f46" fill-rule="evenodd" fill-opacity="1" stroke="#000000" stroke-opacity="1" stroke-width="3.2"/>
<circle clip-path="url(#clip962)" cx="1824.16" cy="1320" r="14.4" fill="#e26f46" fill-rule="evenodd" fill-opacity="1" stroke="#000000" stroke-opacity="1" stroke-width="3.2"/>
<circle clip-path="url(#clip962)" cx="1832.09" cy="1304.07" r="14.4" fill="#e26f46" fill-rule="evenodd" fill-opacity="1" stroke="#000000" stroke-opacity="1" stroke-width="3.2"/>
<circle clip-path="url(#clip962)" cx="1840.02" cy="1354.68" r="14.4" fill="#e26f46" fill-rule="evenodd" fill-opacity="1" stroke="#000000" stroke-opacity="1" stroke-width="3.2"/>
<circle clip-path="url(#clip962)" cx="1847.95" cy="1382.63" r="14.4" fill="#e26f46" fill-rule="evenodd" fill-opacity="1" stroke="#000000" stroke-opacity="1" stroke-width="3.2"/>
<circle clip-path="url(#clip962)" cx="1855.88" cy="1348.88" r="14.4" fill="#e26f46" fill-rule="evenodd" fill-opacity="1" stroke="#000000" stroke-opacity="1" stroke-width="3.2"/>
<circle clip-path="url(#clip962)" cx="1863.81" cy="1345.58" r="14.4" fill="#e26f46" fill-rule="evenodd" fill-opacity="1" stroke="#000000" stroke-opacity="1" stroke-width="3.2"/>
<circle clip-path="url(#clip962)" cx="1871.75" cy="1401.41" r="14.4" fill="#e26f46" fill-rule="evenodd" fill-opacity="1" stroke="#000000" stroke-opacity="1" stroke-width="3.2"/>
<circle clip-path="url(#clip962)" cx="1879.68" cy="1346.45" r="14.4" fill="#e26f46" fill-rule="evenodd" fill-opacity="1" stroke="#000000" stroke-opacity="1" stroke-width="3.2"/>
<circle clip-path="url(#clip962)" cx="1887.61" cy="1359.03" r="14.4" fill="#e26f46" fill-rule="evenodd" fill-opacity="1" stroke="#000000" stroke-opacity="1" stroke-width="3.2"/>
<circle clip-path="url(#clip962)" cx="1895.54" cy="1342.53" r="14.4" fill="#e26f46" fill-rule="evenodd" fill-opacity="1" stroke="#000000" stroke-opacity="1" stroke-width="3.2"/>
<circle clip-path="url(#clip962)" cx="1903.47" cy="1329.09" r="14.4" fill="#e26f46" fill-rule="evenodd" fill-opacity="1" stroke="#000000" stroke-opacity="1" stroke-width="3.2"/>
<circle clip-path="url(#clip962)" cx="1911.4" cy="1358.12" r="14.4" fill="#e26f46" fill-rule="evenodd" fill-opacity="1" stroke="#000000" stroke-opacity="1" stroke-width="3.2"/>
<circle clip-path="url(#clip962)" cx="1919.33" cy="1413.19" r="14.4" fill="#e26f46" fill-rule="evenodd" fill-opacity="1" stroke="#000000" stroke-opacity="1" stroke-width="3.2"/>
<circle clip-path="url(#clip962)" cx="1927.26" cy="1323.35" r="14.4" fill="#e26f46" fill-rule="evenodd" fill-opacity="1" stroke="#000000" stroke-opacity="1" stroke-width="3.2"/>
<circle clip-path="url(#clip962)" cx="1935.19" cy="1361.15" r="14.4" fill="#e26f46" fill-rule="evenodd" fill-opacity="1" stroke="#000000" stroke-opacity="1" stroke-width="3.2"/>
<circle clip-path="url(#clip962)" cx="1943.12" cy="1349.59" r="14.4" fill="#e26f46" fill-rule="evenodd" fill-opacity="1" stroke="#000000" stroke-opacity="1" stroke-width="3.2"/>
<circle clip-path="url(#clip962)" cx="1951.05" cy="1418.43" r="14.4" fill="#e26f46" fill-rule="evenodd" fill-opacity="1" stroke="#000000" stroke-opacity="1" stroke-width="3.2"/>
<circle clip-path="url(#clip962)" cx="1958.99" cy="1378.06" r="14.4" fill="#e26f46" fill-rule="evenodd" fill-opacity="1" stroke="#000000" stroke-opacity="1" stroke-width="3.2"/>
<circle clip-path="url(#clip962)" cx="1966.92" cy="1317.9" r="14.4" fill="#e26f46" fill-rule="evenodd" fill-opacity="1" stroke="#000000" stroke-opacity="1" stroke-width="3.2"/>
<circle clip-path="url(#clip962)" cx="1974.85" cy="1415.52" r="14.4" fill="#e26f46" fill-rule="evenodd" fill-opacity="1" stroke="#000000" stroke-opacity="1" stroke-width="3.2"/>
<circle clip-path="url(#clip962)" cx="1982.78" cy="1445.72" r="14.4" fill="#e26f46" fill-rule="evenodd" fill-opacity="1" stroke="#000000" stroke-opacity="1" stroke-width="3.2"/>
<circle clip-path="url(#clip962)" cx="1990.71" cy="1351.35" r="14.4" fill="#e26f46" fill-rule="evenodd" fill-opacity="1" stroke="#000000" stroke-opacity="1" stroke-width="3.2"/>
<circle clip-path="url(#clip962)" cx="1998.64" cy="1378.9" r="14.4" fill="#e26f46" fill-rule="evenodd" fill-opacity="1" stroke="#000000" stroke-opacity="1" stroke-width="3.2"/>
<circle clip-path="url(#clip962)" cx="2006.57" cy="1406.47" r="14.4" fill="#e26f46" fill-rule="evenodd" fill-opacity="1" stroke="#000000" stroke-opacity="1" stroke-width="3.2"/>
<circle clip-path="url(#clip962)" cx="2014.5" cy="1391.79" r="14.4" fill="#e26f46" fill-rule="evenodd" fill-opacity="1" stroke="#000000" stroke-opacity="1" stroke-width="3.2"/>
<circle clip-path="url(#clip962)" cx="2022.43" cy="1371.94" r="14.4" fill="#e26f46" fill-rule="evenodd" fill-opacity="1" stroke="#000000" stroke-opacity="1" stroke-width="3.2"/>
<circle clip-path="url(#clip962)" cx="2030.36" cy="1357.16" r="14.4" fill="#e26f46" fill-rule="evenodd" fill-opacity="1" stroke="#000000" stroke-opacity="1" stroke-width="3.2"/>
<circle clip-path="url(#clip962)" cx="2038.29" cy="1377.67" r="14.4" fill="#e26f46" fill-rule="evenodd" fill-opacity="1" stroke="#000000" stroke-opacity="1" stroke-width="3.2"/>
<circle clip-path="url(#clip962)" cx="2046.23" cy="1398.14" r="14.4" fill="#e26f46" fill-rule="evenodd" fill-opacity="1" stroke="#000000" stroke-opacity="1" stroke-width="3.2"/>
<circle clip-path="url(#clip962)" cx="2054.16" cy="1344.91" r="14.4" fill="#e26f46" fill-rule="evenodd" fill-opacity="1" stroke="#000000" stroke-opacity="1" stroke-width="3.2"/>
<circle clip-path="url(#clip962)" cx="2062.09" cy="1412.64" r="14.4" fill="#e26f46" fill-rule="evenodd" fill-opacity="1" stroke="#000000" stroke-opacity="1" stroke-width="3.2"/>
<circle clip-path="url(#clip962)" cx="2070.02" cy="1410.81" r="14.4" fill="#e26f46" fill-rule="evenodd" fill-opacity="1" stroke="#000000" stroke-opacity="1" stroke-width="3.2"/>
<circle clip-path="url(#clip962)" cx="2077.95" cy="1377.8" r="14.4" fill="#e26f46" fill-rule="evenodd" fill-opacity="1" stroke="#000000" stroke-opacity="1" stroke-width="3.2"/>
<circle clip-path="url(#clip962)" cx="2085.88" cy="1429.83" r="14.4" fill="#e26f46" fill-rule="evenodd" fill-opacity="1" stroke="#000000" stroke-opacity="1" stroke-width="3.2"/>
<circle clip-path="url(#clip962)" cx="2093.81" cy="1348.53" r="14.4" fill="#e26f46" fill-rule="evenodd" fill-opacity="1" stroke="#000000" stroke-opacity="1" stroke-width="3.2"/>
<circle clip-path="url(#clip962)" cx="2101.74" cy="1429.68" r="14.4" fill="#e26f46" fill-rule="evenodd" fill-opacity="1" stroke="#000000" stroke-opacity="1" stroke-width="3.2"/>
<circle clip-path="url(#clip962)" cx="2109.67" cy="1392.59" r="14.4" fill="#e26f46" fill-rule="evenodd" fill-opacity="1" stroke="#000000" stroke-opacity="1" stroke-width="3.2"/>
<circle clip-path="url(#clip962)" cx="2117.6" cy="1364.9" r="14.4" fill="#e26f46" fill-rule="evenodd" fill-opacity="1" stroke="#000000" stroke-opacity="1" stroke-width="3.2"/>
<circle clip-path="url(#clip962)" cx="2125.54" cy="1366.74" r="14.4" fill="#e26f46" fill-rule="evenodd" fill-opacity="1" stroke="#000000" stroke-opacity="1" stroke-width="3.2"/>
<circle clip-path="url(#clip962)" cx="2133.47" cy="1320.41" r="14.4" fill="#e26f46" fill-rule="evenodd" fill-opacity="1" stroke="#000000" stroke-opacity="1" stroke-width="3.2"/>
<circle clip-path="url(#clip962)" cx="2141.4" cy="1354.57" r="14.4" fill="#e26f46" fill-rule="evenodd" fill-opacity="1" stroke="#000000" stroke-opacity="1" stroke-width="3.2"/>
<circle clip-path="url(#clip962)" cx="2149.33" cy="1320.41" r="14.4" fill="#e26f46" fill-rule="evenodd" fill-opacity="1" stroke="#000000" stroke-opacity="1" stroke-width="3.2"/>
<circle clip-path="url(#clip962)" cx="2157.26" cy="1344.99" r="14.4" fill="#e26f46" fill-rule="evenodd" fill-opacity="1" stroke="#000000" stroke-opacity="1" stroke-width="3.2"/>
<circle clip-path="url(#clip962)" cx="2165.19" cy="1397.58" r="14.4" fill="#e26f46" fill-rule="evenodd" fill-opacity="1" stroke="#000000" stroke-opacity="1" stroke-width="3.2"/>
<circle clip-path="url(#clip962)" cx="2173.12" cy="1312.83" r="14.4" fill="#e26f46" fill-rule="evenodd" fill-opacity="1" stroke="#000000" stroke-opacity="1" stroke-width="3.2"/>
<circle clip-path="url(#clip962)" cx="2181.05" cy="1406.58" r="14.4" fill="#e26f46" fill-rule="evenodd" fill-opacity="1" stroke="#000000" stroke-opacity="1" stroke-width="3.2"/>
<circle clip-path="url(#clip962)" cx="2188.98" cy="1368.36" r="14.4" fill="#e26f46" fill-rule="evenodd" fill-opacity="1" stroke="#000000" stroke-opacity="1" stroke-width="3.2"/>
<circle clip-path="url(#clip962)" cx="2196.91" cy="1353.17" r="14.4" fill="#e26f46" fill-rule="evenodd" fill-opacity="1" stroke="#000000" stroke-opacity="1" stroke-width="3.2"/>
<circle clip-path="url(#clip962)" cx="2204.84" cy="1321" r="14.4" fill="#e26f46" fill-rule="evenodd" fill-opacity="1" stroke="#000000" stroke-opacity="1" stroke-width="3.2"/>
<circle clip-path="url(#clip962)" cx="2212.78" cy="1301.95" r="14.4" fill="#e26f46" fill-rule="evenodd" fill-opacity="1" stroke="#000000" stroke-opacity="1" stroke-width="3.2"/>
<circle clip-path="url(#clip962)" cx="2220.71" cy="1327.88" r="14.4" fill="#e26f46" fill-rule="evenodd" fill-opacity="1" stroke="#000000" stroke-opacity="1" stroke-width="3.2"/>
<circle clip-path="url(#clip962)" cx="2228.64" cy="1280.22" r="14.4" fill="#e26f46" fill-rule="evenodd" fill-opacity="1" stroke="#000000" stroke-opacity="1" stroke-width="3.2"/>
<circle clip-path="url(#clip962)" cx="2236.57" cy="1217.91" r="14.4" fill="#e26f46" fill-rule="evenodd" fill-opacity="1" stroke="#000000" stroke-opacity="1" stroke-width="3.2"/>
<circle clip-path="url(#clip962)" cx="2244.5" cy="1217.98" r="14.4" fill="#e26f46" fill-rule="evenodd" fill-opacity="1" stroke="#000000" stroke-opacity="1" stroke-width="3.2"/>
<circle clip-path="url(#clip962)" cx="2252.43" cy="1248.95" r="14.4" fill="#e26f46" fill-rule="evenodd" fill-opacity="1" stroke="#000000" stroke-opacity="1" stroke-width="3.2"/>
<circle clip-path="url(#clip962)" cx="2260.36" cy="1253.82" r="14.4" fill="#e26f46" fill-rule="evenodd" fill-opacity="1" stroke="#000000" stroke-opacity="1" stroke-width="3.2"/>
<circle clip-path="url(#clip962)" cx="2268.29" cy="1189.49" r="14.4" fill="#e26f46" fill-rule="evenodd" fill-opacity="1" stroke="#000000" stroke-opacity="1" stroke-width="3.2"/>
<circle clip-path="url(#clip962)" cx="2276.22" cy="1164.78" r="14.4" fill="#e26f46" fill-rule="evenodd" fill-opacity="1" stroke="#000000" stroke-opacity="1" stroke-width="3.2"/>
<circle clip-path="url(#clip962)" cx="2284.15" cy="1207.43" r="14.4" fill="#e26f46" fill-rule="evenodd" fill-opacity="1" stroke="#000000" stroke-opacity="1" stroke-width="3.2"/>
<circle clip-path="url(#clip962)" cx="2292.08" cy="1216.35" r="14.4" fill="#e26f46" fill-rule="evenodd" fill-opacity="1" stroke="#000000" stroke-opacity="1" stroke-width="3.2"/>
<path clip-path="url(#clip960)" d="M1758.52 250.738 L2281.3 250.738 L2281.3 95.2176 L1758.52 95.2176  Z" fill="#ffffff" fill-rule="evenodd" fill-opacity="1"/>
<polyline clip-path="url(#clip960)" style="stroke:#000000; stroke-linecap:round; stroke-linejoin:round; stroke-width:4; stroke-opacity:1; fill:none" points="1758.52,250.738 2281.3,250.738 2281.3,95.2176 1758.52,95.2176 1758.52,250.738 "/>
<polyline clip-path="url(#clip960)" style="stroke:#009af9; stroke-linecap:round; stroke-linejoin:round; stroke-width:4; stroke-opacity:1; fill:none" points="1782.34,147.058 1925.26,147.058 "/>
<path clip-path="url(#clip960)" d="M1949.08 129.778 L1978.31 129.778 L1978.31 133.713 L1966.05 133.713 L1966.05 164.338 L1961.35 164.338 L1961.35 133.713 L1949.08 133.713 L1949.08 129.778 Z" fill="#000000" fill-rule="nonzero" fill-opacity="1" /><path clip-path="url(#clip960)" d="M1990.7 142.393 Q1989.98 141.977 1989.12 141.791 Q1988.29 141.583 1987.27 141.583 Q1983.66 141.583 1981.72 143.944 Q1979.8 146.282 1979.8 150.68 L1979.8 164.338 L1975.51 164.338 L1975.51 138.412 L1979.8 138.412 L1979.8 142.44 Q1981.14 140.078 1983.29 138.944 Q1985.44 137.787 1988.52 137.787 Q1988.96 137.787 1989.49 137.856 Q1990.03 137.903 1990.68 138.018 L1990.7 142.393 Z" fill="#000000" fill-rule="nonzero" fill-opacity="1" /><path clip-path="url(#clip960)" d="M1994.73 154.106 L1994.73 138.412 L1998.99 138.412 L1998.99 153.944 Q1998.99 157.625 2000.42 159.476 Q2001.86 161.305 2004.73 161.305 Q2008.17 161.305 2010.17 159.106 Q2012.18 156.907 2012.18 153.111 L2012.18 138.412 L2016.44 138.412 L2016.44 164.338 L2012.18 164.338 L2012.18 160.356 Q2010.63 162.717 2008.57 163.875 Q2006.53 165.009 2003.82 165.009 Q1999.36 165.009 1997.04 162.231 Q1994.73 159.453 1994.73 154.106 M2005.44 137.787 L2005.44 137.787 Z" fill="#000000" fill-rule="nonzero" fill-opacity="1" /><path clip-path="url(#clip960)" d="M2047.39 150.31 L2047.39 152.393 L2027.8 152.393 Q2028.08 156.791 2030.44 159.106 Q2032.83 161.398 2037.06 161.398 Q2039.52 161.398 2041.81 160.796 Q2044.12 160.194 2046.39 158.99 L2046.39 163.018 Q2044.1 163.99 2041.69 164.5 Q2039.29 165.009 2036.81 165.009 Q2030.61 165.009 2026.97 161.398 Q2023.36 157.787 2023.36 151.629 Q2023.36 145.264 2026.79 141.537 Q2030.23 137.787 2036.07 137.787 Q2041.3 137.787 2044.33 141.166 Q2047.39 144.523 2047.39 150.31 M2043.13 149.06 Q2043.08 145.565 2041.16 143.481 Q2039.26 141.398 2036.11 141.398 Q2032.55 141.398 2030.4 143.412 Q2028.27 145.426 2027.94 149.083 L2043.13 149.06 Z" fill="#000000" fill-rule="nonzero" fill-opacity="1" /><path clip-path="url(#clip960)" d="M2085.98 139.176 L2085.98 143.203 Q2084.17 142.277 2082.23 141.815 Q2080.28 141.352 2078.2 141.352 Q2075.03 141.352 2073.43 142.324 Q2071.86 143.296 2071.86 145.24 Q2071.86 146.722 2072.99 147.578 Q2074.12 148.412 2077.55 149.176 L2079.01 149.5 Q2083.54 150.472 2085.44 152.254 Q2087.36 154.014 2087.36 157.185 Q2087.36 160.796 2084.49 162.902 Q2081.65 165.009 2076.65 165.009 Q2074.56 165.009 2072.29 164.592 Q2070.05 164.199 2067.55 163.388 L2067.55 158.99 Q2069.91 160.217 2072.2 160.842 Q2074.49 161.444 2076.74 161.444 Q2079.75 161.444 2081.37 160.426 Q2082.99 159.384 2082.99 157.509 Q2082.99 155.773 2081.81 154.847 Q2080.65 153.921 2076.69 153.064 L2075.21 152.717 Q2071.25 151.884 2069.49 150.171 Q2067.73 148.435 2067.73 145.426 Q2067.73 141.768 2070.33 139.778 Q2072.92 137.787 2077.69 137.787 Q2080.05 137.787 2082.13 138.134 Q2084.22 138.481 2085.98 139.176 Z" fill="#000000" fill-rule="nonzero" fill-opacity="1" /><path clip-path="url(#clip960)" d="M2098.36 131.051 L2098.36 138.412 L2107.13 138.412 L2107.13 141.722 L2098.36 141.722 L2098.36 155.796 Q2098.36 158.967 2099.22 159.87 Q2100.1 160.773 2102.76 160.773 L2107.13 160.773 L2107.13 164.338 L2102.76 164.338 Q2097.83 164.338 2095.95 162.509 Q2094.08 160.657 2094.08 155.796 L2094.08 141.722 L2090.95 141.722 L2090.95 138.412 L2094.08 138.412 L2094.08 131.051 L2098.36 131.051 Z" fill="#000000" fill-rule="nonzero" fill-opacity="1" /><path clip-path="url(#clip960)" d="M2124.52 151.305 Q2119.35 151.305 2117.36 152.486 Q2115.37 153.666 2115.37 156.514 Q2115.37 158.782 2116.85 160.125 Q2118.36 161.444 2120.93 161.444 Q2124.47 161.444 2126.6 158.944 Q2128.75 156.421 2128.75 152.254 L2128.75 151.305 L2124.52 151.305 M2133.01 149.546 L2133.01 164.338 L2128.75 164.338 L2128.75 160.402 Q2127.29 162.763 2125.12 163.898 Q2122.94 165.009 2119.79 165.009 Q2115.81 165.009 2113.45 162.787 Q2111.11 160.541 2111.11 156.791 Q2111.11 152.416 2114.03 150.194 Q2116.97 147.972 2122.78 147.972 L2128.75 147.972 L2128.75 147.555 Q2128.75 144.615 2126.81 143.018 Q2124.89 141.398 2121.39 141.398 Q2119.17 141.398 2117.06 141.93 Q2114.96 142.463 2113.01 143.527 L2113.01 139.592 Q2115.35 138.69 2117.55 138.25 Q2119.75 137.787 2121.83 137.787 Q2127.46 137.787 2130.23 140.703 Q2133.01 143.62 2133.01 149.546 Z" fill="#000000" fill-rule="nonzero" fill-opacity="1" /><path clip-path="url(#clip960)" d="M2146 131.051 L2146 138.412 L2154.77 138.412 L2154.77 141.722 L2146 141.722 L2146 155.796 Q2146 158.967 2146.85 159.87 Q2147.73 160.773 2150.4 160.773 L2154.77 160.773 L2154.77 164.338 L2150.4 164.338 Q2145.47 164.338 2143.59 162.509 Q2141.72 160.657 2141.72 155.796 L2141.72 141.722 L2138.59 141.722 L2138.59 138.412 L2141.72 138.412 L2141.72 131.051 L2146 131.051 Z" fill="#000000" fill-rule="nonzero" fill-opacity="1" /><path clip-path="url(#clip960)" d="M2182.55 150.31 L2182.55 152.393 L2162.97 152.393 Q2163.24 156.791 2165.6 159.106 Q2167.99 161.398 2172.22 161.398 Q2174.68 161.398 2176.97 160.796 Q2179.29 160.194 2181.55 158.99 L2181.55 163.018 Q2179.26 163.99 2176.85 164.5 Q2174.45 165.009 2171.97 165.009 Q2165.77 165.009 2162.13 161.398 Q2158.52 157.787 2158.52 151.629 Q2158.52 145.264 2161.95 141.537 Q2165.4 137.787 2171.23 137.787 Q2176.46 137.787 2179.49 141.166 Q2182.55 144.523 2182.55 150.31 M2178.29 149.06 Q2178.24 145.565 2176.32 143.481 Q2174.42 141.398 2171.28 141.398 Q2167.71 141.398 2165.56 143.412 Q2163.43 145.426 2163.1 149.083 L2178.29 149.06 Z" fill="#000000" fill-rule="nonzero" fill-opacity="1" /><path clip-path="url(#clip960)" d="M2206.02 160.402 L2213.66 160.402 L2213.66 134.037 L2205.35 135.703 L2205.35 131.444 L2213.61 129.778 L2218.29 129.778 L2218.29 160.402 L2225.93 160.402 L2225.93 164.338 L2206.02 164.338 L2206.02 160.402 Z" fill="#000000" fill-rule="nonzero" fill-opacity="1" /><circle clip-path="url(#clip960)" cx="1853.8" cy="198.898" r="20.48" fill="#e26f46" fill-rule="evenodd" fill-opacity="1" stroke="#000000" stroke-opacity="1" stroke-width="4.55111"/>
<path clip-path="url(#clip960)" d="M1965.1 184.789 Q1960 184.789 1956.99 188.585 Q1954.01 192.381 1954.01 198.932 Q1954.01 205.46 1956.99 209.256 Q1960 213.053 1965.1 213.053 Q1970.19 213.053 1973.15 209.256 Q1976.14 205.46 1976.14 198.932 Q1976.14 192.381 1973.15 188.585 Q1970.19 184.789 1965.1 184.789 M1965.1 180.993 Q1972.36 180.993 1976.72 185.877 Q1981.07 190.738 1981.07 198.932 Q1981.07 207.104 1976.72 211.988 Q1972.36 216.849 1965.1 216.849 Q1957.8 216.849 1953.43 211.988 Q1949.08 207.127 1949.08 198.932 Q1949.08 190.738 1953.43 185.877 Q1957.8 180.993 1965.1 180.993 Z" fill="#000000" fill-rule="nonzero" fill-opacity="1" /><path clip-path="url(#clip960)" d="M2006.81 203.238 Q2006.81 198.539 2004.86 195.877 Q2002.94 193.192 1999.56 193.192 Q1996.18 193.192 1994.24 195.877 Q1992.32 198.539 1992.32 203.238 Q1992.32 207.937 1994.24 210.622 Q1996.18 213.284 1999.56 213.284 Q2002.94 213.284 2004.86 210.622 Q2006.81 207.937 2006.81 203.238 M1992.32 194.187 Q1993.66 191.872 1995.7 190.761 Q1997.76 189.627 2000.61 189.627 Q2005.33 189.627 2008.27 193.377 Q2011.23 197.127 2011.23 203.238 Q2011.23 209.349 2008.27 213.099 Q2005.33 216.849 2000.61 216.849 Q1997.76 216.849 1995.7 215.738 Q1993.66 214.603 1992.32 212.289 L1992.32 216.178 L1988.04 216.178 L1988.04 180.159 L1992.32 180.159 L1992.32 194.187 Z" fill="#000000" fill-rule="nonzero" fill-opacity="1" /><path clip-path="url(#clip960)" d="M2034.82 191.016 L2034.82 195.043 Q2033.01 194.117 2031.07 193.655 Q2029.12 193.192 2027.04 193.192 Q2023.87 193.192 2022.27 194.164 Q2020.7 195.136 2020.7 197.08 Q2020.7 198.562 2021.83 199.418 Q2022.97 200.252 2026.39 201.016 L2027.85 201.34 Q2032.39 202.312 2034.29 204.094 Q2036.21 205.854 2036.21 209.025 Q2036.21 212.636 2033.34 214.742 Q2030.49 216.849 2025.49 216.849 Q2023.41 216.849 2021.14 216.432 Q2018.89 216.039 2016.39 215.228 L2016.39 210.83 Q2018.75 212.057 2021.05 212.682 Q2023.34 213.284 2025.58 213.284 Q2028.59 213.284 2030.21 212.266 Q2031.83 211.224 2031.83 209.349 Q2031.83 207.613 2030.65 206.687 Q2029.49 205.761 2025.54 204.904 L2024.05 204.557 Q2020.1 203.724 2018.34 202.011 Q2016.58 200.275 2016.58 197.266 Q2016.58 193.608 2019.17 191.618 Q2021.76 189.627 2026.53 189.627 Q2028.89 189.627 2030.98 189.974 Q2033.06 190.321 2034.82 191.016 Z" fill="#000000" fill-rule="nonzero" fill-opacity="1" /><path clip-path="url(#clip960)" d="M2065.17 202.15 L2065.17 204.233 L2045.58 204.233 Q2045.86 208.631 2048.22 210.946 Q2050.61 213.238 2054.84 213.238 Q2057.3 213.238 2059.59 212.636 Q2061.9 212.034 2064.17 210.83 L2064.17 214.858 Q2061.88 215.83 2059.47 216.34 Q2057.06 216.849 2054.59 216.849 Q2048.38 216.849 2044.75 213.238 Q2041.14 209.627 2041.14 203.469 Q2041.14 197.104 2044.56 193.377 Q2048.01 189.627 2053.85 189.627 Q2059.08 189.627 2062.11 193.006 Q2065.17 196.363 2065.17 202.15 M2060.91 200.9 Q2060.86 197.405 2058.94 195.321 Q2057.04 193.238 2053.89 193.238 Q2050.33 193.238 2048.17 195.252 Q2046.05 197.266 2045.72 200.923 L2060.91 200.9 Z" fill="#000000" fill-rule="nonzero" fill-opacity="1" /><path clip-path="url(#clip960)" d="M2087.18 194.233 Q2086.46 193.817 2085.61 193.631 Q2084.77 193.423 2083.75 193.423 Q2080.14 193.423 2078.2 195.784 Q2076.28 198.122 2076.28 202.52 L2076.28 216.178 L2071.99 216.178 L2071.99 190.252 L2076.28 190.252 L2076.28 194.28 Q2077.62 191.918 2079.77 190.784 Q2081.92 189.627 2085 189.627 Q2085.44 189.627 2085.98 189.696 Q2086.51 189.743 2087.16 189.858 L2087.18 194.233 Z" fill="#000000" fill-rule="nonzero" fill-opacity="1" /><path clip-path="url(#clip960)" d="M2088.59 190.252 L2093.11 190.252 L2101.21 212.011 L2109.31 190.252 L2113.82 190.252 L2104.1 216.178 L2098.31 216.178 L2088.59 190.252 Z" fill="#000000" fill-rule="nonzero" fill-opacity="1" /><path clip-path="url(#clip960)" d="M2131.48 203.145 Q2126.32 203.145 2124.33 204.326 Q2122.34 205.506 2122.34 208.354 Q2122.34 210.622 2123.82 211.965 Q2125.33 213.284 2127.9 213.284 Q2131.44 213.284 2133.57 210.784 Q2135.72 208.261 2135.72 204.094 L2135.72 203.145 L2131.48 203.145 M2139.98 201.386 L2139.98 216.178 L2135.72 216.178 L2135.72 212.242 Q2134.26 214.603 2132.09 215.738 Q2129.91 216.849 2126.76 216.849 Q2122.78 216.849 2120.42 214.627 Q2118.08 212.381 2118.08 208.631 Q2118.08 204.256 2121 202.034 Q2123.94 199.812 2129.75 199.812 L2135.72 199.812 L2135.72 199.395 Q2135.72 196.455 2133.78 194.858 Q2131.85 193.238 2128.36 193.238 Q2126.14 193.238 2124.03 193.77 Q2121.92 194.303 2119.98 195.367 L2119.98 191.432 Q2122.32 190.53 2124.52 190.09 Q2126.72 189.627 2128.8 189.627 Q2134.42 189.627 2137.2 192.543 Q2139.98 195.46 2139.98 201.386 Z" fill="#000000" fill-rule="nonzero" fill-opacity="1" /><path clip-path="url(#clip960)" d="M2152.97 182.891 L2152.97 190.252 L2161.74 190.252 L2161.74 193.562 L2152.97 193.562 L2152.97 207.636 Q2152.97 210.807 2153.82 211.71 Q2154.7 212.613 2157.36 212.613 L2161.74 212.613 L2161.74 216.178 L2157.36 216.178 Q2152.43 216.178 2150.56 214.349 Q2148.68 212.497 2148.68 207.636 L2148.68 193.562 L2145.56 193.562 L2145.56 190.252 L2148.68 190.252 L2148.68 182.891 L2152.97 182.891 Z" fill="#000000" fill-rule="nonzero" fill-opacity="1" /><path clip-path="url(#clip960)" d="M2167.34 190.252 L2171.6 190.252 L2171.6 216.178 L2167.34 216.178 L2167.34 190.252 M2167.34 180.159 L2171.6 180.159 L2171.6 185.553 L2167.34 185.553 L2167.34 180.159 Z" fill="#000000" fill-rule="nonzero" fill-opacity="1" /><path clip-path="url(#clip960)" d="M2190.56 193.238 Q2187.13 193.238 2185.14 195.923 Q2183.15 198.585 2183.15 203.238 Q2183.15 207.891 2185.12 210.576 Q2187.11 213.238 2190.56 213.238 Q2193.96 213.238 2195.95 210.553 Q2197.94 207.867 2197.94 203.238 Q2197.94 198.631 2195.95 195.946 Q2193.96 193.238 2190.56 193.238 M2190.56 189.627 Q2196.11 189.627 2199.28 193.238 Q2202.46 196.849 2202.46 203.238 Q2202.46 209.604 2199.28 213.238 Q2196.11 216.849 2190.56 216.849 Q2184.98 216.849 2181.81 213.238 Q2178.66 209.604 2178.66 203.238 Q2178.66 196.849 2181.81 193.238 Q2184.98 189.627 2190.56 189.627 Z" fill="#000000" fill-rule="nonzero" fill-opacity="1" /><path clip-path="url(#clip960)" d="M2231.07 200.529 L2231.07 216.178 L2226.81 216.178 L2226.81 200.668 Q2226.81 196.988 2225.37 195.159 Q2223.94 193.33 2221.07 193.33 Q2217.62 193.33 2215.63 195.53 Q2213.64 197.729 2213.64 201.525 L2213.64 216.178 L2209.35 216.178 L2209.35 190.252 L2213.64 190.252 L2213.64 194.28 Q2215.16 191.942 2217.22 190.784 Q2219.31 189.627 2222.02 189.627 Q2226.48 189.627 2228.78 192.405 Q2231.07 195.159 2231.07 200.529 Z" fill="#000000" fill-rule="nonzero" fill-opacity="1" /><path clip-path="url(#clip960)" d="M2256.09 191.016 L2256.09 195.043 Q2254.28 194.117 2252.34 193.655 Q2250.4 193.192 2248.31 193.192 Q2245.14 193.192 2243.54 194.164 Q2241.97 195.136 2241.97 197.08 Q2241.97 198.562 2243.1 199.418 Q2244.24 200.252 2247.66 201.016 L2249.12 201.34 Q2253.66 202.312 2255.56 204.094 Q2257.48 205.854 2257.48 209.025 Q2257.48 212.636 2254.61 214.742 Q2251.76 216.849 2246.76 216.849 Q2244.68 216.849 2242.41 216.432 Q2240.16 216.039 2237.66 215.228 L2237.66 210.83 Q2240.03 212.057 2242.32 212.682 Q2244.61 213.284 2246.85 213.284 Q2249.86 213.284 2251.48 212.266 Q2253.1 211.224 2253.1 209.349 Q2253.1 207.613 2251.92 206.687 Q2250.77 205.761 2246.81 204.904 L2245.33 204.557 Q2241.37 203.724 2239.61 202.011 Q2237.85 200.275 2237.85 197.266 Q2237.85 193.608 2240.44 191.618 Q2243.03 189.627 2247.8 189.627 Q2250.16 189.627 2252.25 189.974 Q2254.33 190.321 2256.09 191.016 Z" fill="#000000" fill-rule="nonzero" fill-opacity="1" /></svg>
