<?xml version="1.0" encoding="UTF-8"?>
<svg xmlns="http://www.w3.org/2000/svg"
     xmlns:xlink="http://www.w3.org/1999/xlink"
     version="1.2"
     width="100mm" height="100mm" viewBox="0 0 100 100"
     stroke="none"
     fill="#000000"
     stroke-width="0.3"
     font-size="3.88"
>
<defs>
  <marker id="arrow" markerWidth="15" markerHeight="7" refX="5" refY="3.5" orient="auto" markerUnits="strokeWidth">
    <path d="M0,0 L15,3.5 L0,7 z" stroke="context-stroke" fill="context-stroke"/>
  </marker>
</defs>
<g fill="#000000" fill-opacity="0.000" id="img-f830c8dc-1">
  <g transform="translate(50,50)">
    <path d="M-50,-50 L50,-50 50,50 -50,50  z" class="primitive"/>
  </g>
</g>
<g stroke-width="0.6" stroke="#D3D3D3" id="img-f830c8dc-2">
</g>
<g stroke-width="0.6" stroke="#D3D3D3" id="img-f830c8dc-3">
  <g transform="translate(21.77,79.76)">
    <path fill="none" d="M1.17,-3.25 L-1.17,3.25 " class="primitive"/>
  </g>
  <g transform="translate(19.57,70.63)">
    <path fill="none" d="M2.59,2.48 L-2.59,-2.48 " class="primitive"/>
  </g>
  <g transform="translate(29.56,73.64)">
    <path fill="none" d="M-3.84,0.6 L3.84,-0.6 " class="primitive"/>
  </g>
  <g transform="translate(17.14,88.32)">
    <path fill="none" d="M-1.43,1.74 L1.43,-1.74 " class="primitive"/>
  </g>
  <g transform="translate(22.99,86.45)">
    <path fill="none" d="M1.22,0.58 L-1.22,-0.58 " class="primitive"/>
  </g>
  <g transform="translate(11.91,65.83)">
    <path fill="none" d="M-1.55,-0.38 L1.55,0.38 " class="primitive"/>
  </g>
  <g transform="translate(13.93,62.88)">
    <path fill="none" d="M-0.77,-1.9 L0.77,1.9 " class="primitive"/>
  </g>
  <g transform="translate(41.09,70.13)">
    <path fill="none" d="M3.74,-1.72 L-3.74,1.72 " class="primitive"/>
  </g>
  <g transform="translate(52.33,64.47)">
    <path fill="none" d="M-3.77,2.07 L3.77,-2.07 " class="primitive"/>
  </g>
  <g transform="translate(36.15,76.4)">
    <path fill="none" d="M0.31,1.63 L-0.31,-1.63 " class="primitive"/>
  </g>
  <g transform="translate(62.69,56.42)">
    <path fill="none" d="M3.33,-3.47 L-3.33,3.47 " class="primitive"/>
  </g>
  <g transform="translate(73.39,51.98)">
    <path fill="none" d="M-3.85,-0.35 L3.85,0.35 " class="primitive"/>
  </g>
  <g transform="translate(66.41,44.79)">
    <path fill="none" d="M0.73,4.59 L-0.73,-4.59 " class="primitive"/>
  </g>
  <g transform="translate(59.25,65.06)">
    <path fill="none" d="M0.62,1.71 L-0.62,-1.71 " class="primitive"/>
  </g>
  <g transform="translate(83.16,49.69)">
    <path fill="none" d="M2.17,-1.6 L-2.17,1.6 " class="primitive"/>
  </g>
  <g transform="translate(82.62,55.15)">
    <path fill="none" d="M1.67,1.33 L-1.67,-1.33 " class="primitive"/>
  </g>
  <g transform="translate(66.34,32.32)">
    <path fill="none" d="M0.64,-3.77 L-0.64,3.77 " class="primitive"/>
  </g>
  <g transform="translate(69.23,21.82)">
    <path fill="none" d="M-1.12,2.75 L1.12,-2.75 " class="primitive"/>
  </g>
  <g transform="translate(62.5,36.08)">
    <path fill="none" d="M-1.16,-0.84 L1.16,0.84 " class="primitive"/>
  </g>
  <g transform="translate(74.42,20.01)">
    <path fill="none" d="M1.71,1.5 L-1.71,-1.5 " class="primitive"/>
  </g>
  <g transform="translate(81.15,26.16)">
    <path fill="none" d="M-1.94,-1.84 L1.94,1.84 " class="primitive"/>
  </g>
  <g transform="translate(70.03,12.74)">
    <path fill="none" d="M-0.6,-2.38 L0.6,2.38 " class="primitive"/>
  </g>
  <g transform="translate(85.06,33.74)">
    <path fill="none" d="M0.24,2.23 L-0.24,-2.23 " class="primitive"/>
  </g>
  <g transform="translate(88.13,27.81)">
    <path fill="none" d="M1.64,-0.75 L-1.64,0.75 " class="primitive"/>
  </g>
</g>
<g fill="#D3D3D3" id="img-f830c8dc-4">
</g>
<g fill="#D3D3D3" id="img-f830c8dc-5">
</g>
<g font-size="4" fill="#000000" id="img-f830c8dc-6">
</g>
<g stroke-width="0" stroke="#000000" stroke-opacity="0.000" fill="#40E0D0" id="img-f830c8dc-7">
  <g transform="translate(23.66,74.56)">
    <circle cx="0" cy="0" r="2" class="primitive"/>
  </g>
  <g transform="translate(14.38,91.67)">
    <circle cx="0" cy="0" r="2" class="primitive"/>
  </g>
  <g transform="translate(26.09,87.94)">
    <circle cx="0" cy="0" r="2" class="primitive"/>
  </g>
  <g transform="translate(19.89,84.97)">
    <circle cx="0" cy="0" r="2" class="primitive"/>
  </g>
  <g transform="translate(8.33,64.95)">
    <circle cx="0" cy="0" r="2" class="primitive"/>
  </g>
  <g transform="translate(12.37,59.05)">
    <circle cx="0" cy="0" r="2" class="primitive"/>
  </g>
  <g transform="translate(15.48,66.71)">
    <circle cx="0" cy="0" r="2" class="primitive"/>
  </g>
  <g transform="translate(46.72,67.54)">
    <circle cx="0" cy="0" r="2" class="primitive"/>
  </g>
  <g transform="translate(36.84,80.08)">
    <circle cx="0" cy="0" r="2" class="primitive"/>
  </g>
  <g transform="translate(35.46,72.73)">
    <circle cx="0" cy="0" r="2" class="primitive"/>
  </g>
  <g transform="translate(67.46,51.44)">
    <circle cx="0" cy="0" r="2" class="primitive"/>
  </g>
  <g transform="translate(60.58,68.73)">
    <circle cx="0" cy="0" r="2" class="primitive"/>
  </g>
  <g transform="translate(57.93,61.39)">
    <circle cx="0" cy="0" r="2" class="primitive"/>
  </g>
  <g transform="translate(87.01,46.86)">
    <circle cx="0" cy="0" r="2" class="primitive"/>
  </g>
  <g transform="translate(85.92,57.77)">
    <circle cx="0" cy="0" r="2" class="primitive"/>
  </g>
  <g transform="translate(79.32,52.53)">
    <circle cx="0" cy="0" r="2" class="primitive"/>
  </g>
  <g transform="translate(67.33,26.5)">
    <circle cx="0" cy="0" r="2" class="primitive"/>
  </g>
  <g transform="translate(59.65,34.03)">
    <circle cx="0" cy="0" r="2" class="primitive"/>
  </g>
  <g transform="translate(65.35,38.14)">
    <circle cx="0" cy="0" r="2" class="primitive"/>
  </g>
  <g transform="translate(77.7,22.88)">
    <circle cx="0" cy="0" r="2" class="primitive"/>
  </g>
  <g transform="translate(68.93,8.33)">
    <circle cx="0" cy="0" r="2" class="primitive"/>
  </g>
  <g transform="translate(71.14,17.14)">
    <circle cx="0" cy="0" r="2" class="primitive"/>
  </g>
  <g transform="translate(85.52,38.04)">
    <circle cx="0" cy="0" r="2" class="primitive"/>
  </g>
  <g transform="translate(91.67,26.19)">
    <circle cx="0" cy="0" r="2" class="primitive"/>
  </g>
  <g transform="translate(84.6,29.44)">
    <circle cx="0" cy="0" r="2" class="primitive"/>
  </g>
</g>
<g font-family="Helvetica" font-size="4" fill="#000000" id="img-f830c8dc-8">
  <g transform="translate(23.66,74.56)">
    <g class="primitive">
      <text text-anchor="middle" dy="0.35em">x</text>
    </g>
  </g>
  <g transform="translate(14.38,91.67)">
    <g class="primitive">
      <text text-anchor="middle" dy="0.35em">constvar</text>
    </g>
  </g>
  <g transform="translate(26.09,87.94)">
    <g class="primitive">
      <text text-anchor="middle" dy="0.35em">constvar</text>
    </g>
  </g>
  <g transform="translate(19.89,84.97)">
    <g class="primitive">
      <text text-anchor="middle" dy="0.35em">NormalMeanVariance</text>
    </g>
  </g>
  <g transform="translate(8.33,64.95)">
    <g class="primitive">
      <text text-anchor="middle" dy="0.35em">y</text>
    </g>
  </g>
  <g transform="translate(12.37,59.05)">
    <g class="primitive">
      <text text-anchor="middle" dy="0.35em">constvar</text>
    </g>
  </g>
  <g transform="translate(15.48,66.71)">
    <g class="primitive">
      <text text-anchor="middle" dy="0.35em">NormalMeanVariance</text>
    </g>
  </g>
  <g transform="translate(46.72,67.54)">
    <g class="primitive">
      <text text-anchor="middle" dy="0.35em">anonymous_var_graphppl</text>
    </g>
  </g>
  <g transform="translate(36.84,80.08)">
    <g class="primitive">
      <text text-anchor="middle" dy="0.35em">constvar</text>
    </g>
  </g>
  <g transform="translate(35.46,72.73)">
    <g class="primitive">
      <text text-anchor="middle" dy="0.35em">+</text>
    </g>
  </g>
  <g transform="translate(67.46,51.44)">
    <g class="primitive">
      <text text-anchor="middle" dy="0.35em">x</text>
    </g>
  </g>
  <g transform="translate(60.58,68.73)">
    <g class="primitive">
      <text text-anchor="middle" dy="0.35em">constvar</text>
    </g>
  </g>
  <g transform="translate(57.93,61.39)">
    <g class="primitive">
      <text text-anchor="middle" dy="0.35em">NormalMeanVariance</text>
    </g>
  </g>
  <g transform="translate(87.01,46.86)">
    <g class="primitive">
      <text text-anchor="middle" dy="0.35em">y</text>
    </g>
  </g>
  <g transform="translate(85.92,57.77)">
    <g class="primitive">
      <text text-anchor="middle" dy="0.35em">constvar</text>
    </g>
  </g>
  <g transform="translate(79.32,52.53)">
    <g class="primitive">
      <text text-anchor="middle" dy="0.35em">NormalMeanVariance</text>
    </g>
  </g>
  <g transform="translate(67.33,26.5)">
    <g class="primitive">
      <text text-anchor="middle" dy="0.35em">anonymous_var_graphppl</text>
    </g>
  </g>
  <g transform="translate(59.65,34.03)">
    <g class="primitive">
      <text text-anchor="middle" dy="0.35em">constvar</text>
    </g>
  </g>
  <g transform="translate(65.35,38.14)">
    <g class="primitive">
      <text text-anchor="middle" dy="0.35em">+</text>
    </g>
  </g>
  <g transform="translate(77.7,22.88)">
    <g class="primitive">
      <text text-anchor="middle" dy="0.35em">x</text>
    </g>
  </g>
  <g transform="translate(68.93,8.33)">
    <g class="primitive">
      <text text-anchor="middle" dy="0.35em">constvar</text>
    </g>
  </g>
  <g transform="translate(71.14,17.14)">
    <g class="primitive">
      <text text-anchor="middle" dy="0.35em">NormalMeanVariance</text>
    </g>
  </g>
  <g transform="translate(85.52,38.04)">
    <g class="primitive">
      <text text-anchor="middle" dy="0.35em">y</text>
    </g>
  </g>
  <g transform="translate(91.67,26.19)">
    <g class="primitive">
      <text text-anchor="middle" dy="0.35em">constvar</text>
    </g>
  </g>
  <g transform="translate(84.6,29.44)">
    <g class="primitive">
      <text text-anchor="middle" dy="0.35em">NormalMeanVariance</text>
    </g>
  </g>
</g>
<g font-family="Helvetica" font-size="4" fill="#000000" id="img-f830c8dc-9">
  <g transform="translate(50,0)">
    <g class="primitive">
      <text text-anchor="middle" dy="0.35em"></text>
    </g>
  </g>
</g>
</svg>
