<?xml version="1.0" encoding="utf-8"?>
<svg xmlns="http://www.w3.org/2000/svg" xmlns:xlink="http://www.w3.org/1999/xlink" width="600" height="400" viewBox="0 0 2400 1600">
<defs>
  <clipPath id="clip210">
    <rect x="0" y="0" width="2400" height="1600"/>
  </clipPath>
</defs>
<path clip-path="url(#clip210)" d="M0 1600 L2400 1600 L2400 0 L0 0  Z" fill="#ffffff" fill-rule="evenodd" fill-opacity="1"/>
<defs>
  <clipPath id="clip211">
    <rect x="480" y="0" width="1681" height="1600"/>
  </clipPath>
</defs>
<path clip-path="url(#clip210)" d="M305.618 1486.45 L2352.76 1486.45 L2352.76 47.2441 L305.618 47.2441  Z" fill="#ffffff" fill-rule="evenodd" fill-opacity="1"/>
<defs>
  <clipPath id="clip212">
    <rect x="305" y="47" width="2048" height="1440"/>
  </clipPath>
</defs>
<polyline clip-path="url(#clip212)" style="stroke:#000000; stroke-linecap:round; stroke-linejoin:round; stroke-width:2; stroke-opacity:0.1; fill:none" points="344.048,1486.45 344.048,47.2441 "/>
<polyline clip-path="url(#clip212)" style="stroke:#000000; stroke-linecap:round; stroke-linejoin:round; stroke-width:2; stroke-opacity:0.1; fill:none" points="831.741,1486.45 831.741,47.2441 "/>
<polyline clip-path="url(#clip212)" style="stroke:#000000; stroke-linecap:round; stroke-linejoin:round; stroke-width:2; stroke-opacity:0.1; fill:none" points="1319.43,1486.45 1319.43,47.2441 "/>
<polyline clip-path="url(#clip212)" style="stroke:#000000; stroke-linecap:round; stroke-linejoin:round; stroke-width:2; stroke-opacity:0.1; fill:none" points="1807.13,1486.45 1807.13,47.2441 "/>
<polyline clip-path="url(#clip212)" style="stroke:#000000; stroke-linecap:round; stroke-linejoin:round; stroke-width:2; stroke-opacity:0.1; fill:none" points="2294.82,1486.45 2294.82,47.2441 "/>
<polyline clip-path="url(#clip212)" style="stroke:#000000; stroke-linecap:round; stroke-linejoin:round; stroke-width:2; stroke-opacity:0.1; fill:none" points="305.618,1342.7 2352.76,1342.7 "/>
<polyline clip-path="url(#clip212)" style="stroke:#000000; stroke-linecap:round; stroke-linejoin:round; stroke-width:2; stroke-opacity:0.1; fill:none" points="305.618,1146.09 2352.76,1146.09 "/>
<polyline clip-path="url(#clip212)" style="stroke:#000000; stroke-linecap:round; stroke-linejoin:round; stroke-width:2; stroke-opacity:0.1; fill:none" points="305.618,949.47 2352.76,949.47 "/>
<polyline clip-path="url(#clip212)" style="stroke:#000000; stroke-linecap:round; stroke-linejoin:round; stroke-width:2; stroke-opacity:0.1; fill:none" points="305.618,752.856 2352.76,752.856 "/>
<polyline clip-path="url(#clip212)" style="stroke:#000000; stroke-linecap:round; stroke-linejoin:round; stroke-width:2; stroke-opacity:0.1; fill:none" points="305.618,556.241 2352.76,556.241 "/>
<polyline clip-path="url(#clip212)" style="stroke:#000000; stroke-linecap:round; stroke-linejoin:round; stroke-width:2; stroke-opacity:0.1; fill:none" points="305.618,359.626 2352.76,359.626 "/>
<polyline clip-path="url(#clip212)" style="stroke:#000000; stroke-linecap:round; stroke-linejoin:round; stroke-width:2; stroke-opacity:0.1; fill:none" points="305.618,163.011 2352.76,163.011 "/>
<polyline clip-path="url(#clip210)" style="stroke:#000000; stroke-linecap:round; stroke-linejoin:round; stroke-width:4; stroke-opacity:1; fill:none" points="305.618,1486.45 2352.76,1486.45 "/>
<polyline clip-path="url(#clip210)" style="stroke:#000000; stroke-linecap:round; stroke-linejoin:round; stroke-width:4; stroke-opacity:1; fill:none" points="344.048,1486.45 344.048,1467.55 "/>
<polyline clip-path="url(#clip210)" style="stroke:#000000; stroke-linecap:round; stroke-linejoin:round; stroke-width:4; stroke-opacity:1; fill:none" points="831.741,1486.45 831.741,1467.55 "/>
<polyline clip-path="url(#clip210)" style="stroke:#000000; stroke-linecap:round; stroke-linejoin:round; stroke-width:4; stroke-opacity:1; fill:none" points="1319.43,1486.45 1319.43,1467.55 "/>
<polyline clip-path="url(#clip210)" style="stroke:#000000; stroke-linecap:round; stroke-linejoin:round; stroke-width:4; stroke-opacity:1; fill:none" points="1807.13,1486.45 1807.13,1467.55 "/>
<polyline clip-path="url(#clip210)" style="stroke:#000000; stroke-linecap:round; stroke-linejoin:round; stroke-width:4; stroke-opacity:1; fill:none" points="2294.82,1486.45 2294.82,1467.55 "/>
<path clip-path="url(#clip210)" d="M344.048 1517.37 Q340.437 1517.37 338.608 1520.93 Q336.803 1524.47 336.803 1531.6 Q336.803 1538.71 338.608 1542.27 Q340.437 1545.82 344.048 1545.82 Q347.682 1545.82 349.488 1542.27 Q351.317 1538.71 351.317 1531.6 Q351.317 1524.47 349.488 1520.93 Q347.682 1517.37 344.048 1517.37 M344.048 1513.66 Q349.858 1513.66 352.914 1518.27 Q355.993 1522.85 355.993 1531.6 Q355.993 1540.33 352.914 1544.94 Q349.858 1549.52 344.048 1549.52 Q338.238 1549.52 335.159 1544.94 Q332.104 1540.33 332.104 1531.6 Q332.104 1522.85 335.159 1518.27 Q338.238 1513.66 344.048 1513.66 Z" fill="#000000" fill-rule="nonzero" fill-opacity="1" /><path clip-path="url(#clip210)" d="M811.012 1544.91 L827.331 1544.91 L827.331 1548.85 L805.387 1548.85 L805.387 1544.91 Q808.049 1542.16 812.632 1537.53 Q817.238 1532.88 818.419 1531.53 Q820.664 1529.01 821.544 1527.27 Q822.447 1525.51 822.447 1523.82 Q822.447 1521.07 820.502 1519.33 Q818.581 1517.6 815.479 1517.6 Q813.28 1517.6 810.826 1518.36 Q808.396 1519.13 805.618 1520.68 L805.618 1515.95 Q808.442 1514.82 810.896 1514.24 Q813.35 1513.66 815.387 1513.66 Q820.757 1513.66 823.951 1516.35 Q827.146 1519.03 827.146 1523.52 Q827.146 1525.65 826.336 1527.57 Q825.549 1529.47 823.442 1532.07 Q822.863 1532.74 819.762 1535.95 Q816.66 1539.15 811.012 1544.91 Z" fill="#000000" fill-rule="nonzero" fill-opacity="1" /><path clip-path="url(#clip210)" d="M837.192 1514.29 L855.548 1514.29 L855.548 1518.22 L841.474 1518.22 L841.474 1526.7 Q842.493 1526.35 843.511 1526.19 Q844.53 1526 845.548 1526 Q851.335 1526 854.715 1529.17 Q858.095 1532.34 858.095 1537.76 Q858.095 1543.34 854.622 1546.44 Q851.15 1549.52 844.831 1549.52 Q842.655 1549.52 840.386 1549.15 Q838.141 1548.78 835.734 1548.04 L835.734 1543.34 Q837.817 1544.47 840.039 1545.03 Q842.261 1545.58 844.738 1545.58 Q848.743 1545.58 851.081 1543.48 Q853.419 1541.37 853.419 1537.76 Q853.419 1534.15 851.081 1532.04 Q848.743 1529.94 844.738 1529.94 Q842.863 1529.94 840.988 1530.35 Q839.136 1530.77 837.192 1531.65 L837.192 1514.29 Z" fill="#000000" fill-rule="nonzero" fill-opacity="1" /><path clip-path="url(#clip210)" d="M1294.13 1514.29 L1312.49 1514.29 L1312.49 1518.22 L1298.41 1518.22 L1298.41 1526.7 Q1299.43 1526.35 1300.45 1526.19 Q1301.47 1526 1302.49 1526 Q1308.28 1526 1311.66 1529.17 Q1315.03 1532.34 1315.03 1537.76 Q1315.03 1543.34 1311.56 1546.44 Q1308.09 1549.52 1301.77 1549.52 Q1299.6 1549.52 1297.33 1549.15 Q1295.08 1548.78 1292.67 1548.04 L1292.67 1543.34 Q1294.76 1544.47 1296.98 1545.03 Q1299.2 1545.58 1301.68 1545.58 Q1305.68 1545.58 1308.02 1543.48 Q1310.36 1541.37 1310.36 1537.76 Q1310.36 1534.15 1308.02 1532.04 Q1305.68 1529.94 1301.68 1529.94 Q1299.8 1529.94 1297.93 1530.35 Q1296.08 1530.77 1294.13 1531.65 L1294.13 1514.29 Z" fill="#000000" fill-rule="nonzero" fill-opacity="1" /><path clip-path="url(#clip210)" d="M1334.25 1517.37 Q1330.64 1517.37 1328.81 1520.93 Q1327 1524.47 1327 1531.6 Q1327 1538.71 1328.81 1542.27 Q1330.64 1545.82 1334.25 1545.82 Q1337.88 1545.82 1339.69 1542.27 Q1341.52 1538.71 1341.52 1531.6 Q1341.52 1524.47 1339.69 1520.93 Q1337.88 1517.37 1334.25 1517.37 M1334.25 1513.66 Q1340.06 1513.66 1343.11 1518.27 Q1346.19 1522.85 1346.19 1531.6 Q1346.19 1540.33 1343.11 1544.94 Q1340.06 1549.52 1334.25 1549.52 Q1328.44 1549.52 1325.36 1544.94 Q1322.3 1540.33 1322.3 1531.6 Q1322.3 1522.85 1325.36 1518.27 Q1328.44 1513.66 1334.25 1513.66 Z" fill="#000000" fill-rule="nonzero" fill-opacity="1" /><path clip-path="url(#clip210)" d="M1780.98 1514.29 L1803.2 1514.29 L1803.2 1516.28 L1790.66 1548.85 L1785.77 1548.85 L1797.58 1518.22 L1780.98 1518.22 L1780.98 1514.29 Z" fill="#000000" fill-rule="nonzero" fill-opacity="1" /><path clip-path="url(#clip210)" d="M1812.37 1514.29 L1830.72 1514.29 L1830.72 1518.22 L1816.65 1518.22 L1816.65 1526.7 Q1817.67 1526.35 1818.69 1526.19 Q1819.71 1526 1820.73 1526 Q1826.51 1526 1829.89 1529.17 Q1833.27 1532.34 1833.27 1537.76 Q1833.27 1543.34 1829.8 1546.44 Q1826.33 1549.52 1820.01 1549.52 Q1817.83 1549.52 1815.56 1549.15 Q1813.32 1548.78 1810.91 1548.04 L1810.91 1543.34 Q1812.99 1544.47 1815.22 1545.03 Q1817.44 1545.58 1819.91 1545.58 Q1823.92 1545.58 1826.26 1543.48 Q1828.6 1541.37 1828.6 1537.76 Q1828.6 1534.15 1826.26 1532.04 Q1823.92 1529.94 1819.91 1529.94 Q1818.04 1529.94 1816.16 1530.35 Q1814.31 1530.77 1812.37 1531.65 L1812.37 1514.29 Z" fill="#000000" fill-rule="nonzero" fill-opacity="1" /><path clip-path="url(#clip210)" d="M2254.42 1544.91 L2262.06 1544.91 L2262.06 1518.55 L2253.75 1520.21 L2253.75 1515.95 L2262.02 1514.29 L2266.69 1514.29 L2266.69 1544.91 L2274.33 1544.91 L2274.33 1548.85 L2254.42 1548.85 L2254.42 1544.91 Z" fill="#000000" fill-rule="nonzero" fill-opacity="1" /><path clip-path="url(#clip210)" d="M2293.78 1517.37 Q2290.17 1517.37 2288.34 1520.93 Q2286.53 1524.47 2286.53 1531.6 Q2286.53 1538.71 2288.34 1542.27 Q2290.17 1545.82 2293.78 1545.82 Q2297.41 1545.82 2299.22 1542.27 Q2301.04 1538.71 2301.04 1531.6 Q2301.04 1524.47 2299.22 1520.93 Q2297.41 1517.37 2293.78 1517.37 M2293.78 1513.66 Q2299.59 1513.66 2302.64 1518.27 Q2305.72 1522.85 2305.72 1531.6 Q2305.72 1540.33 2302.64 1544.94 Q2299.59 1549.52 2293.78 1549.52 Q2287.97 1549.52 2284.89 1544.94 Q2281.83 1540.33 2281.83 1531.6 Q2281.83 1522.85 2284.89 1518.27 Q2287.97 1513.66 2293.78 1513.66 Z" fill="#000000" fill-rule="nonzero" fill-opacity="1" /><path clip-path="url(#clip210)" d="M2323.94 1517.37 Q2320.33 1517.37 2318.5 1520.93 Q2316.69 1524.47 2316.69 1531.6 Q2316.69 1538.71 2318.5 1542.27 Q2320.33 1545.82 2323.94 1545.82 Q2327.57 1545.82 2329.38 1542.27 Q2331.21 1538.71 2331.21 1531.6 Q2331.21 1524.47 2329.38 1520.93 Q2327.57 1517.37 2323.94 1517.37 M2323.94 1513.66 Q2329.75 1513.66 2332.8 1518.27 Q2335.88 1522.85 2335.88 1531.6 Q2335.88 1540.33 2332.8 1544.94 Q2329.75 1549.52 2323.94 1549.52 Q2318.13 1549.52 2315.05 1544.94 Q2311.99 1540.33 2311.99 1531.6 Q2311.99 1522.85 2315.05 1518.27 Q2318.13 1513.66 2323.94 1513.66 Z" fill="#000000" fill-rule="nonzero" fill-opacity="1" /><polyline clip-path="url(#clip210)" style="stroke:#000000; stroke-linecap:round; stroke-linejoin:round; stroke-width:4; stroke-opacity:1; fill:none" points="305.618,1486.45 305.618,47.2441 "/>
<polyline clip-path="url(#clip210)" style="stroke:#000000; stroke-linecap:round; stroke-linejoin:round; stroke-width:4; stroke-opacity:1; fill:none" points="305.618,1342.7 324.516,1342.7 "/>
<polyline clip-path="url(#clip210)" style="stroke:#000000; stroke-linecap:round; stroke-linejoin:round; stroke-width:4; stroke-opacity:1; fill:none" points="305.618,1146.09 324.516,1146.09 "/>
<polyline clip-path="url(#clip210)" style="stroke:#000000; stroke-linecap:round; stroke-linejoin:round; stroke-width:4; stroke-opacity:1; fill:none" points="305.618,949.47 324.516,949.47 "/>
<polyline clip-path="url(#clip210)" style="stroke:#000000; stroke-linecap:round; stroke-linejoin:round; stroke-width:4; stroke-opacity:1; fill:none" points="305.618,752.856 324.516,752.856 "/>
<polyline clip-path="url(#clip210)" style="stroke:#000000; stroke-linecap:round; stroke-linejoin:round; stroke-width:4; stroke-opacity:1; fill:none" points="305.618,556.241 324.516,556.241 "/>
<polyline clip-path="url(#clip210)" style="stroke:#000000; stroke-linecap:round; stroke-linejoin:round; stroke-width:4; stroke-opacity:1; fill:none" points="305.618,359.626 324.516,359.626 "/>
<polyline clip-path="url(#clip210)" style="stroke:#000000; stroke-linecap:round; stroke-linejoin:round; stroke-width:4; stroke-opacity:1; fill:none" points="305.618,163.011 324.516,163.011 "/>
<path clip-path="url(#clip210)" d="M57.7745 1362.49 L74.0939 1362.49 L74.0939 1366.43 L52.1495 1366.43 L52.1495 1362.49 Q54.8115 1359.74 59.3949 1355.11 Q64.0013 1350.46 65.1819 1349.11 Q67.4272 1346.59 68.3068 1344.85 Q69.2096 1343.09 69.2096 1341.4 Q69.2096 1338.65 67.2652 1336.91 Q65.3439 1335.18 62.2421 1335.18 Q60.043 1335.18 57.5893 1335.94 Q55.1588 1336.71 52.381 1338.26 L52.381 1333.53 Q55.2051 1332.4 57.6588 1331.82 Q60.1124 1331.24 62.1495 1331.24 Q67.5198 1331.24 70.7142 1333.93 Q73.9087 1336.61 73.9087 1341.1 Q73.9087 1343.23 73.0985 1345.15 Q72.3115 1347.05 70.205 1349.65 Q69.6263 1350.32 66.5245 1353.53 Q63.4226 1356.73 57.7745 1362.49 Z" fill="#000000" fill-rule="nonzero" fill-opacity="1" /><path clip-path="url(#clip210)" d="M83.9086 1360.55 L88.7928 1360.55 L88.7928 1366.43 L83.9086 1366.43 L83.9086 1360.55 Z" fill="#000000" fill-rule="nonzero" fill-opacity="1" /><path clip-path="url(#clip210)" d="M108.978 1334.95 Q105.367 1334.95 103.538 1338.51 Q101.733 1342.05 101.733 1349.18 Q101.733 1356.29 103.538 1359.85 Q105.367 1363.4 108.978 1363.4 Q112.612 1363.4 114.418 1359.85 Q116.246 1356.29 116.246 1349.18 Q116.246 1342.05 114.418 1338.51 Q112.612 1334.95 108.978 1334.95 M108.978 1331.24 Q114.788 1331.24 117.844 1335.85 Q120.922 1340.43 120.922 1349.18 Q120.922 1357.91 117.844 1362.52 Q114.788 1367.1 108.978 1367.1 Q103.168 1367.1 100.089 1362.52 Q97.0335 1357.91 97.0335 1349.18 Q97.0335 1340.43 100.089 1335.85 Q103.168 1331.24 108.978 1331.24 Z" fill="#000000" fill-rule="nonzero" fill-opacity="1" /><path clip-path="url(#clip210)" d="M139.14 1334.95 Q135.529 1334.95 133.7 1338.51 Q131.894 1342.05 131.894 1349.18 Q131.894 1356.29 133.7 1359.85 Q135.529 1363.4 139.14 1363.4 Q142.774 1363.4 144.58 1359.85 Q146.408 1356.29 146.408 1349.18 Q146.408 1342.05 144.58 1338.51 Q142.774 1334.95 139.14 1334.95 M139.14 1331.24 Q144.95 1331.24 148.005 1335.85 Q151.084 1340.43 151.084 1349.18 Q151.084 1357.91 148.005 1362.52 Q144.95 1367.1 139.14 1367.1 Q133.33 1367.1 130.251 1362.52 Q127.195 1357.91 127.195 1349.18 Q127.195 1340.43 130.251 1335.85 Q133.33 1331.24 139.14 1331.24 Z" fill="#000000" fill-rule="nonzero" fill-opacity="1" /><path clip-path="url(#clip210)" d="M187.473 1340.96 L176.894 1351.59 L187.473 1362.17 L184.718 1364.97 L174.093 1354.34 L163.468 1364.97 L160.737 1362.17 L171.292 1351.59 L160.737 1340.96 L163.468 1338.16 L174.093 1348.79 L184.718 1338.16 L187.473 1340.96 Z" fill="#000000" fill-rule="nonzero" fill-opacity="1" /><path clip-path="url(#clip210)" d="M199.834 1362.49 L207.473 1362.49 L207.473 1336.13 L199.163 1337.79 L199.163 1333.53 L207.426 1331.87 L212.102 1331.87 L212.102 1362.49 L219.741 1362.49 L219.741 1366.43 L199.834 1366.43 L199.834 1362.49 Z" fill="#000000" fill-rule="nonzero" fill-opacity="1" /><path clip-path="url(#clip210)" d="M239.186 1334.95 Q235.574 1334.95 233.746 1338.51 Q231.94 1342.05 231.94 1349.18 Q231.94 1356.29 233.746 1359.85 Q235.574 1363.4 239.186 1363.4 Q242.82 1363.4 244.625 1359.85 Q246.454 1356.29 246.454 1349.18 Q246.454 1342.05 244.625 1338.51 Q242.82 1334.95 239.186 1334.95 M239.186 1331.24 Q244.996 1331.24 248.051 1335.85 Q251.13 1340.43 251.13 1349.18 Q251.13 1357.91 248.051 1362.52 Q244.996 1367.1 239.186 1367.1 Q233.375 1367.1 230.297 1362.52 Q227.241 1357.91 227.241 1349.18 Q227.241 1340.43 230.297 1335.85 Q233.375 1331.24 239.186 1331.24 Z" fill="#000000" fill-rule="nonzero" fill-opacity="1" /><path clip-path="url(#clip210)" d="M263.825 1323.88 Q266.552 1324.46 268.076 1326.3 Q269.618 1328.15 269.618 1330.85 Q269.618 1335.01 266.759 1337.29 Q263.9 1339.56 258.634 1339.56 Q256.866 1339.56 254.986 1339.21 Q253.124 1338.87 251.13 1338.17 L251.13 1334.5 Q252.71 1335.43 254.591 1335.9 Q256.471 1336.37 258.521 1336.37 Q262.095 1336.37 263.957 1334.95 Q265.838 1333.54 265.838 1330.85 Q265.838 1328.37 264.088 1326.98 Q262.358 1325.57 259.255 1325.57 L255.982 1325.57 L255.982 1322.45 L259.405 1322.45 Q262.208 1322.45 263.694 1321.34 Q265.179 1320.21 265.179 1318.1 Q265.179 1315.94 263.637 1314.79 Q262.114 1313.63 259.255 1313.63 Q257.694 1313.63 255.907 1313.97 Q254.12 1314.3 251.976 1315.02 L251.976 1311.63 Q254.139 1311.03 256.02 1310.73 Q257.92 1310.43 259.593 1310.43 Q263.919 1310.43 266.439 1312.4 Q268.96 1314.36 268.96 1317.71 Q268.96 1320.04 267.624 1321.66 Q266.289 1323.26 263.825 1323.88 Z" fill="#000000" fill-rule="nonzero" fill-opacity="1" /><path clip-path="url(#clip210)" d="M66.5939 1139.33 L54.7884 1157.78 L66.5939 1157.78 L66.5939 1139.33 M65.367 1135.25 L71.2466 1135.25 L71.2466 1157.78 L76.1772 1157.78 L76.1772 1161.66 L71.2466 1161.66 L71.2466 1169.81 L66.5939 1169.81 L66.5939 1161.66 L50.9921 1161.66 L50.9921 1157.15 L65.367 1135.25 Z" fill="#000000" fill-rule="nonzero" fill-opacity="1" /><path clip-path="url(#clip210)" d="M83.9086 1163.93 L88.7928 1163.93 L88.7928 1169.81 L83.9086 1169.81 L83.9086 1163.93 Z" fill="#000000" fill-rule="nonzero" fill-opacity="1" /><path clip-path="url(#clip210)" d="M108.978 1138.33 Q105.367 1138.33 103.538 1141.9 Q101.733 1145.44 101.733 1152.57 Q101.733 1159.67 103.538 1163.24 Q105.367 1166.78 108.978 1166.78 Q112.612 1166.78 114.418 1163.24 Q116.246 1159.67 116.246 1152.57 Q116.246 1145.44 114.418 1141.9 Q112.612 1138.33 108.978 1138.33 M108.978 1134.63 Q114.788 1134.63 117.844 1139.23 Q120.922 1143.82 120.922 1152.57 Q120.922 1161.29 117.844 1165.9 Q114.788 1170.48 108.978 1170.48 Q103.168 1170.48 100.089 1165.9 Q97.0335 1161.29 97.0335 1152.57 Q97.0335 1143.82 100.089 1139.23 Q103.168 1134.63 108.978 1134.63 Z" fill="#000000" fill-rule="nonzero" fill-opacity="1" /><path clip-path="url(#clip210)" d="M139.14 1138.33 Q135.529 1138.33 133.7 1141.9 Q131.894 1145.44 131.894 1152.57 Q131.894 1159.67 133.7 1163.24 Q135.529 1166.78 139.14 1166.78 Q142.774 1166.78 144.58 1163.24 Q146.408 1159.67 146.408 1152.57 Q146.408 1145.44 144.58 1141.9 Q142.774 1138.33 139.14 1138.33 M139.14 1134.63 Q144.95 1134.63 148.005 1139.23 Q151.084 1143.82 151.084 1152.57 Q151.084 1161.29 148.005 1165.9 Q144.95 1170.48 139.14 1170.48 Q133.33 1170.48 130.251 1165.9 Q127.195 1161.29 127.195 1152.57 Q127.195 1143.82 130.251 1139.23 Q133.33 1134.63 139.14 1134.63 Z" fill="#000000" fill-rule="nonzero" fill-opacity="1" /><path clip-path="url(#clip210)" d="M187.473 1144.35 L176.894 1154.98 L187.473 1165.55 L184.718 1168.35 L174.093 1157.73 L163.468 1168.35 L160.737 1165.55 L171.292 1154.98 L160.737 1144.35 L163.468 1141.55 L174.093 1152.17 L184.718 1141.55 L187.473 1144.35 Z" fill="#000000" fill-rule="nonzero" fill-opacity="1" /><path clip-path="url(#clip210)" d="M199.834 1165.88 L207.473 1165.88 L207.473 1139.51 L199.163 1141.18 L199.163 1136.92 L207.426 1135.25 L212.102 1135.25 L212.102 1165.88 L219.741 1165.88 L219.741 1169.81 L199.834 1169.81 L199.834 1165.88 Z" fill="#000000" fill-rule="nonzero" fill-opacity="1" /><path clip-path="url(#clip210)" d="M239.186 1138.33 Q235.574 1138.33 233.746 1141.9 Q231.94 1145.44 231.94 1152.57 Q231.94 1159.67 233.746 1163.24 Q235.574 1166.78 239.186 1166.78 Q242.82 1166.78 244.625 1163.24 Q246.454 1159.67 246.454 1152.57 Q246.454 1145.44 244.625 1141.9 Q242.82 1138.33 239.186 1138.33 M239.186 1134.63 Q244.996 1134.63 248.051 1139.23 Q251.13 1143.82 251.13 1152.57 Q251.13 1161.29 248.051 1165.9 Q244.996 1170.48 239.186 1170.48 Q233.375 1170.48 230.297 1165.9 Q227.241 1161.29 227.241 1152.57 Q227.241 1143.82 230.297 1139.23 Q233.375 1134.63 239.186 1134.63 Z" fill="#000000" fill-rule="nonzero" fill-opacity="1" /><path clip-path="url(#clip210)" d="M263.825 1127.26 Q266.552 1127.85 268.076 1129.69 Q269.618 1131.53 269.618 1134.24 Q269.618 1138.4 266.759 1140.67 Q263.9 1142.95 258.634 1142.95 Q256.866 1142.95 254.986 1142.59 Q253.124 1142.25 251.13 1141.56 L251.13 1137.89 Q252.71 1138.81 254.591 1139.28 Q256.471 1139.75 258.521 1139.75 Q262.095 1139.75 263.957 1138.34 Q265.838 1136.93 265.838 1134.24 Q265.838 1131.76 264.088 1130.37 Q262.358 1128.95 259.255 1128.95 L255.982 1128.95 L255.982 1125.83 L259.405 1125.83 Q262.208 1125.83 263.694 1124.72 Q265.179 1123.59 265.179 1121.49 Q265.179 1119.33 263.637 1118.18 Q262.114 1117.01 259.255 1117.01 Q257.694 1117.01 255.907 1117.35 Q254.12 1117.69 251.976 1118.4 L251.976 1115.02 Q254.139 1114.42 256.02 1114.12 Q257.92 1113.81 259.593 1113.81 Q263.919 1113.81 266.439 1115.79 Q268.96 1117.75 268.96 1121.09 Q268.96 1123.43 267.624 1125.04 Q266.289 1126.64 263.825 1127.26 Z" fill="#000000" fill-rule="nonzero" fill-opacity="1" /><path clip-path="url(#clip210)" d="M64.3254 954.055 Q61.1773 954.055 59.3254 956.207 Q57.4967 958.36 57.4967 962.11 Q57.4967 965.837 59.3254 968.013 Q61.1773 970.166 64.3254 970.166 Q67.4735 970.166 69.3022 968.013 Q71.1541 965.837 71.1541 962.11 Q71.1541 958.36 69.3022 956.207 Q67.4735 954.055 64.3254 954.055 M73.6077 939.402 L73.6077 943.661 Q71.8485 942.828 70.0429 942.388 Q68.2606 941.948 66.5013 941.948 Q61.8717 941.948 59.418 945.073 Q56.9875 948.198 56.6402 954.518 Q58.006 952.504 60.0662 951.439 Q62.1263 950.351 64.6032 950.351 Q69.8115 950.351 72.8207 953.522 Q75.8531 956.67 75.8531 962.11 Q75.8531 967.434 72.705 970.652 Q69.5568 973.869 64.3254 973.869 Q58.33 973.869 55.1588 969.286 Q51.9875 964.68 51.9875 955.953 Q51.9875 947.758 55.8764 942.897 Q59.7652 938.013 66.3161 938.013 Q68.0754 938.013 69.8578 938.36 Q71.6633 938.708 73.6077 939.402 Z" fill="#000000" fill-rule="nonzero" fill-opacity="1" /><path clip-path="url(#clip210)" d="M83.9086 967.318 L88.7928 967.318 L88.7928 973.198 L83.9086 973.198 L83.9086 967.318 Z" fill="#000000" fill-rule="nonzero" fill-opacity="1" /><path clip-path="url(#clip210)" d="M108.978 941.717 Q105.367 941.717 103.538 945.282 Q101.733 948.823 101.733 955.953 Q101.733 963.059 103.538 966.624 Q105.367 970.166 108.978 970.166 Q112.612 970.166 114.418 966.624 Q116.246 963.059 116.246 955.953 Q116.246 948.823 114.418 945.282 Q112.612 941.717 108.978 941.717 M108.978 938.013 Q114.788 938.013 117.844 942.62 Q120.922 947.203 120.922 955.953 Q120.922 964.68 117.844 969.286 Q114.788 973.869 108.978 973.869 Q103.168 973.869 100.089 969.286 Q97.0335 964.68 97.0335 955.953 Q97.0335 947.203 100.089 942.62 Q103.168 938.013 108.978 938.013 Z" fill="#000000" fill-rule="nonzero" fill-opacity="1" /><path clip-path="url(#clip210)" d="M139.14 941.717 Q135.529 941.717 133.7 945.282 Q131.894 948.823 131.894 955.953 Q131.894 963.059 133.7 966.624 Q135.529 970.166 139.14 970.166 Q142.774 970.166 144.58 966.624 Q146.408 963.059 146.408 955.953 Q146.408 948.823 144.58 945.282 Q142.774 941.717 139.14 941.717 M139.14 938.013 Q144.95 938.013 148.005 942.62 Q151.084 947.203 151.084 955.953 Q151.084 964.68 148.005 969.286 Q144.95 973.869 139.14 973.869 Q133.33 973.869 130.251 969.286 Q127.195 964.68 127.195 955.953 Q127.195 947.203 130.251 942.62 Q133.33 938.013 139.14 938.013 Z" fill="#000000" fill-rule="nonzero" fill-opacity="1" /><path clip-path="url(#clip210)" d="M187.473 947.735 L176.894 958.36 L187.473 968.939 L184.718 971.74 L174.093 961.115 L163.468 971.74 L160.737 968.939 L171.292 958.36 L160.737 947.735 L163.468 944.934 L174.093 955.559 L184.718 944.934 L187.473 947.735 Z" fill="#000000" fill-rule="nonzero" fill-opacity="1" /><path clip-path="url(#clip210)" d="M199.834 969.263 L207.473 969.263 L207.473 942.897 L199.163 944.564 L199.163 940.305 L207.426 938.638 L212.102 938.638 L212.102 969.263 L219.741 969.263 L219.741 973.198 L199.834 973.198 L199.834 969.263 Z" fill="#000000" fill-rule="nonzero" fill-opacity="1" /><path clip-path="url(#clip210)" d="M239.186 941.717 Q235.574 941.717 233.746 945.282 Q231.94 948.823 231.94 955.953 Q231.94 963.059 233.746 966.624 Q235.574 970.166 239.186 970.166 Q242.82 970.166 244.625 966.624 Q246.454 963.059 246.454 955.953 Q246.454 948.823 244.625 945.282 Q242.82 941.717 239.186 941.717 M239.186 938.013 Q244.996 938.013 248.051 942.62 Q251.13 947.203 251.13 955.953 Q251.13 964.68 248.051 969.286 Q244.996 973.869 239.186 973.869 Q233.375 973.869 230.297 969.286 Q227.241 964.68 227.241 955.953 Q227.241 947.203 230.297 942.62 Q233.375 938.013 239.186 938.013 Z" fill="#000000" fill-rule="nonzero" fill-opacity="1" /><path clip-path="url(#clip210)" d="M263.825 930.647 Q266.552 931.23 268.076 933.074 Q269.618 934.917 269.618 937.625 Q269.618 941.782 266.759 944.057 Q263.9 946.333 258.634 946.333 Q256.866 946.333 254.986 945.976 Q253.124 945.637 251.13 944.941 L251.13 941.274 Q252.71 942.195 254.591 942.666 Q256.471 943.136 258.521 943.136 Q262.095 943.136 263.957 941.725 Q265.838 940.315 265.838 937.625 Q265.838 935.142 264.088 933.751 Q262.358 932.34 259.255 932.34 L255.982 932.34 L255.982 929.218 L259.405 929.218 Q262.208 929.218 263.694 928.108 Q265.179 926.98 265.179 924.873 Q265.179 922.711 263.637 921.563 Q262.114 920.397 259.255 920.397 Q257.694 920.397 255.907 920.736 Q254.12 921.074 251.976 921.789 L251.976 918.404 Q254.139 917.802 256.02 917.501 Q257.92 917.2 259.593 917.2 Q263.919 917.2 266.439 919.175 Q268.96 921.131 268.96 924.478 Q268.96 926.811 267.624 928.428 Q266.289 930.027 263.825 930.647 Z" fill="#000000" fill-rule="nonzero" fill-opacity="1" /><path clip-path="url(#clip210)" d="M63.7467 760.171 Q60.4134 760.171 58.4921 761.954 Q56.5939 763.736 56.5939 766.861 Q56.5939 769.986 58.4921 771.768 Q60.4134 773.551 63.7467 773.551 Q67.08 773.551 69.0013 771.768 Q70.9226 769.963 70.9226 766.861 Q70.9226 763.736 69.0013 761.954 Q67.1032 760.171 63.7467 760.171 M59.0708 758.181 Q56.0615 757.44 54.3717 755.38 Q52.7051 753.319 52.7051 750.357 Q52.7051 746.213 55.6449 743.806 Q58.6078 741.398 63.7467 741.398 Q68.9087 741.398 71.8485 743.806 Q74.7883 746.213 74.7883 750.357 Q74.7883 753.319 73.0985 755.38 Q71.4318 757.44 68.4457 758.181 Q71.8253 758.968 73.7003 761.259 Q75.5985 763.551 75.5985 766.861 Q75.5985 771.884 72.5198 774.569 Q69.4642 777.255 63.7467 777.255 Q58.0291 777.255 54.9504 774.569 Q51.8949 771.884 51.8949 766.861 Q51.8949 763.551 53.793 761.259 Q55.6912 758.968 59.0708 758.181 M57.3578 750.796 Q57.3578 753.482 59.0245 754.986 Q60.7143 756.491 63.7467 756.491 Q66.7559 756.491 68.4457 754.986 Q70.1587 753.482 70.1587 750.796 Q70.1587 748.111 68.4457 746.607 Q66.7559 745.102 63.7467 745.102 Q60.7143 745.102 59.0245 746.607 Q57.3578 748.111 57.3578 750.796 Z" fill="#000000" fill-rule="nonzero" fill-opacity="1" /><path clip-path="url(#clip210)" d="M83.9086 770.704 L88.7928 770.704 L88.7928 776.583 L83.9086 776.583 L83.9086 770.704 Z" fill="#000000" fill-rule="nonzero" fill-opacity="1" /><path clip-path="url(#clip210)" d="M108.978 745.102 Q105.367 745.102 103.538 748.667 Q101.733 752.208 101.733 759.338 Q101.733 766.444 103.538 770.009 Q105.367 773.551 108.978 773.551 Q112.612 773.551 114.418 770.009 Q116.246 766.444 116.246 759.338 Q116.246 752.208 114.418 748.667 Q112.612 745.102 108.978 745.102 M108.978 741.398 Q114.788 741.398 117.844 746.005 Q120.922 750.588 120.922 759.338 Q120.922 768.065 117.844 772.671 Q114.788 777.255 108.978 777.255 Q103.168 777.255 100.089 772.671 Q97.0335 768.065 97.0335 759.338 Q97.0335 750.588 100.089 746.005 Q103.168 741.398 108.978 741.398 Z" fill="#000000" fill-rule="nonzero" fill-opacity="1" /><path clip-path="url(#clip210)" d="M139.14 745.102 Q135.529 745.102 133.7 748.667 Q131.894 752.208 131.894 759.338 Q131.894 766.444 133.7 770.009 Q135.529 773.551 139.14 773.551 Q142.774 773.551 144.58 770.009 Q146.408 766.444 146.408 759.338 Q146.408 752.208 144.58 748.667 Q142.774 745.102 139.14 745.102 M139.14 741.398 Q144.95 741.398 148.005 746.005 Q151.084 750.588 151.084 759.338 Q151.084 768.065 148.005 772.671 Q144.95 777.255 139.14 777.255 Q133.33 777.255 130.251 772.671 Q127.195 768.065 127.195 759.338 Q127.195 750.588 130.251 746.005 Q133.33 741.398 139.14 741.398 Z" fill="#000000" fill-rule="nonzero" fill-opacity="1" /><path clip-path="url(#clip210)" d="M187.473 751.12 L176.894 761.745 L187.473 772.324 L184.718 775.125 L174.093 764.5 L163.468 775.125 L160.737 772.324 L171.292 761.745 L160.737 751.12 L163.468 748.32 L174.093 758.944 L184.718 748.32 L187.473 751.12 Z" fill="#000000" fill-rule="nonzero" fill-opacity="1" /><path clip-path="url(#clip210)" d="M199.834 772.648 L207.473 772.648 L207.473 746.282 L199.163 747.949 L199.163 743.69 L207.426 742.023 L212.102 742.023 L212.102 772.648 L219.741 772.648 L219.741 776.583 L199.834 776.583 L199.834 772.648 Z" fill="#000000" fill-rule="nonzero" fill-opacity="1" /><path clip-path="url(#clip210)" d="M239.186 745.102 Q235.574 745.102 233.746 748.667 Q231.94 752.208 231.94 759.338 Q231.94 766.444 233.746 770.009 Q235.574 773.551 239.186 773.551 Q242.82 773.551 244.625 770.009 Q246.454 766.444 246.454 759.338 Q246.454 752.208 244.625 748.667 Q242.82 745.102 239.186 745.102 M239.186 741.398 Q244.996 741.398 248.051 746.005 Q251.13 750.588 251.13 759.338 Q251.13 768.065 248.051 772.671 Q244.996 777.255 239.186 777.255 Q233.375 777.255 230.297 772.671 Q227.241 768.065 227.241 759.338 Q227.241 750.588 230.297 746.005 Q233.375 741.398 239.186 741.398 Z" fill="#000000" fill-rule="nonzero" fill-opacity="1" /><path clip-path="url(#clip210)" d="M263.825 734.033 Q266.552 734.616 268.076 736.459 Q269.618 738.302 269.618 741.01 Q269.618 745.167 266.759 747.443 Q263.9 749.718 258.634 749.718 Q256.866 749.718 254.986 749.361 Q253.124 749.022 251.13 748.327 L251.13 744.659 Q252.71 745.581 254.591 746.051 Q256.471 746.521 258.521 746.521 Q262.095 746.521 263.957 745.11 Q265.838 743.7 265.838 741.01 Q265.838 738.528 264.088 737.136 Q262.358 735.725 259.255 735.725 L255.982 735.725 L255.982 732.603 L259.405 732.603 Q262.208 732.603 263.694 731.494 Q265.179 730.365 265.179 728.259 Q265.179 726.096 263.637 724.948 Q262.114 723.782 259.255 723.782 Q257.694 723.782 255.907 724.121 Q254.12 724.459 251.976 725.174 L251.976 721.789 Q254.139 721.187 256.02 720.886 Q257.92 720.585 259.593 720.585 Q263.919 720.585 266.439 722.56 Q268.96 724.516 268.96 727.864 Q268.96 730.196 267.624 731.813 Q266.289 733.412 263.825 734.033 Z" fill="#000000" fill-rule="nonzero" fill-opacity="1" /><path clip-path="url(#clip210)" d="M52.5821 576.033 L60.221 576.033 L60.221 549.668 L51.9108 551.334 L51.9108 547.075 L60.1747 545.408 L64.8506 545.408 L64.8506 576.033 L72.4894 576.033 L72.4894 579.968 L52.5821 579.968 L52.5821 576.033 Z" fill="#000000" fill-rule="nonzero" fill-opacity="1" /><path clip-path="url(#clip210)" d="M81.9338 574.089 L86.818 574.089 L86.818 579.968 L81.9338 579.968 L81.9338 574.089 Z" fill="#000000" fill-rule="nonzero" fill-opacity="1" /><path clip-path="url(#clip210)" d="M107.003 548.487 Q103.392 548.487 101.563 552.052 Q99.7578 555.594 99.7578 562.723 Q99.7578 569.83 101.563 573.394 Q103.392 576.936 107.003 576.936 Q110.637 576.936 112.443 573.394 Q114.272 569.83 114.272 562.723 Q114.272 555.594 112.443 552.052 Q110.637 548.487 107.003 548.487 M107.003 544.783 Q112.813 544.783 115.869 549.39 Q118.947 553.973 118.947 562.723 Q118.947 571.45 115.869 576.056 Q112.813 580.64 107.003 580.64 Q101.193 580.64 98.1143 576.056 Q95.0587 571.45 95.0587 562.723 Q95.0587 553.973 98.1143 549.39 Q101.193 544.783 107.003 544.783 Z" fill="#000000" fill-rule="nonzero" fill-opacity="1" /><path clip-path="url(#clip210)" d="M137.165 548.487 Q133.554 548.487 131.725 552.052 Q129.92 555.594 129.92 562.723 Q129.92 569.83 131.725 573.394 Q133.554 576.936 137.165 576.936 Q140.799 576.936 142.605 573.394 Q144.433 569.83 144.433 562.723 Q144.433 555.594 142.605 552.052 Q140.799 548.487 137.165 548.487 M137.165 544.783 Q142.975 544.783 146.031 549.39 Q149.109 553.973 149.109 562.723 Q149.109 571.45 146.031 576.056 Q142.975 580.64 137.165 580.64 Q131.355 580.64 128.276 576.056 Q125.221 571.45 125.221 562.723 Q125.221 553.973 128.276 549.39 Q131.355 544.783 137.165 544.783 Z" fill="#000000" fill-rule="nonzero" fill-opacity="1" /><path clip-path="url(#clip210)" d="M185.498 554.506 L174.919 565.131 L185.498 575.709 L182.743 578.51 L172.119 567.885 L161.494 578.51 L158.762 575.709 L169.318 565.131 L158.762 554.506 L161.494 551.705 L172.119 562.33 L182.743 551.705 L185.498 554.506 Z" fill="#000000" fill-rule="nonzero" fill-opacity="1" /><path clip-path="url(#clip210)" d="M197.859 576.033 L205.498 576.033 L205.498 549.668 L197.188 551.334 L197.188 547.075 L205.452 545.408 L210.128 545.408 L210.128 576.033 L217.766 576.033 L217.766 579.968 L197.859 579.968 L197.859 576.033 Z" fill="#000000" fill-rule="nonzero" fill-opacity="1" /><path clip-path="url(#clip210)" d="M237.211 548.487 Q233.6 548.487 231.771 552.052 Q229.965 555.594 229.965 562.723 Q229.965 569.83 231.771 573.394 Q233.6 576.936 237.211 576.936 Q240.845 576.936 242.651 573.394 Q244.479 569.83 244.479 562.723 Q244.479 555.594 242.651 552.052 Q240.845 548.487 237.211 548.487 M237.211 544.783 Q243.021 544.783 246.076 549.39 Q249.155 553.973 249.155 562.723 Q249.155 571.45 246.076 576.056 Q243.021 580.64 237.211 580.64 Q231.401 580.64 228.322 576.056 Q225.266 571.45 225.266 562.723 Q225.266 553.973 228.322 549.39 Q231.401 544.783 237.211 544.783 Z" fill="#000000" fill-rule="nonzero" fill-opacity="1" /><path clip-path="url(#clip210)" d="M261.832 527.788 L252.24 542.778 L261.832 542.778 L261.832 527.788 M260.835 524.478 L265.612 524.478 L265.612 542.778 L269.618 542.778 L269.618 545.938 L265.612 545.938 L265.612 552.558 L261.832 552.558 L261.832 545.938 L249.155 545.938 L249.155 542.27 L260.835 524.478 Z" fill="#000000" fill-rule="nonzero" fill-opacity="1" /><path clip-path="url(#clip210)" d="M52.5821 379.418 L60.221 379.418 L60.221 353.053 L51.9108 354.72 L51.9108 350.46 L60.1747 348.794 L64.8506 348.794 L64.8506 379.418 L72.4894 379.418 L72.4894 383.354 L52.5821 383.354 L52.5821 379.418 Z" fill="#000000" fill-rule="nonzero" fill-opacity="1" /><path clip-path="url(#clip210)" d="M81.9338 377.474 L86.818 377.474 L86.818 383.354 L81.9338 383.354 L81.9338 377.474 Z" fill="#000000" fill-rule="nonzero" fill-opacity="1" /><path clip-path="url(#clip210)" d="M101.031 379.418 L117.35 379.418 L117.35 383.354 L95.406 383.354 L95.406 379.418 Q98.068 376.664 102.651 372.034 Q107.258 367.381 108.438 366.039 Q110.684 363.516 111.563 361.78 Q112.466 360.02 112.466 358.331 Q112.466 355.576 110.522 353.84 Q108.6 352.104 105.498 352.104 Q103.299 352.104 100.846 352.868 Q98.4152 353.632 95.6374 355.182 L95.6374 350.46 Q98.4615 349.326 100.915 348.747 Q103.369 348.169 105.406 348.169 Q110.776 348.169 113.971 350.854 Q117.165 353.539 117.165 358.03 Q117.165 360.159 116.355 362.081 Q115.568 363.979 113.461 366.571 Q112.883 367.243 109.781 370.46 Q106.679 373.655 101.031 379.418 Z" fill="#000000" fill-rule="nonzero" fill-opacity="1" /><path clip-path="url(#clip210)" d="M137.165 351.872 Q133.554 351.872 131.725 355.437 Q129.92 358.979 129.92 366.108 Q129.92 373.215 131.725 376.78 Q133.554 380.321 137.165 380.321 Q140.799 380.321 142.605 376.78 Q144.433 373.215 144.433 366.108 Q144.433 358.979 142.605 355.437 Q140.799 351.872 137.165 351.872 M137.165 348.169 Q142.975 348.169 146.031 352.775 Q149.109 357.358 149.109 366.108 Q149.109 374.835 146.031 379.442 Q142.975 384.025 137.165 384.025 Q131.355 384.025 128.276 379.442 Q125.221 374.835 125.221 366.108 Q125.221 357.358 128.276 352.775 Q131.355 348.169 137.165 348.169 Z" fill="#000000" fill-rule="nonzero" fill-opacity="1" /><path clip-path="url(#clip210)" d="M185.498 357.891 L174.919 368.516 L185.498 379.094 L182.743 381.895 L172.119 371.27 L161.494 381.895 L158.762 379.094 L169.318 368.516 L158.762 357.891 L161.494 355.09 L172.119 365.715 L182.743 355.09 L185.498 357.891 Z" fill="#000000" fill-rule="nonzero" fill-opacity="1" /><path clip-path="url(#clip210)" d="M197.859 379.418 L205.498 379.418 L205.498 353.053 L197.188 354.72 L197.188 350.46 L205.452 348.794 L210.128 348.794 L210.128 379.418 L217.766 379.418 L217.766 383.354 L197.859 383.354 L197.859 379.418 Z" fill="#000000" fill-rule="nonzero" fill-opacity="1" /><path clip-path="url(#clip210)" d="M237.211 351.872 Q233.6 351.872 231.771 355.437 Q229.965 358.979 229.965 366.108 Q229.965 373.215 231.771 376.78 Q233.6 380.321 237.211 380.321 Q240.845 380.321 242.651 376.78 Q244.479 373.215 244.479 366.108 Q244.479 358.979 242.651 355.437 Q240.845 351.872 237.211 351.872 M237.211 348.169 Q243.021 348.169 246.076 352.775 Q249.155 357.358 249.155 366.108 Q249.155 374.835 246.076 379.442 Q243.021 384.025 237.211 384.025 Q231.401 384.025 228.322 379.442 Q225.266 374.835 225.266 366.108 Q225.266 357.358 228.322 352.775 Q231.401 348.169 237.211 348.169 Z" fill="#000000" fill-rule="nonzero" fill-opacity="1" /><path clip-path="url(#clip210)" d="M261.832 331.173 L252.24 346.163 L261.832 346.163 L261.832 331.173 M260.835 327.863 L265.612 327.863 L265.612 346.163 L269.618 346.163 L269.618 349.323 L265.612 349.323 L265.612 355.943 L261.832 355.943 L261.832 349.323 L249.155 349.323 L249.155 345.655 L260.835 327.863 Z" fill="#000000" fill-rule="nonzero" fill-opacity="1" /><path clip-path="url(#clip210)" d="M52.5821 182.804 L60.221 182.804 L60.221 156.438 L51.9108 158.105 L51.9108 153.845 L60.1747 152.179 L64.8506 152.179 L64.8506 182.804 L72.4894 182.804 L72.4894 186.739 L52.5821 186.739 L52.5821 182.804 Z" fill="#000000" fill-rule="nonzero" fill-opacity="1" /><path clip-path="url(#clip210)" d="M81.9338 180.859 L86.818 180.859 L86.818 186.739 L81.9338 186.739 L81.9338 180.859 Z" fill="#000000" fill-rule="nonzero" fill-opacity="1" /><path clip-path="url(#clip210)" d="M109.85 156.253 L98.0448 174.702 L109.85 174.702 L109.85 156.253 M108.623 152.179 L114.503 152.179 L114.503 174.702 L119.434 174.702 L119.434 178.591 L114.503 178.591 L114.503 186.739 L109.85 186.739 L109.85 178.591 L94.2485 178.591 L94.2485 174.077 L108.623 152.179 Z" fill="#000000" fill-rule="nonzero" fill-opacity="1" /><path clip-path="url(#clip210)" d="M137.165 155.257 Q133.554 155.257 131.725 158.822 Q129.92 162.364 129.92 169.494 Q129.92 176.6 131.725 180.165 Q133.554 183.706 137.165 183.706 Q140.799 183.706 142.605 180.165 Q144.433 176.6 144.433 169.494 Q144.433 162.364 142.605 158.822 Q140.799 155.257 137.165 155.257 M137.165 151.554 Q142.975 151.554 146.031 156.16 Q149.109 160.744 149.109 169.494 Q149.109 178.22 146.031 182.827 Q142.975 187.41 137.165 187.41 Q131.355 187.41 128.276 182.827 Q125.221 178.22 125.221 169.494 Q125.221 160.744 128.276 156.16 Q131.355 151.554 137.165 151.554 Z" fill="#000000" fill-rule="nonzero" fill-opacity="1" /><path clip-path="url(#clip210)" d="M185.498 161.276 L174.919 171.901 L185.498 182.48 L182.743 185.28 L172.119 174.656 L161.494 185.28 L158.762 182.48 L169.318 171.901 L158.762 161.276 L161.494 158.475 L172.119 169.1 L182.743 158.475 L185.498 161.276 Z" fill="#000000" fill-rule="nonzero" fill-opacity="1" /><path clip-path="url(#clip210)" d="M197.859 182.804 L205.498 182.804 L205.498 156.438 L197.188 158.105 L197.188 153.845 L205.452 152.179 L210.128 152.179 L210.128 182.804 L217.766 182.804 L217.766 186.739 L197.859 186.739 L197.859 182.804 Z" fill="#000000" fill-rule="nonzero" fill-opacity="1" /><path clip-path="url(#clip210)" d="M237.211 155.257 Q233.6 155.257 231.771 158.822 Q229.965 162.364 229.965 169.494 Q229.965 176.6 231.771 180.165 Q233.6 183.706 237.211 183.706 Q240.845 183.706 242.651 180.165 Q244.479 176.6 244.479 169.494 Q244.479 162.364 242.651 158.822 Q240.845 155.257 237.211 155.257 M237.211 151.554 Q243.021 151.554 246.076 156.16 Q249.155 160.744 249.155 169.494 Q249.155 178.22 246.076 182.827 Q243.021 187.41 237.211 187.41 Q231.401 187.41 228.322 182.827 Q225.266 178.22 225.266 169.494 Q225.266 160.744 228.322 156.16 Q231.401 151.554 237.211 151.554 Z" fill="#000000" fill-rule="nonzero" fill-opacity="1" /><path clip-path="url(#clip210)" d="M261.832 134.559 L252.24 149.548 L261.832 149.548 L261.832 134.559 M260.835 131.248 L265.612 131.248 L265.612 149.548 L269.618 149.548 L269.618 152.708 L265.612 152.708 L265.612 159.328 L261.832 159.328 L261.832 152.708 L249.155 152.708 L249.155 149.041 L260.835 131.248 Z" fill="#000000" fill-rule="nonzero" fill-opacity="1" /><polyline clip-path="url(#clip212)" style="stroke:#009af9; stroke-linecap:round; stroke-linejoin:round; stroke-width:4; stroke-opacity:1; fill:none" points="363.556,87.9763 383.064,1299.69 402.571,1445.66 422.079,1445.72 441.587,1445.72 461.094,1445.72 480.602,1445.72 500.11,1445.72 519.617,1445.72 539.125,1445.72 558.633,1445.72 578.141,1445.72 597.648,1445.72 617.156,1445.72 636.664,1445.72 656.171,1445.72 675.679,1445.72 695.187,1445.72 714.694,1445.72 734.202,1445.72 753.71,1445.72 773.218,1445.72 792.725,1445.72 812.233,1445.72 831.741,1445.72 851.248,1445.72 870.756,1445.72 890.264,1445.72 909.771,1445.72 929.279,1445.72 948.787,1445.72 968.295,1445.72 987.802,1445.72 1007.31,1445.72 1026.82,1445.72 1046.33,1445.72 1065.83,1445.72 1085.34,1445.72 1104.85,1445.72 1124.36,1445.72 1143.86,1445.72 1163.37,1445.72 1182.88,1445.72 1202.39,1445.72 1221.89,1445.72 1241.4,1445.72 1260.91,1445.72 1280.42,1445.72 1299.93,1445.72 1319.43,1445.72 1338.94,1445.72 1358.45,1445.72 1377.96,1445.72 1397.46,1445.72 1416.97,1445.72 1436.48,1445.72 1455.99,1445.72 1475.49,1445.72 1495,1445.72 1514.51,1445.72 1534.02,1445.72 1553.53,1445.72 1573.03,1445.72 1592.54,1445.72 1612.05,1445.72 1631.56,1445.72 1651.06,1445.72 1670.57,1445.72 1690.08,1445.72 1709.59,1445.72 1729.09,1445.72 1748.6,1445.72 1768.11,1445.72 1787.62,1445.72 1807.13,1445.72 1826.63,1445.72 1846.14,1445.72 1865.65,1445.72 1885.16,1445.72 1904.66,1445.72 1924.17,1445.72 1943.68,1445.72 1963.19,1445.72 1982.69,1445.72 2002.2,1445.72 2021.71,1445.72 2041.22,1445.72 2060.73,1445.72 2080.23,1445.72 2099.74,1445.72 2119.25,1445.72 2138.76,1445.72 2158.26,1445.72 2177.77,1445.72 2197.28,1445.72 2216.79,1445.72 2236.29,1445.72 2255.8,1445.72 2275.31,1445.72 2294.82,1445.72 "/>
<path clip-path="url(#clip210)" d="M1649.67 198.898 L2284.52 198.898 L2284.52 95.2176 L1649.67 95.2176  Z" fill="#ffffff" fill-rule="evenodd" fill-opacity="1"/>
<polyline clip-path="url(#clip210)" style="stroke:#000000; stroke-linecap:round; stroke-linejoin:round; stroke-width:4; stroke-opacity:1; fill:none" points="1649.67,198.898 2284.52,198.898 2284.52,95.2176 1649.67,95.2176 1649.67,198.898 "/>
<polyline clip-path="url(#clip210)" style="stroke:#009af9; stroke-linecap:round; stroke-linejoin:round; stroke-width:4; stroke-opacity:1; fill:none" points="1672.41,147.058 1808.89,147.058 "/>
<path clip-path="url(#clip210)" d="M1836.31 147.833 L1836.31 160.495 L1843.81 160.495 Q1847.58 160.495 1849.39 158.944 Q1851.22 157.37 1851.22 154.152 Q1851.22 150.912 1849.39 149.384 Q1847.58 147.833 1843.81 147.833 L1836.31 147.833 M1836.31 133.62 L1836.31 144.037 L1843.23 144.037 Q1846.66 144.037 1848.33 142.764 Q1850.01 141.467 1850.01 138.828 Q1850.01 136.213 1848.33 134.916 Q1846.66 133.62 1843.23 133.62 L1836.31 133.62 M1831.64 129.778 L1843.58 129.778 Q1848.93 129.778 1851.82 132 Q1854.71 134.222 1854.71 138.319 Q1854.71 141.49 1853.23 143.365 Q1851.75 145.24 1848.88 145.703 Q1852.33 146.444 1854.23 148.805 Q1856.15 151.143 1856.15 154.662 Q1856.15 159.291 1853 161.814 Q1849.85 164.338 1844.04 164.338 L1831.64 164.338 L1831.64 129.778 Z" fill="#000000" fill-rule="nonzero" fill-opacity="1" /><path clip-path="url(#clip210)" d="M1886.15 150.31 L1886.15 152.393 L1866.57 152.393 Q1866.84 156.791 1869.2 159.106 Q1871.59 161.398 1875.82 161.398 Q1878.28 161.398 1880.57 160.796 Q1882.89 160.194 1885.15 158.99 L1885.15 163.018 Q1882.86 163.99 1880.45 164.5 Q1878.05 165.009 1875.57 165.009 Q1869.37 165.009 1865.73 161.398 Q1862.12 157.787 1862.12 151.629 Q1862.12 145.264 1865.55 141.537 Q1869 137.787 1874.83 137.787 Q1880.06 137.787 1883.09 141.166 Q1886.15 144.523 1886.15 150.31 M1881.89 149.06 Q1881.84 145.565 1879.92 143.481 Q1878.02 141.398 1874.88 141.398 Q1871.31 141.398 1869.16 143.412 Q1867.03 145.426 1866.7 149.083 L1881.89 149.06 Z" fill="#000000" fill-rule="nonzero" fill-opacity="1" /><path clip-path="url(#clip210)" d="M1897.35 131.051 L1897.35 138.412 L1906.13 138.412 L1906.13 141.722 L1897.35 141.722 L1897.35 155.796 Q1897.35 158.967 1898.21 159.87 Q1899.09 160.773 1901.75 160.773 L1906.13 160.773 L1906.13 164.338 L1901.75 164.338 Q1896.82 164.338 1894.95 162.509 Q1893.07 160.657 1893.07 155.796 L1893.07 141.722 L1889.95 141.722 L1889.95 138.412 L1893.07 138.412 L1893.07 131.051 L1897.35 131.051 Z" fill="#000000" fill-rule="nonzero" fill-opacity="1" /><path clip-path="url(#clip210)" d="M1933.28 148.689 L1933.28 164.338 L1929.02 164.338 L1929.02 148.828 Q1929.02 145.148 1927.58 143.319 Q1926.15 141.49 1923.28 141.49 Q1919.83 141.49 1917.84 143.69 Q1915.85 145.889 1915.85 149.685 L1915.85 164.338 L1911.57 164.338 L1911.57 128.319 L1915.85 128.319 L1915.85 142.44 Q1917.38 140.102 1919.44 138.944 Q1921.52 137.787 1924.23 137.787 Q1928.7 137.787 1930.99 140.565 Q1933.28 143.319 1933.28 148.689 Z" fill="#000000" fill-rule="nonzero" fill-opacity="1" /><path clip-path="url(#clip210)" d="M1963.95 150.31 L1963.95 152.393 L1944.37 152.393 Q1944.64 156.791 1947.01 159.106 Q1949.39 161.398 1953.63 161.398 Q1956.08 161.398 1958.37 160.796 Q1960.69 160.194 1962.95 158.99 L1962.95 163.018 Q1960.66 163.99 1958.26 164.5 Q1955.85 165.009 1953.37 165.009 Q1947.17 165.009 1943.53 161.398 Q1939.92 157.787 1939.92 151.629 Q1939.92 145.264 1943.35 141.537 Q1946.8 137.787 1952.63 137.787 Q1957.86 137.787 1960.89 141.166 Q1963.95 144.523 1963.95 150.31 M1959.69 149.06 Q1959.64 145.565 1957.72 143.481 Q1955.82 141.398 1952.68 141.398 Q1949.11 141.398 1946.96 143.412 Q1944.83 145.426 1944.51 149.083 L1959.69 149.06 Z" fill="#000000" fill-rule="nonzero" fill-opacity="1" /><path clip-path="url(#clip210)" d="M1986.19 129.778 L2006.06 129.778 L2006.06 133.713 L1990.87 133.713 L1990.87 143.898 L2004.57 143.898 L2004.57 147.833 L1990.87 147.833 L1990.87 164.338 L1986.19 164.338 L1986.19 129.778 Z" fill="#000000" fill-rule="nonzero" fill-opacity="1" /><path clip-path="url(#clip210)" d="M2024.85 142.393 Q2024.13 141.977 2023.28 141.791 Q2022.44 141.583 2021.43 141.583 Q2017.81 141.583 2015.87 143.944 Q2013.95 146.282 2013.95 150.68 L2013.95 164.338 L2009.67 164.338 L2009.67 138.412 L2013.95 138.412 L2013.95 142.44 Q2015.29 140.078 2017.44 138.944 Q2019.6 137.787 2022.68 137.787 Q2023.12 137.787 2023.65 137.856 Q2024.18 137.903 2024.83 138.018 L2024.85 142.393 Z" fill="#000000" fill-rule="nonzero" fill-opacity="1" /><path clip-path="url(#clip210)" d="M2050.45 150.31 L2050.45 152.393 L2030.87 152.393 Q2031.15 156.791 2033.51 159.106 Q2035.89 161.398 2040.13 161.398 Q2042.58 161.398 2044.88 160.796 Q2047.19 160.194 2049.46 158.99 L2049.46 163.018 Q2047.17 163.99 2044.76 164.5 Q2042.35 165.009 2039.88 165.009 Q2033.67 165.009 2030.04 161.398 Q2026.43 157.787 2026.43 151.629 Q2026.43 145.264 2029.85 141.537 Q2033.3 137.787 2039.13 137.787 Q2044.37 137.787 2047.4 141.166 Q2050.45 144.523 2050.45 150.31 M2046.19 149.06 Q2046.15 145.565 2044.23 143.481 Q2042.33 141.398 2039.18 141.398 Q2035.62 141.398 2033.46 143.412 Q2031.33 145.426 2031.01 149.083 L2046.19 149.06 Z" fill="#000000" fill-rule="nonzero" fill-opacity="1" /><path clip-path="url(#clip210)" d="M2079.62 150.31 L2079.62 152.393 L2060.04 152.393 Q2060.31 156.791 2062.68 159.106 Q2065.06 161.398 2069.3 161.398 Q2071.75 161.398 2074.04 160.796 Q2076.36 160.194 2078.62 158.99 L2078.62 163.018 Q2076.33 163.99 2073.93 164.5 Q2071.52 165.009 2069.04 165.009 Q2062.84 165.009 2059.2 161.398 Q2055.59 157.787 2055.59 151.629 Q2055.59 145.264 2059.02 141.537 Q2062.47 137.787 2068.3 137.787 Q2073.53 137.787 2076.56 141.166 Q2079.62 144.523 2079.62 150.31 M2075.36 149.06 Q2075.31 145.565 2073.39 143.481 Q2071.5 141.398 2068.35 141.398 Q2064.78 141.398 2062.63 143.412 Q2060.5 145.426 2060.18 149.083 L2075.36 149.06 Z" fill="#000000" fill-rule="nonzero" fill-opacity="1" /><path clip-path="url(#clip210)" d="M2101.87 129.778 L2123.72 129.778 L2123.72 133.713 L2106.54 133.713 L2106.54 143.944 L2123 143.944 L2123 147.879 L2106.54 147.879 L2106.54 160.402 L2124.13 160.402 L2124.13 164.338 L2101.87 164.338 L2101.87 129.778 Z" fill="#000000" fill-rule="nonzero" fill-opacity="1" /><path clip-path="url(#clip210)" d="M2153.18 148.689 L2153.18 164.338 L2148.93 164.338 L2148.93 148.828 Q2148.93 145.148 2147.49 143.319 Q2146.06 141.49 2143.18 141.49 Q2139.74 141.49 2137.74 143.69 Q2135.75 145.889 2135.75 149.685 L2135.75 164.338 L2131.47 164.338 L2131.47 138.412 L2135.75 138.412 L2135.75 142.44 Q2137.28 140.102 2139.34 138.944 Q2141.43 137.787 2144.13 137.787 Q2148.6 137.787 2150.89 140.565 Q2153.18 143.319 2153.18 148.689 Z" fill="#000000" fill-rule="nonzero" fill-opacity="1" /><path clip-path="url(#clip210)" d="M2183.86 150.31 L2183.86 152.393 L2164.27 152.393 Q2164.55 156.791 2166.91 159.106 Q2169.3 161.398 2173.53 161.398 Q2175.99 161.398 2178.28 160.796 Q2180.59 160.194 2182.86 158.99 L2182.86 163.018 Q2180.57 163.99 2178.16 164.5 Q2175.75 165.009 2173.28 165.009 Q2167.07 165.009 2163.44 161.398 Q2159.83 157.787 2159.83 151.629 Q2159.83 145.264 2163.25 141.537 Q2166.7 137.787 2172.54 137.787 Q2177.77 137.787 2180.8 141.166 Q2183.86 144.523 2183.86 150.31 M2179.6 149.06 Q2179.55 145.565 2177.63 143.481 Q2175.73 141.398 2172.58 141.398 Q2169.02 141.398 2166.87 143.412 Q2164.74 145.426 2164.41 149.083 L2179.6 149.06 Z" fill="#000000" fill-rule="nonzero" fill-opacity="1" /><path clip-path="url(#clip210)" d="M2205.87 142.393 Q2205.15 141.977 2204.3 141.791 Q2203.46 141.583 2202.44 141.583 Q2198.83 141.583 2196.89 143.944 Q2194.97 146.282 2194.97 150.68 L2194.97 164.338 L2190.68 164.338 L2190.68 138.412 L2194.97 138.412 L2194.97 142.44 Q2196.31 140.078 2198.46 138.944 Q2200.61 137.787 2203.69 137.787 Q2204.13 137.787 2204.67 137.856 Q2205.2 137.903 2205.85 138.018 L2205.87 142.393 Z" fill="#000000" fill-rule="nonzero" fill-opacity="1" /><path clip-path="url(#clip210)" d="M2226.56 151.074 Q2226.56 146.444 2224.64 143.898 Q2222.74 141.352 2219.3 141.352 Q2215.87 141.352 2213.95 143.898 Q2212.05 146.444 2212.05 151.074 Q2212.05 155.68 2213.95 158.226 Q2215.87 160.773 2219.3 160.773 Q2222.74 160.773 2224.64 158.226 Q2226.56 155.68 2226.56 151.074 M2230.82 161.12 Q2230.82 167.74 2227.88 170.958 Q2224.94 174.199 2218.88 174.199 Q2216.63 174.199 2214.64 173.851 Q2212.65 173.527 2210.78 172.833 L2210.78 168.689 Q2212.65 169.708 2214.48 170.194 Q2216.31 170.68 2218.21 170.68 Q2222.4 170.68 2224.48 168.481 Q2226.56 166.305 2226.56 161.884 L2226.56 159.777 Q2225.24 162.069 2223.18 163.203 Q2221.12 164.338 2218.25 164.338 Q2213.49 164.338 2210.57 160.703 Q2207.65 157.069 2207.65 151.074 Q2207.65 145.055 2210.57 141.421 Q2213.49 137.787 2218.25 137.787 Q2221.12 137.787 2223.18 138.921 Q2225.24 140.055 2226.56 142.347 L2226.56 138.412 L2230.82 138.412 L2230.82 161.12 Z" fill="#000000" fill-rule="nonzero" fill-opacity="1" /><path clip-path="url(#clip210)" d="M2250.38 166.745 Q2248.58 171.375 2246.86 172.787 Q2245.15 174.199 2242.28 174.199 L2238.88 174.199 L2238.88 170.634 L2241.38 170.634 Q2243.14 170.634 2244.11 169.8 Q2245.08 168.967 2246.26 165.865 L2247.03 163.921 L2236.54 138.412 L2241.05 138.412 L2249.16 158.689 L2257.26 138.412 L2261.77 138.412 L2250.38 166.745 Z" fill="#000000" fill-rule="nonzero" fill-opacity="1" /></svg>
