<svg xmlns="http://www.w3.org/2000/svg" viewBox="0 0 204.18 212.57"><defs><style>.cls-1{fill:#333;fill-rule:evenodd;}.cls-2{fill:#389826;}.cls-3{fill:#9558b2;}.cls-4{fill:#fff;}.cls-5{fill:#cb3c33;}</style></defs><title>1</title><g id="Слой_2" data-name="Слой 2"><g id="Layer_1" data-name="Layer 1"><path class="cls-1" d="M66.11,114h63a12.55,12.55,0,0,0,12-12.5c0-14.06.27-27.62.27-41.48A11.4,11.4,0,0,1,152.73,48.6h40.09A11.4,11.4,0,0,1,204.18,60v40.09a11.39,11.39,0,0,1-11.36,11.37H157.67a12.56,12.56,0,0,0-10.78,12.4v70.9A17.9,17.9,0,0,1,129,212.57H66.11a17.9,17.9,0,0,1-17.84-17.84V129.48A12.27,12.27,0,0,0,36,117.24H8.73A8.76,8.76,0,0,1,0,108.5V77.7A8.76,8.76,0,0,1,8.73,69H37.47a10.83,10.83,0,0,0,10.8-10.8V12.48A12.52,12.52,0,0,1,60.75,0h44a12.52,12.52,0,0,1,12.48,12.48v44A12.52,12.52,0,0,1,104.76,69H59.07a10.83,10.83,0,0,0-10.8,10.8v22A12.27,12.27,0,0,0,60.51,114Z"/><rect class="cls-2" x="61.58" y="13.31" width="42.35" height="42.35"/><rect class="cls-3" x="154.67" y="61.92" width="36.2" height="36.2"/><rect class="cls-4" x="13.31" y="82.28" width="21.74" height="21.65"/><rect class="cls-5" x="61.49" y="127.26" width="71.99" height="71.99"/></g></g></svg>