<?xml version="1.0" encoding="utf-8"?>
<svg xmlns="http://www.w3.org/2000/svg" xmlns:xlink="http://www.w3.org/1999/xlink" width="600" height="400" viewBox="0 0 2400 1600">
<defs>
  <clipPath id="clip160">
    <rect x="0" y="0" width="2400" height="1600"/>
  </clipPath>
</defs>
<path clip-path="url(#clip160)" d="M0 1600 L2400 1600 L2400 0 L0 0  Z" fill="#ffffff" fill-rule="evenodd" fill-opacity="1"/>
<defs>
  <clipPath id="clip161">
    <rect x="480" y="0" width="1681" height="1600"/>
  </clipPath>
</defs>
<path clip-path="url(#clip160)" d="M199.283 1423.18 L2352.76 1423.18 L2352.76 47.2441 L199.283 47.2441  Z" fill="#ffffff" fill-rule="evenodd" fill-opacity="1"/>
<defs>
  <clipPath id="clip162">
    <rect x="199" y="47" width="2154" height="1377"/>
  </clipPath>
</defs>
<polyline clip-path="url(#clip162)" style="stroke:#000000; stroke-linecap:round; stroke-linejoin:round; stroke-width:2; stroke-opacity:0.1; fill:none" points="485.961,1423.18 485.961,47.2441 "/>
<polyline clip-path="url(#clip162)" style="stroke:#000000; stroke-linecap:round; stroke-linejoin:round; stroke-width:2; stroke-opacity:0.1; fill:none" points="937.423,1423.18 937.423,47.2441 "/>
<polyline clip-path="url(#clip162)" style="stroke:#000000; stroke-linecap:round; stroke-linejoin:round; stroke-width:2; stroke-opacity:0.1; fill:none" points="1388.88,1423.18 1388.88,47.2441 "/>
<polyline clip-path="url(#clip162)" style="stroke:#000000; stroke-linecap:round; stroke-linejoin:round; stroke-width:2; stroke-opacity:0.1; fill:none" points="1840.35,1423.18 1840.35,47.2441 "/>
<polyline clip-path="url(#clip162)" style="stroke:#000000; stroke-linecap:round; stroke-linejoin:round; stroke-width:2; stroke-opacity:0.1; fill:none" points="2291.81,1423.18 2291.81,47.2441 "/>
<polyline clip-path="url(#clip160)" style="stroke:#000000; stroke-linecap:round; stroke-linejoin:round; stroke-width:4; stroke-opacity:1; fill:none" points="199.283,1423.18 2352.76,1423.18 "/>
<polyline clip-path="url(#clip160)" style="stroke:#000000; stroke-linecap:round; stroke-linejoin:round; stroke-width:4; stroke-opacity:1; fill:none" points="485.961,1423.18 485.961,1404.28 "/>
<polyline clip-path="url(#clip160)" style="stroke:#000000; stroke-linecap:round; stroke-linejoin:round; stroke-width:4; stroke-opacity:1; fill:none" points="937.423,1423.18 937.423,1404.28 "/>
<polyline clip-path="url(#clip160)" style="stroke:#000000; stroke-linecap:round; stroke-linejoin:round; stroke-width:4; stroke-opacity:1; fill:none" points="1388.88,1423.18 1388.88,1404.28 "/>
<polyline clip-path="url(#clip160)" style="stroke:#000000; stroke-linecap:round; stroke-linejoin:round; stroke-width:4; stroke-opacity:1; fill:none" points="1840.35,1423.18 1840.35,1404.28 "/>
<polyline clip-path="url(#clip160)" style="stroke:#000000; stroke-linecap:round; stroke-linejoin:round; stroke-width:4; stroke-opacity:1; fill:none" points="2291.81,1423.18 2291.81,1404.28 "/>
<path clip-path="url(#clip160)" d="M480.614 1481.64 L496.934 1481.64 L496.934 1485.58 L474.989 1485.58 L474.989 1481.64 Q477.651 1478.89 482.235 1474.26 Q486.841 1469.61 488.022 1468.27 Q490.267 1465.74 491.147 1464.01 Q492.049 1462.25 492.049 1460.56 Q492.049 1457.8 490.105 1456.07 Q488.184 1454.33 485.082 1454.33 Q482.883 1454.33 480.429 1455.09 Q477.999 1455.86 475.221 1457.41 L475.221 1452.69 Q478.045 1451.55 480.498 1450.97 Q482.952 1450.39 484.989 1450.39 Q490.36 1450.39 493.554 1453.08 Q496.748 1455.77 496.748 1460.26 Q496.748 1462.39 495.938 1464.31 Q495.151 1466.2 493.045 1468.8 Q492.466 1469.47 489.364 1472.69 Q486.262 1475.88 480.614 1481.64 Z" fill="#000000" fill-rule="nonzero" fill-opacity="1" /><path clip-path="url(#clip160)" d="M940.432 1455.09 L928.627 1473.54 L940.432 1473.54 L940.432 1455.09 M939.206 1451.02 L945.085 1451.02 L945.085 1473.54 L950.016 1473.54 L950.016 1477.43 L945.085 1477.43 L945.085 1485.58 L940.432 1485.58 L940.432 1477.43 L924.831 1477.43 L924.831 1472.92 L939.206 1451.02 Z" fill="#000000" fill-rule="nonzero" fill-opacity="1" /><path clip-path="url(#clip160)" d="M1389.29 1466.44 Q1386.14 1466.44 1384.29 1468.59 Q1382.46 1470.74 1382.46 1474.49 Q1382.46 1478.22 1384.29 1480.39 Q1386.14 1482.55 1389.29 1482.55 Q1392.44 1482.55 1394.27 1480.39 Q1396.12 1478.22 1396.12 1474.49 Q1396.12 1470.74 1394.27 1468.59 Q1392.44 1466.44 1389.29 1466.44 M1398.57 1451.78 L1398.57 1456.04 Q1396.81 1455.21 1395.01 1454.77 Q1393.23 1454.33 1391.47 1454.33 Q1386.84 1454.33 1384.38 1457.45 Q1381.95 1460.58 1381.6 1466.9 Q1382.97 1464.89 1385.03 1463.82 Q1387.09 1462.73 1389.57 1462.73 Q1394.78 1462.73 1397.79 1465.9 Q1400.82 1469.05 1400.82 1474.49 Q1400.82 1479.82 1397.67 1483.03 Q1394.52 1486.25 1389.29 1486.25 Q1383.29 1486.25 1380.12 1481.67 Q1376.95 1477.06 1376.95 1468.33 Q1376.95 1460.14 1380.84 1455.28 Q1384.73 1450.39 1391.28 1450.39 Q1393.04 1450.39 1394.82 1450.74 Q1396.63 1451.09 1398.57 1451.78 Z" fill="#000000" fill-rule="nonzero" fill-opacity="1" /><path clip-path="url(#clip160)" d="M1840.35 1469.17 Q1837.01 1469.17 1835.09 1470.95 Q1833.19 1472.73 1833.19 1475.86 Q1833.19 1478.98 1835.09 1480.77 Q1837.01 1482.55 1840.35 1482.55 Q1843.68 1482.55 1845.6 1480.77 Q1847.52 1478.96 1847.52 1475.86 Q1847.52 1472.73 1845.6 1470.95 Q1843.7 1469.17 1840.35 1469.17 M1835.67 1467.18 Q1832.66 1466.44 1830.97 1464.38 Q1829.31 1462.32 1829.31 1459.35 Q1829.31 1455.21 1832.24 1452.8 Q1835.21 1450.39 1840.35 1450.39 Q1845.51 1450.39 1848.45 1452.8 Q1851.39 1455.21 1851.39 1459.35 Q1851.39 1462.32 1849.7 1464.38 Q1848.03 1466.44 1845.05 1467.18 Q1848.43 1467.96 1850.3 1470.26 Q1852.2 1472.55 1852.2 1475.86 Q1852.2 1480.88 1849.12 1483.57 Q1846.06 1486.25 1840.35 1486.25 Q1834.63 1486.25 1831.55 1483.57 Q1828.49 1480.88 1828.49 1475.86 Q1828.49 1472.55 1830.39 1470.26 Q1832.29 1467.96 1835.67 1467.18 M1833.96 1459.79 Q1833.96 1462.48 1835.62 1463.98 Q1837.31 1465.49 1840.35 1465.49 Q1843.36 1465.49 1845.05 1463.98 Q1846.76 1462.48 1846.76 1459.79 Q1846.76 1457.11 1845.05 1455.6 Q1843.36 1454.1 1840.35 1454.1 Q1837.31 1454.1 1835.62 1455.6 Q1833.96 1457.11 1833.96 1459.79 Z" fill="#000000" fill-rule="nonzero" fill-opacity="1" /><path clip-path="url(#clip160)" d="M2266.5 1481.64 L2274.14 1481.64 L2274.14 1455.28 L2265.82 1456.95 L2265.82 1452.69 L2274.09 1451.02 L2278.76 1451.02 L2278.76 1481.64 L2286.4 1481.64 L2286.4 1485.58 L2266.5 1485.58 L2266.5 1481.64 Z" fill="#000000" fill-rule="nonzero" fill-opacity="1" /><path clip-path="url(#clip160)" d="M2305.85 1454.1 Q2302.24 1454.1 2300.41 1457.66 Q2298.6 1461.2 2298.6 1468.33 Q2298.6 1475.44 2300.41 1479.01 Q2302.24 1482.55 2305.85 1482.55 Q2309.48 1482.55 2311.29 1479.01 Q2313.12 1475.44 2313.12 1468.33 Q2313.12 1461.2 2311.29 1457.66 Q2309.48 1454.1 2305.85 1454.1 M2305.85 1450.39 Q2311.66 1450.39 2314.71 1455 Q2317.79 1459.58 2317.79 1468.33 Q2317.79 1477.06 2314.71 1481.67 Q2311.66 1486.25 2305.85 1486.25 Q2300.04 1486.25 2296.96 1481.67 Q2293.9 1477.06 2293.9 1468.33 Q2293.9 1459.58 2296.96 1455 Q2300.04 1450.39 2305.85 1450.39 Z" fill="#000000" fill-rule="nonzero" fill-opacity="1" /><path clip-path="url(#clip160)" d="M1105.8 1520.52 L1112.23 1520.52 L1112.23 1568.04 L1105.8 1568.04 L1105.8 1520.52 Z" fill="#000000" fill-rule="nonzero" fill-opacity="1" /><path clip-path="url(#clip160)" d="M1130.56 1522.27 L1130.56 1532.4 L1142.63 1532.4 L1142.63 1536.95 L1130.56 1536.95 L1130.56 1556.3 Q1130.56 1560.66 1131.74 1561.9 Q1132.95 1563.14 1136.61 1563.14 L1142.63 1563.14 L1142.63 1568.04 L1136.61 1568.04 Q1129.83 1568.04 1127.25 1565.53 Q1124.67 1562.98 1124.67 1556.3 L1124.67 1536.95 L1120.38 1536.95 L1120.38 1532.4 L1124.67 1532.4 L1124.67 1522.27 L1130.56 1522.27 Z" fill="#000000" fill-rule="nonzero" fill-opacity="1" /><path clip-path="url(#clip160)" d="M1180.82 1548.76 L1180.82 1551.62 L1153.89 1551.62 Q1154.28 1557.67 1157.52 1560.85 Q1160.8 1564 1166.62 1564 Q1170 1564 1173.15 1563.17 Q1176.33 1562.35 1179.45 1560.69 L1179.45 1566.23 Q1176.3 1567.57 1172.99 1568.27 Q1169.68 1568.97 1166.27 1568.97 Q1157.74 1568.97 1152.75 1564 Q1147.78 1559.04 1147.78 1550.57 Q1147.78 1541.82 1152.49 1536.69 Q1157.24 1531.54 1165.26 1531.54 Q1172.45 1531.54 1176.62 1536.18 Q1180.82 1540.8 1180.82 1548.76 M1174.96 1547.04 Q1174.9 1542.23 1172.26 1539.37 Q1169.65 1536.5 1165.32 1536.5 Q1160.42 1536.5 1157.46 1539.27 Q1154.53 1542.04 1154.08 1547.07 L1174.96 1547.04 Z" fill="#000000" fill-rule="nonzero" fill-opacity="1" /><path clip-path="url(#clip160)" d="M1211.09 1537.87 Q1210.1 1537.3 1208.93 1537.04 Q1207.78 1536.76 1206.38 1536.76 Q1201.41 1536.76 1198.74 1540 Q1196.1 1543.22 1196.1 1549.27 L1196.1 1568.04 L1190.21 1568.04 L1190.21 1532.4 L1196.1 1532.4 L1196.1 1537.93 Q1197.94 1534.69 1200.9 1533.13 Q1203.86 1531.54 1208.1 1531.54 Q1208.7 1531.54 1209.43 1531.63 Q1210.17 1531.7 1211.06 1531.85 L1211.09 1537.87 Z" fill="#000000" fill-rule="nonzero" fill-opacity="1" /><path clip-path="url(#clip160)" d="M1233.43 1550.12 Q1226.34 1550.12 1223.6 1551.75 Q1220.86 1553.37 1220.86 1557.29 Q1220.86 1560.4 1222.9 1562.25 Q1224.97 1564.07 1228.5 1564.07 Q1233.37 1564.07 1236.3 1560.63 Q1239.26 1557.16 1239.26 1551.43 L1239.26 1550.12 L1233.43 1550.12 M1245.11 1547.71 L1245.11 1568.04 L1239.26 1568.04 L1239.26 1562.63 Q1237.25 1565.88 1234.26 1567.44 Q1231.27 1568.97 1226.94 1568.97 Q1221.47 1568.97 1218.22 1565.91 Q1215 1562.82 1215 1557.67 Q1215 1551.65 1219.01 1548.6 Q1223.06 1545.54 1231.05 1545.54 L1239.26 1545.54 L1239.26 1544.97 Q1239.26 1540.93 1236.58 1538.73 Q1233.94 1536.5 1229.14 1536.5 Q1226.08 1536.5 1223.18 1537.23 Q1220.29 1537.97 1217.61 1539.43 L1217.61 1534.02 Q1220.83 1532.78 1223.85 1532.17 Q1226.88 1531.54 1229.74 1531.54 Q1237.48 1531.54 1241.29 1535.55 Q1245.11 1539.56 1245.11 1547.71 Z" fill="#000000" fill-rule="nonzero" fill-opacity="1" /><path clip-path="url(#clip160)" d="M1262.97 1522.27 L1262.97 1532.4 L1275.03 1532.4 L1275.03 1536.95 L1262.97 1536.95 L1262.97 1556.3 Q1262.97 1560.66 1264.15 1561.9 Q1265.36 1563.14 1269.02 1563.14 L1275.03 1563.14 L1275.03 1568.04 L1269.02 1568.04 Q1262.24 1568.04 1259.66 1565.53 Q1257.08 1562.98 1257.08 1556.3 L1257.08 1536.95 L1252.78 1536.95 L1252.78 1532.4 L1257.08 1532.4 L1257.08 1522.27 L1262.97 1522.27 Z" fill="#000000" fill-rule="nonzero" fill-opacity="1" /><path clip-path="url(#clip160)" d="M1282.74 1532.4 L1288.59 1532.4 L1288.59 1568.04 L1282.74 1568.04 L1282.74 1532.4 M1282.74 1518.52 L1288.59 1518.52 L1288.59 1525.93 L1282.74 1525.93 L1282.74 1518.52 Z" fill="#000000" fill-rule="nonzero" fill-opacity="1" /><path clip-path="url(#clip160)" d="M1314.66 1536.5 Q1309.95 1536.5 1307.21 1540.19 Q1304.47 1543.85 1304.47 1550.25 Q1304.47 1556.65 1307.18 1560.34 Q1309.92 1564 1314.66 1564 Q1319.34 1564 1322.08 1560.31 Q1324.81 1556.62 1324.81 1550.25 Q1324.81 1543.92 1322.08 1540.23 Q1319.34 1536.5 1314.66 1536.5 M1314.66 1531.54 Q1322.3 1531.54 1326.66 1536.5 Q1331.02 1541.47 1331.02 1550.25 Q1331.02 1559 1326.66 1564 Q1322.3 1568.97 1314.66 1568.97 Q1306.99 1568.97 1302.63 1564 Q1298.3 1559 1298.3 1550.25 Q1298.3 1541.47 1302.63 1536.5 Q1306.99 1531.54 1314.66 1531.54 Z" fill="#000000" fill-rule="nonzero" fill-opacity="1" /><path clip-path="url(#clip160)" d="M1370.36 1546.53 L1370.36 1568.04 L1364.5 1568.04 L1364.5 1546.72 Q1364.5 1541.66 1362.53 1539.14 Q1360.56 1536.63 1356.61 1536.63 Q1351.87 1536.63 1349.13 1539.65 Q1346.39 1542.68 1346.39 1547.9 L1346.39 1568.04 L1340.5 1568.04 L1340.5 1532.4 L1346.39 1532.4 L1346.39 1537.93 Q1348.49 1534.72 1351.33 1533.13 Q1354.19 1531.54 1357.91 1531.54 Q1364.06 1531.54 1367.21 1535.36 Q1370.36 1539.14 1370.36 1546.53 Z" fill="#000000" fill-rule="nonzero" fill-opacity="1" /><path clip-path="url(#clip160)" d="M1429.94 1539.37 L1420.68 1539.37 L1418.01 1550 L1427.33 1550 L1429.94 1539.37 M1425.17 1521.26 L1421.86 1534.46 L1431.15 1534.46 L1434.49 1521.26 L1439.59 1521.26 L1436.31 1534.46 L1446.24 1534.46 L1446.24 1539.37 L1435.07 1539.37 L1432.46 1550 L1442.58 1550 L1442.58 1554.87 L1431.22 1554.87 L1427.91 1568.04 L1422.81 1568.04 L1426.09 1554.87 L1416.77 1554.87 L1413.49 1568.04 L1408.36 1568.04 L1411.67 1554.87 L1401.65 1554.87 L1401.65 1550 L1412.85 1550 L1415.52 1539.37 L1405.28 1539.37 L1405.28 1534.46 L1416.77 1534.46 L1420.01 1521.26 L1425.17 1521.26 Z" fill="#000000" fill-rule="nonzero" fill-opacity="1" /><polyline clip-path="url(#clip162)" style="stroke:#000000; stroke-linecap:round; stroke-linejoin:round; stroke-width:2; stroke-opacity:0.1; fill:none" points="199.283,1410 2352.76,1410 "/>
<polyline clip-path="url(#clip162)" style="stroke:#000000; stroke-linecap:round; stroke-linejoin:round; stroke-width:2; stroke-opacity:0.1; fill:none" points="199.283,1203.1 2352.76,1203.1 "/>
<polyline clip-path="url(#clip162)" style="stroke:#000000; stroke-linecap:round; stroke-linejoin:round; stroke-width:2; stroke-opacity:0.1; fill:none" points="199.283,996.191 2352.76,996.191 "/>
<polyline clip-path="url(#clip162)" style="stroke:#000000; stroke-linecap:round; stroke-linejoin:round; stroke-width:2; stroke-opacity:0.1; fill:none" points="199.283,789.284 2352.76,789.284 "/>
<polyline clip-path="url(#clip162)" style="stroke:#000000; stroke-linecap:round; stroke-linejoin:round; stroke-width:2; stroke-opacity:0.1; fill:none" points="199.283,582.377 2352.76,582.377 "/>
<polyline clip-path="url(#clip162)" style="stroke:#000000; stroke-linecap:round; stroke-linejoin:round; stroke-width:2; stroke-opacity:0.1; fill:none" points="199.283,375.47 2352.76,375.47 "/>
<polyline clip-path="url(#clip162)" style="stroke:#000000; stroke-linecap:round; stroke-linejoin:round; stroke-width:2; stroke-opacity:0.1; fill:none" points="199.283,168.563 2352.76,168.563 "/>
<polyline clip-path="url(#clip160)" style="stroke:#000000; stroke-linecap:round; stroke-linejoin:round; stroke-width:4; stroke-opacity:1; fill:none" points="199.283,1423.18 199.283,47.2441 "/>
<polyline clip-path="url(#clip160)" style="stroke:#000000; stroke-linecap:round; stroke-linejoin:round; stroke-width:4; stroke-opacity:1; fill:none" points="199.283,1410 218.181,1410 "/>
<polyline clip-path="url(#clip160)" style="stroke:#000000; stroke-linecap:round; stroke-linejoin:round; stroke-width:4; stroke-opacity:1; fill:none" points="199.283,1203.1 218.181,1203.1 "/>
<polyline clip-path="url(#clip160)" style="stroke:#000000; stroke-linecap:round; stroke-linejoin:round; stroke-width:4; stroke-opacity:1; fill:none" points="199.283,996.191 218.181,996.191 "/>
<polyline clip-path="url(#clip160)" style="stroke:#000000; stroke-linecap:round; stroke-linejoin:round; stroke-width:4; stroke-opacity:1; fill:none" points="199.283,789.284 218.181,789.284 "/>
<polyline clip-path="url(#clip160)" style="stroke:#000000; stroke-linecap:round; stroke-linejoin:round; stroke-width:4; stroke-opacity:1; fill:none" points="199.283,582.377 218.181,582.377 "/>
<polyline clip-path="url(#clip160)" style="stroke:#000000; stroke-linecap:round; stroke-linejoin:round; stroke-width:4; stroke-opacity:1; fill:none" points="199.283,375.47 218.181,375.47 "/>
<polyline clip-path="url(#clip160)" style="stroke:#000000; stroke-linecap:round; stroke-linejoin:round; stroke-width:4; stroke-opacity:1; fill:none" points="199.283,168.563 218.181,168.563 "/>
<path clip-path="url(#clip160)" d="M85.0429 1423.35 L101.362 1423.35 L101.362 1427.28 L79.4179 1427.28 L79.4179 1423.35 Q82.0799 1420.59 86.6632 1415.97 Q91.2697 1411.31 92.4502 1409.97 Q94.6956 1407.45 95.5752 1405.71 Q96.478 1403.95 96.478 1402.26 Q96.478 1399.51 94.5336 1397.77 Q92.6123 1396.03 89.5104 1396.03 Q87.3114 1396.03 84.8577 1396.8 Q82.4271 1397.56 79.6494 1399.11 L79.6494 1394.39 Q82.4734 1393.26 84.9271 1392.68 Q87.3808 1392.1 89.4178 1392.1 Q94.7882 1392.1 97.9826 1394.78 Q101.177 1397.47 101.177 1401.96 Q101.177 1404.09 100.367 1406.01 Q99.5798 1407.91 97.4734 1410.5 Q96.8947 1411.17 93.7928 1414.39 Q90.691 1417.59 85.0429 1423.35 Z" fill="#000000" fill-rule="nonzero" fill-opacity="1" /><path clip-path="url(#clip160)" d="M121.177 1395.8 Q117.566 1395.8 115.737 1399.37 Q113.932 1402.91 113.932 1410.04 Q113.932 1417.15 115.737 1420.71 Q117.566 1424.25 121.177 1424.25 Q124.811 1424.25 126.617 1420.71 Q128.445 1417.15 128.445 1410.04 Q128.445 1402.91 126.617 1399.37 Q124.811 1395.8 121.177 1395.8 M121.177 1392.1 Q126.987 1392.1 130.043 1396.71 Q133.121 1401.29 133.121 1410.04 Q133.121 1418.77 130.043 1423.37 Q126.987 1427.96 121.177 1427.96 Q115.367 1427.96 112.288 1423.37 Q109.233 1418.77 109.233 1410.04 Q109.233 1401.29 112.288 1396.71 Q115.367 1392.1 121.177 1392.1 Z" fill="#000000" fill-rule="nonzero" fill-opacity="1" /><path clip-path="url(#clip160)" d="M151.339 1395.8 Q147.728 1395.8 145.899 1399.37 Q144.093 1402.91 144.093 1410.04 Q144.093 1417.15 145.899 1420.71 Q147.728 1424.25 151.339 1424.25 Q154.973 1424.25 156.779 1420.71 Q158.607 1417.15 158.607 1410.04 Q158.607 1402.91 156.779 1399.37 Q154.973 1395.8 151.339 1395.8 M151.339 1392.1 Q157.149 1392.1 160.205 1396.71 Q163.283 1401.29 163.283 1410.04 Q163.283 1418.77 160.205 1423.37 Q157.149 1427.96 151.339 1427.96 Q145.529 1427.96 142.45 1423.37 Q139.394 1418.77 139.394 1410.04 Q139.394 1401.29 142.45 1396.71 Q145.529 1392.1 151.339 1392.1 Z" fill="#000000" fill-rule="nonzero" fill-opacity="1" /><path clip-path="url(#clip160)" d="M93.8623 1189.89 L82.0568 1208.34 L93.8623 1208.34 L93.8623 1189.89 M92.6354 1185.82 L98.515 1185.82 L98.515 1208.34 L103.446 1208.34 L103.446 1212.23 L98.515 1212.23 L98.515 1220.38 L93.8623 1220.38 L93.8623 1212.23 L78.2605 1212.23 L78.2605 1207.72 L92.6354 1185.82 Z" fill="#000000" fill-rule="nonzero" fill-opacity="1" /><path clip-path="url(#clip160)" d="M121.177 1188.9 Q117.566 1188.9 115.737 1192.46 Q113.932 1196 113.932 1203.13 Q113.932 1210.24 115.737 1213.8 Q117.566 1217.35 121.177 1217.35 Q124.811 1217.35 126.617 1213.8 Q128.445 1210.24 128.445 1203.13 Q128.445 1196 126.617 1192.46 Q124.811 1188.9 121.177 1188.9 M121.177 1185.19 Q126.987 1185.19 130.043 1189.8 Q133.121 1194.38 133.121 1203.13 Q133.121 1211.86 130.043 1216.47 Q126.987 1221.05 121.177 1221.05 Q115.367 1221.05 112.288 1216.47 Q109.233 1211.86 109.233 1203.13 Q109.233 1194.38 112.288 1189.8 Q115.367 1185.19 121.177 1185.19 Z" fill="#000000" fill-rule="nonzero" fill-opacity="1" /><path clip-path="url(#clip160)" d="M151.339 1188.9 Q147.728 1188.9 145.899 1192.46 Q144.093 1196 144.093 1203.13 Q144.093 1210.24 145.899 1213.8 Q147.728 1217.35 151.339 1217.35 Q154.973 1217.35 156.779 1213.8 Q158.607 1210.24 158.607 1203.13 Q158.607 1196 156.779 1192.46 Q154.973 1188.9 151.339 1188.9 M151.339 1185.19 Q157.149 1185.19 160.205 1189.8 Q163.283 1194.38 163.283 1203.13 Q163.283 1211.86 160.205 1216.47 Q157.149 1221.05 151.339 1221.05 Q145.529 1221.05 142.45 1216.47 Q139.394 1211.86 139.394 1203.13 Q139.394 1194.38 142.45 1189.8 Q145.529 1185.19 151.339 1185.19 Z" fill="#000000" fill-rule="nonzero" fill-opacity="1" /><path clip-path="url(#clip160)" d="M91.5938 994.327 Q88.4456 994.327 86.5938 996.48 Q84.7651 998.633 84.7651 1002.38 Q84.7651 1006.11 86.5938 1008.29 Q88.4456 1010.44 91.5938 1010.44 Q94.7419 1010.44 96.5706 1008.29 Q98.4224 1006.11 98.4224 1002.38 Q98.4224 998.633 96.5706 996.48 Q94.7419 994.327 91.5938 994.327 M100.876 979.674 L100.876 983.934 Q99.1169 983.1 97.3113 982.661 Q95.5289 982.221 93.7697 982.221 Q89.1401 982.221 86.6864 985.346 Q84.2558 988.471 83.9086 994.79 Q85.2743 992.776 87.3345 991.711 Q89.3947 990.623 91.8715 990.623 Q97.0798 990.623 100.089 993.795 Q103.121 996.943 103.121 1002.38 Q103.121 1007.71 99.9733 1010.92 Q96.8252 1014.14 91.5938 1014.14 Q85.5984 1014.14 82.4271 1009.56 Q79.2559 1004.95 79.2559 996.225 Q79.2559 988.031 83.1447 983.17 Q87.0336 978.286 93.5845 978.286 Q95.3437 978.286 97.1261 978.633 Q98.9317 978.98 100.876 979.674 Z" fill="#000000" fill-rule="nonzero" fill-opacity="1" /><path clip-path="url(#clip160)" d="M121.177 981.989 Q117.566 981.989 115.737 985.554 Q113.932 989.096 113.932 996.225 Q113.932 1003.33 115.737 1006.9 Q117.566 1010.44 121.177 1010.44 Q124.811 1010.44 126.617 1006.9 Q128.445 1003.33 128.445 996.225 Q128.445 989.096 126.617 985.554 Q124.811 981.989 121.177 981.989 M121.177 978.286 Q126.987 978.286 130.043 982.892 Q133.121 987.475 133.121 996.225 Q133.121 1004.95 130.043 1009.56 Q126.987 1014.14 121.177 1014.14 Q115.367 1014.14 112.288 1009.56 Q109.233 1004.95 109.233 996.225 Q109.233 987.475 112.288 982.892 Q115.367 978.286 121.177 978.286 Z" fill="#000000" fill-rule="nonzero" fill-opacity="1" /><path clip-path="url(#clip160)" d="M151.339 981.989 Q147.728 981.989 145.899 985.554 Q144.093 989.096 144.093 996.225 Q144.093 1003.33 145.899 1006.9 Q147.728 1010.44 151.339 1010.44 Q154.973 1010.44 156.779 1006.9 Q158.607 1003.33 158.607 996.225 Q158.607 989.096 156.779 985.554 Q154.973 981.989 151.339 981.989 M151.339 978.286 Q157.149 978.286 160.205 982.892 Q163.283 987.475 163.283 996.225 Q163.283 1004.95 160.205 1009.56 Q157.149 1014.14 151.339 1014.14 Q145.529 1014.14 142.45 1009.56 Q139.394 1004.95 139.394 996.225 Q139.394 987.475 142.45 982.892 Q145.529 978.286 151.339 978.286 Z" fill="#000000" fill-rule="nonzero" fill-opacity="1" /><path clip-path="url(#clip160)" d="M91.0151 790.152 Q87.6817 790.152 85.7605 791.934 Q83.8623 793.716 83.8623 796.841 Q83.8623 799.966 85.7605 801.749 Q87.6817 803.531 91.0151 803.531 Q94.3484 803.531 96.2697 801.749 Q98.1909 799.943 98.1909 796.841 Q98.1909 793.716 96.2697 791.934 Q94.3715 790.152 91.0151 790.152 M86.3392 788.161 Q83.3299 787.42 81.6401 785.36 Q79.9735 783.3 79.9735 780.337 Q79.9735 776.193 82.9133 773.786 Q85.8762 771.379 91.0151 771.379 Q96.1771 771.379 99.1169 773.786 Q102.057 776.193 102.057 780.337 Q102.057 783.3 100.367 785.36 Q98.7002 787.42 95.7141 788.161 Q99.0937 788.948 100.969 791.24 Q102.867 793.531 102.867 796.841 Q102.867 801.865 99.7882 804.55 Q96.7326 807.235 91.0151 807.235 Q85.2975 807.235 82.2188 804.55 Q79.1633 801.865 79.1633 796.841 Q79.1633 793.531 81.0614 791.24 Q82.9595 788.948 86.3392 788.161 M84.6262 780.777 Q84.6262 783.462 86.2929 784.967 Q87.9827 786.471 91.0151 786.471 Q94.0243 786.471 95.7141 784.967 Q97.4271 783.462 97.4271 780.777 Q97.4271 778.092 95.7141 776.587 Q94.0243 775.082 91.0151 775.082 Q87.9827 775.082 86.2929 776.587 Q84.6262 778.092 84.6262 780.777 Z" fill="#000000" fill-rule="nonzero" fill-opacity="1" /><path clip-path="url(#clip160)" d="M121.177 775.082 Q117.566 775.082 115.737 778.647 Q113.932 782.189 113.932 789.318 Q113.932 796.425 115.737 799.99 Q117.566 803.531 121.177 803.531 Q124.811 803.531 126.617 799.99 Q128.445 796.425 128.445 789.318 Q128.445 782.189 126.617 778.647 Q124.811 775.082 121.177 775.082 M121.177 771.379 Q126.987 771.379 130.043 775.985 Q133.121 780.568 133.121 789.318 Q133.121 798.045 130.043 802.652 Q126.987 807.235 121.177 807.235 Q115.367 807.235 112.288 802.652 Q109.233 798.045 109.233 789.318 Q109.233 780.568 112.288 775.985 Q115.367 771.379 121.177 771.379 Z" fill="#000000" fill-rule="nonzero" fill-opacity="1" /><path clip-path="url(#clip160)" d="M151.339 775.082 Q147.728 775.082 145.899 778.647 Q144.093 782.189 144.093 789.318 Q144.093 796.425 145.899 799.99 Q147.728 803.531 151.339 803.531 Q154.973 803.531 156.779 799.99 Q158.607 796.425 158.607 789.318 Q158.607 782.189 156.779 778.647 Q154.973 775.082 151.339 775.082 M151.339 771.379 Q157.149 771.379 160.205 775.985 Q163.283 780.568 163.283 789.318 Q163.283 798.045 160.205 802.652 Q157.149 807.235 151.339 807.235 Q145.529 807.235 142.45 802.652 Q139.394 798.045 139.394 789.318 Q139.394 780.568 142.45 775.985 Q145.529 771.379 151.339 771.379 Z" fill="#000000" fill-rule="nonzero" fill-opacity="1" /><path clip-path="url(#clip160)" d="M51.6634 595.722 L59.3023 595.722 L59.3023 569.356 L50.9921 571.023 L50.9921 566.763 L59.256 565.097 L63.9319 565.097 L63.9319 595.722 L71.5707 595.722 L71.5707 599.657 L51.6634 599.657 L51.6634 595.722 Z" fill="#000000" fill-rule="nonzero" fill-opacity="1" /><path clip-path="url(#clip160)" d="M91.0151 568.175 Q87.404 568.175 85.5753 571.74 Q83.7697 575.282 83.7697 582.411 Q83.7697 589.518 85.5753 593.083 Q87.404 596.624 91.0151 596.624 Q94.6493 596.624 96.4548 593.083 Q98.2835 589.518 98.2835 582.411 Q98.2835 575.282 96.4548 571.74 Q94.6493 568.175 91.0151 568.175 M91.0151 564.472 Q96.8252 564.472 99.8808 569.078 Q102.959 573.661 102.959 582.411 Q102.959 591.138 99.8808 595.745 Q96.8252 600.328 91.0151 600.328 Q85.2049 600.328 82.1262 595.745 Q79.0707 591.138 79.0707 582.411 Q79.0707 573.661 82.1262 569.078 Q85.2049 564.472 91.0151 564.472 Z" fill="#000000" fill-rule="nonzero" fill-opacity="1" /><path clip-path="url(#clip160)" d="M121.177 568.175 Q117.566 568.175 115.737 571.74 Q113.932 575.282 113.932 582.411 Q113.932 589.518 115.737 593.083 Q117.566 596.624 121.177 596.624 Q124.811 596.624 126.617 593.083 Q128.445 589.518 128.445 582.411 Q128.445 575.282 126.617 571.74 Q124.811 568.175 121.177 568.175 M121.177 564.472 Q126.987 564.472 130.043 569.078 Q133.121 573.661 133.121 582.411 Q133.121 591.138 130.043 595.745 Q126.987 600.328 121.177 600.328 Q115.367 600.328 112.288 595.745 Q109.233 591.138 109.233 582.411 Q109.233 573.661 112.288 569.078 Q115.367 564.472 121.177 564.472 Z" fill="#000000" fill-rule="nonzero" fill-opacity="1" /><path clip-path="url(#clip160)" d="M151.339 568.175 Q147.728 568.175 145.899 571.74 Q144.093 575.282 144.093 582.411 Q144.093 589.518 145.899 593.083 Q147.728 596.624 151.339 596.624 Q154.973 596.624 156.779 593.083 Q158.607 589.518 158.607 582.411 Q158.607 575.282 156.779 571.74 Q154.973 568.175 151.339 568.175 M151.339 564.472 Q157.149 564.472 160.205 569.078 Q163.283 573.661 163.283 582.411 Q163.283 591.138 160.205 595.745 Q157.149 600.328 151.339 600.328 Q145.529 600.328 142.45 595.745 Q139.394 591.138 139.394 582.411 Q139.394 573.661 142.45 569.078 Q145.529 564.472 151.339 564.472 Z" fill="#000000" fill-rule="nonzero" fill-opacity="1" /><path clip-path="url(#clip160)" d="M51.6634 388.815 L59.3023 388.815 L59.3023 362.449 L50.9921 364.116 L50.9921 359.856 L59.256 358.19 L63.9319 358.19 L63.9319 388.815 L71.5707 388.815 L71.5707 392.75 L51.6634 392.75 L51.6634 388.815 Z" fill="#000000" fill-rule="nonzero" fill-opacity="1" /><path clip-path="url(#clip160)" d="M85.0429 388.815 L101.362 388.815 L101.362 392.75 L79.4179 392.75 L79.4179 388.815 Q82.0799 386.06 86.6632 381.43 Q91.2697 376.778 92.4502 375.435 Q94.6956 372.912 95.5752 371.176 Q96.478 369.417 96.478 367.727 Q96.478 364.972 94.5336 363.236 Q92.6123 361.5 89.5104 361.5 Q87.3114 361.5 84.8577 362.264 Q82.4271 363.028 79.6494 364.579 L79.6494 359.856 Q82.4734 358.722 84.9271 358.143 Q87.3808 357.565 89.4178 357.565 Q94.7882 357.565 97.9826 360.25 Q101.177 362.935 101.177 367.426 Q101.177 369.555 100.367 371.477 Q99.5798 373.375 97.4734 375.967 Q96.8947 376.639 93.7928 379.856 Q90.691 383.051 85.0429 388.815 Z" fill="#000000" fill-rule="nonzero" fill-opacity="1" /><path clip-path="url(#clip160)" d="M121.177 361.268 Q117.566 361.268 115.737 364.833 Q113.932 368.375 113.932 375.505 Q113.932 382.611 115.737 386.176 Q117.566 389.717 121.177 389.717 Q124.811 389.717 126.617 386.176 Q128.445 382.611 128.445 375.505 Q128.445 368.375 126.617 364.833 Q124.811 361.268 121.177 361.268 M121.177 357.565 Q126.987 357.565 130.043 362.171 Q133.121 366.755 133.121 375.505 Q133.121 384.231 130.043 388.838 Q126.987 393.421 121.177 393.421 Q115.367 393.421 112.288 388.838 Q109.233 384.231 109.233 375.505 Q109.233 366.755 112.288 362.171 Q115.367 357.565 121.177 357.565 Z" fill="#000000" fill-rule="nonzero" fill-opacity="1" /><path clip-path="url(#clip160)" d="M151.339 361.268 Q147.728 361.268 145.899 364.833 Q144.093 368.375 144.093 375.505 Q144.093 382.611 145.899 386.176 Q147.728 389.717 151.339 389.717 Q154.973 389.717 156.779 386.176 Q158.607 382.611 158.607 375.505 Q158.607 368.375 156.779 364.833 Q154.973 361.268 151.339 361.268 M151.339 357.565 Q157.149 357.565 160.205 362.171 Q163.283 366.755 163.283 375.505 Q163.283 384.231 160.205 388.838 Q157.149 393.421 151.339 393.421 Q145.529 393.421 142.45 388.838 Q139.394 384.231 139.394 375.505 Q139.394 366.755 142.45 362.171 Q145.529 357.565 151.339 357.565 Z" fill="#000000" fill-rule="nonzero" fill-opacity="1" /><path clip-path="url(#clip160)" d="M51.6634 181.908 L59.3023 181.908 L59.3023 155.542 L50.9921 157.209 L50.9921 152.95 L59.256 151.283 L63.9319 151.283 L63.9319 181.908 L71.5707 181.908 L71.5707 185.843 L51.6634 185.843 L51.6634 181.908 Z" fill="#000000" fill-rule="nonzero" fill-opacity="1" /><path clip-path="url(#clip160)" d="M93.8623 155.357 L82.0568 173.806 L93.8623 173.806 L93.8623 155.357 M92.6354 151.283 L98.515 151.283 L98.515 173.806 L103.446 173.806 L103.446 177.695 L98.515 177.695 L98.515 185.843 L93.8623 185.843 L93.8623 177.695 L78.2605 177.695 L78.2605 173.181 L92.6354 151.283 Z" fill="#000000" fill-rule="nonzero" fill-opacity="1" /><path clip-path="url(#clip160)" d="M121.177 154.362 Q117.566 154.362 115.737 157.926 Q113.932 161.468 113.932 168.598 Q113.932 175.704 115.737 179.269 Q117.566 182.81 121.177 182.81 Q124.811 182.81 126.617 179.269 Q128.445 175.704 128.445 168.598 Q128.445 161.468 126.617 157.926 Q124.811 154.362 121.177 154.362 M121.177 150.658 Q126.987 150.658 130.043 155.264 Q133.121 159.848 133.121 168.598 Q133.121 177.324 130.043 181.931 Q126.987 186.514 121.177 186.514 Q115.367 186.514 112.288 181.931 Q109.233 177.324 109.233 168.598 Q109.233 159.848 112.288 155.264 Q115.367 150.658 121.177 150.658 Z" fill="#000000" fill-rule="nonzero" fill-opacity="1" /><path clip-path="url(#clip160)" d="M151.339 154.362 Q147.728 154.362 145.899 157.926 Q144.093 161.468 144.093 168.598 Q144.093 175.704 145.899 179.269 Q147.728 182.81 151.339 182.81 Q154.973 182.81 156.779 179.269 Q158.607 175.704 158.607 168.598 Q158.607 161.468 156.779 157.926 Q154.973 154.362 151.339 154.362 M151.339 150.658 Q157.149 150.658 160.205 155.264 Q163.283 159.848 163.283 168.598 Q163.283 177.324 160.205 181.931 Q157.149 186.514 151.339 186.514 Q145.529 186.514 142.45 181.931 Q139.394 177.324 139.394 168.598 Q139.394 159.848 142.45 155.264 Q145.529 150.658 151.339 150.658 Z" fill="#000000" fill-rule="nonzero" fill-opacity="1" /><polyline clip-path="url(#clip162)" style="stroke:#009af9; stroke-linecap:round; stroke-linejoin:round; stroke-width:4; stroke-opacity:1; fill:none" points="260.231,86.1857 485.961,1326.83 711.692,1384.14 937.423,1384.24 1163.15,1384.24 1388.88,1384.24 1614.62,1384.24 1840.35,1384.24 2066.08,1384.24 2291.81,1384.24 "/>
<path clip-path="url(#clip160)" d="M1635.49 196.789 L2280.97 196.789 L2280.97 93.1086 L1635.49 93.1086  Z" fill="#ffffff" fill-rule="evenodd" fill-opacity="1"/>
<polyline clip-path="url(#clip160)" style="stroke:#000000; stroke-linecap:round; stroke-linejoin:round; stroke-width:4; stroke-opacity:1; fill:none" points="1635.49,196.789 2280.97,196.789 2280.97,93.1086 1635.49,93.1086 1635.49,196.789 "/>
<polyline clip-path="url(#clip160)" style="stroke:#009af9; stroke-linecap:round; stroke-linejoin:round; stroke-width:4; stroke-opacity:1; fill:none" points="1659.42,144.949 1802.98,144.949 "/>
<path clip-path="url(#clip160)" d="M1831.59 145.724 L1831.59 158.386 L1839.09 158.386 Q1842.86 158.386 1844.66 156.835 Q1846.49 155.261 1846.49 152.043 Q1846.49 148.803 1844.66 147.275 Q1842.86 145.724 1839.09 145.724 L1831.59 145.724 M1831.59 131.511 L1831.59 141.928 L1838.51 141.928 Q1841.93 141.928 1843.6 140.655 Q1845.29 139.358 1845.29 136.719 Q1845.29 134.104 1843.6 132.807 Q1841.93 131.511 1838.51 131.511 L1831.59 131.511 M1826.91 127.669 L1838.85 127.669 Q1844.2 127.669 1847.09 129.891 Q1849.99 132.113 1849.99 136.21 Q1849.99 139.382 1848.51 141.257 Q1847.03 143.131 1844.15 143.594 Q1847.6 144.335 1849.5 146.696 Q1851.42 149.034 1851.42 152.553 Q1851.42 157.182 1848.28 159.705 Q1845.13 162.229 1839.32 162.229 L1826.91 162.229 L1826.91 127.669 Z" fill="#000000" fill-rule="nonzero" fill-opacity="1" /><path clip-path="url(#clip160)" d="M1881.42 148.201 L1881.42 150.284 L1861.84 150.284 Q1862.12 154.682 1864.48 156.997 Q1866.86 159.289 1871.1 159.289 Q1873.55 159.289 1875.84 158.687 Q1878.16 158.085 1880.43 156.881 L1880.43 160.909 Q1878.14 161.881 1875.73 162.391 Q1873.32 162.9 1870.84 162.9 Q1864.64 162.9 1861.01 159.289 Q1857.4 155.678 1857.4 149.52 Q1857.4 143.155 1860.82 139.428 Q1864.27 135.678 1870.1 135.678 Q1875.34 135.678 1878.37 139.057 Q1881.42 142.414 1881.42 148.201 M1877.16 146.951 Q1877.12 143.456 1875.2 141.372 Q1873.3 139.289 1870.15 139.289 Q1866.59 139.289 1864.43 141.303 Q1862.3 143.317 1861.98 146.974 L1877.16 146.951 Z" fill="#000000" fill-rule="nonzero" fill-opacity="1" /><path clip-path="url(#clip160)" d="M1892.63 128.942 L1892.63 136.303 L1901.4 136.303 L1901.4 139.613 L1892.63 139.613 L1892.63 153.687 Q1892.63 156.858 1893.48 157.761 Q1894.36 158.664 1897.02 158.664 L1901.4 158.664 L1901.4 162.229 L1897.02 162.229 Q1892.09 162.229 1890.22 160.4 Q1888.34 158.548 1888.34 153.687 L1888.34 139.613 L1885.22 139.613 L1885.22 136.303 L1888.34 136.303 L1888.34 128.942 L1892.63 128.942 Z" fill="#000000" fill-rule="nonzero" fill-opacity="1" /><path clip-path="url(#clip160)" d="M1928.55 146.581 L1928.55 162.229 L1924.29 162.229 L1924.29 146.719 Q1924.29 143.039 1922.86 141.21 Q1921.42 139.382 1918.55 139.382 Q1915.1 139.382 1913.11 141.581 Q1911.12 143.78 1911.12 147.576 L1911.12 162.229 L1906.84 162.229 L1906.84 126.21 L1911.12 126.21 L1911.12 140.331 Q1912.65 137.993 1914.71 136.835 Q1916.79 135.678 1919.5 135.678 Q1923.97 135.678 1926.26 138.456 Q1928.55 141.21 1928.55 146.581 Z" fill="#000000" fill-rule="nonzero" fill-opacity="1" /><path clip-path="url(#clip160)" d="M1959.22 148.201 L1959.22 150.284 L1939.64 150.284 Q1939.92 154.682 1942.28 156.997 Q1944.66 159.289 1948.9 159.289 Q1951.35 159.289 1953.64 158.687 Q1955.96 158.085 1958.23 156.881 L1958.23 160.909 Q1955.94 161.881 1953.53 162.391 Q1951.12 162.9 1948.64 162.9 Q1942.44 162.9 1938.81 159.289 Q1935.2 155.678 1935.2 149.52 Q1935.2 143.155 1938.62 139.428 Q1942.07 135.678 1947.9 135.678 Q1953.14 135.678 1956.17 139.057 Q1959.22 142.414 1959.22 148.201 M1954.96 146.951 Q1954.92 143.456 1953 141.372 Q1951.1 139.289 1947.95 139.289 Q1944.39 139.289 1942.23 141.303 Q1940.1 143.317 1939.78 146.974 L1954.96 146.951 Z" fill="#000000" fill-rule="nonzero" fill-opacity="1" /><path clip-path="url(#clip160)" d="M1981.47 127.669 L2001.33 127.669 L2001.33 131.604 L1986.14 131.604 L1986.14 141.789 L1999.85 141.789 L1999.85 145.724 L1986.14 145.724 L1986.14 162.229 L1981.47 162.229 L1981.47 127.669 Z" fill="#000000" fill-rule="nonzero" fill-opacity="1" /><path clip-path="url(#clip160)" d="M2020.13 140.284 Q2019.41 139.868 2018.55 139.682 Q2017.72 139.474 2016.7 139.474 Q2013.09 139.474 2011.14 141.835 Q2009.22 144.173 2009.22 148.571 L2009.22 162.229 L2004.94 162.229 L2004.94 136.303 L2009.22 136.303 L2009.22 140.331 Q2010.57 137.969 2012.72 136.835 Q2014.87 135.678 2017.95 135.678 Q2018.39 135.678 2018.92 135.747 Q2019.45 135.794 2020.1 135.909 L2020.13 140.284 Z" fill="#000000" fill-rule="nonzero" fill-opacity="1" /><path clip-path="url(#clip160)" d="M2045.73 148.201 L2045.73 150.284 L2026.14 150.284 Q2026.42 154.682 2028.78 156.997 Q2031.17 159.289 2035.4 159.289 Q2037.86 159.289 2040.15 158.687 Q2042.46 158.085 2044.73 156.881 L2044.73 160.909 Q2042.44 161.881 2040.03 162.391 Q2037.63 162.9 2035.15 162.9 Q2028.95 162.9 2025.31 159.289 Q2021.7 155.678 2021.7 149.52 Q2021.7 143.155 2025.13 139.428 Q2028.58 135.678 2034.41 135.678 Q2039.64 135.678 2042.67 139.057 Q2045.73 142.414 2045.73 148.201 M2041.47 146.951 Q2041.42 143.456 2039.5 141.372 Q2037.6 139.289 2034.45 139.289 Q2030.89 139.289 2028.74 141.303 Q2026.61 143.317 2026.28 146.974 L2041.47 146.951 Z" fill="#000000" fill-rule="nonzero" fill-opacity="1" /><path clip-path="url(#clip160)" d="M2074.89 148.201 L2074.89 150.284 L2055.31 150.284 Q2055.59 154.682 2057.95 156.997 Q2060.33 159.289 2064.57 159.289 Q2067.02 159.289 2069.32 158.687 Q2071.63 158.085 2073.9 156.881 L2073.9 160.909 Q2071.61 161.881 2069.2 162.391 Q2066.79 162.9 2064.32 162.9 Q2058.11 162.9 2054.48 159.289 Q2050.87 155.678 2050.87 149.52 Q2050.87 143.155 2054.29 139.428 Q2057.74 135.678 2063.57 135.678 Q2068.81 135.678 2071.84 139.057 Q2074.89 142.414 2074.89 148.201 M2070.63 146.951 Q2070.59 143.456 2068.67 141.372 Q2066.77 139.289 2063.62 139.289 Q2060.06 139.289 2057.9 141.303 Q2055.77 143.317 2055.45 146.974 L2070.63 146.951 Z" fill="#000000" fill-rule="nonzero" fill-opacity="1" /><path clip-path="url(#clip160)" d="M2097.14 127.669 L2118.99 127.669 L2118.99 131.604 L2101.82 131.604 L2101.82 141.835 L2118.27 141.835 L2118.27 145.77 L2101.82 145.77 L2101.82 158.293 L2119.41 158.293 L2119.41 162.229 L2097.14 162.229 L2097.14 127.669 Z" fill="#000000" fill-rule="nonzero" fill-opacity="1" /><path clip-path="url(#clip160)" d="M2148.46 146.581 L2148.46 162.229 L2144.2 162.229 L2144.2 146.719 Q2144.2 143.039 2142.76 141.21 Q2141.33 139.382 2138.46 139.382 Q2135.01 139.382 2133.02 141.581 Q2131.03 143.78 2131.03 147.576 L2131.03 162.229 L2126.75 162.229 L2126.75 136.303 L2131.03 136.303 L2131.03 140.331 Q2132.56 137.993 2134.62 136.835 Q2136.7 135.678 2139.41 135.678 Q2143.88 135.678 2146.17 138.456 Q2148.46 141.21 2148.46 146.581 Z" fill="#000000" fill-rule="nonzero" fill-opacity="1" /><path clip-path="url(#clip160)" d="M2179.13 148.201 L2179.13 150.284 L2159.55 150.284 Q2159.82 154.682 2162.19 156.997 Q2164.57 159.289 2168.81 159.289 Q2171.26 159.289 2173.55 158.687 Q2175.87 158.085 2178.13 156.881 L2178.13 160.909 Q2175.84 161.881 2173.44 162.391 Q2171.03 162.9 2168.55 162.9 Q2162.35 162.9 2158.71 159.289 Q2155.1 155.678 2155.1 149.52 Q2155.1 143.155 2158.53 139.428 Q2161.98 135.678 2167.81 135.678 Q2173.04 135.678 2176.07 139.057 Q2179.13 142.414 2179.13 148.201 M2174.87 146.951 Q2174.82 143.456 2172.9 141.372 Q2171 139.289 2167.86 139.289 Q2164.29 139.289 2162.14 141.303 Q2160.01 143.317 2159.69 146.974 L2174.87 146.951 Z" fill="#000000" fill-rule="nonzero" fill-opacity="1" /><path clip-path="url(#clip160)" d="M2201.14 140.284 Q2200.43 139.868 2199.57 139.682 Q2198.74 139.474 2197.72 139.474 Q2194.11 139.474 2192.16 141.835 Q2190.24 144.173 2190.24 148.571 L2190.24 162.229 L2185.96 162.229 L2185.96 136.303 L2190.24 136.303 L2190.24 140.331 Q2191.58 137.969 2193.74 136.835 Q2195.89 135.678 2198.97 135.678 Q2199.41 135.678 2199.94 135.747 Q2200.47 135.794 2201.12 135.909 L2201.14 140.284 Z" fill="#000000" fill-rule="nonzero" fill-opacity="1" /><path clip-path="url(#clip160)" d="M2221.84 148.965 Q2221.84 144.335 2219.92 141.789 Q2218.02 139.243 2214.57 139.243 Q2211.14 139.243 2209.22 141.789 Q2207.32 144.335 2207.32 148.965 Q2207.32 153.571 2209.22 156.118 Q2211.14 158.664 2214.57 158.664 Q2218.02 158.664 2219.92 156.118 Q2221.84 153.571 2221.84 148.965 M2226.1 159.011 Q2226.1 165.631 2223.16 168.849 Q2220.22 172.09 2214.15 172.09 Q2211.91 172.09 2209.92 171.742 Q2207.93 171.418 2206.05 170.724 L2206.05 166.58 Q2207.93 167.599 2209.75 168.085 Q2211.58 168.571 2213.48 168.571 Q2217.67 168.571 2219.75 166.372 Q2221.84 164.196 2221.84 159.775 L2221.84 157.668 Q2220.52 159.96 2218.46 161.094 Q2216.4 162.229 2213.53 162.229 Q2208.76 162.229 2205.84 158.594 Q2202.93 154.96 2202.93 148.965 Q2202.93 142.946 2205.84 139.312 Q2208.76 135.678 2213.53 135.678 Q2216.4 135.678 2218.46 136.812 Q2220.52 137.946 2221.84 140.238 L2221.84 136.303 L2226.1 136.303 L2226.1 159.011 Z" fill="#000000" fill-rule="nonzero" fill-opacity="1" /><path clip-path="url(#clip160)" d="M2245.66 164.636 Q2243.85 169.266 2242.14 170.678 Q2240.43 172.09 2237.56 172.09 L2234.15 172.09 L2234.15 168.525 L2236.65 168.525 Q2238.41 168.525 2239.38 167.692 Q2240.36 166.858 2241.54 163.756 L2242.3 161.812 L2231.81 136.303 L2236.33 136.303 L2244.43 156.581 L2252.53 136.303 L2257.05 136.303 L2245.66 164.636 Z" fill="#000000" fill-rule="nonzero" fill-opacity="1" /></svg>
