<?xml version="1.0" encoding="utf-8"?>
<svg xmlns="http://www.w3.org/2000/svg" xmlns:xlink="http://www.w3.org/1999/xlink" width="600" height="400" viewBox="0 0 2400 1600">
<defs>
  <clipPath id="clip970">
    <rect x="0" y="0" width="2400" height="1600"/>
  </clipPath>
</defs>
<path clip-path="url(#clip970)" d="M0 1600 L2400 1600 L2400 0 L0 0  Z" fill="#ffffff" fill-rule="evenodd" fill-opacity="1"/>
<defs>
  <clipPath id="clip971">
    <rect x="480" y="0" width="1681" height="1600"/>
  </clipPath>
</defs>
<path clip-path="url(#clip970)" d="M137.964 1486.45 L2352.76 1486.45 L2352.76 47.2441 L137.964 47.2441  Z" fill="#ffffff" fill-rule="evenodd" fill-opacity="1"/>
<defs>
  <clipPath id="clip972">
    <rect x="137" y="47" width="2216" height="1440"/>
  </clipPath>
</defs>
<polyline clip-path="url(#clip972)" style="stroke:#000000; stroke-linecap:round; stroke-linejoin:round; stroke-width:2; stroke-opacity:0.1; fill:none" points="198.555,1486.45 198.555,47.2441 "/>
<polyline clip-path="url(#clip972)" style="stroke:#000000; stroke-linecap:round; stroke-linejoin:round; stroke-width:2; stroke-opacity:0.1; fill:none" points="721.435,1486.45 721.435,47.2441 "/>
<polyline clip-path="url(#clip972)" style="stroke:#000000; stroke-linecap:round; stroke-linejoin:round; stroke-width:2; stroke-opacity:0.1; fill:none" points="1244.31,1486.45 1244.31,47.2441 "/>
<polyline clip-path="url(#clip972)" style="stroke:#000000; stroke-linecap:round; stroke-linejoin:round; stroke-width:2; stroke-opacity:0.1; fill:none" points="1767.19,1486.45 1767.19,47.2441 "/>
<polyline clip-path="url(#clip972)" style="stroke:#000000; stroke-linecap:round; stroke-linejoin:round; stroke-width:2; stroke-opacity:0.1; fill:none" points="2290.07,1486.45 2290.07,47.2441 "/>
<polyline clip-path="url(#clip970)" style="stroke:#000000; stroke-linecap:round; stroke-linejoin:round; stroke-width:4; stroke-opacity:1; fill:none" points="137.964,1486.45 2352.76,1486.45 "/>
<polyline clip-path="url(#clip970)" style="stroke:#000000; stroke-linecap:round; stroke-linejoin:round; stroke-width:4; stroke-opacity:1; fill:none" points="198.555,1486.45 198.555,1467.55 "/>
<polyline clip-path="url(#clip970)" style="stroke:#000000; stroke-linecap:round; stroke-linejoin:round; stroke-width:4; stroke-opacity:1; fill:none" points="721.435,1486.45 721.435,1467.55 "/>
<polyline clip-path="url(#clip970)" style="stroke:#000000; stroke-linecap:round; stroke-linejoin:round; stroke-width:4; stroke-opacity:1; fill:none" points="1244.31,1486.45 1244.31,1467.55 "/>
<polyline clip-path="url(#clip970)" style="stroke:#000000; stroke-linecap:round; stroke-linejoin:round; stroke-width:4; stroke-opacity:1; fill:none" points="1767.19,1486.45 1767.19,1467.55 "/>
<polyline clip-path="url(#clip970)" style="stroke:#000000; stroke-linecap:round; stroke-linejoin:round; stroke-width:4; stroke-opacity:1; fill:none" points="2290.07,1486.45 2290.07,1467.55 "/>
<path clip-path="url(#clip970)" d="M198.555 1517.37 Q194.944 1517.37 193.116 1520.93 Q191.31 1524.47 191.31 1531.6 Q191.31 1538.71 193.116 1542.27 Q194.944 1545.82 198.555 1545.82 Q202.19 1545.82 203.995 1542.27 Q205.824 1538.71 205.824 1531.6 Q205.824 1524.47 203.995 1520.93 Q202.19 1517.37 198.555 1517.37 M198.555 1513.66 Q204.365 1513.66 207.421 1518.27 Q210.5 1522.85 210.5 1531.6 Q210.5 1540.33 207.421 1544.94 Q204.365 1549.52 198.555 1549.52 Q192.745 1549.52 189.667 1544.94 Q186.611 1540.33 186.611 1531.6 Q186.611 1522.85 189.667 1518.27 Q192.745 1513.66 198.555 1513.66 Z" fill="#000000" fill-rule="nonzero" fill-opacity="1" /><path clip-path="url(#clip970)" d="M685.127 1544.91 L701.446 1544.91 L701.446 1548.85 L679.502 1548.85 L679.502 1544.91 Q682.164 1542.16 686.747 1537.53 Q691.354 1532.88 692.534 1531.53 Q694.78 1529.01 695.659 1527.27 Q696.562 1525.51 696.562 1523.82 Q696.562 1521.07 694.618 1519.33 Q692.697 1517.6 689.595 1517.6 Q687.396 1517.6 684.942 1518.36 Q682.511 1519.13 679.734 1520.68 L679.734 1515.95 Q682.558 1514.82 685.011 1514.24 Q687.465 1513.66 689.502 1513.66 Q694.872 1513.66 698.067 1516.35 Q701.261 1519.03 701.261 1523.52 Q701.261 1525.65 700.451 1527.57 Q699.664 1529.47 697.558 1532.07 Q696.979 1532.74 693.877 1535.95 Q690.775 1539.15 685.127 1544.91 Z" fill="#000000" fill-rule="nonzero" fill-opacity="1" /><path clip-path="url(#clip970)" d="M711.308 1514.29 L729.664 1514.29 L729.664 1518.22 L715.59 1518.22 L715.59 1526.7 Q716.608 1526.35 717.627 1526.19 Q718.645 1526 719.664 1526 Q725.451 1526 728.831 1529.17 Q732.21 1532.34 732.21 1537.76 Q732.21 1543.34 728.738 1546.44 Q725.266 1549.52 718.946 1549.52 Q716.77 1549.52 714.502 1549.15 Q712.257 1548.78 709.849 1548.04 L709.849 1543.34 Q711.933 1544.47 714.155 1545.03 Q716.377 1545.58 718.854 1545.58 Q722.858 1545.58 725.196 1543.48 Q727.534 1541.37 727.534 1537.76 Q727.534 1534.15 725.196 1532.04 Q722.858 1529.94 718.854 1529.94 Q716.979 1529.94 715.104 1530.35 Q713.252 1530.77 711.308 1531.65 L711.308 1514.29 Z" fill="#000000" fill-rule="nonzero" fill-opacity="1" /><path clip-path="url(#clip970)" d="M751.423 1517.37 Q747.812 1517.37 745.983 1520.93 Q744.178 1524.47 744.178 1531.6 Q744.178 1538.71 745.983 1542.27 Q747.812 1545.82 751.423 1545.82 Q755.057 1545.82 756.863 1542.27 Q758.692 1538.71 758.692 1531.6 Q758.692 1524.47 756.863 1520.93 Q755.057 1517.37 751.423 1517.37 M751.423 1513.66 Q757.233 1513.66 760.289 1518.27 Q763.367 1522.85 763.367 1531.6 Q763.367 1540.33 760.289 1544.94 Q757.233 1549.52 751.423 1549.52 Q745.613 1549.52 742.534 1544.94 Q739.479 1540.33 739.479 1531.6 Q739.479 1522.85 742.534 1518.27 Q745.613 1513.66 751.423 1513.66 Z" fill="#000000" fill-rule="nonzero" fill-opacity="1" /><path clip-path="url(#clip970)" d="M1203.93 1514.29 L1222.29 1514.29 L1222.29 1518.22 L1208.21 1518.22 L1208.21 1526.7 Q1209.23 1526.35 1210.25 1526.19 Q1211.27 1526 1212.29 1526 Q1218.08 1526 1221.46 1529.17 Q1224.84 1532.34 1224.84 1537.76 Q1224.84 1543.34 1221.36 1546.44 Q1217.89 1549.52 1211.57 1549.52 Q1209.4 1549.52 1207.13 1549.15 Q1204.88 1548.78 1202.47 1548.04 L1202.47 1543.34 Q1204.56 1544.47 1206.78 1545.03 Q1209 1545.58 1211.48 1545.58 Q1215.48 1545.58 1217.82 1543.48 Q1220.16 1541.37 1220.16 1537.76 Q1220.16 1534.15 1217.82 1532.04 Q1215.48 1529.94 1211.48 1529.94 Q1209.6 1529.94 1207.73 1530.35 Q1205.88 1530.77 1203.93 1531.65 L1203.93 1514.29 Z" fill="#000000" fill-rule="nonzero" fill-opacity="1" /><path clip-path="url(#clip970)" d="M1244.05 1517.37 Q1240.44 1517.37 1238.61 1520.93 Q1236.8 1524.47 1236.8 1531.6 Q1236.8 1538.71 1238.61 1542.27 Q1240.44 1545.82 1244.05 1545.82 Q1247.68 1545.82 1249.49 1542.27 Q1251.32 1538.71 1251.32 1531.6 Q1251.32 1524.47 1249.49 1520.93 Q1247.68 1517.37 1244.05 1517.37 M1244.05 1513.66 Q1249.86 1513.66 1252.91 1518.27 Q1255.99 1522.85 1255.99 1531.6 Q1255.99 1540.33 1252.91 1544.94 Q1249.86 1549.52 1244.05 1549.52 Q1238.24 1549.52 1235.16 1544.94 Q1232.1 1540.33 1232.1 1531.6 Q1232.1 1522.85 1235.16 1518.27 Q1238.24 1513.66 1244.05 1513.66 Z" fill="#000000" fill-rule="nonzero" fill-opacity="1" /><path clip-path="url(#clip970)" d="M1274.21 1517.37 Q1270.6 1517.37 1268.77 1520.93 Q1266.96 1524.47 1266.96 1531.6 Q1266.96 1538.71 1268.77 1542.27 Q1270.6 1545.82 1274.21 1545.82 Q1277.84 1545.82 1279.65 1542.27 Q1281.48 1538.71 1281.48 1531.6 Q1281.48 1524.47 1279.65 1520.93 Q1277.84 1517.37 1274.21 1517.37 M1274.21 1513.66 Q1280.02 1513.66 1283.08 1518.27 Q1286.15 1522.85 1286.15 1531.6 Q1286.15 1540.33 1283.08 1544.94 Q1280.02 1549.52 1274.21 1549.52 Q1268.4 1549.52 1265.32 1544.94 Q1262.27 1540.33 1262.27 1531.6 Q1262.27 1522.85 1265.32 1518.27 Q1268.4 1513.66 1274.21 1513.66 Z" fill="#000000" fill-rule="nonzero" fill-opacity="1" /><path clip-path="url(#clip970)" d="M1725.47 1514.29 L1747.69 1514.29 L1747.69 1516.28 L1735.15 1548.85 L1730.26 1548.85 L1742.07 1518.22 L1725.47 1518.22 L1725.47 1514.29 Z" fill="#000000" fill-rule="nonzero" fill-opacity="1" /><path clip-path="url(#clip970)" d="M1756.86 1514.29 L1775.21 1514.29 L1775.21 1518.22 L1761.14 1518.22 L1761.14 1526.7 Q1762.16 1526.35 1763.18 1526.19 Q1764.2 1526 1765.21 1526 Q1771 1526 1774.38 1529.17 Q1777.76 1532.34 1777.76 1537.76 Q1777.76 1543.34 1774.29 1546.44 Q1770.82 1549.52 1764.5 1549.52 Q1762.32 1549.52 1760.05 1549.15 Q1757.81 1548.78 1755.4 1548.04 L1755.4 1543.34 Q1757.48 1544.47 1759.71 1545.03 Q1761.93 1545.58 1764.4 1545.58 Q1768.41 1545.58 1770.75 1543.48 Q1773.08 1541.37 1773.08 1537.76 Q1773.08 1534.15 1770.75 1532.04 Q1768.41 1529.94 1764.4 1529.94 Q1762.53 1529.94 1760.65 1530.35 Q1758.8 1530.77 1756.86 1531.65 L1756.86 1514.29 Z" fill="#000000" fill-rule="nonzero" fill-opacity="1" /><path clip-path="url(#clip970)" d="M1796.97 1517.37 Q1793.36 1517.37 1791.53 1520.93 Q1789.73 1524.47 1789.73 1531.6 Q1789.73 1538.71 1791.53 1542.27 Q1793.36 1545.82 1796.97 1545.82 Q1800.61 1545.82 1802.41 1542.27 Q1804.24 1538.71 1804.24 1531.6 Q1804.24 1524.47 1802.41 1520.93 Q1800.61 1517.37 1796.97 1517.37 M1796.97 1513.66 Q1802.78 1513.66 1805.84 1518.27 Q1808.92 1522.85 1808.92 1531.6 Q1808.92 1540.33 1805.84 1544.94 Q1802.78 1549.52 1796.97 1549.52 Q1791.16 1549.52 1788.08 1544.94 Q1785.03 1540.33 1785.03 1531.6 Q1785.03 1522.85 1788.08 1518.27 Q1791.16 1513.66 1796.97 1513.66 Z" fill="#000000" fill-rule="nonzero" fill-opacity="1" /><path clip-path="url(#clip970)" d="M2234.6 1544.91 L2242.24 1544.91 L2242.24 1518.55 L2233.93 1520.21 L2233.93 1515.95 L2242.19 1514.29 L2246.87 1514.29 L2246.87 1544.91 L2254.51 1544.91 L2254.51 1548.85 L2234.6 1548.85 L2234.6 1544.91 Z" fill="#000000" fill-rule="nonzero" fill-opacity="1" /><path clip-path="url(#clip970)" d="M2273.95 1517.37 Q2270.34 1517.37 2268.51 1520.93 Q2266.71 1524.47 2266.71 1531.6 Q2266.71 1538.71 2268.51 1542.27 Q2270.34 1545.82 2273.95 1545.82 Q2277.58 1545.82 2279.39 1542.27 Q2281.22 1538.71 2281.22 1531.6 Q2281.22 1524.47 2279.39 1520.93 Q2277.58 1517.37 2273.95 1517.37 M2273.95 1513.66 Q2279.76 1513.66 2282.82 1518.27 Q2285.89 1522.85 2285.89 1531.6 Q2285.89 1540.33 2282.82 1544.94 Q2279.76 1549.52 2273.95 1549.52 Q2268.14 1549.52 2265.06 1544.94 Q2262.01 1540.33 2262.01 1531.6 Q2262.01 1522.85 2265.06 1518.27 Q2268.14 1513.66 2273.95 1513.66 Z" fill="#000000" fill-rule="nonzero" fill-opacity="1" /><path clip-path="url(#clip970)" d="M2304.11 1517.37 Q2300.5 1517.37 2298.67 1520.93 Q2296.87 1524.47 2296.87 1531.6 Q2296.87 1538.71 2298.67 1542.27 Q2300.5 1545.82 2304.11 1545.82 Q2307.75 1545.82 2309.55 1542.27 Q2311.38 1538.71 2311.38 1531.6 Q2311.38 1524.47 2309.55 1520.93 Q2307.75 1517.37 2304.11 1517.37 M2304.11 1513.66 Q2309.92 1513.66 2312.98 1518.27 Q2316.06 1522.85 2316.06 1531.6 Q2316.06 1540.33 2312.98 1544.94 Q2309.92 1549.52 2304.11 1549.52 Q2298.3 1549.52 2295.22 1544.94 Q2292.17 1540.33 2292.17 1531.6 Q2292.17 1522.85 2295.22 1518.27 Q2298.3 1513.66 2304.11 1513.66 Z" fill="#000000" fill-rule="nonzero" fill-opacity="1" /><path clip-path="url(#clip970)" d="M2334.27 1517.37 Q2330.66 1517.37 2328.83 1520.93 Q2327.03 1524.47 2327.03 1531.6 Q2327.03 1538.71 2328.83 1542.27 Q2330.66 1545.82 2334.27 1545.82 Q2337.91 1545.82 2339.71 1542.27 Q2341.54 1538.71 2341.54 1531.6 Q2341.54 1524.47 2339.71 1520.93 Q2337.91 1517.37 2334.27 1517.37 M2334.27 1513.66 Q2340.08 1513.66 2343.14 1518.27 Q2346.22 1522.85 2346.22 1531.6 Q2346.22 1540.33 2343.14 1544.94 Q2340.08 1549.52 2334.27 1549.52 Q2328.46 1549.52 2325.39 1544.94 Q2322.33 1540.33 2322.33 1531.6 Q2322.33 1522.85 2325.39 1518.27 Q2328.46 1513.66 2334.27 1513.66 Z" fill="#000000" fill-rule="nonzero" fill-opacity="1" /><polyline clip-path="url(#clip972)" style="stroke:#000000; stroke-linecap:round; stroke-linejoin:round; stroke-width:2; stroke-opacity:0.1; fill:none" points="137.964,1333.12 2352.76,1333.12 "/>
<polyline clip-path="url(#clip972)" style="stroke:#000000; stroke-linecap:round; stroke-linejoin:round; stroke-width:2; stroke-opacity:0.1; fill:none" points="137.964,1071.61 2352.76,1071.61 "/>
<polyline clip-path="url(#clip972)" style="stroke:#000000; stroke-linecap:round; stroke-linejoin:round; stroke-width:2; stroke-opacity:0.1; fill:none" points="137.964,810.098 2352.76,810.098 "/>
<polyline clip-path="url(#clip972)" style="stroke:#000000; stroke-linecap:round; stroke-linejoin:round; stroke-width:2; stroke-opacity:0.1; fill:none" points="137.964,548.586 2352.76,548.586 "/>
<polyline clip-path="url(#clip972)" style="stroke:#000000; stroke-linecap:round; stroke-linejoin:round; stroke-width:2; stroke-opacity:0.1; fill:none" points="137.964,287.073 2352.76,287.073 "/>
<polyline clip-path="url(#clip970)" style="stroke:#000000; stroke-linecap:round; stroke-linejoin:round; stroke-width:4; stroke-opacity:1; fill:none" points="137.964,1486.45 137.964,47.2441 "/>
<polyline clip-path="url(#clip970)" style="stroke:#000000; stroke-linecap:round; stroke-linejoin:round; stroke-width:4; stroke-opacity:1; fill:none" points="137.964,1333.12 156.862,1333.12 "/>
<polyline clip-path="url(#clip970)" style="stroke:#000000; stroke-linecap:round; stroke-linejoin:round; stroke-width:4; stroke-opacity:1; fill:none" points="137.964,1071.61 156.862,1071.61 "/>
<polyline clip-path="url(#clip970)" style="stroke:#000000; stroke-linecap:round; stroke-linejoin:round; stroke-width:4; stroke-opacity:1; fill:none" points="137.964,810.098 156.862,810.098 "/>
<polyline clip-path="url(#clip970)" style="stroke:#000000; stroke-linecap:round; stroke-linejoin:round; stroke-width:4; stroke-opacity:1; fill:none" points="137.964,548.586 156.862,548.586 "/>
<polyline clip-path="url(#clip970)" style="stroke:#000000; stroke-linecap:round; stroke-linejoin:round; stroke-width:4; stroke-opacity:1; fill:none" points="137.964,287.073 156.862,287.073 "/>
<path clip-path="url(#clip970)" d="M94.8345 1331.77 Q98.1909 1332.49 100.066 1334.75 Q101.964 1337.02 101.964 1340.36 Q101.964 1345.47 98.4456 1348.27 Q94.9271 1351.07 88.4456 1351.07 Q86.2697 1351.07 83.9549 1350.63 Q81.6633 1350.22 79.2096 1349.36 L79.2096 1344.85 Q81.154 1345.98 83.4688 1346.56 Q85.7836 1347.14 88.3067 1347.14 Q92.7049 1347.14 94.9965 1345.4 Q97.3113 1343.67 97.3113 1340.36 Q97.3113 1337.3 95.1586 1335.59 Q93.0289 1333.85 89.2095 1333.85 L85.1818 1333.85 L85.1818 1330.01 L89.3947 1330.01 Q92.8438 1330.01 94.6724 1328.64 Q96.5011 1327.25 96.5011 1324.66 Q96.5011 1322 94.603 1320.59 Q92.728 1319.15 89.2095 1319.15 Q87.2882 1319.15 85.0892 1319.57 Q82.8901 1319.99 80.2512 1320.87 L80.2512 1316.7 Q82.9133 1315.96 85.2281 1315.59 Q87.566 1315.22 89.6262 1315.22 Q94.9502 1315.22 98.0521 1317.65 Q101.154 1320.05 101.154 1324.18 Q101.154 1327.05 99.5104 1329.04 Q97.8669 1331 94.8345 1331.77 Z" fill="#000000" fill-rule="nonzero" fill-opacity="1" /><path clip-path="url(#clip970)" d="M90.4364 1069.75 Q87.2882 1069.75 85.4364 1071.9 Q83.6077 1074.05 83.6077 1077.8 Q83.6077 1081.53 85.4364 1083.7 Q87.2882 1085.86 90.4364 1085.86 Q93.5845 1085.86 95.4132 1083.7 Q97.265 1081.53 97.265 1077.8 Q97.265 1074.05 95.4132 1071.9 Q93.5845 1069.75 90.4364 1069.75 M99.7187 1055.09 L99.7187 1059.35 Q97.9595 1058.52 96.1539 1058.08 Q94.3715 1057.64 92.6123 1057.64 Q87.9827 1057.64 85.529 1060.76 Q83.0984 1063.89 82.7512 1070.21 Q84.1169 1068.2 86.1771 1067.13 Q88.2373 1066.04 90.7141 1066.04 Q95.9224 1066.04 98.9317 1069.21 Q101.964 1072.36 101.964 1077.8 Q101.964 1083.13 98.8159 1086.34 Q95.6678 1089.56 90.4364 1089.56 Q84.441 1089.56 81.2697 1084.98 Q78.0985 1080.37 78.0985 1071.64 Q78.0985 1063.45 81.9873 1058.59 Q85.8762 1053.7 92.4271 1053.7 Q94.1863 1053.7 95.9687 1054.05 Q97.7743 1054.4 99.7187 1055.09 Z" fill="#000000" fill-rule="nonzero" fill-opacity="1" /><path clip-path="url(#clip970)" d="M80.3438 826.66 L80.3438 822.401 Q82.1031 823.234 83.9086 823.674 Q85.7142 824.114 87.4503 824.114 Q92.0799 824.114 94.5104 821.012 Q96.9641 817.887 97.3113 811.544 Q95.9687 813.535 93.9086 814.6 Q91.8484 815.665 89.3484 815.665 Q84.1632 815.665 81.1309 812.54 Q78.1216 809.392 78.1216 803.952 Q78.1216 798.628 81.2697 795.41 Q84.4179 792.193 89.6493 792.193 Q95.6447 792.193 98.7928 796.799 Q101.964 801.382 101.964 810.132 Q101.964 818.304 98.0752 823.188 Q94.2095 828.049 87.6586 828.049 Q85.8993 828.049 84.0938 827.702 Q82.2883 827.355 80.3438 826.66 M89.6493 812.007 Q92.7975 812.007 94.6262 809.855 Q96.478 807.702 96.478 803.952 Q96.478 800.225 94.6262 798.072 Q92.7975 795.896 89.6493 795.896 Q86.5012 795.896 84.6494 798.072 Q82.8207 800.225 82.8207 803.952 Q82.8207 807.702 84.6494 809.855 Q86.5012 812.007 89.6493 812.007 Z" fill="#000000" fill-rule="nonzero" fill-opacity="1" /><path clip-path="url(#clip970)" d="M52.2653 561.93 L59.9041 561.93 L59.9041 535.565 L51.594 537.231 L51.594 532.972 L59.8578 531.306 L64.5337 531.306 L64.5337 561.93 L72.1726 561.93 L72.1726 565.866 L52.2653 565.866 L52.2653 561.93 Z" fill="#000000" fill-rule="nonzero" fill-opacity="1" /><path clip-path="url(#clip970)" d="M85.6447 561.93 L101.964 561.93 L101.964 565.866 L80.0197 565.866 L80.0197 561.93 Q82.6818 559.176 87.2651 554.546 Q91.8715 549.893 93.0521 548.551 Q95.2974 546.028 96.1771 544.292 Q97.0798 542.532 97.0798 540.843 Q97.0798 538.088 95.1354 536.352 Q93.2141 534.616 90.1123 534.616 Q87.9132 534.616 85.4595 535.38 Q83.029 536.144 80.2512 537.694 L80.2512 532.972 Q83.0753 531.838 85.529 531.259 Q87.9827 530.681 90.0197 530.681 Q95.39 530.681 98.5845 533.366 Q101.779 536.051 101.779 540.542 Q101.779 542.671 100.969 544.593 Q100.182 546.491 98.0752 549.083 Q97.4965 549.755 94.3947 552.972 Q91.2928 556.167 85.6447 561.93 Z" fill="#000000" fill-rule="nonzero" fill-opacity="1" /><path clip-path="url(#clip970)" d="M51.6634 300.418 L59.3023 300.418 L59.3023 274.053 L50.9921 275.719 L50.9921 271.46 L59.256 269.793 L63.9319 269.793 L63.9319 300.418 L71.5707 300.418 L71.5707 304.353 L51.6634 304.353 L51.6634 300.418 Z" fill="#000000" fill-rule="nonzero" fill-opacity="1" /><path clip-path="url(#clip970)" d="M81.0614 269.793 L99.4178 269.793 L99.4178 273.729 L85.3438 273.729 L85.3438 282.201 Q86.3623 281.854 87.3808 281.692 Q88.3993 281.506 89.4178 281.506 Q95.2049 281.506 98.5845 284.678 Q101.964 287.849 101.964 293.266 Q101.964 298.844 98.4919 301.946 Q95.0197 305.025 88.7003 305.025 Q86.5243 305.025 84.2558 304.654 Q82.0105 304.284 79.6031 303.543 L79.6031 298.844 Q81.6864 299.978 83.9086 300.534 Q86.1308 301.09 88.6077 301.09 Q92.6123 301.09 94.9502 298.983 Q97.2882 296.877 97.2882 293.266 Q97.2882 289.654 94.9502 287.548 Q92.6123 285.442 88.6077 285.442 Q86.7327 285.442 84.8577 285.858 Q83.0058 286.275 81.0614 287.154 L81.0614 269.793 Z" fill="#000000" fill-rule="nonzero" fill-opacity="1" /><polyline clip-path="url(#clip972)" style="stroke:#009af9; stroke-linecap:round; stroke-linejoin:round; stroke-width:4; stroke-opacity:1; fill:none" points="200.647,1211 202.738,1211 204.83,1211 206.921,1211 209.013,1211 211.104,1211 213.196,1211 215.287,1211 217.379,1211 219.471,1211 221.562,999.123 223.654,1005.86 225.745,1006.19 227.837,1006.21 229.928,1006.21 232.02,1006.21 234.111,1006.21 236.203,1006.21 238.294,1006.21 240.386,1006.21 242.477,87.9763 244.569,259.5 246.66,266.045 248.752,266.246 250.843,266.252 252.935,266.252 255.026,266.252 257.118,266.252 259.209,266.252 261.301,266.252 263.392,1443.64 265.484,1443.64 267.575,1443.64 269.667,1443.64 271.758,1443.64 273.85,1443.64 275.942,1443.64 278.033,1443.64 280.125,1443.64 282.216,1443.64 284.308,1445.71 286.399,1445.72 288.491,1445.72 290.582,1445.72 292.674,1445.72 294.765,1445.72 296.857,1445.72 298.948,1445.72 301.04,1445.72 303.131,1445.72 305.223,1110.81 307.314,1112.32 309.406,1112.32 311.497,1112.32 313.589,1112.32 315.68,1112.32 317.772,1112.32 319.863,1112.32 321.955,1112.32 324.046,1112.32 326.138,1270.07 328.229,1270.19 330.321,1270.19 332.412,1270.19 334.504,1270.19 336.596,1270.19 338.687,1270.19 340.779,1270.19 342.87,1270.19 344.962,1270.19 347.053,1282.23 349.145,1282.29 351.236,1282.29 353.328,1282.29 355.419,1282.29 357.511,1282.29 359.602,1282.29 361.694,1282.29 363.785,1282.29 365.877,1282.29 367.968,1203.57 370.06,1203.79 372.151,1203.79 374.243,1203.79 376.334,1203.79 378.426,1203.79 380.517,1203.79 382.609,1203.79 384.7,1203.79 386.792,1203.79 388.883,1066.38 390.975,1067.13 393.066,1067.13 395.158,1067.13 397.25,1067.13 399.341,1067.13 401.433,1067.13 403.524,1067.13 405.616,1067.13 407.707,1067.13 409.799,1272.64 411.89,1272.66 413.982,1272.66 416.073,1272.66 418.165,1272.66 420.256,1272.66 422.348,1272.66 424.439,1272.66 426.531,1272.66 428.622,1272.66 430.714,1116.93 432.805,1117.19 434.897,1117.19 436.988,1117.19 439.08,1117.19 441.171,1117.19 443.263,1117.19 445.354,1117.19 447.446,1117.19 449.537,1117.19 451.629,1223.9 453.721,1223.93 455.812,1223.93 457.904,1223.93 459.995,1223.93 462.087,1223.93 464.178,1223.93 466.27,1223.93 468.361,1223.93 470.453,1223.93 472.544,1233.9 474.636,1233.92 476.727,1233.92 478.819,1233.92 480.91,1233.92 483.002,1233.92 485.093,1233.92 487.185,1233.92 489.276,1233.92 491.368,1233.92 493.459,878.453 495.551,879.301 497.642,879.301 499.734,879.301 501.825,879.301 503.917,879.301 506.008,879.301 508.1,879.301 510.191,879.301 512.283,879.301 514.375,1120.02 516.466,1120.09 518.558,1120.09 520.649,1120.09 522.741,1120.09 524.832,1120.09 526.924,1120.09 529.015,1120.09 531.107,1120.09 533.198,1120.09 535.29,1340.6 537.381,1340.6 539.473,1340.6 541.564,1340.6 543.656,1340.6 545.747,1340.6 547.839,1340.6 549.93,1340.6 552.022,1340.6 554.113,1340.6 556.205,1348.55 558.296,1348.55 560.388,1348.55 562.479,1348.55 564.571,1348.55 566.662,1348.55 568.754,1348.55 570.846,1348.55 572.937,1348.55 575.029,1348.55 577.12,1378.51 579.212,1378.51 581.303,1378.51 583.395,1378.51 585.486,1378.51 587.578,1378.51 589.669,1378.51 591.761,1378.51 593.852,1378.51 595.944,1378.51 598.035,1370.07 600.127,1370.07 602.218,1370.07 604.31,1370.07 606.401,1370.07 608.493,1370.07 610.584,1370.07 612.676,1370.07 614.767,1370.07 616.859,1370.07 618.95,1276.15 621.042,1276.15 623.133,1276.15 625.225,1276.15 627.316,1276.15 629.408,1276.15 631.5,1276.15 633.591,1276.15 635.683,1276.15 637.774,1276.15 639.866,1315.79 641.957,1315.79 644.049,1315.79 646.14,1315.79 648.232,1315.79 650.323,1315.79 652.415,1315.79 654.506,1315.79 656.598,1315.79 658.689,1315.79 660.781,1366.71 662.872,1366.71 664.964,1366.71 667.055,1366.71 669.147,1366.71 671.238,1366.71 673.33,1366.71 675.421,1366.71 677.513,1366.71 679.604,1366.71 681.696,1335.72 683.787,1335.72 685.879,1335.72 687.971,1335.72 690.062,1335.72 692.154,1335.72 694.245,1335.72 696.337,1335.72 698.428,1335.72 700.52,1335.72 702.611,1347.61 704.703,1347.61 706.794,1347.61 708.886,1347.61 710.977,1347.61 713.069,1347.61 715.16,1347.61 717.252,1347.61 719.343,1347.61 721.435,1347.61 723.526,1368.9 725.618,1368.9 727.709,1368.9 729.801,1368.9 731.892,1368.9 733.984,1368.9 736.075,1368.9 738.167,1368.9 740.258,1368.9 742.35,1368.9 744.441,1377.92 746.533,1377.92 748.625,1377.92 750.716,1377.92 752.808,1377.92 754.899,1377.92 756.991,1377.92 759.082,1377.92 761.174,1377.92 763.265,1377.92 765.357,1357.76 767.448,1357.76 769.54,1357.76 771.631,1357.76 773.723,1357.76 775.814,1357.76 777.906,1357.76 779.997,1357.76 782.089,1357.76 784.18,1357.76 786.272,1377.49 788.363,1377.49 790.455,1377.49 792.546,1377.49 794.638,1377.49 796.729,1377.49 798.821,1377.49 800.912,1377.49 803.004,1377.49 805.095,1377.49 807.187,1357.25 809.279,1357.25 811.37,1357.25 813.462,1357.25 815.553,1357.25 817.645,1357.25 819.736,1357.25 821.828,1357.25 823.919,1357.25 826.011,1357.25 828.102,1371.51 830.194,1371.51 832.285,1371.51 834.377,1371.51 836.468,1371.51 838.56,1371.51 840.651,1371.51 842.743,1371.51 844.834,1371.51 846.926,1371.51 849.017,1261.85 851.109,1261.85 853.2,1261.85 855.292,1261.85 857.383,1261.85 859.475,1261.85 861.566,1261.85 863.658,1261.85 865.75,1261.85 867.841,1261.85 869.933,1384.52 872.024,1384.52 874.116,1384.52 876.207,1384.52 878.299,1384.52 880.39,1384.52 882.482,1384.52 884.573,1384.52 886.665,1384.52 888.756,1384.52 890.848,1383.33 892.939,1383.33 895.031,1383.33 897.122,1383.33 899.214,1383.33 901.305,1383.33 903.397,1383.33 905.488,1383.33 907.58,1383.33 909.671,1383.33 911.763,1040.59 913.854,1040.65 915.946,1040.65 918.037,1040.65 920.129,1040.65 922.22,1040.65 924.312,1040.65 926.404,1040.65 928.495,1040.65 930.587,1040.65 932.678,1262.19 934.77,1262.19 936.861,1262.19 938.953,1262.19 941.044,1262.19 943.136,1262.19 945.227,1262.19 947.319,1262.19 949.41,1262.19 951.502,1262.19 953.593,992.051 955.685,992.114 957.776,992.114 959.868,992.114 961.959,992.114 964.051,992.114 966.142,992.114 968.234,992.114 970.325,992.114 972.417,992.114 974.508,1339.76 976.6,1339.76 978.691,1339.76 980.783,1339.76 982.875,1339.76 984.966,1339.76 987.058,1339.76 989.149,1339.76 991.241,1339.76 993.332,1339.76 995.424,1326.61 997.515,1326.61 999.607,1326.61 1001.7,1326.61 1003.79,1326.61 1005.88,1326.61 1007.97,1326.61 1010.06,1326.61 1012.16,1326.61 1014.25,1326.61 1016.34,1196.58 1018.43,1196.58 1020.52,1196.58 1022.61,1196.58 1024.7,1196.58 1026.8,1196.58 1028.89,1196.58 1030.98,1196.58 1033.07,1196.58 1035.16,1196.58 1037.25,1212.14 1039.35,1212.14 1041.44,1212.14 1043.53,1212.14 1045.62,1212.14 1047.71,1212.14 1049.8,1212.14 1051.89,1212.14 1053.99,1212.14 1056.08,1212.14 1058.17,1368.77 1060.26,1368.77 1062.35,1368.77 1064.44,1368.77 1066.54,1368.77 1068.63,1368.77 1070.72,1368.77 1072.81,1368.77 1074.9,1368.77 1076.99,1368.77 1079.08,1280.79 1081.18,1280.79 1083.27,1280.79 1085.36,1280.79 1087.45,1280.79 1089.54,1280.79 1091.63,1280.79 1093.72,1280.79 1095.82,1280.79 1097.91,1280.79 1100,1346.49 1102.09,1346.49 1104.18,1346.49 1106.27,1346.49 1108.37,1346.49 1110.46,1346.49 1112.55,1346.49 1114.64,1346.49 1116.73,1346.49 1118.82,1346.49 1120.91,1318.41 1123.01,1318.41 1125.1,1318.41 1127.19,1318.41 1129.28,1318.41 1131.37,1318.41 1133.46,1318.41 1135.56,1318.41 1137.65,1318.41 1139.74,1318.41 1141.83,1340.81 1143.92,1340.81 1146.01,1340.81 1148.1,1340.81 1150.2,1340.81 1152.29,1340.81 1154.38,1340.81 1156.47,1340.81 1158.56,1340.81 1160.65,1340.81 1162.75,1349.77 1164.84,1349.77 1166.93,1349.77 1169.02,1349.77 1171.11,1349.77 1173.2,1349.77 1175.29,1349.77 1177.39,1349.77 1179.48,1349.77 1181.57,1349.77 1183.66,1277.68 1185.75,1277.68 1187.84,1277.68 1189.93,1277.68 1192.03,1277.68 1194.12,1277.68 1196.21,1277.68 1198.3,1277.68 1200.39,1277.68 1202.48,1277.68 1204.58,876.012 1206.67,876.081 1208.76,876.081 1210.85,876.081 1212.94,876.081 1215.03,876.081 1217.12,876.081 1219.22,876.081 1221.31,876.081 1223.4,876.081 1225.49,1223.27 1227.58,1223.27 1229.67,1223.27 1231.77,1223.27 1233.86,1223.27 1235.95,1223.27 1238.04,1223.27 1240.13,1223.27 1242.22,1223.27 1244.31,1223.27 1246.41,1344.71 1248.5,1344.71 1250.59,1344.71 1252.68,1344.71 1254.77,1344.71 1256.86,1344.71 1258.95,1344.71 1261.05,1344.71 1263.14,1344.71 1265.23,1344.71 1267.32,1360.01 1269.41,1360.01 1271.5,1360.01 1273.6,1360.01 1275.69,1360.01 1277.78,1360.01 1279.87,1360.01 1281.96,1360.01 1284.05,1360.01 1286.14,1360.01 1288.24,1244.86 1290.33,1244.86 1292.42,1244.86 1294.51,1244.86 1296.6,1244.86 1298.69,1244.86 1300.79,1244.86 1302.88,1244.86 1304.97,1244.86 1307.06,1244.86 1309.15,1282.21 1311.24,1282.21 1313.33,1282.21 1315.43,1282.21 1317.52,1282.21 1319.61,1282.21 1321.7,1282.21 1323.79,1282.21 1325.88,1282.21 1327.97,1282.21 1330.07,1359.68 1332.16,1359.68 1334.25,1359.68 1336.34,1359.68 1338.43,1359.68 1340.52,1359.68 1342.62,1359.68 1344.71,1359.68 1346.8,1359.68 1348.89,1359.68 1350.98,1355.76 1353.07,1355.76 1355.16,1355.76 1357.26,1355.76 1359.35,1355.76 1361.44,1355.76 1363.53,1355.76 1365.62,1355.76 1367.71,1355.76 1369.81,1355.76 1371.9,1143 1373.99,1143 1376.08,1143 1378.17,1143 1380.26,1143 1382.35,1143 1384.45,1143 1386.54,1143 1388.63,1143 1390.72,1143 1392.81,1339.88 1394.9,1339.88 1397,1339.88 1399.09,1339.88 1401.18,1339.88 1403.27,1339.88 1405.36,1339.88 1407.45,1339.88 1409.54,1339.88 1411.64,1339.88 1413.73,1337.49 1415.82,1337.49 1417.91,1337.49 1420,1337.49 1422.09,1337.49 1424.18,1337.49 1426.28,1337.49 1428.37,1337.49 1430.46,1337.49 1432.55,1337.49 1434.64,1344.11 1436.73,1344.11 1438.83,1344.11 1440.92,1344.11 1443.01,1344.11 1445.1,1344.11 1447.19,1344.11 1449.28,1344.11 1451.37,1344.11 1453.47,1344.11 1455.56,1347.68 1457.65,1347.68 1459.74,1347.68 1461.83,1347.68 1463.92,1347.68 1466.02,1347.68 1468.11,1347.68 1470.2,1347.68 1472.29,1347.68 1474.38,1347.68 1476.47,1357.76 1478.56,1357.76 1480.66,1357.76 1482.75,1357.76 1484.84,1357.76 1486.93,1357.76 1489.02,1357.76 1491.11,1357.76 1493.2,1357.76 1495.3,1357.76 1497.39,1357.11 1499.48,1357.11 1501.57,1357.11 1503.66,1357.11 1505.75,1357.11 1507.85,1357.11 1509.94,1357.11 1512.03,1357.11 1514.12,1357.11 1516.21,1357.11 1518.3,1362.02 1520.39,1362.02 1522.49,1362.02 1524.58,1362.02 1526.67,1362.02 1528.76,1362.02 1530.85,1362.02 1532.94,1362.02 1535.04,1362.02 1537.13,1362.02 1539.22,1325.89 1541.31,1325.89 1543.4,1325.89 1545.49,1325.89 1547.58,1325.89 1549.68,1325.89 1551.77,1325.89 1553.86,1325.89 1555.95,1325.89 1558.04,1325.89 1560.13,1357.77 1562.22,1357.77 1564.32,1357.77 1566.41,1357.77 1568.5,1357.77 1570.59,1357.77 1572.68,1357.77 1574.77,1357.77 1576.87,1357.77 1578.96,1357.77 1581.05,1359.62 1583.14,1359.62 1585.23,1359.62 1587.32,1359.62 1589.41,1359.62 1591.51,1359.62 1593.6,1359.62 1595.69,1359.62 1597.78,1359.62 1599.87,1359.62 1601.96,1359.25 1604.06,1359.25 1606.15,1359.25 1608.24,1359.25 1610.33,1359.25 1612.42,1359.25 1614.51,1359.25 1616.6,1359.25 1618.7,1359.25 1620.79,1359.25 1622.88,1361.68 1624.97,1361.68 1627.06,1361.68 1629.15,1361.68 1631.25,1361.68 1633.34,1361.68 1635.43,1361.68 1637.52,1361.68 1639.61,1361.68 1641.7,1361.68 1643.79,1314.32 1645.89,1314.32 1647.98,1314.32 1650.07,1314.32 1652.16,1314.32 1654.25,1314.32 1656.34,1314.32 1658.43,1314.32 1660.53,1314.32 1662.62,1314.32 1664.71,1291.72 1666.8,1291.72 1668.89,1291.72 1670.98,1291.72 1673.08,1291.72 1675.17,1291.72 1677.26,1291.72 1679.35,1291.72 1681.44,1291.72 1683.53,1291.72 1685.62,1311.27 1687.72,1311.27 1689.81,1311.27 1691.9,1311.27 1693.99,1311.27 1696.08,1311.27 1698.17,1311.27 1700.27,1311.27 1702.36,1311.27 1704.45,1311.27 1706.54,1363.54 1708.63,1363.54 1710.72,1363.54 1712.81,1363.54 1714.91,1363.54 1717,1363.54 1719.09,1363.54 1721.18,1363.54 1723.27,1363.54 1725.36,1363.54 1727.45,1355.84 1729.55,1355.84 1731.64,1355.84 1733.73,1355.84 1735.82,1355.84 1737.91,1355.84 1740,1355.84 1742.1,1355.84 1744.19,1355.84 1746.28,1355.84 1748.37,1311.05 1750.46,1311.05 1752.55,1311.05 1754.64,1311.05 1756.74,1311.05 1758.83,1311.05 1760.92,1311.05 1763.01,1311.05 1765.1,1311.05 1767.19,1311.05 1769.29,1281.11 1771.38,1281.11 1773.47,1281.11 1775.56,1281.11 1777.65,1281.11 1779.74,1281.11 1781.83,1281.11 1783.93,1281.11 1786.02,1281.11 1788.11,1281.11 1790.2,1365.13 1792.29,1365.13 1794.38,1365.13 1796.47,1365.13 1798.57,1365.13 1800.66,1365.13 1802.75,1365.13 1804.84,1365.13 1806.93,1365.13 1809.02,1365.13 1811.12,1365.61 1813.21,1365.61 1815.3,1365.61 1817.39,1365.61 1819.48,1365.61 1821.57,1365.61 1823.66,1365.61 1825.76,1365.61 1827.85,1365.61 1829.94,1365.61 1832.03,1284.97 1834.12,1284.97 1836.21,1284.97 1838.31,1284.97 1840.4,1284.97 1842.49,1284.97 1844.58,1284.97 1846.67,1284.97 1848.76,1284.97 1850.85,1284.97 1852.95,1332.21 1855.04,1332.21 1857.13,1332.21 1859.22,1332.21 1861.31,1332.21 1863.4,1332.21 1865.5,1332.21 1867.59,1332.21 1869.68,1332.21 1871.77,1332.21 1873.86,1365.72 1875.95,1365.72 1878.04,1365.72 1880.14,1365.72 1882.23,1365.72 1884.32,1365.72 1886.41,1365.72 1888.5,1365.72 1890.59,1365.72 1892.68,1365.72 1894.78,1335.86 1896.87,1335.86 1898.96,1335.86 1901.05,1335.86 1903.14,1335.86 1905.23,1335.86 1907.33,1335.86 1909.42,1335.86 1911.51,1335.86 1913.6,1335.86 1915.69,1361.39 1917.78,1361.39 1919.87,1361.39 1921.97,1361.39 1924.06,1361.39 1926.15,1361.39 1928.24,1361.39 1930.33,1361.39 1932.42,1361.39 1934.52,1361.39 1936.61,1364.91 1938.7,1364.91 1940.79,1364.91 1942.88,1364.91 1944.97,1364.91 1947.06,1364.91 1949.16,1364.91 1951.25,1364.91 1953.34,1364.91 1955.43,1364.91 1957.52,1139.65 1959.61,1139.65 1961.7,1139.65 1963.8,1139.65 1965.89,1139.65 1967.98,1139.65 1970.07,1139.65 1972.16,1139.65 1974.25,1139.65 1976.35,1139.65 1978.44,1193.81 1980.53,1193.81 1982.62,1193.81 1984.71,1193.81 1986.8,1193.81 1988.89,1193.81 1990.99,1193.81 1993.08,1193.81 1995.17,1193.81 1997.26,1193.81 1999.35,1363.74 2001.44,1363.74 2003.54,1363.74 2005.63,1363.74 2007.72,1363.74 2009.81,1363.74 2011.9,1363.74 2013.99,1363.74 2016.08,1363.74 2018.18,1363.74 2020.27,1329.8 2022.36,1329.8 2024.45,1329.8 2026.54,1329.8 2028.63,1329.8 2030.72,1329.8 2032.82,1329.8 2034.91,1329.8 2037,1329.8 2039.09,1329.8 2041.18,1291.03 2043.27,1291.03 2045.37,1291.03 2047.46,1291.03 2049.55,1291.03 2051.64,1291.03 2053.73,1291.03 2055.82,1291.03 2057.91,1291.03 2060.01,1291.03 2062.1,1353.44 2064.19,1353.44 2066.28,1353.44 2068.37,1353.44 2070.46,1353.44 2072.56,1353.44 2074.65,1353.44 2076.74,1353.44 2078.83,1353.44 2080.92,1353.44 2083.01,1359.96 2085.1,1359.96 2087.2,1359.96 2089.29,1359.96 2091.38,1359.96 2093.47,1359.96 2095.56,1359.96 2097.65,1359.96 2099.75,1359.96 2101.84,1359.96 2103.93,1332.06 2106.02,1332.06 2108.11,1332.06 2110.2,1332.06 2112.29,1332.06 2114.39,1332.06 2116.48,1332.06 2118.57,1332.06 2120.66,1332.06 2122.75,1332.06 2124.84,1308.28 2126.93,1308.28 2129.03,1308.28 2131.12,1308.28 2133.21,1308.28 2135.3,1308.28 2137.39,1308.28 2139.48,1308.28 2141.58,1308.28 2143.67,1308.28 2145.76,1351.06 2147.85,1351.06 2149.94,1351.06 2152.03,1351.06 2154.12,1351.06 2156.22,1351.06 2158.31,1351.06 2160.4,1351.06 2162.49,1351.06 2164.58,1351.06 2166.67,1229.39 2168.77,1229.39 2170.86,1229.39 2172.95,1229.39 2175.04,1229.39 2177.13,1229.39 2179.22,1229.39 2181.31,1229.39 2183.41,1229.39 2185.5,1229.39 2187.59,1309.34 2189.68,1309.34 2191.77,1309.34 2193.86,1309.34 2195.95,1309.34 2198.05,1309.34 2200.14,1309.34 2202.23,1309.34 2204.32,1309.34 2206.41,1309.34 2208.5,1128.2 2210.6,1128.2 2212.69,1128.2 2214.78,1128.2 2216.87,1128.2 2218.96,1128.2 2221.05,1128.2 2223.14,1128.2 2225.24,1128.2 2227.33,1128.2 2229.42,1354.5 2231.51,1354.5 2233.6,1354.5 2235.69,1354.5 2237.79,1354.5 2239.88,1354.5 2241.97,1354.5 2244.06,1354.5 2246.15,1354.5 2248.24,1354.5 2250.33,1353.4 2252.43,1353.4 2254.52,1353.4 2256.61,1353.4 2258.7,1353.4 2260.79,1353.4 2262.88,1353.4 2264.97,1353.4 2267.07,1353.4 2269.16,1353.4 2271.25,1302.97 2273.34,1302.97 2275.43,1302.97 2277.52,1302.97 2279.62,1302.97 2281.71,1302.97 2283.8,1302.97 2285.89,1302.97 2287.98,1302.97 2290.07,1302.97 "/>
<path clip-path="url(#clip970)" d="M1490.6 198.898 L2278.93 198.898 L2278.93 95.2176 L1490.6 95.2176  Z" fill="#ffffff" fill-rule="evenodd" fill-opacity="1"/>
<polyline clip-path="url(#clip970)" style="stroke:#000000; stroke-linecap:round; stroke-linejoin:round; stroke-width:4; stroke-opacity:1; fill:none" points="1490.6,198.898 2278.93,198.898 2278.93,95.2176 1490.6,95.2176 1490.6,198.898 "/>
<polyline clip-path="url(#clip970)" style="stroke:#009af9; stroke-linecap:round; stroke-linejoin:round; stroke-width:4; stroke-opacity:1; fill:none" points="1515.21,147.058 1662.86,147.058 "/>
<path clip-path="url(#clip970)" d="M1692.15 147.833 L1692.15 160.495 L1699.65 160.495 Q1703.42 160.495 1705.23 158.944 Q1707.06 157.37 1707.06 154.152 Q1707.06 150.912 1705.23 149.384 Q1703.42 147.833 1699.65 147.833 L1692.15 147.833 M1692.15 133.62 L1692.15 144.037 L1699.07 144.037 Q1702.49 144.037 1704.16 142.764 Q1705.85 141.467 1705.85 138.828 Q1705.85 136.213 1704.16 134.916 Q1702.49 133.62 1699.07 133.62 L1692.15 133.62 M1687.47 129.778 L1699.42 129.778 Q1704.76 129.778 1707.66 132 Q1710.55 134.222 1710.55 138.319 Q1710.55 141.49 1709.07 143.365 Q1707.59 145.24 1704.72 145.703 Q1708.17 146.444 1710.06 148.805 Q1711.99 151.143 1711.99 154.662 Q1711.99 159.291 1708.84 161.814 Q1705.69 164.338 1699.88 164.338 L1687.47 164.338 L1687.47 129.778 Z" fill="#000000" fill-rule="nonzero" fill-opacity="1" /><path clip-path="url(#clip970)" d="M1741.99 150.31 L1741.99 152.393 L1722.4 152.393 Q1722.68 156.791 1725.04 159.106 Q1727.43 161.398 1731.66 161.398 Q1734.12 161.398 1736.41 160.796 Q1738.72 160.194 1740.99 158.99 L1740.99 163.018 Q1738.7 163.99 1736.29 164.5 Q1733.88 165.009 1731.41 165.009 Q1725.2 165.009 1721.57 161.398 Q1717.96 157.787 1717.96 151.629 Q1717.96 145.264 1721.38 141.537 Q1724.83 137.787 1730.67 137.787 Q1735.9 137.787 1738.93 141.166 Q1741.99 144.523 1741.99 150.31 M1737.73 149.06 Q1737.68 145.565 1735.76 143.481 Q1733.86 141.398 1730.71 141.398 Q1727.15 141.398 1724.99 143.412 Q1722.87 145.426 1722.54 149.083 L1737.73 149.06 Z" fill="#000000" fill-rule="nonzero" fill-opacity="1" /><path clip-path="url(#clip970)" d="M1753.19 131.051 L1753.19 138.412 L1761.96 138.412 L1761.96 141.722 L1753.19 141.722 L1753.19 155.796 Q1753.19 158.967 1754.05 159.87 Q1754.93 160.773 1757.59 160.773 L1761.96 160.773 L1761.96 164.338 L1757.59 164.338 Q1752.66 164.338 1750.78 162.509 Q1748.91 160.657 1748.91 155.796 L1748.91 141.722 L1745.78 141.722 L1745.78 138.412 L1748.91 138.412 L1748.91 131.051 L1753.19 131.051 Z" fill="#000000" fill-rule="nonzero" fill-opacity="1" /><path clip-path="url(#clip970)" d="M1789.11 148.689 L1789.11 164.338 L1784.86 164.338 L1784.86 148.828 Q1784.86 145.148 1783.42 143.319 Q1781.99 141.49 1779.11 141.49 Q1775.67 141.49 1773.68 143.69 Q1771.68 145.889 1771.68 149.685 L1771.68 164.338 L1767.4 164.338 L1767.4 128.319 L1771.68 128.319 L1771.68 142.44 Q1773.21 140.102 1775.27 138.944 Q1777.36 137.787 1780.06 137.787 Q1784.53 137.787 1786.82 140.565 Q1789.11 143.319 1789.11 148.689 Z" fill="#000000" fill-rule="nonzero" fill-opacity="1" /><path clip-path="url(#clip970)" d="M1819.79 150.31 L1819.79 152.393 L1800.2 152.393 Q1800.48 156.791 1802.84 159.106 Q1805.23 161.398 1809.46 161.398 Q1811.92 161.398 1814.21 160.796 Q1816.52 160.194 1818.79 158.99 L1818.79 163.018 Q1816.5 163.99 1814.09 164.5 Q1811.68 165.009 1809.21 165.009 Q1803 165.009 1799.37 161.398 Q1795.76 157.787 1795.76 151.629 Q1795.76 145.264 1799.18 141.537 Q1802.63 137.787 1808.47 137.787 Q1813.7 137.787 1816.73 141.166 Q1819.79 144.523 1819.79 150.31 M1815.53 149.06 Q1815.48 145.565 1813.56 143.481 Q1811.66 141.398 1808.51 141.398 Q1804.95 141.398 1802.8 143.412 Q1800.67 145.426 1800.34 149.083 L1815.53 149.06 Z" fill="#000000" fill-rule="nonzero" fill-opacity="1" /><path clip-path="url(#clip970)" d="M1842.03 129.778 L1861.89 129.778 L1861.89 133.713 L1846.71 133.713 L1846.71 143.898 L1860.41 143.898 L1860.41 147.833 L1846.71 147.833 L1846.71 164.338 L1842.03 164.338 L1842.03 129.778 Z" fill="#000000" fill-rule="nonzero" fill-opacity="1" /><path clip-path="url(#clip970)" d="M1880.69 142.393 Q1879.97 141.977 1879.11 141.791 Q1878.28 141.583 1877.26 141.583 Q1873.65 141.583 1871.71 143.944 Q1869.79 146.282 1869.79 150.68 L1869.79 164.338 L1865.5 164.338 L1865.5 138.412 L1869.79 138.412 L1869.79 142.44 Q1871.13 140.078 1873.28 138.944 Q1875.43 137.787 1878.51 137.787 Q1878.95 137.787 1879.48 137.856 Q1880.02 137.903 1880.67 138.018 L1880.69 142.393 Z" fill="#000000" fill-rule="nonzero" fill-opacity="1" /><path clip-path="url(#clip970)" d="M1906.29 150.31 L1906.29 152.393 L1886.71 152.393 Q1886.98 156.791 1889.35 159.106 Q1891.73 161.398 1895.97 161.398 Q1898.42 161.398 1900.71 160.796 Q1903.03 160.194 1905.29 158.99 L1905.29 163.018 Q1903 163.99 1900.6 164.5 Q1898.19 165.009 1895.71 165.009 Q1889.51 165.009 1885.87 161.398 Q1882.26 157.787 1882.26 151.629 Q1882.26 145.264 1885.69 141.537 Q1889.14 137.787 1894.97 137.787 Q1900.2 137.787 1903.23 141.166 Q1906.29 144.523 1906.29 150.31 M1902.03 149.06 Q1901.98 145.565 1900.06 143.481 Q1898.17 141.398 1895.02 141.398 Q1891.45 141.398 1889.3 143.412 Q1887.17 145.426 1886.85 149.083 L1902.03 149.06 Z" fill="#000000" fill-rule="nonzero" fill-opacity="1" /><path clip-path="url(#clip970)" d="M1935.46 150.31 L1935.46 152.393 L1915.87 152.393 Q1916.15 156.791 1918.51 159.106 Q1920.9 161.398 1925.13 161.398 Q1927.59 161.398 1929.88 160.796 Q1932.19 160.194 1934.46 158.99 L1934.46 163.018 Q1932.17 163.99 1929.76 164.5 Q1927.35 165.009 1924.88 165.009 Q1918.67 165.009 1915.04 161.398 Q1911.43 157.787 1911.43 151.629 Q1911.43 145.264 1914.85 141.537 Q1918.3 137.787 1924.14 137.787 Q1929.37 137.787 1932.4 141.166 Q1935.46 144.523 1935.46 150.31 M1931.2 149.06 Q1931.15 145.565 1929.23 143.481 Q1927.33 141.398 1924.18 141.398 Q1920.62 141.398 1918.47 143.412 Q1916.34 145.426 1916.01 149.083 L1931.2 149.06 Z" fill="#000000" fill-rule="nonzero" fill-opacity="1" /><path clip-path="url(#clip970)" d="M1957.7 129.778 L1979.55 129.778 L1979.55 133.713 L1962.38 133.713 L1962.38 143.944 L1978.84 143.944 L1978.84 147.879 L1962.38 147.879 L1962.38 160.402 L1979.97 160.402 L1979.97 164.338 L1957.7 164.338 L1957.7 129.778 Z" fill="#000000" fill-rule="nonzero" fill-opacity="1" /><path clip-path="url(#clip970)" d="M2009.02 148.689 L2009.02 164.338 L2004.76 164.338 L2004.76 148.828 Q2004.76 145.148 2003.33 143.319 Q2001.89 141.49 1999.02 141.49 Q1995.57 141.49 1993.58 143.69 Q1991.59 145.889 1991.59 149.685 L1991.59 164.338 L1987.31 164.338 L1987.31 138.412 L1991.59 138.412 L1991.59 142.44 Q1993.12 140.102 1995.18 138.944 Q1997.26 137.787 1999.97 137.787 Q2004.44 137.787 2006.73 140.565 Q2009.02 143.319 2009.02 148.689 Z" fill="#000000" fill-rule="nonzero" fill-opacity="1" /><path clip-path="url(#clip970)" d="M2039.69 150.31 L2039.69 152.393 L2020.11 152.393 Q2020.39 156.791 2022.75 159.106 Q2025.13 161.398 2029.37 161.398 Q2031.82 161.398 2034.11 160.796 Q2036.43 160.194 2038.7 158.99 L2038.7 163.018 Q2036.41 163.99 2034 164.5 Q2031.59 165.009 2029.11 165.009 Q2022.91 165.009 2019.28 161.398 Q2015.66 157.787 2015.66 151.629 Q2015.66 145.264 2019.09 141.537 Q2022.54 137.787 2028.37 137.787 Q2033.6 137.787 2036.64 141.166 Q2039.69 144.523 2039.69 150.31 M2035.43 149.06 Q2035.39 145.565 2033.47 143.481 Q2031.57 141.398 2028.42 141.398 Q2024.85 141.398 2022.7 143.412 Q2020.57 145.426 2020.25 149.083 L2035.43 149.06 Z" fill="#000000" fill-rule="nonzero" fill-opacity="1" /><path clip-path="url(#clip970)" d="M2061.71 142.393 Q2060.99 141.977 2060.13 141.791 Q2059.3 141.583 2058.28 141.583 Q2054.67 141.583 2052.72 143.944 Q2050.8 146.282 2050.8 150.68 L2050.8 164.338 L2046.52 164.338 L2046.52 138.412 L2050.8 138.412 L2050.8 142.44 Q2052.15 140.078 2054.3 138.944 Q2056.45 137.787 2059.53 137.787 Q2059.97 137.787 2060.5 137.856 Q2061.03 137.903 2061.68 138.018 L2061.71 142.393 Z" fill="#000000" fill-rule="nonzero" fill-opacity="1" /><path clip-path="url(#clip970)" d="M2082.4 151.074 Q2082.4 146.444 2080.48 143.898 Q2078.58 141.352 2075.13 141.352 Q2071.71 141.352 2069.78 143.898 Q2067.89 146.444 2067.89 151.074 Q2067.89 155.68 2069.78 158.226 Q2071.71 160.773 2075.13 160.773 Q2078.58 160.773 2080.48 158.226 Q2082.4 155.68 2082.4 151.074 M2086.66 161.12 Q2086.66 167.74 2083.72 170.958 Q2080.78 174.199 2074.72 174.199 Q2072.47 174.199 2070.48 173.851 Q2068.49 173.527 2066.61 172.833 L2066.61 168.689 Q2068.49 169.708 2070.32 170.194 Q2072.15 170.68 2074.04 170.68 Q2078.23 170.68 2080.32 168.481 Q2082.4 166.305 2082.4 161.884 L2082.4 159.777 Q2081.08 162.069 2079.02 163.203 Q2076.96 164.338 2074.09 164.338 Q2069.32 164.338 2066.41 160.703 Q2063.49 157.069 2063.49 151.074 Q2063.49 145.055 2066.41 141.421 Q2069.32 137.787 2074.09 137.787 Q2076.96 137.787 2079.02 138.921 Q2081.08 140.055 2082.4 142.347 L2082.4 138.412 L2086.66 138.412 L2086.66 161.12 Z" fill="#000000" fill-rule="nonzero" fill-opacity="1" /><path clip-path="url(#clip970)" d="M2106.22 166.745 Q2104.41 171.375 2102.7 172.787 Q2100.99 174.199 2098.12 174.199 L2094.72 174.199 L2094.72 170.634 L2097.22 170.634 Q2098.97 170.634 2099.95 169.8 Q2100.92 168.967 2102.1 165.865 L2102.86 163.921 L2092.38 138.412 L2096.89 138.412 L2104.99 158.689 L2113.09 138.412 L2117.61 138.412 L2106.22 166.745 Z" fill="#000000" fill-rule="nonzero" fill-opacity="1" /><path clip-path="url(#clip970)" d="M2148.79 128.366 Q2145.69 133.69 2144.18 138.898 Q2142.68 144.106 2142.68 149.453 Q2142.68 154.801 2144.18 160.055 Q2145.71 165.287 2148.79 170.588 L2145.09 170.588 Q2141.61 165.148 2139.88 159.893 Q2138.16 154.639 2138.16 149.453 Q2138.16 144.291 2139.88 139.06 Q2141.59 133.828 2145.09 128.366 L2148.79 128.366 Z" fill="#000000" fill-rule="nonzero" fill-opacity="1" /><path clip-path="url(#clip970)" d="M2172.08 142.393 Q2171.36 141.977 2170.5 141.791 Q2169.67 141.583 2168.65 141.583 Q2165.04 141.583 2163.09 143.944 Q2161.17 146.282 2161.17 150.68 L2161.17 164.338 L2156.89 164.338 L2156.89 138.412 L2161.17 138.412 L2161.17 142.44 Q2162.52 140.078 2164.67 138.944 Q2166.82 137.787 2169.9 137.787 Q2170.34 137.787 2170.87 137.856 Q2171.4 137.903 2172.05 138.018 L2172.08 142.393 Z" fill="#000000" fill-rule="nonzero" fill-opacity="1" /><path clip-path="url(#clip970)" d="M2188.33 151.305 Q2183.16 151.305 2181.17 152.486 Q2179.18 153.666 2179.18 156.514 Q2179.18 158.782 2180.66 160.125 Q2182.17 161.444 2184.74 161.444 Q2188.28 161.444 2190.41 158.944 Q2192.56 156.421 2192.56 152.254 L2192.56 151.305 L2188.33 151.305 M2196.82 149.546 L2196.82 164.338 L2192.56 164.338 L2192.56 160.402 Q2191.1 162.763 2188.93 163.898 Q2186.75 165.009 2183.6 165.009 Q2179.62 165.009 2177.26 162.787 Q2174.92 160.541 2174.92 156.791 Q2174.92 152.416 2177.84 150.194 Q2180.78 147.972 2186.59 147.972 L2192.56 147.972 L2192.56 147.555 Q2192.56 144.615 2190.62 143.018 Q2188.7 141.398 2185.2 141.398 Q2182.98 141.398 2180.87 141.93 Q2178.77 142.463 2176.82 143.527 L2176.82 139.592 Q2179.16 138.69 2181.36 138.25 Q2183.56 137.787 2185.64 137.787 Q2191.27 137.787 2194.04 140.703 Q2196.82 143.62 2196.82 149.546 Z" fill="#000000" fill-rule="nonzero" fill-opacity="1" /><path clip-path="url(#clip970)" d="M2203.12 138.412 L2207.38 138.412 L2212.7 158.643 L2218 138.412 L2223.02 138.412 L2228.35 158.643 L2233.65 138.412 L2237.91 138.412 L2231.13 164.338 L2226.1 164.338 L2220.52 143.088 L2214.92 164.338 L2209.9 164.338 L2203.12 138.412 Z" fill="#000000" fill-rule="nonzero" fill-opacity="1" /><path clip-path="url(#clip970)" d="M2243.7 128.366 L2247.4 128.366 Q2250.87 133.828 2252.58 139.06 Q2254.32 144.291 2254.32 149.453 Q2254.32 154.639 2252.58 159.893 Q2250.87 165.148 2247.4 170.588 L2243.7 170.588 Q2246.77 165.287 2248.28 160.055 Q2249.81 154.801 2249.81 149.453 Q2249.81 144.106 2248.28 138.898 Q2246.77 133.69 2243.7 128.366 Z" fill="#000000" fill-rule="nonzero" fill-opacity="1" /></svg>
