<?xml version="1.0" encoding="utf-8"?>
<svg xmlns="http://www.w3.org/2000/svg" xmlns:xlink="http://www.w3.org/1999/xlink" width="600" height="400" viewBox="0 0 2400 1600">
<defs>
  <clipPath id="clip480">
    <rect x="0" y="0" width="2400" height="1600"/>
  </clipPath>
</defs>
<path clip-path="url(#clip480)" d="M0 1600 L2400 1600 L2400 0 L0 0  Z" fill="#ffffff" fill-rule="evenodd" fill-opacity="1"/>
<defs>
  <clipPath id="clip481">
    <rect x="480" y="0" width="1681" height="1600"/>
  </clipPath>
</defs>
<path clip-path="url(#clip480)" d="M172.015 1486.45 L2352.76 1486.45 L2352.76 47.2441 L172.015 47.2441  Z" fill="#ffffff" fill-rule="evenodd" fill-opacity="1"/>
<defs>
  <clipPath id="clip482">
    <rect x="172" y="47" width="2182" height="1440"/>
  </clipPath>
</defs>
<polyline clip-path="url(#clip482)" style="stroke:#000000; stroke-linecap:round; stroke-linejoin:round; stroke-width:2; stroke-opacity:0.1; fill:none" points="723.26,1486.45 723.26,47.2441 "/>
<polyline clip-path="url(#clip482)" style="stroke:#000000; stroke-linecap:round; stroke-linejoin:round; stroke-width:2; stroke-opacity:0.1; fill:none" points="1801.51,1486.45 1801.51,47.2441 "/>
<polyline clip-path="url(#clip482)" style="stroke:#000000; stroke-linecap:round; stroke-linejoin:round; stroke-width:2; stroke-opacity:0.1; fill:none" points="172.015,1486.45 2352.76,1486.45 "/>
<polyline clip-path="url(#clip482)" style="stroke:#000000; stroke-linecap:round; stroke-linejoin:round; stroke-width:2; stroke-opacity:0.1; fill:none" points="172.015,1278.77 2352.76,1278.77 "/>
<polyline clip-path="url(#clip482)" style="stroke:#000000; stroke-linecap:round; stroke-linejoin:round; stroke-width:2; stroke-opacity:0.1; fill:none" points="172.015,1071.09 2352.76,1071.09 "/>
<polyline clip-path="url(#clip482)" style="stroke:#000000; stroke-linecap:round; stroke-linejoin:round; stroke-width:2; stroke-opacity:0.1; fill:none" points="172.015,863.416 2352.76,863.416 "/>
<polyline clip-path="url(#clip482)" style="stroke:#000000; stroke-linecap:round; stroke-linejoin:round; stroke-width:2; stroke-opacity:0.1; fill:none" points="172.015,655.739 2352.76,655.739 "/>
<polyline clip-path="url(#clip482)" style="stroke:#000000; stroke-linecap:round; stroke-linejoin:round; stroke-width:2; stroke-opacity:0.1; fill:none" points="172.015,448.061 2352.76,448.061 "/>
<polyline clip-path="url(#clip482)" style="stroke:#000000; stroke-linecap:round; stroke-linejoin:round; stroke-width:2; stroke-opacity:0.1; fill:none" points="172.015,240.384 2352.76,240.384 "/>
<polyline clip-path="url(#clip480)" style="stroke:#000000; stroke-linecap:round; stroke-linejoin:round; stroke-width:4; stroke-opacity:1; fill:none" points="172.015,1486.45 2352.76,1486.45 "/>
<polyline clip-path="url(#clip480)" style="stroke:#000000; stroke-linecap:round; stroke-linejoin:round; stroke-width:4; stroke-opacity:1; fill:none" points="723.26,1486.45 723.26,1467.55 "/>
<polyline clip-path="url(#clip480)" style="stroke:#000000; stroke-linecap:round; stroke-linejoin:round; stroke-width:4; stroke-opacity:1; fill:none" points="1801.51,1486.45 1801.51,1467.55 "/>
<path clip-path="url(#clip480)" d="M683.92 1515.56 L683.92 1522.92 L692.693 1522.92 L692.693 1526.23 L683.92 1526.23 L683.92 1540.31 Q683.92 1543.48 684.776 1544.38 Q685.656 1545.28 688.318 1545.28 L692.693 1545.28 L692.693 1548.85 L688.318 1548.85 Q683.387 1548.85 681.512 1547.02 Q679.637 1545.17 679.637 1540.31 L679.637 1526.23 L676.512 1526.23 L676.512 1522.92 L679.637 1522.92 L679.637 1515.56 L683.92 1515.56 Z" fill="#000000" fill-rule="nonzero" fill-opacity="1" /><path clip-path="url(#clip480)" d="M713.318 1526.9 Q712.6 1526.49 711.744 1526.3 Q710.91 1526.09 709.892 1526.09 Q706.281 1526.09 704.336 1528.45 Q702.415 1530.79 702.415 1535.19 L702.415 1548.85 L698.133 1548.85 L698.133 1522.92 L702.415 1522.92 L702.415 1526.95 Q703.758 1524.59 705.91 1523.45 Q708.063 1522.3 711.142 1522.3 Q711.582 1522.3 712.114 1522.37 Q712.646 1522.41 713.295 1522.53 L713.318 1526.9 Z" fill="#000000" fill-rule="nonzero" fill-opacity="1" /><path clip-path="url(#clip480)" d="M717.346 1538.62 L717.346 1522.92 L721.605 1522.92 L721.605 1538.45 Q721.605 1542.13 723.04 1543.99 Q724.475 1545.82 727.345 1545.82 Q730.795 1545.82 732.785 1543.62 Q734.799 1541.42 734.799 1537.62 L734.799 1522.92 L739.058 1522.92 L739.058 1548.85 L734.799 1548.85 L734.799 1544.87 Q733.248 1547.23 731.188 1548.38 Q729.151 1549.52 726.443 1549.52 Q721.975 1549.52 719.66 1546.74 Q717.346 1543.96 717.346 1538.62 M728.063 1522.3 L728.063 1522.3 Z" fill="#000000" fill-rule="nonzero" fill-opacity="1" /><path clip-path="url(#clip480)" d="M770.007 1534.82 L770.007 1536.9 L750.424 1536.9 Q750.702 1541.3 753.063 1543.62 Q755.447 1545.91 759.683 1545.91 Q762.137 1545.91 764.429 1545.31 Q766.743 1544.7 769.012 1543.5 L769.012 1547.53 Q766.72 1548.5 764.313 1549.01 Q761.905 1549.52 759.429 1549.52 Q753.225 1549.52 749.591 1545.91 Q745.98 1542.3 745.98 1536.14 Q745.98 1529.77 749.406 1526.05 Q752.855 1522.3 758.688 1522.3 Q763.919 1522.3 766.952 1525.68 Q770.007 1529.03 770.007 1534.82 M765.748 1533.57 Q765.702 1530.07 763.78 1527.99 Q761.882 1525.91 758.734 1525.91 Q755.169 1525.91 753.017 1527.92 Q750.887 1529.94 750.563 1533.59 L765.748 1533.57 Z" fill="#000000" fill-rule="nonzero" fill-opacity="1" /><path clip-path="url(#clip480)" d="M1763.43 1512.83 L1763.43 1516.37 L1759.36 1516.37 Q1757.07 1516.37 1756.16 1517.3 Q1755.28 1518.22 1755.28 1520.63 L1755.28 1522.92 L1762.3 1522.92 L1762.3 1526.23 L1755.28 1526.23 L1755.28 1548.85 L1751 1548.85 L1751 1526.23 L1746.93 1526.23 L1746.93 1522.92 L1751 1522.92 L1751 1521.12 Q1751 1516.79 1753.02 1514.82 Q1755.03 1512.83 1759.4 1512.83 L1763.43 1512.83 Z" fill="#000000" fill-rule="nonzero" fill-opacity="1" /><path clip-path="url(#clip480)" d="M1778.78 1535.82 Q1773.62 1535.82 1771.63 1537 Q1769.64 1538.18 1769.64 1541.02 Q1769.64 1543.29 1771.12 1544.63 Q1772.62 1545.95 1775.19 1545.95 Q1778.73 1545.95 1780.86 1543.45 Q1783.02 1540.93 1783.02 1536.76 L1783.02 1535.82 L1778.78 1535.82 M1787.27 1534.06 L1787.27 1548.85 L1783.02 1548.85 L1783.02 1544.91 Q1781.56 1547.27 1779.38 1548.41 Q1777.21 1549.52 1774.06 1549.52 Q1770.08 1549.52 1767.71 1547.3 Q1765.38 1545.05 1765.38 1541.3 Q1765.38 1536.93 1768.29 1534.7 Q1771.23 1532.48 1777.04 1532.48 L1783.02 1532.48 L1783.02 1532.07 Q1783.02 1529.13 1781.07 1527.53 Q1779.15 1525.91 1775.65 1525.91 Q1773.43 1525.91 1771.33 1526.44 Q1769.22 1526.97 1767.27 1528.04 L1767.27 1524.1 Q1769.61 1523.2 1771.81 1522.76 Q1774.01 1522.3 1776.09 1522.3 Q1781.72 1522.3 1784.5 1525.21 Q1787.27 1528.13 1787.27 1534.06 Z" fill="#000000" fill-rule="nonzero" fill-opacity="1" /><path clip-path="url(#clip480)" d="M1796.05 1512.83 L1800.31 1512.83 L1800.31 1548.85 L1796.05 1548.85 L1796.05 1512.83 Z" fill="#000000" fill-rule="nonzero" fill-opacity="1" /><path clip-path="url(#clip480)" d="M1825.75 1523.69 L1825.75 1527.71 Q1823.94 1526.79 1822 1526.32 Q1820.05 1525.86 1817.97 1525.86 Q1814.8 1525.86 1813.2 1526.83 Q1811.63 1527.81 1811.63 1529.75 Q1811.63 1531.23 1812.76 1532.09 Q1813.9 1532.92 1817.32 1533.69 L1818.78 1534.01 Q1823.32 1534.98 1825.21 1536.76 Q1827.14 1538.52 1827.14 1541.7 Q1827.14 1545.31 1824.27 1547.41 Q1821.42 1549.52 1816.42 1549.52 Q1814.33 1549.52 1812.07 1549.1 Q1809.82 1548.71 1807.32 1547.9 L1807.32 1543.5 Q1809.68 1544.73 1811.97 1545.35 Q1814.27 1545.95 1816.51 1545.95 Q1819.52 1545.95 1821.14 1544.94 Q1822.76 1543.89 1822.76 1542.02 Q1822.76 1540.28 1821.58 1539.36 Q1820.42 1538.43 1816.46 1537.57 L1814.98 1537.23 Q1811.02 1536.39 1809.27 1534.68 Q1807.51 1532.95 1807.51 1529.94 Q1807.51 1526.28 1810.1 1524.29 Q1812.69 1522.3 1817.46 1522.3 Q1819.82 1522.3 1821.9 1522.64 Q1823.99 1522.99 1825.75 1523.69 Z" fill="#000000" fill-rule="nonzero" fill-opacity="1" /><path clip-path="url(#clip480)" d="M1856.09 1534.82 L1856.09 1536.9 L1836.51 1536.9 Q1836.79 1541.3 1839.15 1543.62 Q1841.53 1545.91 1845.77 1545.91 Q1848.22 1545.91 1850.52 1545.31 Q1852.83 1544.7 1855.1 1543.5 L1855.1 1547.53 Q1852.81 1548.5 1850.4 1549.01 Q1847.99 1549.52 1845.52 1549.52 Q1839.31 1549.52 1835.68 1545.91 Q1832.07 1542.3 1832.07 1536.14 Q1832.07 1529.77 1835.49 1526.05 Q1838.94 1522.3 1844.77 1522.3 Q1850.01 1522.3 1853.04 1525.68 Q1856.09 1529.03 1856.09 1534.82 M1851.83 1533.57 Q1851.79 1530.07 1849.87 1527.99 Q1847.97 1525.91 1844.82 1525.91 Q1841.26 1525.91 1839.1 1527.92 Q1836.97 1529.94 1836.65 1533.59 L1851.83 1533.57 Z" fill="#000000" fill-rule="nonzero" fill-opacity="1" /><polyline clip-path="url(#clip480)" style="stroke:#000000; stroke-linecap:round; stroke-linejoin:round; stroke-width:4; stroke-opacity:1; fill:none" points="172.015,1486.45 172.015,47.2441 "/>
<polyline clip-path="url(#clip480)" style="stroke:#000000; stroke-linecap:round; stroke-linejoin:round; stroke-width:4; stroke-opacity:1; fill:none" points="172.015,1486.45 190.912,1486.45 "/>
<polyline clip-path="url(#clip480)" style="stroke:#000000; stroke-linecap:round; stroke-linejoin:round; stroke-width:4; stroke-opacity:1; fill:none" points="172.015,1278.77 190.912,1278.77 "/>
<polyline clip-path="url(#clip480)" style="stroke:#000000; stroke-linecap:round; stroke-linejoin:round; stroke-width:4; stroke-opacity:1; fill:none" points="172.015,1071.09 190.912,1071.09 "/>
<polyline clip-path="url(#clip480)" style="stroke:#000000; stroke-linecap:round; stroke-linejoin:round; stroke-width:4; stroke-opacity:1; fill:none" points="172.015,863.416 190.912,863.416 "/>
<polyline clip-path="url(#clip480)" style="stroke:#000000; stroke-linecap:round; stroke-linejoin:round; stroke-width:4; stroke-opacity:1; fill:none" points="172.015,655.739 190.912,655.739 "/>
<polyline clip-path="url(#clip480)" style="stroke:#000000; stroke-linecap:round; stroke-linejoin:round; stroke-width:4; stroke-opacity:1; fill:none" points="172.015,448.061 190.912,448.061 "/>
<polyline clip-path="url(#clip480)" style="stroke:#000000; stroke-linecap:round; stroke-linejoin:round; stroke-width:4; stroke-opacity:1; fill:none" points="172.015,240.384 190.912,240.384 "/>
<path clip-path="url(#clip480)" d="M124.07 1472.25 Q120.459 1472.25 118.631 1475.81 Q116.825 1479.35 116.825 1486.48 Q116.825 1493.59 118.631 1497.15 Q120.459 1500.7 124.07 1500.7 Q127.705 1500.7 129.51 1497.15 Q131.339 1493.59 131.339 1486.48 Q131.339 1479.35 129.51 1475.81 Q127.705 1472.25 124.07 1472.25 M124.07 1468.54 Q129.881 1468.54 132.936 1473.15 Q136.015 1477.73 136.015 1486.48 Q136.015 1495.21 132.936 1499.82 Q129.881 1504.4 124.07 1504.4 Q118.26 1504.4 115.182 1499.82 Q112.126 1495.21 112.126 1486.48 Q112.126 1477.73 115.182 1473.15 Q118.26 1468.54 124.07 1468.54 Z" fill="#000000" fill-rule="nonzero" fill-opacity="1" /><path clip-path="url(#clip480)" d="M54.5569 1292.12 L62.1958 1292.12 L62.1958 1265.75 L53.8856 1267.42 L53.8856 1263.16 L62.1495 1261.49 L66.8254 1261.49 L66.8254 1292.12 L74.4642 1292.12 L74.4642 1296.05 L54.5569 1296.05 L54.5569 1292.12 Z" fill="#000000" fill-rule="nonzero" fill-opacity="1" /><path clip-path="url(#clip480)" d="M93.9086 1264.57 Q90.2975 1264.57 88.4688 1268.13 Q86.6632 1271.68 86.6632 1278.81 Q86.6632 1285.91 88.4688 1289.48 Q90.2975 1293.02 93.9086 1293.02 Q97.5428 1293.02 99.3483 1289.48 Q101.177 1285.91 101.177 1278.81 Q101.177 1271.68 99.3483 1268.13 Q97.5428 1264.57 93.9086 1264.57 M93.9086 1260.87 Q99.7187 1260.87 102.774 1265.47 Q105.853 1270.06 105.853 1278.81 Q105.853 1287.53 102.774 1292.14 Q99.7187 1296.72 93.9086 1296.72 Q88.0984 1296.72 85.0197 1292.14 Q81.9642 1287.53 81.9642 1278.81 Q81.9642 1270.06 85.0197 1265.47 Q88.0984 1260.87 93.9086 1260.87 Z" fill="#000000" fill-rule="nonzero" fill-opacity="1" /><path clip-path="url(#clip480)" d="M124.07 1264.57 Q120.459 1264.57 118.631 1268.13 Q116.825 1271.68 116.825 1278.81 Q116.825 1285.91 118.631 1289.48 Q120.459 1293.02 124.07 1293.02 Q127.705 1293.02 129.51 1289.48 Q131.339 1285.91 131.339 1278.81 Q131.339 1271.68 129.51 1268.13 Q127.705 1264.57 124.07 1264.57 M124.07 1260.87 Q129.881 1260.87 132.936 1265.47 Q136.015 1270.06 136.015 1278.81 Q136.015 1287.53 132.936 1292.14 Q129.881 1296.72 124.07 1296.72 Q118.26 1296.72 115.182 1292.14 Q112.126 1287.53 112.126 1278.81 Q112.126 1270.06 115.182 1265.47 Q118.26 1260.87 124.07 1260.87 Z" fill="#000000" fill-rule="nonzero" fill-opacity="1" /><path clip-path="url(#clip480)" d="M57.7745 1084.44 L74.0939 1084.44 L74.0939 1088.37 L52.1495 1088.37 L52.1495 1084.44 Q54.8115 1081.68 59.3949 1077.05 Q64.0013 1072.4 65.1819 1071.06 Q67.4272 1068.54 68.3068 1066.8 Q69.2096 1065.04 69.2096 1063.35 Q69.2096 1060.6 67.2652 1058.86 Q65.3439 1057.12 62.2421 1057.12 Q60.043 1057.12 57.5893 1057.89 Q55.1588 1058.65 52.381 1060.2 L52.381 1055.48 Q55.2051 1054.35 57.6588 1053.77 Q60.1124 1053.19 62.1495 1053.19 Q67.5198 1053.19 70.7142 1055.87 Q73.9087 1058.56 73.9087 1063.05 Q73.9087 1065.18 73.0985 1067.1 Q72.3115 1069 70.205 1071.59 Q69.6263 1072.26 66.5245 1075.48 Q63.4226 1078.67 57.7745 1084.44 Z" fill="#000000" fill-rule="nonzero" fill-opacity="1" /><path clip-path="url(#clip480)" d="M93.9086 1056.89 Q90.2975 1056.89 88.4688 1060.46 Q86.6632 1064 86.6632 1071.13 Q86.6632 1078.23 88.4688 1081.8 Q90.2975 1085.34 93.9086 1085.34 Q97.5428 1085.34 99.3483 1081.8 Q101.177 1078.23 101.177 1071.13 Q101.177 1064 99.3483 1060.46 Q97.5428 1056.89 93.9086 1056.89 M93.9086 1053.19 Q99.7187 1053.19 102.774 1057.79 Q105.853 1062.38 105.853 1071.13 Q105.853 1079.85 102.774 1084.46 Q99.7187 1089.04 93.9086 1089.04 Q88.0984 1089.04 85.0197 1084.46 Q81.9642 1079.85 81.9642 1071.13 Q81.9642 1062.38 85.0197 1057.79 Q88.0984 1053.19 93.9086 1053.19 Z" fill="#000000" fill-rule="nonzero" fill-opacity="1" /><path clip-path="url(#clip480)" d="M124.07 1056.89 Q120.459 1056.89 118.631 1060.46 Q116.825 1064 116.825 1071.13 Q116.825 1078.23 118.631 1081.8 Q120.459 1085.34 124.07 1085.34 Q127.705 1085.34 129.51 1081.8 Q131.339 1078.23 131.339 1071.13 Q131.339 1064 129.51 1060.46 Q127.705 1056.89 124.07 1056.89 M124.07 1053.19 Q129.881 1053.19 132.936 1057.79 Q136.015 1062.38 136.015 1071.13 Q136.015 1079.85 132.936 1084.46 Q129.881 1089.04 124.07 1089.04 Q118.26 1089.04 115.182 1084.46 Q112.126 1079.85 112.126 1071.13 Q112.126 1062.38 115.182 1057.79 Q118.26 1053.19 124.07 1053.19 Z" fill="#000000" fill-rule="nonzero" fill-opacity="1" /><path clip-path="url(#clip480)" d="M67.9133 862.062 Q71.2698 862.779 73.1448 865.048 Q75.0429 867.316 75.0429 870.65 Q75.0429 875.765 71.5244 878.566 Q68.0059 881.367 61.5245 881.367 Q59.3486 881.367 57.0338 880.927 Q54.7421 880.511 52.2884 879.654 L52.2884 875.14 Q54.2328 876.275 56.5477 876.853 Q58.8625 877.432 61.3856 877.432 Q65.7837 877.432 68.0754 875.696 Q70.3902 873.96 70.3902 870.65 Q70.3902 867.594 68.2374 865.881 Q66.1078 864.145 62.2884 864.145 L58.2606 864.145 L58.2606 860.303 L62.4735 860.303 Q65.9226 860.303 67.7513 858.937 Q69.58 857.548 69.58 854.955 Q69.58 852.293 67.6819 850.881 Q65.8069 849.446 62.2884 849.446 Q60.3671 849.446 58.168 849.863 Q55.969 850.279 53.3301 851.159 L53.3301 846.992 Q55.9921 846.252 58.3069 845.881 Q60.6449 845.511 62.705 845.511 Q68.0291 845.511 71.1309 847.941 Q74.2327 850.349 74.2327 854.469 Q74.2327 857.34 72.5892 859.33 Q70.9457 861.298 67.9133 862.062 Z" fill="#000000" fill-rule="nonzero" fill-opacity="1" /><path clip-path="url(#clip480)" d="M93.9086 849.215 Q90.2975 849.215 88.4688 852.779 Q86.6632 856.321 86.6632 863.451 Q86.6632 870.557 88.4688 874.122 Q90.2975 877.664 93.9086 877.664 Q97.5428 877.664 99.3483 874.122 Q101.177 870.557 101.177 863.451 Q101.177 856.321 99.3483 852.779 Q97.5428 849.215 93.9086 849.215 M93.9086 845.511 Q99.7187 845.511 102.774 850.117 Q105.853 854.701 105.853 863.451 Q105.853 872.177 102.774 876.784 Q99.7187 881.367 93.9086 881.367 Q88.0984 881.367 85.0197 876.784 Q81.9642 872.177 81.9642 863.451 Q81.9642 854.701 85.0197 850.117 Q88.0984 845.511 93.9086 845.511 Z" fill="#000000" fill-rule="nonzero" fill-opacity="1" /><path clip-path="url(#clip480)" d="M124.07 849.215 Q120.459 849.215 118.631 852.779 Q116.825 856.321 116.825 863.451 Q116.825 870.557 118.631 874.122 Q120.459 877.664 124.07 877.664 Q127.705 877.664 129.51 874.122 Q131.339 870.557 131.339 863.451 Q131.339 856.321 129.51 852.779 Q127.705 849.215 124.07 849.215 M124.07 845.511 Q129.881 845.511 132.936 850.117 Q136.015 854.701 136.015 863.451 Q136.015 872.177 132.936 876.784 Q129.881 881.367 124.07 881.367 Q118.26 881.367 115.182 876.784 Q112.126 872.177 112.126 863.451 Q112.126 854.701 115.182 850.117 Q118.26 845.511 124.07 845.511 Z" fill="#000000" fill-rule="nonzero" fill-opacity="1" /><path clip-path="url(#clip480)" d="M66.5939 642.533 L54.7884 660.982 L66.5939 660.982 L66.5939 642.533 M65.367 638.459 L71.2466 638.459 L71.2466 660.982 L76.1772 660.982 L76.1772 664.871 L71.2466 664.871 L71.2466 673.019 L66.5939 673.019 L66.5939 664.871 L50.9921 664.871 L50.9921 660.357 L65.367 638.459 Z" fill="#000000" fill-rule="nonzero" fill-opacity="1" /><path clip-path="url(#clip480)" d="M93.9086 641.537 Q90.2975 641.537 88.4688 645.102 Q86.6632 648.644 86.6632 655.773 Q86.6632 662.88 88.4688 666.445 Q90.2975 669.986 93.9086 669.986 Q97.5428 669.986 99.3483 666.445 Q101.177 662.88 101.177 655.773 Q101.177 648.644 99.3483 645.102 Q97.5428 641.537 93.9086 641.537 M93.9086 637.834 Q99.7187 637.834 102.774 642.44 Q105.853 647.023 105.853 655.773 Q105.853 664.5 102.774 669.107 Q99.7187 673.69 93.9086 673.69 Q88.0984 673.69 85.0197 669.107 Q81.9642 664.5 81.9642 655.773 Q81.9642 647.023 85.0197 642.44 Q88.0984 637.834 93.9086 637.834 Z" fill="#000000" fill-rule="nonzero" fill-opacity="1" /><path clip-path="url(#clip480)" d="M124.07 641.537 Q120.459 641.537 118.631 645.102 Q116.825 648.644 116.825 655.773 Q116.825 662.88 118.631 666.445 Q120.459 669.986 124.07 669.986 Q127.705 669.986 129.51 666.445 Q131.339 662.88 131.339 655.773 Q131.339 648.644 129.51 645.102 Q127.705 641.537 124.07 641.537 M124.07 637.834 Q129.881 637.834 132.936 642.44 Q136.015 647.023 136.015 655.773 Q136.015 664.5 132.936 669.107 Q129.881 673.69 124.07 673.69 Q118.26 673.69 115.182 669.107 Q112.126 664.5 112.126 655.773 Q112.126 647.023 115.182 642.44 Q118.26 637.834 124.07 637.834 Z" fill="#000000" fill-rule="nonzero" fill-opacity="1" /><path clip-path="url(#clip480)" d="M53.793 430.781 L72.1494 430.781 L72.1494 434.716 L58.0754 434.716 L58.0754 443.189 Q59.0939 442.841 60.1124 442.679 Q61.131 442.494 62.1495 442.494 Q67.9365 442.494 71.3161 445.665 Q74.6957 448.837 74.6957 454.253 Q74.6957 459.832 71.2235 462.934 Q67.7513 466.013 61.4319 466.013 Q59.256 466.013 56.9875 465.642 Q54.7421 465.272 52.3347 464.531 L52.3347 459.832 Q54.418 460.966 56.6402 461.522 Q58.8625 462.077 61.3393 462.077 Q65.3439 462.077 67.6819 459.971 Q70.0198 457.864 70.0198 454.253 Q70.0198 450.642 67.6819 448.536 Q65.3439 446.429 61.3393 446.429 Q59.4643 446.429 57.5893 446.846 Q55.7375 447.263 53.793 448.142 L53.793 430.781 Z" fill="#000000" fill-rule="nonzero" fill-opacity="1" /><path clip-path="url(#clip480)" d="M93.9086 433.86 Q90.2975 433.86 88.4688 437.425 Q86.6632 440.966 86.6632 448.096 Q86.6632 455.202 88.4688 458.767 Q90.2975 462.309 93.9086 462.309 Q97.5428 462.309 99.3483 458.767 Q101.177 455.202 101.177 448.096 Q101.177 440.966 99.3483 437.425 Q97.5428 433.86 93.9086 433.86 M93.9086 430.156 Q99.7187 430.156 102.774 434.763 Q105.853 439.346 105.853 448.096 Q105.853 456.823 102.774 461.429 Q99.7187 466.013 93.9086 466.013 Q88.0984 466.013 85.0197 461.429 Q81.9642 456.823 81.9642 448.096 Q81.9642 439.346 85.0197 434.763 Q88.0984 430.156 93.9086 430.156 Z" fill="#000000" fill-rule="nonzero" fill-opacity="1" /><path clip-path="url(#clip480)" d="M124.07 433.86 Q120.459 433.86 118.631 437.425 Q116.825 440.966 116.825 448.096 Q116.825 455.202 118.631 458.767 Q120.459 462.309 124.07 462.309 Q127.705 462.309 129.51 458.767 Q131.339 455.202 131.339 448.096 Q131.339 440.966 129.51 437.425 Q127.705 433.86 124.07 433.86 M124.07 430.156 Q129.881 430.156 132.936 434.763 Q136.015 439.346 136.015 448.096 Q136.015 456.823 132.936 461.429 Q129.881 466.013 124.07 466.013 Q118.26 466.013 115.182 461.429 Q112.126 456.823 112.126 448.096 Q112.126 439.346 115.182 434.763 Q118.26 430.156 124.07 430.156 Z" fill="#000000" fill-rule="nonzero" fill-opacity="1" /><path clip-path="url(#clip480)" d="M64.3254 238.521 Q61.1773 238.521 59.3254 240.673 Q57.4967 242.826 57.4967 246.576 Q57.4967 250.303 59.3254 252.479 Q61.1773 254.632 64.3254 254.632 Q67.4735 254.632 69.3022 252.479 Q71.1541 250.303 71.1541 246.576 Q71.1541 242.826 69.3022 240.673 Q67.4735 238.521 64.3254 238.521 M73.6077 223.868 L73.6077 228.127 Q71.8485 227.294 70.0429 226.854 Q68.2606 226.414 66.5013 226.414 Q61.8717 226.414 59.418 229.539 Q56.9875 232.664 56.6402 238.984 Q58.006 236.97 60.0662 235.905 Q62.1263 234.817 64.6032 234.817 Q69.8115 234.817 72.8207 237.988 Q75.8531 241.136 75.8531 246.576 Q75.8531 251.9 72.705 255.118 Q69.5568 258.335 64.3254 258.335 Q58.33 258.335 55.1588 253.752 Q51.9875 249.146 51.9875 240.419 Q51.9875 232.224 55.8764 227.363 Q59.7652 222.479 66.3161 222.479 Q68.0754 222.479 69.8578 222.826 Q71.6633 223.173 73.6077 223.868 Z" fill="#000000" fill-rule="nonzero" fill-opacity="1" /><path clip-path="url(#clip480)" d="M93.9086 226.183 Q90.2975 226.183 88.4688 229.747 Q86.6632 233.289 86.6632 240.419 Q86.6632 247.525 88.4688 251.09 Q90.2975 254.632 93.9086 254.632 Q97.5428 254.632 99.3483 251.09 Q101.177 247.525 101.177 240.419 Q101.177 233.289 99.3483 229.747 Q97.5428 226.183 93.9086 226.183 M93.9086 222.479 Q99.7187 222.479 102.774 227.085 Q105.853 231.669 105.853 240.419 Q105.853 249.146 102.774 253.752 Q99.7187 258.335 93.9086 258.335 Q88.0984 258.335 85.0197 253.752 Q81.9642 249.146 81.9642 240.419 Q81.9642 231.669 85.0197 227.085 Q88.0984 222.479 93.9086 222.479 Z" fill="#000000" fill-rule="nonzero" fill-opacity="1" /><path clip-path="url(#clip480)" d="M124.07 226.183 Q120.459 226.183 118.631 229.747 Q116.825 233.289 116.825 240.419 Q116.825 247.525 118.631 251.09 Q120.459 254.632 124.07 254.632 Q127.705 254.632 129.51 251.09 Q131.339 247.525 131.339 240.419 Q131.339 233.289 129.51 229.747 Q127.705 226.183 124.07 226.183 M124.07 222.479 Q129.881 222.479 132.936 227.085 Q136.015 231.669 136.015 240.419 Q136.015 249.146 132.936 253.752 Q129.881 258.335 124.07 258.335 Q118.26 258.335 115.182 253.752 Q112.126 249.146 112.126 240.419 Q112.126 231.669 115.182 227.085 Q118.26 222.479 124.07 222.479 Z" fill="#000000" fill-rule="nonzero" fill-opacity="1" /><path clip-path="url(#clip482)" d="M291.959 848.879 L291.959 1486.45 L1154.56 1486.45 L1154.56 848.879 L291.959 848.879 L291.959 848.879  Z" fill="#009af9" fill-rule="evenodd" fill-opacity="1"/>
<polyline clip-path="url(#clip482)" style="stroke:#000000; stroke-linecap:round; stroke-linejoin:round; stroke-width:4; stroke-opacity:1; fill:none" points="291.959,848.879 291.959,1486.45 1154.56,1486.45 1154.56,848.879 291.959,848.879 "/>
<path clip-path="url(#clip482)" d="M1370.21 47.2441 L1370.21 1486.45 L2232.81 1486.45 L2232.81 47.2441 L1370.21 47.2441 L1370.21 47.2441  Z" fill="#009af9" fill-rule="evenodd" fill-opacity="1"/>
<polyline clip-path="url(#clip482)" style="stroke:#000000; stroke-linecap:round; stroke-linejoin:round; stroke-width:4; stroke-opacity:1; fill:none" points="1370.21,47.2441 1370.21,1486.45 2232.81,1486.45 2232.81,47.2441 1370.21,47.2441 "/>
<circle clip-path="url(#clip482)" style="fill:#009af9; stroke:none; fill-opacity:0" cx="723.26" cy="848.879" r="2"/>
<circle clip-path="url(#clip482)" style="fill:#009af9; stroke:none; fill-opacity:0" cx="1801.51" cy="47.2441" r="2"/>
<path clip-path="url(#clip480)" d="M244.706 198.898 L638.265 198.898 L638.265 95.2176 L244.706 95.2176  Z" fill="#ffffff" fill-rule="evenodd" fill-opacity="1"/>
<polyline clip-path="url(#clip480)" style="stroke:#000000; stroke-linecap:round; stroke-linejoin:round; stroke-width:4; stroke-opacity:1; fill:none" points="244.706,198.898 638.265,198.898 638.265,95.2176 244.706,95.2176 244.706,198.898 "/>
<path clip-path="url(#clip480)" d="M268.937 167.794 L414.319 167.794 L414.319 126.322 L268.937 126.322 L268.937 167.794  Z" fill="#009af9" fill-rule="evenodd" fill-opacity="1"/>
<polyline clip-path="url(#clip480)" style="stroke:#000000; stroke-linecap:round; stroke-linejoin:round; stroke-width:4; stroke-opacity:1; fill:none" points="268.937,167.794 414.319,167.794 414.319,126.322 268.937,126.322 268.937,167.794 "/>
<path clip-path="url(#clip480)" d="M457.462 142.347 L457.462 128.319 L461.721 128.319 L461.721 164.338 L457.462 164.338 L457.462 160.449 Q456.119 162.763 454.059 163.898 Q452.022 165.009 449.152 165.009 Q444.453 165.009 441.49 161.259 Q438.55 157.509 438.55 151.398 Q438.55 145.287 441.49 141.537 Q444.453 137.787 449.152 137.787 Q452.022 137.787 454.059 138.921 Q456.119 140.032 457.462 142.347 M442.948 151.398 Q442.948 156.097 444.869 158.782 Q446.814 161.444 450.193 161.444 Q453.573 161.444 455.517 158.782 Q457.462 156.097 457.462 151.398 Q457.462 146.699 455.517 144.037 Q453.573 141.352 450.193 141.352 Q446.814 141.352 444.869 144.037 Q442.948 146.699 442.948 151.398 Z" fill="#000000" fill-rule="nonzero" fill-opacity="1" /><path clip-path="url(#clip480)" d="M482.276 151.305 Q477.114 151.305 475.124 152.486 Q473.133 153.666 473.133 156.514 Q473.133 158.782 474.614 160.125 Q476.119 161.444 478.689 161.444 Q482.23 161.444 484.36 158.944 Q486.513 156.421 486.513 152.254 L486.513 151.305 L482.276 151.305 M490.772 149.546 L490.772 164.338 L486.513 164.338 L486.513 160.402 Q485.054 162.763 482.878 163.898 Q480.702 165.009 477.554 165.009 Q473.573 165.009 471.212 162.787 Q468.874 160.541 468.874 156.791 Q468.874 152.416 471.79 150.194 Q474.73 147.972 480.54 147.972 L486.513 147.972 L486.513 147.555 Q486.513 144.615 484.568 143.018 Q482.647 141.398 479.151 141.398 Q476.929 141.398 474.823 141.93 Q472.716 142.463 470.772 143.527 L470.772 139.592 Q473.11 138.69 475.309 138.25 Q477.508 137.787 479.591 137.787 Q485.216 137.787 487.994 140.703 Q490.772 143.62 490.772 149.546 Z" fill="#000000" fill-rule="nonzero" fill-opacity="1" /><path clip-path="url(#clip480)" d="M503.758 131.051 L503.758 138.412 L512.531 138.412 L512.531 141.722 L503.758 141.722 L503.758 155.796 Q503.758 158.967 504.614 159.87 Q505.494 160.773 508.156 160.773 L512.531 160.773 L512.531 164.338 L508.156 164.338 Q503.225 164.338 501.35 162.509 Q499.475 160.657 499.475 155.796 L499.475 141.722 L496.35 141.722 L496.35 138.412 L499.475 138.412 L499.475 131.051 L503.758 131.051 Z" fill="#000000" fill-rule="nonzero" fill-opacity="1" /><path clip-path="url(#clip480)" d="M529.915 151.305 Q524.753 151.305 522.762 152.486 Q520.772 153.666 520.772 156.514 Q520.772 158.782 522.253 160.125 Q523.758 161.444 526.327 161.444 Q529.869 161.444 531.998 158.944 Q534.151 156.421 534.151 152.254 L534.151 151.305 L529.915 151.305 M538.41 149.546 L538.41 164.338 L534.151 164.338 L534.151 160.402 Q532.693 162.763 530.517 163.898 Q528.341 165.009 525.193 165.009 Q521.211 165.009 518.85 162.787 Q516.512 160.541 516.512 156.791 Q516.512 152.416 519.429 150.194 Q522.369 147.972 528.179 147.972 L534.151 147.972 L534.151 147.555 Q534.151 144.615 532.207 143.018 Q530.285 141.398 526.79 141.398 Q524.568 141.398 522.461 141.93 Q520.355 142.463 518.411 143.527 L518.411 139.592 Q520.748 138.69 522.948 138.25 Q525.147 137.787 527.23 137.787 Q532.855 137.787 535.633 140.703 Q538.41 143.62 538.41 149.546 Z" fill="#000000" fill-rule="nonzero" fill-opacity="1" /><path clip-path="url(#clip480)" d="M563.711 139.176 L563.711 143.203 Q561.906 142.277 559.961 141.815 Q558.017 141.352 555.933 141.352 Q552.762 141.352 551.165 142.324 Q549.591 143.296 549.591 145.24 Q549.591 146.722 550.725 147.578 Q551.859 148.412 555.285 149.176 L556.744 149.5 Q561.281 150.472 563.179 152.254 Q565.1 154.014 565.1 157.185 Q565.1 160.796 562.23 162.902 Q559.383 165.009 554.383 165.009 Q552.299 165.009 550.031 164.592 Q547.785 164.199 545.285 163.388 L545.285 158.99 Q547.646 160.217 549.938 160.842 Q552.23 161.444 554.475 161.444 Q557.484 161.444 559.105 160.426 Q560.725 159.384 560.725 157.509 Q560.725 155.773 559.545 154.847 Q558.387 153.921 554.429 153.064 L552.947 152.717 Q548.989 151.884 547.23 150.171 Q545.471 148.435 545.471 145.426 Q545.471 141.768 548.063 139.778 Q550.656 137.787 555.424 137.787 Q557.785 137.787 559.869 138.134 Q561.952 138.481 563.711 139.176 Z" fill="#000000" fill-rule="nonzero" fill-opacity="1" /><path clip-path="url(#clip480)" d="M594.058 150.31 L594.058 152.393 L574.475 152.393 Q574.753 156.791 577.114 159.106 Q579.498 161.398 583.734 161.398 Q586.188 161.398 588.48 160.796 Q590.794 160.194 593.063 158.99 L593.063 163.018 Q590.771 163.99 588.364 164.5 Q585.956 165.009 583.48 165.009 Q577.276 165.009 573.642 161.398 Q570.031 157.787 570.031 151.629 Q570.031 145.264 573.457 141.537 Q576.906 137.787 582.739 137.787 Q587.97 137.787 591.003 141.166 Q594.058 144.523 594.058 150.31 M589.799 149.06 Q589.753 145.565 587.831 143.481 Q585.933 141.398 582.785 141.398 Q579.22 141.398 577.068 143.412 Q574.938 145.426 574.614 149.083 L589.799 149.06 Z" fill="#000000" fill-rule="nonzero" fill-opacity="1" /><path clip-path="url(#clip480)" d="M605.262 131.051 L605.262 138.412 L614.035 138.412 L614.035 141.722 L605.262 141.722 L605.262 155.796 Q605.262 158.967 606.118 159.87 Q606.998 160.773 609.66 160.773 L614.035 160.773 L614.035 164.338 L609.66 164.338 Q604.73 164.338 602.855 162.509 Q600.98 160.657 600.98 155.796 L600.98 141.722 L597.855 141.722 L597.855 138.412 L600.98 138.412 L600.98 131.051 L605.262 131.051 Z" fill="#000000" fill-rule="nonzero" fill-opacity="1" /></svg>
