<?xml version="1.0" encoding="utf-8"?>
<svg xmlns="http://www.w3.org/2000/svg" xmlns:xlink="http://www.w3.org/1999/xlink" width="600" height="400" viewBox="0 0 2400 1600">
<defs>
  <clipPath id="clip460">
    <rect x="0" y="0" width="2400" height="1600"/>
  </clipPath>
</defs>
<path clip-path="url(#clip460)" d="M0 1600 L2400 1600 L2400 0 L0 0  Z" fill="#ffffff" fill-rule="evenodd" fill-opacity="1"/>
<defs>
  <clipPath id="clip461">
    <rect x="480" y="0" width="1681" height="1600"/>
  </clipPath>
</defs>
<path clip-path="url(#clip460)" d="M156.112 1486.45 L2352.76 1486.45 L2352.76 47.2441 L156.112 47.2441  Z" fill="#ffffff" fill-rule="evenodd" fill-opacity="1"/>
<defs>
  <clipPath id="clip462">
    <rect x="156" y="47" width="2198" height="1440"/>
  </clipPath>
</defs>
<polyline clip-path="url(#clip462)" style="stroke:#000000; stroke-linecap:round; stroke-linejoin:round; stroke-width:2; stroke-opacity:0.1; fill:none" points="276.931,1486.45 276.931,47.2441 "/>
<polyline clip-path="url(#clip462)" style="stroke:#000000; stroke-linecap:round; stroke-linejoin:round; stroke-width:2; stroke-opacity:0.1; fill:none" points="765.683,1486.45 765.683,47.2441 "/>
<polyline clip-path="url(#clip462)" style="stroke:#000000; stroke-linecap:round; stroke-linejoin:round; stroke-width:2; stroke-opacity:0.1; fill:none" points="1254.43,1486.45 1254.43,47.2441 "/>
<polyline clip-path="url(#clip462)" style="stroke:#000000; stroke-linecap:round; stroke-linejoin:round; stroke-width:2; stroke-opacity:0.1; fill:none" points="1743.19,1486.45 1743.19,47.2441 "/>
<polyline clip-path="url(#clip462)" style="stroke:#000000; stroke-linecap:round; stroke-linejoin:round; stroke-width:2; stroke-opacity:0.1; fill:none" points="2231.94,1486.45 2231.94,47.2441 "/>
<polyline clip-path="url(#clip460)" style="stroke:#000000; stroke-linecap:round; stroke-linejoin:round; stroke-width:4; stroke-opacity:1; fill:none" points="156.112,1486.45 2352.76,1486.45 "/>
<polyline clip-path="url(#clip460)" style="stroke:#000000; stroke-linecap:round; stroke-linejoin:round; stroke-width:4; stroke-opacity:1; fill:none" points="276.931,1486.45 276.931,1467.55 "/>
<polyline clip-path="url(#clip460)" style="stroke:#000000; stroke-linecap:round; stroke-linejoin:round; stroke-width:4; stroke-opacity:1; fill:none" points="765.683,1486.45 765.683,1467.55 "/>
<polyline clip-path="url(#clip460)" style="stroke:#000000; stroke-linecap:round; stroke-linejoin:round; stroke-width:4; stroke-opacity:1; fill:none" points="1254.43,1486.45 1254.43,1467.55 "/>
<polyline clip-path="url(#clip460)" style="stroke:#000000; stroke-linecap:round; stroke-linejoin:round; stroke-width:4; stroke-opacity:1; fill:none" points="1743.19,1486.45 1743.19,1467.55 "/>
<polyline clip-path="url(#clip460)" style="stroke:#000000; stroke-linecap:round; stroke-linejoin:round; stroke-width:4; stroke-opacity:1; fill:none" points="2231.94,1486.45 2231.94,1467.55 "/>
<path clip-path="url(#clip460)" d="M245.832 1532.02 L275.508 1532.02 L275.508 1535.95 L245.832 1535.95 L245.832 1532.02 Z" fill="#000000" fill-rule="nonzero" fill-opacity="1" /><path clip-path="url(#clip460)" d="M298.448 1518.36 L286.642 1536.81 L298.448 1536.81 L298.448 1518.36 M297.221 1514.29 L303.1 1514.29 L303.1 1536.81 L308.031 1536.81 L308.031 1540.7 L303.1 1540.7 L303.1 1548.85 L298.448 1548.85 L298.448 1540.7 L282.846 1540.7 L282.846 1536.19 L297.221 1514.29 Z" fill="#000000" fill-rule="nonzero" fill-opacity="1" /><path clip-path="url(#clip460)" d="M735.625 1532.02 L765.301 1532.02 L765.301 1535.95 L735.625 1535.95 L735.625 1532.02 Z" fill="#000000" fill-rule="nonzero" fill-opacity="1" /><path clip-path="url(#clip460)" d="M779.421 1544.91 L795.74 1544.91 L795.74 1548.85 L773.796 1548.85 L773.796 1544.91 Q776.458 1542.16 781.041 1537.53 Q785.648 1532.88 786.828 1531.53 Q789.074 1529.01 789.953 1527.27 Q790.856 1525.51 790.856 1523.82 Q790.856 1521.07 788.912 1519.33 Q786.99 1517.6 783.889 1517.6 Q781.69 1517.6 779.236 1518.36 Q776.805 1519.13 774.028 1520.68 L774.028 1515.95 Q776.852 1514.82 779.305 1514.24 Q781.759 1513.66 783.796 1513.66 Q789.166 1513.66 792.361 1516.35 Q795.555 1519.03 795.555 1523.52 Q795.555 1525.65 794.745 1527.57 Q793.958 1529.47 791.852 1532.07 Q791.273 1532.74 788.171 1535.95 Q785.069 1539.15 779.421 1544.91 Z" fill="#000000" fill-rule="nonzero" fill-opacity="1" /><path clip-path="url(#clip460)" d="M1254.43 1517.37 Q1250.82 1517.37 1248.99 1520.93 Q1247.19 1524.47 1247.19 1531.6 Q1247.19 1538.71 1248.99 1542.27 Q1250.82 1545.82 1254.43 1545.82 Q1258.07 1545.82 1259.87 1542.27 Q1261.7 1538.71 1261.7 1531.6 Q1261.7 1524.47 1259.87 1520.93 Q1258.07 1517.37 1254.43 1517.37 M1254.43 1513.66 Q1260.24 1513.66 1263.3 1518.27 Q1266.38 1522.85 1266.38 1531.6 Q1266.38 1540.33 1263.3 1544.94 Q1260.24 1549.52 1254.43 1549.52 Q1248.62 1549.52 1245.55 1544.94 Q1242.49 1540.33 1242.49 1531.6 Q1242.49 1522.85 1245.55 1518.27 Q1248.62 1513.66 1254.43 1513.66 Z" fill="#000000" fill-rule="nonzero" fill-opacity="1" /><path clip-path="url(#clip460)" d="M1737.84 1544.91 L1754.16 1544.91 L1754.16 1548.85 L1732.21 1548.85 L1732.21 1544.91 Q1734.88 1542.16 1739.46 1537.53 Q1744.06 1532.88 1745.25 1531.53 Q1747.49 1529.01 1748.37 1527.27 Q1749.27 1525.51 1749.27 1523.82 Q1749.27 1521.07 1747.33 1519.33 Q1745.41 1517.6 1742.31 1517.6 Q1740.11 1517.6 1737.65 1518.36 Q1735.22 1519.13 1732.44 1520.68 L1732.44 1515.95 Q1735.27 1514.82 1737.72 1514.24 Q1740.18 1513.66 1742.21 1513.66 Q1747.58 1513.66 1750.78 1516.35 Q1753.97 1519.03 1753.97 1523.52 Q1753.97 1525.65 1753.16 1527.57 Q1752.38 1529.47 1750.27 1532.07 Q1749.69 1532.74 1746.59 1535.95 Q1743.49 1539.15 1737.84 1544.91 Z" fill="#000000" fill-rule="nonzero" fill-opacity="1" /><path clip-path="url(#clip460)" d="M2234.95 1518.36 L2223.14 1536.81 L2234.95 1536.81 L2234.95 1518.36 M2233.72 1514.29 L2239.6 1514.29 L2239.6 1536.81 L2244.53 1536.81 L2244.53 1540.7 L2239.6 1540.7 L2239.6 1548.85 L2234.95 1548.85 L2234.95 1540.7 L2219.34 1540.7 L2219.34 1536.19 L2233.72 1514.29 Z" fill="#000000" fill-rule="nonzero" fill-opacity="1" /><polyline clip-path="url(#clip462)" style="stroke:#000000; stroke-linecap:round; stroke-linejoin:round; stroke-width:2; stroke-opacity:0.1; fill:none" points="156.112,1486.45 2352.76,1486.45 "/>
<polyline clip-path="url(#clip462)" style="stroke:#000000; stroke-linecap:round; stroke-linejoin:round; stroke-width:2; stroke-opacity:0.1; fill:none" points="156.112,1052.95 2352.76,1052.95 "/>
<polyline clip-path="url(#clip462)" style="stroke:#000000; stroke-linecap:round; stroke-linejoin:round; stroke-width:2; stroke-opacity:0.1; fill:none" points="156.112,619.458 2352.76,619.458 "/>
<polyline clip-path="url(#clip462)" style="stroke:#000000; stroke-linecap:round; stroke-linejoin:round; stroke-width:2; stroke-opacity:0.1; fill:none" points="156.112,185.963 2352.76,185.963 "/>
<polyline clip-path="url(#clip460)" style="stroke:#000000; stroke-linecap:round; stroke-linejoin:round; stroke-width:4; stroke-opacity:1; fill:none" points="156.112,1486.45 156.112,47.2441 "/>
<polyline clip-path="url(#clip460)" style="stroke:#000000; stroke-linecap:round; stroke-linejoin:round; stroke-width:4; stroke-opacity:1; fill:none" points="156.112,1486.45 175.01,1486.45 "/>
<polyline clip-path="url(#clip460)" style="stroke:#000000; stroke-linecap:round; stroke-linejoin:round; stroke-width:4; stroke-opacity:1; fill:none" points="156.112,1052.95 175.01,1052.95 "/>
<polyline clip-path="url(#clip460)" style="stroke:#000000; stroke-linecap:round; stroke-linejoin:round; stroke-width:4; stroke-opacity:1; fill:none" points="156.112,619.458 175.01,619.458 "/>
<polyline clip-path="url(#clip460)" style="stroke:#000000; stroke-linecap:round; stroke-linejoin:round; stroke-width:4; stroke-opacity:1; fill:none" points="156.112,185.963 175.01,185.963 "/>
<path clip-path="url(#clip460)" d="M62.9365 1472.25 Q59.3254 1472.25 57.4967 1475.81 Q55.6912 1479.35 55.6912 1486.48 Q55.6912 1493.59 57.4967 1497.15 Q59.3254 1500.7 62.9365 1500.7 Q66.5707 1500.7 68.3763 1497.15 Q70.205 1493.59 70.205 1486.48 Q70.205 1479.35 68.3763 1475.81 Q66.5707 1472.25 62.9365 1472.25 M62.9365 1468.54 Q68.7467 1468.54 71.8022 1473.15 Q74.8809 1477.73 74.8809 1486.48 Q74.8809 1495.21 71.8022 1499.82 Q68.7467 1504.4 62.9365 1504.4 Q57.1264 1504.4 54.0477 1499.82 Q50.9921 1495.21 50.9921 1486.48 Q50.9921 1477.73 54.0477 1473.15 Q57.1264 1468.54 62.9365 1468.54 Z" fill="#000000" fill-rule="nonzero" fill-opacity="1" /><path clip-path="url(#clip460)" d="M83.0984 1497.85 L87.9827 1497.85 L87.9827 1503.73 L83.0984 1503.73 L83.0984 1497.85 Z" fill="#000000" fill-rule="nonzero" fill-opacity="1" /><path clip-path="url(#clip460)" d="M108.168 1472.25 Q104.557 1472.25 102.728 1475.81 Q100.922 1479.35 100.922 1486.48 Q100.922 1493.59 102.728 1497.15 Q104.557 1500.7 108.168 1500.7 Q111.802 1500.7 113.608 1497.15 Q115.436 1493.59 115.436 1486.48 Q115.436 1479.35 113.608 1475.81 Q111.802 1472.25 108.168 1472.25 M108.168 1468.54 Q113.978 1468.54 117.033 1473.15 Q120.112 1477.73 120.112 1486.48 Q120.112 1495.21 117.033 1499.82 Q113.978 1504.4 108.168 1504.4 Q102.358 1504.4 99.2789 1499.82 Q96.2234 1495.21 96.2234 1486.48 Q96.2234 1477.73 99.2789 1473.15 Q102.358 1468.54 108.168 1468.54 Z" fill="#000000" fill-rule="nonzero" fill-opacity="1" /><path clip-path="url(#clip460)" d="M64.1634 1038.75 Q60.5523 1038.75 58.7236 1042.32 Q56.918 1045.86 56.918 1052.99 Q56.918 1060.09 58.7236 1063.66 Q60.5523 1067.2 64.1634 1067.2 Q67.7976 1067.2 69.6031 1063.66 Q71.4318 1060.09 71.4318 1052.99 Q71.4318 1045.86 69.6031 1042.32 Q67.7976 1038.75 64.1634 1038.75 M64.1634 1035.05 Q69.9735 1035.05 73.029 1039.65 Q76.1077 1044.24 76.1077 1052.99 Q76.1077 1061.71 73.029 1066.32 Q69.9735 1070.9 64.1634 1070.9 Q58.3532 1070.9 55.2745 1066.32 Q52.219 1061.71 52.219 1052.99 Q52.219 1044.24 55.2745 1039.65 Q58.3532 1035.05 64.1634 1035.05 Z" fill="#000000" fill-rule="nonzero" fill-opacity="1" /><path clip-path="url(#clip460)" d="M84.3253 1064.35 L89.2095 1064.35 L89.2095 1070.23 L84.3253 1070.23 L84.3253 1064.35 Z" fill="#000000" fill-rule="nonzero" fill-opacity="1" /><path clip-path="url(#clip460)" d="M100.205 1066.3 L107.844 1066.3 L107.844 1039.93 L99.5335 1041.6 L99.5335 1037.34 L107.797 1035.67 L112.473 1035.67 L112.473 1066.3 L120.112 1066.3 L120.112 1070.23 L100.205 1070.23 L100.205 1066.3 Z" fill="#000000" fill-rule="nonzero" fill-opacity="1" /><path clip-path="url(#clip460)" d="M64.5337 605.256 Q60.9226 605.256 59.0939 608.821 Q57.2884 612.363 57.2884 619.492 Q57.2884 626.599 59.0939 630.164 Q60.9226 633.705 64.5337 633.705 Q68.168 633.705 69.9735 630.164 Q71.8022 626.599 71.8022 619.492 Q71.8022 612.363 69.9735 608.821 Q68.168 605.256 64.5337 605.256 M64.5337 601.553 Q70.3439 601.553 73.3994 606.159 Q76.4781 610.742 76.4781 619.492 Q76.4781 628.219 73.3994 632.826 Q70.3439 637.409 64.5337 637.409 Q58.7236 637.409 55.6449 632.826 Q52.5893 628.219 52.5893 619.492 Q52.5893 610.742 55.6449 606.159 Q58.7236 601.553 64.5337 601.553 Z" fill="#000000" fill-rule="nonzero" fill-opacity="1" /><path clip-path="url(#clip460)" d="M84.6956 630.858 L89.5799 630.858 L89.5799 636.738 L84.6956 636.738 L84.6956 630.858 Z" fill="#000000" fill-rule="nonzero" fill-opacity="1" /><path clip-path="url(#clip460)" d="M103.793 632.802 L120.112 632.802 L120.112 636.738 L98.1678 636.738 L98.1678 632.802 Q100.83 630.048 105.413 625.418 Q110.02 620.766 111.2 619.423 Q113.445 616.9 114.325 615.164 Q115.228 613.404 115.228 611.715 Q115.228 608.96 113.283 607.224 Q111.362 605.488 108.26 605.488 Q106.061 605.488 103.608 606.252 Q101.177 607.016 98.3993 608.567 L98.3993 603.844 Q101.223 602.71 103.677 602.131 Q106.131 601.553 108.168 601.553 Q113.538 601.553 116.733 604.238 Q119.927 606.923 119.927 611.414 Q119.927 613.543 119.117 615.465 Q118.33 617.363 116.223 619.955 Q115.645 620.627 112.543 623.844 Q109.441 627.039 103.793 632.802 Z" fill="#000000" fill-rule="nonzero" fill-opacity="1" /><path clip-path="url(#clip460)" d="M63.5847 171.761 Q59.9736 171.761 58.1449 175.326 Q56.3393 178.868 56.3393 185.997 Q56.3393 193.104 58.1449 196.668 Q59.9736 200.21 63.5847 200.21 Q67.2189 200.21 69.0244 196.668 Q70.8531 193.104 70.8531 185.997 Q70.8531 178.868 69.0244 175.326 Q67.2189 171.761 63.5847 171.761 M63.5847 168.058 Q69.3948 168.058 72.4503 172.664 Q75.529 177.247 75.529 185.997 Q75.529 194.724 72.4503 199.331 Q69.3948 203.914 63.5847 203.914 Q57.7745 203.914 54.6958 199.331 Q51.6403 194.724 51.6403 185.997 Q51.6403 177.247 54.6958 172.664 Q57.7745 168.058 63.5847 168.058 Z" fill="#000000" fill-rule="nonzero" fill-opacity="1" /><path clip-path="url(#clip460)" d="M83.7466 197.363 L88.6308 197.363 L88.6308 203.243 L83.7466 203.243 L83.7466 197.363 Z" fill="#000000" fill-rule="nonzero" fill-opacity="1" /><path clip-path="url(#clip460)" d="M112.983 184.608 Q116.339 185.326 118.214 187.594 Q120.112 189.863 120.112 193.196 Q120.112 198.312 116.594 201.113 Q113.075 203.914 106.594 203.914 Q104.418 203.914 102.103 203.474 Q99.8113 203.057 97.3576 202.201 L97.3576 197.687 Q99.3021 198.821 101.617 199.4 Q103.932 199.979 106.455 199.979 Q110.853 199.979 113.145 198.243 Q115.459 196.506 115.459 193.196 Q115.459 190.141 113.307 188.428 Q111.177 186.692 107.358 186.692 L103.33 186.692 L103.33 182.849 L107.543 182.849 Q110.992 182.849 112.82 181.483 Q114.649 180.095 114.649 177.502 Q114.649 174.84 112.751 173.428 Q110.876 171.993 107.358 171.993 Q105.436 171.993 103.237 172.409 Q101.038 172.826 98.3993 173.706 L98.3993 169.539 Q101.061 168.798 103.376 168.428 Q105.714 168.058 107.774 168.058 Q113.098 168.058 116.2 170.488 Q119.302 172.895 119.302 177.016 Q119.302 179.886 117.658 181.877 Q116.015 183.844 112.983 184.608 Z" fill="#000000" fill-rule="nonzero" fill-opacity="1" /><path clip-path="url(#clip462)" d="M276.931 1477.78 L276.931 1486.45 L399.119 1486.45 L399.119 1477.78 L276.931 1477.78 L276.931 1477.78  Z" fill="#009af9" fill-rule="evenodd" fill-opacity="1"/>
<polyline clip-path="url(#clip462)" style="stroke:#000000; stroke-linecap:round; stroke-linejoin:round; stroke-width:4; stroke-opacity:1; fill:none" points="276.931,1477.78 276.931,1486.45 399.119,1486.45 399.119,1477.78 276.931,1477.78 "/>
<path clip-path="url(#clip462)" d="M399.119 1477.78 L399.119 1486.45 L521.307 1486.45 L521.307 1477.78 L399.119 1477.78 L399.119 1477.78  Z" fill="#009af9" fill-rule="evenodd" fill-opacity="1"/>
<polyline clip-path="url(#clip462)" style="stroke:#000000; stroke-linecap:round; stroke-linejoin:round; stroke-width:4; stroke-opacity:1; fill:none" points="399.119,1477.78 399.119,1486.45 521.307,1486.45 521.307,1477.78 399.119,1477.78 "/>
<path clip-path="url(#clip462)" d="M521.307 1434.43 L521.307 1486.45 L643.495 1486.45 L643.495 1434.43 L521.307 1434.43 L521.307 1434.43  Z" fill="#009af9" fill-rule="evenodd" fill-opacity="1"/>
<polyline clip-path="url(#clip462)" style="stroke:#000000; stroke-linecap:round; stroke-linejoin:round; stroke-width:4; stroke-opacity:1; fill:none" points="521.307,1434.43 521.307,1486.45 643.495,1486.45 643.495,1434.43 521.307,1434.43 "/>
<path clip-path="url(#clip462)" d="M643.495 1243.69 L643.495 1486.45 L765.683 1486.45 L765.683 1243.69 L643.495 1243.69 L643.495 1243.69  Z" fill="#009af9" fill-rule="evenodd" fill-opacity="1"/>
<polyline clip-path="url(#clip462)" style="stroke:#000000; stroke-linecap:round; stroke-linejoin:round; stroke-width:4; stroke-opacity:1; fill:none" points="643.495,1243.69 643.495,1486.45 765.683,1486.45 765.683,1243.69 643.495,1243.69 "/>
<path clip-path="url(#clip462)" d="M765.683 1122.31 L765.683 1486.45 L887.871 1486.45 L887.871 1122.31 L765.683 1122.31 L765.683 1122.31  Z" fill="#009af9" fill-rule="evenodd" fill-opacity="1"/>
<polyline clip-path="url(#clip462)" style="stroke:#000000; stroke-linecap:round; stroke-linejoin:round; stroke-width:4; stroke-opacity:1; fill:none" points="765.683,1122.31 765.683,1486.45 887.871,1486.45 887.871,1122.31 765.683,1122.31 "/>
<path clip-path="url(#clip462)" d="M887.871 836.205 L887.871 1486.45 L1010.06 1486.45 L1010.06 836.205 L887.871 836.205 L887.871 836.205  Z" fill="#009af9" fill-rule="evenodd" fill-opacity="1"/>
<polyline clip-path="url(#clip462)" style="stroke:#000000; stroke-linecap:round; stroke-linejoin:round; stroke-width:4; stroke-opacity:1; fill:none" points="887.871,836.205 887.871,1486.45 1010.06,1486.45 1010.06,836.205 887.871,836.205 "/>
<path clip-path="url(#clip462)" d="M1010.06 385.37 L1010.06 1486.45 L1132.25 1486.45 L1132.25 385.37 L1010.06 385.37 L1010.06 385.37  Z" fill="#009af9" fill-rule="evenodd" fill-opacity="1"/>
<polyline clip-path="url(#clip462)" style="stroke:#000000; stroke-linecap:round; stroke-linejoin:round; stroke-width:4; stroke-opacity:1; fill:none" points="1010.06,385.37 1010.06,1486.45 1132.25,1486.45 1132.25,385.37 1010.06,385.37 "/>
<path clip-path="url(#clip462)" d="M1132.25 64.5839 L1132.25 1486.45 L1254.43 1486.45 L1254.43 64.5839 L1132.25 64.5839 L1132.25 64.5839  Z" fill="#009af9" fill-rule="evenodd" fill-opacity="1"/>
<polyline clip-path="url(#clip462)" style="stroke:#000000; stroke-linecap:round; stroke-linejoin:round; stroke-width:4; stroke-opacity:1; fill:none" points="1132.25,64.5839 1132.25,1486.45 1254.43,1486.45 1254.43,64.5839 1132.25,64.5839 "/>
<path clip-path="url(#clip462)" d="M1254.43 47.2441 L1254.43 1486.45 L1376.62 1486.45 L1376.62 47.2441 L1254.43 47.2441 L1254.43 47.2441  Z" fill="#009af9" fill-rule="evenodd" fill-opacity="1"/>
<polyline clip-path="url(#clip462)" style="stroke:#000000; stroke-linecap:round; stroke-linejoin:round; stroke-width:4; stroke-opacity:1; fill:none" points="1254.43,47.2441 1254.43,1486.45 1376.62,1486.45 1376.62,47.2441 1254.43,47.2441 "/>
<path clip-path="url(#clip462)" d="M1376.62 90.5936 L1376.62 1486.45 L1498.81 1486.45 L1498.81 90.5936 L1376.62 90.5936 L1376.62 90.5936  Z" fill="#009af9" fill-rule="evenodd" fill-opacity="1"/>
<polyline clip-path="url(#clip462)" style="stroke:#000000; stroke-linecap:round; stroke-linejoin:round; stroke-width:4; stroke-opacity:1; fill:none" points="1376.62,90.5936 1376.62,1486.45 1498.81,1486.45 1498.81,90.5936 1376.62,90.5936 "/>
<path clip-path="url(#clip462)" d="M1498.81 567.438 L1498.81 1486.45 L1621 1486.45 L1621 567.438 L1498.81 567.438 L1498.81 567.438  Z" fill="#009af9" fill-rule="evenodd" fill-opacity="1"/>
<polyline clip-path="url(#clip462)" style="stroke:#000000; stroke-linecap:round; stroke-linejoin:round; stroke-width:4; stroke-opacity:1; fill:none" points="1498.81,567.438 1498.81,1486.45 1621,1486.45 1621,567.438 1498.81,567.438 "/>
<path clip-path="url(#clip462)" d="M1621 870.885 L1621 1486.45 L1743.19 1486.45 L1743.19 870.885 L1621 870.885 L1621 870.885  Z" fill="#009af9" fill-rule="evenodd" fill-opacity="1"/>
<polyline clip-path="url(#clip462)" style="stroke:#000000; stroke-linecap:round; stroke-linejoin:round; stroke-width:4; stroke-opacity:1; fill:none" points="1621,870.885 1621,1486.45 1743.19,1486.45 1743.19,870.885 1621,870.885 "/>
<path clip-path="url(#clip462)" d="M1743.19 1217.68 L1743.19 1486.45 L1865.37 1486.45 L1865.37 1217.68 L1743.19 1217.68 L1743.19 1217.68  Z" fill="#009af9" fill-rule="evenodd" fill-opacity="1"/>
<polyline clip-path="url(#clip462)" style="stroke:#000000; stroke-linecap:round; stroke-linejoin:round; stroke-width:4; stroke-opacity:1; fill:none" points="1743.19,1217.68 1743.19,1486.45 1865.37,1486.45 1865.37,1217.68 1743.19,1217.68 "/>
<path clip-path="url(#clip462)" d="M1865.37 1365.07 L1865.37 1486.45 L1987.56 1486.45 L1987.56 1365.07 L1865.37 1365.07 L1865.37 1365.07  Z" fill="#009af9" fill-rule="evenodd" fill-opacity="1"/>
<polyline clip-path="url(#clip462)" style="stroke:#000000; stroke-linecap:round; stroke-linejoin:round; stroke-width:4; stroke-opacity:1; fill:none" points="1865.37,1365.07 1865.37,1486.45 1987.56,1486.45 1987.56,1365.07 1865.37,1365.07 "/>
<path clip-path="url(#clip462)" d="M1987.56 1443.1 L1987.56 1486.45 L2109.75 1486.45 L2109.75 1443.1 L1987.56 1443.1 L1987.56 1443.1  Z" fill="#009af9" fill-rule="evenodd" fill-opacity="1"/>
<polyline clip-path="url(#clip462)" style="stroke:#000000; stroke-linecap:round; stroke-linejoin:round; stroke-width:4; stroke-opacity:1; fill:none" points="1987.56,1443.1 1987.56,1486.45 2109.75,1486.45 2109.75,1443.1 1987.56,1443.1 "/>
<path clip-path="url(#clip462)" d="M2109.75 1469.11 L2109.75 1486.45 L2231.94 1486.45 L2231.94 1469.11 L2109.75 1469.11 L2109.75 1469.11  Z" fill="#009af9" fill-rule="evenodd" fill-opacity="1"/>
<polyline clip-path="url(#clip462)" style="stroke:#000000; stroke-linecap:round; stroke-linejoin:round; stroke-width:4; stroke-opacity:1; fill:none" points="2109.75,1469.11 2109.75,1486.45 2231.94,1486.45 2231.94,1469.11 2109.75,1469.11 "/>
<circle clip-path="url(#clip462)" style="fill:#009af9; stroke:none; fill-opacity:0" cx="338.025" cy="1477.78" r="2"/>
<circle clip-path="url(#clip462)" style="fill:#009af9; stroke:none; fill-opacity:0" cx="460.213" cy="1477.78" r="2"/>
<circle clip-path="url(#clip462)" style="fill:#009af9; stroke:none; fill-opacity:0" cx="582.401" cy="1434.43" r="2"/>
<circle clip-path="url(#clip462)" style="fill:#009af9; stroke:none; fill-opacity:0" cx="704.589" cy="1243.69" r="2"/>
<circle clip-path="url(#clip462)" style="fill:#009af9; stroke:none; fill-opacity:0" cx="826.777" cy="1122.31" r="2"/>
<circle clip-path="url(#clip462)" style="fill:#009af9; stroke:none; fill-opacity:0" cx="948.964" cy="836.205" r="2"/>
<circle clip-path="url(#clip462)" style="fill:#009af9; stroke:none; fill-opacity:0" cx="1071.15" cy="385.37" r="2"/>
<circle clip-path="url(#clip462)" style="fill:#009af9; stroke:none; fill-opacity:0" cx="1193.34" cy="64.5839" r="2"/>
<circle clip-path="url(#clip462)" style="fill:#009af9; stroke:none; fill-opacity:0" cx="1315.53" cy="47.2441" r="2"/>
<circle clip-path="url(#clip462)" style="fill:#009af9; stroke:none; fill-opacity:0" cx="1437.72" cy="90.5936" r="2"/>
<circle clip-path="url(#clip462)" style="fill:#009af9; stroke:none; fill-opacity:0" cx="1559.9" cy="567.438" r="2"/>
<circle clip-path="url(#clip462)" style="fill:#009af9; stroke:none; fill-opacity:0" cx="1682.09" cy="870.885" r="2"/>
<circle clip-path="url(#clip462)" style="fill:#009af9; stroke:none; fill-opacity:0" cx="1804.28" cy="1217.68" r="2"/>
<circle clip-path="url(#clip462)" style="fill:#009af9; stroke:none; fill-opacity:0" cx="1926.47" cy="1365.07" r="2"/>
<circle clip-path="url(#clip462)" style="fill:#009af9; stroke:none; fill-opacity:0" cx="2048.65" cy="1443.1" r="2"/>
<circle clip-path="url(#clip462)" style="fill:#009af9; stroke:none; fill-opacity:0" cx="2170.84" cy="1469.11" r="2"/>
<path clip-path="url(#clip460)" d="M2007.44 198.898 L2279.53 198.898 L2279.53 95.2176 L2007.44 95.2176  Z" fill="#ffffff" fill-rule="evenodd" fill-opacity="1"/>
<polyline clip-path="url(#clip460)" style="stroke:#000000; stroke-linecap:round; stroke-linejoin:round; stroke-width:4; stroke-opacity:1; fill:none" points="2007.44,198.898 2279.53,198.898 2279.53,95.2176 2007.44,95.2176 2007.44,198.898 "/>
<path clip-path="url(#clip460)" d="M2031.85 167.794 L2178.29 167.794 L2178.29 126.322 L2031.85 126.322 L2031.85 167.794  Z" fill="#009af9" fill-rule="evenodd" fill-opacity="1"/>
<polyline clip-path="url(#clip460)" style="stroke:#000000; stroke-linecap:round; stroke-linejoin:round; stroke-width:4; stroke-opacity:1; fill:none" points="2031.85,167.794 2178.29,167.794 2178.29,126.322 2031.85,126.322 2031.85,167.794 "/>
<path clip-path="url(#clip460)" d="M2216.54 166.745 Q2214.73 171.375 2213.02 172.787 Q2211.31 174.199 2208.44 174.199 L2205.03 174.199 L2205.03 170.634 L2207.53 170.634 Q2209.29 170.634 2210.27 169.8 Q2211.24 168.967 2212.42 165.865 L2213.18 163.921 L2202.7 138.412 L2207.21 138.412 L2215.31 158.689 L2223.41 138.412 L2227.93 138.412 L2216.54 166.745 Z" fill="#000000" fill-rule="nonzero" fill-opacity="1" /><path clip-path="url(#clip460)" d="M2235.22 160.402 L2242.86 160.402 L2242.86 134.037 L2234.55 135.703 L2234.55 131.444 L2242.81 129.778 L2247.49 129.778 L2247.49 160.402 L2255.13 160.402 L2255.13 164.338 L2235.22 164.338 L2235.22 160.402 Z" fill="#000000" fill-rule="nonzero" fill-opacity="1" /></svg>
