<?xml version="1.0" encoding="utf-8"?>
<svg xmlns="http://www.w3.org/2000/svg" xmlns:xlink="http://www.w3.org/1999/xlink" width="600" height="400" viewBox="0 0 2400 1600">
<defs>
  <clipPath id="clip330">
    <rect x="0" y="0" width="2400" height="1600"/>
  </clipPath>
</defs>
<path clip-path="url(#clip330)" d="M0 1600 L2400 1600 L2400 0 L0 0  Z" fill="#ffffff" fill-rule="evenodd" fill-opacity="1"/>
<defs>
  <clipPath id="clip331">
    <rect x="480" y="0" width="1681" height="1600"/>
  </clipPath>
</defs>
<path clip-path="url(#clip330)" d="M215.95 1486.45 L2352.76 1486.45 L2352.76 47.2441 L215.95 47.2441  Z" fill="#ffffff" fill-rule="evenodd" fill-opacity="1"/>
<defs>
  <clipPath id="clip332">
    <rect x="215" y="47" width="2138" height="1440"/>
  </clipPath>
</defs>
<polyline clip-path="url(#clip332)" style="stroke:#000000; stroke-linecap:round; stroke-linejoin:round; stroke-width:2; stroke-opacity:0.1; fill:none" points="500.409,1486.45 500.409,47.2441 "/>
<polyline clip-path="url(#clip332)" style="stroke:#000000; stroke-linecap:round; stroke-linejoin:round; stroke-width:2; stroke-opacity:0.1; fill:none" points="948.377,1486.45 948.377,47.2441 "/>
<polyline clip-path="url(#clip332)" style="stroke:#000000; stroke-linecap:round; stroke-linejoin:round; stroke-width:2; stroke-opacity:0.1; fill:none" points="1396.34,1486.45 1396.34,47.2441 "/>
<polyline clip-path="url(#clip332)" style="stroke:#000000; stroke-linecap:round; stroke-linejoin:round; stroke-width:2; stroke-opacity:0.1; fill:none" points="1844.31,1486.45 1844.31,47.2441 "/>
<polyline clip-path="url(#clip332)" style="stroke:#000000; stroke-linecap:round; stroke-linejoin:round; stroke-width:2; stroke-opacity:0.1; fill:none" points="2292.28,1486.45 2292.28,47.2441 "/>
<polyline clip-path="url(#clip332)" style="stroke:#000000; stroke-linecap:round; stroke-linejoin:round; stroke-width:2; stroke-opacity:0.1; fill:none" points="215.95,1294.41 2352.76,1294.41 "/>
<polyline clip-path="url(#clip332)" style="stroke:#000000; stroke-linecap:round; stroke-linejoin:round; stroke-width:2; stroke-opacity:0.1; fill:none" points="215.95,982.129 2352.76,982.129 "/>
<polyline clip-path="url(#clip332)" style="stroke:#000000; stroke-linecap:round; stroke-linejoin:round; stroke-width:2; stroke-opacity:0.1; fill:none" points="215.95,669.853 2352.76,669.853 "/>
<polyline clip-path="url(#clip332)" style="stroke:#000000; stroke-linecap:round; stroke-linejoin:round; stroke-width:2; stroke-opacity:0.1; fill:none" points="215.95,357.577 2352.76,357.577 "/>
<polyline clip-path="url(#clip330)" style="stroke:#000000; stroke-linecap:round; stroke-linejoin:round; stroke-width:4; stroke-opacity:1; fill:none" points="215.95,1486.45 2352.76,1486.45 "/>
<polyline clip-path="url(#clip330)" style="stroke:#000000; stroke-linecap:round; stroke-linejoin:round; stroke-width:4; stroke-opacity:1; fill:none" points="500.409,1486.45 500.409,1467.55 "/>
<polyline clip-path="url(#clip330)" style="stroke:#000000; stroke-linecap:round; stroke-linejoin:round; stroke-width:4; stroke-opacity:1; fill:none" points="948.377,1486.45 948.377,1467.55 "/>
<polyline clip-path="url(#clip330)" style="stroke:#000000; stroke-linecap:round; stroke-linejoin:round; stroke-width:4; stroke-opacity:1; fill:none" points="1396.34,1486.45 1396.34,1467.55 "/>
<polyline clip-path="url(#clip330)" style="stroke:#000000; stroke-linecap:round; stroke-linejoin:round; stroke-width:4; stroke-opacity:1; fill:none" points="1844.31,1486.45 1844.31,1467.55 "/>
<polyline clip-path="url(#clip330)" style="stroke:#000000; stroke-linecap:round; stroke-linejoin:round; stroke-width:4; stroke-opacity:1; fill:none" points="2292.28,1486.45 2292.28,1467.55 "/>
<path clip-path="url(#clip330)" d="M495.062 1544.91 L511.381 1544.91 L511.381 1548.85 L489.437 1548.85 L489.437 1544.91 Q492.099 1542.16 496.682 1537.53 Q501.289 1532.88 502.469 1531.53 Q504.715 1529.01 505.594 1527.27 Q506.497 1525.51 506.497 1523.82 Q506.497 1521.07 504.553 1519.33 Q502.631 1517.6 499.53 1517.6 Q497.331 1517.6 494.877 1518.36 Q492.446 1519.13 489.669 1520.68 L489.669 1515.95 Q492.493 1514.82 494.946 1514.24 Q497.4 1513.66 499.437 1513.66 Q504.807 1513.66 508.002 1516.35 Q511.196 1519.03 511.196 1523.52 Q511.196 1525.65 510.386 1527.57 Q509.599 1529.47 507.493 1532.07 Q506.914 1532.74 503.812 1535.95 Q500.71 1539.15 495.062 1544.91 Z" fill="#000000" fill-rule="nonzero" fill-opacity="1" /><path clip-path="url(#clip330)" d="M951.386 1518.36 L939.581 1536.81 L951.386 1536.81 L951.386 1518.36 M950.159 1514.29 L956.039 1514.29 L956.039 1536.81 L960.97 1536.81 L960.97 1540.7 L956.039 1540.7 L956.039 1548.85 L951.386 1548.85 L951.386 1540.7 L935.785 1540.7 L935.785 1536.19 L950.159 1514.29 Z" fill="#000000" fill-rule="nonzero" fill-opacity="1" /><path clip-path="url(#clip330)" d="M1396.75 1529.7 Q1393.6 1529.7 1391.75 1531.86 Q1389.92 1534.01 1389.92 1537.76 Q1389.92 1541.49 1391.75 1543.66 Q1393.6 1545.82 1396.75 1545.82 Q1399.9 1545.82 1401.73 1543.66 Q1403.58 1541.49 1403.58 1537.76 Q1403.58 1534.01 1401.73 1531.86 Q1399.9 1529.7 1396.75 1529.7 M1406.03 1515.05 L1406.03 1519.31 Q1404.27 1518.48 1402.47 1518.04 Q1400.69 1517.6 1398.93 1517.6 Q1394.3 1517.6 1391.84 1520.72 Q1389.41 1523.85 1389.06 1530.17 Q1390.43 1528.15 1392.49 1527.09 Q1394.55 1526 1397.03 1526 Q1402.24 1526 1405.25 1529.17 Q1408.28 1532.32 1408.28 1537.76 Q1408.28 1543.08 1405.13 1546.3 Q1401.98 1549.52 1396.75 1549.52 Q1390.75 1549.52 1387.58 1544.94 Q1384.41 1540.33 1384.41 1531.6 Q1384.41 1523.41 1388.3 1518.55 Q1392.19 1513.66 1398.74 1513.66 Q1400.5 1513.66 1402.28 1514.01 Q1404.09 1514.36 1406.03 1515.05 Z" fill="#000000" fill-rule="nonzero" fill-opacity="1" /><path clip-path="url(#clip330)" d="M1844.31 1532.44 Q1840.98 1532.44 1839.06 1534.22 Q1837.16 1536 1837.16 1539.13 Q1837.16 1542.25 1839.06 1544.03 Q1840.98 1545.82 1844.31 1545.82 Q1847.65 1545.82 1849.57 1544.03 Q1851.49 1542.23 1851.49 1539.13 Q1851.49 1536 1849.57 1534.22 Q1847.67 1532.44 1844.31 1532.44 M1839.64 1530.45 Q1836.63 1529.7 1834.94 1527.64 Q1833.27 1525.58 1833.27 1522.62 Q1833.27 1518.48 1836.21 1516.07 Q1839.17 1513.66 1844.31 1513.66 Q1849.47 1513.66 1852.41 1516.07 Q1855.35 1518.48 1855.35 1522.62 Q1855.35 1525.58 1853.66 1527.64 Q1852 1529.7 1849.01 1530.45 Q1852.39 1531.23 1854.27 1533.52 Q1856.16 1535.82 1856.16 1539.13 Q1856.16 1544.15 1853.09 1546.83 Q1850.03 1549.52 1844.31 1549.52 Q1838.59 1549.52 1835.52 1546.83 Q1832.46 1544.15 1832.46 1539.13 Q1832.46 1535.82 1834.36 1533.52 Q1836.26 1531.23 1839.64 1530.45 M1837.92 1523.06 Q1837.92 1525.75 1839.59 1527.25 Q1841.28 1528.76 1844.31 1528.76 Q1847.32 1528.76 1849.01 1527.25 Q1850.72 1525.75 1850.72 1523.06 Q1850.72 1520.38 1849.01 1518.87 Q1847.32 1517.37 1844.31 1517.37 Q1841.28 1517.37 1839.59 1518.87 Q1837.92 1520.38 1837.92 1523.06 Z" fill="#000000" fill-rule="nonzero" fill-opacity="1" /><path clip-path="url(#clip330)" d="M2266.97 1544.91 L2274.61 1544.91 L2274.61 1518.55 L2266.3 1520.21 L2266.3 1515.95 L2274.56 1514.29 L2279.24 1514.29 L2279.24 1544.91 L2286.88 1544.91 L2286.88 1548.85 L2266.97 1548.85 L2266.97 1544.91 Z" fill="#000000" fill-rule="nonzero" fill-opacity="1" /><path clip-path="url(#clip330)" d="M2306.32 1517.37 Q2302.71 1517.37 2300.88 1520.93 Q2299.07 1524.47 2299.07 1531.6 Q2299.07 1538.71 2300.88 1542.27 Q2302.71 1545.82 2306.32 1545.82 Q2309.95 1545.82 2311.76 1542.27 Q2313.59 1538.71 2313.59 1531.6 Q2313.59 1524.47 2311.76 1520.93 Q2309.95 1517.37 2306.32 1517.37 M2306.32 1513.66 Q2312.13 1513.66 2315.19 1518.27 Q2318.26 1522.85 2318.26 1531.6 Q2318.26 1540.33 2315.19 1544.94 Q2312.13 1549.52 2306.32 1549.52 Q2300.51 1549.52 2297.43 1544.94 Q2294.38 1540.33 2294.38 1531.6 Q2294.38 1522.85 2297.43 1518.27 Q2300.51 1513.66 2306.32 1513.66 Z" fill="#000000" fill-rule="nonzero" fill-opacity="1" /><polyline clip-path="url(#clip330)" style="stroke:#000000; stroke-linecap:round; stroke-linejoin:round; stroke-width:4; stroke-opacity:1; fill:none" points="215.95,1486.45 215.95,47.2441 "/>
<polyline clip-path="url(#clip330)" style="stroke:#000000; stroke-linecap:round; stroke-linejoin:round; stroke-width:4; stroke-opacity:1; fill:none" points="215.95,1294.41 234.847,1294.41 "/>
<polyline clip-path="url(#clip330)" style="stroke:#000000; stroke-linecap:round; stroke-linejoin:round; stroke-width:4; stroke-opacity:1; fill:none" points="215.95,982.129 234.847,982.129 "/>
<polyline clip-path="url(#clip330)" style="stroke:#000000; stroke-linecap:round; stroke-linejoin:round; stroke-width:4; stroke-opacity:1; fill:none" points="215.95,669.853 234.847,669.853 "/>
<polyline clip-path="url(#clip330)" style="stroke:#000000; stroke-linecap:round; stroke-linejoin:round; stroke-width:4; stroke-opacity:1; fill:none" points="215.95,357.577 234.847,357.577 "/>
<path clip-path="url(#clip330)" d="M67.6124 1293.05 Q70.9689 1293.77 72.8439 1296.04 Q74.742 1298.31 74.742 1301.64 Q74.742 1306.76 71.2235 1309.56 Q67.705 1312.36 61.2236 1312.36 Q59.0476 1312.36 56.7328 1311.92 Q54.4412 1311.5 51.9875 1310.64 L51.9875 1306.13 Q53.9319 1307.26 56.2467 1307.84 Q58.5615 1308.42 61.0847 1308.42 Q65.4828 1308.42 67.7744 1306.69 Q70.0892 1304.95 70.0892 1301.64 Q70.0892 1298.58 67.9365 1296.87 Q65.8069 1295.14 61.9874 1295.14 L57.9597 1295.14 L57.9597 1291.29 L62.1726 1291.29 Q65.6217 1291.29 67.4504 1289.93 Q69.2791 1288.54 69.2791 1285.95 Q69.2791 1283.28 67.3809 1281.87 Q65.5059 1280.44 61.9874 1280.44 Q60.0662 1280.44 57.8671 1280.85 Q55.668 1281.27 53.0292 1282.15 L53.0292 1277.98 Q55.6912 1277.24 58.006 1276.87 Q60.3439 1276.5 62.4041 1276.5 Q67.7281 1276.5 70.83 1278.93 Q73.9318 1281.34 73.9318 1285.46 Q73.9318 1288.33 72.2883 1290.32 Q70.6448 1292.29 67.6124 1293.05 Z" fill="#000000" fill-rule="nonzero" fill-opacity="1" /><path clip-path="url(#clip330)" d="M83.6077 1305.81 L88.4919 1305.81 L88.4919 1311.69 L83.6077 1311.69 L83.6077 1305.81 Z" fill="#000000" fill-rule="nonzero" fill-opacity="1" /><path clip-path="url(#clip330)" d="M98.7234 1277.13 L117.08 1277.13 L117.08 1281.06 L103.006 1281.06 L103.006 1289.53 Q104.024 1289.19 105.043 1289.02 Q106.061 1288.84 107.08 1288.84 Q112.867 1288.84 116.246 1292.01 Q119.626 1295.18 119.626 1300.6 Q119.626 1306.18 116.154 1309.28 Q112.682 1312.36 106.362 1312.36 Q104.186 1312.36 101.918 1311.99 Q99.6724 1311.62 97.265 1310.88 L97.265 1306.18 Q99.3483 1307.31 101.571 1307.87 Q103.793 1308.42 106.27 1308.42 Q110.274 1308.42 112.612 1306.32 Q114.95 1304.21 114.95 1300.6 Q114.95 1296.99 112.612 1294.88 Q110.274 1292.77 106.27 1292.77 Q104.395 1292.77 102.52 1293.19 Q100.668 1293.61 98.7234 1294.49 L98.7234 1277.13 Z" fill="#000000" fill-rule="nonzero" fill-opacity="1" /><path clip-path="url(#clip330)" d="M138.839 1295.27 Q135.506 1295.27 133.584 1297.06 Q131.686 1298.84 131.686 1301.96 Q131.686 1305.09 133.584 1306.87 Q135.506 1308.65 138.839 1308.65 Q142.172 1308.65 144.093 1306.87 Q146.015 1305.07 146.015 1301.96 Q146.015 1298.84 144.093 1297.06 Q142.195 1295.27 138.839 1295.27 M134.163 1293.28 Q131.154 1292.54 129.464 1290.48 Q127.797 1288.42 127.797 1285.46 Q127.797 1281.32 130.737 1278.91 Q133.7 1276.5 138.839 1276.5 Q144.001 1276.5 146.941 1278.91 Q149.88 1281.32 149.88 1285.46 Q149.88 1288.42 148.191 1290.48 Q146.524 1292.54 143.538 1293.28 Q146.918 1294.07 148.793 1296.36 Q150.691 1298.65 150.691 1301.96 Q150.691 1306.99 147.612 1309.67 Q144.556 1312.36 138.839 1312.36 Q133.121 1312.36 130.043 1309.67 Q126.987 1306.99 126.987 1301.96 Q126.987 1298.65 128.885 1296.36 Q130.783 1294.07 134.163 1293.28 M132.45 1285.9 Q132.45 1288.58 134.117 1290.09 Q135.806 1291.59 138.839 1291.59 Q141.848 1291.59 143.538 1290.09 Q145.251 1288.58 145.251 1285.9 Q145.251 1283.21 143.538 1281.71 Q141.848 1280.2 138.839 1280.2 Q135.806 1280.2 134.117 1281.71 Q132.45 1283.21 132.45 1285.9 Z" fill="#000000" fill-rule="nonzero" fill-opacity="1" /><path clip-path="url(#clip330)" d="M159.047 1277.13 L177.403 1277.13 L177.403 1281.06 L163.329 1281.06 L163.329 1289.53 Q164.348 1289.19 165.367 1289.02 Q166.385 1288.84 167.404 1288.84 Q173.191 1288.84 176.57 1292.01 Q179.95 1295.18 179.95 1300.6 Q179.95 1306.18 176.478 1309.28 Q173.005 1312.36 166.686 1312.36 Q164.51 1312.36 162.242 1311.99 Q159.996 1311.62 157.589 1310.88 L157.589 1306.18 Q159.672 1307.31 161.894 1307.87 Q164.117 1308.42 166.593 1308.42 Q170.598 1308.42 172.936 1306.32 Q175.274 1304.21 175.274 1300.6 Q175.274 1296.99 172.936 1294.88 Q170.598 1292.77 166.593 1292.77 Q164.718 1292.77 162.843 1293.19 Q160.992 1293.61 159.047 1294.49 L159.047 1277.13 Z" fill="#000000" fill-rule="nonzero" fill-opacity="1" /><path clip-path="url(#clip330)" d="M66.617 980.775 Q69.9735 981.493 71.8485 983.761 Q73.7466 986.03 73.7466 989.363 Q73.7466 994.479 70.2281 997.28 Q66.7096 1000.08 60.2282 1000.08 Q58.0523 1000.08 55.7375 999.641 Q53.4458 999.224 50.9921 998.368 L50.9921 993.854 Q52.9366 994.988 55.2514 995.567 Q57.5662 996.146 60.0893 996.146 Q64.4874 996.146 66.7791 994.409 Q69.0939 992.673 69.0939 989.363 Q69.0939 986.308 66.9411 984.595 Q64.8115 982.859 60.9921 982.859 L56.9643 982.859 L56.9643 979.016 L61.1773 979.016 Q64.6263 979.016 66.455 977.65 Q68.2837 976.261 68.2837 973.669 Q68.2837 971.007 66.3856 969.595 Q64.5106 968.16 60.9921 968.16 Q59.0708 968.16 56.8717 968.576 Q54.6727 968.993 52.0338 969.873 L52.0338 965.706 Q54.6958 964.965 57.0106 964.595 Q59.3486 964.224 61.4087 964.224 Q66.7328 964.224 69.8346 966.655 Q72.9365 969.062 72.9365 973.183 Q72.9365 976.053 71.2929 978.044 Q69.6494 980.011 66.617 980.775 Z" fill="#000000" fill-rule="nonzero" fill-opacity="1" /><path clip-path="url(#clip330)" d="M82.6123 993.53 L87.4966 993.53 L87.4966 999.409 L82.6123 999.409 L82.6123 993.53 Z" fill="#000000" fill-rule="nonzero" fill-opacity="1" /><path clip-path="url(#clip330)" d="M97.728 964.849 L116.084 964.849 L116.084 968.785 L102.01 968.785 L102.01 977.257 Q103.029 976.91 104.047 976.748 Q105.066 976.562 106.084 976.562 Q111.871 976.562 115.251 979.734 Q118.631 982.905 118.631 988.322 Q118.631 993.9 115.158 997.002 Q111.686 1000.08 105.367 1000.08 Q103.191 1000.08 100.922 999.71 Q98.6771 999.34 96.2697 998.599 L96.2697 993.9 Q98.353 995.034 100.575 995.59 Q102.797 996.146 105.274 996.146 Q109.279 996.146 111.617 994.039 Q113.955 991.933 113.955 988.322 Q113.955 984.71 111.617 982.604 Q109.279 980.497 105.274 980.497 Q103.399 980.497 101.524 980.914 Q99.6724 981.331 97.728 982.21 L97.728 964.849 Z" fill="#000000" fill-rule="nonzero" fill-opacity="1" /><path clip-path="url(#clip330)" d="M127.982 998.692 L127.982 994.433 Q129.742 995.266 131.547 995.706 Q133.353 996.146 135.089 996.146 Q139.719 996.146 142.149 993.044 Q144.603 989.919 144.95 983.576 Q143.607 985.567 141.547 986.632 Q139.487 987.697 136.987 987.697 Q131.802 987.697 128.769 984.572 Q125.76 981.423 125.76 975.984 Q125.76 970.66 128.908 967.442 Q132.057 964.224 137.288 964.224 Q143.283 964.224 146.431 968.831 Q149.603 973.414 149.603 982.164 Q149.603 990.335 145.714 995.22 Q141.848 1000.08 135.297 1000.08 Q133.538 1000.08 131.732 999.733 Q129.927 999.386 127.982 998.692 M137.288 984.039 Q140.436 984.039 142.265 981.886 Q144.117 979.734 144.117 975.984 Q144.117 972.257 142.265 970.104 Q140.436 967.928 137.288 967.928 Q134.14 967.928 132.288 970.104 Q130.459 972.257 130.459 975.984 Q130.459 979.734 132.288 981.886 Q134.14 984.039 137.288 984.039 Z" fill="#000000" fill-rule="nonzero" fill-opacity="1" /><path clip-path="url(#clip330)" d="M168.005 967.928 Q164.394 967.928 162.566 971.493 Q160.76 975.035 160.76 982.164 Q160.76 989.271 162.566 992.835 Q164.394 996.377 168.005 996.377 Q171.64 996.377 173.445 992.835 Q175.274 989.271 175.274 982.164 Q175.274 975.035 173.445 971.493 Q171.64 967.928 168.005 967.928 M168.005 964.224 Q173.816 964.224 176.871 968.831 Q179.95 973.414 179.95 982.164 Q179.95 990.891 176.871 995.497 Q173.816 1000.08 168.005 1000.08 Q162.195 1000.08 159.117 995.497 Q156.061 990.891 156.061 982.164 Q156.061 973.414 159.117 968.831 Q162.195 964.224 168.005 964.224 Z" fill="#000000" fill-rule="nonzero" fill-opacity="1" /><path clip-path="url(#clip330)" d="M67.6124 668.499 Q70.9689 669.216 72.8439 671.485 Q74.742 673.753 74.742 677.087 Q74.742 682.202 71.2235 685.003 Q67.705 687.804 61.2236 687.804 Q59.0476 687.804 56.7328 687.364 Q54.4412 686.948 51.9875 686.091 L51.9875 681.577 Q53.9319 682.712 56.2467 683.29 Q58.5615 683.869 61.0847 683.869 Q65.4828 683.869 67.7744 682.133 Q70.0892 680.397 70.0892 677.087 Q70.0892 674.031 67.9365 672.318 Q65.8069 670.582 61.9874 670.582 L57.9597 670.582 L57.9597 666.74 L62.1726 666.74 Q65.6217 666.74 67.4504 665.374 Q69.2791 663.985 69.2791 661.392 Q69.2791 658.73 67.3809 657.318 Q65.5059 655.883 61.9874 655.883 Q60.0662 655.883 57.8671 656.3 Q55.668 656.716 53.0292 657.596 L53.0292 653.429 Q55.6912 652.689 58.006 652.318 Q60.3439 651.948 62.4041 651.948 Q67.7281 651.948 70.83 654.379 Q73.9318 656.786 73.9318 660.906 Q73.9318 663.777 72.2883 665.767 Q70.6448 667.735 67.6124 668.499 Z" fill="#000000" fill-rule="nonzero" fill-opacity="1" /><path clip-path="url(#clip330)" d="M83.6077 681.253 L88.4919 681.253 L88.4919 687.133 L83.6077 687.133 L83.6077 681.253 Z" fill="#000000" fill-rule="nonzero" fill-opacity="1" /><path clip-path="url(#clip330)" d="M98.7234 652.573 L117.08 652.573 L117.08 656.508 L103.006 656.508 L103.006 664.98 Q104.024 664.633 105.043 664.471 Q106.061 664.286 107.08 664.286 Q112.867 664.286 116.246 667.457 Q119.626 670.628 119.626 676.045 Q119.626 681.624 116.154 684.726 Q112.682 687.804 106.362 687.804 Q104.186 687.804 101.918 687.434 Q99.6724 687.064 97.265 686.323 L97.265 681.624 Q99.3483 682.758 101.571 683.314 Q103.793 683.869 106.27 683.869 Q110.274 683.869 112.612 681.763 Q114.95 679.656 114.95 676.045 Q114.95 672.434 112.612 670.328 Q110.274 668.221 106.27 668.221 Q104.395 668.221 102.52 668.638 Q100.668 669.054 98.7234 669.934 L98.7234 652.573 Z" fill="#000000" fill-rule="nonzero" fill-opacity="1" /><path clip-path="url(#clip330)" d="M128.978 686.415 L128.978 682.156 Q130.737 682.989 132.543 683.429 Q134.348 683.869 136.084 683.869 Q140.714 683.869 143.144 680.767 Q145.598 677.642 145.945 671.3 Q144.603 673.29 142.543 674.355 Q140.482 675.42 137.982 675.42 Q132.797 675.42 129.765 672.295 Q126.756 669.147 126.756 663.707 Q126.756 658.383 129.904 655.166 Q133.052 651.948 138.283 651.948 Q144.279 651.948 147.427 656.554 Q150.598 661.138 150.598 669.888 Q150.598 678.059 146.709 682.943 Q142.843 687.804 136.293 687.804 Q134.533 687.804 132.728 687.457 Q130.922 687.11 128.978 686.415 M138.283 671.763 Q141.431 671.763 143.26 669.61 Q145.112 667.457 145.112 663.707 Q145.112 659.98 143.26 657.828 Q141.431 655.652 138.283 655.652 Q135.135 655.652 133.283 657.828 Q131.455 659.98 131.455 663.707 Q131.455 667.457 133.283 669.61 Q135.135 671.763 138.283 671.763 Z" fill="#000000" fill-rule="nonzero" fill-opacity="1" /><path clip-path="url(#clip330)" d="M159.047 652.573 L177.403 652.573 L177.403 656.508 L163.329 656.508 L163.329 664.98 Q164.348 664.633 165.367 664.471 Q166.385 664.286 167.404 664.286 Q173.191 664.286 176.57 667.457 Q179.95 670.628 179.95 676.045 Q179.95 681.624 176.478 684.726 Q173.005 687.804 166.686 687.804 Q164.51 687.804 162.242 687.434 Q159.996 687.064 157.589 686.323 L157.589 681.624 Q159.672 682.758 161.894 683.314 Q164.117 683.869 166.593 683.869 Q170.598 683.869 172.936 681.763 Q175.274 679.656 175.274 676.045 Q175.274 672.434 172.936 670.328 Q170.598 668.221 166.593 668.221 Q164.718 668.221 162.843 668.638 Q160.992 669.054 159.047 669.934 L159.047 652.573 Z" fill="#000000" fill-rule="nonzero" fill-opacity="1" /><path clip-path="url(#clip330)" d="M66.617 356.222 Q69.9735 356.94 71.8485 359.208 Q73.7466 361.477 73.7466 364.81 Q73.7466 369.926 70.2281 372.727 Q66.7096 375.528 60.2282 375.528 Q58.0523 375.528 55.7375 375.088 Q53.4458 374.671 50.9921 373.815 L50.9921 369.301 Q52.9366 370.435 55.2514 371.014 Q57.5662 371.593 60.0893 371.593 Q64.4874 371.593 66.7791 369.857 Q69.0939 368.12 69.0939 364.81 Q69.0939 361.755 66.9411 360.042 Q64.8115 358.306 60.9921 358.306 L56.9643 358.306 L56.9643 354.463 L61.1773 354.463 Q64.6263 354.463 66.455 353.097 Q68.2837 351.708 68.2837 349.116 Q68.2837 346.454 66.3856 345.042 Q64.5106 343.607 60.9921 343.607 Q59.0708 343.607 56.8717 344.023 Q54.6727 344.44 52.0338 345.32 L52.0338 341.153 Q54.6958 340.412 57.0106 340.042 Q59.3486 339.672 61.4087 339.672 Q66.7328 339.672 69.8346 342.102 Q72.9365 344.509 72.9365 348.63 Q72.9365 351.5 71.2929 353.491 Q69.6494 355.458 66.617 356.222 Z" fill="#000000" fill-rule="nonzero" fill-opacity="1" /><path clip-path="url(#clip330)" d="M82.6123 368.977 L87.4966 368.977 L87.4966 374.857 L82.6123 374.857 L82.6123 368.977 Z" fill="#000000" fill-rule="nonzero" fill-opacity="1" /><path clip-path="url(#clip330)" d="M108.26 355.713 Q105.112 355.713 103.26 357.866 Q101.432 360.019 101.432 363.769 Q101.432 367.495 103.26 369.671 Q105.112 371.824 108.26 371.824 Q111.408 371.824 113.237 369.671 Q115.089 367.495 115.089 363.769 Q115.089 360.019 113.237 357.866 Q111.408 355.713 108.26 355.713 M117.543 341.06 L117.543 345.32 Q115.783 344.486 113.978 344.047 Q112.196 343.607 110.436 343.607 Q105.807 343.607 103.353 346.732 Q100.922 349.857 100.575 356.176 Q101.941 354.162 104.001 353.097 Q106.061 352.009 108.538 352.009 Q113.746 352.009 116.756 355.181 Q119.788 358.329 119.788 363.769 Q119.788 369.093 116.64 372.31 Q113.492 375.528 108.26 375.528 Q102.265 375.528 99.0937 370.945 Q95.9224 366.338 95.9224 357.611 Q95.9224 349.417 99.8113 344.556 Q103.7 339.672 110.251 339.672 Q112.01 339.672 113.793 340.019 Q115.598 340.366 117.543 341.06 Z" fill="#000000" fill-rule="nonzero" fill-opacity="1" /><path clip-path="url(#clip330)" d="M137.844 343.375 Q134.232 343.375 132.404 346.94 Q130.598 350.482 130.598 357.611 Q130.598 364.718 132.404 368.282 Q134.232 371.824 137.844 371.824 Q141.478 371.824 143.283 368.282 Q145.112 364.718 145.112 357.611 Q145.112 350.482 143.283 346.94 Q141.478 343.375 137.844 343.375 M137.844 339.672 Q143.654 339.672 146.709 344.278 Q149.788 348.861 149.788 357.611 Q149.788 366.338 146.709 370.945 Q143.654 375.528 137.844 375.528 Q132.033 375.528 128.955 370.945 Q125.899 366.338 125.899 357.611 Q125.899 348.861 128.955 344.278 Q132.033 339.672 137.844 339.672 Z" fill="#000000" fill-rule="nonzero" fill-opacity="1" /><path clip-path="url(#clip330)" d="M168.005 343.375 Q164.394 343.375 162.566 346.94 Q160.76 350.482 160.76 357.611 Q160.76 364.718 162.566 368.282 Q164.394 371.824 168.005 371.824 Q171.64 371.824 173.445 368.282 Q175.274 364.718 175.274 357.611 Q175.274 350.482 173.445 346.94 Q171.64 343.375 168.005 343.375 M168.005 339.672 Q173.816 339.672 176.871 344.278 Q179.95 348.861 179.95 357.611 Q179.95 366.338 176.871 370.945 Q173.816 375.528 168.005 375.528 Q162.195 375.528 159.117 370.945 Q156.061 366.338 156.061 357.611 Q156.061 348.861 159.117 344.278 Q162.195 339.672 168.005 339.672 Z" fill="#000000" fill-rule="nonzero" fill-opacity="1" /><polyline clip-path="url(#clip332)" style="stroke:#009af9; stroke-linecap:round; stroke-linejoin:round; stroke-width:4; stroke-opacity:1; fill:none" points="276.425,87.9763 500.409,1394.78 724.393,1444.1 948.377,1445.66 1172.36,1445.71 1396.34,1445.72 1620.33,1445.72 1844.31,1445.72 2068.3,1445.72 2292.28,1445.72 "/>
<path clip-path="url(#clip330)" d="M1364.15 198.898 L2281.53 198.898 L2281.53 95.2176 L1364.15 95.2176  Z" fill="#ffffff" fill-rule="evenodd" fill-opacity="1"/>
<polyline clip-path="url(#clip330)" style="stroke:#000000; stroke-linecap:round; stroke-linejoin:round; stroke-width:4; stroke-opacity:1; fill:none" points="1364.15,198.898 2281.53,198.898 2281.53,95.2176 1364.15,95.2176 1364.15,198.898 "/>
<polyline clip-path="url(#clip330)" style="stroke:#009af9; stroke-linecap:round; stroke-linejoin:round; stroke-width:4; stroke-opacity:1; fill:none" points="1387.89,147.058 1530.34,147.058 "/>
<path clip-path="url(#clip330)" d="M1558.76 147.833 L1558.76 160.495 L1566.26 160.495 Q1570.04 160.495 1571.84 158.944 Q1573.67 157.37 1573.67 154.152 Q1573.67 150.912 1571.84 149.384 Q1570.04 147.833 1566.26 147.833 L1558.76 147.833 M1558.76 133.62 L1558.76 144.037 L1565.68 144.037 Q1569.11 144.037 1570.78 142.764 Q1572.47 141.467 1572.47 138.828 Q1572.47 136.213 1570.78 134.916 Q1569.11 133.62 1565.68 133.62 L1558.76 133.62 M1554.09 129.778 L1566.03 129.778 Q1571.38 129.778 1574.27 132 Q1577.17 134.222 1577.17 138.319 Q1577.17 141.49 1575.68 143.365 Q1574.2 145.24 1571.33 145.703 Q1574.78 146.444 1576.68 148.805 Q1578.6 151.143 1578.6 154.662 Q1578.6 159.291 1575.45 161.814 Q1572.3 164.338 1566.49 164.338 L1554.09 164.338 L1554.09 129.778 Z" fill="#000000" fill-rule="nonzero" fill-opacity="1" /><path clip-path="url(#clip330)" d="M1608.6 150.31 L1608.6 152.393 L1589.02 152.393 Q1589.29 156.791 1591.66 159.106 Q1594.04 161.398 1598.28 161.398 Q1600.73 161.398 1603.02 160.796 Q1605.34 160.194 1607.61 158.99 L1607.61 163.018 Q1605.31 163.99 1602.91 164.5 Q1600.5 165.009 1598.02 165.009 Q1591.82 165.009 1588.18 161.398 Q1584.57 157.787 1584.57 151.629 Q1584.57 145.264 1588 141.537 Q1591.45 137.787 1597.28 137.787 Q1602.51 137.787 1605.54 141.166 Q1608.6 144.523 1608.6 150.31 M1604.34 149.06 Q1604.29 145.565 1602.37 143.481 Q1600.48 141.398 1597.33 141.398 Q1593.76 141.398 1591.61 143.412 Q1589.48 145.426 1589.16 149.083 L1604.34 149.06 Z" fill="#000000" fill-rule="nonzero" fill-opacity="1" /><path clip-path="url(#clip330)" d="M1619.8 131.051 L1619.8 138.412 L1628.58 138.412 L1628.58 141.722 L1619.8 141.722 L1619.8 155.796 Q1619.8 158.967 1620.66 159.87 Q1621.54 160.773 1624.2 160.773 L1628.58 160.773 L1628.58 164.338 L1624.2 164.338 Q1619.27 164.338 1617.4 162.509 Q1615.52 160.657 1615.52 155.796 L1615.52 141.722 L1612.4 141.722 L1612.4 138.412 L1615.52 138.412 L1615.52 131.051 L1619.8 131.051 Z" fill="#000000" fill-rule="nonzero" fill-opacity="1" /><path clip-path="url(#clip330)" d="M1655.73 148.689 L1655.73 164.338 L1651.47 164.338 L1651.47 148.828 Q1651.47 145.148 1650.04 143.319 Q1648.6 141.49 1645.73 141.49 Q1642.28 141.49 1640.29 143.69 Q1638.3 145.889 1638.3 149.685 L1638.3 164.338 L1634.02 164.338 L1634.02 128.319 L1638.3 128.319 L1638.3 142.44 Q1639.83 140.102 1641.89 138.944 Q1643.97 137.787 1646.68 137.787 Q1651.15 137.787 1653.44 140.565 Q1655.73 143.319 1655.73 148.689 Z" fill="#000000" fill-rule="nonzero" fill-opacity="1" /><path clip-path="url(#clip330)" d="M1686.4 150.31 L1686.4 152.393 L1666.82 152.393 Q1667.1 156.791 1669.46 159.106 Q1671.84 161.398 1676.08 161.398 Q1678.53 161.398 1680.82 160.796 Q1683.14 160.194 1685.41 158.99 L1685.41 163.018 Q1683.11 163.99 1680.71 164.5 Q1678.3 165.009 1675.82 165.009 Q1669.62 165.009 1665.98 161.398 Q1662.37 157.787 1662.37 151.629 Q1662.37 145.264 1665.8 141.537 Q1669.25 137.787 1675.08 137.787 Q1680.31 137.787 1683.35 141.166 Q1686.4 144.523 1686.4 150.31 M1682.14 149.06 Q1682.1 145.565 1680.17 143.481 Q1678.28 141.398 1675.13 141.398 Q1671.56 141.398 1669.41 143.412 Q1667.28 145.426 1666.96 149.083 L1682.14 149.06 Z" fill="#000000" fill-rule="nonzero" fill-opacity="1" /><path clip-path="url(#clip330)" d="M1708.65 129.778 L1728.51 129.778 L1728.51 133.713 L1713.32 133.713 L1713.32 143.898 L1727.03 143.898 L1727.03 147.833 L1713.32 147.833 L1713.32 164.338 L1708.65 164.338 L1708.65 129.778 Z" fill="#000000" fill-rule="nonzero" fill-opacity="1" /><path clip-path="url(#clip330)" d="M1747.3 142.393 Q1746.59 141.977 1745.73 141.791 Q1744.9 141.583 1743.88 141.583 Q1740.27 141.583 1738.32 143.944 Q1736.4 146.282 1736.4 150.68 L1736.4 164.338 L1732.12 164.338 L1732.12 138.412 L1736.4 138.412 L1736.4 142.44 Q1737.74 140.078 1739.9 138.944 Q1742.05 137.787 1745.13 137.787 Q1745.57 137.787 1746.1 137.856 Q1746.63 137.903 1747.28 138.018 L1747.3 142.393 Z" fill="#000000" fill-rule="nonzero" fill-opacity="1" /><path clip-path="url(#clip330)" d="M1772.91 150.31 L1772.91 152.393 L1753.32 152.393 Q1753.6 156.791 1755.96 159.106 Q1758.34 161.398 1762.58 161.398 Q1765.03 161.398 1767.33 160.796 Q1769.64 160.194 1771.91 158.99 L1771.91 163.018 Q1769.62 163.99 1767.21 164.5 Q1764.8 165.009 1762.33 165.009 Q1756.12 165.009 1752.49 161.398 Q1748.88 157.787 1748.88 151.629 Q1748.88 145.264 1752.3 141.537 Q1755.75 137.787 1761.59 137.787 Q1766.82 137.787 1769.85 141.166 Q1772.91 144.523 1772.91 150.31 M1768.65 149.06 Q1768.6 145.565 1766.68 143.481 Q1764.78 141.398 1761.63 141.398 Q1758.07 141.398 1755.91 143.412 Q1753.78 145.426 1753.46 149.083 L1768.65 149.06 Z" fill="#000000" fill-rule="nonzero" fill-opacity="1" /><path clip-path="url(#clip330)" d="M1802.07 150.31 L1802.07 152.393 L1782.49 152.393 Q1782.77 156.791 1785.13 159.106 Q1787.51 161.398 1791.75 161.398 Q1794.2 161.398 1796.49 160.796 Q1798.81 160.194 1801.08 158.99 L1801.08 163.018 Q1798.78 163.99 1796.38 164.5 Q1793.97 165.009 1791.49 165.009 Q1785.29 165.009 1781.66 161.398 Q1778.04 157.787 1778.04 151.629 Q1778.04 145.264 1781.47 141.537 Q1784.92 137.787 1790.75 137.787 Q1795.98 137.787 1799.02 141.166 Q1802.07 144.523 1802.07 150.31 M1797.81 149.06 Q1797.77 145.565 1795.84 143.481 Q1793.95 141.398 1790.8 141.398 Q1787.23 141.398 1785.08 143.412 Q1782.95 145.426 1782.63 149.083 L1797.81 149.06 Z" fill="#000000" fill-rule="nonzero" fill-opacity="1" /><path clip-path="url(#clip330)" d="M1824.32 129.778 L1846.17 129.778 L1846.17 133.713 L1828.99 133.713 L1828.99 143.944 L1845.45 143.944 L1845.45 147.879 L1828.99 147.879 L1828.99 160.402 L1846.59 160.402 L1846.59 164.338 L1824.32 164.338 L1824.32 129.778 Z" fill="#000000" fill-rule="nonzero" fill-opacity="1" /><path clip-path="url(#clip330)" d="M1875.64 148.689 L1875.64 164.338 L1871.38 164.338 L1871.38 148.828 Q1871.38 145.148 1869.94 143.319 Q1868.51 141.49 1865.64 141.49 Q1862.19 141.49 1860.2 143.69 Q1858.21 145.889 1858.21 149.685 L1858.21 164.338 L1853.92 164.338 L1853.92 138.412 L1858.21 138.412 L1858.21 142.44 Q1859.73 140.102 1861.79 138.944 Q1863.88 137.787 1866.59 137.787 Q1871.05 137.787 1873.34 140.565 Q1875.64 143.319 1875.64 148.689 Z" fill="#000000" fill-rule="nonzero" fill-opacity="1" /><path clip-path="url(#clip330)" d="M1906.31 150.31 L1906.31 152.393 L1886.72 152.393 Q1887 156.791 1889.36 159.106 Q1891.75 161.398 1895.98 161.398 Q1898.44 161.398 1900.73 160.796 Q1903.04 160.194 1905.31 158.99 L1905.31 163.018 Q1903.02 163.99 1900.61 164.5 Q1898.21 165.009 1895.73 165.009 Q1889.52 165.009 1885.89 161.398 Q1882.28 157.787 1882.28 151.629 Q1882.28 145.264 1885.71 141.537 Q1889.15 137.787 1894.99 137.787 Q1900.22 137.787 1903.25 141.166 Q1906.31 144.523 1906.31 150.31 M1902.05 149.06 Q1902 145.565 1900.08 143.481 Q1898.18 141.398 1895.03 141.398 Q1891.47 141.398 1889.32 143.412 Q1887.19 145.426 1886.86 149.083 L1902.05 149.06 Z" fill="#000000" fill-rule="nonzero" fill-opacity="1" /><path clip-path="url(#clip330)" d="M1928.32 142.393 Q1927.6 141.977 1926.75 141.791 Q1925.91 141.583 1924.9 141.583 Q1921.28 141.583 1919.34 143.944 Q1917.42 146.282 1917.42 150.68 L1917.42 164.338 L1913.14 164.338 L1913.14 138.412 L1917.42 138.412 L1917.42 142.44 Q1918.76 140.078 1920.91 138.944 Q1923.07 137.787 1926.15 137.787 Q1926.58 137.787 1927.12 137.856 Q1927.65 137.903 1928.3 138.018 L1928.32 142.393 Z" fill="#000000" fill-rule="nonzero" fill-opacity="1" /><path clip-path="url(#clip330)" d="M1949.02 151.074 Q1949.02 146.444 1947.09 143.898 Q1945.2 141.352 1941.75 141.352 Q1938.32 141.352 1936.4 143.898 Q1934.5 146.444 1934.5 151.074 Q1934.5 155.68 1936.4 158.226 Q1938.32 160.773 1941.75 160.773 Q1945.2 160.773 1947.09 158.226 Q1949.02 155.68 1949.02 151.074 M1953.27 161.12 Q1953.27 167.74 1950.33 170.958 Q1947.39 174.199 1941.33 174.199 Q1939.08 174.199 1937.09 173.851 Q1935.1 173.527 1933.23 172.833 L1933.23 168.689 Q1935.1 169.708 1936.93 170.194 Q1938.76 170.68 1940.66 170.68 Q1944.85 170.68 1946.93 168.481 Q1949.02 166.305 1949.02 161.884 L1949.02 159.777 Q1947.7 162.069 1945.64 163.203 Q1943.58 164.338 1940.71 164.338 Q1935.94 164.338 1933.02 160.703 Q1930.1 157.069 1930.1 151.074 Q1930.1 145.055 1933.02 141.421 Q1935.94 137.787 1940.71 137.787 Q1943.58 137.787 1945.64 138.921 Q1947.7 140.055 1949.02 142.347 L1949.02 138.412 L1953.27 138.412 L1953.27 161.12 Z" fill="#000000" fill-rule="nonzero" fill-opacity="1" /><path clip-path="url(#clip330)" d="M1972.83 166.745 Q1971.03 171.375 1969.32 172.787 Q1967.6 174.199 1964.73 174.199 L1961.33 174.199 L1961.33 170.634 L1963.83 170.634 Q1965.59 170.634 1966.56 169.8 Q1967.53 168.967 1968.71 165.865 L1969.48 163.921 L1958.99 138.412 L1963.51 138.412 L1971.61 158.689 L1979.71 138.412 L1984.22 138.412 L1972.83 166.745 Z" fill="#000000" fill-rule="nonzero" fill-opacity="1" /><path clip-path="url(#clip330)" d="M2015.4 128.366 Q2012.3 133.69 2010.8 138.898 Q2009.29 144.106 2009.29 149.453 Q2009.29 154.801 2010.8 160.055 Q2012.33 165.287 2015.4 170.588 L2011.7 170.588 Q2008.23 165.148 2006.49 159.893 Q2004.78 154.639 2004.78 149.453 Q2004.78 144.291 2006.49 139.06 Q2008.2 133.828 2011.7 128.366 L2015.4 128.366 Z" fill="#000000" fill-rule="nonzero" fill-opacity="1" /><path clip-path="url(#clip330)" d="M2035.45 151.305 Q2030.29 151.305 2028.3 152.486 Q2026.31 153.666 2026.31 156.514 Q2026.31 158.782 2027.79 160.125 Q2029.29 161.444 2031.86 161.444 Q2035.4 161.444 2037.53 158.944 Q2039.69 156.421 2039.69 152.254 L2039.69 151.305 L2035.45 151.305 M2043.95 149.546 L2043.95 164.338 L2039.69 164.338 L2039.69 160.402 Q2038.23 162.763 2036.05 163.898 Q2033.88 165.009 2030.73 165.009 Q2026.75 165.009 2024.39 162.787 Q2022.05 160.541 2022.05 156.791 Q2022.05 152.416 2024.96 150.194 Q2027.9 147.972 2033.71 147.972 L2039.69 147.972 L2039.69 147.555 Q2039.69 144.615 2037.74 143.018 Q2035.82 141.398 2032.32 141.398 Q2030.1 141.398 2028 141.93 Q2025.89 142.463 2023.95 143.527 L2023.95 139.592 Q2026.28 138.69 2028.48 138.25 Q2030.68 137.787 2032.76 137.787 Q2038.39 137.787 2041.17 140.703 Q2043.95 143.62 2043.95 149.546 Z" fill="#000000" fill-rule="nonzero" fill-opacity="1" /><path clip-path="url(#clip330)" d="M2049.66 138.412 L2054.18 138.412 L2062.28 160.171 L2070.38 138.412 L2074.89 138.412 L2065.17 164.338 L2059.39 164.338 L2049.66 138.412 Z" fill="#000000" fill-rule="nonzero" fill-opacity="1" /><path clip-path="url(#clip330)" d="M2102.95 150.31 L2102.95 152.393 L2083.37 152.393 Q2083.64 156.791 2086.01 159.106 Q2088.39 161.398 2092.63 161.398 Q2095.08 161.398 2097.37 160.796 Q2099.69 160.194 2101.95 158.99 L2101.95 163.018 Q2099.66 163.99 2097.26 164.5 Q2094.85 165.009 2092.37 165.009 Q2086.17 165.009 2082.53 161.398 Q2078.92 157.787 2078.92 151.629 Q2078.92 145.264 2082.35 141.537 Q2085.8 137.787 2091.63 137.787 Q2096.86 137.787 2099.89 141.166 Q2102.95 144.523 2102.95 150.31 M2098.69 149.06 Q2098.64 145.565 2096.72 143.481 Q2094.82 141.398 2091.68 141.398 Q2088.11 141.398 2085.96 143.412 Q2083.83 145.426 2083.51 149.083 L2098.69 149.06 Z" fill="#000000" fill-rule="nonzero" fill-opacity="1" /><path clip-path="url(#clip330)" d="M2124.96 142.393 Q2124.25 141.977 2123.39 141.791 Q2122.56 141.583 2121.54 141.583 Q2117.93 141.583 2115.98 143.944 Q2114.06 146.282 2114.06 150.68 L2114.06 164.338 L2109.78 164.338 L2109.78 138.412 L2114.06 138.412 L2114.06 142.44 Q2115.4 140.078 2117.56 138.944 Q2119.71 137.787 2122.79 137.787 Q2123.23 137.787 2123.76 137.856 Q2124.29 137.903 2124.94 138.018 L2124.96 142.393 Z" fill="#000000" fill-rule="nonzero" fill-opacity="1" /><path clip-path="url(#clip330)" d="M2141.21 151.305 Q2136.05 151.305 2134.06 152.486 Q2132.07 153.666 2132.07 156.514 Q2132.07 158.782 2133.55 160.125 Q2135.06 161.444 2137.63 161.444 Q2141.17 161.444 2143.3 158.944 Q2145.45 156.421 2145.45 152.254 L2145.45 151.305 L2141.21 151.305 M2149.71 149.546 L2149.71 164.338 L2145.45 164.338 L2145.45 160.402 Q2143.99 162.763 2141.82 163.898 Q2139.64 165.009 2136.49 165.009 Q2132.51 165.009 2130.15 162.787 Q2127.81 160.541 2127.81 156.791 Q2127.81 152.416 2130.73 150.194 Q2133.67 147.972 2139.48 147.972 L2145.45 147.972 L2145.45 147.555 Q2145.45 144.615 2143.5 143.018 Q2141.58 141.398 2138.09 141.398 Q2135.87 141.398 2133.76 141.93 Q2131.65 142.463 2129.71 143.527 L2129.71 139.592 Q2132.05 138.69 2134.25 138.25 Q2136.44 137.787 2138.53 137.787 Q2144.15 137.787 2146.93 140.703 Q2149.71 143.62 2149.71 149.546 Z" fill="#000000" fill-rule="nonzero" fill-opacity="1" /><path clip-path="url(#clip330)" d="M2175.54 151.074 Q2175.54 146.444 2173.62 143.898 Q2171.72 141.352 2168.27 141.352 Q2164.85 141.352 2162.93 143.898 Q2161.03 146.444 2161.03 151.074 Q2161.03 155.68 2162.93 158.226 Q2164.85 160.773 2168.27 160.773 Q2171.72 160.773 2173.62 158.226 Q2175.54 155.68 2175.54 151.074 M2179.8 161.12 Q2179.8 167.74 2176.86 170.958 Q2173.92 174.199 2167.86 174.199 Q2165.61 174.199 2163.62 173.851 Q2161.63 173.527 2159.75 172.833 L2159.75 168.689 Q2161.63 169.708 2163.46 170.194 Q2165.29 170.68 2167.19 170.68 Q2171.38 170.68 2173.46 168.481 Q2175.54 166.305 2175.54 161.884 L2175.54 159.777 Q2174.22 162.069 2172.16 163.203 Q2170.1 164.338 2167.23 164.338 Q2162.46 164.338 2159.55 160.703 Q2156.63 157.069 2156.63 151.074 Q2156.63 145.055 2159.55 141.421 Q2162.46 137.787 2167.23 137.787 Q2170.1 137.787 2172.16 138.921 Q2174.22 140.055 2175.54 142.347 L2175.54 138.412 L2179.8 138.412 L2179.8 161.12 Z" fill="#000000" fill-rule="nonzero" fill-opacity="1" /><path clip-path="url(#clip330)" d="M2210.75 150.31 L2210.75 152.393 L2191.17 152.393 Q2191.44 156.791 2193.81 159.106 Q2196.19 161.398 2200.43 161.398 Q2202.88 161.398 2205.17 160.796 Q2207.49 160.194 2209.75 158.99 L2209.75 163.018 Q2207.46 163.99 2205.06 164.5 Q2202.65 165.009 2200.17 165.009 Q2193.97 165.009 2190.33 161.398 Q2186.72 157.787 2186.72 151.629 Q2186.72 145.264 2190.15 141.537 Q2193.6 137.787 2199.43 137.787 Q2204.66 137.787 2207.69 141.166 Q2210.75 144.523 2210.75 150.31 M2206.49 149.06 Q2206.44 145.565 2204.52 143.481 Q2202.63 141.398 2199.48 141.398 Q2195.91 141.398 2193.76 143.412 Q2191.63 145.426 2191.31 149.083 L2206.49 149.06 Z" fill="#000000" fill-rule="nonzero" fill-opacity="1" /><path clip-path="url(#clip330)" d="M2234.8 142.347 L2234.8 128.319 L2239.06 128.319 L2239.06 164.338 L2234.8 164.338 L2234.8 160.449 Q2233.46 162.763 2231.4 163.898 Q2229.36 165.009 2226.49 165.009 Q2221.79 165.009 2218.83 161.259 Q2215.89 157.509 2215.89 151.398 Q2215.89 145.287 2218.83 141.537 Q2221.79 137.787 2226.49 137.787 Q2229.36 137.787 2231.4 138.921 Q2233.46 140.032 2234.8 142.347 M2220.29 151.398 Q2220.29 156.097 2222.21 158.782 Q2224.15 161.444 2227.53 161.444 Q2230.91 161.444 2232.86 158.782 Q2234.8 156.097 2234.8 151.398 Q2234.8 146.699 2232.86 144.037 Q2230.91 141.352 2227.53 141.352 Q2224.15 141.352 2222.21 144.037 Q2220.29 146.699 2220.29 151.398 Z" fill="#000000" fill-rule="nonzero" fill-opacity="1" /><path clip-path="url(#clip330)" d="M2247.16 128.366 L2250.87 128.366 Q2254.34 133.828 2256.05 139.06 Q2257.79 144.291 2257.79 149.453 Q2257.79 154.639 2256.05 159.893 Q2254.34 165.148 2250.87 170.588 L2247.16 170.588 Q2250.24 165.287 2251.75 160.055 Q2253.27 154.801 2253.27 149.453 Q2253.27 144.106 2251.75 138.898 Q2250.24 133.69 2247.16 128.366 Z" fill="#000000" fill-rule="nonzero" fill-opacity="1" /></svg>
