<?xml version="1.0" encoding="utf-8"?>
<svg xmlns="http://www.w3.org/2000/svg" xmlns:xlink="http://www.w3.org/1999/xlink" width="600" height="400" viewBox="0 0 2400 1600">
<defs>
  <clipPath id="clip100">
    <rect x="0" y="0" width="2400" height="1600"/>
  </clipPath>
</defs>
<path clip-path="url(#clip100)" d="M0 1600 L2400 1600 L2400 0 L0 0  Z" fill="#ffffff" fill-rule="evenodd" fill-opacity="1"/>
<defs>
  <clipPath id="clip101">
    <rect x="480" y="0" width="1681" height="1600"/>
  </clipPath>
</defs>
<path clip-path="url(#clip100)" d="M232.389 1423.18 L2352.76 1423.18 L2352.76 123.472 L232.389 123.472  Z" fill="#ffffff" fill-rule="evenodd" fill-opacity="1"/>
<defs>
  <clipPath id="clip102">
    <rect x="232" y="123" width="2121" height="1301"/>
  </clipPath>
</defs>
<polyline clip-path="url(#clip102)" style="stroke:#000000; stroke-linecap:round; stroke-linejoin:round; stroke-width:2; stroke-opacity:0.1; fill:none" points="284.366,1423.18 284.366,123.472 "/>
<polyline clip-path="url(#clip102)" style="stroke:#000000; stroke-linecap:round; stroke-linejoin:round; stroke-width:2; stroke-opacity:0.1; fill:none" points="686.042,1423.18 686.042,123.472 "/>
<polyline clip-path="url(#clip102)" style="stroke:#000000; stroke-linecap:round; stroke-linejoin:round; stroke-width:2; stroke-opacity:0.1; fill:none" points="1087.72,1423.18 1087.72,123.472 "/>
<polyline clip-path="url(#clip102)" style="stroke:#000000; stroke-linecap:round; stroke-linejoin:round; stroke-width:2; stroke-opacity:0.1; fill:none" points="1489.39,1423.18 1489.39,123.472 "/>
<polyline clip-path="url(#clip102)" style="stroke:#000000; stroke-linecap:round; stroke-linejoin:round; stroke-width:2; stroke-opacity:0.1; fill:none" points="1891.07,1423.18 1891.07,123.472 "/>
<polyline clip-path="url(#clip102)" style="stroke:#000000; stroke-linecap:round; stroke-linejoin:round; stroke-width:2; stroke-opacity:0.1; fill:none" points="2292.75,1423.18 2292.75,123.472 "/>
<polyline clip-path="url(#clip102)" style="stroke:#000000; stroke-linecap:round; stroke-linejoin:round; stroke-width:2; stroke-opacity:0.1; fill:none" points="232.389,1237.6 2352.76,1237.6 "/>
<polyline clip-path="url(#clip102)" style="stroke:#000000; stroke-linecap:round; stroke-linejoin:round; stroke-width:2; stroke-opacity:0.1; fill:none" points="232.389,1041.5 2352.76,1041.5 "/>
<polyline clip-path="url(#clip102)" style="stroke:#000000; stroke-linecap:round; stroke-linejoin:round; stroke-width:2; stroke-opacity:0.1; fill:none" points="232.389,845.398 2352.76,845.398 "/>
<polyline clip-path="url(#clip102)" style="stroke:#000000; stroke-linecap:round; stroke-linejoin:round; stroke-width:2; stroke-opacity:0.1; fill:none" points="232.389,649.297 2352.76,649.297 "/>
<polyline clip-path="url(#clip102)" style="stroke:#000000; stroke-linecap:round; stroke-linejoin:round; stroke-width:2; stroke-opacity:0.1; fill:none" points="232.389,453.197 2352.76,453.197 "/>
<polyline clip-path="url(#clip102)" style="stroke:#000000; stroke-linecap:round; stroke-linejoin:round; stroke-width:2; stroke-opacity:0.1; fill:none" points="232.389,257.097 2352.76,257.097 "/>
<polyline clip-path="url(#clip100)" style="stroke:#000000; stroke-linecap:round; stroke-linejoin:round; stroke-width:4; stroke-opacity:1; fill:none" points="232.389,1423.18 2352.76,1423.18 "/>
<polyline clip-path="url(#clip100)" style="stroke:#000000; stroke-linecap:round; stroke-linejoin:round; stroke-width:4; stroke-opacity:1; fill:none" points="284.366,1423.18 284.366,1404.28 "/>
<polyline clip-path="url(#clip100)" style="stroke:#000000; stroke-linecap:round; stroke-linejoin:round; stroke-width:4; stroke-opacity:1; fill:none" points="686.042,1423.18 686.042,1404.28 "/>
<polyline clip-path="url(#clip100)" style="stroke:#000000; stroke-linecap:round; stroke-linejoin:round; stroke-width:4; stroke-opacity:1; fill:none" points="1087.72,1423.18 1087.72,1404.28 "/>
<polyline clip-path="url(#clip100)" style="stroke:#000000; stroke-linecap:round; stroke-linejoin:round; stroke-width:4; stroke-opacity:1; fill:none" points="1489.39,1423.18 1489.39,1404.28 "/>
<polyline clip-path="url(#clip100)" style="stroke:#000000; stroke-linecap:round; stroke-linejoin:round; stroke-width:4; stroke-opacity:1; fill:none" points="1891.07,1423.18 1891.07,1404.28 "/>
<polyline clip-path="url(#clip100)" style="stroke:#000000; stroke-linecap:round; stroke-linejoin:round; stroke-width:4; stroke-opacity:1; fill:none" points="2292.75,1423.18 2292.75,1404.28 "/>
<path clip-path="url(#clip100)" d="M284.366 1454.1 Q280.755 1454.1 278.926 1457.66 Q277.121 1461.2 277.121 1468.33 Q277.121 1475.44 278.926 1479.01 Q280.755 1482.55 284.366 1482.55 Q288 1482.55 289.806 1479.01 Q291.635 1475.44 291.635 1468.33 Q291.635 1461.2 289.806 1457.66 Q288 1454.1 284.366 1454.1 M284.366 1450.39 Q290.176 1450.39 293.232 1455 Q296.311 1459.58 296.311 1468.33 Q296.311 1477.06 293.232 1481.67 Q290.176 1486.25 284.366 1486.25 Q278.556 1486.25 275.477 1481.67 Q272.422 1477.06 272.422 1468.33 Q272.422 1459.58 275.477 1455 Q278.556 1450.39 284.366 1450.39 Z" fill="#000000" fill-rule="nonzero" fill-opacity="1" /><path clip-path="url(#clip100)" d="M660.741 1451.02 L679.098 1451.02 L679.098 1454.96 L665.024 1454.96 L665.024 1463.43 Q666.042 1463.08 667.061 1462.92 Q668.079 1462.73 669.098 1462.73 Q674.885 1462.73 678.264 1465.9 Q681.644 1469.08 681.644 1474.49 Q681.644 1480.07 678.172 1483.17 Q674.7 1486.25 668.38 1486.25 Q666.204 1486.25 663.936 1485.88 Q661.69 1485.51 659.283 1484.77 L659.283 1480.07 Q661.366 1481.2 663.588 1481.76 Q665.811 1482.32 668.288 1482.32 Q672.292 1482.32 674.63 1480.21 Q676.968 1478.1 676.968 1474.49 Q676.968 1470.88 674.63 1468.77 Q672.292 1466.67 668.288 1466.67 Q666.413 1466.67 664.538 1467.08 Q662.686 1467.5 660.741 1468.38 L660.741 1451.02 Z" fill="#000000" fill-rule="nonzero" fill-opacity="1" /><path clip-path="url(#clip100)" d="M700.857 1454.1 Q697.246 1454.1 695.417 1457.66 Q693.611 1461.2 693.611 1468.33 Q693.611 1475.44 695.417 1479.01 Q697.246 1482.55 700.857 1482.55 Q704.491 1482.55 706.297 1479.01 Q708.125 1475.44 708.125 1468.33 Q708.125 1461.2 706.297 1457.66 Q704.491 1454.1 700.857 1454.1 M700.857 1450.39 Q706.667 1450.39 709.722 1455 Q712.801 1459.58 712.801 1468.33 Q712.801 1477.06 709.722 1481.67 Q706.667 1486.25 700.857 1486.25 Q695.047 1486.25 691.968 1481.67 Q688.912 1477.06 688.912 1468.33 Q688.912 1459.58 691.968 1455 Q695.047 1450.39 700.857 1450.39 Z" fill="#000000" fill-rule="nonzero" fill-opacity="1" /><path clip-path="url(#clip100)" d="M1047.32 1481.64 L1054.96 1481.64 L1054.96 1455.28 L1046.65 1456.95 L1046.65 1452.69 L1054.92 1451.02 L1059.59 1451.02 L1059.59 1481.64 L1067.23 1481.64 L1067.23 1485.58 L1047.32 1485.58 L1047.32 1481.64 Z" fill="#000000" fill-rule="nonzero" fill-opacity="1" /><path clip-path="url(#clip100)" d="M1086.68 1454.1 Q1083.07 1454.1 1081.24 1457.66 Q1079.43 1461.2 1079.43 1468.33 Q1079.43 1475.44 1081.24 1479.01 Q1083.07 1482.55 1086.68 1482.55 Q1090.31 1482.55 1092.12 1479.01 Q1093.94 1475.44 1093.94 1468.33 Q1093.94 1461.2 1092.12 1457.66 Q1090.31 1454.1 1086.68 1454.1 M1086.68 1450.39 Q1092.49 1450.39 1095.54 1455 Q1098.62 1459.58 1098.62 1468.33 Q1098.62 1477.06 1095.54 1481.67 Q1092.49 1486.25 1086.68 1486.25 Q1080.87 1486.25 1077.79 1481.67 Q1074.73 1477.06 1074.73 1468.33 Q1074.73 1459.58 1077.79 1455 Q1080.87 1450.39 1086.68 1450.39 Z" fill="#000000" fill-rule="nonzero" fill-opacity="1" /><path clip-path="url(#clip100)" d="M1116.84 1454.1 Q1113.23 1454.1 1111.4 1457.66 Q1109.59 1461.2 1109.59 1468.33 Q1109.59 1475.44 1111.4 1479.01 Q1113.23 1482.55 1116.84 1482.55 Q1120.47 1482.55 1122.28 1479.01 Q1124.11 1475.44 1124.11 1468.33 Q1124.11 1461.2 1122.28 1457.66 Q1120.47 1454.1 1116.84 1454.1 M1116.84 1450.39 Q1122.65 1450.39 1125.7 1455 Q1128.78 1459.58 1128.78 1468.33 Q1128.78 1477.06 1125.7 1481.67 Q1122.65 1486.25 1116.84 1486.25 Q1111.03 1486.25 1107.95 1481.67 Q1104.89 1477.06 1104.89 1468.33 Q1104.89 1459.58 1107.95 1455 Q1111.03 1450.39 1116.84 1450.39 Z" fill="#000000" fill-rule="nonzero" fill-opacity="1" /><path clip-path="url(#clip100)" d="M1449 1481.64 L1456.64 1481.64 L1456.64 1455.28 L1448.33 1456.95 L1448.33 1452.69 L1456.59 1451.02 L1461.27 1451.02 L1461.27 1481.64 L1468.91 1481.64 L1468.91 1485.58 L1449 1485.58 L1449 1481.64 Z" fill="#000000" fill-rule="nonzero" fill-opacity="1" /><path clip-path="url(#clip100)" d="M1478.4 1451.02 L1496.75 1451.02 L1496.75 1454.96 L1482.68 1454.96 L1482.68 1463.43 Q1483.7 1463.08 1484.72 1462.92 Q1485.74 1462.73 1486.75 1462.73 Q1492.54 1462.73 1495.92 1465.9 Q1499.3 1469.08 1499.3 1474.49 Q1499.3 1480.07 1495.83 1483.17 Q1492.36 1486.25 1486.04 1486.25 Q1483.86 1486.25 1481.59 1485.88 Q1479.35 1485.51 1476.94 1484.77 L1476.94 1480.07 Q1479.02 1481.2 1481.25 1481.76 Q1483.47 1482.32 1485.94 1482.32 Q1489.95 1482.32 1492.29 1480.21 Q1494.63 1478.1 1494.63 1474.49 Q1494.63 1470.88 1492.29 1468.77 Q1489.95 1466.67 1485.94 1466.67 Q1484.07 1466.67 1482.19 1467.08 Q1480.34 1467.5 1478.4 1468.38 L1478.4 1451.02 Z" fill="#000000" fill-rule="nonzero" fill-opacity="1" /><path clip-path="url(#clip100)" d="M1518.51 1454.1 Q1514.9 1454.1 1513.07 1457.66 Q1511.27 1461.2 1511.27 1468.33 Q1511.27 1475.44 1513.07 1479.01 Q1514.9 1482.55 1518.51 1482.55 Q1522.15 1482.55 1523.95 1479.01 Q1525.78 1475.44 1525.78 1468.33 Q1525.78 1461.2 1523.95 1457.66 Q1522.15 1454.1 1518.51 1454.1 M1518.51 1450.39 Q1524.32 1450.39 1527.38 1455 Q1530.46 1459.58 1530.46 1468.33 Q1530.46 1477.06 1527.38 1481.67 Q1524.32 1486.25 1518.51 1486.25 Q1512.7 1486.25 1509.63 1481.67 Q1506.57 1477.06 1506.57 1468.33 Q1506.57 1459.58 1509.63 1455 Q1512.7 1450.39 1518.51 1450.39 Z" fill="#000000" fill-rule="nonzero" fill-opacity="1" /><path clip-path="url(#clip100)" d="M1854.76 1481.64 L1871.08 1481.64 L1871.08 1485.58 L1849.14 1485.58 L1849.14 1481.64 Q1851.8 1478.89 1856.38 1474.26 Q1860.99 1469.61 1862.17 1468.27 Q1864.41 1465.74 1865.29 1464.01 Q1866.2 1462.25 1866.2 1460.56 Q1866.2 1457.8 1864.25 1456.07 Q1862.33 1454.33 1859.23 1454.33 Q1857.03 1454.33 1854.58 1455.09 Q1852.15 1455.86 1849.37 1457.41 L1849.37 1452.69 Q1852.19 1451.55 1854.65 1450.97 Q1857.1 1450.39 1859.14 1450.39 Q1864.51 1450.39 1867.7 1453.08 Q1870.9 1455.77 1870.9 1460.26 Q1870.9 1462.39 1870.09 1464.31 Q1869.3 1466.2 1867.19 1468.8 Q1866.61 1469.47 1863.51 1472.69 Q1860.41 1475.88 1854.76 1481.64 Z" fill="#000000" fill-rule="nonzero" fill-opacity="1" /><path clip-path="url(#clip100)" d="M1890.9 1454.1 Q1887.28 1454.1 1885.46 1457.66 Q1883.65 1461.2 1883.65 1468.33 Q1883.65 1475.44 1885.46 1479.01 Q1887.28 1482.55 1890.9 1482.55 Q1894.53 1482.55 1896.34 1479.01 Q1898.16 1475.44 1898.16 1468.33 Q1898.16 1461.2 1896.34 1457.66 Q1894.53 1454.1 1890.9 1454.1 M1890.9 1450.39 Q1896.71 1450.39 1899.76 1455 Q1902.84 1459.58 1902.84 1468.33 Q1902.84 1477.06 1899.76 1481.67 Q1896.71 1486.25 1890.9 1486.25 Q1885.09 1486.25 1882.01 1481.67 Q1878.95 1477.06 1878.95 1468.33 Q1878.95 1459.58 1882.01 1455 Q1885.09 1450.39 1890.9 1450.39 Z" fill="#000000" fill-rule="nonzero" fill-opacity="1" /><path clip-path="url(#clip100)" d="M1921.06 1454.1 Q1917.45 1454.1 1915.62 1457.66 Q1913.81 1461.2 1913.81 1468.33 Q1913.81 1475.44 1915.62 1479.01 Q1917.45 1482.55 1921.06 1482.55 Q1924.69 1482.55 1926.5 1479.01 Q1928.33 1475.44 1928.33 1468.33 Q1928.33 1461.2 1926.5 1457.66 Q1924.69 1454.1 1921.06 1454.1 M1921.06 1450.39 Q1926.87 1450.39 1929.92 1455 Q1933 1459.58 1933 1468.33 Q1933 1477.06 1929.92 1481.67 Q1926.87 1486.25 1921.06 1486.25 Q1915.25 1486.25 1912.17 1481.67 Q1909.11 1477.06 1909.11 1468.33 Q1909.11 1459.58 1912.17 1455 Q1915.25 1450.39 1921.06 1450.39 Z" fill="#000000" fill-rule="nonzero" fill-opacity="1" /><path clip-path="url(#clip100)" d="M2256.44 1481.64 L2272.76 1481.64 L2272.76 1485.58 L2250.81 1485.58 L2250.81 1481.64 Q2253.47 1478.89 2258.06 1474.26 Q2262.66 1469.61 2263.85 1468.27 Q2266.09 1465.74 2266.97 1464.01 Q2267.87 1462.25 2267.87 1460.56 Q2267.87 1457.8 2265.93 1456.07 Q2264.01 1454.33 2260.91 1454.33 Q2258.71 1454.33 2256.25 1455.09 Q2253.82 1455.86 2251.04 1457.41 L2251.04 1452.69 Q2253.87 1451.55 2256.32 1450.97 Q2258.78 1450.39 2260.81 1450.39 Q2266.18 1450.39 2269.38 1453.08 Q2272.57 1455.77 2272.57 1460.26 Q2272.57 1462.39 2271.76 1464.31 Q2270.97 1466.2 2268.87 1468.8 Q2268.29 1469.47 2265.19 1472.69 Q2262.09 1475.88 2256.44 1481.64 Z" fill="#000000" fill-rule="nonzero" fill-opacity="1" /><path clip-path="url(#clip100)" d="M2282.62 1451.02 L2300.97 1451.02 L2300.97 1454.96 L2286.9 1454.96 L2286.9 1463.43 Q2287.92 1463.08 2288.94 1462.92 Q2289.96 1462.73 2290.97 1462.73 Q2296.76 1462.73 2300.14 1465.9 Q2303.52 1469.08 2303.52 1474.49 Q2303.52 1480.07 2300.05 1483.17 Q2296.58 1486.25 2290.26 1486.25 Q2288.08 1486.25 2285.81 1485.88 Q2283.57 1485.51 2281.16 1484.77 L2281.16 1480.07 Q2283.24 1481.2 2285.47 1481.76 Q2287.69 1482.32 2290.16 1482.32 Q2294.17 1482.32 2296.51 1480.21 Q2298.85 1478.1 2298.85 1474.49 Q2298.85 1470.88 2296.51 1468.77 Q2294.17 1466.67 2290.16 1466.67 Q2288.29 1466.67 2286.41 1467.08 Q2284.56 1467.5 2282.62 1468.38 L2282.62 1451.02 Z" fill="#000000" fill-rule="nonzero" fill-opacity="1" /><path clip-path="url(#clip100)" d="M2322.73 1454.1 Q2319.12 1454.1 2317.29 1457.66 Q2315.49 1461.2 2315.49 1468.33 Q2315.49 1475.44 2317.29 1479.01 Q2319.12 1482.55 2322.73 1482.55 Q2326.37 1482.55 2328.17 1479.01 Q2330 1475.44 2330 1468.33 Q2330 1461.2 2328.17 1457.66 Q2326.37 1454.1 2322.73 1454.1 M2322.73 1450.39 Q2328.54 1450.39 2331.6 1455 Q2334.68 1459.58 2334.68 1468.33 Q2334.68 1477.06 2331.6 1481.67 Q2328.54 1486.25 2322.73 1486.25 Q2316.92 1486.25 2313.84 1481.67 Q2310.79 1477.06 2310.79 1468.33 Q2310.79 1459.58 2313.84 1455 Q2316.92 1450.39 2322.73 1450.39 Z" fill="#000000" fill-rule="nonzero" fill-opacity="1" /><path clip-path="url(#clip100)" d="M1226.1 1522.08 L1226.1 1528.35 Q1222.44 1526.6 1219.19 1525.74 Q1215.95 1524.88 1212.92 1524.88 Q1207.67 1524.88 1204.81 1526.92 Q1201.97 1528.96 1201.97 1532.71 Q1201.97 1535.87 1203.85 1537.49 Q1205.76 1539.08 1211.04 1540.07 L1214.93 1540.86 Q1222.12 1542.23 1225.53 1545.7 Q1228.96 1549.14 1228.96 1554.93 Q1228.96 1561.84 1224.32 1565.4 Q1219.7 1568.97 1210.76 1568.97 Q1207.38 1568.97 1203.56 1568.2 Q1199.78 1567.44 1195.7 1565.94 L1195.7 1559.32 Q1199.62 1561.52 1203.37 1562.63 Q1207.13 1563.75 1210.76 1563.75 Q1216.26 1563.75 1219.26 1561.58 Q1222.25 1559.42 1222.25 1555.41 Q1222.25 1551.91 1220.08 1549.93 Q1217.95 1547.96 1213.05 1546.97 L1209.13 1546.21 Q1201.94 1544.78 1198.73 1541.72 Q1195.51 1538.67 1195.51 1533.22 Q1195.51 1526.92 1199.94 1523.29 Q1204.39 1519.66 1212.19 1519.66 Q1215.53 1519.66 1219 1520.27 Q1222.47 1520.87 1226.1 1522.08 Z" fill="#000000" fill-rule="nonzero" fill-opacity="1" /><path clip-path="url(#clip100)" d="M1244.4 1562.7 L1244.4 1581.6 L1238.51 1581.6 L1238.51 1532.4 L1244.4 1532.4 L1244.4 1537.81 Q1246.25 1534.62 1249.05 1533.1 Q1251.88 1531.54 1255.79 1531.54 Q1262.29 1531.54 1266.33 1536.69 Q1270.4 1541.85 1270.4 1550.25 Q1270.4 1558.65 1266.33 1563.81 Q1262.29 1568.97 1255.79 1568.97 Q1251.88 1568.97 1249.05 1567.44 Q1246.25 1565.88 1244.4 1562.7 M1264.32 1550.25 Q1264.32 1543.79 1261.65 1540.13 Q1259.01 1536.44 1254.36 1536.44 Q1249.72 1536.44 1247.04 1540.13 Q1244.4 1543.79 1244.4 1550.25 Q1244.4 1556.71 1247.04 1560.4 Q1249.72 1564.07 1254.36 1564.07 Q1259.01 1564.07 1261.65 1560.4 Q1264.32 1556.71 1264.32 1550.25 Z" fill="#000000" fill-rule="nonzero" fill-opacity="1" /><path clip-path="url(#clip100)" d="M1310.6 1548.76 L1310.6 1551.62 L1283.68 1551.62 Q1284.06 1557.67 1287.31 1560.85 Q1290.58 1564 1296.41 1564 Q1299.78 1564 1302.93 1563.17 Q1306.12 1562.35 1309.23 1560.69 L1309.23 1566.23 Q1306.08 1567.57 1302.77 1568.27 Q1299.46 1568.97 1296.06 1568.97 Q1287.53 1568.97 1282.53 1564 Q1277.57 1559.04 1277.57 1550.57 Q1277.57 1541.82 1282.28 1536.69 Q1287.02 1531.54 1295.04 1531.54 Q1302.23 1531.54 1306.4 1536.18 Q1310.6 1540.8 1310.6 1548.76 M1304.75 1547.04 Q1304.68 1542.23 1302.04 1539.37 Q1299.43 1536.5 1295.1 1536.5 Q1290.2 1536.5 1287.24 1539.27 Q1284.31 1542.04 1283.87 1547.07 L1304.75 1547.04 Z" fill="#000000" fill-rule="nonzero" fill-opacity="1" /><path clip-path="url(#clip100)" d="M1350.71 1548.76 L1350.71 1551.62 L1323.78 1551.62 Q1324.16 1557.67 1327.41 1560.85 Q1330.69 1564 1336.51 1564 Q1339.89 1564 1343.04 1563.17 Q1346.22 1562.35 1349.34 1560.69 L1349.34 1566.23 Q1346.19 1567.57 1342.88 1568.27 Q1339.57 1568.97 1336.16 1568.97 Q1327.63 1568.97 1322.63 1564 Q1317.67 1559.04 1317.67 1550.57 Q1317.67 1541.82 1322.38 1536.69 Q1327.12 1531.54 1335.14 1531.54 Q1342.34 1531.54 1346.51 1536.18 Q1350.71 1540.8 1350.71 1548.76 M1344.85 1547.04 Q1344.79 1542.23 1342.15 1539.37 Q1339.54 1536.5 1335.21 1536.5 Q1330.31 1536.5 1327.35 1539.27 Q1324.42 1542.04 1323.97 1547.07 L1344.85 1547.04 Z" fill="#000000" fill-rule="nonzero" fill-opacity="1" /><path clip-path="url(#clip100)" d="M1383.78 1537.81 L1383.78 1518.52 L1389.63 1518.52 L1389.63 1568.04 L1383.78 1568.04 L1383.78 1562.7 Q1381.93 1565.88 1379.1 1567.44 Q1376.3 1568.97 1372.35 1568.97 Q1365.89 1568.97 1361.82 1563.81 Q1357.77 1558.65 1357.77 1550.25 Q1357.77 1541.85 1361.82 1536.69 Q1365.89 1531.54 1372.35 1531.54 Q1376.3 1531.54 1379.1 1533.1 Q1381.93 1534.62 1383.78 1537.81 M1363.82 1550.25 Q1363.82 1556.71 1366.46 1560.4 Q1369.14 1564.07 1373.78 1564.07 Q1378.43 1564.07 1381.1 1560.4 Q1383.78 1556.71 1383.78 1550.25 Q1383.78 1543.79 1381.1 1540.13 Q1378.43 1536.44 1373.78 1536.44 Q1369.14 1536.44 1366.46 1540.13 Q1363.82 1543.79 1363.82 1550.25 Z" fill="#000000" fill-rule="nonzero" fill-opacity="1" /><polyline clip-path="url(#clip100)" style="stroke:#000000; stroke-linecap:round; stroke-linejoin:round; stroke-width:4; stroke-opacity:1; fill:none" points="232.389,1423.18 232.389,123.472 "/>
<polyline clip-path="url(#clip100)" style="stroke:#000000; stroke-linecap:round; stroke-linejoin:round; stroke-width:4; stroke-opacity:1; fill:none" points="232.389,1237.6 251.287,1237.6 "/>
<polyline clip-path="url(#clip100)" style="stroke:#000000; stroke-linecap:round; stroke-linejoin:round; stroke-width:4; stroke-opacity:1; fill:none" points="232.389,1041.5 251.287,1041.5 "/>
<polyline clip-path="url(#clip100)" style="stroke:#000000; stroke-linecap:round; stroke-linejoin:round; stroke-width:4; stroke-opacity:1; fill:none" points="232.389,845.398 251.287,845.398 "/>
<polyline clip-path="url(#clip100)" style="stroke:#000000; stroke-linecap:round; stroke-linejoin:round; stroke-width:4; stroke-opacity:1; fill:none" points="232.389,649.297 251.287,649.297 "/>
<polyline clip-path="url(#clip100)" style="stroke:#000000; stroke-linecap:round; stroke-linejoin:round; stroke-width:4; stroke-opacity:1; fill:none" points="232.389,453.197 251.287,453.197 "/>
<polyline clip-path="url(#clip100)" style="stroke:#000000; stroke-linecap:round; stroke-linejoin:round; stroke-width:4; stroke-opacity:1; fill:none" points="232.389,257.097 251.287,257.097 "/>
<path clip-path="url(#clip100)" d="M157.13 1224.39 L145.325 1242.84 L157.13 1242.84 L157.13 1224.39 M155.903 1220.32 L161.783 1220.32 L161.783 1242.84 L166.714 1242.84 L166.714 1246.73 L161.783 1246.73 L161.783 1254.88 L157.13 1254.88 L157.13 1246.73 L141.529 1246.73 L141.529 1242.22 L155.903 1220.32 Z" fill="#000000" fill-rule="nonzero" fill-opacity="1" /><path clip-path="url(#clip100)" d="M184.445 1223.4 Q180.834 1223.4 179.005 1226.96 Q177.2 1230.5 177.2 1237.63 Q177.2 1244.74 179.005 1248.3 Q180.834 1251.85 184.445 1251.85 Q188.079 1251.85 189.885 1248.3 Q191.713 1244.74 191.713 1237.63 Q191.713 1230.5 189.885 1226.96 Q188.079 1223.4 184.445 1223.4 M184.445 1219.69 Q190.255 1219.69 193.311 1224.3 Q196.389 1228.88 196.389 1237.63 Q196.389 1246.36 193.311 1250.97 Q190.255 1255.55 184.445 1255.55 Q178.635 1255.55 175.556 1250.97 Q172.501 1246.36 172.501 1237.63 Q172.501 1228.88 175.556 1224.3 Q178.635 1219.69 184.445 1219.69 Z" fill="#000000" fill-rule="nonzero" fill-opacity="1" /><path clip-path="url(#clip100)" d="M154.862 1039.63 Q151.714 1039.63 149.862 1041.79 Q148.033 1043.94 148.033 1047.69 Q148.033 1051.42 149.862 1053.59 Q151.714 1055.75 154.862 1055.75 Q158.01 1055.75 159.839 1053.59 Q161.69 1051.42 161.69 1047.69 Q161.69 1043.94 159.839 1041.79 Q158.01 1039.63 154.862 1039.63 M164.144 1024.98 L164.144 1029.24 Q162.385 1028.41 160.579 1027.97 Q158.797 1027.53 157.038 1027.53 Q152.408 1027.53 149.954 1030.65 Q147.524 1033.78 147.177 1040.1 Q148.542 1038.08 150.603 1037.02 Q152.663 1035.93 155.14 1035.93 Q160.348 1035.93 163.357 1039.1 Q166.39 1042.25 166.39 1047.69 Q166.39 1053.01 163.241 1056.23 Q160.093 1059.45 154.862 1059.45 Q148.866 1059.45 145.695 1054.87 Q142.524 1050.26 142.524 1041.53 Q142.524 1033.34 146.413 1028.48 Q150.302 1023.59 156.853 1023.59 Q158.612 1023.59 160.394 1023.94 Q162.2 1024.29 164.144 1024.98 Z" fill="#000000" fill-rule="nonzero" fill-opacity="1" /><path clip-path="url(#clip100)" d="M184.445 1027.3 Q180.834 1027.3 179.005 1030.86 Q177.2 1034.4 177.2 1041.53 Q177.2 1048.64 179.005 1052.2 Q180.834 1055.75 184.445 1055.75 Q188.079 1055.75 189.885 1052.2 Q191.713 1048.64 191.713 1041.53 Q191.713 1034.4 189.885 1030.86 Q188.079 1027.3 184.445 1027.3 M184.445 1023.59 Q190.255 1023.59 193.311 1028.2 Q196.389 1032.78 196.389 1041.53 Q196.389 1050.26 193.311 1054.87 Q190.255 1059.45 184.445 1059.45 Q178.635 1059.45 175.556 1054.87 Q172.501 1050.26 172.501 1041.53 Q172.501 1032.78 175.556 1028.2 Q178.635 1023.59 184.445 1023.59 Z" fill="#000000" fill-rule="nonzero" fill-opacity="1" /><path clip-path="url(#clip100)" d="M154.283 846.266 Q150.95 846.266 149.028 848.048 Q147.13 849.83 147.13 852.955 Q147.13 856.08 149.028 857.863 Q150.95 859.645 154.283 859.645 Q157.616 859.645 159.538 857.863 Q161.459 856.057 161.459 852.955 Q161.459 849.83 159.538 848.048 Q157.64 846.266 154.283 846.266 M149.607 844.275 Q146.598 843.534 144.908 841.474 Q143.241 839.414 143.241 836.451 Q143.241 832.307 146.181 829.9 Q149.144 827.493 154.283 827.493 Q159.445 827.493 162.385 829.9 Q165.325 832.307 165.325 836.451 Q165.325 839.414 163.635 841.474 Q161.968 843.534 158.982 844.275 Q162.362 845.062 164.237 847.354 Q166.135 849.645 166.135 852.955 Q166.135 857.978 163.056 860.664 Q160.001 863.349 154.283 863.349 Q148.566 863.349 145.487 860.664 Q142.431 857.978 142.431 852.955 Q142.431 849.645 144.329 847.354 Q146.228 845.062 149.607 844.275 M147.894 836.891 Q147.894 839.576 149.561 841.08 Q151.251 842.585 154.283 842.585 Q157.292 842.585 158.982 841.08 Q160.695 839.576 160.695 836.891 Q160.695 834.205 158.982 832.701 Q157.292 831.196 154.283 831.196 Q151.251 831.196 149.561 832.701 Q147.894 834.205 147.894 836.891 Z" fill="#000000" fill-rule="nonzero" fill-opacity="1" /><path clip-path="url(#clip100)" d="M184.445 831.196 Q180.834 831.196 179.005 834.761 Q177.2 838.303 177.2 845.432 Q177.2 852.539 179.005 856.103 Q180.834 859.645 184.445 859.645 Q188.079 859.645 189.885 856.103 Q191.713 852.539 191.713 845.432 Q191.713 838.303 189.885 834.761 Q188.079 831.196 184.445 831.196 M184.445 827.493 Q190.255 827.493 193.311 832.099 Q196.389 836.682 196.389 845.432 Q196.389 854.159 193.311 858.765 Q190.255 863.349 184.445 863.349 Q178.635 863.349 175.556 858.765 Q172.501 854.159 172.501 845.432 Q172.501 836.682 175.556 832.099 Q178.635 827.493 184.445 827.493 Z" fill="#000000" fill-rule="nonzero" fill-opacity="1" /><path clip-path="url(#clip100)" d="M114.931 662.642 L122.57 662.642 L122.57 636.276 L114.26 637.943 L114.26 633.684 L122.524 632.017 L127.2 632.017 L127.2 662.642 L134.839 662.642 L134.839 666.577 L114.931 666.577 L114.931 662.642 Z" fill="#000000" fill-rule="nonzero" fill-opacity="1" /><path clip-path="url(#clip100)" d="M154.283 635.096 Q150.672 635.096 148.843 638.661 Q147.038 642.202 147.038 649.332 Q147.038 656.438 148.843 660.003 Q150.672 663.545 154.283 663.545 Q157.917 663.545 159.723 660.003 Q161.552 656.438 161.552 649.332 Q161.552 642.202 159.723 638.661 Q157.917 635.096 154.283 635.096 M154.283 631.392 Q160.093 631.392 163.149 635.999 Q166.227 640.582 166.227 649.332 Q166.227 658.059 163.149 662.665 Q160.093 667.249 154.283 667.249 Q148.473 667.249 145.394 662.665 Q142.339 658.059 142.339 649.332 Q142.339 640.582 145.394 635.999 Q148.473 631.392 154.283 631.392 Z" fill="#000000" fill-rule="nonzero" fill-opacity="1" /><path clip-path="url(#clip100)" d="M184.445 635.096 Q180.834 635.096 179.005 638.661 Q177.2 642.202 177.2 649.332 Q177.2 656.438 179.005 660.003 Q180.834 663.545 184.445 663.545 Q188.079 663.545 189.885 660.003 Q191.713 656.438 191.713 649.332 Q191.713 642.202 189.885 638.661 Q188.079 635.096 184.445 635.096 M184.445 631.392 Q190.255 631.392 193.311 635.999 Q196.389 640.582 196.389 649.332 Q196.389 658.059 193.311 662.665 Q190.255 667.249 184.445 667.249 Q178.635 667.249 175.556 662.665 Q172.501 658.059 172.501 649.332 Q172.501 640.582 175.556 635.999 Q178.635 631.392 184.445 631.392 Z" fill="#000000" fill-rule="nonzero" fill-opacity="1" /><path clip-path="url(#clip100)" d="M114.931 466.542 L122.57 466.542 L122.57 440.176 L114.26 441.843 L114.26 437.584 L122.524 435.917 L127.2 435.917 L127.2 466.542 L134.839 466.542 L134.839 470.477 L114.931 470.477 L114.931 466.542 Z" fill="#000000" fill-rule="nonzero" fill-opacity="1" /><path clip-path="url(#clip100)" d="M148.311 466.542 L164.63 466.542 L164.63 470.477 L142.686 470.477 L142.686 466.542 Q145.348 463.787 149.931 459.158 Q154.538 454.505 155.718 453.162 Q157.964 450.639 158.843 448.903 Q159.746 447.144 159.746 445.454 Q159.746 442.699 157.802 440.963 Q155.88 439.227 152.778 439.227 Q150.579 439.227 148.126 439.991 Q145.695 440.755 142.917 442.306 L142.917 437.584 Q145.741 436.449 148.195 435.871 Q150.649 435.292 152.686 435.292 Q158.056 435.292 161.251 437.977 Q164.445 440.662 164.445 445.153 Q164.445 447.283 163.635 449.204 Q162.848 451.102 160.741 453.695 Q160.163 454.366 157.061 457.583 Q153.959 460.778 148.311 466.542 Z" fill="#000000" fill-rule="nonzero" fill-opacity="1" /><path clip-path="url(#clip100)" d="M184.445 438.996 Q180.834 438.996 179.005 442.56 Q177.2 446.102 177.2 453.232 Q177.2 460.338 179.005 463.903 Q180.834 467.445 184.445 467.445 Q188.079 467.445 189.885 463.903 Q191.713 460.338 191.713 453.232 Q191.713 446.102 189.885 442.56 Q188.079 438.996 184.445 438.996 M184.445 435.292 Q190.255 435.292 193.311 439.898 Q196.389 444.482 196.389 453.232 Q196.389 461.958 193.311 466.565 Q190.255 471.148 184.445 471.148 Q178.635 471.148 175.556 466.565 Q172.501 461.958 172.501 453.232 Q172.501 444.482 175.556 439.898 Q178.635 435.292 184.445 435.292 Z" fill="#000000" fill-rule="nonzero" fill-opacity="1" /><path clip-path="url(#clip100)" d="M114.931 270.441 L122.57 270.441 L122.57 244.076 L114.26 245.743 L114.26 241.483 L122.524 239.817 L127.2 239.817 L127.2 270.441 L134.839 270.441 L134.839 274.377 L114.931 274.377 L114.931 270.441 Z" fill="#000000" fill-rule="nonzero" fill-opacity="1" /><path clip-path="url(#clip100)" d="M157.13 243.891 L145.325 262.34 L157.13 262.34 L157.13 243.891 M155.903 239.817 L161.783 239.817 L161.783 262.34 L166.714 262.34 L166.714 266.229 L161.783 266.229 L161.783 274.377 L157.13 274.377 L157.13 266.229 L141.529 266.229 L141.529 261.715 L155.903 239.817 Z" fill="#000000" fill-rule="nonzero" fill-opacity="1" /><path clip-path="url(#clip100)" d="M184.445 242.895 Q180.834 242.895 179.005 246.46 Q177.2 250.002 177.2 257.131 Q177.2 264.238 179.005 267.803 Q180.834 271.344 184.445 271.344 Q188.079 271.344 189.885 267.803 Q191.713 264.238 191.713 257.131 Q191.713 250.002 189.885 246.46 Q188.079 242.895 184.445 242.895 M184.445 239.192 Q190.255 239.192 193.311 243.798 Q196.389 248.381 196.389 257.131 Q196.389 265.858 193.311 270.465 Q190.255 275.048 184.445 275.048 Q178.635 275.048 175.556 270.465 Q172.501 265.858 172.501 257.131 Q172.501 248.381 175.556 243.798 Q178.635 239.192 184.445 239.192 Z" fill="#000000" fill-rule="nonzero" fill-opacity="1" /><path clip-path="url(#clip100)" d="M16.4842 1055.47 L16.4842 1028.16 L21.895 1028.16 L21.895 1049.04 L35.8996 1049.04 L35.8996 1030.2 L41.3104 1030.2 L41.3104 1049.04 L64.0042 1049.04 L64.0042 1055.47 L16.4842 1055.47 Z" fill="#000000" fill-rule="nonzero" fill-opacity="1" /><path clip-path="url(#clip100)" d="M49.9359 1022.4 L28.3562 1022.4 L28.3562 1016.54 L49.7131 1016.54 Q54.7739 1016.54 57.3202 1014.57 Q59.8346 1012.6 59.8346 1008.65 Q59.8346 1003.91 56.8109 1001.17 Q53.7872 998.401 48.5673 998.401 L28.3562 998.401 L28.3562 992.545 L64.0042 992.545 L64.0042 998.401 L58.5296 998.401 Q61.7762 1000.53 63.3676 1003.37 Q64.9272 1006.17 64.9272 1009.89 Q64.9272 1016.03 61.1078 1019.22 Q57.2883 1022.4 49.9359 1022.4 M27.4968 1007.66 L27.4968 1007.66 Z" fill="#000000" fill-rule="nonzero" fill-opacity="1" /><path clip-path="url(#clip100)" d="M44.7161 949.99 L47.5806 949.99 L47.5806 976.917 Q53.6281 976.535 56.8109 973.289 Q59.9619 970.01 59.9619 964.186 Q59.9619 960.812 59.1344 957.661 Q58.3069 954.478 56.6518 951.359 L62.1899 951.359 Q63.5267 954.51 64.227 957.82 Q64.9272 961.13 64.9272 964.536 Q64.9272 973.066 59.9619 978.063 Q54.9967 983.028 46.5303 983.028 Q37.7774 983.028 32.6531 978.318 Q27.4968 973.575 27.4968 965.554 Q27.4968 958.361 32.1438 954.192 Q36.7589 949.99 44.7161 949.99 M42.9973 955.847 Q38.1912 955.91 35.3266 958.552 Q32.4621 961.162 32.4621 965.491 Q32.4621 970.392 35.2312 973.352 Q38.0002 976.281 43.0292 976.726 L42.9973 955.847 Z" fill="#000000" fill-rule="nonzero" fill-opacity="1" /><path clip-path="url(#clip100)" d="M14.479 940.378 L14.479 934.522 L64.0042 934.522 L64.0042 940.378 L14.479 940.378 Z" fill="#000000" fill-rule="nonzero" fill-opacity="1" /><path clip-path="url(#clip100)" d="M29.7248 875.893 L35.1993 875.893 Q33.8307 878.376 33.1623 880.891 Q32.4621 883.373 32.4621 885.919 Q32.4621 891.617 36.0905 894.768 Q39.6872 897.919 46.212 897.919 Q52.7369 897.919 56.3653 894.768 Q59.9619 891.617 59.9619 885.919 Q59.9619 883.373 59.2935 880.891 Q58.5933 878.376 57.2247 875.893 L62.6355 875.893 Q63.7814 878.344 64.3543 880.986 Q64.9272 883.596 64.9272 886.556 Q64.9272 894.609 59.8664 899.351 Q54.8057 904.094 46.212 904.094 Q37.491 904.094 32.4939 899.319 Q27.4968 894.513 27.4968 886.174 Q27.4968 883.469 28.0697 880.891 Q28.6108 878.312 29.7248 875.893 Z" fill="#000000" fill-rule="nonzero" fill-opacity="1" /><path clip-path="url(#clip100)" d="M32.4621 851.895 Q32.4621 856.605 36.1542 859.343 Q39.8145 862.08 46.212 862.08 Q52.6095 862.08 56.3017 859.374 Q59.9619 856.637 59.9619 851.895 Q59.9619 847.216 56.2698 844.479 Q52.5777 841.741 46.212 841.741 Q39.8781 841.741 36.186 844.479 Q32.4621 847.216 32.4621 851.895 M27.4968 851.895 Q27.4968 844.256 32.4621 839.895 Q37.4273 835.535 46.212 835.535 Q54.9649 835.535 59.9619 839.895 Q64.9272 844.256 64.9272 851.895 Q64.9272 859.565 59.9619 863.926 Q54.9649 868.255 46.212 868.255 Q37.4273 868.255 32.4621 863.926 Q27.4968 859.565 27.4968 851.895 Z" fill="#000000" fill-rule="nonzero" fill-opacity="1" /><path clip-path="url(#clip100)" d="M42.4881 796.195 L64.0042 796.195 L64.0042 802.051 L42.679 802.051 Q37.6183 802.051 35.1038 804.025 Q32.5894 805.998 32.5894 809.945 Q32.5894 814.687 35.6131 817.424 Q38.6368 820.162 43.8567 820.162 L64.0042 820.162 L64.0042 826.05 L28.3562 826.05 L28.3562 820.162 L33.8944 820.162 Q30.6797 818.061 29.0883 815.228 Q27.4968 812.364 27.4968 808.64 Q27.4968 802.497 31.3163 799.346 Q35.1038 796.195 42.4881 796.195 Z" fill="#000000" fill-rule="nonzero" fill-opacity="1" /><path clip-path="url(#clip100)" d="M29.4065 761.788 L34.9447 761.788 Q33.6716 764.271 33.035 766.944 Q32.3984 769.618 32.3984 772.483 Q32.3984 776.843 33.7352 779.039 Q35.072 781.204 37.7456 781.204 Q39.7826 781.204 40.9603 779.644 Q42.1061 778.084 43.1565 773.374 L43.6021 771.369 Q44.9389 765.13 47.3897 762.52 Q49.8086 759.878 54.1691 759.878 Q59.1344 759.878 62.0308 763.825 Q64.9272 767.74 64.9272 774.615 Q64.9272 777.48 64.3543 780.599 Q63.8132 783.686 62.6992 787.124 L56.6518 787.124 Q58.3387 783.877 59.198 780.726 Q60.0256 777.575 60.0256 774.488 Q60.0256 770.35 58.6251 768.122 Q57.1929 765.894 54.6147 765.894 Q52.2276 765.894 50.9545 767.517 Q49.6813 769.109 48.5037 774.551 L48.0262 776.588 Q46.8804 782.031 44.5251 784.45 Q42.138 786.869 38.0002 786.869 Q32.9713 786.869 30.2341 783.304 Q27.4968 779.739 27.4968 773.183 Q27.4968 769.936 27.9743 767.072 Q28.4517 764.207 29.4065 761.788 Z" fill="#000000" fill-rule="nonzero" fill-opacity="1" /><path clip-path="url(#clip100)" d="M49.9359 751.157 L28.3562 751.157 L28.3562 745.301 L49.7131 745.301 Q54.7739 745.301 57.3202 743.328 Q59.8346 741.354 59.8346 737.407 Q59.8346 732.665 56.8109 729.928 Q53.7872 727.159 48.5673 727.159 L28.3562 727.159 L28.3562 721.302 L64.0042 721.302 L64.0042 727.159 L58.5296 727.159 Q61.7762 729.291 63.3676 732.124 Q64.9272 734.925 64.9272 738.649 Q64.9272 744.792 61.1078 747.975 Q57.2883 751.157 49.9359 751.157 M27.4968 736.421 L27.4968 736.421 Z" fill="#000000" fill-rule="nonzero" fill-opacity="1" /><path clip-path="url(#clip100)" d="M35.1993 681.485 Q31.2526 679.289 29.3747 676.233 Q27.4968 673.178 27.4968 669.04 Q27.4968 663.47 31.4117 660.446 Q35.2948 657.422 42.4881 657.422 L64.0042 657.422 L64.0042 663.311 L42.679 663.311 Q37.5546 663.311 35.072 665.125 Q32.5894 666.939 32.5894 670.663 Q32.5894 675.215 35.6131 677.856 Q38.6368 680.498 43.8567 680.498 L64.0042 680.498 L64.0042 686.386 L42.679 686.386 Q37.5228 686.386 35.072 688.201 Q32.5894 690.015 32.5894 693.802 Q32.5894 698.29 35.6449 700.932 Q38.6686 703.574 43.8567 703.574 L64.0042 703.574 L64.0042 709.462 L28.3562 709.462 L28.3562 703.574 L33.8944 703.574 Q30.616 701.569 29.0564 698.768 Q27.4968 695.967 27.4968 692.115 Q27.4968 688.232 29.4702 685.527 Q31.4436 682.79 35.1993 681.485 Z" fill="#000000" fill-rule="nonzero" fill-opacity="1" /><path clip-path="url(#clip100)" d="M58.657 640.076 L77.5631 640.076 L77.5631 645.964 L28.3562 645.964 L28.3562 640.076 L33.7671 640.076 Q30.5842 638.23 29.0564 635.429 Q27.4968 632.596 27.4968 628.681 Q27.4968 622.188 32.6531 618.146 Q37.8093 614.072 46.212 614.072 Q54.6147 614.072 59.771 618.146 Q64.9272 622.188 64.9272 628.681 Q64.9272 632.596 63.3994 635.429 Q61.8398 638.23 58.657 640.076 M46.212 620.151 Q39.7508 620.151 36.0905 622.825 Q32.3984 625.467 32.3984 630.113 Q32.3984 634.76 36.0905 637.434 Q39.7508 640.076 46.212 640.076 Q52.6732 640.076 56.3653 637.434 Q60.0256 634.76 60.0256 630.113 Q60.0256 625.467 56.3653 622.825 Q52.6732 620.151 46.212 620.151 Z" fill="#000000" fill-rule="nonzero" fill-opacity="1" /><path clip-path="url(#clip100)" d="M18.2347 598.571 L28.3562 598.571 L28.3562 586.508 L32.9077 586.508 L32.9077 598.571 L52.2594 598.571 Q56.6199 598.571 57.8613 597.394 Q59.1026 596.184 59.1026 592.524 L59.1026 586.508 L64.0042 586.508 L64.0042 592.524 Q64.0042 599.303 61.4897 601.882 Q58.9434 604.46 52.2594 604.46 L32.9077 604.46 L32.9077 608.757 L28.3562 608.757 L28.3562 604.46 L18.2347 604.46 L18.2347 598.571 Z" fill="#000000" fill-rule="nonzero" fill-opacity="1" /><path clip-path="url(#clip100)" d="M28.3562 578.806 L28.3562 572.949 L64.0042 572.949 L64.0042 578.806 L28.3562 578.806 M14.479 578.806 L14.479 572.949 L21.895 572.949 L21.895 578.806 L14.479 578.806 Z" fill="#000000" fill-rule="nonzero" fill-opacity="1" /><path clip-path="url(#clip100)" d="M32.4621 546.882 Q32.4621 551.593 36.1542 554.33 Q39.8145 557.067 46.212 557.067 Q52.6095 557.067 56.3017 554.362 Q59.9619 551.624 59.9619 546.882 Q59.9619 542.203 56.2698 539.466 Q52.5777 536.729 46.212 536.729 Q39.8781 536.729 36.186 539.466 Q32.4621 542.203 32.4621 546.882 M27.4968 546.882 Q27.4968 539.243 32.4621 534.883 Q37.4273 530.522 46.212 530.522 Q54.9649 530.522 59.9619 534.883 Q64.9272 539.243 64.9272 546.882 Q64.9272 554.553 59.9619 558.913 Q54.9649 563.242 46.212 563.242 Q37.4273 563.242 32.4621 558.913 Q27.4968 554.553 27.4968 546.882 Z" fill="#000000" fill-rule="nonzero" fill-opacity="1" /><path clip-path="url(#clip100)" d="M42.4881 491.182 L64.0042 491.182 L64.0042 497.038 L42.679 497.038 Q37.6183 497.038 35.1038 499.012 Q32.5894 500.985 32.5894 504.932 Q32.5894 509.674 35.6131 512.412 Q38.6368 515.149 43.8567 515.149 L64.0042 515.149 L64.0042 521.037 L28.3562 521.037 L28.3562 515.149 L33.8944 515.149 Q30.6797 513.048 29.0883 510.215 Q27.4968 507.351 27.4968 503.627 Q27.4968 497.484 31.3163 494.333 Q35.1038 491.182 42.4881 491.182 Z" fill="#000000" fill-rule="nonzero" fill-opacity="1" /><path clip-path="url(#clip100)" d="M912.638 18.8205 L912.638 65.8515 L922.523 65.8515 Q935.04 65.8515 940.833 60.1802 Q946.666 54.509 946.666 42.2752 Q946.666 30.1225 940.833 24.4918 Q935.04 18.8205 922.523 18.8205 L912.638 18.8205 M904.455 12.096 L921.267 12.096 Q938.848 12.096 947.071 19.4281 Q955.294 26.7198 955.294 42.2752 Q955.294 57.9117 947.03 65.2439 Q938.767 72.576 921.267 72.576 L904.455 72.576 L904.455 12.096 Z" fill="#000000" fill-rule="nonzero" fill-opacity="1" /><path clip-path="url(#clip100)" d="M988.633 49.7694 Q979.6 49.7694 976.116 51.8354 Q972.632 53.9013 972.632 58.8839 Q972.632 62.8538 975.225 65.2034 Q977.858 67.5124 982.354 67.5124 Q988.552 67.5124 992.279 63.1374 Q996.046 58.7219 996.046 51.4303 L996.046 49.7694 L988.633 49.7694 M1003.5 46.6907 L1003.5 72.576 L996.046 72.576 L996.046 65.6895 Q993.494 69.8214 989.687 71.8063 Q985.879 73.7508 980.369 73.7508 Q973.402 73.7508 969.27 69.8619 Q965.179 65.9325 965.179 59.3701 Q965.179 51.7138 970.283 47.825 Q975.427 43.9361 985.595 43.9361 L996.046 43.9361 L996.046 43.2069 Q996.046 38.0623 992.644 35.2672 Q989.281 32.4315 983.165 32.4315 Q979.276 32.4315 975.589 33.3632 Q971.903 34.295 968.5 36.1584 L968.5 29.2718 Q972.592 27.692 976.44 26.9223 Q980.288 26.1121 983.934 26.1121 Q993.778 26.1121 998.639 31.2163 Q1003.5 36.3204 1003.5 46.6907 Z" fill="#000000" fill-rule="nonzero" fill-opacity="1" /><path clip-path="url(#clip100)" d="M1026.23 14.324 L1026.23 27.2059 L1041.58 27.2059 L1041.58 32.9987 L1026.23 32.9987 L1026.23 57.6282 Q1026.23 63.1779 1027.72 64.7578 Q1029.26 66.3376 1033.92 66.3376 L1041.58 66.3376 L1041.58 72.576 L1033.92 72.576 Q1025.29 72.576 1022.01 69.3758 Q1018.73 66.1351 1018.73 57.6282 L1018.73 32.9987 L1013.26 32.9987 L1013.26 27.2059 L1018.73 27.2059 L1018.73 14.324 L1026.23 14.324 Z" fill="#000000" fill-rule="nonzero" fill-opacity="1" /><path clip-path="url(#clip100)" d="M1072 49.7694 Q1062.97 49.7694 1059.48 51.8354 Q1056 53.9013 1056 58.8839 Q1056 62.8538 1058.59 65.2034 Q1061.23 67.5124 1065.72 67.5124 Q1071.92 67.5124 1075.65 63.1374 Q1079.41 58.7219 1079.41 51.4303 L1079.41 49.7694 L1072 49.7694 M1086.87 46.6907 L1086.87 72.576 L1079.41 72.576 L1079.41 65.6895 Q1076.86 69.8214 1073.05 71.8063 Q1069.25 73.7508 1063.74 73.7508 Q1056.77 73.7508 1052.64 69.8619 Q1048.55 65.9325 1048.55 59.3701 Q1048.55 51.7138 1053.65 47.825 Q1058.79 43.9361 1068.96 43.9361 L1079.41 43.9361 L1079.41 43.2069 Q1079.41 38.0623 1076.01 35.2672 Q1072.65 32.4315 1066.53 32.4315 Q1062.64 32.4315 1058.96 33.3632 Q1055.27 34.295 1051.87 36.1584 L1051.87 29.2718 Q1055.96 27.692 1059.81 26.9223 Q1063.66 26.1121 1067.3 26.1121 Q1077.15 26.1121 1082.01 31.2163 Q1086.87 36.3204 1086.87 46.6907 Z" fill="#000000" fill-rule="nonzero" fill-opacity="1" /><path clip-path="url(#clip100)" d="M1131.14 28.5427 L1131.14 35.5912 Q1127.98 33.9709 1124.58 33.1607 Q1121.18 32.3505 1117.53 32.3505 Q1111.98 32.3505 1109.19 34.0519 Q1106.43 35.7533 1106.43 39.156 Q1106.43 41.7486 1108.42 43.2475 Q1110.4 44.7058 1116.4 46.0426 L1118.95 46.6097 Q1126.89 48.3111 1130.21 51.4303 Q1133.57 54.509 1133.57 60.0587 Q1133.57 66.3781 1128.55 70.0644 Q1123.57 73.7508 1114.82 73.7508 Q1111.17 73.7508 1107.2 73.0216 Q1103.27 72.3329 1098.9 70.9151 L1098.9 63.2184 Q1103.03 65.3654 1107.04 66.4591 Q1111.05 67.5124 1114.98 67.5124 Q1120.25 67.5124 1123.08 65.73 Q1125.92 63.9071 1125.92 60.6258 Q1125.92 57.5877 1123.85 55.9673 Q1121.83 54.3469 1114.9 52.8481 L1112.31 52.2405 Q1105.38 50.7821 1102.3 47.7845 Q1099.22 44.7463 1099.22 39.4801 Q1099.22 33.0797 1103.76 29.5959 Q1108.3 26.1121 1116.64 26.1121 Q1120.77 26.1121 1124.42 26.7198 Q1128.07 27.3274 1131.14 28.5427 Z" fill="#000000" fill-rule="nonzero" fill-opacity="1" /><path clip-path="url(#clip100)" d="M1184.25 48.0275 L1184.25 51.6733 L1149.98 51.6733 Q1150.47 59.3701 1154.6 63.421 Q1158.77 67.4314 1166.18 67.4314 Q1170.48 67.4314 1174.49 66.3781 Q1178.54 65.3249 1182.51 63.2184 L1182.51 70.267 Q1178.5 71.9684 1174.29 72.8596 Q1170.07 73.7508 1165.74 73.7508 Q1154.88 73.7508 1148.52 67.4314 Q1142.2 61.1119 1142.2 50.3365 Q1142.2 39.1965 1148.2 32.6746 Q1154.23 26.1121 1164.44 26.1121 Q1173.6 26.1121 1178.9 32.0264 Q1184.25 37.9003 1184.25 48.0275 M1176.8 45.84 Q1176.72 39.7232 1173.35 36.0774 Q1170.03 32.4315 1164.52 32.4315 Q1158.29 32.4315 1154.52 35.9558 Q1150.79 39.4801 1150.22 45.8805 L1176.8 45.84 Z" fill="#000000" fill-rule="nonzero" fill-opacity="1" /><path clip-path="url(#clip100)" d="M1203.86 14.324 L1203.86 27.2059 L1219.21 27.2059 L1219.21 32.9987 L1203.86 32.9987 L1203.86 57.6282 Q1203.86 63.1779 1205.36 64.7578 Q1206.9 66.3376 1211.55 66.3376 L1219.21 66.3376 L1219.21 72.576 L1211.55 72.576 Q1202.93 72.576 1199.64 69.3758 Q1196.36 66.1351 1196.36 57.6282 L1196.36 32.9987 L1190.89 32.9987 L1190.89 27.2059 L1196.36 27.2059 L1196.36 14.324 L1203.86 14.324 Z" fill="#000000" fill-rule="nonzero" fill-opacity="1" /><path clip-path="url(#clip100)" d="M1273.29 9.62495 Q1267.86 18.942 1265.23 28.0566 Q1262.6 37.1711 1262.6 46.5287 Q1262.6 55.8863 1265.23 65.0818 Q1267.9 74.2369 1273.29 83.5134 L1266.81 83.5134 Q1260.73 73.9938 1257.69 64.7983 Q1254.7 55.6027 1254.7 46.5287 Q1254.7 37.4952 1257.69 28.3401 Q1260.69 19.1851 1266.81 9.62495 L1273.29 9.62495 Z" fill="#000000" fill-rule="nonzero" fill-opacity="1" /><path clip-path="url(#clip100)" d="M1333.37 16.7545 L1333.37 25.383 Q1329.23 21.5346 1324.53 19.6307 Q1319.88 17.7268 1314.61 17.7268 Q1304.24 17.7268 1298.73 24.0867 Q1293.22 30.4061 1293.22 42.3968 Q1293.22 54.3469 1298.73 60.7069 Q1304.24 67.0263 1314.61 67.0263 Q1319.88 67.0263 1324.53 65.1223 Q1329.23 63.2184 1333.37 59.3701 L1333.37 67.9175 Q1329.07 70.8341 1324.25 72.2924 Q1319.47 73.7508 1314.12 73.7508 Q1300.39 73.7508 1292.49 65.3654 Q1284.59 56.9395 1284.59 42.3968 Q1284.59 27.8135 1292.49 19.4281 Q1300.39 11.0023 1314.12 11.0023 Q1319.55 11.0023 1324.33 12.4606 Q1329.15 13.8784 1333.37 16.7545 Z" fill="#000000" fill-rule="nonzero" fill-opacity="1" /><path clip-path="url(#clip100)" d="M1345.68 27.2059 L1353.13 27.2059 L1353.13 72.576 L1345.68 72.576 L1345.68 27.2059 M1345.68 9.54393 L1353.13 9.54393 L1353.13 18.9825 L1345.68 18.9825 L1345.68 9.54393 Z" fill="#000000" fill-rule="nonzero" fill-opacity="1" /><path clip-path="url(#clip100)" d="M1376.1 14.324 L1376.1 27.2059 L1391.46 27.2059 L1391.46 32.9987 L1376.1 32.9987 L1376.1 57.6282 Q1376.1 63.1779 1377.6 64.7578 Q1379.14 66.3376 1383.8 66.3376 L1391.46 66.3376 L1391.46 72.576 L1383.8 72.576 Q1375.17 72.576 1371.89 69.3758 Q1368.61 66.1351 1368.61 57.6282 L1368.61 32.9987 L1363.14 32.9987 L1363.14 27.2059 L1368.61 27.2059 L1368.61 14.324 L1376.1 14.324 Z" fill="#000000" fill-rule="nonzero" fill-opacity="1" /><path clip-path="url(#clip100)" d="M1420.14 76.7889 Q1416.98 84.8907 1413.98 87.3618 Q1410.98 89.8329 1405.96 89.8329 L1400 89.8329 L1400 83.5945 L1404.38 83.5945 Q1407.46 83.5945 1409.16 82.1361 Q1410.86 80.6778 1412.92 75.2496 L1414.26 71.8468 L1395.91 27.2059 L1403.81 27.2059 L1417.99 62.6918 L1432.17 27.2059 L1440.07 27.2059 L1420.14 76.7889 Z" fill="#000000" fill-rule="nonzero" fill-opacity="1" /><path clip-path="url(#clip100)" d="M1503.02 34.1734 Q1501.76 33.4443 1500.26 33.1202 Q1498.8 32.7556 1497.02 32.7556 Q1490.7 32.7556 1487.3 36.8875 Q1483.94 40.9789 1483.94 48.6757 L1483.94 72.576 L1476.44 72.576 L1476.44 27.2059 L1483.94 27.2059 L1483.94 34.2544 Q1486.29 30.1225 1490.05 28.1376 Q1493.82 26.1121 1499.21 26.1121 Q1499.98 26.1121 1500.91 26.2337 Q1501.84 26.3147 1502.98 26.5172 L1503.02 34.1734 Z" fill="#000000" fill-rule="nonzero" fill-opacity="1" /><path clip-path="url(#clip100)" d="M1526.59 32.4315 Q1520.6 32.4315 1517.11 37.1306 Q1513.63 41.7891 1513.63 49.9314 Q1513.63 58.0738 1517.07 62.7728 Q1520.56 67.4314 1526.59 67.4314 Q1532.55 67.4314 1536.03 62.7323 Q1539.52 58.0333 1539.52 49.9314 Q1539.52 41.8701 1536.03 37.1711 Q1532.55 32.4315 1526.59 32.4315 M1526.59 26.1121 Q1536.32 26.1121 1541.87 32.4315 Q1547.42 38.7509 1547.42 49.9314 Q1547.42 61.0714 1541.87 67.4314 Q1536.32 73.7508 1526.59 73.7508 Q1516.83 73.7508 1511.28 67.4314 Q1505.77 61.0714 1505.77 49.9314 Q1505.77 38.7509 1511.28 32.4315 Q1516.83 26.1121 1526.59 26.1121 Z" fill="#000000" fill-rule="nonzero" fill-opacity="1" /><path clip-path="url(#clip100)" d="M1580.39 49.7694 Q1571.36 49.7694 1567.87 51.8354 Q1564.39 53.9013 1564.39 58.8839 Q1564.39 62.8538 1566.98 65.2034 Q1569.61 67.5124 1574.11 67.5124 Q1580.31 67.5124 1584.04 63.1374 Q1587.8 58.7219 1587.8 51.4303 L1587.8 49.7694 L1580.39 49.7694 M1595.26 46.6907 L1595.26 72.576 L1587.8 72.576 L1587.8 65.6895 Q1585.25 69.8214 1581.44 71.8063 Q1577.63 73.7508 1572.13 73.7508 Q1565.16 73.7508 1561.03 69.8619 Q1556.93 65.9325 1556.93 59.3701 Q1556.93 51.7138 1562.04 47.825 Q1567.18 43.9361 1577.35 43.9361 L1587.8 43.9361 L1587.8 43.2069 Q1587.8 38.0623 1584.4 35.2672 Q1581.04 32.4315 1574.92 32.4315 Q1571.03 32.4315 1567.35 33.3632 Q1563.66 34.295 1560.26 36.1584 L1560.26 29.2718 Q1564.35 27.692 1568.2 26.9223 Q1572.04 26.1121 1575.69 26.1121 Q1585.53 26.1121 1590.4 31.2163 Q1595.26 36.3204 1595.26 46.6907 Z" fill="#000000" fill-rule="nonzero" fill-opacity="1" /><path clip-path="url(#clip100)" d="M1640.46 34.0924 L1640.46 9.54393 L1647.92 9.54393 L1647.92 72.576 L1640.46 72.576 L1640.46 65.7705 Q1638.11 69.8214 1634.51 71.8063 Q1630.94 73.7508 1625.92 73.7508 Q1617.7 73.7508 1612.51 67.1883 Q1607.37 60.6258 1607.37 49.9314 Q1607.37 39.2371 1612.51 32.6746 Q1617.7 26.1121 1625.92 26.1121 Q1630.94 26.1121 1634.51 28.0971 Q1638.11 30.0415 1640.46 34.0924 M1615.07 49.9314 Q1615.07 58.1548 1618.43 62.8538 Q1621.83 67.5124 1627.74 67.5124 Q1633.66 67.5124 1637.06 62.8538 Q1640.46 58.1548 1640.46 49.9314 Q1640.46 41.7081 1637.06 37.0496 Q1633.66 32.3505 1627.74 32.3505 Q1621.83 32.3505 1618.43 37.0496 Q1615.07 41.7081 1615.07 49.9314 Z" fill="#000000" fill-rule="nonzero" fill-opacity="1" /><path clip-path="url(#clip100)" d="M1662.1 9.62495 L1668.58 9.62495 Q1674.65 19.1851 1677.65 28.3401 Q1680.69 37.4952 1680.69 46.5287 Q1680.69 55.6027 1677.65 64.7983 Q1674.65 73.9938 1668.58 83.5134 L1662.1 83.5134 Q1667.48 74.2369 1670.12 65.0818 Q1672.79 55.8863 1672.79 46.5287 Q1672.79 37.1711 1670.12 28.0566 Q1667.48 18.942 1662.1 9.62495 Z" fill="#000000" fill-rule="nonzero" fill-opacity="1" /><circle clip-path="url(#clip102)" cx="292.4" cy="1374.68" r="14.4" fill="#009af9" fill-rule="evenodd" fill-opacity="1" stroke="#000000" stroke-opacity="1" stroke-width="3.2"/>
<circle clip-path="url(#clip102)" cx="300.433" cy="1365.99" r="14.4" fill="#009af9" fill-rule="evenodd" fill-opacity="1" stroke="#000000" stroke-opacity="1" stroke-width="3.2"/>
<circle clip-path="url(#clip102)" cx="308.467" cy="1386.4" r="14.4" fill="#009af9" fill-rule="evenodd" fill-opacity="1" stroke="#000000" stroke-opacity="1" stroke-width="3.2"/>
<circle clip-path="url(#clip102)" cx="316.5" cy="1377.76" r="14.4" fill="#009af9" fill-rule="evenodd" fill-opacity="1" stroke="#000000" stroke-opacity="1" stroke-width="3.2"/>
<circle clip-path="url(#clip102)" cx="324.534" cy="1366.87" r="14.4" fill="#009af9" fill-rule="evenodd" fill-opacity="1" stroke="#000000" stroke-opacity="1" stroke-width="3.2"/>
<circle clip-path="url(#clip102)" cx="332.567" cy="1361.99" r="14.4" fill="#009af9" fill-rule="evenodd" fill-opacity="1" stroke="#000000" stroke-opacity="1" stroke-width="3.2"/>
<circle clip-path="url(#clip102)" cx="340.601" cy="1349.45" r="14.4" fill="#009af9" fill-rule="evenodd" fill-opacity="1" stroke="#000000" stroke-opacity="1" stroke-width="3.2"/>
<circle clip-path="url(#clip102)" cx="348.634" cy="1346.33" r="14.4" fill="#009af9" fill-rule="evenodd" fill-opacity="1" stroke="#000000" stroke-opacity="1" stroke-width="3.2"/>
<circle clip-path="url(#clip102)" cx="356.668" cy="1354.79" r="14.4" fill="#009af9" fill-rule="evenodd" fill-opacity="1" stroke="#000000" stroke-opacity="1" stroke-width="3.2"/>
<circle clip-path="url(#clip102)" cx="364.701" cy="1354.35" r="14.4" fill="#009af9" fill-rule="evenodd" fill-opacity="1" stroke="#000000" stroke-opacity="1" stroke-width="3.2"/>
<circle clip-path="url(#clip102)" cx="372.735" cy="1339.38" r="14.4" fill="#009af9" fill-rule="evenodd" fill-opacity="1" stroke="#000000" stroke-opacity="1" stroke-width="3.2"/>
<circle clip-path="url(#clip102)" cx="380.768" cy="1309.45" r="14.4" fill="#009af9" fill-rule="evenodd" fill-opacity="1" stroke="#000000" stroke-opacity="1" stroke-width="3.2"/>
<circle clip-path="url(#clip102)" cx="388.802" cy="1322.37" r="14.4" fill="#009af9" fill-rule="evenodd" fill-opacity="1" stroke="#000000" stroke-opacity="1" stroke-width="3.2"/>
<circle clip-path="url(#clip102)" cx="396.835" cy="1320.04" r="14.4" fill="#009af9" fill-rule="evenodd" fill-opacity="1" stroke="#000000" stroke-opacity="1" stroke-width="3.2"/>
<circle clip-path="url(#clip102)" cx="404.869" cy="1305.9" r="14.4" fill="#009af9" fill-rule="evenodd" fill-opacity="1" stroke="#000000" stroke-opacity="1" stroke-width="3.2"/>
<circle clip-path="url(#clip102)" cx="412.902" cy="1314.14" r="14.4" fill="#009af9" fill-rule="evenodd" fill-opacity="1" stroke="#000000" stroke-opacity="1" stroke-width="3.2"/>
<circle clip-path="url(#clip102)" cx="420.936" cy="1297.2" r="14.4" fill="#009af9" fill-rule="evenodd" fill-opacity="1" stroke="#000000" stroke-opacity="1" stroke-width="3.2"/>
<circle clip-path="url(#clip102)" cx="428.97" cy="1289.82" r="14.4" fill="#009af9" fill-rule="evenodd" fill-opacity="1" stroke="#000000" stroke-opacity="1" stroke-width="3.2"/>
<circle clip-path="url(#clip102)" cx="437.003" cy="1292.12" r="14.4" fill="#009af9" fill-rule="evenodd" fill-opacity="1" stroke="#000000" stroke-opacity="1" stroke-width="3.2"/>
<circle clip-path="url(#clip102)" cx="445.037" cy="1286.11" r="14.4" fill="#009af9" fill-rule="evenodd" fill-opacity="1" stroke="#000000" stroke-opacity="1" stroke-width="3.2"/>
<circle clip-path="url(#clip102)" cx="453.07" cy="1286.16" r="14.4" fill="#009af9" fill-rule="evenodd" fill-opacity="1" stroke="#000000" stroke-opacity="1" stroke-width="3.2"/>
<circle clip-path="url(#clip102)" cx="461.104" cy="1277.61" r="14.4" fill="#009af9" fill-rule="evenodd" fill-opacity="1" stroke="#000000" stroke-opacity="1" stroke-width="3.2"/>
<circle clip-path="url(#clip102)" cx="469.137" cy="1281.24" r="14.4" fill="#009af9" fill-rule="evenodd" fill-opacity="1" stroke="#000000" stroke-opacity="1" stroke-width="3.2"/>
<circle clip-path="url(#clip102)" cx="477.171" cy="1268.09" r="14.4" fill="#009af9" fill-rule="evenodd" fill-opacity="1" stroke="#000000" stroke-opacity="1" stroke-width="3.2"/>
<circle clip-path="url(#clip102)" cx="485.204" cy="1257.82" r="14.4" fill="#009af9" fill-rule="evenodd" fill-opacity="1" stroke="#000000" stroke-opacity="1" stroke-width="3.2"/>
<circle clip-path="url(#clip102)" cx="493.238" cy="1253.56" r="14.4" fill="#009af9" fill-rule="evenodd" fill-opacity="1" stroke="#000000" stroke-opacity="1" stroke-width="3.2"/>
<circle clip-path="url(#clip102)" cx="501.271" cy="1242.71" r="14.4" fill="#009af9" fill-rule="evenodd" fill-opacity="1" stroke="#000000" stroke-opacity="1" stroke-width="3.2"/>
<circle clip-path="url(#clip102)" cx="509.305" cy="1259.63" r="14.4" fill="#009af9" fill-rule="evenodd" fill-opacity="1" stroke="#000000" stroke-opacity="1" stroke-width="3.2"/>
<circle clip-path="url(#clip102)" cx="517.338" cy="1245.81" r="14.4" fill="#009af9" fill-rule="evenodd" fill-opacity="1" stroke="#000000" stroke-opacity="1" stroke-width="3.2"/>
<circle clip-path="url(#clip102)" cx="525.372" cy="1237.88" r="14.4" fill="#009af9" fill-rule="evenodd" fill-opacity="1" stroke="#000000" stroke-opacity="1" stroke-width="3.2"/>
<circle clip-path="url(#clip102)" cx="533.405" cy="1233.68" r="14.4" fill="#009af9" fill-rule="evenodd" fill-opacity="1" stroke="#000000" stroke-opacity="1" stroke-width="3.2"/>
<circle clip-path="url(#clip102)" cx="541.439" cy="1238.42" r="14.4" fill="#009af9" fill-rule="evenodd" fill-opacity="1" stroke="#000000" stroke-opacity="1" stroke-width="3.2"/>
<circle clip-path="url(#clip102)" cx="549.472" cy="1221.17" r="14.4" fill="#009af9" fill-rule="evenodd" fill-opacity="1" stroke="#000000" stroke-opacity="1" stroke-width="3.2"/>
<circle clip-path="url(#clip102)" cx="557.506" cy="1207.57" r="14.4" fill="#009af9" fill-rule="evenodd" fill-opacity="1" stroke="#000000" stroke-opacity="1" stroke-width="3.2"/>
<circle clip-path="url(#clip102)" cx="565.539" cy="1212.2" r="14.4" fill="#009af9" fill-rule="evenodd" fill-opacity="1" stroke="#000000" stroke-opacity="1" stroke-width="3.2"/>
<circle clip-path="url(#clip102)" cx="573.573" cy="1202.42" r="14.4" fill="#009af9" fill-rule="evenodd" fill-opacity="1" stroke="#000000" stroke-opacity="1" stroke-width="3.2"/>
<circle clip-path="url(#clip102)" cx="581.606" cy="1206.28" r="14.4" fill="#009af9" fill-rule="evenodd" fill-opacity="1" stroke="#000000" stroke-opacity="1" stroke-width="3.2"/>
<circle clip-path="url(#clip102)" cx="589.64" cy="1198.66" r="14.4" fill="#009af9" fill-rule="evenodd" fill-opacity="1" stroke="#000000" stroke-opacity="1" stroke-width="3.2"/>
<circle clip-path="url(#clip102)" cx="597.673" cy="1192.5" r="14.4" fill="#009af9" fill-rule="evenodd" fill-opacity="1" stroke="#000000" stroke-opacity="1" stroke-width="3.2"/>
<circle clip-path="url(#clip102)" cx="605.707" cy="1196.12" r="14.4" fill="#009af9" fill-rule="evenodd" fill-opacity="1" stroke="#000000" stroke-opacity="1" stroke-width="3.2"/>
<circle clip-path="url(#clip102)" cx="613.74" cy="1178.87" r="14.4" fill="#009af9" fill-rule="evenodd" fill-opacity="1" stroke="#000000" stroke-opacity="1" stroke-width="3.2"/>
<circle clip-path="url(#clip102)" cx="621.774" cy="1184.15" r="14.4" fill="#009af9" fill-rule="evenodd" fill-opacity="1" stroke="#000000" stroke-opacity="1" stroke-width="3.2"/>
<circle clip-path="url(#clip102)" cx="629.807" cy="1185.62" r="14.4" fill="#009af9" fill-rule="evenodd" fill-opacity="1" stroke="#000000" stroke-opacity="1" stroke-width="3.2"/>
<circle clip-path="url(#clip102)" cx="637.841" cy="1174.65" r="14.4" fill="#009af9" fill-rule="evenodd" fill-opacity="1" stroke="#000000" stroke-opacity="1" stroke-width="3.2"/>
<circle clip-path="url(#clip102)" cx="645.874" cy="1158.37" r="14.4" fill="#009af9" fill-rule="evenodd" fill-opacity="1" stroke="#000000" stroke-opacity="1" stroke-width="3.2"/>
<circle clip-path="url(#clip102)" cx="653.908" cy="1168.51" r="14.4" fill="#009af9" fill-rule="evenodd" fill-opacity="1" stroke="#000000" stroke-opacity="1" stroke-width="3.2"/>
<circle clip-path="url(#clip102)" cx="661.942" cy="1160.49" r="14.4" fill="#009af9" fill-rule="evenodd" fill-opacity="1" stroke="#000000" stroke-opacity="1" stroke-width="3.2"/>
<circle clip-path="url(#clip102)" cx="669.975" cy="1144.68" r="14.4" fill="#009af9" fill-rule="evenodd" fill-opacity="1" stroke="#000000" stroke-opacity="1" stroke-width="3.2"/>
<circle clip-path="url(#clip102)" cx="678.009" cy="1136.73" r="14.4" fill="#009af9" fill-rule="evenodd" fill-opacity="1" stroke="#000000" stroke-opacity="1" stroke-width="3.2"/>
<circle clip-path="url(#clip102)" cx="686.042" cy="1149.05" r="14.4" fill="#009af9" fill-rule="evenodd" fill-opacity="1" stroke="#000000" stroke-opacity="1" stroke-width="3.2"/>
<circle clip-path="url(#clip102)" cx="694.076" cy="1146.42" r="14.4" fill="#009af9" fill-rule="evenodd" fill-opacity="1" stroke="#000000" stroke-opacity="1" stroke-width="3.2"/>
<circle clip-path="url(#clip102)" cx="702.109" cy="1125.45" r="14.4" fill="#009af9" fill-rule="evenodd" fill-opacity="1" stroke="#000000" stroke-opacity="1" stroke-width="3.2"/>
<circle clip-path="url(#clip102)" cx="710.143" cy="1120.82" r="14.4" fill="#009af9" fill-rule="evenodd" fill-opacity="1" stroke="#000000" stroke-opacity="1" stroke-width="3.2"/>
<circle clip-path="url(#clip102)" cx="718.176" cy="1134.49" r="14.4" fill="#009af9" fill-rule="evenodd" fill-opacity="1" stroke="#000000" stroke-opacity="1" stroke-width="3.2"/>
<circle clip-path="url(#clip102)" cx="726.21" cy="1134.88" r="14.4" fill="#009af9" fill-rule="evenodd" fill-opacity="1" stroke="#000000" stroke-opacity="1" stroke-width="3.2"/>
<circle clip-path="url(#clip102)" cx="734.243" cy="1101.47" r="14.4" fill="#009af9" fill-rule="evenodd" fill-opacity="1" stroke="#000000" stroke-opacity="1" stroke-width="3.2"/>
<circle clip-path="url(#clip102)" cx="742.277" cy="1106.74" r="14.4" fill="#009af9" fill-rule="evenodd" fill-opacity="1" stroke="#000000" stroke-opacity="1" stroke-width="3.2"/>
<circle clip-path="url(#clip102)" cx="750.31" cy="1110.84" r="14.4" fill="#009af9" fill-rule="evenodd" fill-opacity="1" stroke="#000000" stroke-opacity="1" stroke-width="3.2"/>
<circle clip-path="url(#clip102)" cx="758.344" cy="1107.45" r="14.4" fill="#009af9" fill-rule="evenodd" fill-opacity="1" stroke="#000000" stroke-opacity="1" stroke-width="3.2"/>
<circle clip-path="url(#clip102)" cx="766.377" cy="1085.85" r="14.4" fill="#009af9" fill-rule="evenodd" fill-opacity="1" stroke="#000000" stroke-opacity="1" stroke-width="3.2"/>
<circle clip-path="url(#clip102)" cx="774.411" cy="1095.54" r="14.4" fill="#009af9" fill-rule="evenodd" fill-opacity="1" stroke="#000000" stroke-opacity="1" stroke-width="3.2"/>
<circle clip-path="url(#clip102)" cx="782.444" cy="1070.89" r="14.4" fill="#009af9" fill-rule="evenodd" fill-opacity="1" stroke="#000000" stroke-opacity="1" stroke-width="3.2"/>
<circle clip-path="url(#clip102)" cx="790.478" cy="1064.33" r="14.4" fill="#009af9" fill-rule="evenodd" fill-opacity="1" stroke="#000000" stroke-opacity="1" stroke-width="3.2"/>
<circle clip-path="url(#clip102)" cx="798.511" cy="1069.97" r="14.4" fill="#009af9" fill-rule="evenodd" fill-opacity="1" stroke="#000000" stroke-opacity="1" stroke-width="3.2"/>
<circle clip-path="url(#clip102)" cx="806.545" cy="1050.26" r="14.4" fill="#009af9" fill-rule="evenodd" fill-opacity="1" stroke="#000000" stroke-opacity="1" stroke-width="3.2"/>
<circle clip-path="url(#clip102)" cx="814.578" cy="1060.7" r="14.4" fill="#009af9" fill-rule="evenodd" fill-opacity="1" stroke="#000000" stroke-opacity="1" stroke-width="3.2"/>
<circle clip-path="url(#clip102)" cx="822.612" cy="1035.33" r="14.4" fill="#009af9" fill-rule="evenodd" fill-opacity="1" stroke="#000000" stroke-opacity="1" stroke-width="3.2"/>
<circle clip-path="url(#clip102)" cx="830.645" cy="1030.55" r="14.4" fill="#009af9" fill-rule="evenodd" fill-opacity="1" stroke="#000000" stroke-opacity="1" stroke-width="3.2"/>
<circle clip-path="url(#clip102)" cx="838.679" cy="1061.97" r="14.4" fill="#009af9" fill-rule="evenodd" fill-opacity="1" stroke="#000000" stroke-opacity="1" stroke-width="3.2"/>
<circle clip-path="url(#clip102)" cx="846.712" cy="1038.11" r="14.4" fill="#009af9" fill-rule="evenodd" fill-opacity="1" stroke="#000000" stroke-opacity="1" stroke-width="3.2"/>
<circle clip-path="url(#clip102)" cx="854.746" cy="1037.78" r="14.4" fill="#009af9" fill-rule="evenodd" fill-opacity="1" stroke="#000000" stroke-opacity="1" stroke-width="3.2"/>
<circle clip-path="url(#clip102)" cx="862.779" cy="1024.08" r="14.4" fill="#009af9" fill-rule="evenodd" fill-opacity="1" stroke="#000000" stroke-opacity="1" stroke-width="3.2"/>
<circle clip-path="url(#clip102)" cx="870.813" cy="1032.33" r="14.4" fill="#009af9" fill-rule="evenodd" fill-opacity="1" stroke="#000000" stroke-opacity="1" stroke-width="3.2"/>
<circle clip-path="url(#clip102)" cx="878.846" cy="1025.43" r="14.4" fill="#009af9" fill-rule="evenodd" fill-opacity="1" stroke="#000000" stroke-opacity="1" stroke-width="3.2"/>
<circle clip-path="url(#clip102)" cx="886.88" cy="1027.49" r="14.4" fill="#009af9" fill-rule="evenodd" fill-opacity="1" stroke="#000000" stroke-opacity="1" stroke-width="3.2"/>
<circle clip-path="url(#clip102)" cx="894.914" cy="1004.55" r="14.4" fill="#009af9" fill-rule="evenodd" fill-opacity="1" stroke="#000000" stroke-opacity="1" stroke-width="3.2"/>
<circle clip-path="url(#clip102)" cx="902.947" cy="1012.6" r="14.4" fill="#009af9" fill-rule="evenodd" fill-opacity="1" stroke="#000000" stroke-opacity="1" stroke-width="3.2"/>
<circle clip-path="url(#clip102)" cx="910.981" cy="999.529" r="14.4" fill="#009af9" fill-rule="evenodd" fill-opacity="1" stroke="#000000" stroke-opacity="1" stroke-width="3.2"/>
<circle clip-path="url(#clip102)" cx="919.014" cy="994.195" r="14.4" fill="#009af9" fill-rule="evenodd" fill-opacity="1" stroke="#000000" stroke-opacity="1" stroke-width="3.2"/>
<circle clip-path="url(#clip102)" cx="927.048" cy="994.785" r="14.4" fill="#009af9" fill-rule="evenodd" fill-opacity="1" stroke="#000000" stroke-opacity="1" stroke-width="3.2"/>
<circle clip-path="url(#clip102)" cx="935.081" cy="994.962" r="14.4" fill="#009af9" fill-rule="evenodd" fill-opacity="1" stroke="#000000" stroke-opacity="1" stroke-width="3.2"/>
<circle clip-path="url(#clip102)" cx="943.115" cy="982.208" r="14.4" fill="#009af9" fill-rule="evenodd" fill-opacity="1" stroke="#000000" stroke-opacity="1" stroke-width="3.2"/>
<circle clip-path="url(#clip102)" cx="951.148" cy="977.647" r="14.4" fill="#009af9" fill-rule="evenodd" fill-opacity="1" stroke="#000000" stroke-opacity="1" stroke-width="3.2"/>
<circle clip-path="url(#clip102)" cx="959.182" cy="993.333" r="14.4" fill="#009af9" fill-rule="evenodd" fill-opacity="1" stroke="#000000" stroke-opacity="1" stroke-width="3.2"/>
<circle clip-path="url(#clip102)" cx="967.215" cy="951.973" r="14.4" fill="#009af9" fill-rule="evenodd" fill-opacity="1" stroke="#000000" stroke-opacity="1" stroke-width="3.2"/>
<circle clip-path="url(#clip102)" cx="975.249" cy="958.452" r="14.4" fill="#009af9" fill-rule="evenodd" fill-opacity="1" stroke="#000000" stroke-opacity="1" stroke-width="3.2"/>
<circle clip-path="url(#clip102)" cx="983.282" cy="945.369" r="14.4" fill="#009af9" fill-rule="evenodd" fill-opacity="1" stroke="#000000" stroke-opacity="1" stroke-width="3.2"/>
<circle clip-path="url(#clip102)" cx="991.316" cy="945.01" r="14.4" fill="#009af9" fill-rule="evenodd" fill-opacity="1" stroke="#000000" stroke-opacity="1" stroke-width="3.2"/>
<circle clip-path="url(#clip102)" cx="999.349" cy="953.965" r="14.4" fill="#009af9" fill-rule="evenodd" fill-opacity="1" stroke="#000000" stroke-opacity="1" stroke-width="3.2"/>
<circle clip-path="url(#clip102)" cx="1007.38" cy="952.4" r="14.4" fill="#009af9" fill-rule="evenodd" fill-opacity="1" stroke="#000000" stroke-opacity="1" stroke-width="3.2"/>
<circle clip-path="url(#clip102)" cx="1015.42" cy="949.688" r="14.4" fill="#009af9" fill-rule="evenodd" fill-opacity="1" stroke="#000000" stroke-opacity="1" stroke-width="3.2"/>
<circle clip-path="url(#clip102)" cx="1023.45" cy="934.572" r="14.4" fill="#009af9" fill-rule="evenodd" fill-opacity="1" stroke="#000000" stroke-opacity="1" stroke-width="3.2"/>
<circle clip-path="url(#clip102)" cx="1031.48" cy="935.52" r="14.4" fill="#009af9" fill-rule="evenodd" fill-opacity="1" stroke="#000000" stroke-opacity="1" stroke-width="3.2"/>
<circle clip-path="url(#clip102)" cx="1039.52" cy="912.031" r="14.4" fill="#009af9" fill-rule="evenodd" fill-opacity="1" stroke="#000000" stroke-opacity="1" stroke-width="3.2"/>
<circle clip-path="url(#clip102)" cx="1047.55" cy="928.365" r="14.4" fill="#009af9" fill-rule="evenodd" fill-opacity="1" stroke="#000000" stroke-opacity="1" stroke-width="3.2"/>
<circle clip-path="url(#clip102)" cx="1055.58" cy="924.25" r="14.4" fill="#009af9" fill-rule="evenodd" fill-opacity="1" stroke="#000000" stroke-opacity="1" stroke-width="3.2"/>
<circle clip-path="url(#clip102)" cx="1063.62" cy="903.236" r="14.4" fill="#009af9" fill-rule="evenodd" fill-opacity="1" stroke="#000000" stroke-opacity="1" stroke-width="3.2"/>
<circle clip-path="url(#clip102)" cx="1071.65" cy="903.515" r="14.4" fill="#009af9" fill-rule="evenodd" fill-opacity="1" stroke="#000000" stroke-opacity="1" stroke-width="3.2"/>
<circle clip-path="url(#clip102)" cx="1079.68" cy="897.822" r="14.4" fill="#009af9" fill-rule="evenodd" fill-opacity="1" stroke="#000000" stroke-opacity="1" stroke-width="3.2"/>
<circle clip-path="url(#clip102)" cx="1087.72" cy="871.551" r="14.4" fill="#009af9" fill-rule="evenodd" fill-opacity="1" stroke="#000000" stroke-opacity="1" stroke-width="3.2"/>
<circle clip-path="url(#clip102)" cx="1095.75" cy="876.182" r="14.4" fill="#009af9" fill-rule="evenodd" fill-opacity="1" stroke="#000000" stroke-opacity="1" stroke-width="3.2"/>
<circle clip-path="url(#clip102)" cx="1103.78" cy="872.7" r="14.4" fill="#009af9" fill-rule="evenodd" fill-opacity="1" stroke="#000000" stroke-opacity="1" stroke-width="3.2"/>
<circle clip-path="url(#clip102)" cx="1111.82" cy="874.555" r="14.4" fill="#009af9" fill-rule="evenodd" fill-opacity="1" stroke="#000000" stroke-opacity="1" stroke-width="3.2"/>
<circle clip-path="url(#clip102)" cx="1119.85" cy="877.584" r="14.4" fill="#009af9" fill-rule="evenodd" fill-opacity="1" stroke="#000000" stroke-opacity="1" stroke-width="3.2"/>
<circle clip-path="url(#clip102)" cx="1127.89" cy="885.711" r="14.4" fill="#009af9" fill-rule="evenodd" fill-opacity="1" stroke="#000000" stroke-opacity="1" stroke-width="3.2"/>
<circle clip-path="url(#clip102)" cx="1135.92" cy="849.223" r="14.4" fill="#009af9" fill-rule="evenodd" fill-opacity="1" stroke="#000000" stroke-opacity="1" stroke-width="3.2"/>
<circle clip-path="url(#clip102)" cx="1143.95" cy="864.477" r="14.4" fill="#009af9" fill-rule="evenodd" fill-opacity="1" stroke="#000000" stroke-opacity="1" stroke-width="3.2"/>
<circle clip-path="url(#clip102)" cx="1151.99" cy="849.34" r="14.4" fill="#009af9" fill-rule="evenodd" fill-opacity="1" stroke="#000000" stroke-opacity="1" stroke-width="3.2"/>
<circle clip-path="url(#clip102)" cx="1160.02" cy="829.996" r="14.4" fill="#009af9" fill-rule="evenodd" fill-opacity="1" stroke="#000000" stroke-opacity="1" stroke-width="3.2"/>
<circle clip-path="url(#clip102)" cx="1168.05" cy="827.868" r="14.4" fill="#009af9" fill-rule="evenodd" fill-opacity="1" stroke="#000000" stroke-opacity="1" stroke-width="3.2"/>
<circle clip-path="url(#clip102)" cx="1176.09" cy="843.635" r="14.4" fill="#009af9" fill-rule="evenodd" fill-opacity="1" stroke="#000000" stroke-opacity="1" stroke-width="3.2"/>
<circle clip-path="url(#clip102)" cx="1184.12" cy="832.45" r="14.4" fill="#009af9" fill-rule="evenodd" fill-opacity="1" stroke="#000000" stroke-opacity="1" stroke-width="3.2"/>
<circle clip-path="url(#clip102)" cx="1192.15" cy="854.746" r="14.4" fill="#009af9" fill-rule="evenodd" fill-opacity="1" stroke="#000000" stroke-opacity="1" stroke-width="3.2"/>
<circle clip-path="url(#clip102)" cx="1200.19" cy="833.724" r="14.4" fill="#009af9" fill-rule="evenodd" fill-opacity="1" stroke="#000000" stroke-opacity="1" stroke-width="3.2"/>
<circle clip-path="url(#clip102)" cx="1208.22" cy="809.69" r="14.4" fill="#009af9" fill-rule="evenodd" fill-opacity="1" stroke="#000000" stroke-opacity="1" stroke-width="3.2"/>
<circle clip-path="url(#clip102)" cx="1216.25" cy="824.571" r="14.4" fill="#009af9" fill-rule="evenodd" fill-opacity="1" stroke="#000000" stroke-opacity="1" stroke-width="3.2"/>
<circle clip-path="url(#clip102)" cx="1224.29" cy="819.398" r="14.4" fill="#009af9" fill-rule="evenodd" fill-opacity="1" stroke="#000000" stroke-opacity="1" stroke-width="3.2"/>
<circle clip-path="url(#clip102)" cx="1232.32" cy="796.363" r="14.4" fill="#009af9" fill-rule="evenodd" fill-opacity="1" stroke="#000000" stroke-opacity="1" stroke-width="3.2"/>
<circle clip-path="url(#clip102)" cx="1240.35" cy="792.591" r="14.4" fill="#009af9" fill-rule="evenodd" fill-opacity="1" stroke="#000000" stroke-opacity="1" stroke-width="3.2"/>
<circle clip-path="url(#clip102)" cx="1248.39" cy="791.671" r="14.4" fill="#009af9" fill-rule="evenodd" fill-opacity="1" stroke="#000000" stroke-opacity="1" stroke-width="3.2"/>
<circle clip-path="url(#clip102)" cx="1256.42" cy="782.2" r="14.4" fill="#009af9" fill-rule="evenodd" fill-opacity="1" stroke="#000000" stroke-opacity="1" stroke-width="3.2"/>
<circle clip-path="url(#clip102)" cx="1264.46" cy="771.839" r="14.4" fill="#009af9" fill-rule="evenodd" fill-opacity="1" stroke="#000000" stroke-opacity="1" stroke-width="3.2"/>
<circle clip-path="url(#clip102)" cx="1272.49" cy="772.363" r="14.4" fill="#009af9" fill-rule="evenodd" fill-opacity="1" stroke="#000000" stroke-opacity="1" stroke-width="3.2"/>
<circle clip-path="url(#clip102)" cx="1280.52" cy="772.44" r="14.4" fill="#009af9" fill-rule="evenodd" fill-opacity="1" stroke="#000000" stroke-opacity="1" stroke-width="3.2"/>
<circle clip-path="url(#clip102)" cx="1288.56" cy="780.109" r="14.4" fill="#009af9" fill-rule="evenodd" fill-opacity="1" stroke="#000000" stroke-opacity="1" stroke-width="3.2"/>
<circle clip-path="url(#clip102)" cx="1296.59" cy="759.637" r="14.4" fill="#009af9" fill-rule="evenodd" fill-opacity="1" stroke="#000000" stroke-opacity="1" stroke-width="3.2"/>
<circle clip-path="url(#clip102)" cx="1304.62" cy="745.242" r="14.4" fill="#009af9" fill-rule="evenodd" fill-opacity="1" stroke="#000000" stroke-opacity="1" stroke-width="3.2"/>
<circle clip-path="url(#clip102)" cx="1312.66" cy="755.553" r="14.4" fill="#009af9" fill-rule="evenodd" fill-opacity="1" stroke="#000000" stroke-opacity="1" stroke-width="3.2"/>
<circle clip-path="url(#clip102)" cx="1320.69" cy="770.101" r="14.4" fill="#009af9" fill-rule="evenodd" fill-opacity="1" stroke="#000000" stroke-opacity="1" stroke-width="3.2"/>
<circle clip-path="url(#clip102)" cx="1328.72" cy="749.624" r="14.4" fill="#009af9" fill-rule="evenodd" fill-opacity="1" stroke="#000000" stroke-opacity="1" stroke-width="3.2"/>
<circle clip-path="url(#clip102)" cx="1336.76" cy="765.122" r="14.4" fill="#009af9" fill-rule="evenodd" fill-opacity="1" stroke="#000000" stroke-opacity="1" stroke-width="3.2"/>
<circle clip-path="url(#clip102)" cx="1344.79" cy="721.119" r="14.4" fill="#009af9" fill-rule="evenodd" fill-opacity="1" stroke="#000000" stroke-opacity="1" stroke-width="3.2"/>
<circle clip-path="url(#clip102)" cx="1352.82" cy="723.471" r="14.4" fill="#009af9" fill-rule="evenodd" fill-opacity="1" stroke="#000000" stroke-opacity="1" stroke-width="3.2"/>
<circle clip-path="url(#clip102)" cx="1360.86" cy="719.759" r="14.4" fill="#009af9" fill-rule="evenodd" fill-opacity="1" stroke="#000000" stroke-opacity="1" stroke-width="3.2"/>
<circle clip-path="url(#clip102)" cx="1368.89" cy="721.827" r="14.4" fill="#009af9" fill-rule="evenodd" fill-opacity="1" stroke="#000000" stroke-opacity="1" stroke-width="3.2"/>
<circle clip-path="url(#clip102)" cx="1376.92" cy="714.169" r="14.4" fill="#009af9" fill-rule="evenodd" fill-opacity="1" stroke="#000000" stroke-opacity="1" stroke-width="3.2"/>
<circle clip-path="url(#clip102)" cx="1384.96" cy="711.828" r="14.4" fill="#009af9" fill-rule="evenodd" fill-opacity="1" stroke="#000000" stroke-opacity="1" stroke-width="3.2"/>
<circle clip-path="url(#clip102)" cx="1392.99" cy="708.95" r="14.4" fill="#009af9" fill-rule="evenodd" fill-opacity="1" stroke="#000000" stroke-opacity="1" stroke-width="3.2"/>
<circle clip-path="url(#clip102)" cx="1401.03" cy="709.181" r="14.4" fill="#009af9" fill-rule="evenodd" fill-opacity="1" stroke="#000000" stroke-opacity="1" stroke-width="3.2"/>
<circle clip-path="url(#clip102)" cx="1409.06" cy="695.244" r="14.4" fill="#009af9" fill-rule="evenodd" fill-opacity="1" stroke="#000000" stroke-opacity="1" stroke-width="3.2"/>
<circle clip-path="url(#clip102)" cx="1417.09" cy="697.308" r="14.4" fill="#009af9" fill-rule="evenodd" fill-opacity="1" stroke="#000000" stroke-opacity="1" stroke-width="3.2"/>
<circle clip-path="url(#clip102)" cx="1425.13" cy="688.275" r="14.4" fill="#009af9" fill-rule="evenodd" fill-opacity="1" stroke="#000000" stroke-opacity="1" stroke-width="3.2"/>
<circle clip-path="url(#clip102)" cx="1433.16" cy="700.882" r="14.4" fill="#009af9" fill-rule="evenodd" fill-opacity="1" stroke="#000000" stroke-opacity="1" stroke-width="3.2"/>
<circle clip-path="url(#clip102)" cx="1441.19" cy="679.774" r="14.4" fill="#009af9" fill-rule="evenodd" fill-opacity="1" stroke="#000000" stroke-opacity="1" stroke-width="3.2"/>
<circle clip-path="url(#clip102)" cx="1449.23" cy="682.663" r="14.4" fill="#009af9" fill-rule="evenodd" fill-opacity="1" stroke="#000000" stroke-opacity="1" stroke-width="3.2"/>
<circle clip-path="url(#clip102)" cx="1457.26" cy="660.572" r="14.4" fill="#009af9" fill-rule="evenodd" fill-opacity="1" stroke="#000000" stroke-opacity="1" stroke-width="3.2"/>
<circle clip-path="url(#clip102)" cx="1465.29" cy="647.377" r="14.4" fill="#009af9" fill-rule="evenodd" fill-opacity="1" stroke="#000000" stroke-opacity="1" stroke-width="3.2"/>
<circle clip-path="url(#clip102)" cx="1473.33" cy="665.714" r="14.4" fill="#009af9" fill-rule="evenodd" fill-opacity="1" stroke="#000000" stroke-opacity="1" stroke-width="3.2"/>
<circle clip-path="url(#clip102)" cx="1481.36" cy="652.174" r="14.4" fill="#009af9" fill-rule="evenodd" fill-opacity="1" stroke="#000000" stroke-opacity="1" stroke-width="3.2"/>
<circle clip-path="url(#clip102)" cx="1489.39" cy="670.953" r="14.4" fill="#009af9" fill-rule="evenodd" fill-opacity="1" stroke="#000000" stroke-opacity="1" stroke-width="3.2"/>
<circle clip-path="url(#clip102)" cx="1497.43" cy="635.113" r="14.4" fill="#009af9" fill-rule="evenodd" fill-opacity="1" stroke="#000000" stroke-opacity="1" stroke-width="3.2"/>
<circle clip-path="url(#clip102)" cx="1505.46" cy="633.408" r="14.4" fill="#009af9" fill-rule="evenodd" fill-opacity="1" stroke="#000000" stroke-opacity="1" stroke-width="3.2"/>
<circle clip-path="url(#clip102)" cx="1513.49" cy="640.217" r="14.4" fill="#009af9" fill-rule="evenodd" fill-opacity="1" stroke="#000000" stroke-opacity="1" stroke-width="3.2"/>
<circle clip-path="url(#clip102)" cx="1521.53" cy="626.675" r="14.4" fill="#009af9" fill-rule="evenodd" fill-opacity="1" stroke="#000000" stroke-opacity="1" stroke-width="3.2"/>
<circle clip-path="url(#clip102)" cx="1529.56" cy="625.972" r="14.4" fill="#009af9" fill-rule="evenodd" fill-opacity="1" stroke="#000000" stroke-opacity="1" stroke-width="3.2"/>
<circle clip-path="url(#clip102)" cx="1537.59" cy="606.16" r="14.4" fill="#009af9" fill-rule="evenodd" fill-opacity="1" stroke="#000000" stroke-opacity="1" stroke-width="3.2"/>
<circle clip-path="url(#clip102)" cx="1545.63" cy="620.133" r="14.4" fill="#009af9" fill-rule="evenodd" fill-opacity="1" stroke="#000000" stroke-opacity="1" stroke-width="3.2"/>
<circle clip-path="url(#clip102)" cx="1553.66" cy="621.027" r="14.4" fill="#009af9" fill-rule="evenodd" fill-opacity="1" stroke="#000000" stroke-opacity="1" stroke-width="3.2"/>
<circle clip-path="url(#clip102)" cx="1561.7" cy="601.997" r="14.4" fill="#009af9" fill-rule="evenodd" fill-opacity="1" stroke="#000000" stroke-opacity="1" stroke-width="3.2"/>
<circle clip-path="url(#clip102)" cx="1569.73" cy="620.305" r="14.4" fill="#009af9" fill-rule="evenodd" fill-opacity="1" stroke="#000000" stroke-opacity="1" stroke-width="3.2"/>
<circle clip-path="url(#clip102)" cx="1577.76" cy="579.476" r="14.4" fill="#009af9" fill-rule="evenodd" fill-opacity="1" stroke="#000000" stroke-opacity="1" stroke-width="3.2"/>
<circle clip-path="url(#clip102)" cx="1585.8" cy="582.732" r="14.4" fill="#009af9" fill-rule="evenodd" fill-opacity="1" stroke="#000000" stroke-opacity="1" stroke-width="3.2"/>
<circle clip-path="url(#clip102)" cx="1593.83" cy="575.49" r="14.4" fill="#009af9" fill-rule="evenodd" fill-opacity="1" stroke="#000000" stroke-opacity="1" stroke-width="3.2"/>
<circle clip-path="url(#clip102)" cx="1601.86" cy="577.821" r="14.4" fill="#009af9" fill-rule="evenodd" fill-opacity="1" stroke="#000000" stroke-opacity="1" stroke-width="3.2"/>
<circle clip-path="url(#clip102)" cx="1609.9" cy="583.551" r="14.4" fill="#009af9" fill-rule="evenodd" fill-opacity="1" stroke="#000000" stroke-opacity="1" stroke-width="3.2"/>
<circle clip-path="url(#clip102)" cx="1617.93" cy="567.341" r="14.4" fill="#009af9" fill-rule="evenodd" fill-opacity="1" stroke="#000000" stroke-opacity="1" stroke-width="3.2"/>
<circle clip-path="url(#clip102)" cx="1625.96" cy="579.327" r="14.4" fill="#009af9" fill-rule="evenodd" fill-opacity="1" stroke="#000000" stroke-opacity="1" stroke-width="3.2"/>
<circle clip-path="url(#clip102)" cx="1634" cy="563.595" r="14.4" fill="#009af9" fill-rule="evenodd" fill-opacity="1" stroke="#000000" stroke-opacity="1" stroke-width="3.2"/>
<circle clip-path="url(#clip102)" cx="1642.03" cy="566.63" r="14.4" fill="#009af9" fill-rule="evenodd" fill-opacity="1" stroke="#000000" stroke-opacity="1" stroke-width="3.2"/>
<circle clip-path="url(#clip102)" cx="1650.06" cy="546.068" r="14.4" fill="#009af9" fill-rule="evenodd" fill-opacity="1" stroke="#000000" stroke-opacity="1" stroke-width="3.2"/>
<circle clip-path="url(#clip102)" cx="1658.1" cy="532.527" r="14.4" fill="#009af9" fill-rule="evenodd" fill-opacity="1" stroke="#000000" stroke-opacity="1" stroke-width="3.2"/>
<circle clip-path="url(#clip102)" cx="1666.13" cy="549.368" r="14.4" fill="#009af9" fill-rule="evenodd" fill-opacity="1" stroke="#000000" stroke-opacity="1" stroke-width="3.2"/>
<circle clip-path="url(#clip102)" cx="1674.16" cy="539.855" r="14.4" fill="#009af9" fill-rule="evenodd" fill-opacity="1" stroke="#000000" stroke-opacity="1" stroke-width="3.2"/>
<circle clip-path="url(#clip102)" cx="1682.2" cy="534.943" r="14.4" fill="#009af9" fill-rule="evenodd" fill-opacity="1" stroke="#000000" stroke-opacity="1" stroke-width="3.2"/>
<circle clip-path="url(#clip102)" cx="1690.23" cy="538.507" r="14.4" fill="#009af9" fill-rule="evenodd" fill-opacity="1" stroke="#000000" stroke-opacity="1" stroke-width="3.2"/>
<circle clip-path="url(#clip102)" cx="1698.27" cy="517.928" r="14.4" fill="#009af9" fill-rule="evenodd" fill-opacity="1" stroke="#000000" stroke-opacity="1" stroke-width="3.2"/>
<circle clip-path="url(#clip102)" cx="1706.3" cy="532.209" r="14.4" fill="#009af9" fill-rule="evenodd" fill-opacity="1" stroke="#000000" stroke-opacity="1" stroke-width="3.2"/>
<circle clip-path="url(#clip102)" cx="1714.33" cy="494.772" r="14.4" fill="#009af9" fill-rule="evenodd" fill-opacity="1" stroke="#000000" stroke-opacity="1" stroke-width="3.2"/>
<circle clip-path="url(#clip102)" cx="1722.37" cy="533.043" r="14.4" fill="#009af9" fill-rule="evenodd" fill-opacity="1" stroke="#000000" stroke-opacity="1" stroke-width="3.2"/>
<circle clip-path="url(#clip102)" cx="1730.4" cy="488.663" r="14.4" fill="#009af9" fill-rule="evenodd" fill-opacity="1" stroke="#000000" stroke-opacity="1" stroke-width="3.2"/>
<circle clip-path="url(#clip102)" cx="1738.43" cy="489.415" r="14.4" fill="#009af9" fill-rule="evenodd" fill-opacity="1" stroke="#000000" stroke-opacity="1" stroke-width="3.2"/>
<circle clip-path="url(#clip102)" cx="1746.47" cy="507.694" r="14.4" fill="#009af9" fill-rule="evenodd" fill-opacity="1" stroke="#000000" stroke-opacity="1" stroke-width="3.2"/>
<circle clip-path="url(#clip102)" cx="1754.5" cy="489.449" r="14.4" fill="#009af9" fill-rule="evenodd" fill-opacity="1" stroke="#000000" stroke-opacity="1" stroke-width="3.2"/>
<circle clip-path="url(#clip102)" cx="1762.53" cy="483.077" r="14.4" fill="#009af9" fill-rule="evenodd" fill-opacity="1" stroke="#000000" stroke-opacity="1" stroke-width="3.2"/>
<circle clip-path="url(#clip102)" cx="1770.57" cy="491.706" r="14.4" fill="#009af9" fill-rule="evenodd" fill-opacity="1" stroke="#000000" stroke-opacity="1" stroke-width="3.2"/>
<circle clip-path="url(#clip102)" cx="1778.6" cy="465.642" r="14.4" fill="#009af9" fill-rule="evenodd" fill-opacity="1" stroke="#000000" stroke-opacity="1" stroke-width="3.2"/>
<circle clip-path="url(#clip102)" cx="1786.63" cy="469.99" r="14.4" fill="#009af9" fill-rule="evenodd" fill-opacity="1" stroke="#000000" stroke-opacity="1" stroke-width="3.2"/>
<circle clip-path="url(#clip102)" cx="1794.67" cy="475.38" r="14.4" fill="#009af9" fill-rule="evenodd" fill-opacity="1" stroke="#000000" stroke-opacity="1" stroke-width="3.2"/>
<circle clip-path="url(#clip102)" cx="1802.7" cy="449.547" r="14.4" fill="#009af9" fill-rule="evenodd" fill-opacity="1" stroke="#000000" stroke-opacity="1" stroke-width="3.2"/>
<circle clip-path="url(#clip102)" cx="1810.73" cy="445.547" r="14.4" fill="#009af9" fill-rule="evenodd" fill-opacity="1" stroke="#000000" stroke-opacity="1" stroke-width="3.2"/>
<circle clip-path="url(#clip102)" cx="1818.77" cy="440.615" r="14.4" fill="#009af9" fill-rule="evenodd" fill-opacity="1" stroke="#000000" stroke-opacity="1" stroke-width="3.2"/>
<circle clip-path="url(#clip102)" cx="1826.8" cy="439.878" r="14.4" fill="#009af9" fill-rule="evenodd" fill-opacity="1" stroke="#000000" stroke-opacity="1" stroke-width="3.2"/>
<circle clip-path="url(#clip102)" cx="1834.84" cy="440.156" r="14.4" fill="#009af9" fill-rule="evenodd" fill-opacity="1" stroke="#000000" stroke-opacity="1" stroke-width="3.2"/>
<circle clip-path="url(#clip102)" cx="1842.87" cy="423.039" r="14.4" fill="#009af9" fill-rule="evenodd" fill-opacity="1" stroke="#000000" stroke-opacity="1" stroke-width="3.2"/>
<circle clip-path="url(#clip102)" cx="1850.9" cy="436.261" r="14.4" fill="#009af9" fill-rule="evenodd" fill-opacity="1" stroke="#000000" stroke-opacity="1" stroke-width="3.2"/>
<circle clip-path="url(#clip102)" cx="1858.94" cy="422.903" r="14.4" fill="#009af9" fill-rule="evenodd" fill-opacity="1" stroke="#000000" stroke-opacity="1" stroke-width="3.2"/>
<circle clip-path="url(#clip102)" cx="1866.97" cy="415.043" r="14.4" fill="#009af9" fill-rule="evenodd" fill-opacity="1" stroke="#000000" stroke-opacity="1" stroke-width="3.2"/>
<circle clip-path="url(#clip102)" cx="1875" cy="399.402" r="14.4" fill="#009af9" fill-rule="evenodd" fill-opacity="1" stroke="#000000" stroke-opacity="1" stroke-width="3.2"/>
<circle clip-path="url(#clip102)" cx="1883.04" cy="414.801" r="14.4" fill="#009af9" fill-rule="evenodd" fill-opacity="1" stroke="#000000" stroke-opacity="1" stroke-width="3.2"/>
<circle clip-path="url(#clip102)" cx="1891.07" cy="414.073" r="14.4" fill="#009af9" fill-rule="evenodd" fill-opacity="1" stroke="#000000" stroke-opacity="1" stroke-width="3.2"/>
<circle clip-path="url(#clip102)" cx="1899.1" cy="401.293" r="14.4" fill="#009af9" fill-rule="evenodd" fill-opacity="1" stroke="#000000" stroke-opacity="1" stroke-width="3.2"/>
<circle clip-path="url(#clip102)" cx="1907.14" cy="392.915" r="14.4" fill="#009af9" fill-rule="evenodd" fill-opacity="1" stroke="#000000" stroke-opacity="1" stroke-width="3.2"/>
<circle clip-path="url(#clip102)" cx="1915.17" cy="403.821" r="14.4" fill="#009af9" fill-rule="evenodd" fill-opacity="1" stroke="#000000" stroke-opacity="1" stroke-width="3.2"/>
<circle clip-path="url(#clip102)" cx="1923.2" cy="390.726" r="14.4" fill="#009af9" fill-rule="evenodd" fill-opacity="1" stroke="#000000" stroke-opacity="1" stroke-width="3.2"/>
<circle clip-path="url(#clip102)" cx="1931.24" cy="375.327" r="14.4" fill="#009af9" fill-rule="evenodd" fill-opacity="1" stroke="#000000" stroke-opacity="1" stroke-width="3.2"/>
<circle clip-path="url(#clip102)" cx="1939.27" cy="373.747" r="14.4" fill="#009af9" fill-rule="evenodd" fill-opacity="1" stroke="#000000" stroke-opacity="1" stroke-width="3.2"/>
<circle clip-path="url(#clip102)" cx="1947.3" cy="364.101" r="14.4" fill="#009af9" fill-rule="evenodd" fill-opacity="1" stroke="#000000" stroke-opacity="1" stroke-width="3.2"/>
<circle clip-path="url(#clip102)" cx="1955.34" cy="365.489" r="14.4" fill="#009af9" fill-rule="evenodd" fill-opacity="1" stroke="#000000" stroke-opacity="1" stroke-width="3.2"/>
<circle clip-path="url(#clip102)" cx="1963.37" cy="357.168" r="14.4" fill="#009af9" fill-rule="evenodd" fill-opacity="1" stroke="#000000" stroke-opacity="1" stroke-width="3.2"/>
<circle clip-path="url(#clip102)" cx="1971.4" cy="362.045" r="14.4" fill="#009af9" fill-rule="evenodd" fill-opacity="1" stroke="#000000" stroke-opacity="1" stroke-width="3.2"/>
<circle clip-path="url(#clip102)" cx="1979.44" cy="369.503" r="14.4" fill="#009af9" fill-rule="evenodd" fill-opacity="1" stroke="#000000" stroke-opacity="1" stroke-width="3.2"/>
<circle clip-path="url(#clip102)" cx="1987.47" cy="358.408" r="14.4" fill="#009af9" fill-rule="evenodd" fill-opacity="1" stroke="#000000" stroke-opacity="1" stroke-width="3.2"/>
<circle clip-path="url(#clip102)" cx="1995.51" cy="336.184" r="14.4" fill="#009af9" fill-rule="evenodd" fill-opacity="1" stroke="#000000" stroke-opacity="1" stroke-width="3.2"/>
<circle clip-path="url(#clip102)" cx="2003.54" cy="320.742" r="14.4" fill="#009af9" fill-rule="evenodd" fill-opacity="1" stroke="#000000" stroke-opacity="1" stroke-width="3.2"/>
<circle clip-path="url(#clip102)" cx="2011.57" cy="327.326" r="14.4" fill="#009af9" fill-rule="evenodd" fill-opacity="1" stroke="#000000" stroke-opacity="1" stroke-width="3.2"/>
<circle clip-path="url(#clip102)" cx="2019.61" cy="335.601" r="14.4" fill="#009af9" fill-rule="evenodd" fill-opacity="1" stroke="#000000" stroke-opacity="1" stroke-width="3.2"/>
<circle clip-path="url(#clip102)" cx="2027.64" cy="313.587" r="14.4" fill="#009af9" fill-rule="evenodd" fill-opacity="1" stroke="#000000" stroke-opacity="1" stroke-width="3.2"/>
<circle clip-path="url(#clip102)" cx="2035.67" cy="302.191" r="14.4" fill="#009af9" fill-rule="evenodd" fill-opacity="1" stroke="#000000" stroke-opacity="1" stroke-width="3.2"/>
<circle clip-path="url(#clip102)" cx="2043.71" cy="322.108" r="14.4" fill="#009af9" fill-rule="evenodd" fill-opacity="1" stroke="#000000" stroke-opacity="1" stroke-width="3.2"/>
<circle clip-path="url(#clip102)" cx="2051.74" cy="302.157" r="14.4" fill="#009af9" fill-rule="evenodd" fill-opacity="1" stroke="#000000" stroke-opacity="1" stroke-width="3.2"/>
<circle clip-path="url(#clip102)" cx="2059.77" cy="298.61" r="14.4" fill="#009af9" fill-rule="evenodd" fill-opacity="1" stroke="#000000" stroke-opacity="1" stroke-width="3.2"/>
<circle clip-path="url(#clip102)" cx="2067.81" cy="288.485" r="14.4" fill="#009af9" fill-rule="evenodd" fill-opacity="1" stroke="#000000" stroke-opacity="1" stroke-width="3.2"/>
<circle clip-path="url(#clip102)" cx="2075.84" cy="298.138" r="14.4" fill="#009af9" fill-rule="evenodd" fill-opacity="1" stroke="#000000" stroke-opacity="1" stroke-width="3.2"/>
<circle clip-path="url(#clip102)" cx="2083.87" cy="287.633" r="14.4" fill="#009af9" fill-rule="evenodd" fill-opacity="1" stroke="#000000" stroke-opacity="1" stroke-width="3.2"/>
<circle clip-path="url(#clip102)" cx="2091.91" cy="262.328" r="14.4" fill="#009af9" fill-rule="evenodd" fill-opacity="1" stroke="#000000" stroke-opacity="1" stroke-width="3.2"/>
<circle clip-path="url(#clip102)" cx="2099.94" cy="264.988" r="14.4" fill="#009af9" fill-rule="evenodd" fill-opacity="1" stroke="#000000" stroke-opacity="1" stroke-width="3.2"/>
<circle clip-path="url(#clip102)" cx="2107.97" cy="288.854" r="14.4" fill="#009af9" fill-rule="evenodd" fill-opacity="1" stroke="#000000" stroke-opacity="1" stroke-width="3.2"/>
<circle clip-path="url(#clip102)" cx="2116.01" cy="275.5" r="14.4" fill="#009af9" fill-rule="evenodd" fill-opacity="1" stroke="#000000" stroke-opacity="1" stroke-width="3.2"/>
<circle clip-path="url(#clip102)" cx="2124.04" cy="245.982" r="14.4" fill="#009af9" fill-rule="evenodd" fill-opacity="1" stroke="#000000" stroke-opacity="1" stroke-width="3.2"/>
<circle clip-path="url(#clip102)" cx="2132.08" cy="266.353" r="14.4" fill="#009af9" fill-rule="evenodd" fill-opacity="1" stroke="#000000" stroke-opacity="1" stroke-width="3.2"/>
<circle clip-path="url(#clip102)" cx="2140.11" cy="256.794" r="14.4" fill="#009af9" fill-rule="evenodd" fill-opacity="1" stroke="#000000" stroke-opacity="1" stroke-width="3.2"/>
<circle clip-path="url(#clip102)" cx="2148.14" cy="247.692" r="14.4" fill="#009af9" fill-rule="evenodd" fill-opacity="1" stroke="#000000" stroke-opacity="1" stroke-width="3.2"/>
<circle clip-path="url(#clip102)" cx="2156.18" cy="247.272" r="14.4" fill="#009af9" fill-rule="evenodd" fill-opacity="1" stroke="#000000" stroke-opacity="1" stroke-width="3.2"/>
<circle clip-path="url(#clip102)" cx="2164.21" cy="219.793" r="14.4" fill="#009af9" fill-rule="evenodd" fill-opacity="1" stroke="#000000" stroke-opacity="1" stroke-width="3.2"/>
<circle clip-path="url(#clip102)" cx="2172.24" cy="227.577" r="14.4" fill="#009af9" fill-rule="evenodd" fill-opacity="1" stroke="#000000" stroke-opacity="1" stroke-width="3.2"/>
<circle clip-path="url(#clip102)" cx="2180.28" cy="217.885" r="14.4" fill="#009af9" fill-rule="evenodd" fill-opacity="1" stroke="#000000" stroke-opacity="1" stroke-width="3.2"/>
<circle clip-path="url(#clip102)" cx="2188.31" cy="207.114" r="14.4" fill="#009af9" fill-rule="evenodd" fill-opacity="1" stroke="#000000" stroke-opacity="1" stroke-width="3.2"/>
<circle clip-path="url(#clip102)" cx="2196.34" cy="218.827" r="14.4" fill="#009af9" fill-rule="evenodd" fill-opacity="1" stroke="#000000" stroke-opacity="1" stroke-width="3.2"/>
<circle clip-path="url(#clip102)" cx="2204.38" cy="196.019" r="14.4" fill="#009af9" fill-rule="evenodd" fill-opacity="1" stroke="#000000" stroke-opacity="1" stroke-width="3.2"/>
<circle clip-path="url(#clip102)" cx="2212.41" cy="195.826" r="14.4" fill="#009af9" fill-rule="evenodd" fill-opacity="1" stroke="#000000" stroke-opacity="1" stroke-width="3.2"/>
<circle clip-path="url(#clip102)" cx="2220.44" cy="219.805" r="14.4" fill="#009af9" fill-rule="evenodd" fill-opacity="1" stroke="#000000" stroke-opacity="1" stroke-width="3.2"/>
<circle clip-path="url(#clip102)" cx="2228.48" cy="201.006" r="14.4" fill="#009af9" fill-rule="evenodd" fill-opacity="1" stroke="#000000" stroke-opacity="1" stroke-width="3.2"/>
<circle clip-path="url(#clip102)" cx="2236.51" cy="185.538" r="14.4" fill="#009af9" fill-rule="evenodd" fill-opacity="1" stroke="#000000" stroke-opacity="1" stroke-width="3.2"/>
<circle clip-path="url(#clip102)" cx="2244.54" cy="198.106" r="14.4" fill="#009af9" fill-rule="evenodd" fill-opacity="1" stroke="#000000" stroke-opacity="1" stroke-width="3.2"/>
<circle clip-path="url(#clip102)" cx="2252.58" cy="187.352" r="14.4" fill="#009af9" fill-rule="evenodd" fill-opacity="1" stroke="#000000" stroke-opacity="1" stroke-width="3.2"/>
<circle clip-path="url(#clip102)" cx="2260.61" cy="180.296" r="14.4" fill="#009af9" fill-rule="evenodd" fill-opacity="1" stroke="#000000" stroke-opacity="1" stroke-width="3.2"/>
<circle clip-path="url(#clip102)" cx="2268.64" cy="168.088" r="14.4" fill="#009af9" fill-rule="evenodd" fill-opacity="1" stroke="#000000" stroke-opacity="1" stroke-width="3.2"/>
<circle clip-path="url(#clip102)" cx="2276.68" cy="163.418" r="14.4" fill="#009af9" fill-rule="evenodd" fill-opacity="1" stroke="#000000" stroke-opacity="1" stroke-width="3.2"/>
<circle clip-path="url(#clip102)" cx="2284.71" cy="173.918" r="14.4" fill="#009af9" fill-rule="evenodd" fill-opacity="1" stroke="#000000" stroke-opacity="1" stroke-width="3.2"/>
<circle clip-path="url(#clip102)" cx="2292.75" cy="160.256" r="14.4" fill="#009af9" fill-rule="evenodd" fill-opacity="1" stroke="#000000" stroke-opacity="1" stroke-width="3.2"/>
</svg>
