<?xml version="1.0" encoding="UTF-8"?>
<svg xmlns="http://www.w3.org/2000/svg"
     xmlns:xlink="http://www.w3.org/1999/xlink"
     version="1.2"
     width="141.42mm" height="100mm" viewBox="0 0 141.42 100"
     stroke="none"
     fill="#000000"
     stroke-width="0.3"
     font-size="3.88"
>
<defs>
  <marker id="arrow" markerWidth="15" markerHeight="7" refX="5" refY="3.5" orient="auto" markerUnits="strokeWidth">
    <path d="M0,0 L15,3.5 L0,7 z" stroke="context-stroke" fill="context-stroke"/>
  </marker>
</defs>
<g stroke-width="0.6" fill="#000000" fill-opacity="0.000" stroke="#D3D3D3" id="img-7b724f0f-1">
  <g transform="translate(92.73,80)">
    <path fill="none" d="M-6.79,-2.32 L6.79,2.32 " class="primitive"/>
  </g>
  <g transform="translate(77.75,81.24)">
    <path fill="none" d="M3.6,-2.9 L-3.6,2.9 " class="primitive"/>
  </g>
  <g transform="translate(79.97,70.4)">
    <path fill="none" d="M2.3,4.42 L-2.3,-4.42 " class="primitive"/>
  </g>
  <g transform="translate(108.97,82.29)">
    <path fill="none" d="M3.9,-0.54 L-3.9,0.54 " class="primitive"/>
  </g>
  <g transform="translate(107.32,86.54)">
    <path fill="none" d="M2.96,1.91 L-2.96,-1.91 " class="primitive"/>
  </g>
  <g transform="translate(74.78,88.04)">
    <path fill="none" d="M0.76,0.69 L-0.76,-0.69 " class="primitive"/>
  </g>
  <g transform="translate(66.42,88.68)">
    <path fill="none" d="M-3.41,1.76 L3.41,-1.76 " class="primitive"/>
  </g>
  <g transform="translate(87.94,31.94)">
    <path fill="none" d="M4.69,-3.67 L-4.69,3.67 " class="primitive"/>
  </g>
  <g transform="translate(94.76,21.3)">
    <path fill="none" d="M-0.1,3.34 L0.1,-3.34 " class="primitive"/>
  </g>
  <g transform="translate(102.75,29.01)">
    <path fill="none" d="M-5.41,-1.52 L5.41,1.52 " class="primitive"/>
  </g>
  <g transform="translate(77.35,57.42)">
    <path fill="none" d="M0.48,-4.53 L-0.48,4.53 " class="primitive"/>
  </g>
  <g transform="translate(79.66,43.98)">
    <path fill="none" d="M-1.12,4.77 L1.12,-4.77 " class="primitive"/>
  </g>
  <g transform="translate(68.32,63.23)">
    <path fill="none" d="M-5.42,-0.52 L5.42,0.52 " class="primitive"/>
  </g>
  <g transform="translate(75.64,34.37)">
    <path fill="none" d="M-3.21,-1.59 L3.21,1.59 " class="primitive"/>
  </g>
  <g transform="translate(98.1,12.1)">
    <path fill="none" d="M1.67,-1.98 L-1.67,1.98 " class="primitive"/>
  </g>
  <g transform="translate(89.45,13.59)">
    <path fill="none" d="M-2.94,-1.22 L2.94,1.22 " class="primitive"/>
  </g>
  <g transform="translate(68,48.24)">
    <path fill="none" d="M-10.7,1.74 L10.7,-1.74 " class="primitive"/>
  </g>
  <g transform="translate(41.87,52.5)">
    <path fill="none" d="M9.69,-1.58 L-9.69,1.58 " class="primitive"/>
  </g>
  <g transform="translate(105.19,35.05)">
    <path fill="none" d="M-3.54,2.32 L3.54,-2.32 " class="primitive"/>
  </g>
  <g transform="translate(90.54,42.41)">
    <path fill="none" d="M6.4,-2.59 L-6.4,2.59 " class="primitive"/>
  </g>
  <g transform="translate(120.26,30.79)">
    <path fill="none" d="M6.43,-0.35 L-6.43,0.35 " class="primitive"/>
  </g>
  <g transform="translate(89.35,47.19)">
    <path fill="none" d="M4.89,0.73 L-4.89,-0.73 " class="primitive"/>
  </g>
  <g transform="translate(22.45,57.05)">
    <path fill="none" d="M-4.23,1.55 L4.23,-1.55 " class="primitive"/>
  </g>
  <g transform="translate(20.54,54.34)">
    <path fill="none" d="M-5.81,-0.14 L5.81,0.14 " class="primitive"/>
  </g>
</g>
<g stroke-width="0.6" stroke="#D3D3D3" id="img-7b724f0f-2">
</g>
<g font-size="4" stroke="#000000" stroke-opacity="0.000" fill="#000000" id="img-7b724f0f-3">
</g>
<g stroke-width="0" stroke="#000000" stroke-opacity="0.000" fill="#40E0D0" id="img-7b724f0f-4">
  <g transform="translate(83.29,76.77)">
    <circle cx="0" cy="0" r="2.83" class="primitive"/>
  </g>
  <g transform="translate(115.76,81.35)">
    <circle cx="0" cy="0" r="2.83" class="primitive"/>
  </g>
  <g transform="translate(112.45,89.85)">
    <circle cx="0" cy="0" r="2.83" class="primitive"/>
  </g>
  <g transform="translate(102.18,83.24)">
    <circle cx="0" cy="0" r="2.83" class="primitive"/>
  </g>
  <g transform="translate(77.36,90.37)">
    <circle cx="0" cy="0" r="2.83" class="primitive"/>
  </g>
  <g transform="translate(60.63,91.67)">
    <circle cx="0" cy="0" r="2.83" class="primitive"/>
  </g>
  <g transform="translate(72.21,85.7)">
    <circle cx="0" cy="0" r="2.83" class="primitive"/>
  </g>
  <g transform="translate(94.61,26.72)">
    <circle cx="0" cy="0" r="2.83" class="primitive"/>
  </g>
  <g transform="translate(78.05,50.81)">
    <circle cx="0" cy="0" r="2.83" class="primitive"/>
  </g>
  <g transform="translate(59.98,62.44)">
    <circle cx="0" cy="0" r="2.83" class="primitive"/>
  </g>
  <g transform="translate(76.65,64.02)">
    <circle cx="0" cy="0" r="2.83" class="primitive"/>
  </g>
  <g transform="translate(70.01,31.59)">
    <circle cx="0" cy="0" r="2.83" class="primitive"/>
  </g>
  <g transform="translate(81.27,37.15)">
    <circle cx="0" cy="0" r="2.83" class="primitive"/>
  </g>
  <g transform="translate(101.28,8.33)">
    <circle cx="0" cy="0" r="2.83" class="primitive"/>
  </g>
  <g transform="translate(83.98,11.32)">
    <circle cx="0" cy="0" r="2.83" class="primitive"/>
  </g>
  <g transform="translate(94.92,15.87)">
    <circle cx="0" cy="0" r="2.83" class="primitive"/>
  </g>
  <g transform="translate(54.43,50.45)">
    <circle cx="0" cy="0" r="2.83" class="primitive"/>
  </g>
  <g transform="translate(99.5,38.79)">
    <circle cx="0" cy="0" r="2.83" class="primitive"/>
  </g>
  <g transform="translate(129.64,30.28)">
    <circle cx="0" cy="0" r="2.83" class="primitive"/>
  </g>
  <g transform="translate(110.89,31.31)">
    <circle cx="0" cy="0" r="2.83" class="primitive"/>
  </g>
  <g transform="translate(97.12,48.35)">
    <circle cx="0" cy="0" r="2.83" class="primitive"/>
  </g>
  <g transform="translate(81.58,46.03)">
    <circle cx="0" cy="0" r="2.83" class="primitive"/>
  </g>
  <g transform="translate(15.6,59.56)">
    <circle cx="0" cy="0" r="2.83" class="primitive"/>
  </g>
  <g transform="translate(11.79,54.13)">
    <circle cx="0" cy="0" r="2.83" class="primitive"/>
  </g>
  <g transform="translate(29.3,54.55)">
    <circle cx="0" cy="0" r="2.83" class="primitive"/>
  </g>
</g>
<g font-size="4" stroke="#000000" stroke-opacity="0.000" fill="#000000" id="img-7b724f0f-5">
  <g transform="translate(83.29,76.77)">
    <g class="primitive">
      <text text-anchor="middle" dy="0.35em">x</text>
    </g>
  </g>
  <g transform="translate(115.76,81.35)">
    <g class="primitive">
      <text text-anchor="middle" dy="0.35em">constvar_2</text>
    </g>
  </g>
  <g transform="translate(112.45,89.85)">
    <g class="primitive">
      <text text-anchor="middle" dy="0.35em">constvar_4</text>
    </g>
  </g>
  <g transform="translate(102.18,83.24)">
    <g class="primitive">
      <text text-anchor="middle" dy="0.35em">NormalMeanVariance</text>
    </g>
  </g>
  <g transform="translate(77.36,90.37)">
    <g class="primitive">
      <text text-anchor="middle" dy="0.35em">y</text>
    </g>
  </g>
  <g transform="translate(60.63,91.67)">
    <g class="primitive">
      <text text-anchor="middle" dy="0.35em">constvar_8</text>
    </g>
  </g>
  <g transform="translate(72.21,85.7)">
    <g class="primitive">
      <text text-anchor="middle" dy="0.35em">NormalMeanVariance</text>
    </g>
  </g>
  <g transform="translate(94.61,26.72)">
    <g class="primitive">
      <text text-anchor="middle" dy="0.35em">x</text>
    </g>
  </g>
  <g transform="translate(78.05,50.81)">
    <g class="primitive">
      <text text-anchor="middle" dy="0.35em">anonymous_var_graphppl</text>
    </g>
  </g>
  <g transform="translate(59.98,62.44)">
    <g class="primitive">
      <text text-anchor="middle" dy="0.35em">constvar_13</text>
    </g>
  </g>
  <g transform="translate(76.65,64.02)">
    <g class="primitive">
      <text text-anchor="middle" dy="0.35em">+</text>
    </g>
  </g>
  <g transform="translate(70.01,31.59)">
    <g class="primitive">
      <text text-anchor="middle" dy="0.35em">constvar_16</text>
    </g>
  </g>
  <g transform="translate(81.27,37.15)">
    <g class="primitive">
      <text text-anchor="middle" dy="0.35em">NormalMeanVariance</text>
    </g>
  </g>
  <g transform="translate(101.28,8.33)">
    <g class="primitive">
      <text text-anchor="middle" dy="0.35em">y</text>
    </g>
  </g>
  <g transform="translate(83.98,11.32)">
    <g class="primitive">
      <text text-anchor="middle" dy="0.35em">constvar_20</text>
    </g>
  </g>
  <g transform="translate(94.92,15.87)">
    <g class="primitive">
      <text text-anchor="middle" dy="0.35em">NormalMeanVariance</text>
    </g>
  </g>
  <g transform="translate(54.43,50.45)">
    <g class="primitive">
      <text text-anchor="middle" dy="0.35em">x</text>
    </g>
  </g>
  <g transform="translate(99.5,38.79)">
    <g class="primitive">
      <text text-anchor="middle" dy="0.35em">anonymous_var_graphppl</text>
    </g>
  </g>
  <g transform="translate(129.64,30.28)">
    <g class="primitive">
      <text text-anchor="middle" dy="0.35em">constvar_25</text>
    </g>
  </g>
  <g transform="translate(110.89,31.31)">
    <g class="primitive">
      <text text-anchor="middle" dy="0.35em">+</text>
    </g>
  </g>
  <g transform="translate(97.12,48.35)">
    <g class="primitive">
      <text text-anchor="middle" dy="0.35em">constvar_28</text>
    </g>
  </g>
  <g transform="translate(81.58,46.03)">
    <g class="primitive">
      <text text-anchor="middle" dy="0.35em">NormalMeanVariance</text>
    </g>
  </g>
  <g transform="translate(15.6,59.56)">
    <g class="primitive">
      <text text-anchor="middle" dy="0.35em">y</text>
    </g>
  </g>
  <g transform="translate(11.79,54.13)">
    <g class="primitive">
      <text text-anchor="middle" dy="0.35em">constvar_32</text>
    </g>
  </g>
  <g transform="translate(29.3,54.55)">
    <g class="primitive">
      <text text-anchor="middle" dy="0.35em">NormalMeanVariance</text>
    </g>
  </g>
</g>
</svg>
