<?xml version="1.0" encoding="UTF-8"?>
<svg xmlns="http://www.w3.org/2000/svg"
     xmlns:xlink="http://www.w3.org/1999/xlink"
     version="1.2"
     width="141.42mm" height="100mm" viewBox="0 0 141.42 100"
     stroke="none"
     fill="#000000"
     stroke-width="0.3"
     font-size="3.88"
>
<defs>
  <marker id="arrow" markerWidth="15" markerHeight="7" refX="5" refY="3.5" orient="auto" markerUnits="strokeWidth">
    <path d="M0,0 L15,3.5 L0,7 z" stroke="context-stroke" fill="context-stroke"/>
  </marker>
</defs>
<g stroke-width="0.6" fill="#000000" fill-opacity="0.000" stroke="#D3D3D3" id="img-6569be98-1">
  <g transform="translate(119.96,71.13)">
    <path fill="none" d="M-1.84,-6.4 L1.84,6.4 " class="primitive"/>
  </g>
  <g transform="translate(119.6,53.88)">
    <path fill="none" d="M-1.59,6.76 L1.59,-6.76 " class="primitive"/>
  </g>
  <g transform="translate(110.82,61.97)">
    <path fill="none" d="M3.8,0.41 L-3.8,-0.41 " class="primitive"/>
  </g>
  <g transform="translate(121.31,85.62)">
    <path fill="none" d="M-0.71,3.98 L0.71,-3.98 " class="primitive"/>
  </g>
  <g transform="translate(126.01,83.75)">
    <path fill="none" d="M2.08,2.41 L-2.08,-2.41 " class="primitive"/>
  </g>
  <g transform="translate(125.39,41.46)">
    <path fill="none" d="M1.98,-1.93 L-1.98,1.93 " class="primitive"/>
  </g>
  <g transform="translate(119.78,37.91)">
    <path fill="none" d="M-1.35,-5.11 L1.35,5.11 " class="primitive"/>
  </g>
  <g transform="translate(80.13,34.1)">
    <path fill="none" d="M-2.37,-1.7 L2.37,1.7 " class="primitive"/>
  </g>
  <g transform="translate(81.91,25.97)">
    <path fill="none" d="M-4.25,3.39 L4.25,-3.39 " class="primitive"/>
  </g>
  <g transform="translate(68.44,33.97)">
    <path fill="none" d="M4.73,-1.99 L-4.73,1.99 " class="primitive"/>
  </g>
  <g transform="translate(99.05,55.78)">
    <path fill="none" d="M-3.44,-3.72 L3.44,3.72 " class="primitive"/>
  </g>
  <g transform="translate(89.28,43.79)">
    <path fill="none" d="M3.37,4.66 L-3.37,-4.66 " class="primitive"/>
  </g>
  <g transform="translate(102.03,66.58)">
    <path fill="none" d="M-1.29,3.32 L1.29,-3.32 " class="primitive"/>
  </g>
  <g transform="translate(82.9,30.81)">
    <path fill="none" d="M-1.14,-4.42 L1.14,4.42 " class="primitive"/>
  </g>
  <g transform="translate(93.52,18.84)">
    <path fill="none" d="M2.84,-1.15 L-2.84,1.15 " class="primitive"/>
  </g>
  <g transform="translate(91.86,21.25)">
    <path fill="none" d="M0.8,0.05 L-0.8,-0.05 " class="primitive"/>
  </g>
  <g transform="translate(27.98,32.36)">
    <path fill="none" d="M-2.8,-3.26 L2.8,3.26 " class="primitive"/>
  </g>
  <g transform="translate(21.68,21.19)">
    <path fill="none" d="M1.32,4.1 L-1.32,-4.1 " class="primitive"/>
  </g>
  <g transform="translate(53.68,37.39)">
    <path fill="none" d="M-4.56,0.22 L4.56,-0.22 " class="primitive"/>
  </g>
  <g transform="translate(39.25,37.58)">
    <path fill="none" d="M3.99,0.1 L-3.99,-0.1 " class="primitive"/>
  </g>
  <g transform="translate(63.91,42.08)">
    <path fill="none" d="M1.68,3.11 L-1.68,-3.11 " class="primitive"/>
  </g>
  <g transform="translate(29.21,42.17)">
    <path fill="none" d="M-1.87,2.87 L1.87,-2.87 " class="primitive"/>
  </g>
  <g transform="translate(15.75,12.22)">
    <path fill="none" d="M-1.89,-1.35 L1.89,1.35 " class="primitive"/>
  </g>
  <g transform="translate(23.22,11.69)">
    <path fill="none" d="M1.76,-1.68 L-1.76,1.68 " class="primitive"/>
  </g>
</g>
<g stroke-width="0.6" stroke="#D3D3D3" id="img-6569be98-2">
</g>
<g font-size="4" stroke="#000000" stroke-opacity="0.000" fill="#000000" id="img-6569be98-3">
</g>
<g stroke-width="0" stroke="#000000" stroke-opacity="0.000" fill="#40E0D0" id="img-6569be98-4">
  <g transform="translate(117.53,62.69)">
    <circle cx="0" cy="0" r="2.83" class="primitive"/>
  </g>
  <g transform="translate(120.24,91.67)">
    <circle cx="0" cy="0" r="2.83" class="primitive"/>
  </g>
  <g transform="translate(129.64,87.93)">
    <circle cx="0" cy="0" r="2.83" class="primitive"/>
  </g>
  <g transform="translate(122.39,79.57)">
    <circle cx="0" cy="0" r="2.83" class="primitive"/>
  </g>
  <g transform="translate(129.1,37.85)">
    <circle cx="0" cy="0" r="2.83" class="primitive"/>
  </g>
  <g transform="translate(117.89,30.76)">
    <circle cx="0" cy="0" r="2.83" class="primitive"/>
  </g>
  <g transform="translate(121.67,45.07)">
    <circle cx="0" cy="0" r="2.83" class="primitive"/>
  </g>
  <g transform="translate(75.7,30.92)">
    <circle cx="0" cy="0" r="2.83" class="primitive"/>
  </g>
  <g transform="translate(93.99,50.31)">
    <circle cx="0" cy="0" r="2.83" class="primitive"/>
  </g>
  <g transform="translate(99.96,71.91)">
    <circle cx="0" cy="0" r="2.83" class="primitive"/>
  </g>
  <g transform="translate(104.1,61.25)">
    <circle cx="0" cy="0" r="2.83" class="primitive"/>
  </g>
  <g transform="translate(81.24,24.34)">
    <circle cx="0" cy="0" r="2.83" class="primitive"/>
  </g>
  <g transform="translate(84.57,37.28)">
    <circle cx="0" cy="0" r="2.83" class="primitive"/>
  </g>
  <g transform="translate(98.92,16.66)">
    <circle cx="0" cy="0" r="2.83" class="primitive"/>
  </g>
  <g transform="translate(95.6,21.47)">
    <circle cx="0" cy="0" r="2.83" class="primitive"/>
  </g>
  <g transform="translate(88.12,21.02)">
    <circle cx="0" cy="0" r="2.83" class="primitive"/>
  </g>
  <g transform="translate(23.65,27.32)">
    <circle cx="0" cy="0" r="2.83" class="primitive"/>
  </g>
  <g transform="translate(46.18,37.75)">
    <circle cx="0" cy="0" r="2.83" class="primitive"/>
  </g>
  <g transform="translate(66.64,47.13)">
    <circle cx="0" cy="0" r="2.83" class="primitive"/>
  </g>
  <g transform="translate(61.18,37.03)">
    <circle cx="0" cy="0" r="2.83" class="primitive"/>
  </g>
  <g transform="translate(26.11,46.94)">
    <circle cx="0" cy="0" r="2.83" class="primitive"/>
  </g>
  <g transform="translate(32.32,37.41)">
    <circle cx="0" cy="0" r="2.83" class="primitive"/>
  </g>
  <g transform="translate(11.79,9.39)">
    <circle cx="0" cy="0" r="2.83" class="primitive"/>
  </g>
  <g transform="translate(26.72,8.33)">
    <circle cx="0" cy="0" r="2.83" class="primitive"/>
  </g>
  <g transform="translate(19.71,15.06)">
    <circle cx="0" cy="0" r="2.83" class="primitive"/>
  </g>
</g>
<g font-size="4" stroke="#000000" stroke-opacity="0.000" fill="#000000" id="img-6569be98-5">
  <g transform="translate(117.53,62.69)">
    <g class="primitive">
      <text text-anchor="middle" dy="0.35em">x</text>
    </g>
  </g>
  <g transform="translate(120.24,91.67)">
    <g class="primitive">
      <text text-anchor="middle" dy="0.35em">constvar_2</text>
    </g>
  </g>
  <g transform="translate(129.64,87.93)">
    <g class="primitive">
      <text text-anchor="middle" dy="0.35em">constvar_4</text>
    </g>
  </g>
  <g transform="translate(122.39,79.57)">
    <g class="primitive">
      <text text-anchor="middle" dy="0.35em">NormalMeanVariance</text>
    </g>
  </g>
  <g transform="translate(129.1,37.85)">
    <g class="primitive">
      <text text-anchor="middle" dy="0.35em">y</text>
    </g>
  </g>
  <g transform="translate(117.89,30.76)">
    <g class="primitive">
      <text text-anchor="middle" dy="0.35em">constvar_8</text>
    </g>
  </g>
  <g transform="translate(121.67,45.07)">
    <g class="primitive">
      <text text-anchor="middle" dy="0.35em">NormalMeanVariance</text>
    </g>
  </g>
  <g transform="translate(75.7,30.92)">
    <g class="primitive">
      <text text-anchor="middle" dy="0.35em">x</text>
    </g>
  </g>
  <g transform="translate(93.99,50.31)">
    <g class="primitive">
      <text text-anchor="middle" dy="0.35em">anonymous_var_graphppl</text>
    </g>
  </g>
  <g transform="translate(99.96,71.91)">
    <g class="primitive">
      <text text-anchor="middle" dy="0.35em">constvar_13</text>
    </g>
  </g>
  <g transform="translate(104.1,61.25)">
    <g class="primitive">
      <text text-anchor="middle" dy="0.35em">+</text>
    </g>
  </g>
  <g transform="translate(81.24,24.34)">
    <g class="primitive">
      <text text-anchor="middle" dy="0.35em">constvar_16</text>
    </g>
  </g>
  <g transform="translate(84.57,37.28)">
    <g class="primitive">
      <text text-anchor="middle" dy="0.35em">NormalMeanVariance</text>
    </g>
  </g>
  <g transform="translate(98.92,16.66)">
    <g class="primitive">
      <text text-anchor="middle" dy="0.35em">y</text>
    </g>
  </g>
  <g transform="translate(95.6,21.47)">
    <g class="primitive">
      <text text-anchor="middle" dy="0.35em">constvar_20</text>
    </g>
  </g>
  <g transform="translate(88.12,21.02)">
    <g class="primitive">
      <text text-anchor="middle" dy="0.35em">NormalMeanVariance</text>
    </g>
  </g>
  <g transform="translate(23.65,27.32)">
    <g class="primitive">
      <text text-anchor="middle" dy="0.35em">x</text>
    </g>
  </g>
  <g transform="translate(46.18,37.75)">
    <g class="primitive">
      <text text-anchor="middle" dy="0.35em">anonymous_var_graphppl</text>
    </g>
  </g>
  <g transform="translate(66.64,47.13)">
    <g class="primitive">
      <text text-anchor="middle" dy="0.35em">constvar_25</text>
    </g>
  </g>
  <g transform="translate(61.18,37.03)">
    <g class="primitive">
      <text text-anchor="middle" dy="0.35em">+</text>
    </g>
  </g>
  <g transform="translate(26.11,46.94)">
    <g class="primitive">
      <text text-anchor="middle" dy="0.35em">constvar_28</text>
    </g>
  </g>
  <g transform="translate(32.32,37.41)">
    <g class="primitive">
      <text text-anchor="middle" dy="0.35em">NormalMeanVariance</text>
    </g>
  </g>
  <g transform="translate(11.79,9.39)">
    <g class="primitive">
      <text text-anchor="middle" dy="0.35em">y</text>
    </g>
  </g>
  <g transform="translate(26.72,8.33)">
    <g class="primitive">
      <text text-anchor="middle" dy="0.35em">constvar_32</text>
    </g>
  </g>
  <g transform="translate(19.71,15.06)">
    <g class="primitive">
      <text text-anchor="middle" dy="0.35em">NormalMeanVariance</text>
    </g>
  </g>
</g>
</svg>
