<?xml version="1.0" encoding="UTF-8"?>
<svg xmlns="http://www.w3.org/2000/svg"
     xmlns:xlink="http://www.w3.org/1999/xlink"
     version="1.2"
     width="100mm" height="100mm" viewBox="0 0 100 100"
     stroke="none"
     fill="#000000"
     stroke-width="0.3"
     font-size="3.88"
>
<defs>
  <marker id="arrow" markerWidth="15" markerHeight="7" refX="5" refY="3.5" orient="auto" markerUnits="strokeWidth">
    <path d="M0,0 L15,3.5 L0,7 z" stroke="context-stroke" fill="context-stroke"/>
  </marker>
</defs>
<g fill="#000000" fill-opacity="0.000" id="img-c48d6743-1">
  <g transform="translate(50,50)">
    <path d="M-50,-50 L50,-50 50,50 -50,50  z" class="primitive"/>
  </g>
</g>
<g stroke-width="0.6" stroke="#D3D3D3" id="img-c48d6743-2">
</g>
<g stroke-width="0.6" stroke="#D3D3D3" id="img-c48d6743-3">
  <g transform="translate(67.62,24.04)">
    <path fill="none" d="M-7.01,-1.22 L7.01,1.22 " class="primitive"/>
  </g>
  <g transform="translate(54.75,18.62)">
    <path fill="none" d="M2.35,2.36 L-2.35,-2.36 " class="primitive"/>
  </g>
  <g transform="translate(51.94,25.49)">
    <path fill="none" d="M4.73,-2.16 L-4.73,2.16 " class="primitive"/>
  </g>
  <g transform="translate(82.12,23.84)">
    <path fill="none" d="M3.45,-1.14 L-3.45,1.14 " class="primitive"/>
  </g>
  <g transform="translate(80.01,29.36)">
    <path fill="none" d="M1.94,2.18 L-1.94,-2.18 " class="primitive"/>
  </g>
  <g transform="translate(50.87,11.56)">
    <path fill="none" d="M-0.02,-1.14 L0.02,1.14 " class="primitive"/>
  </g>
  <g transform="translate(44.59,15.1)">
    <path fill="none" d="M-4.26,0.21 L4.26,-0.21 " class="primitive"/>
  </g>
  <g transform="translate(42.11,32.77)">
    <path fill="none" d="M-1.95,2.6 L1.95,-2.6 " class="primitive"/>
  </g>
  <g transform="translate(36.72,41.45)">
    <path fill="none" d="M1.27,-2.55 L-1.27,2.55 " class="primitive"/>
  </g>
  <g transform="translate(40.28,26.92)">
    <path fill="none" d="M-3.04,-0.96 L3.04,0.96 " class="primitive"/>
  </g>
  <g transform="translate(36.23,50.67)">
    <path fill="none" d="M1.01,2.85 L-1.01,-2.85 " class="primitive"/>
  </g>
  <g transform="translate(29.92,57.69)">
    <path fill="none" d="M6.02,-1.66 L-6.02,1.66 " class="primitive"/>
  </g>
  <g transform="translate(46.93,58.07)">
    <path fill="none" d="M-6.98,-2.02 L6.98,2.02 " class="primitive"/>
  </g>
  <g transform="translate(28.65,45.21)">
    <path fill="none" d="M-3.8,-0.42 L3.8,0.42 " class="primitive"/>
  </g>
  <g transform="translate(15.11,60.54)">
    <path fill="none" d="M-4.71,0.45 L4.71,-0.45 " class="primitive"/>
  </g>
  <g transform="translate(20.15,62.5)">
    <path fill="none" d="M-0.58,0.87 L0.58,-0.87 " class="primitive"/>
  </g>
  <g transform="translate(59.92,64.45)">
    <path fill="none" d="M2.5,2.35 L-2.5,-2.35 " class="primitive"/>
  </g>
  <g transform="translate(66.61,72.09)">
    <path fill="none" d="M-1.49,-2.14 L1.49,2.14 " class="primitive"/>
  </g>
  <g transform="translate(62.89,59.68)">
    <path fill="none" d="M4.93,-0.7 L-4.93,0.7 " class="primitive"/>
  </g>
  <g transform="translate(72.64,79.47)">
    <path fill="none" d="M1.92,2.02 L-1.92,-2.02 " class="primitive"/>
  </g>
  <g transform="translate(78.54,86.16)">
    <path fill="none" d="M-1.24,-1.54 L1.24,1.54 " class="primitive"/>
  </g>
  <g transform="translate(64.92,74.65)">
    <path fill="none" d="M-2.37,-0.7 L2.37,0.7 " class="primitive"/>
  </g>
  <g transform="translate(86.37,89.98)">
    <path fill="none" d="M3.22,0.4 L-3.22,-0.4 " class="primitive"/>
  </g>
  <g transform="translate(76.4,90.5)">
    <path fill="none" d="M-2.66,0.66 L2.66,-0.66 " class="primitive"/>
  </g>
</g>
<g fill="#D3D3D3" id="img-c48d6743-4">
</g>
<g fill="#D3D3D3" id="img-c48d6743-5">
</g>
<g font-size="4" fill="#000000" id="img-c48d6743-6">
</g>
<g stroke-width="0" stroke="#000000" stroke-opacity="0.000" fill="#40E0D0" id="img-c48d6743-7">
  <g transform="translate(58.57,22.46)">
    <circle cx="0" cy="0" r="2" class="primitive"/>
  </g>
  <g transform="translate(87.55,22.04)">
    <circle cx="0" cy="0" r="2" class="primitive"/>
  </g>
  <g transform="translate(83.34,33.09)">
    <circle cx="0" cy="0" r="2" class="primitive"/>
  </g>
  <g transform="translate(76.68,25.63)">
    <circle cx="0" cy="0" r="2" class="primitive"/>
  </g>
  <g transform="translate(50.81,8.33)">
    <circle cx="0" cy="0" r="2" class="primitive"/>
  </g>
  <g transform="translate(38.24,15.42)">
    <circle cx="0" cy="0" r="2" class="primitive"/>
  </g>
  <g transform="translate(50.93,14.79)">
    <circle cx="0" cy="0" r="2" class="primitive"/>
  </g>
  <g transform="translate(38.91,37.04)">
    <circle cx="0" cy="0" r="2" class="primitive"/>
  </g>
  <g transform="translate(35.26,25.32)">
    <circle cx="0" cy="0" r="2" class="primitive"/>
  </g>
  <g transform="translate(45.31,28.51)">
    <circle cx="0" cy="0" r="2" class="primitive"/>
  </g>
  <g transform="translate(37.95,55.48)">
    <circle cx="0" cy="0" r="2" class="primitive"/>
  </g>
  <g transform="translate(22.78,44.56)">
    <circle cx="0" cy="0" r="2" class="primitive"/>
  </g>
  <g transform="translate(34.52,45.86)">
    <circle cx="0" cy="0" r="2" class="primitive"/>
  </g>
  <g transform="translate(8.33,61.18)">
    <circle cx="0" cy="0" r="2" class="primitive"/>
  </g>
  <g transform="translate(18.41,65.1)">
    <circle cx="0" cy="0" r="2" class="primitive"/>
  </g>
  <g transform="translate(21.89,59.9)">
    <circle cx="0" cy="0" r="2" class="primitive"/>
  </g>
  <g transform="translate(63.93,68.24)">
    <circle cx="0" cy="0" r="2" class="primitive"/>
  </g>
  <g transform="translate(69.89,58.69)">
    <circle cx="0" cy="0" r="2" class="primitive"/>
  </g>
  <g transform="translate(55.9,60.67)">
    <circle cx="0" cy="0" r="2" class="primitive"/>
  </g>
  <g transform="translate(75.99,83)">
    <circle cx="0" cy="0" r="2" class="primitive"/>
  </g>
  <g transform="translate(60.55,73.36)">
    <circle cx="0" cy="0" r="2" class="primitive"/>
  </g>
  <g transform="translate(69.29,75.94)">
    <circle cx="0" cy="0" r="2" class="primitive"/>
  </g>
  <g transform="translate(91.67,90.63)">
    <circle cx="0" cy="0" r="2" class="primitive"/>
  </g>
  <g transform="translate(71.72,91.67)">
    <circle cx="0" cy="0" r="2" class="primitive"/>
  </g>
  <g transform="translate(81.08,89.33)">
    <circle cx="0" cy="0" r="2" class="primitive"/>
  </g>
</g>
<g font-family="Helvetica" font-size="4" fill="#000000" id="img-c48d6743-8">
  <g transform="translate(58.57,22.46)">
    <g class="primitive">
      <text text-anchor="middle" dy="0.35em">x</text>
    </g>
  </g>
  <g transform="translate(87.55,22.04)">
    <g class="primitive">
      <text text-anchor="middle" dy="0.35em">constvar</text>
    </g>
  </g>
  <g transform="translate(83.34,33.09)">
    <g class="primitive">
      <text text-anchor="middle" dy="0.35em">constvar</text>
    </g>
  </g>
  <g transform="translate(76.68,25.63)">
    <g class="primitive">
      <text text-anchor="middle" dy="0.35em">NormalMeanVariance</text>
    </g>
  </g>
  <g transform="translate(50.81,8.33)">
    <g class="primitive">
      <text text-anchor="middle" dy="0.35em">y</text>
    </g>
  </g>
  <g transform="translate(38.24,15.42)">
    <g class="primitive">
      <text text-anchor="middle" dy="0.35em">constvar</text>
    </g>
  </g>
  <g transform="translate(50.93,14.79)">
    <g class="primitive">
      <text text-anchor="middle" dy="0.35em">NormalMeanVariance</text>
    </g>
  </g>
  <g transform="translate(38.91,37.04)">
    <g class="primitive">
      <text text-anchor="middle" dy="0.35em">anonymous_var_graphppl</text>
    </g>
  </g>
  <g transform="translate(35.26,25.32)">
    <g class="primitive">
      <text text-anchor="middle" dy="0.35em">constvar</text>
    </g>
  </g>
  <g transform="translate(45.31,28.51)">
    <g class="primitive">
      <text text-anchor="middle" dy="0.35em">+</text>
    </g>
  </g>
  <g transform="translate(37.95,55.48)">
    <g class="primitive">
      <text text-anchor="middle" dy="0.35em">x</text>
    </g>
  </g>
  <g transform="translate(22.78,44.56)">
    <g class="primitive">
      <text text-anchor="middle" dy="0.35em">constvar</text>
    </g>
  </g>
  <g transform="translate(34.52,45.86)">
    <g class="primitive">
      <text text-anchor="middle" dy="0.35em">NormalMeanVariance</text>
    </g>
  </g>
  <g transform="translate(8.33,61.18)">
    <g class="primitive">
      <text text-anchor="middle" dy="0.35em">y</text>
    </g>
  </g>
  <g transform="translate(18.41,65.1)">
    <g class="primitive">
      <text text-anchor="middle" dy="0.35em">constvar</text>
    </g>
  </g>
  <g transform="translate(21.89,59.9)">
    <g class="primitive">
      <text text-anchor="middle" dy="0.35em">NormalMeanVariance</text>
    </g>
  </g>
  <g transform="translate(63.93,68.24)">
    <g class="primitive">
      <text text-anchor="middle" dy="0.35em">anonymous_var_graphppl</text>
    </g>
  </g>
  <g transform="translate(69.89,58.69)">
    <g class="primitive">
      <text text-anchor="middle" dy="0.35em">constvar</text>
    </g>
  </g>
  <g transform="translate(55.9,60.67)">
    <g class="primitive">
      <text text-anchor="middle" dy="0.35em">+</text>
    </g>
  </g>
  <g transform="translate(75.99,83)">
    <g class="primitive">
      <text text-anchor="middle" dy="0.35em">x</text>
    </g>
  </g>
  <g transform="translate(60.55,73.36)">
    <g class="primitive">
      <text text-anchor="middle" dy="0.35em">constvar</text>
    </g>
  </g>
  <g transform="translate(69.29,75.94)">
    <g class="primitive">
      <text text-anchor="middle" dy="0.35em">NormalMeanVariance</text>
    </g>
  </g>
  <g transform="translate(91.67,90.63)">
    <g class="primitive">
      <text text-anchor="middle" dy="0.35em">y</text>
    </g>
  </g>
  <g transform="translate(71.72,91.67)">
    <g class="primitive">
      <text text-anchor="middle" dy="0.35em">constvar</text>
    </g>
  </g>
  <g transform="translate(81.08,89.33)">
    <g class="primitive">
      <text text-anchor="middle" dy="0.35em">NormalMeanVariance</text>
    </g>
  </g>
</g>
<g font-family="Helvetica" font-size="4" fill="#000000" id="img-c48d6743-9">
  <g transform="translate(50,0)">
    <g class="primitive">
      <text text-anchor="middle" dy="0.35em"></text>
    </g>
  </g>
</g>
</svg>
