<?xml version="1.0" encoding="UTF-8"?>
<svg xmlns="http://www.w3.org/2000/svg"
     xmlns:xlink="http://www.w3.org/1999/xlink"
     version="1.2"
     width="100mm" height="100mm" viewBox="0 0 100 100"
     stroke="none"
     fill="#000000"
     stroke-width="0.3"
     font-size="3.88"
>
<defs>
  <marker id="arrow" markerWidth="15" markerHeight="7" refX="5" refY="3.5" orient="auto" markerUnits="strokeWidth">
    <path d="M0,0 L15,3.5 L0,7 z" stroke="context-stroke" fill="context-stroke"/>
  </marker>
</defs>
<g fill="#000000" fill-opacity="0.000" id="img-f830c8dc-1">
  <g transform="translate(50,50)">
    <path d="M-50,-50 L50,-50 50,50 -50,50  z" class="primitive"/>
  </g>
</g>
<g stroke-width="0.6" stroke="#D3D3D3" id="img-f830c8dc-2">
</g>
<g stroke-width="0.6" stroke="#D3D3D3" id="img-f830c8dc-3">
  <g transform="translate(75.25,78.92)">
    <path fill="none" d="M1.87,-3.63 L-1.87,3.63 " class="primitive"/>
  </g>
  <g transform="translate(79.83,76.48)">
    <path fill="none" d="M-0.71,-1.23 L0.71,1.23 " class="primitive"/>
  </g>
  <g transform="translate(79.91,67.28)">
    <path fill="none" d="M-1.25,4.17 L1.25,-4.17 " class="primitive"/>
  </g>
  <g transform="translate(73.47,88.03)">
    <path fill="none" d="M0.47,1.63 L-0.47,-1.63 " class="primitive"/>
  </g>
  <g transform="translate(69.02,87.32)">
    <path fill="none" d="M-1.82,1.56 L1.82,-1.56 " class="primitive"/>
  </g>
  <g transform="translate(76.89,79.53)">
    <path fill="none" d="M-2.61,0.01 L2.61,-0.01 " class="primitive"/>
  </g>
  <g transform="translate(86.11,81.71)">
    <path fill="none" d="M2.66,1.29 L-2.66,-1.29 " class="primitive"/>
  </g>
  <g transform="translate(81.09,54.73)">
    <path fill="none" d="M-0.45,-4.31 L0.45,4.31 " class="primitive"/>
  </g>
  <g transform="translate(78.62,42.08)">
    <path fill="none" d="M1.22,4.27 L-1.22,-4.27 " class="primitive"/>
  </g>
  <g transform="translate(86.71,61.44)">
    <path fill="none" d="M2.88,0.19 L-2.88,-0.19 " class="primitive"/>
  </g>
  <g transform="translate(71.25,30.23)">
    <path fill="none" d="M-4.09,-4.1 L4.09,4.1 " class="primitive"/>
  </g>
  <g transform="translate(59.22,19.98)">
    <path fill="none" d="M4.78,3.46 L-4.78,-3.46 " class="primitive"/>
  </g>
  <g transform="translate(61.77,23.5)">
    <path fill="none" d="M1.92,0.57 L-1.92,-0.57 " class="primitive"/>
  </g>
  <g transform="translate(82,34.7)">
    <path fill="none" d="M3.14,-0.67 L-3.14,0.67 " class="primitive"/>
  </g>
  <g transform="translate(49.82,11.81)">
    <path fill="none" d="M-1.6,-1.89 L1.6,1.89 " class="primitive"/>
  </g>
  <g transform="translate(46.93,13.93)">
    <path fill="none" d="M-3.8,-0.89 L3.8,0.89 " class="primitive"/>
  </g>
  <g transform="translate(54.29,25.25)">
    <path fill="none" d="M-1.96,1.59 L1.96,-1.59 " class="primitive"/>
  </g>
  <g transform="translate(46.99,31.36)">
    <path fill="none" d="M2.15,-1.85 L-2.15,1.85 " class="primitive"/>
  </g>
  <g transform="translate(58.35,19.4)">
    <path fill="none" d="M0.15,-0.88 L-0.15,0.88 " class="primitive"/>
  </g>
  <g transform="translate(37.43,36.95)">
    <path fill="none" d="M-3.9,1.6 L3.9,-1.6 " class="primitive"/>
  </g>
  <g transform="translate(25.14,41.15)">
    <path fill="none" d="M4.45,-1.25 L-4.45,1.25 " class="primitive"/>
  </g>
  <g transform="translate(48.86,35.01)">
    <path fill="none" d="M3.52,0.28 L-3.52,-0.28 " class="primitive"/>
  </g>
  <g transform="translate(14.76,45.19)">
    <path fill="none" d="M-2.11,1.2 L2.11,-1.2 " class="primitive"/>
  </g>
  <g transform="translate(13.51,42.37)">
    <path fill="none" d="M-3.1,-0.35 L3.1,0.35 " class="primitive"/>
  </g>
</g>
<g fill="#D3D3D3" id="img-f830c8dc-4">
</g>
<g fill="#D3D3D3" id="img-f830c8dc-5">
</g>
<g font-size="4" fill="#000000" id="img-f830c8dc-6">
</g>
<g stroke-width="0" stroke="#000000" stroke-opacity="0.000" fill="#40E0D0" id="img-f830c8dc-7">
  <g transform="translate(78.07,73.44)">
    <circle cx="0" cy="0" r="2" class="primitive"/>
  </g>
  <g transform="translate(74.51,91.67)">
    <circle cx="0" cy="0" r="2" class="primitive"/>
  </g>
  <g transform="translate(65.62,90.23)">
    <circle cx="0" cy="0" r="2" class="primitive"/>
  </g>
  <g transform="translate(72.43,84.4)">
    <circle cx="0" cy="0" r="2" class="primitive"/>
  </g>
  <g transform="translate(72.2,79.55)">
    <circle cx="0" cy="0" r="2" class="primitive"/>
  </g>
  <g transform="translate(90.64,83.91)">
    <circle cx="0" cy="0" r="2" class="primitive"/>
  </g>
  <g transform="translate(81.58,79.52)">
    <circle cx="0" cy="0" r="2" class="primitive"/>
  </g>
  <g transform="translate(80.42,48.35)">
    <circle cx="0" cy="0" r="2" class="primitive"/>
  </g>
  <g transform="translate(91.67,61.77)">
    <circle cx="0" cy="0" r="2" class="primitive"/>
  </g>
  <g transform="translate(81.76,61.11)">
    <circle cx="0" cy="0" r="2" class="primitive"/>
  </g>
  <g transform="translate(65.69,24.66)">
    <circle cx="0" cy="0" r="2" class="primitive"/>
  </g>
  <g transform="translate(87.17,33.6)">
    <circle cx="0" cy="0" r="2" class="primitive"/>
  </g>
  <g transform="translate(76.82,35.8)">
    <circle cx="0" cy="0" r="2" class="primitive"/>
  </g>
  <g transform="translate(46.88,8.33)">
    <circle cx="0" cy="0" r="2" class="primitive"/>
  </g>
  <g transform="translate(41.1,12.56)">
    <circle cx="0" cy="0" r="2" class="primitive"/>
  </g>
  <g transform="translate(52.76,15.29)">
    <circle cx="0" cy="0" r="2" class="primitive"/>
  </g>
  <g transform="translate(50.72,28.16)">
    <circle cx="0" cy="0" r="2" class="primitive"/>
  </g>
  <g transform="translate(58.84,16.46)">
    <circle cx="0" cy="0" r="2" class="primitive"/>
  </g>
  <g transform="translate(57.86,22.34)">
    <circle cx="0" cy="0" r="2" class="primitive"/>
  </g>
  <g transform="translate(31.6,39.34)">
    <circle cx="0" cy="0" r="2" class="primitive"/>
  </g>
  <g transform="translate(54.45,35.45)">
    <circle cx="0" cy="0" r="2" class="primitive"/>
  </g>
  <g transform="translate(43.26,34.56)">
    <circle cx="0" cy="0" r="2" class="primitive"/>
  </g>
  <g transform="translate(10.83,47.43)">
    <circle cx="0" cy="0" r="2" class="primitive"/>
  </g>
  <g transform="translate(8.33,41.78)">
    <circle cx="0" cy="0" r="2" class="primitive"/>
  </g>
  <g transform="translate(18.68,42.96)">
    <circle cx="0" cy="0" r="2" class="primitive"/>
  </g>
</g>
<g font-family="Helvetica" font-size="4" fill="#000000" id="img-f830c8dc-8">
  <g transform="translate(78.07,73.44)">
    <g class="primitive">
      <text text-anchor="middle" dy="0.35em">x</text>
    </g>
  </g>
  <g transform="translate(74.51,91.67)">
    <g class="primitive">
      <text text-anchor="middle" dy="0.35em">constvar</text>
    </g>
  </g>
  <g transform="translate(65.62,90.23)">
    <g class="primitive">
      <text text-anchor="middle" dy="0.35em">constvar</text>
    </g>
  </g>
  <g transform="translate(72.43,84.4)">
    <g class="primitive">
      <text text-anchor="middle" dy="0.35em">NormalMeanVariance</text>
    </g>
  </g>
  <g transform="translate(72.2,79.55)">
    <g class="primitive">
      <text text-anchor="middle" dy="0.35em">y</text>
    </g>
  </g>
  <g transform="translate(90.64,83.91)">
    <g class="primitive">
      <text text-anchor="middle" dy="0.35em">constvar</text>
    </g>
  </g>
  <g transform="translate(81.58,79.52)">
    <g class="primitive">
      <text text-anchor="middle" dy="0.35em">NormalMeanVariance</text>
    </g>
  </g>
  <g transform="translate(80.42,48.35)">
    <g class="primitive">
      <text text-anchor="middle" dy="0.35em">anonymous_var_graphppl</text>
    </g>
  </g>
  <g transform="translate(91.67,61.77)">
    <g class="primitive">
      <text text-anchor="middle" dy="0.35em">constvar</text>
    </g>
  </g>
  <g transform="translate(81.76,61.11)">
    <g class="primitive">
      <text text-anchor="middle" dy="0.35em">+</text>
    </g>
  </g>
  <g transform="translate(65.69,24.66)">
    <g class="primitive">
      <text text-anchor="middle" dy="0.35em">x</text>
    </g>
  </g>
  <g transform="translate(87.17,33.6)">
    <g class="primitive">
      <text text-anchor="middle" dy="0.35em">constvar</text>
    </g>
  </g>
  <g transform="translate(76.82,35.8)">
    <g class="primitive">
      <text text-anchor="middle" dy="0.35em">NormalMeanVariance</text>
    </g>
  </g>
  <g transform="translate(46.88,8.33)">
    <g class="primitive">
      <text text-anchor="middle" dy="0.35em">y</text>
    </g>
  </g>
  <g transform="translate(41.1,12.56)">
    <g class="primitive">
      <text text-anchor="middle" dy="0.35em">constvar</text>
    </g>
  </g>
  <g transform="translate(52.76,15.29)">
    <g class="primitive">
      <text text-anchor="middle" dy="0.35em">NormalMeanVariance</text>
    </g>
  </g>
  <g transform="translate(50.72,28.16)">
    <g class="primitive">
      <text text-anchor="middle" dy="0.35em">anonymous_var_graphppl</text>
    </g>
  </g>
  <g transform="translate(58.84,16.46)">
    <g class="primitive">
      <text text-anchor="middle" dy="0.35em">constvar</text>
    </g>
  </g>
  <g transform="translate(57.86,22.34)">
    <g class="primitive">
      <text text-anchor="middle" dy="0.35em">+</text>
    </g>
  </g>
  <g transform="translate(31.6,39.34)">
    <g class="primitive">
      <text text-anchor="middle" dy="0.35em">x</text>
    </g>
  </g>
  <g transform="translate(54.45,35.45)">
    <g class="primitive">
      <text text-anchor="middle" dy="0.35em">constvar</text>
    </g>
  </g>
  <g transform="translate(43.26,34.56)">
    <g class="primitive">
      <text text-anchor="middle" dy="0.35em">NormalMeanVariance</text>
    </g>
  </g>
  <g transform="translate(10.83,47.43)">
    <g class="primitive">
      <text text-anchor="middle" dy="0.35em">y</text>
    </g>
  </g>
  <g transform="translate(8.33,41.78)">
    <g class="primitive">
      <text text-anchor="middle" dy="0.35em">constvar</text>
    </g>
  </g>
  <g transform="translate(18.68,42.96)">
    <g class="primitive">
      <text text-anchor="middle" dy="0.35em">NormalMeanVariance</text>
    </g>
  </g>
</g>
<g font-family="Helvetica" font-size="4" fill="#000000" id="img-f830c8dc-9">
  <g transform="translate(50,0)">
    <g class="primitive">
      <text text-anchor="middle" dy="0.35em"></text>
    </g>
  </g>
</g>
</svg>
