<?xml version="1.0" encoding="UTF-8" standalone="no"?><!DOCTYPE svg PUBLIC "-//W3C//DTD SVG 1.1//EN" "http://www.w3.org/Graphics/SVG/1.1/DTD/svg11.dtd"><svg width="100%" height="100%" viewBox="0 0 1521 385" version="1.1" xmlns="http://www.w3.org/2000/svg" xmlns:xlink="http://www.w3.org/1999/xlink" xml:space="preserve" xmlns:serif="http://www.serif.com/" style="fill-rule:evenodd;clip-rule:evenodd;stroke-linecap:round;stroke-linejoin:round;stroke-miterlimit:1.5;"><rect x="215.92" y="193.084" width="188.976" height="188.976" style="fill:none;stroke:#000;stroke-width:4.17px;"/><path d="M308.747,280.849c0,-0 0,-0 0,-0c0,-0 0,-0 0,-0c0,-0 0,-0 0,-0c0,-0 0,-0 0,-0c0,-0 0,-0 0,-0c0,-0 0,-0 0,-0c0,-0 0,-0 0,-0c0,-0 0,-0 0,-0c0,-0 0,-0 0,-0c0,-0 0,-0 0,-0c0,-0 0,-0 0,-0c0,-0 0,-0 0,-0c0,-0 0,-0 0,-0c0,-0 0,-0 0,-0c0,-0 0,-0 0,-0c0,-0 0,-0 0,-0c0,-0 0,-0 0,-0c0,-0 0,-0 0,-0c0,-0 0,-0 0,-0c0,-0 0,-0 0,-0c0,-0 0,-0 0,-0c0,-0 0,-0 0,-0c0,-0 0,-0 0,-0c0,-0 0,-0 0,-0c0,-0 0,-0 0,-0c0,-0 0,-0 0,-0c0,-0 0,-0 0,-0c0,-0 0,-0 0,-0c0,-0 0,-0 0,-0c0,-0 0,-0 0,-0c0,-0 0,-0 0,-0c0,-0 0,-0 0,-0c0,-0 0,-0 0,-0c0,-0 0,-0 0,-0c0,-0 0,-0 0,-0c0,-0 0,-0 0,-0c0,-0 0,-0 0,-0c0,-0 0,-0 0,-0c0,-0 0,-0 0,-0c0,-0 0,-0 0,-0c0,-0 0,-0 0,-0c0,-0 0,-0 0,-0c0,-0 0,-0 0,-0c0,-0 0,-0 0,-0c0,-0 0,-0 0,-0c0,-0 0,-0 0,-0c0,-0 0,-0 0,-0c0,-0 0,-0 0,-0c0,-0 0,-0 0,-0c0,-0 0,-0 0,-0c0,-0 0,-0 0,-0c0,-0 0,-0 0,-0c0,-0 0,-0 0,-0c0,-0 0,-0 0,-0c0,-0 0,-0 0,-0c0,-0 0,-0 0,-0c0,-0 0,-0 0,-0c0,-0 0,-0 0,-0c0,-0 0,-0 0,-0c0,-0 0,-0 0,-0c0,-0 0,-0 0,-0c0,-0 0,-0 0,-0c0,-0 0,-0 0,-0c0,-0 0,-0 0,-0c0,-0 0,-0 0,-0c0,-0 0,-0 0,-0c0,-0 0,-0 0,-0c0,-0 0,-0 0,-0c0,-0 0,-0 0,-0c0,-0 0,-0 0,-0c0,-0 0,-0 0,-0c0,-0 0,-0 0,-0c0,-0 0,-0 0,-0c0,-0 0,-0 0,-0c0,-0 0,-0 0,-0c0,-0 0,-0 0,-0c0,-0 0,-0 0,-0c0,-0 0,-0 0,-0c0,-0 0,-0 0,-0c0,-0 0,-0 0,-0c0,-0 0,-0 0,-0c0,-0 0,-0 0,-0c0,-0 0,-0 0,-0c0,-0 0,-0 0,-0c0,-0 0,-0 0,-0c0,-0 0,-0 0,-0c0,-0 0,-0 0,-0Z" style="fill:none;fill-rule:nonzero;stroke:#000;stroke-opacity:0;stroke-width:0.42px;stroke-linecap:butt;stroke-linejoin:miter;stroke-miterlimit:10;"/><path d="M317.107,271.996l8.927,-0c2.078,-0 3.117,-0 3.117,-2.079c-0,-1.142 -1.039,-1.142 -2.805,-1.142l-8.62,-0l2.182,-11.836c0.416,-2.182 1.87,-9.55 2.494,-10.797c0.935,-1.974 2.697,-3.533 4.879,-3.533c0.415,0 3.117,0 5.086,1.871c-4.567,0.415 -5.606,4.047 -5.606,5.606c0,2.389 1.87,3.636 3.845,3.636c2.696,0 5.71,-2.286 5.71,-6.234c-0,-4.775 -4.78,-7.16 -9.035,-7.16c-3.528,-0 -10.07,1.866 -13.187,12.147c-0.623,2.178 -0.935,3.217 -3.429,16.3l-7.164,-0c-1.97,-0 -3.113,-0 -3.113,1.974c0,1.247 0.935,1.247 2.909,1.247l6.853,-0l-7.788,41.014c-1.87,10.074 -3.636,19.52 -9.035,19.52c-0.415,0 -3.013,0 -4.983,-1.866c4.775,-0.311 5.71,-4.052 5.71,-5.61c0,-2.386 -1.87,-3.632 -3.844,-3.632c-2.697,-0 -5.71,2.285 -5.71,6.229c-0,4.671 4.572,7.165 8.827,7.165c5.71,-0 9.866,-6.126 11.732,-10.074c3.325,-6.541 5.71,-19.105 5.814,-19.832l6.234,-32.914" style="fill-rule:nonzero;"/><path d="M2.083,287.168l213.506,0.728" style="fill:none;stroke:#000;stroke-width:4.17px;"/><path d="M405.764,287.248l190.178,0.648" style="fill:none;stroke:#000;stroke-width:4.17px;"/><path d="M310.084,192.262l0.648,-190.179" style="fill:none;stroke:#000;stroke-width:4.17px;"/><path d="M193.32,263.511c0,0 0,0 0,0c0,0 0,0 0,0c0,0 0,0 0,0c0,0 0,0 0,0c0,0 0,0 0,0c0,0 0,0 0,0c0,0 0,0 0,0c0,0 0,0 0,0c0,0 0,0 0,0c0,0 0,0 0,0c0,0 0,0 0,0c0,0 0,0 0,0c0,0 0,0 0,0c0,0 0,0 0,0c0,0 0,0 0,0c0,0 0,0 0,0c0,0 0,0 0,0c0,0 0,0 0,0c0,0 0,0 0,0c0,0 0,0 0,0c0,0 0,0 0,0c0,0 0,0 0,0c0,0 0,0 0,0c0,0 0,0 0,0c0,0 0,0 0,0c0,0 0,0 0,0c0,0 0,0 0,0c0,0 0,0 0,0c0,0 0,0 0,0c0,0 0,0 0,0c0,0 0,0 0,0c0,0 0,0 0,0c0,0 0,0 0,0c0,0 0,0 0,0c0,0 0,0 0,0c0,0 0,0 0,0c0,0 0,0 0,0c0,0 0,0 0,0c0,0 0,0 0,0c0,0 0,0 0,0c0,0 0,0 0,0c0,0 0,0 0,0c0,0 0,0 0,0c0,0 0,0 0,0c0,0 0,0 0,0c0,0 0,0 0,0c0,0 0,0 0,0c0,0 0,0 0,0c0,0 0,0 0,0c0,0 0,0 0,0c0,0 0,0 0,0c0,0 0,0 0,0c0,0 0,0 0,0c0,0 0,0 0,0c0,0 0,0 0,0c0,0 0,0 0,0c0,0 0,0 0,0c0,0 0,0 0,0c0,0 0,0 0,0c0,0 0,0 0,0c0,0 0,0 0,0c0,0 0,0 0,0c0,0 0,0 0,0c0,0 0,0 0,0c0,0 0,0 0,0c0,0 0,0 0,0c0,0 0,0 0,0c0,0 0,0 0,0c0,0 0,0 0,0c0,0 0,0 0,0c0,0 0,0 0,0c0,0 0,0 0,0c0,0 0,0 0,0c0,0 0,0 0,0c0,0 0,0 0,0c0,0 0,0 0,0c0,0 0,0 0,0c0,0 0,0 0,0c0,0 0,0 0,0c0,0 0,0 0,0c0,0 0,0 0,0c0,0 0,0 0,0c0,0 0,0 0,0c0,0 0,0 0,0c0,0 0,0 0,0c0,0 0,0 0,0c0,0 0,0 0,0Z" style="fill:none;fill-rule:nonzero;stroke:#000;stroke-opacity:0;stroke-width:0.42px;stroke-linecap:butt;stroke-linejoin:miter;stroke-miterlimit:10;"/><path d="M194.821,258.077c0.392,-1.696 1.892,-7.694 6.455,-7.694c0.323,0 1.889,0 3.259,0.848c-1.827,0.326 -3.129,1.957 -3.129,3.52c0,1.043 0.715,2.283 2.476,2.283c1.435,-0 3.52,-1.175 3.52,-3.781c-0,-3.392 -3.846,-4.302 -6.061,-4.302c-3.783,0 -6.063,3.454 -6.846,4.952c-1.63,-4.302 -5.15,-4.952 -7.038,-4.952c-6.781,0 -10.496,8.409 -10.496,10.036c-0,0.653 0.652,0.653 0.783,0.653c0.521,-0 0.717,-0.131 0.847,-0.718c2.215,-6.908 6.517,-8.539 8.735,-8.539c1.237,0 3.519,0.587 3.519,4.368c0,2.022 -1.108,6.389 -3.519,15.515c-1.044,4.041 -3.326,6.778 -6.194,6.778c-0.391,-0 -1.888,-0 -3.258,-0.848c1.631,-0.326 3.063,-1.693 3.063,-3.519c-0,-1.759 -1.432,-2.281 -2.411,-2.281c-1.957,0 -3.584,1.693 -3.584,3.781c-0,2.997 3.258,4.302 6.125,4.302c4.302,-0 6.65,-4.563 6.846,-4.955c0.78,2.411 3.128,4.955 7.039,4.955c6.712,-0 10.43,-8.409 10.43,-10.039c0,-0.653 -0.587,-0.653 -0.782,-0.653c-0.587,0 -0.718,0.261 -0.848,0.718c-2.153,6.976 -6.585,8.539 -8.67,8.539c-2.541,-0 -3.584,-2.085 -3.584,-4.302c-0,-1.435 0.391,-2.867 1.109,-5.737l2.214,-8.928" style="fill-rule:nonzero;"/><path d="M440.949,110.036c0,-0.001 0,-0.001 0,-0.001c0,0 -0,0 0,0.001c0,-0 0,-0 0,-0.001c0,0.001 0,0.001 0,0.001c0,-0.001 0,-0 0,-0.001c0,0.001 0,0 0,0.001c0,-0.001 0,-0.001 0,-0.001c0,0.001 0,0.001 0,0.001c0,-0 -0,-0 0,-0c0,-0 0,-0.001 0,-0.001c0,0.001 0,0.001 0,0.001c0,-0 0,-0 0,-0c0,-0.001 0,-0 0,-0c0,-0 0,-0 0,-0c0,-0 0,-0 0,-0c0,-0 0,-0 0,-0c0,-0.001 0,-0.001 0,-0.001c0,0.001 0,0.001 0,0c0,0 0,0.001 0,0.001c0,-0 0,-0 0,-0c0,-0 0,-0 0,-0.001c0,0 0,0.001 0,0.001c0,-0 0,-0 0,-0.001c0,0.001 0,0 0,0.001c0,-0 0,-0 0,-0c0,-0.001 0,-0 0,-0.001c0,0 0,0.001 0,0c0,0.001 0,0 0,0c0,0 0,0 0,0c0,0 0,0 0,0c0,0.001 0,0.001 0,0.001c0,-0 0,-0 0,-0.001c0,0.001 0,0.001 0,0c0,0 0,0.001 0,0.001c0,-0 0,-0 0,-0.001c0,0.001 0,0 0,0c0,0.001 0,0 0,0.001c0,-0 0,-0 0,-0c0,-0.001 0,-0 0,-0.001c0,0 0,0 0,0c0,0.001 0,0 0,0.001c0,-0.001 0,-0.001 0,-0c0,-0 0,-0.001 0,-0c0,-0 0,-0 0,-0c0,-0 0,-0 0,-0.001c0,0 0,0 0,0.001c0,-0 0,-0.001 0,-0c0,-0 0,-0.001 0,-0c0,-0.001 0,-0 0,-0.001c0,0.001 0,0.001 0,0.001c0,-0.001 0,-0 0,-0c0,-0 0,-0.001 0,-0c0,-0 0,-0.001 0,-0c0,-0 0,-0 0,-0.001c0,0.001 0,0.001 0,0.001c0,-0 0,-0.001 0,-0c0,-0.001 0,-0 0,-0.001c0,0 0,0 0,0c0,0 0,0 0,0.001c0,-0 0,-0 0,-0c0,-0.001 0,-0 0,-0.001c0,0.001 0,0 0,0.001c0,-0.001 0,-0 0,-0.001c0,0.001 0,0.001 0,0c0,0.001 0,0.001 0,0.001c0,-0 0,-0.001 0,-0.001c0,0 0,0.001 0,0.001c0,-0.001 0,-0 0,-0c0,-0 0,-0 0,-0.001c0,0.001 0,0 0,0c0,0 0,0 0,0c0,0 0,0.001 0,0c0,0 0,0 0,0.001c0,-0.001 0,-0 0,-0.001c0,0.001 0,0 0,0.001c0,-0 0,-0.001 0,-0c0,-0 0,-0.001 0,-0.001c0,0 0,0.001 0,0c0,0 0,0.001 0,0.001c0,-0 0,-0 0,-0c0,-0.001 0,-0 0,-0c0,-0 0,-0 0,-0c0,-0.001 0,-0 0,-0c0,-0.001 0,-0 0,-0c0,-0.001 0,-0 0,-0c0,-0 0,-0.001 0,-0.001c0,0.001 -0,0.001 -0,0.001Z" style="fill:none;fill-rule:nonzero;stroke:#000;stroke-opacity:0;stroke-width:0.42px;stroke-linecap:butt;stroke-linejoin:miter;stroke-miterlimit:10;"/><path d="M325.938,177.618c3.519,-3.781 5.41,-5.411 7.756,-7.431c-0,-0.065 4.041,-3.519 6.389,-5.867c6.191,-6.06 7.626,-9.191 7.626,-9.452c-0,-0.65 -0.587,-0.65 -0.718,-0.65c-0.456,0 -0.652,0.131 -0.978,0.715c-1.954,3.131 -3.324,4.172 -4.886,4.172c-1.566,-0 -2.348,-0.976 -3.327,-2.085c-1.236,-1.5 -2.345,-2.802 -4.498,-2.802c-4.889,0 -7.886,6.061 -7.886,7.43c-0,0.327 0.195,0.718 0.782,0.718c0.587,-0 0.718,-0.326 0.848,-0.718c1.237,-2.997 5.02,-3.062 5.539,-3.062c1.37,-0 2.609,0.453 4.109,0.975c2.606,0.979 3.324,0.979 5.017,0.979c-2.345,2.804 -7.822,7.495 -9.061,8.539l-5.865,5.476c-4.432,4.367 -6.715,8.082 -6.715,8.539c-0,0.652 0.652,0.652 0.783,0.652c0.522,-0 0.652,-0.13 1.043,-0.848c1.501,-2.28 3.454,-4.041 5.542,-4.041c1.497,-0 2.149,0.587 3.78,2.476c1.109,1.369 2.28,2.413 4.172,2.413c6.451,-0 10.234,-8.278 10.234,-10.039c0,-0.326 -0.26,-0.652 -0.782,-0.652c-0.587,-0 -0.718,0.391 -0.913,0.848c-1.501,4.236 -5.672,5.476 -7.822,5.476c-1.304,-0 -2.478,-0.392 -3.845,-0.848c-2.218,-0.848 -3.196,-1.109 -4.563,-1.109c-0.131,-0 -1.174,-0 -1.761,0.196" style="fill-rule:nonzero;"/><g><path d="M54.706,249.532c0,0 0,0 0,0c0,0 0,0 0,0c0,0 0,0 0,0c0,0 0,0 0,0c0,0 0,0 0,0c0,0 0,0 0,0c0,0 0,0 0,0c0,0 0,0 0,0c0,0 0,0 0,0c0,0 0,0 0,0c0,0 0,0 0,0c0,0 0,0 0,0c0,0 0,0 0,0c0,0 0,0 0,0c0,0 0,0 0,0c0,0 0,0 0,0c0,0 0,0 0,0c0,0 0,0 0,0c0,0 0,0 0,0c0,0 0,0 0,0c0,0 0,0 0,0c0,0 0,0 0,0c0,0 0,0 0,0c0,0 0,0 0,0c0,0 0,0 0,0c0,0 0,0 0,0c0,0 0,0 0,0c0,0 0,0 0,0c0,0 0,0 0,0c0,0 0,0 0,0c0,0 0,0 0,0c0,0 0,0 0,0c0,0 0,0 0,0c0,0 0,0 0,0c0,0 0,0 0,0c0,0 0,0 0,0c0,0 0,0 0,0c0,0 0,0 0,0c0,0 0,0 0,0c0,0 0,0 0,0c0,0 0,0 0,0c0,0 0,0 0,0c0,0 0,0 0,0c0,0 0,0 0,0c0,0 0,0 0,0c0,0 0,0 0,0c0,0 0,0 0,0c0,0 0,0 0,0c0,0 0,0 0,0c0,0 0,0 0,0c0,0 0,0 0,0c0,0 0,0 0,0c0,0 0,0 0,0c0,0 0,0 0,0c0,0 0,0 0,0c0,0 0,0 0,0c0,0 0,0 0,0c0,0 0,0 0,0c0,0 0,0 0,0c0,0 0,0 0,0c0,0 0,0 0,0c0,0 0,0 0,0c0,0 0,0 0,0c0,0 0,0 0,0c0,0 0,0 0,0c0,0 0,0 0,0c0,0 0,0 0,0c0,0 0,0 0,0c0,0 0,0 0,0c0,0 0,0 0,0c0,0 0,0 0,0c0,0 0,0 0,0c0,0 0,0 0,0c0,0 0,0 0,0c0,0 0,0 0,0c0,0 0,0 0,0c0,0 0,0 0,0c0,0 0,0 0,0c0,0 0,0 0,0c0,0 0,0 0,0c0,0 0,0 0,0c0,0 0,0 0,0c0,0 0,0 0,0c0,0 0,0 0,0c0,0 0,0 0,0c0,0 0,0 0,0c0,0 0,0 0,0c0,0 0,0 0,0c0,0 0,0 0,0l0,0Z" style="fill:none;fill-rule:nonzero;stroke:#000;stroke-opacity:0;stroke-width:0.42px;stroke-linecap:butt;stroke-linejoin:miter;stroke-miterlimit:10;"/><path d="M32.779,228.707c-0.827,0.768 -2.775,2.42 -2.775,3.484c0,0.591 0.591,1.182 1.18,1.182c0.532,-0 0.827,-0.414 1.122,-0.768c0.71,-0.887 2.069,-2.539 4.666,-3.839c0.414,-0.236 1.005,-0.532 1.005,-1.241c-0,-0.591 -0.414,-0.886 -0.827,-1.182c-1.301,-0.883 -1.951,-1.947 -2.423,-3.365c-0.116,-0.532 -0.352,-1.298 -1.18,-1.298c-0.827,0 -1.181,0.766 -1.181,1.239c-0,0.295 0.472,2.186 1.418,3.424l-19.902,0c-1.005,0 -2.068,0 -2.068,1.182c-0,1.182 1.063,1.182 2.068,1.182l18.897,0" style="fill-rule:nonzero;"/><path d="M14.545,243.116c0.293,-1.239 0.884,-3.484 0.884,-3.78c-0,-1.004 -0.707,-1.593 -1.711,-1.593c-0.178,0 -1.832,0.06 -2.364,2.125l-8.502,34.192c-0.177,0.709 -0.177,0.828 -0.177,0.946c-0,0.886 0.647,1.595 1.652,1.595c1.241,0 1.95,-1.063 2.068,-1.241c0.236,-0.531 1.002,-3.602 3.248,-12.697c1.888,1.596 4.547,1.832 5.727,1.832c4.134,-0 6.438,-2.657 7.854,-4.311c0.532,2.656 2.718,4.311 5.316,4.311c2.066,-0 3.425,-1.359 4.37,-3.248c1.005,-2.127 1.77,-5.729 1.77,-5.847c0,-0.591 -0.529,-0.591 -0.706,-0.591c-0.591,-0 -0.65,0.236 -0.827,1.063c-1.005,3.839 -2.069,7.323 -4.489,7.323c-1.595,-0 -1.773,-1.534 -1.773,-2.716c0,-1.3 0.709,-4.075 1.182,-6.143l1.655,-6.377c0.177,-0.886 0.768,-3.13 1.002,-4.016c0.295,-1.359 0.886,-3.602 0.886,-3.957c0,-1.063 -0.827,-1.595 -1.711,-1.595c-0.295,-0 -1.832,0.059 -2.305,2.068l-2.775,11.043c-0.709,2.952 -1.359,5.434 -1.536,6.025c-0.059,0.295 -2.893,5.668 -7.677,5.668c-2.952,-0 -4.37,-1.948 -4.37,-5.139c-0,-1.711 0.413,-3.366 0.827,-5.018l2.482,-9.922" style="fill-rule:nonzero;"/><path d="M55.967,278.017c0,-0.177 0,-0.295 -1.005,-1.297c-7.381,-7.441 -9.27,-18.605 -9.27,-27.638c0,-10.277 2.243,-20.552 9.507,-27.934c0.768,-0.709 0.768,-0.827 0.768,-1.004c0,-0.414 -0.236,-0.591 -0.591,-0.591c-0.591,-0 -5.904,4.016 -9.388,11.515c-3.014,6.498 -3.72,13.052 -3.72,18.014c-0,4.606 0.647,11.752 3.897,18.424c3.543,7.263 8.62,11.102 9.211,11.102c0.355,0 0.591,-0.177 0.591,-0.591" style="fill-rule:nonzero;"/><path d="M79.001,246.011c0.354,-1.536 1.713,-6.97 5.847,-6.97c0.293,-0 1.712,-0 2.953,0.768c-1.655,0.296 -2.834,1.773 -2.834,3.189c-0,0.945 0.647,2.068 2.243,2.068c1.3,-0 3.188,-1.064 3.188,-3.425c0,-3.073 -3.484,-3.898 -5.49,-3.898c-3.428,0 -5.494,3.13 -6.203,4.486c-1.477,-3.897 -4.666,-4.486 -6.377,-4.486c-6.143,0 -9.509,7.618 -9.509,9.093c0,0.591 0.591,0.591 0.709,0.591c0.473,0 0.651,-0.118 0.769,-0.65c2.006,-6.259 5.904,-7.736 7.913,-7.736c1.12,-0 3.189,0.532 3.189,3.957c-0,1.831 -1.005,5.788 -3.189,14.056c-0.945,3.662 -3.014,6.141 -5.611,6.141c-0.355,-0 -1.711,-0 -2.952,-0.768c1.477,-0.296 2.774,-1.534 2.774,-3.189c0,-1.593 -1.297,-2.066 -2.183,-2.066c-1.773,0 -3.248,1.534 -3.248,3.425c0,2.716 2.952,3.898 5.55,3.898c3.897,-0 6.025,-4.134 6.202,-4.489c0.707,2.184 2.834,4.489 6.377,4.489c6.081,-0 9.45,-7.618 9.45,-9.095c-0,-0.591 -0.532,-0.591 -0.709,-0.591c-0.532,-0 -0.65,0.236 -0.769,0.65c-1.95,6.32 -5.965,7.736 -7.854,7.736c-2.302,-0 -3.247,-1.889 -3.247,-3.898c-0,-1.3 0.354,-2.597 1.004,-5.198l2.007,-8.088" style="fill-rule:nonzero;"/><path d="M110.053,249.082c0,-4.607 -0.65,-11.752 -3.897,-18.427c-3.543,-7.264 -8.623,-11.102 -9.214,-11.102c-0.355,-0 -0.591,0.236 -0.591,0.591c0,0.177 0,0.295 1.123,1.359c5.786,5.845 9.154,15.236 9.154,27.579c0,10.097 -2.186,20.492 -9.509,27.933c-0.768,0.707 -0.768,0.825 -0.768,1.002c0,0.355 0.236,0.591 0.591,0.591c0.591,0 5.907,-4.016 9.391,-11.516c3.011,-6.495 3.72,-13.052 3.72,-18.01" style="fill-rule:nonzero;"/></g><g><path d="M1016.48,251.355c0,0 0,0 0,0c0,0 -0,0 0,0c-0,0 0,0 0,0c-0,0 0,0 0,0c-0,0 0,0 0,0c0,0 0,0 0,0c0,0 0,0 0,0c0,0 0,0 0,0c0,0 -0,0 0,0c0,0 0,0 0,0c0,0 0,0 0,0c0,0 0,0 -0,0c-0,0 0,0 0,0c0,0 0,0 0,0c-0,0 0,0 0,0c0,0 0,0 0,0c-0,0 -0,0 0,0c0,0 0,0 -0,0c0,0 0,0 0,0c0,0 0,0 0,0c0,0 0,0 0,0c0,0 -0,0 0,0c0,0 0,0 0,0c0,0 0,0 0,0c0,0 0,0 0,0c0,0 0,0 0,0c-0,0 0,0 0,0c0,0 0,0 -0,0c0,0 0,0 0,0c0,0 0,0 0,0c-0,0 -0,0 -0,0c0,0 0,0 0,0c0,0 0,0 0,0c0,0 0,0 0,0c-0,0 0,0 0,0c0,0 0,0 -0,0c0,0 0,0 0,0c-0,0 0,0 0,0c0,0 0,0 0,0c0,0 0,0 0,0c-0,0 0,0 0,0c0,0 0,0 0,0c-0,0 0,0 0,0c0,0 0,0 0,0c0,0 0,0 0,0c0,0 0,0 0,0c0,0 0,0 0,0c0,0 0,0 0,0c0,0 0,0 -0,0c0,0 0,0 0,0c0,0 0,0 0,0c0,0 0,0 0,0c0,0 0,0 -0,0c0,0 0,0 0,0c0,0 -0,0 0,0c0,0 0,0 -0,0c0,0 0,0 0,0c-0,0 0,0 0,0c0,0 -0,0 0,0c0,0 0,0 0,0c0,0 -0,0 0,0c0,0 0,0 0,0c-0,0 -0,0 0,0c0,0 0,0 0,0c0,0 0,0 0,0c0,0 0,0 0,0c0,0 0,0 -0,0c0,0 0,0 0,0c0,0 0,0 -0,0c0,0 0,0 0,0c0,0 0,0 -0,0c-0,0 0,0 0,0c0,0 0,0 0,0c0,0 0,0 0,0c0,0 0,0 -0,0c0,0 0,0 0,0c0,0 0,0 0,0c0,0 0,0 0,0c0,0 0,0 0,0c0,0 -0,0 0,0c0,0 0,0 0,0c0,0 -0,0 0,0c0,0 0,0 0,0c0,0 0,0 -0,0c0,0 0,0 0,0c0,0 -0,0 0,0c-0,0 0,0 0,0c0,0 0,0 0,0c-0,0 -0,0 0,0c0,0 0,0 0,0c0,0 0,0 0,0c-0,0 0,0 0,0c-0,0 0,0 0,0c0,0 0,0 0,0c0,0 -0,0 0,0c0,0 -0,0 -0,0c0,0 0,0 0,0c0,0 0,0 0,0c0,0 0,0 0,0c0,0 0,0 -0,0c0,0 0,0 0,0c0,0 0,0 0,0c0,0 -0,0 -0,0Z" style="fill:none;fill-rule:nonzero;stroke:#000;stroke-opacity:0;stroke-width:0.42px;stroke-linecap:butt;stroke-linejoin:miter;stroke-miterlimit:10;"/><path d="M540.356,233.957c-0.69,0.64 -2.313,2.018 -2.313,2.904c-0,0.493 0.493,0.986 0.983,0.986c0.443,-0 0.69,-0.345 0.936,-0.641c0.591,-0.739 1.724,-2.116 3.89,-3.2c0.345,-0.197 0.837,-0.443 0.837,-1.034c0,-0.493 -0.344,-0.74 -0.689,-0.986c-1.084,-0.737 -1.626,-1.623 -2.02,-2.806c-0.097,-0.443 -0.294,-1.081 -0.983,-1.081c-0.69,-0 -0.986,0.638 -0.986,1.032c0,0.246 0.395,1.823 1.183,2.855l-16.592,0c-0.837,0 -1.724,0 -1.724,0.986c-0,0.985 0.887,0.985 1.724,0.985l15.754,-0" style="fill-rule:nonzero;"/><path d="M525.155,245.969c0.244,-1.032 0.736,-2.905 0.736,-3.151c0,-0.837 -0.589,-1.328 -1.426,-1.328c-0.148,0 -1.527,0.049 -1.971,1.771l-7.087,28.506c-0.148,0.591 -0.148,0.69 -0.148,0.788c-0,0.739 0.54,1.33 1.377,1.33c1.035,0 1.626,-0.887 1.724,-1.034c0.197,-0.444 0.836,-3.003 2.708,-10.586c1.574,1.33 3.791,1.527 4.774,1.527c3.447,0 5.368,-2.214 6.548,-3.594c0.444,2.215 2.266,3.594 4.432,3.594c1.722,0 2.855,-1.133 3.643,-2.707c0.838,-1.774 1.476,-4.777 1.476,-4.875c0,-0.493 -0.441,-0.493 -0.589,-0.493c-0.492,0 -0.542,0.197 -0.689,0.887c-0.838,3.2 -1.725,6.104 -3.742,6.104c-1.331,0 -1.478,-1.278 -1.478,-2.264c-0,-1.083 0.591,-3.397 0.985,-5.121l1.379,-5.316c0.148,-0.739 0.641,-2.609 0.836,-3.348c0.246,-1.133 0.739,-3.003 0.739,-3.299c-0,-0.887 -0.69,-1.33 -1.427,-1.33c-0.246,-0 -1.527,0.049 -1.921,1.724l-2.314,9.206c-0.591,2.462 -1.133,4.531 -1.281,5.023c-0.049,0.247 -2.411,4.725 -6.4,4.725c-2.461,0 -3.643,-1.623 -3.643,-4.283c-0,-1.427 0.345,-2.806 0.69,-4.184l2.069,-8.272" style="fill-rule:nonzero;"/><path d="M559.687,275.065c0,-0.147 0,-0.246 -0.837,-1.081c-6.154,-6.203 -7.728,-15.51 -7.728,-23.041c-0,-8.568 1.87,-17.134 7.925,-23.288c0.64,-0.591 0.64,-0.69 0.64,-0.837c0,-0.345 -0.197,-0.493 -0.492,-0.493c-0.493,0 -4.922,3.348 -7.827,9.6c-2.513,5.417 -3.101,10.882 -3.101,15.018c-0,3.84 0.539,9.797 3.249,15.36c2.954,6.055 7.186,9.255 7.679,9.255c0.295,0 0.492,-0.148 0.492,-0.493" style="fill-rule:nonzero;"/><path d="M586.511,244.493c0.197,-0.689 0.197,-0.788 0.197,-1.133c0,-0.887 -0.689,-1.33 -1.428,-1.33c-0.493,-0 -1.279,0.295 -1.722,1.034c-0.099,0.247 -0.493,1.774 -0.69,2.659c-0.345,1.281 -0.69,2.611 -0.985,3.939l-2.215,8.861c-0.197,0.739 -2.314,4.185 -5.563,4.185c-2.512,0 -3.054,-2.165 -3.054,-3.988c-0,-2.264 0.837,-5.316 2.512,-9.65c0.786,-2.017 0.983,-2.559 0.983,-3.544c0,-2.215 -1.574,-4.036 -4.035,-4.036c-4.678,0 -6.499,7.137 -6.499,7.58c0,0.493 0.491,0.493 0.589,0.493c0.493,0 0.542,-0.098 0.788,-0.887c1.331,-4.626 3.299,-6.104 4.974,-6.104c0.394,-0 1.23,-0 1.23,1.576c-0,1.23 -0.493,2.511 -0.836,3.447c-1.97,5.218 -2.857,8.024 -2.857,10.339c-0,4.38 3.101,5.858 6.008,5.858c1.919,0 3.592,-0.837 4.972,-2.214c-0.641,2.559 -1.232,4.971 -3.201,7.58c-1.28,1.675 -3.15,3.102 -5.415,3.102c-0.689,-0 -2.904,-0.148 -3.742,-2.067c0.789,-0 1.427,-0 2.117,-0.592c0.492,-0.443 0.985,-1.083 0.985,-2.017c0,-1.528 -1.33,-1.725 -1.823,-1.725c-1.131,0 -2.756,0.789 -2.756,3.2c-0,2.462 2.167,4.284 5.219,4.284c5.071,0 10.143,-4.481 11.52,-10.043l4.727,-18.807" style="fill-rule:nonzero;"/><path d="M602.585,250.943c-0,-3.841 -0.542,-9.798 -3.25,-15.363c-2.953,-6.055 -7.188,-9.255 -7.681,-9.255c-0.295,0 -0.492,0.197 -0.492,0.493c-0,0.147 -0,0.246 0.936,1.133c4.823,4.873 7.631,12.702 7.631,22.992c0,8.418 -1.822,17.084 -7.927,23.287c-0.64,0.589 -0.64,0.688 -0.64,0.835c-0,0.296 0.197,0.493 0.492,0.493c0.493,0 4.925,-3.348 7.829,-9.6c2.51,-5.415 3.102,-10.881 3.102,-15.015" style="fill-rule:nonzero;"/><path d="M654.894,242.375c0.837,-0 1.771,-0 1.771,-0.983c0,-0.986 -0.886,-0.986 -1.723,-0.986l-29.391,0c-0.838,0 -1.724,0 -1.724,0.986c-0,0.983 0.985,0.983 1.773,0.983l29.294,-0Zm0.048,19.104c0.837,-0 1.723,-0 1.723,-0.985c0,-0.986 -0.934,-0.986 -1.771,-0.986l-29.294,0c-0.788,0 -1.773,0 -1.773,0.986c-0,0.985 0.886,0.985 1.724,0.985l29.391,-0Zm0,-9.553c0.837,-0 1.723,-0 1.723,-0.983c0,-0.986 -0.886,-0.986 -1.723,-0.986l-29.391,0c-0.838,0 -1.724,0 -1.724,0.986c-0,0.983 0.886,0.983 1.724,0.983l29.391,-0" style="fill-rule:nonzero;"/><path d="M678.193,303.534c1.577,-0.098 2.415,-1.182 2.415,-2.414c-0,-1.623 -1.231,-2.411 -2.365,-2.411c-1.18,-0 -2.412,0.739 -2.412,2.461c0,2.51 2.461,4.579 5.466,4.579c7.482,0 10.288,-11.521 13.784,-25.798c3.792,-15.559 6.991,-31.264 9.65,-47.067c1.823,-10.487 3.643,-20.334 5.319,-26.685c0.59,-2.412 2.263,-8.763 4.185,-8.763c1.526,0 2.757,0.934 2.954,1.131c-1.626,0.099 -2.463,1.183 -2.463,2.414c-0,1.624 1.231,2.412 2.364,2.412c1.181,0 2.412,-0.739 2.412,-2.461c-0,-2.66 -2.658,-4.58 -5.366,-4.58c-3.742,0 -6.498,5.366 -9.208,15.41c-0.148,0.542 -6.843,25.258 -12.258,57.456c-1.282,7.533 -2.708,15.754 -4.334,22.598c-0.884,3.594 -3.151,12.849 -7.136,12.849c-1.774,0 -2.957,-1.131 -3.007,-1.131" style="fill-rule:nonzero;"/><path d="M756.952,233.957c-0.689,0.64 -2.314,2.018 -2.314,2.904c0,0.493 0.494,0.986 0.984,0.986c0.443,-0 0.69,-0.345 0.935,-0.641c0.593,-0.739 1.725,-2.116 3.891,-3.2c0.345,-0.197 0.837,-0.443 0.837,-1.034c0,-0.493 -0.345,-0.74 -0.689,-0.986c-1.084,-0.737 -1.626,-1.623 -2.021,-2.806c-0.096,-0.443 -0.293,-1.081 -0.983,-1.081c-0.689,-0 -0.985,0.638 -0.985,1.032c-0,0.246 0.394,1.823 1.183,2.855l-16.592,0c-0.837,0 -1.724,0 -1.724,0.986c-0,0.985 0.887,0.985 1.724,0.985l15.754,-0" style="fill-rule:nonzero;"/><path d="M741.888,245.969c0.244,-1.032 0.736,-2.905 0.736,-3.151c-0,-0.837 -0.588,-1.328 -1.426,-1.328c-0.148,0 -1.527,0.049 -1.971,1.771l-7.087,28.506c-0.148,0.591 -0.148,0.69 -0.148,0.788c-0,0.739 0.54,1.33 1.377,1.33c1.035,0 1.626,-0.887 1.725,-1.034c0.196,-0.444 0.835,-3.003 2.707,-10.586c1.574,1.33 3.791,1.527 4.774,1.527c3.447,0 5.368,-2.214 6.548,-3.594c0.443,2.215 2.266,3.594 4.432,3.594c1.722,0 2.856,-1.133 3.644,-2.707c0.837,-1.774 1.475,-4.777 1.475,-4.875c-0,-0.493 -0.441,-0.493 -0.588,-0.493c-0.494,0 -0.543,0.197 -0.691,0.887c-0.838,3.2 -1.723,6.104 -3.741,6.104c-1.331,0 -1.478,-1.278 -1.478,-2.264c0,-1.083 0.591,-3.397 0.984,-5.121l1.381,-5.316c0.146,-0.739 0.64,-2.609 0.835,-3.348c0.246,-1.133 0.739,-3.003 0.739,-3.299c-0,-0.887 -0.69,-1.33 -1.428,-1.33c-0.245,-0 -1.527,0.049 -1.92,1.724l-2.314,9.206c-0.591,2.462 -1.132,4.531 -1.281,5.023c-0.049,0.247 -2.411,4.725 -6.4,4.725c-2.461,0 -3.644,-1.623 -3.644,-4.283c0,-1.427 0.346,-2.806 0.691,-4.184l2.069,-8.272" style="fill-rule:nonzero;"/><path d="M776.421,275.065c0,-0.147 0,-0.246 -0.838,-1.081c-6.153,-6.203 -7.728,-15.51 -7.728,-23.041c-0,-8.568 1.869,-17.134 7.925,-23.288c0.641,-0.591 0.641,-0.69 0.641,-0.837c0,-0.345 -0.197,-0.493 -0.493,-0.493c-0.493,0 -4.922,3.348 -7.827,9.6c-2.512,5.417 -3.102,10.882 -3.102,15.018c0,3.84 0.54,9.797 3.25,15.36c2.953,6.055 7.186,9.255 7.679,9.255c0.296,0 0.493,-0.148 0.493,-0.493" style="fill-rule:nonzero;"/><path d="M795.623,248.383c0.296,-1.281 1.43,-5.811 4.876,-5.811c0.244,-0 1.426,-0 2.461,0.64c-1.38,0.247 -2.364,1.478 -2.364,2.658c0,0.789 0.54,1.725 1.871,1.725c1.083,-0 2.659,-0.887 2.659,-2.855c-0,-2.562 -2.905,-3.25 -4.578,-3.25c-2.858,0 -4.58,2.609 -5.171,3.74c-1.232,-3.249 -3.89,-3.74 -5.316,-3.74c-5.121,0 -7.928,6.351 -7.928,7.58c0,0.493 0.493,0.493 0.591,0.493c0.394,0 0.542,-0.098 0.64,-0.542c1.673,-5.217 4.923,-6.449 6.598,-6.449c0.934,-0 2.659,0.443 2.659,3.298c-0,1.528 -0.838,4.826 -2.659,11.719c-0.788,3.053 -2.512,5.119 -4.678,5.119c-0.295,0 -1.426,0 -2.461,-0.64c1.231,-0.246 2.313,-1.279 2.313,-2.658c-0,-1.328 -1.082,-1.722 -1.821,-1.722c-1.478,-0 -2.707,1.278 -2.707,2.855c-0,2.264 2.462,3.249 4.626,3.249c3.251,0 5.023,-3.446 5.171,-3.742c0.59,1.821 2.364,3.742 5.316,3.742c5.071,0 7.879,-6.351 7.879,-7.582c-0,-0.493 -0.443,-0.493 -0.591,-0.493c-0.444,0 -0.542,0.197 -0.64,0.542c-1.626,5.269 -4.974,6.449 -6.549,6.449c-1.919,0 -2.707,-1.574 -2.707,-3.249c-0,-1.084 0.296,-2.165 0.837,-4.333l1.673,-6.743" style="fill-rule:nonzero;"/><path d="M821.511,250.943c0,-3.841 -0.542,-9.798 -3.25,-15.363c-2.953,-6.055 -7.187,-9.255 -7.681,-9.255c-0.295,0 -0.492,0.197 -0.492,0.493c0,0.147 0,0.246 0.936,1.133c4.823,4.873 7.632,12.702 7.632,22.992c-0,8.418 -1.823,17.084 -7.928,23.287c-0.64,0.589 -0.64,0.688 -0.64,0.835c0,0.296 0.197,0.493 0.492,0.493c0.494,0 4.924,-3.348 7.829,-9.6c2.51,-5.415 3.102,-10.881 3.102,-15.015" style="fill-rule:nonzero;"/><path d="M840.076,250.844c0.296,-7.336 4.432,-8.568 6.104,-8.568c5.072,0 5.564,6.647 5.564,8.568l-11.668,0Zm-0.05,1.033l13.736,-0c1.085,-0 1.233,-0 1.233,-1.033c-0,-4.875 -2.658,-9.65 -8.815,-9.65c-5.711,0 -10.239,5.071 -10.239,11.224c0,6.598 5.17,11.374 10.83,11.374c6.007,0 8.224,-5.466 8.224,-6.4c-0,-0.493 -0.395,-0.591 -0.641,-0.591c-0.444,-0 -0.542,0.295 -0.641,0.69c-1.722,5.07 -6.154,5.07 -6.646,5.07c-2.461,-0 -4.429,-1.476 -5.563,-3.299c-1.478,-2.363 -1.478,-5.612 -1.478,-7.385" style="fill-rule:nonzero;"/><path d="M870.627,251.682c1.475,-1.872 3.347,-4.284 4.528,-5.565c1.527,-1.772 3.545,-2.511 5.86,-2.56l-0,-1.527c-1.28,0.098 -2.76,0.148 -4.037,0.148c-1.478,-0 -4.088,-0.099 -4.728,-0.148l-0,1.527c1.035,0.099 1.428,0.739 1.428,1.527c0,0.786 -0.492,1.427 -0.739,1.723l-3.051,3.84l-3.841,-4.974c-0.443,-0.492 -0.443,-0.589 -0.443,-0.884c-0,-0.739 0.739,-1.183 1.724,-1.232l0,-1.527c-1.281,0.049 -4.53,0.148 -5.319,0.148c-1.032,-0 -3.347,-0.05 -4.676,-0.148l0,1.527c3.447,0 3.496,0.049 5.809,3.003l4.876,6.351l-4.63,5.858c-2.362,2.856 -5.266,2.954 -6.301,2.954l-0,1.527c1.279,-0.098 2.806,-0.147 4.087,-0.147c1.426,-0 3.496,0.098 4.675,0.147l0,-1.527c-1.083,-0.145 -1.426,-0.786 -1.426,-1.525c0,-1.084 1.426,-2.707 4.43,-6.252l3.742,4.922c0.394,0.542 1.034,1.33 1.034,1.626c-0,0.443 -0.443,1.18 -1.773,1.229l0,1.527c1.478,-0.049 4.235,-0.147 5.318,-0.147c1.328,-0 3.25,0.049 4.725,0.147l0,-1.527c-2.658,0 -3.545,-0.098 -4.676,-1.525l-6.596,-8.516" style="fill-rule:nonzero;"/><path d="M890.873,244.74l-0,-3.25l-7.089,0.54l0,1.527c3.496,0 3.838,0.296 3.838,2.461l0,23.041c0,2.217 -0.538,2.217 -3.838,2.217l0,1.525c1.674,-0.049 4.233,-0.147 5.514,-0.147c1.329,-0 3.841,0.098 5.563,0.147l-0,-1.525c-3.299,0 -3.842,0 -3.842,-2.217l0,-8.713c0.247,0.788 2.316,3.446 6.058,3.446c5.859,0 10.978,-4.826 10.978,-11.176c0,-6.253 -4.775,-11.126 -10.29,-11.126c-3.838,0 -5.908,2.166 -6.892,3.25Zm0.146,12.898l0,-10.979c1.43,-2.511 3.842,-3.939 6.352,-3.939c3.594,-0 6.598,4.333 6.598,9.896c-0,5.956 -3.445,10.092 -7.089,10.092c-1.97,0 -3.84,-0.985 -5.17,-3.003c-0.691,-1.034 -0.691,-1.083 -0.691,-2.067" style="fill-rule:nonzero;"/><path d="M930.218,310.027l12.948,-0l-0,-2.708l-10.241,0l0,-112.695l10.241,-0l-0,-2.708l-12.948,0l-0,118.111" style="fill-rule:nonzero;"/><path d="M948.938,303.534c1.577,-0.098 2.414,-1.182 2.414,-2.414c0,-1.623 -1.231,-2.411 -2.364,-2.411c-1.181,-0 -2.412,0.739 -2.412,2.461c0,2.51 2.461,4.579 5.466,4.579c7.482,0 10.288,-11.521 13.784,-25.798c3.792,-15.559 6.991,-31.264 9.649,-47.067c1.824,-10.487 3.644,-20.334 5.319,-26.685c0.591,-2.412 2.264,-8.763 4.186,-8.763c1.525,0 2.756,0.934 2.954,1.131c-1.626,0.099 -2.464,1.183 -2.464,2.414c0,1.624 1.231,2.412 2.365,2.412c1.18,0 2.411,-0.739 2.411,-2.461c0,-2.66 -2.658,-4.58 -5.365,-4.58c-3.743,0 -6.498,5.366 -9.208,15.41c-0.148,0.542 -6.844,25.258 -12.258,57.456c-1.282,7.533 -2.708,15.754 -4.334,22.598c-0.884,3.594 -3.151,12.849 -7.136,12.849c-1.774,0 -2.957,-1.131 -3.007,-1.131" style="fill-rule:nonzero;"/><path d="M1023.51,242.03c-0,-0.197 -0.148,-0.491 -0.494,-0.491c-0.539,0 -2.51,1.969 -3.347,3.398c-1.082,-2.661 -3.003,-3.447 -4.578,-3.447c-5.808,0 -11.866,7.285 -11.866,14.424c0,4.826 2.906,7.878 6.499,7.878c2.118,0 4.038,-1.182 5.811,-2.954c-0.444,1.723 -2.07,8.369 -2.218,8.813c-0.393,1.379 -0.785,1.576 -3.543,1.625c-0.639,0 -1.131,0 -1.131,0.984c-0,0.049 -0,0.541 0.64,0.541c1.574,0 3.298,-0.147 4.921,-0.147c1.676,-0 3.447,0.147 5.072,0.147c0.245,0 0.886,0 0.886,-0.985c0,-0.54 -0.493,-0.54 -1.279,-0.54c-2.365,0 -2.365,-0.345 -2.365,-0.788c0,-0.345 0.099,-0.64 0.198,-1.084l6.794,-27.374Zm-13.639,20.678c-2.953,0 -3.15,-3.791 -3.15,-4.626c-0,-2.365 1.428,-7.731 2.266,-9.798c1.526,-3.643 4.085,-5.712 6.104,-5.712c3.201,-0 3.891,3.988 3.891,4.333c-0,0.296 -2.71,11.078 -2.858,11.275c-0.737,1.378 -3.493,4.528 -6.253,4.528" style="fill-rule:nonzero;"/><path d="M1041.27,275.065c0,-0.147 0,-0.246 -0.837,-1.081c-6.154,-6.203 -7.729,-15.51 -7.729,-23.041c-0,-8.568 1.87,-17.134 7.925,-23.288c0.641,-0.591 0.641,-0.69 0.641,-0.837c0,-0.345 -0.197,-0.493 -0.493,-0.493c-0.492,0 -4.922,3.348 -7.827,9.6c-2.512,5.417 -3.102,10.882 -3.102,15.018c0,3.84 0.54,9.797 3.251,15.36c2.952,6.055 7.186,9.255 7.678,9.255c0.296,0 0.493,-0.148 0.493,-0.493" style="fill-rule:nonzero;"/><path d="M1050.58,259.163c2.658,-2.855 4.087,-4.086 5.858,-5.611c-0,-0.05 3.053,-2.659 4.825,-4.432c4.676,-4.578 5.76,-6.942 5.76,-7.139c0,-0.491 -0.444,-0.491 -0.541,-0.491c-0.346,0 -0.494,0.099 -0.739,0.54c-1.476,2.365 -2.511,3.151 -3.692,3.151c-1.181,-0 -1.772,-0.737 -2.511,-1.575c-0.935,-1.133 -1.773,-2.116 -3.398,-2.116c-3.692,0 -5.957,4.577 -5.957,5.612c0,0.246 0.148,0.542 0.591,0.542c0.444,-0 0.543,-0.246 0.642,-0.542c0.933,-2.264 3.79,-2.313 4.182,-2.313c1.035,-0 1.971,0.342 3.104,0.737c1.968,0.739 2.51,0.739 3.789,0.739c-1.771,2.118 -5.907,5.661 -6.844,6.449l-4.429,4.136c-3.347,3.299 -5.072,6.105 -5.072,6.45c-0,0.492 0.492,0.492 0.591,0.492c0.395,0 0.492,-0.098 0.788,-0.64c1.134,-1.722 2.609,-3.052 4.185,-3.052c1.131,-0 1.625,0.443 2.856,1.869c0.837,1.035 1.722,1.823 3.15,1.823c4.873,0 7.73,-6.252 7.73,-7.582c0,-0.247 -0.196,-0.493 -0.591,-0.493c-0.442,0 -0.541,0.296 -0.689,0.641c-1.132,3.2 -4.284,4.136 -5.907,4.136c-0.986,-0 -1.873,-0.296 -2.905,-0.641c-1.675,-0.64 -2.414,-0.837 -3.446,-0.837c-0.099,-0 -0.887,-0 -1.33,0.147" style="fill-rule:nonzero;"/><path d="M1083.35,250.943c-0,-3.841 -0.543,-9.798 -3.251,-15.363c-2.953,-6.055 -7.187,-9.255 -7.681,-9.255c-0.294,0 -0.492,0.197 -0.492,0.493c0,0.147 0,0.246 0.937,1.133c4.822,4.873 7.631,12.702 7.631,22.992c0,8.418 -1.823,17.084 -7.928,23.287c-0.64,0.589 -0.64,0.688 -0.64,0.835c0,0.296 0.198,0.493 0.492,0.493c0.494,0 4.925,-3.348 7.829,-9.6c2.51,-5.415 3.103,-10.881 3.103,-15.015" style="fill-rule:nonzero;"/><path d="M1105.11,229.082l-7.087,0.542l0,1.527c3.444,-0 3.838,0.345 3.838,2.757l0,25.6c0,2.215 -0.54,2.215 -3.838,2.215l0,1.527c1.623,-0.049 4.232,-0.147 5.464,-0.147c1.23,-0 3.644,0.098 5.465,0.147l-0,-1.527c-3.299,0 -3.842,0 -3.842,-2.215l0,-30.426" style="fill-rule:nonzero;"/><path d="M1133.29,252.714c0,-6.302 -4.925,-11.52 -10.882,-11.52c-6.153,0 -10.928,5.366 -10.928,11.52c-0,6.351 5.12,11.078 10.879,11.078c5.958,0 10.931,-4.826 10.931,-11.078Zm-10.882,9.847c-2.116,-0 -4.281,-1.033 -5.612,-3.299c-1.231,-2.166 -1.231,-5.169 -1.231,-6.942c0,-1.919 0,-4.577 1.182,-6.745c1.331,-2.264 3.643,-3.299 5.612,-3.299c2.167,0 4.284,1.084 5.566,3.2c1.277,2.119 1.277,4.974 1.277,6.844c0,1.773 0,4.432 -1.081,6.597c-1.083,2.217 -3.249,3.644 -5.713,3.644" style="fill-rule:nonzero;"/><path d="M1145.57,254.783c-4.284,0 -4.284,-4.924 -4.284,-6.057c0,-1.328 0.049,-2.905 0.788,-4.134c0.395,-0.591 1.526,-1.971 3.496,-1.971c4.283,0 4.283,4.924 4.283,6.055c-0,1.331 -0.05,2.907 -0.787,4.137c-0.394,0.591 -1.527,1.97 -3.496,1.97Zm-5.712,1.919c-0,-0.197 -0,-1.33 0.837,-2.313c1.922,1.377 3.94,1.525 4.875,1.525c4.579,0 7.976,-3.397 7.976,-7.188c-0,-1.821 -0.787,-3.642 -2.018,-4.775c1.771,-1.675 3.545,-1.921 4.432,-1.921c0.097,-0 0.343,-0 0.489,0.049c-0.539,0.197 -0.785,0.739 -0.785,1.33c-0,0.838 0.639,1.429 1.427,1.429c0.492,-0 1.428,-0.345 1.428,-1.478c0,-0.837 -0.591,-2.412 -2.51,-2.412c-0.985,0 -3.153,0.296 -5.22,2.313c-2.067,-1.623 -4.136,-1.771 -5.219,-1.771c-4.579,0 -7.976,3.397 -7.976,7.186c0,2.168 1.083,4.038 2.313,5.073c-0.637,0.739 -1.524,2.362 -1.524,4.086c-0,1.526 0.64,3.398 2.164,4.381c-2.953,0.837 -4.528,2.954 -4.528,4.924c0,3.545 4.874,6.253 10.879,6.253c5.812,-0 10.932,-2.511 10.932,-6.351c-0,-1.725 -0.69,-4.235 -3.201,-5.612c-2.609,-1.38 -5.465,-1.38 -8.467,-1.38c-1.232,0 -3.347,0 -3.693,-0.049c-1.576,-0.197 -2.611,-1.722 -2.611,-3.299Zm7.09,15.558c-4.971,-0 -8.369,-2.511 -8.369,-5.12c-0,-2.264 1.871,-4.087 4.038,-4.235l2.905,0c4.232,0 9.747,0 9.747,4.235c-0,2.658 -3.496,5.12 -8.321,5.12" style="fill-rule:nonzero;"/><path d="M1176.16,275.065c-0,-0.147 -0,-0.246 -0.838,-1.081c-6.154,-6.203 -7.729,-15.51 -7.729,-23.041c0,-8.568 1.87,-17.134 7.925,-23.288c0.642,-0.591 0.642,-0.69 0.642,-0.837c-0,-0.345 -0.198,-0.493 -0.494,-0.493c-0.492,0 -4.921,3.348 -7.826,9.6c-2.513,5.417 -3.102,10.882 -3.102,15.018c-0,3.84 0.54,9.797 3.25,15.36c2.953,6.055 7.186,9.255 7.678,9.255c0.296,0 0.494,-0.148 0.494,-0.493" style="fill-rule:nonzero;"/><path d="M1197.13,243.557l4.234,0c0.985,0 1.477,0 1.477,-0.985c0,-0.542 -0.492,-0.542 -1.329,-0.542l-4.088,-0l1.035,-5.612c0.197,-1.035 0.887,-4.528 1.183,-5.119c0.443,-0.936 1.277,-1.675 2.312,-1.675c0.198,-0 1.478,-0 2.412,0.886c-2.165,0.197 -2.658,1.92 -2.658,2.659c-0,1.133 0.887,1.724 1.823,1.724c1.279,-0 2.707,-1.084 2.707,-2.956c0,-2.264 -2.266,-3.395 -4.284,-3.395c-1.672,-0 -4.774,0.885 -6.252,5.76c-0.296,1.032 -0.443,1.525 -1.626,7.728l-3.397,-0c-0.933,-0 -1.476,-0 -1.476,0.936c-0,0.591 0.444,0.591 1.38,0.591l3.249,0l-3.693,19.447c-0.887,4.777 -1.725,9.256 -4.284,9.256c-0.196,-0 -1.428,-0 -2.362,-0.885c2.263,-0.148 2.708,-1.921 2.708,-2.661c-0,-1.13 -0.887,-1.722 -1.824,-1.722c-1.279,0 -2.707,1.084 -2.707,2.954c-0,2.215 2.167,3.397 4.185,3.397c2.707,0 4.679,-2.904 5.563,-4.776c1.576,-3.102 2.707,-9.059 2.757,-9.404l2.955,-15.606" style="fill-rule:nonzero;"/><path d="M1224.69,275.065c0,-0.147 0,-0.246 -0.837,-1.081c-6.154,-6.203 -7.729,-15.51 -7.729,-23.041c-0,-8.568 1.87,-17.134 7.925,-23.288c0.641,-0.591 0.641,-0.69 0.641,-0.837c0,-0.345 -0.197,-0.493 -0.493,-0.493c-0.492,0 -4.922,3.348 -7.826,9.6c-2.513,5.417 -3.103,10.882 -3.103,15.018c0,3.84 0.54,9.797 3.251,15.36c2.952,6.055 7.186,9.255 7.678,9.255c0.296,0 0.493,-0.148 0.493,-0.493" style="fill-rule:nonzero;"/><path d="M1243.89,248.383c0.296,-1.281 1.43,-5.811 4.876,-5.811c0.244,-0 1.426,-0 2.461,0.64c-1.379,0.247 -2.364,1.478 -2.364,2.658c0,0.789 0.54,1.725 1.872,1.725c1.083,-0 2.658,-0.887 2.658,-2.855c-0,-2.562 -2.905,-3.25 -4.578,-3.25c-2.858,0 -4.58,2.609 -5.17,3.74c-1.233,-3.249 -3.891,-3.74 -5.317,-3.74c-5.121,0 -7.927,6.351 -7.927,7.58c-0,0.493 0.492,0.493 0.59,0.493c0.394,0 0.542,-0.098 0.641,-0.542c1.672,-5.217 4.922,-6.449 6.598,-6.449c0.933,-0 2.658,0.443 2.658,3.298c-0,1.528 -0.838,4.826 -2.658,11.719c-0.789,3.053 -2.513,5.119 -4.679,5.119c-0.295,0 -1.426,0 -2.461,-0.64c1.231,-0.246 2.313,-1.279 2.313,-2.658c-0,-1.328 -1.082,-1.722 -1.821,-1.722c-1.477,-0 -2.707,1.278 -2.707,2.855c-0,2.264 2.462,3.249 4.627,3.249c3.25,0 5.022,-3.446 5.17,-3.742c0.59,1.821 2.364,3.742 5.317,3.742c5.07,0 7.878,-6.351 7.878,-7.582c-0,-0.493 -0.443,-0.493 -0.591,-0.493c-0.444,0 -0.541,0.197 -0.64,0.542c-1.626,5.269 -4.974,6.449 -6.549,6.449c-1.919,0 -2.707,-1.574 -2.707,-3.249c-0,-1.084 0.296,-2.165 0.837,-4.333l1.673,-6.743" style="fill-rule:nonzero;"/><path d="M1265.55,263.201c-0,-3.249 -1.232,-5.169 -3.152,-5.169c-1.625,0 -2.608,1.23 -2.608,2.61c-0,1.327 0.983,2.608 2.608,2.608c0.591,0 1.233,-0.197 1.722,-0.64c0.148,-0.099 0.198,-0.148 0.247,-0.148c0.049,0 0.099,0.049 0.099,0.739c-0,3.644 -1.722,6.597 -3.348,8.223c-0.541,0.54 -0.541,0.638 -0.541,0.786c-0,0.345 0.245,0.542 0.492,0.542c0.541,0 4.481,-3.791 4.481,-9.551" style="fill-rule:nonzero;"/><path d="M1301.41,244.493c0.196,-0.689 0.196,-0.788 0.196,-1.133c0,-0.887 -0.689,-1.33 -1.428,-1.33c-0.492,-0 -1.279,0.295 -1.722,1.034c-0.099,0.247 -0.492,1.774 -0.69,2.659c-0.345,1.281 -0.689,2.611 -0.985,3.939l-2.214,8.861c-0.198,0.739 -2.314,4.185 -5.563,4.185c-2.513,0 -3.054,-2.165 -3.054,-3.988c-0,-2.264 0.837,-5.316 2.511,-9.65c0.787,-2.017 0.984,-2.559 0.984,-3.544c0,-2.215 -1.575,-4.036 -4.036,-4.036c-4.678,0 -6.499,7.137 -6.499,7.58c0,0.493 0.491,0.493 0.59,0.493c0.492,0 0.541,-0.098 0.788,-0.887c1.33,-4.626 3.298,-6.104 4.973,-6.104c0.395,-0 1.23,-0 1.23,1.576c0,1.23 -0.492,2.511 -0.835,3.447c-1.971,5.218 -2.858,8.024 -2.858,10.339c0,4.38 3.102,5.858 6.008,5.858c1.92,0 3.592,-0.837 4.973,-2.214c-0.642,2.559 -1.233,4.971 -3.201,7.58c-1.281,1.675 -3.151,3.102 -5.415,3.102c-0.69,-0 -2.905,-0.148 -3.743,-2.067c0.789,-0 1.427,-0 2.117,-0.592c0.493,-0.443 0.986,-1.083 0.986,-2.017c-0,-1.528 -1.33,-1.725 -1.824,-1.725c-1.131,0 -2.757,0.789 -2.757,3.2c0,2.462 2.169,4.284 5.221,4.284c5.071,0 10.143,-4.481 11.519,-10.043l4.728,-18.807" style="fill-rule:nonzero;"/><path d="M1313.39,263.201c-0,-3.249 -1.232,-5.169 -3.152,-5.169c-1.625,0 -2.608,1.23 -2.608,2.61c-0,1.327 0.983,2.608 2.608,2.608c0.591,0 1.233,-0.197 1.722,-0.64c0.148,-0.099 0.198,-0.148 0.247,-0.148c0.049,0 0.099,0.049 0.099,0.739c-0,3.644 -1.722,6.597 -3.348,8.223c-0.541,0.54 -0.541,0.638 -0.541,0.786c-0,0.345 0.245,0.542 0.492,0.542c0.541,0 4.481,-3.791 4.481,-9.551" style="fill-rule:nonzero;"/><path d="M1331.74,259.163c2.658,-2.855 4.087,-4.086 5.858,-5.611c0,-0.05 3.053,-2.659 4.825,-4.432c4.676,-4.578 5.761,-6.942 5.761,-7.139c-0,-0.491 -0.444,-0.491 -0.542,-0.491c-0.345,0 -0.493,0.099 -0.739,0.54c-1.476,2.365 -2.511,3.151 -3.691,3.151c-1.182,-0 -1.773,-0.737 -2.512,-1.575c-0.935,-1.133 -1.772,-2.116 -3.398,-2.116c-3.692,0 -5.956,4.577 -5.956,5.612c-0,0.246 0.148,0.542 0.59,0.542c0.445,-0 0.543,-0.246 0.642,-0.542c0.933,-2.264 3.79,-2.313 4.182,-2.313c1.035,-0 1.972,0.342 3.104,0.737c1.969,0.739 2.51,0.739 3.789,0.739c-1.771,2.118 -5.907,5.661 -6.843,6.449l-4.429,4.136c-3.348,3.299 -5.073,6.105 -5.073,6.45c0,0.492 0.492,0.492 0.591,0.492c0.395,0 0.492,-0.098 0.788,-0.64c1.134,-1.722 2.609,-3.052 4.186,-3.052c1.131,-0 1.624,0.443 2.855,1.869c0.838,1.035 1.722,1.823 3.15,1.823c4.874,0 7.731,-6.252 7.731,-7.582c-0,-0.247 -0.196,-0.493 -0.591,-0.493c-0.443,0 -0.542,0.296 -0.69,0.641c-1.132,3.2 -4.284,4.136 -5.907,4.136c-0.985,-0 -1.872,-0.296 -2.905,-0.641c-1.675,-0.64 -2.414,-0.837 -3.446,-0.837c-0.099,-0 -0.887,-0 -1.33,0.147" style="fill-rule:nonzero;"/><path d="M1364.37,250.943c-0,-3.841 -0.543,-9.798 -3.25,-15.363c-2.953,-6.055 -7.188,-9.255 -7.681,-9.255c-0.295,0 -0.492,0.197 -0.492,0.493c-0,0.147 -0,0.246 0.936,1.133c4.823,4.873 7.631,12.702 7.631,22.992c0,8.418 -1.823,17.084 -7.927,23.287c-0.64,0.589 -0.64,0.688 -0.64,0.835c-0,0.296 0.197,0.493 0.492,0.493c0.493,0 4.924,-3.348 7.829,-9.6c2.51,-5.415 3.102,-10.881 3.102,-15.015" style="fill-rule:nonzero;"/><path d="M1383.56,250.943c-0,-3.841 -0.543,-9.798 -3.25,-15.363c-2.953,-6.055 -7.188,-9.255 -7.681,-9.255c-0.295,0 -0.492,0.197 -0.492,0.493c-0,0.147 -0,0.246 0.936,1.133c4.823,4.873 7.631,12.702 7.631,22.992c0,8.418 -1.823,17.084 -7.927,23.287c-0.64,0.589 -0.64,0.688 -0.64,0.835c-0,0.296 0.197,0.493 0.492,0.493c0.493,0 4.924,-3.348 7.829,-9.6c2.51,-5.415 3.102,-10.881 3.102,-15.015" style="fill-rule:nonzero;"/><path d="M1407.1,260.543l0,3.249l7.239,-0.542l-0,-1.527c-3.447,0 -3.842,-0.343 -3.842,-2.757l0,-29.884l-7.09,0.542l0,1.527c3.447,-0 3.842,0.345 3.842,2.757l-0,10.634c-1.428,-1.773 -3.545,-3.052 -6.204,-3.052c-5.809,0 -10.98,4.824 -10.98,11.175c-0,6.252 4.827,11.127 10.438,11.127c3.151,0 5.368,-1.675 6.597,-3.249Zm0,-13.195l0,10.093c0,0.885 0,0.984 -0.541,1.821c-1.476,2.363 -3.692,3.446 -5.81,3.446c-2.215,0 -3.988,-1.278 -5.168,-3.15c-1.282,-2.018 -1.428,-4.824 -1.428,-6.844c-0,-1.821 0.097,-4.774 1.527,-6.991c1.032,-1.525 2.903,-3.151 5.561,-3.151c1.725,-0 3.792,0.739 5.318,2.954c0.541,0.837 0.541,0.936 0.541,1.822" style="fill-rule:nonzero;"/><path d="M1422.36,259.163c2.658,-2.855 4.087,-4.086 5.858,-5.611c-0,-0.05 3.053,-2.659 4.825,-4.432c4.676,-4.578 5.761,-6.942 5.761,-7.139c-0,-0.491 -0.445,-0.491 -0.542,-0.491c-0.345,0 -0.493,0.099 -0.739,0.54c-1.476,2.365 -2.511,3.151 -3.691,3.151c-1.182,-0 -1.773,-0.737 -2.512,-1.575c-0.935,-1.133 -1.772,-2.116 -3.398,-2.116c-3.692,0 -5.957,4.577 -5.957,5.612c0,0.246 0.148,0.542 0.591,0.542c0.444,-0 0.543,-0.246 0.642,-0.542c0.933,-2.264 3.79,-2.313 4.182,-2.313c1.035,-0 1.972,0.342 3.104,0.737c1.968,0.739 2.51,0.739 3.789,0.739c-1.771,2.118 -5.907,5.661 -6.843,6.449l-4.43,4.136c-3.347,3.299 -5.072,6.105 -5.072,6.45c0,0.492 0.492,0.492 0.591,0.492c0.395,0 0.492,-0.098 0.788,-0.64c1.134,-1.722 2.609,-3.052 4.185,-3.052c1.131,-0 1.625,0.443 2.856,1.869c0.838,1.035 1.722,1.823 3.15,1.823c4.874,0 7.731,-6.252 7.731,-7.582c-0,-0.247 -0.197,-0.493 -0.591,-0.493c-0.443,0 -0.542,0.296 -0.69,0.641c-1.132,3.2 -4.284,4.136 -5.907,4.136c-0.986,-0 -1.873,-0.296 -2.905,-0.641c-1.675,-0.64 -2.414,-0.837 -3.446,-0.837c-0.099,-0 -0.887,-0 -1.33,0.147" style="fill-rule:nonzero;"/><path d="M1451.69,307.319l-10.24,0l-0,2.708l12.948,-0l-0,-118.111l-12.948,0l-0,2.708l10.24,-0l0,112.695" style="fill-rule:nonzero;"/><path d="M1485.51,260.543l-0,3.249l7.238,-0.542l-0,-1.527c-3.447,0 -3.841,-0.343 -3.841,-2.757l-0,-29.884l-7.09,0.542l-0,1.527c3.446,-0 3.841,0.345 3.841,2.757l-0,10.634c-1.427,-1.773 -3.545,-3.052 -6.203,-3.052c-5.81,0 -10.981,4.824 -10.981,11.175c0,6.252 4.827,11.127 10.438,11.127c3.151,0 5.368,-1.675 6.598,-3.249Zm-0,-13.195l-0,10.093c-0,0.885 -0,0.984 -0.542,1.821c-1.476,2.363 -3.692,3.446 -5.81,3.446c-2.215,0 -3.987,-1.278 -5.168,-3.15c-1.281,-2.018 -1.428,-4.824 -1.428,-6.844c-0,-1.821 0.097,-4.774 1.527,-6.991c1.032,-1.525 2.904,-3.151 5.562,-3.151c1.724,-0 3.791,0.739 5.317,2.954c0.542,0.837 0.542,0.936 0.542,1.822" style="fill-rule:nonzero;"/><path d="M1510.53,248.383c0.296,-1.281 1.43,-5.811 4.876,-5.811c0.244,-0 1.426,-0 2.461,0.64c-1.379,0.247 -2.363,1.478 -2.363,2.658c-0,0.789 0.54,1.725 1.871,1.725c1.083,-0 2.658,-0.887 2.658,-2.855c-0,-2.562 -2.905,-3.25 -4.577,-3.25c-2.859,0 -4.58,2.609 -5.171,3.74c-1.233,-3.249 -3.891,-3.74 -5.316,-3.74c-5.122,0 -7.928,6.351 -7.928,7.58c-0,0.493 0.492,0.493 0.591,0.493c0.393,0 0.541,-0.098 0.64,-0.542c1.672,-5.217 4.923,-6.449 6.598,-6.449c0.933,-0 2.658,0.443 2.658,3.298c-0,1.528 -0.838,4.826 -2.658,11.719c-0.788,3.053 -2.513,5.119 -4.679,5.119c-0.295,0 -1.426,0 -2.461,-0.64c1.231,-0.246 2.313,-1.279 2.313,-2.658c0,-1.328 -1.082,-1.722 -1.82,-1.722c-1.478,-0 -2.708,1.278 -2.708,2.855c0,2.264 2.462,3.249 4.627,3.249c3.25,0 5.023,-3.446 5.171,-3.742c0.589,1.821 2.363,3.742 5.316,3.742c5.071,0 7.878,-6.351 7.878,-7.582c0,-0.493 -0.443,-0.493 -0.591,-0.493c-0.444,0 -0.541,0.197 -0.64,0.542c-1.626,5.269 -4.973,6.449 -6.548,6.449c-1.92,0 -2.708,-1.574 -2.708,-3.249c0,-1.084 0.296,-2.165 0.838,-4.333l1.672,-6.743" style="fill-rule:nonzero;"/></g><path d="M434.247,269.369c0,0 0.001,0 0.001,0c-0,0 -0.001,0 -0,0c-0.001,0 -0,0 -0,0c-0.001,0 -0.001,0 -0.001,0c0,0 0,0 0,0c0.001,0 0,0 0,0c0,0 0,0 0,0c0.001,0 0,0 0.001,0c-0.001,0 -0.001,0 -0.001,0c0,0 0,0 0.001,0c-0,0 -0.001,0 -0.001,0c0,0 0,0 0,0c0.001,0 0.001,0 0.001,0c-0.001,0 -0.001,0 -0,0c-0,0 -0.001,0 -0.001,0c0,0 0.001,0 0,0c0,0 0,0 0,0c0.001,0 0,0 0.001,0c-0,0 -0,0 -0.001,0c0,0 0.001,0 0.001,0c-0.001,0 -0,0 -0,0c-0,0 -0,0 -0.001,0c0.001,0 0,0 0.001,0c-0.001,0 -0.001,0 -0,0c-0,0 -0,0 -0,0c-0,0 -0.001,0 -0,0c-0.001,0 -0.001,0 -0.001,0c0.001,0 0,0 0.001,0c-0,0 -0.001,0 -0.001,0c0.001,0 0,0 0,0c0.001,0 0,0 0.001,0c-0,0 -0.001,0 -0,0c-0.001,0 -0,0 -0,0c-0.001,0 -0.001,0 -0.001,0c0,0 0.001,0 0.001,0c-0.001,0 -0.001,0 -0,0c-0,0 -0,0 -0.001,0c0.001,0 0,0 0.001,0c-0,0 -0,0 -0.001,0c0.001,0 0,0 0,0c0.001,0 0.001,0 0,0c0.001,0 0.001,0 0,0c0.001,0 0.001,0 0,0c0.001,0 0.001,0 0.001,0c-0,0 -0.001,0 -0,0c-0.001,0 -0.001,0 -0.001,0c0.001,0 0,0 0,0c0,0 0.001,0 0,0c0,0 0,0 0.001,0c-0.001,0 -0.001,0 -0,0c-0.001,0 -0,0 -0.001,0c0,0 0.001,0 0.001,0c-0.001,0 -0.001,0 -0,0c-0,0 -0.001,0 -0,0c-0,0 -0.001,0 -0.001,0c0.001,0 0.001,0 0,0c0,0 0,0 0,0c0.001,0 0.001,0 0,0c0.001,0 0,0 0,0c0,0 0,0 0,0c0,0 0.001,0 0,0c0,0 0,0 0,0c0.001,0 0,0 0,0c0,0 0,0 0,0c0.001,0 0.001,0 0,0c0,0 0.001,0 0.001,0c-0,0 -0.001,0 -0,0c-0,0 -0,0 -0.001,0c0,0 0,0 0.001,0c-0.001,0 -0,0 -0,0c-0.001,0 -0.001,0 -0.001,0c0,0 0.001,0 0,0c0.001,0 0.001,0 0,0c0,0 0.001,0 0,0c0.001,0 0,0 0,0c0.001,0 0,0 0,0c0,0 0,0 0,0c0,0 0,0 0.001,0c-0.001,0 -0,0 -0.001,0c0,0 0.001,0 0.001,0c-0.001,0 -0.001,0 -0.001,0c0,0 0,0 0,0c0.001,0 0.001,0 0,0c0.001,0 0,0 0,0c0.001,0 0.001,0 0,0c0.001,0 0.001,0 0.001,0c-0,0 -0.001,0 -0.001,0Z" style="fill:none;fill-rule:nonzero;stroke:#000;stroke-opacity:0;stroke-width:0.42px;stroke-linecap:butt;stroke-linejoin:miter;stroke-miterlimit:10;"/><path d="M442.078,247.943c0.22,-0.768 0.22,-0.877 0.22,-1.261c-0,-0.986 -0.768,-1.479 -1.59,-1.479c-0.548,-0 -1.422,0.328 -1.915,1.15c-0.11,0.274 -0.548,1.973 -0.767,2.957c-0.384,1.425 -0.768,2.905 -1.097,4.382l-2.463,9.857c-0.219,0.822 -2.574,4.656 -6.188,4.656c-2.795,0 -3.398,-2.409 -3.398,-4.436c0,-2.519 0.932,-5.914 2.795,-10.735c0.874,-2.244 1.094,-2.847 1.094,-3.943c-0,-2.464 -1.752,-4.489 -4.489,-4.489c-5.204,0 -7.229,7.939 -7.229,8.432c-0,0.548 0.545,0.548 0.655,0.548c0.548,0 0.603,-0.109 0.877,-0.986c1.479,-5.147 3.669,-6.791 5.532,-6.791c0.439,0 1.368,0 1.368,1.754c-0,1.368 -0.548,2.793 -0.929,3.834c-2.192,5.804 -3.179,8.925 -3.179,11.501c0,4.873 3.45,6.517 6.684,6.517c2.135,-0 3.995,-0.932 5.53,-2.464c-0.713,2.847 -1.37,5.53 -3.56,8.432c-1.425,1.864 -3.505,3.451 -6.023,3.451c-0.768,-0 -3.231,-0.165 -4.163,-2.3c0.877,0 1.587,0 2.354,-0.657c0.548,-0.494 1.096,-1.206 1.096,-2.245c0,-1.699 -1.479,-1.918 -2.027,-1.918c-1.258,0 -3.067,0.877 -3.067,3.56c0,2.738 2.411,4.765 5.807,4.765c5.64,0 11.282,-4.984 12.814,-11.172l5.258,-20.92" style="fill-rule:nonzero;"/><g><path d="M383.232,33.395c-0,0 -0,0 -0,0c-0,0 -0,0 -0,0c-0,0 -0,0 -0,0c-0,0 -0,0 -0,0c-0,0 -0,0 -0,0c-0,0 -0,0 -0,0c-0,0 -0,0 -0,0c-0,0 -0,0 -0,0c-0,0 -0,0 -0,0c-0,0 -0,0 -0,0c-0,0 -0,0 -0,0c-0,0 -0,0 -0,0c-0,0 -0,0 -0,0c-0,0 -0,0 -0,0c-0,0 -0,0 -0,0c-0,0 -0,0 -0,0c-0,0 -0,0 -0,0c-0,0 -0,0 -0,0c-0,0 -0,0 -0,0c-0,0 -0,0 -0,0c-0,0 -0,0 -0,0c-0,0 -0,0 -0,0c-0,0 -0,0 -0,0c-0,0 -0,0 -0,0c-0,0 -0,0 -0,0c-0,0 -0,0 -0,0c-0,0 -0,0 -0,0c-0,0 -0,0 -0,0c-0,0 -0,0 -0,0c-0,0 -0,0 -0,0c-0,0 -0,0 -0,0c-0,0 -0,0 -0,0c-0,0 -0,0 -0,0c-0,0 -0,0 -0,0c-0,0 -0,0 -0,0c-0,0 -0,0 -0,0c-0,0 -0,0 -0,0c-0,0 -0,0 -0,0c-0,0 -0,0 -0,0c-0,0 -0,0 -0,0c-0,0 -0,0 -0,0c-0,0 -0,0 -0,0c-0,0 -0,0 -0,0c-0,0 -0,0 -0,0c-0,0 -0,0 -0,0c-0,0 -0,0 -0,0c-0,0 -0,0 -0,0c-0,0 -0,0 -0,0c-0,0 -0,0 -0,0c-0,0 -0,0 -0,0c-0,0 -0,0 -0,0c-0,0 -0,0 -0,0c-0,0 -0,0 -0,0c-0,0 -0,0 -0,0c-0,0 -0,0 -0,0c-0,0 -0,0 -0,0c-0,0 -0,0 -0,0c-0,0 -0,0 -0,0c-0,0 -0,0 -0,0c-0,0 -0,0 -0,0c-0,0 -0,0 -0,0c-0,0 -0,0 -0,0c-0,0 -0,0 -0,0c-0,0 -0,0 -0,0c-0,0 -0,0 -0,0c-0,0 -0,0 -0,0c-0,0 -0,0 -0,0c-0,0 -0,0 -0,0c-0,0 -0,0 -0,0c-0,0 -0,0 -0,0c-0,0 -0,0 -0,0c-0,0 -0,0 -0,0c-0,0 -0,0 -0,0c-0,0 -0,0 -0,0c-0,0 -0,0 -0,0c-0,0 -0,0 -0,0c-0,0 -0,0 -0,0c-0,0 -0,0 -0,0c-0,0 -0,0 -0,0c-0,0 -0,0 -0,0c-0,0 -0,0 -0,0c-0,0 -0,0 -0,0c-0,0 -0,0 -0,0c-0,0 -0,0 -0,0c-0,0 -0,0 -0,0c-0,0 -0,0 -0,0c-0,0 -0,0 -0,0l-0,0Z" style="fill:none;fill-rule:nonzero;stroke:#000;stroke-opacity:0;stroke-width:0.42px;stroke-linecap:butt;stroke-linejoin:miter;stroke-miterlimit:10;"/><path d="M360.586,22.254c0,-0.237 -0.177,-0.589 -0.591,-0.589c-0.647,0 -3.011,2.361 -4.015,4.075c-1.298,-3.191 -3.603,-4.134 -5.491,-4.134c-6.968,0 -14.234,8.738 -14.234,17.302c0,5.788 3.487,9.45 7.795,9.45c2.541,-0 4.843,-1.419 6.971,-3.543c-0.532,2.065 -2.482,10.038 -2.659,10.57c-0.473,1.654 -0.943,1.891 -4.253,1.95c-0.765,-0 -1.356,-0 -1.356,1.179c-0,0.059 -0,0.65 0.768,0.65c1.889,0 3.957,-0.177 5.904,-0.177c2.01,-0 4.134,0.177 6.084,0.177c0.293,0 1.061,0 1.061,-1.182c0,-0.647 -0.59,-0.647 -1.533,-0.647c-2.837,-0 -2.837,-0.414 -2.837,-0.946c0,-0.413 0.118,-0.768 0.237,-1.3l8.149,-32.835Zm-16.358,24.804c-3.543,-0 -3.78,-4.548 -3.78,-5.55c0,-2.837 1.714,-9.273 2.719,-11.752c1.829,-4.37 4.899,-6.852 7.322,-6.852c3.839,-0 4.666,4.784 4.666,5.197c-0,0.355 -3.25,13.289 -3.428,13.525c-0.883,1.652 -4.19,5.432 -7.499,5.432" style="fill-rule:nonzero;"/><path d="M381.888,61.88c0,-0.177 0,-0.296 -1.004,-1.298c-7.382,-7.44 -9.27,-18.604 -9.27,-27.637c-0,-10.278 2.243,-20.552 9.506,-27.934c0.768,-0.709 0.768,-0.827 0.768,-1.005c0,-0.413 -0.236,-0.59 -0.591,-0.59c-0.59,-0 -5.904,4.015 -9.388,11.515c-3.014,6.498 -3.72,13.052 -3.72,18.014c-0,4.606 0.647,11.751 3.898,18.424c3.543,7.263 8.62,11.102 9.21,11.102c0.355,-0 0.591,-0.177 0.591,-0.591" style="fill-rule:nonzero;"/><path d="M393.052,42.805c3.188,-3.425 4.902,-4.902 7.027,-6.731c-0,-0.059 3.661,-3.189 5.789,-5.316c5.608,-5.491 6.908,-8.327 6.908,-8.563c0,-0.589 -0.532,-0.589 -0.65,-0.589c-0.413,0 -0.591,0.118 -0.886,0.648c-1.77,2.836 -3.011,3.779 -4.427,3.779c-1.418,-0 -2.127,-0.884 -3.014,-1.888c-1.12,-1.36 -2.125,-2.539 -4.075,-2.539c-4.429,0 -7.145,5.491 -7.145,6.732c0,0.295 0.177,0.65 0.709,0.65c0.532,-0 0.65,-0.296 0.768,-0.65c1.121,-2.716 4.548,-2.775 5.018,-2.775c1.241,-0 2.364,0.411 3.723,0.884c2.361,0.886 3.011,0.886 4.545,0.886c-2.125,2.541 -7.086,6.791 -8.209,7.736l-5.313,4.962c-4.016,3.956 -6.084,7.322 -6.084,7.736c0,0.591 0.591,0.591 0.709,0.591c0.473,-0 0.591,-0.119 0.946,-0.769c1.359,-2.065 3.129,-3.661 5.02,-3.661c1.357,0 1.948,0.532 3.425,2.243c1.005,1.241 2.066,2.187 3.779,2.187c5.846,-0 9.273,-7.5 9.273,-9.096c-0,-0.295 -0.236,-0.591 -0.709,-0.591c-0.532,0 -0.65,0.355 -0.827,0.769c-1.36,3.838 -5.139,4.961 -7.087,4.961c-1.182,0 -2.245,-0.355 -3.484,-0.768c-2.009,-0.768 -2.895,-1.005 -4.134,-1.005c-0.118,0 -1.063,0 -1.595,0.177" style="fill-rule:nonzero;"/><path d="M432.357,32.945c-0,-4.607 -0.65,-11.752 -3.898,-18.428c-3.543,-7.263 -8.622,-11.101 -9.213,-11.101c-0.355,-0 -0.591,0.236 -0.591,0.59c-0,0.178 -0,0.296 1.123,1.36c5.786,5.845 9.154,15.236 9.154,27.579c0,10.097 -2.186,20.492 -9.509,27.933c-0.768,0.706 -0.768,0.825 -0.768,1.002c-0,0.354 0.236,0.591 0.591,0.591c0.591,-0 5.907,-4.016 9.391,-11.516c3.011,-6.495 3.72,-13.052 3.72,-18.01" style="fill-rule:nonzero;"/></g></svg>