<?xml version="1.0" encoding="UTF-8"?>
<svg xmlns="http://www.w3.org/2000/svg"
     xmlns:xlink="http://www.w3.org/1999/xlink"
     version="1.2"
     width="100mm" height="100mm" viewBox="0 0 100 100"
     stroke="none"
     fill="#000000"
     stroke-width="0.3"
     font-size="3.88"
>
<defs>
  <marker id="arrow" markerWidth="15" markerHeight="7" refX="5" refY="3.5" orient="auto" markerUnits="strokeWidth">
    <path d="M0,0 L15,3.5 L0,7 z" stroke="context-stroke" fill="context-stroke"/>
  </marker>
</defs>
<g fill="#000000" fill-opacity="0.000" id="img-31f5d39b-1">
  <g transform="translate(50,50)">
    <path d="M-50,-50 L50,-50 50,50 -50,50  z" class="primitive"/>
  </g>
</g>
<g stroke-width="0.6" stroke="#D3D3D3" id="img-31f5d39b-2">
</g>
<g stroke-width="0.6" stroke="#D3D3D3" id="img-31f5d39b-3">
  <g transform="translate(18.9,26.78)">
    <path fill="none" d="M2.55,0.89 L-2.55,-0.89 " class="primitive"/>
  </g>
  <g transform="translate(25.27,22.85)">
    <path fill="none" d="M-1.19,3.53 L1.19,-3.53 " class="primitive"/>
  </g>
  <g transform="translate(26.68,34.31)">
    <path fill="none" d="M-2.27,-4.14 L2.27,4.14 " class="primitive"/>
  </g>
  <g transform="translate(11.36,26.1)">
    <path fill="none" d="M-1.03,0.3 L1.03,-0.3 " class="primitive"/>
  </g>
  <g transform="translate(11.87,22.24)">
    <path fill="none" d="M-1.17,-1.37 L1.17,1.37 " class="primitive"/>
  </g>
  <g transform="translate(30.5,16.59)">
    <path fill="none" d="M1.35,-0.3 L-1.35,0.3 " class="primitive"/>
  </g>
  <g transform="translate(26.28,12.84)">
    <path fill="none" d="M-0.46,-2.46 L0.46,2.46 " class="primitive"/>
  </g>
  <g transform="translate(33.31,46.15)">
    <path fill="none" d="M2.33,4.07 L-2.33,-4.07 " class="primitive"/>
  </g>
  <g transform="translate(40.47,57.35)">
    <path fill="none" d="M-2.58,-3.62 L2.58,3.62 " class="primitive"/>
  </g>
  <g transform="translate(31.74,38.57)">
    <path fill="none" d="M0.28,-0.27 L-0.28,0.27 " class="primitive"/>
  </g>
  <g transform="translate(49.02,66.16)">
    <path fill="none" d="M3.08,2.26 L-3.08,-2.26 " class="primitive"/>
  </g>
  <g transform="translate(53.34,75.8)">
    <path fill="none" d="M0.29,-4.08 L-0.29,4.08 " class="primitive"/>
  </g>
  <g transform="translate(58.96,67.97)">
    <path fill="none" d="M-3.19,1.04 L3.19,-1.04 " class="primitive"/>
  </g>
  <g transform="translate(42.29,65.66)">
    <path fill="none" d="M-0.83,1.25 L0.83,-1.25 " class="primitive"/>
  </g>
  <g transform="translate(54.76,82.7)">
    <path fill="none" d="M-0.07,-0.03 L0.07,0.03 " class="primitive"/>
  </g>
  <g transform="translate(52.25,86.81)">
    <path fill="none" d="M-0.37,2.79 L0.37,-2.79 " class="primitive"/>
  </g>
  <g transform="translate(68.24,62.35)">
    <path fill="none" d="M2.6,-2.5 L-2.6,2.5 " class="primitive"/>
  </g>
  <g transform="translate(75.99,54.1)">
    <path fill="none" d="M-2.3,2.72 L2.3,-2.72 " class="primitive"/>
  </g>
  <g transform="translate(66.11,69.39)">
    <path fill="none" d="M0.86,1.34 L-0.86,-1.34 " class="primitive"/>
  </g>
  <g transform="translate(81.22,43.9)">
    <path fill="none" d="M1.04,-3.88 L-1.04,3.88 " class="primitive"/>
  </g>
  <g transform="translate(84.96,32.81)">
    <path fill="none" d="M-1.36,3.28 L1.36,-3.28 " class="primitive"/>
  </g>
  <g transform="translate(82.39,51.28)">
    <path fill="none" d="M0.92,0.5 L-0.92,-0.5 " class="primitive"/>
  </g>
  <g transform="translate(89.39,25.79)">
    <path fill="none" d="M0.65,-0.52 L-0.65,0.52 " class="primitive"/>
  </g>
  <g transform="translate(88.07,23.21)">
    <path fill="none" d="M0.51,-2.36 L-0.51,2.36 " class="primitive"/>
  </g>
</g>
<g fill="#D3D3D3" id="img-31f5d39b-4">
</g>
<g fill="#D3D3D3" id="img-31f5d39b-5">
</g>
<g font-size="4" fill="#000000" id="img-31f5d39b-6">
</g>
<g stroke-width="0" stroke="#000000" stroke-opacity="0.000" fill="#40E0D0" id="img-31f5d39b-7">
  <g transform="translate(23.41,28.35)">
    <circle cx="0" cy="0" r="2" class="primitive"/>
  </g>
  <g transform="translate(8.33,27)">
    <circle cx="0" cy="0" r="2" class="primitive"/>
  </g>
  <g transform="translate(9.35,19.28)">
    <circle cx="0" cy="0" r="2" class="primitive"/>
  </g>
  <g transform="translate(14.38,25.21)">
    <circle cx="0" cy="0" r="2" class="primitive"/>
  </g>
  <g transform="translate(33.88,15.83)">
    <circle cx="0" cy="0" r="2" class="primitive"/>
  </g>
  <g transform="translate(25.45,8.33)">
    <circle cx="0" cy="0" r="2" class="primitive"/>
  </g>
  <g transform="translate(27.12,17.35)">
    <circle cx="0" cy="0" r="2" class="primitive"/>
  </g>
  <g transform="translate(36.67,52.03)">
    <circle cx="0" cy="0" r="2" class="primitive"/>
  </g>
  <g transform="translate(33.53,36.85)">
    <circle cx="0" cy="0" r="2" class="primitive"/>
  </g>
  <g transform="translate(29.95,40.28)">
    <circle cx="0" cy="0" r="2" class="primitive"/>
  </g>
  <g transform="translate(53.78,69.65)">
    <circle cx="0" cy="0" r="2" class="primitive"/>
  </g>
  <g transform="translate(40.31,68.65)">
    <circle cx="0" cy="0" r="2" class="primitive"/>
  </g>
  <g transform="translate(44.26,62.66)">
    <circle cx="0" cy="0" r="2" class="primitive"/>
  </g>
  <g transform="translate(56.63,83.43)">
    <circle cx="0" cy="0" r="2" class="primitive"/>
  </g>
  <g transform="translate(51.61,91.67)">
    <circle cx="0" cy="0" r="2" class="primitive"/>
  </g>
  <g transform="translate(52.89,81.96)">
    <circle cx="0" cy="0" r="2" class="primitive"/>
  </g>
  <g transform="translate(72.34,58.41)">
    <circle cx="0" cy="0" r="2" class="primitive"/>
  </g>
  <g transform="translate(68.08,72.49)">
    <circle cx="0" cy="0" r="2" class="primitive"/>
  </g>
  <g transform="translate(64.13,66.29)">
    <circle cx="0" cy="0" r="2" class="primitive"/>
  </g>
  <g transform="translate(82.8,38.01)">
    <circle cx="0" cy="0" r="2" class="primitive"/>
  </g>
  <g transform="translate(85.15,52.77)">
    <circle cx="0" cy="0" r="2" class="primitive"/>
  </g>
  <g transform="translate(79.64,49.79)">
    <circle cx="0" cy="0" r="2" class="primitive"/>
  </g>
  <g transform="translate(91.67,23.97)">
    <circle cx="0" cy="0" r="2" class="primitive"/>
  </g>
  <g transform="translate(89.01,18.81)">
    <circle cx="0" cy="0" r="2" class="primitive"/>
  </g>
  <g transform="translate(87.12,27.6)">
    <circle cx="0" cy="0" r="2" class="primitive"/>
  </g>
</g>
<g font-family="Helvetica" font-size="4" fill="#000000" id="img-31f5d39b-8">
  <g transform="translate(23.41,28.35)">
    <g class="primitive">
      <text text-anchor="middle" dy="0.35em">x</text>
    </g>
  </g>
  <g transform="translate(8.33,27)">
    <g class="primitive">
      <text text-anchor="middle" dy="0.35em">constvar</text>
    </g>
  </g>
  <g transform="translate(9.35,19.28)">
    <g class="primitive">
      <text text-anchor="middle" dy="0.35em">constvar</text>
    </g>
  </g>
  <g transform="translate(14.38,25.21)">
    <g class="primitive">
      <text text-anchor="middle" dy="0.35em">NormalMeanVariance</text>
    </g>
  </g>
  <g transform="translate(33.88,15.83)">
    <g class="primitive">
      <text text-anchor="middle" dy="0.35em">y</text>
    </g>
  </g>
  <g transform="translate(25.45,8.33)">
    <g class="primitive">
      <text text-anchor="middle" dy="0.35em">constvar</text>
    </g>
  </g>
  <g transform="translate(27.12,17.35)">
    <g class="primitive">
      <text text-anchor="middle" dy="0.35em">NormalMeanVariance</text>
    </g>
  </g>
  <g transform="translate(36.67,52.03)">
    <g class="primitive">
      <text text-anchor="middle" dy="0.35em">anonymous_var_graphppl</text>
    </g>
  </g>
  <g transform="translate(33.53,36.85)">
    <g class="primitive">
      <text text-anchor="middle" dy="0.35em">constvar</text>
    </g>
  </g>
  <g transform="translate(29.95,40.28)">
    <g class="primitive">
      <text text-anchor="middle" dy="0.35em">+</text>
    </g>
  </g>
  <g transform="translate(53.78,69.65)">
    <g class="primitive">
      <text text-anchor="middle" dy="0.35em">x</text>
    </g>
  </g>
  <g transform="translate(40.31,68.65)">
    <g class="primitive">
      <text text-anchor="middle" dy="0.35em">constvar</text>
    </g>
  </g>
  <g transform="translate(44.26,62.66)">
    <g class="primitive">
      <text text-anchor="middle" dy="0.35em">NormalMeanVariance</text>
    </g>
  </g>
  <g transform="translate(56.63,83.43)">
    <g class="primitive">
      <text text-anchor="middle" dy="0.35em">y</text>
    </g>
  </g>
  <g transform="translate(51.61,91.67)">
    <g class="primitive">
      <text text-anchor="middle" dy="0.35em">constvar</text>
    </g>
  </g>
  <g transform="translate(52.89,81.96)">
    <g class="primitive">
      <text text-anchor="middle" dy="0.35em">NormalMeanVariance</text>
    </g>
  </g>
  <g transform="translate(72.34,58.41)">
    <g class="primitive">
      <text text-anchor="middle" dy="0.35em">anonymous_var_graphppl</text>
    </g>
  </g>
  <g transform="translate(68.08,72.49)">
    <g class="primitive">
      <text text-anchor="middle" dy="0.35em">constvar</text>
    </g>
  </g>
  <g transform="translate(64.13,66.29)">
    <g class="primitive">
      <text text-anchor="middle" dy="0.35em">+</text>
    </g>
  </g>
  <g transform="translate(82.8,38.01)">
    <g class="primitive">
      <text text-anchor="middle" dy="0.35em">x</text>
    </g>
  </g>
  <g transform="translate(85.15,52.77)">
    <g class="primitive">
      <text text-anchor="middle" dy="0.35em">constvar</text>
    </g>
  </g>
  <g transform="translate(79.64,49.79)">
    <g class="primitive">
      <text text-anchor="middle" dy="0.35em">NormalMeanVariance</text>
    </g>
  </g>
  <g transform="translate(91.67,23.97)">
    <g class="primitive">
      <text text-anchor="middle" dy="0.35em">y</text>
    </g>
  </g>
  <g transform="translate(89.01,18.81)">
    <g class="primitive">
      <text text-anchor="middle" dy="0.35em">constvar</text>
    </g>
  </g>
  <g transform="translate(87.12,27.6)">
    <g class="primitive">
      <text text-anchor="middle" dy="0.35em">NormalMeanVariance</text>
    </g>
  </g>
</g>
<g font-family="Helvetica" font-size="4" fill="#000000" id="img-31f5d39b-9">
  <g transform="translate(50,0)">
    <g class="primitive">
      <text text-anchor="middle" dy="0.35em"></text>
    </g>
  </g>
</g>
</svg>
