<?xml version="1.0" encoding="utf-8"?>
<svg xmlns="http://www.w3.org/2000/svg" xmlns:xlink="http://www.w3.org/1999/xlink" width="600" height="400" viewBox="0 0 2400 1600">
<defs>
  <clipPath id="clip990">
    <rect x="0" y="0" width="2400" height="1600"/>
  </clipPath>
</defs>
<path clip-path="url(#clip990)" d="M0 1600 L2400 1600 L2400 0 L0 0  Z" fill="#ffffff" fill-rule="evenodd" fill-opacity="1"/>
<defs>
  <clipPath id="clip991">
    <rect x="480" y="0" width="1681" height="1600"/>
  </clipPath>
</defs>
<path clip-path="url(#clip990)" d="M140.696 1486.45 L2352.76 1486.45 L2352.76 123.472 L140.696 123.472  Z" fill="#ffffff" fill-rule="evenodd" fill-opacity="1"/>
<defs>
  <clipPath id="clip992">
    <rect x="140" y="123" width="2213" height="1364"/>
  </clipPath>
</defs>
<polyline clip-path="url(#clip992)" style="stroke:#000000; stroke-linecap:round; stroke-linejoin:round; stroke-width:2; stroke-opacity:0.1; fill:none" points="203.301,1486.45 203.301,123.472 "/>
<polyline clip-path="url(#clip992)" style="stroke:#000000; stroke-linecap:round; stroke-linejoin:round; stroke-width:2; stroke-opacity:0.1; fill:none" points="725.013,1486.45 725.013,123.472 "/>
<polyline clip-path="url(#clip992)" style="stroke:#000000; stroke-linecap:round; stroke-linejoin:round; stroke-width:2; stroke-opacity:0.1; fill:none" points="1246.73,1486.45 1246.73,123.472 "/>
<polyline clip-path="url(#clip992)" style="stroke:#000000; stroke-linecap:round; stroke-linejoin:round; stroke-width:2; stroke-opacity:0.1; fill:none" points="1768.44,1486.45 1768.44,123.472 "/>
<polyline clip-path="url(#clip992)" style="stroke:#000000; stroke-linecap:round; stroke-linejoin:round; stroke-width:2; stroke-opacity:0.1; fill:none" points="2290.15,1486.45 2290.15,123.472 "/>
<polyline clip-path="url(#clip992)" style="stroke:#000000; stroke-linecap:round; stroke-linejoin:round; stroke-width:2; stroke-opacity:0.1; fill:none" points="140.696,1447.87 2352.76,1447.87 "/>
<polyline clip-path="url(#clip992)" style="stroke:#000000; stroke-linecap:round; stroke-linejoin:round; stroke-width:2; stroke-opacity:0.1; fill:none" points="140.696,1134.1 2352.76,1134.1 "/>
<polyline clip-path="url(#clip992)" style="stroke:#000000; stroke-linecap:round; stroke-linejoin:round; stroke-width:2; stroke-opacity:0.1; fill:none" points="140.696,820.333 2352.76,820.333 "/>
<polyline clip-path="url(#clip992)" style="stroke:#000000; stroke-linecap:round; stroke-linejoin:round; stroke-width:2; stroke-opacity:0.1; fill:none" points="140.696,506.563 2352.76,506.563 "/>
<polyline clip-path="url(#clip992)" style="stroke:#000000; stroke-linecap:round; stroke-linejoin:round; stroke-width:2; stroke-opacity:0.1; fill:none" points="140.696,192.793 2352.76,192.793 "/>
<polyline clip-path="url(#clip990)" style="stroke:#000000; stroke-linecap:round; stroke-linejoin:round; stroke-width:4; stroke-opacity:1; fill:none" points="140.696,1486.45 2352.76,1486.45 "/>
<polyline clip-path="url(#clip990)" style="stroke:#000000; stroke-linecap:round; stroke-linejoin:round; stroke-width:4; stroke-opacity:1; fill:none" points="203.301,1486.45 203.301,1467.55 "/>
<polyline clip-path="url(#clip990)" style="stroke:#000000; stroke-linecap:round; stroke-linejoin:round; stroke-width:4; stroke-opacity:1; fill:none" points="725.013,1486.45 725.013,1467.55 "/>
<polyline clip-path="url(#clip990)" style="stroke:#000000; stroke-linecap:round; stroke-linejoin:round; stroke-width:4; stroke-opacity:1; fill:none" points="1246.73,1486.45 1246.73,1467.55 "/>
<polyline clip-path="url(#clip990)" style="stroke:#000000; stroke-linecap:round; stroke-linejoin:round; stroke-width:4; stroke-opacity:1; fill:none" points="1768.44,1486.45 1768.44,1467.55 "/>
<polyline clip-path="url(#clip990)" style="stroke:#000000; stroke-linecap:round; stroke-linejoin:round; stroke-width:4; stroke-opacity:1; fill:none" points="2290.15,1486.45 2290.15,1467.55 "/>
<path clip-path="url(#clip990)" d="M165.604 1517.37 Q161.993 1517.37 160.165 1520.93 Q158.359 1524.47 158.359 1531.6 Q158.359 1538.71 160.165 1542.27 Q161.993 1545.82 165.604 1545.82 Q169.239 1545.82 171.044 1542.27 Q172.873 1538.71 172.873 1531.6 Q172.873 1524.47 171.044 1520.93 Q169.239 1517.37 165.604 1517.37 M165.604 1513.66 Q171.415 1513.66 174.47 1518.27 Q177.549 1522.85 177.549 1531.6 Q177.549 1540.33 174.47 1544.94 Q171.415 1549.52 165.604 1549.52 Q159.794 1549.52 156.716 1544.94 Q153.66 1540.33 153.66 1531.6 Q153.66 1522.85 156.716 1518.27 Q159.794 1513.66 165.604 1513.66 Z" fill="#000000" fill-rule="nonzero" fill-opacity="1" /><path clip-path="url(#clip990)" d="M185.766 1542.97 L190.651 1542.97 L190.651 1548.85 L185.766 1548.85 L185.766 1542.97 Z" fill="#000000" fill-rule="nonzero" fill-opacity="1" /><path clip-path="url(#clip990)" d="M210.836 1517.37 Q207.225 1517.37 205.396 1520.93 Q203.59 1524.47 203.59 1531.6 Q203.59 1538.71 205.396 1542.27 Q207.225 1545.82 210.836 1545.82 Q214.47 1545.82 216.275 1542.27 Q218.104 1538.71 218.104 1531.6 Q218.104 1524.47 216.275 1520.93 Q214.47 1517.37 210.836 1517.37 M210.836 1513.66 Q216.646 1513.66 219.701 1518.27 Q222.78 1522.85 222.78 1531.6 Q222.78 1540.33 219.701 1544.94 Q216.646 1549.52 210.836 1549.52 Q205.026 1549.52 201.947 1544.94 Q198.891 1540.33 198.891 1531.6 Q198.891 1522.85 201.947 1518.27 Q205.026 1513.66 210.836 1513.66 Z" fill="#000000" fill-rule="nonzero" fill-opacity="1" /><path clip-path="url(#clip990)" d="M240.998 1517.37 Q237.386 1517.37 235.558 1520.93 Q233.752 1524.47 233.752 1531.6 Q233.752 1538.71 235.558 1542.27 Q237.386 1545.82 240.998 1545.82 Q244.632 1545.82 246.437 1542.27 Q248.266 1538.71 248.266 1531.6 Q248.266 1524.47 246.437 1520.93 Q244.632 1517.37 240.998 1517.37 M240.998 1513.66 Q246.808 1513.66 249.863 1518.27 Q252.942 1522.85 252.942 1531.6 Q252.942 1540.33 249.863 1544.94 Q246.808 1549.52 240.998 1549.52 Q235.187 1549.52 232.109 1544.94 Q229.053 1540.33 229.053 1531.6 Q229.053 1522.85 232.109 1518.27 Q235.187 1513.66 240.998 1513.66 Z" fill="#000000" fill-rule="nonzero" fill-opacity="1" /><path clip-path="url(#clip990)" d="M687.814 1517.37 Q684.203 1517.37 682.375 1520.93 Q680.569 1524.47 680.569 1531.6 Q680.569 1538.71 682.375 1542.27 Q684.203 1545.82 687.814 1545.82 Q691.449 1545.82 693.254 1542.27 Q695.083 1538.71 695.083 1531.6 Q695.083 1524.47 693.254 1520.93 Q691.449 1517.37 687.814 1517.37 M687.814 1513.66 Q693.625 1513.66 696.68 1518.27 Q699.759 1522.85 699.759 1531.6 Q699.759 1540.33 696.68 1544.94 Q693.625 1549.52 687.814 1549.52 Q682.004 1549.52 678.926 1544.94 Q675.87 1540.33 675.87 1531.6 Q675.87 1522.85 678.926 1518.27 Q682.004 1513.66 687.814 1513.66 Z" fill="#000000" fill-rule="nonzero" fill-opacity="1" /><path clip-path="url(#clip990)" d="M707.976 1542.97 L712.861 1542.97 L712.861 1548.85 L707.976 1548.85 L707.976 1542.97 Z" fill="#000000" fill-rule="nonzero" fill-opacity="1" /><path clip-path="url(#clip990)" d="M727.074 1544.91 L743.393 1544.91 L743.393 1548.85 L721.449 1548.85 L721.449 1544.91 Q724.111 1542.16 728.694 1537.53 Q733.3 1532.88 734.481 1531.53 Q736.726 1529.01 737.606 1527.27 Q738.509 1525.51 738.509 1523.82 Q738.509 1521.07 736.564 1519.33 Q734.643 1517.6 731.541 1517.6 Q729.342 1517.6 726.888 1518.36 Q724.458 1519.13 721.68 1520.68 L721.68 1515.95 Q724.504 1514.82 726.958 1514.24 Q729.411 1513.66 731.449 1513.66 Q736.819 1513.66 740.013 1516.35 Q743.208 1519.03 743.208 1523.52 Q743.208 1525.65 742.398 1527.57 Q741.611 1529.47 739.504 1532.07 Q738.925 1532.74 735.824 1535.95 Q732.722 1539.15 727.074 1544.91 Z" fill="#000000" fill-rule="nonzero" fill-opacity="1" /><path clip-path="url(#clip990)" d="M753.254 1514.29 L771.61 1514.29 L771.61 1518.22 L757.536 1518.22 L757.536 1526.7 Q758.555 1526.35 759.573 1526.19 Q760.592 1526 761.61 1526 Q767.397 1526 770.777 1529.17 Q774.157 1532.34 774.157 1537.76 Q774.157 1543.34 770.684 1546.44 Q767.212 1549.52 760.893 1549.52 Q758.717 1549.52 756.448 1549.15 Q754.203 1548.78 751.796 1548.04 L751.796 1543.34 Q753.879 1544.47 756.101 1545.03 Q758.323 1545.58 760.8 1545.58 Q764.805 1545.58 767.143 1543.48 Q769.481 1541.37 769.481 1537.76 Q769.481 1534.15 767.143 1532.04 Q764.805 1529.94 760.8 1529.94 Q758.925 1529.94 757.05 1530.35 Q755.198 1530.77 753.254 1531.65 L753.254 1514.29 Z" fill="#000000" fill-rule="nonzero" fill-opacity="1" /><path clip-path="url(#clip990)" d="M1209.03 1517.37 Q1205.42 1517.37 1203.59 1520.93 Q1201.78 1524.47 1201.78 1531.6 Q1201.78 1538.71 1203.59 1542.27 Q1205.42 1545.82 1209.03 1545.82 Q1212.66 1545.82 1214.47 1542.27 Q1216.3 1538.71 1216.3 1531.6 Q1216.3 1524.47 1214.47 1520.93 Q1212.66 1517.37 1209.03 1517.37 M1209.03 1513.66 Q1214.84 1513.66 1217.89 1518.27 Q1220.97 1522.85 1220.97 1531.6 Q1220.97 1540.33 1217.89 1544.94 Q1214.84 1549.52 1209.03 1549.52 Q1203.22 1549.52 1200.14 1544.94 Q1197.08 1540.33 1197.08 1531.6 Q1197.08 1522.85 1200.14 1518.27 Q1203.22 1513.66 1209.03 1513.66 Z" fill="#000000" fill-rule="nonzero" fill-opacity="1" /><path clip-path="url(#clip990)" d="M1229.19 1542.97 L1234.08 1542.97 L1234.08 1548.85 L1229.19 1548.85 L1229.19 1542.97 Z" fill="#000000" fill-rule="nonzero" fill-opacity="1" /><path clip-path="url(#clip990)" d="M1244.31 1514.29 L1262.66 1514.29 L1262.66 1518.22 L1248.59 1518.22 L1248.59 1526.7 Q1249.61 1526.35 1250.63 1526.19 Q1251.64 1526 1252.66 1526 Q1258.45 1526 1261.83 1529.17 Q1265.21 1532.34 1265.21 1537.76 Q1265.21 1543.34 1261.74 1546.44 Q1258.27 1549.52 1251.95 1549.52 Q1249.77 1549.52 1247.5 1549.15 Q1245.26 1548.78 1242.85 1548.04 L1242.85 1543.34 Q1244.93 1544.47 1247.15 1545.03 Q1249.38 1545.58 1251.85 1545.58 Q1255.86 1545.58 1258.2 1543.48 Q1260.53 1541.37 1260.53 1537.76 Q1260.53 1534.15 1258.2 1532.04 Q1255.86 1529.94 1251.85 1529.94 Q1249.98 1529.94 1248.1 1530.35 Q1246.25 1530.77 1244.31 1531.65 L1244.31 1514.29 Z" fill="#000000" fill-rule="nonzero" fill-opacity="1" /><path clip-path="url(#clip990)" d="M1284.42 1517.37 Q1280.81 1517.37 1278.98 1520.93 Q1277.18 1524.47 1277.18 1531.6 Q1277.18 1538.71 1278.98 1542.27 Q1280.81 1545.82 1284.42 1545.82 Q1288.06 1545.82 1289.86 1542.27 Q1291.69 1538.71 1291.69 1531.6 Q1291.69 1524.47 1289.86 1520.93 Q1288.06 1517.37 1284.42 1517.37 M1284.42 1513.66 Q1290.23 1513.66 1293.29 1518.27 Q1296.37 1522.85 1296.37 1531.6 Q1296.37 1540.33 1293.29 1544.94 Q1290.23 1549.52 1284.42 1549.52 Q1278.61 1549.52 1275.53 1544.94 Q1272.48 1540.33 1272.48 1531.6 Q1272.48 1522.85 1275.53 1518.27 Q1278.61 1513.66 1284.42 1513.66 Z" fill="#000000" fill-rule="nonzero" fill-opacity="1" /><path clip-path="url(#clip990)" d="M1731.24 1517.37 Q1727.63 1517.37 1725.8 1520.93 Q1723.99 1524.47 1723.99 1531.6 Q1723.99 1538.71 1725.8 1542.27 Q1727.63 1545.82 1731.24 1545.82 Q1734.87 1545.82 1736.68 1542.27 Q1738.51 1538.71 1738.51 1531.6 Q1738.51 1524.47 1736.68 1520.93 Q1734.87 1517.37 1731.24 1517.37 M1731.24 1513.66 Q1737.05 1513.66 1740.1 1518.27 Q1743.18 1522.85 1743.18 1531.6 Q1743.18 1540.33 1740.1 1544.94 Q1737.05 1549.52 1731.24 1549.52 Q1725.43 1549.52 1722.35 1544.94 Q1719.29 1540.33 1719.29 1531.6 Q1719.29 1522.85 1722.35 1518.27 Q1725.43 1513.66 1731.24 1513.66 Z" fill="#000000" fill-rule="nonzero" fill-opacity="1" /><path clip-path="url(#clip990)" d="M1751.4 1542.97 L1756.29 1542.97 L1756.29 1548.85 L1751.4 1548.85 L1751.4 1542.97 Z" fill="#000000" fill-rule="nonzero" fill-opacity="1" /><path clip-path="url(#clip990)" d="M1765.29 1514.29 L1787.51 1514.29 L1787.51 1516.28 L1774.97 1548.85 L1770.08 1548.85 L1781.89 1518.22 L1765.29 1518.22 L1765.29 1514.29 Z" fill="#000000" fill-rule="nonzero" fill-opacity="1" /><path clip-path="url(#clip990)" d="M1796.68 1514.29 L1815.04 1514.29 L1815.04 1518.22 L1800.96 1518.22 L1800.96 1526.7 Q1801.98 1526.35 1803 1526.19 Q1804.02 1526 1805.04 1526 Q1810.82 1526 1814.2 1529.17 Q1817.58 1532.34 1817.58 1537.76 Q1817.58 1543.34 1814.11 1546.44 Q1810.64 1549.52 1804.32 1549.52 Q1802.14 1549.52 1799.87 1549.15 Q1797.63 1548.78 1795.22 1548.04 L1795.22 1543.34 Q1797.3 1544.47 1799.53 1545.03 Q1801.75 1545.58 1804.22 1545.58 Q1808.23 1545.58 1810.57 1543.48 Q1812.91 1541.37 1812.91 1537.76 Q1812.91 1534.15 1810.57 1532.04 Q1808.23 1529.94 1804.22 1529.94 Q1802.35 1529.94 1800.47 1530.35 Q1798.62 1530.77 1796.68 1531.65 L1796.68 1514.29 Z" fill="#000000" fill-rule="nonzero" fill-opacity="1" /><path clip-path="url(#clip990)" d="M2242.22 1544.91 L2249.86 1544.91 L2249.86 1518.55 L2241.55 1520.21 L2241.55 1515.95 L2249.81 1514.29 L2254.49 1514.29 L2254.49 1544.91 L2262.13 1544.91 L2262.13 1548.85 L2242.22 1548.85 L2242.22 1544.91 Z" fill="#000000" fill-rule="nonzero" fill-opacity="1" /><path clip-path="url(#clip990)" d="M2271.57 1542.97 L2276.46 1542.97 L2276.46 1548.85 L2271.57 1548.85 L2271.57 1542.97 Z" fill="#000000" fill-rule="nonzero" fill-opacity="1" /><path clip-path="url(#clip990)" d="M2296.64 1517.37 Q2293.03 1517.37 2291.2 1520.93 Q2289.4 1524.47 2289.4 1531.6 Q2289.4 1538.71 2291.2 1542.27 Q2293.03 1545.82 2296.64 1545.82 Q2300.28 1545.82 2302.08 1542.27 Q2303.91 1538.71 2303.91 1531.6 Q2303.91 1524.47 2302.08 1520.93 Q2300.28 1517.37 2296.64 1517.37 M2296.64 1513.66 Q2302.45 1513.66 2305.51 1518.27 Q2308.59 1522.85 2308.59 1531.6 Q2308.59 1540.33 2305.51 1544.94 Q2302.45 1549.52 2296.64 1549.52 Q2290.83 1549.52 2287.75 1544.94 Q2284.7 1540.33 2284.7 1531.6 Q2284.7 1522.85 2287.75 1518.27 Q2290.83 1513.66 2296.64 1513.66 Z" fill="#000000" fill-rule="nonzero" fill-opacity="1" /><path clip-path="url(#clip990)" d="M2326.81 1517.37 Q2323.19 1517.37 2321.37 1520.93 Q2319.56 1524.47 2319.56 1531.6 Q2319.56 1538.71 2321.37 1542.27 Q2323.19 1545.82 2326.81 1545.82 Q2330.44 1545.82 2332.25 1542.27 Q2334.07 1538.71 2334.07 1531.6 Q2334.07 1524.47 2332.25 1520.93 Q2330.44 1517.37 2326.81 1517.37 M2326.81 1513.66 Q2332.62 1513.66 2335.67 1518.27 Q2338.75 1522.85 2338.75 1531.6 Q2338.75 1540.33 2335.67 1544.94 Q2332.62 1549.52 2326.81 1549.52 Q2321 1549.52 2317.92 1544.94 Q2314.86 1540.33 2314.86 1531.6 Q2314.86 1522.85 2317.92 1518.27 Q2321 1513.66 2326.81 1513.66 Z" fill="#000000" fill-rule="nonzero" fill-opacity="1" /><polyline clip-path="url(#clip990)" style="stroke:#000000; stroke-linecap:round; stroke-linejoin:round; stroke-width:4; stroke-opacity:1; fill:none" points="140.696,1486.45 140.696,123.472 "/>
<polyline clip-path="url(#clip990)" style="stroke:#000000; stroke-linecap:round; stroke-linejoin:round; stroke-width:4; stroke-opacity:1; fill:none" points="140.696,1447.87 159.593,1447.87 "/>
<polyline clip-path="url(#clip990)" style="stroke:#000000; stroke-linecap:round; stroke-linejoin:round; stroke-width:4; stroke-opacity:1; fill:none" points="140.696,1134.1 159.593,1134.1 "/>
<polyline clip-path="url(#clip990)" style="stroke:#000000; stroke-linecap:round; stroke-linejoin:round; stroke-width:4; stroke-opacity:1; fill:none" points="140.696,820.333 159.593,820.333 "/>
<polyline clip-path="url(#clip990)" style="stroke:#000000; stroke-linecap:round; stroke-linejoin:round; stroke-width:4; stroke-opacity:1; fill:none" points="140.696,506.563 159.593,506.563 "/>
<polyline clip-path="url(#clip990)" style="stroke:#000000; stroke-linecap:round; stroke-linejoin:round; stroke-width:4; stroke-opacity:1; fill:none" points="140.696,192.793 159.593,192.793 "/>
<path clip-path="url(#clip990)" d="M92.7512 1433.67 Q89.1401 1433.67 87.3114 1437.24 Q85.5058 1440.78 85.5058 1447.91 Q85.5058 1455.01 87.3114 1458.58 Q89.1401 1462.12 92.7512 1462.12 Q96.3854 1462.12 98.1909 1458.58 Q100.02 1455.01 100.02 1447.91 Q100.02 1440.78 98.1909 1437.24 Q96.3854 1433.67 92.7512 1433.67 M92.7512 1429.97 Q98.5613 1429.97 101.617 1434.57 Q104.696 1439.16 104.696 1447.91 Q104.696 1456.63 101.617 1461.24 Q98.5613 1465.82 92.7512 1465.82 Q86.941 1465.82 83.8623 1461.24 Q80.8068 1456.63 80.8068 1447.91 Q80.8068 1439.16 83.8623 1434.57 Q86.941 1429.97 92.7512 1429.97 Z" fill="#000000" fill-rule="nonzero" fill-opacity="1" /><path clip-path="url(#clip990)" d="M83.7929 1116.82 L102.149 1116.82 L102.149 1120.76 L88.0753 1120.76 L88.0753 1129.23 Q89.0938 1128.88 90.1123 1128.72 Q91.1308 1128.54 92.1493 1128.54 Q97.9363 1128.54 101.316 1131.71 Q104.696 1134.88 104.696 1140.3 Q104.696 1145.87 101.223 1148.98 Q97.7511 1152.05 91.4317 1152.05 Q89.2558 1152.05 86.9873 1151.68 Q84.7419 1151.31 82.3346 1150.57 L82.3346 1145.87 Q84.4179 1147.01 86.6401 1147.56 Q88.8623 1148.12 91.3391 1148.12 Q95.3437 1148.12 97.6817 1146.01 Q100.02 1143.91 100.02 1140.3 Q100.02 1136.68 97.6817 1134.58 Q95.3437 1132.47 91.3391 1132.47 Q89.4641 1132.47 87.5892 1132.89 Q85.7373 1133.3 83.7929 1134.18 L83.7929 1116.82 Z" fill="#000000" fill-rule="nonzero" fill-opacity="1" /><path clip-path="url(#clip990)" d="M53.3995 833.678 L61.0384 833.678 L61.0384 807.313 L52.7282 808.979 L52.7282 804.72 L60.9921 803.053 L65.668 803.053 L65.668 833.678 L73.3068 833.678 L73.3068 837.613 L53.3995 837.613 L53.3995 833.678 Z" fill="#000000" fill-rule="nonzero" fill-opacity="1" /><path clip-path="url(#clip990)" d="M92.7512 806.132 Q89.1401 806.132 87.3114 809.697 Q85.5058 813.238 85.5058 820.368 Q85.5058 827.474 87.3114 831.039 Q89.1401 834.581 92.7512 834.581 Q96.3854 834.581 98.1909 831.039 Q100.02 827.474 100.02 820.368 Q100.02 813.238 98.1909 809.697 Q96.3854 806.132 92.7512 806.132 M92.7512 802.428 Q98.5613 802.428 101.617 807.035 Q104.696 811.618 104.696 820.368 Q104.696 829.095 101.617 833.701 Q98.5613 838.285 92.7512 838.285 Q86.941 838.285 83.8623 833.701 Q80.8068 829.095 80.8068 820.368 Q80.8068 811.618 83.8623 807.035 Q86.941 802.428 92.7512 802.428 Z" fill="#000000" fill-rule="nonzero" fill-opacity="1" /><path clip-path="url(#clip990)" d="M54.3949 519.908 L62.0337 519.908 L62.0337 493.543 L53.7236 495.209 L53.7236 490.95 L61.9874 489.283 L66.6633 489.283 L66.6633 519.908 L74.3022 519.908 L74.3022 523.843 L54.3949 523.843 L54.3949 519.908 Z" fill="#000000" fill-rule="nonzero" fill-opacity="1" /><path clip-path="url(#clip990)" d="M83.7929 489.283 L102.149 489.283 L102.149 493.219 L88.0753 493.219 L88.0753 501.691 Q89.0938 501.343 90.1123 501.181 Q91.1308 500.996 92.1493 500.996 Q97.9363 500.996 101.316 504.168 Q104.696 507.339 104.696 512.755 Q104.696 518.334 101.223 521.436 Q97.7511 524.515 91.4317 524.515 Q89.2558 524.515 86.9873 524.144 Q84.7419 523.774 82.3346 523.033 L82.3346 518.334 Q84.4179 519.468 86.6401 520.024 Q88.8623 520.579 91.3391 520.579 Q95.3437 520.579 97.6817 518.473 Q100.02 516.367 100.02 512.755 Q100.02 509.144 97.6817 507.038 Q95.3437 504.931 91.3391 504.931 Q89.4641 504.931 87.5892 505.348 Q85.7373 505.765 83.7929 506.644 L83.7929 489.283 Z" fill="#000000" fill-rule="nonzero" fill-opacity="1" /><path clip-path="url(#clip990)" d="M56.6171 206.138 L72.9365 206.138 L72.9365 210.073 L50.9921 210.073 L50.9921 206.138 Q53.6541 203.384 58.2375 198.754 Q62.8439 194.101 64.0245 192.759 Q66.2698 190.236 67.1494 188.499 Q68.0522 186.74 68.0522 185.05 Q68.0522 182.296 66.1078 180.56 Q64.1865 178.824 61.0847 178.824 Q58.8856 178.824 56.4319 179.587 Q54.0014 180.351 51.2236 181.902 L51.2236 177.18 Q54.0477 176.046 56.5014 175.467 Q58.955 174.888 60.9921 174.888 Q66.3624 174.888 69.5568 177.574 Q72.7513 180.259 72.7513 184.75 Q72.7513 186.879 71.9411 188.8 Q71.1541 190.699 69.0476 193.291 Q68.4689 193.962 65.367 197.18 Q62.2652 200.374 56.6171 206.138 Z" fill="#000000" fill-rule="nonzero" fill-opacity="1" /><path clip-path="url(#clip990)" d="M92.7512 178.592 Q89.1401 178.592 87.3114 182.157 Q85.5058 185.699 85.5058 192.828 Q85.5058 199.935 87.3114 203.499 Q89.1401 207.041 92.7512 207.041 Q96.3854 207.041 98.1909 203.499 Q100.02 199.935 100.02 192.828 Q100.02 185.699 98.1909 182.157 Q96.3854 178.592 92.7512 178.592 M92.7512 174.888 Q98.5613 174.888 101.617 179.495 Q104.696 184.078 104.696 192.828 Q104.696 201.555 101.617 206.161 Q98.5613 210.745 92.7512 210.745 Q86.941 210.745 83.8623 206.161 Q80.8068 201.555 80.8068 192.828 Q80.8068 184.078 83.8623 179.495 Q86.941 174.888 92.7512 174.888 Z" fill="#000000" fill-rule="nonzero" fill-opacity="1" /><path clip-path="url(#clip990)" d="M905.741 12.096 L913.924 12.096 L913.924 72.576 L905.741 72.576 L905.741 12.096 Z" fill="#000000" fill-rule="nonzero" fill-opacity="1" /><path clip-path="url(#clip990)" d="M967.598 45.1919 L967.598 72.576 L960.145 72.576 L960.145 45.4349 Q960.145 38.994 957.633 35.7938 Q955.121 32.5936 950.098 32.5936 Q944.062 32.5936 940.579 36.4419 Q937.095 40.2903 937.095 46.9338 L937.095 72.576 L929.601 72.576 L929.601 27.2059 L937.095 27.2059 L937.095 34.2544 Q939.768 30.163 943.374 28.1376 Q947.02 26.1121 951.759 26.1121 Q959.577 26.1121 963.588 30.9732 Q967.598 35.7938 967.598 45.1919 Z" fill="#000000" fill-rule="nonzero" fill-opacity="1" /><path clip-path="url(#clip990)" d="M1005.43 9.54393 L1005.43 15.7418 L998.304 15.7418 Q994.294 15.7418 992.714 17.3622 Q991.174 18.9825 991.174 23.1955 L991.174 27.2059 L1003.45 27.2059 L1003.45 32.9987 L991.174 32.9987 L991.174 72.576 L983.68 72.576 L983.68 32.9987 L976.551 32.9987 L976.551 27.2059 L983.68 27.2059 L983.68 24.0462 Q983.68 16.471 987.205 13.0277 Q990.729 9.54393 998.385 9.54393 L1005.43 9.54393 Z" fill="#000000" fill-rule="nonzero" fill-opacity="1" /><path clip-path="url(#clip990)" d="M1050.48 48.0275 L1050.48 51.6733 L1016.21 51.6733 Q1016.7 59.3701 1020.83 63.421 Q1025 67.4314 1032.41 67.4314 Q1036.71 67.4314 1040.72 66.3781 Q1044.77 65.3249 1048.74 63.2184 L1048.74 70.267 Q1044.73 71.9684 1040.51 72.8596 Q1036.3 73.7508 1031.97 73.7508 Q1021.11 73.7508 1014.75 67.4314 Q1008.43 61.1119 1008.43 50.3365 Q1008.43 39.1965 1014.43 32.6746 Q1020.46 26.1121 1030.67 26.1121 Q1039.83 26.1121 1045.13 32.0264 Q1050.48 37.9003 1050.48 48.0275 M1043.03 45.84 Q1042.94 39.7232 1039.58 36.0774 Q1036.26 32.4315 1030.75 32.4315 Q1024.51 32.4315 1020.75 35.9558 Q1017.02 39.4801 1016.45 45.8805 L1043.03 45.84 Z" fill="#000000" fill-rule="nonzero" fill-opacity="1" /><path clip-path="url(#clip990)" d="M1089 34.1734 Q1087.75 33.4443 1086.25 33.1202 Q1084.79 32.7556 1083.01 32.7556 Q1076.69 32.7556 1073.29 36.8875 Q1069.92 40.9789 1069.92 48.6757 L1069.92 72.576 L1062.43 72.576 L1062.43 27.2059 L1069.92 27.2059 L1069.92 34.2544 Q1072.27 30.1225 1076.04 28.1376 Q1079.81 26.1121 1085.2 26.1121 Q1085.97 26.1121 1086.9 26.2337 Q1087.83 26.3147 1088.96 26.5172 L1089 34.1734 Z" fill="#000000" fill-rule="nonzero" fill-opacity="1" /><path clip-path="url(#clip990)" d="M1133.81 48.0275 L1133.81 51.6733 L1099.54 51.6733 Q1100.02 59.3701 1104.15 63.421 Q1108.33 67.4314 1115.74 67.4314 Q1120.03 67.4314 1124.04 66.3781 Q1128.09 65.3249 1132.06 63.2184 L1132.06 70.267 Q1128.05 71.9684 1123.84 72.8596 Q1119.63 73.7508 1115.29 73.7508 Q1104.44 73.7508 1098.08 67.4314 Q1091.76 61.1119 1091.76 50.3365 Q1091.76 39.1965 1097.75 32.6746 Q1103.79 26.1121 1114 26.1121 Q1123.15 26.1121 1128.46 32.0264 Q1133.81 37.9003 1133.81 48.0275 M1126.35 45.84 Q1126.27 39.7232 1122.91 36.0774 Q1119.59 32.4315 1114.08 32.4315 Q1107.84 32.4315 1104.07 35.9558 Q1100.35 39.4801 1099.78 45.8805 L1126.35 45.84 Z" fill="#000000" fill-rule="nonzero" fill-opacity="1" /><path clip-path="url(#clip990)" d="M1183.75 45.1919 L1183.75 72.576 L1176.3 72.576 L1176.3 45.4349 Q1176.3 38.994 1173.79 35.7938 Q1171.28 32.5936 1166.25 32.5936 Q1160.22 32.5936 1156.73 36.4419 Q1153.25 40.2903 1153.25 46.9338 L1153.25 72.576 L1145.76 72.576 L1145.76 27.2059 L1153.25 27.2059 L1153.25 34.2544 Q1155.92 30.163 1159.53 28.1376 Q1163.18 26.1121 1167.92 26.1121 Q1175.73 26.1121 1179.74 30.9732 Q1183.75 35.7938 1183.75 45.1919 Z" fill="#000000" fill-rule="nonzero" fill-opacity="1" /><path clip-path="url(#clip990)" d="M1231.27 28.9478 L1231.27 35.9153 Q1228.11 34.1734 1224.91 33.3227 Q1221.75 32.4315 1218.51 32.4315 Q1211.26 32.4315 1207.25 37.0496 Q1203.24 41.6271 1203.24 49.9314 Q1203.24 58.2358 1207.25 62.8538 Q1211.26 67.4314 1218.51 67.4314 Q1221.75 67.4314 1224.91 66.5807 Q1228.11 65.6895 1231.27 63.9476 L1231.27 70.8341 Q1228.15 72.2924 1224.79 73.0216 Q1221.47 73.7508 1217.7 73.7508 Q1207.45 73.7508 1201.42 67.3098 Q1195.38 60.8689 1195.38 49.9314 Q1195.38 38.832 1201.46 32.472 Q1207.57 26.1121 1218.19 26.1121 Q1221.63 26.1121 1224.91 26.8413 Q1228.19 27.5299 1231.27 28.9478 Z" fill="#000000" fill-rule="nonzero" fill-opacity="1" /><path clip-path="url(#clip990)" d="M1283.04 48.0275 L1283.04 51.6733 L1248.77 51.6733 Q1249.26 59.3701 1253.39 63.421 Q1257.56 67.4314 1264.98 67.4314 Q1269.27 67.4314 1273.28 66.3781 Q1277.33 65.3249 1281.3 63.2184 L1281.3 70.267 Q1277.29 71.9684 1273.08 72.8596 Q1268.86 73.7508 1264.53 73.7508 Q1253.67 73.7508 1247.31 67.4314 Q1240.99 61.1119 1240.99 50.3365 Q1240.99 39.1965 1246.99 32.6746 Q1253.02 26.1121 1263.23 26.1121 Q1272.39 26.1121 1277.69 32.0264 Q1283.04 37.9003 1283.04 48.0275 M1275.59 45.84 Q1275.51 39.7232 1272.15 36.0774 Q1268.82 32.4315 1263.31 32.4315 Q1257.08 32.4315 1253.31 35.9558 Q1249.58 39.4801 1249.01 45.8805 L1275.59 45.84 Z" fill="#000000" fill-rule="nonzero" fill-opacity="1" /><path clip-path="url(#clip990)" d="M1347.94 34.1734 Q1346.68 33.4443 1345.18 33.1202 Q1343.72 32.7556 1341.94 32.7556 Q1335.62 32.7556 1332.22 36.8875 Q1328.86 40.9789 1328.86 48.6757 L1328.86 72.576 L1321.36 72.576 L1321.36 27.2059 L1328.86 27.2059 L1328.86 34.2544 Q1331.21 30.1225 1334.97 28.1376 Q1338.74 26.1121 1344.13 26.1121 Q1344.9 26.1121 1345.83 26.2337 Q1346.76 26.3147 1347.9 26.5172 L1347.94 34.1734 Z" fill="#000000" fill-rule="nonzero" fill-opacity="1" /><path clip-path="url(#clip990)" d="M1392.74 48.0275 L1392.74 51.6733 L1358.47 51.6733 Q1358.96 59.3701 1363.09 63.421 Q1367.26 67.4314 1374.67 67.4314 Q1378.97 67.4314 1382.98 66.3781 Q1387.03 65.3249 1391 63.2184 L1391 70.267 Q1386.99 71.9684 1382.78 72.8596 Q1378.56 73.7508 1374.23 73.7508 Q1363.37 73.7508 1357.01 67.4314 Q1350.69 61.1119 1350.69 50.3365 Q1350.69 39.1965 1356.69 32.6746 Q1362.72 26.1121 1372.93 26.1121 Q1382.09 26.1121 1387.39 32.0264 Q1392.74 37.9003 1392.74 48.0275 M1385.29 45.84 Q1385.21 39.7232 1381.84 36.0774 Q1378.52 32.4315 1373.01 32.4315 Q1366.77 32.4315 1363.01 35.9558 Q1359.28 39.4801 1358.71 45.8805 L1385.29 45.84 Z" fill="#000000" fill-rule="nonzero" fill-opacity="1" /><path clip-path="url(#clip990)" d="M1433.9 28.5427 L1433.9 35.5912 Q1430.74 33.9709 1427.34 33.1607 Q1423.93 32.3505 1420.29 32.3505 Q1414.74 32.3505 1411.94 34.0519 Q1409.19 35.7533 1409.19 39.156 Q1409.19 41.7486 1411.17 43.2475 Q1413.16 44.7058 1419.15 46.0426 L1421.7 46.6097 Q1429.64 48.3111 1432.97 51.4303 Q1436.33 54.509 1436.33 60.0587 Q1436.33 66.3781 1431.31 70.0644 Q1426.32 73.7508 1417.57 73.7508 Q1413.93 73.7508 1409.96 73.0216 Q1406.03 72.3329 1401.65 70.9151 L1401.65 63.2184 Q1405.78 65.3654 1409.79 66.4591 Q1413.81 67.5124 1417.73 67.5124 Q1423 67.5124 1425.84 65.73 Q1428.67 63.9071 1428.67 60.6258 Q1428.67 57.5877 1426.61 55.9673 Q1424.58 54.3469 1417.65 52.8481 L1415.06 52.2405 Q1408.13 50.7821 1405.06 47.7845 Q1401.98 44.7463 1401.98 39.4801 Q1401.98 33.0797 1406.51 29.5959 Q1411.05 26.1121 1419.4 26.1121 Q1423.53 26.1121 1427.17 26.7198 Q1430.82 27.3274 1433.9 28.5427 Z" fill="#000000" fill-rule="nonzero" fill-opacity="1" /><path clip-path="url(#clip990)" d="M1447.43 54.671 L1447.43 27.2059 L1454.88 27.2059 L1454.88 54.3874 Q1454.88 60.8284 1457.39 64.0691 Q1459.9 67.2693 1464.93 67.2693 Q1470.96 67.2693 1474.45 63.421 Q1477.97 59.5726 1477.97 52.9291 L1477.97 27.2059 L1485.43 27.2059 L1485.43 72.576 L1477.97 72.576 L1477.97 65.6084 Q1475.26 69.7404 1471.65 71.7658 Q1468.09 73.7508 1463.35 73.7508 Q1455.53 73.7508 1451.48 68.8897 Q1447.43 64.0286 1447.43 54.671 M1466.18 26.1121 L1466.18 26.1121 Z" fill="#000000" fill-rule="nonzero" fill-opacity="1" /><path clip-path="url(#clip990)" d="M1500.78 9.54393 L1508.23 9.54393 L1508.23 72.576 L1500.78 72.576 L1500.78 9.54393 Z" fill="#000000" fill-rule="nonzero" fill-opacity="1" /><path clip-path="url(#clip990)" d="M1531.2 14.324 L1531.2 27.2059 L1546.55 27.2059 L1546.55 32.9987 L1531.2 32.9987 L1531.2 57.6282 Q1531.2 63.1779 1532.7 64.7578 Q1534.24 66.3376 1538.9 66.3376 L1546.55 66.3376 L1546.55 72.576 L1538.9 72.576 Q1530.27 72.576 1526.99 69.3758 Q1523.71 66.1351 1523.71 57.6282 L1523.71 32.9987 L1518.24 32.9987 L1518.24 27.2059 L1523.71 27.2059 L1523.71 14.324 L1531.2 14.324 Z" fill="#000000" fill-rule="nonzero" fill-opacity="1" /><path clip-path="url(#clip990)" d="M1585.28 28.5427 L1585.28 35.5912 Q1582.12 33.9709 1578.72 33.1607 Q1575.31 32.3505 1571.67 32.3505 Q1566.12 32.3505 1563.32 34.0519 Q1560.57 35.7533 1560.57 39.156 Q1560.57 41.7486 1562.55 43.2475 Q1564.54 44.7058 1570.53 46.0426 L1573.09 46.6097 Q1581.03 48.3111 1584.35 51.4303 Q1587.71 54.509 1587.71 60.0587 Q1587.71 66.3781 1582.69 70.0644 Q1577.7 73.7508 1568.95 73.7508 Q1565.31 73.7508 1561.34 73.0216 Q1557.41 72.3329 1553.03 70.9151 L1553.03 63.2184 Q1557.17 65.3654 1561.18 66.4591 Q1565.19 67.5124 1569.12 67.5124 Q1574.38 67.5124 1577.22 65.73 Q1580.05 63.9071 1580.05 60.6258 Q1580.05 57.5877 1577.99 55.9673 Q1575.96 54.3469 1569.04 52.8481 L1566.44 52.2405 Q1559.52 50.7821 1556.44 47.7845 Q1553.36 44.7463 1553.36 39.4801 Q1553.36 33.0797 1557.9 29.5959 Q1562.43 26.1121 1570.78 26.1121 Q1574.91 26.1121 1578.56 26.7198 Q1582.2 27.3274 1585.28 28.5427 Z" fill="#000000" fill-rule="nonzero" fill-opacity="1" /><path clip-path="url(#clip992)" d="M203.301 1447.87 L205.39 1447.87 L207.479 1447.87 L209.568 1447.87 L211.657 1447.87 L213.746 1447.87 L215.835 1447.87 L217.924 1447.87 L220.013 1447.87 L222.101 1447.87 L224.19 1447.87 L226.279 1447.87 L228.368 1447.87 L230.457 1447.87 L232.546 1447.87 L234.635 1447.87 L236.724 1447.87 L238.813 1447.87 L240.902 1447.87 L242.991 1447.87 L245.08 1447.87 L247.169 1447.87 L249.258 1447.87 L251.347 1447.87 L253.436 1447.87 L255.524 1447.87 L257.613 1447.87 L259.702 1447.87 L261.791 1447.87 L263.88 1447.87 L265.969 1447.87 L268.058 1447.87 L270.147 1447.87 L272.236 1447.87 L274.325 1447.87 L276.414 1447.87 L278.503 1447.87 L280.592 1447.87 L282.681 1447.87 L284.77 1447.87 L286.859 1447.87 L288.947 1447.87 L291.036 1447.87 L293.125 1447.87 L295.214 1447.87 L297.303 1447.87 L299.392 1447.87 L301.481 1447.87 L303.57 1447.87 L305.659 1447.87 L307.748 1447.87 L309.837 1447.87 L311.926 1447.87 L314.015 1447.87 L316.104 1447.87 L318.193 1447.87 L320.282 1447.87 L322.371 1447.87 L324.459 1447.87 L326.548 1447.87 L328.637 1447.87 L330.726 1447.87 L332.815 1447.87 L334.904 1447.87 L336.993 1447.87 L339.082 1447.87 L341.171 1447.87 L343.26 1447.87 L345.349 1447.87 L347.438 1447.87 L349.527 1447.87 L351.616 1447.87 L353.705 1447.87 L355.794 1447.87 L357.882 1447.87 L359.971 1447.87 L362.06 1447.87 L364.149 1447.87 L366.238 1447.87 L368.327 1447.87 L370.416 1447.87 L372.505 1447.87 L374.594 1447.87 L376.683 1447.87 L378.772 1447.87 L380.861 1447.87 L382.95 1447.87 L385.039 1447.87 L387.128 1447.87 L389.217 1447.87 L391.305 1447.87 L393.394 1447.87 L395.483 1447.87 L397.572 1447.87 L399.661 1447.87 L401.75 1447.87 L403.839 1447.87 L405.928 1447.87 L408.017 1447.87 L410.106 1447.87 L412.195 1447.87 L414.284 1447.87 L416.373 1447.87 L418.462 1447.87 L420.551 1447.87 L422.64 1447.87 L424.728 1447.87 L426.817 1447.87 L428.906 1447.87 L430.995 1447.87 L433.084 1447.87 L435.173 1447.87 L437.262 1447.87 L439.351 1447.87 L441.44 1447.87 L443.529 1447.87 L445.618 1447.87 L447.707 1447.87 L449.796 1447.87 L451.885 1447.87 L453.974 1447.87 L456.063 1447.87 L458.152 1447.87 L460.24 1447.87 L462.329 1447.87 L464.418 1447.87 L466.507 1447.87 L468.596 1447.87 L470.685 1447.87 L472.774 1447.87 L474.863 1447.87 L476.952 1447.87 L479.041 1447.87 L481.13 1447.87 L483.219 1447.87 L485.308 1447.87 L487.397 1447.87 L489.486 1447.87 L491.575 1447.87 L493.663 1447.87 L495.752 1447.87 L497.841 1447.87 L499.93 1447.87 L502.019 1447.87 L504.108 1447.87 L506.197 1447.87 L508.286 1447.87 L510.375 1447.87 L512.464 1447.87 L514.553 1447.87 L516.642 1447.87 L518.731 1447.87 L520.82 1447.87 L522.909 1447.87 L524.998 1447.87 L527.086 1447.87 L529.175 1447.87 L531.264 1447.87 L533.353 1447.87 L535.442 1447.87 L537.531 1447.87 L539.62 1447.87 L541.709 1447.87 L543.798 1447.87 L545.887 1447.87 L547.976 1447.87 L550.065 1447.87 L552.154 1447.87 L554.243 1447.87 L556.332 1447.87 L558.421 1447.87 L560.509 1447.87 L562.598 1447.87 L564.687 1447.87 L566.776 1447.87 L568.865 1447.87 L570.954 1447.87 L573.043 1447.87 L575.132 1447.87 L577.221 1447.87 L579.31 1447.87 L581.399 1447.87 L583.488 1447.87 L585.577 1447.87 L587.666 1447.87 L589.755 1447.87 L591.844 1447.87 L593.932 1447.87 L596.021 1447.87 L598.11 1447.87 L600.199 1447.87 L602.288 1447.87 L604.377 1447.87 L606.466 1447.87 L608.555 1447.87 L610.644 1447.87 L612.733 1447.87 L614.822 1447.87 L616.911 1447.87 L619 1447.87 L621.089 1447.87 L623.178 1447.87 L625.267 1447.87 L627.356 1447.87 L629.444 1447.87 L631.533 1447.87 L633.622 1447.87 L635.711 1447.87 L637.8 1447.87 L639.889 1447.87 L641.978 1447.87 L644.067 1447.87 L646.156 1447.87 L648.245 1447.87 L650.334 1447.87 L652.423 1447.87 L654.512 1447.87 L656.601 1447.87 L658.69 1447.87 L660.779 1447.87 L662.867 1447.87 L664.956 1447.87 L667.045 1447.87 L669.134 1447.87 L671.223 1447.87 L673.312 1447.87 L675.401 1447.87 L677.49 1447.87 L679.579 1447.87 L681.668 1447.87 L683.757 1447.87 L685.846 1447.87 L687.935 1447.87 L690.024 1447.87 L692.113 1447.87 L694.202 1447.87 L696.29 1447.87 L698.379 1447.87 L700.468 1447.87 L702.557 1447.87 L704.646 1447.87 L706.735 1447.87 L708.824 1447.87 L710.913 1447.87 L713.002 1447.87 L715.091 1447.87 L717.18 1447.87 L719.269 1447.87 L721.358 1447.87 L723.447 1447.87 L725.536 1447.87 L727.625 1447.87 L729.713 1447.87 L731.802 1447.87 L733.891 1447.87 L735.98 1447.87 L738.069 1447.87 L740.158 1447.87 L742.247 1447.87 L744.336 1447.87 L746.425 1447.87 L748.514 1447.87 L750.603 1447.87 L752.692 1447.87 L754.781 1447.87 L756.87 1447.87 L758.959 1447.87 L761.048 1447.87 L763.136 1447.87 L765.225 1447.87 L767.314 1447.87 L769.403 1447.87 L771.492 1447.87 L773.581 1447.87 L775.67 1447.87 L777.759 1447.87 L779.848 1447.87 L781.937 1447.87 L784.026 1447.87 L786.115 1447.87 L788.204 1447.87 L790.293 1447.87 L792.382 1447.87 L794.471 1447.87 L796.56 1447.87 L798.648 1447.87 L800.737 1447.87 L802.826 1447.87 L804.915 1447.87 L807.004 1447.87 L809.093 1447.87 L811.182 1447.87 L813.271 1447.87 L815.36 1447.87 L817.449 1447.87 L819.538 1447.87 L821.627 1447.87 L823.716 1447.87 L825.805 1447.87 L827.894 1447.87 L829.983 1447.87 L832.071 1447.87 L834.16 1447.87 L836.249 1447.87 L838.338 1447.87 L840.427 1447.87 L842.516 1447.87 L844.605 1447.87 L846.694 1447.87 L848.783 1447.87 L850.872 1447.87 L852.961 1447.87 L855.05 1447.87 L857.139 1447.87 L859.228 1447.87 L861.317 1447.87 L863.406 1447.87 L865.494 1447.87 L867.583 1447.87 L869.672 1447.87 L871.761 1447.87 L873.85 1447.87 L875.939 1447.87 L878.028 1447.87 L880.117 1447.87 L882.206 1447.87 L884.295 1447.87 L886.384 1447.87 L888.473 1447.87 L890.562 1447.87 L892.651 1447.87 L894.74 1447.87 L896.829 1447.87 L898.917 1447.87 L901.006 1447.87 L903.095 1447.87 L905.184 1447.87 L907.273 1447.87 L909.362 1447.87 L911.451 1447.87 L913.54 1447.87 L915.629 1447.87 L917.718 1447.87 L919.807 1447.87 L921.896 1447.87 L923.985 1447.87 L926.074 1447.87 L928.163 1447.87 L930.252 1447.87 L932.341 1447.87 L934.429 1447.87 L936.518 1447.87 L938.607 1447.87 L940.696 1447.87 L942.785 1447.87 L944.874 1447.87 L946.963 1447.87 L949.052 1447.87 L951.141 1447.87 L953.23 1447.87 L955.319 1447.87 L957.408 1447.87 L959.497 1447.87 L961.586 1447.87 L963.675 1447.87 L965.764 1447.87 L967.852 1447.87 L969.941 1447.87 L972.03 1447.87 L974.119 1447.87 L976.208 1447.87 L978.297 1447.87 L980.386 1447.87 L982.475 1447.87 L984.564 1447.87 L986.653 1447.87 L988.742 1447.87 L990.831 1447.87 L992.92 1447.87 L995.009 1447.87 L997.098 1447.87 L999.187 1447.87 L1001.28 1447.87 L1003.36 1447.87 L1005.45 1447.87 L1007.54 1447.87 L1009.63 1447.87 L1011.72 1447.87 L1013.81 1447.87 L1015.9 1447.87 L1017.99 1447.87 L1020.08 1447.87 L1022.16 1447.87 L1024.25 1447.87 L1026.34 1447.87 L1028.43 1447.87 L1030.52 1447.87 L1032.61 1447.87 L1034.7 1447.87 L1036.79 1447.87 L1038.88 1447.87 L1040.97 1447.87 L1043.05 1447.87 L1045.14 1447.87 L1047.23 1447.87 L1049.32 1447.87 L1051.41 1447.87 L1053.5 1447.87 L1055.59 1447.87 L1057.68 1447.87 L1059.77 1447.87 L1061.85 1447.87 L1063.94 1447.87 L1066.03 1447.87 L1068.12 1447.87 L1070.21 1447.87 L1072.3 1447.87 L1074.39 1447.87 L1076.48 1447.87 L1078.57 1447.87 L1080.66 1447.87 L1082.74 1447.87 L1084.83 1447.87 L1086.92 1447.87 L1089.01 1447.87 L1091.1 1447.87 L1093.19 1447.87 L1095.28 1447.87 L1097.37 1447.87 L1099.46 1447.87 L1101.54 1447.87 L1103.63 1447.87 L1105.72 1447.87 L1107.81 1447.87 L1109.9 1447.87 L1111.99 1447.87 L1114.08 1447.87 L1116.17 1447.87 L1118.26 1447.87 L1120.34 1447.87 L1122.43 1447.87 L1124.52 1447.87 L1126.61 1447.87 L1128.7 1447.87 L1130.79 1447.87 L1132.88 1447.87 L1134.97 1447.87 L1137.06 1447.87 L1139.15 1447.87 L1141.23 1447.87 L1143.32 1447.87 L1145.41 1447.87 L1147.5 1447.87 L1149.59 1447.87 L1151.68 1447.87 L1153.77 1447.87 L1155.86 1447.87 L1157.95 1447.87 L1160.03 1447.87 L1162.12 1447.87 L1164.21 1447.87 L1166.3 1447.87 L1168.39 1447.87 L1170.48 1447.87 L1172.57 1447.87 L1174.66 1447.87 L1176.75 1447.87 L1178.84 1447.87 L1180.92 1447.87 L1183.01 1447.87 L1185.1 1447.87 L1187.19 1447.87 L1189.28 1447.87 L1191.37 1447.87 L1193.46 1447.87 L1195.55 1447.87 L1197.64 1447.87 L1199.72 1447.87 L1201.81 1447.87 L1203.9 1447.87 L1205.99 1447.87 L1208.08 1447.87 L1210.17 1447.87 L1212.26 1447.87 L1214.35 1447.87 L1216.44 1447.87 L1218.53 1447.87 L1220.61 1447.87 L1222.7 1447.87 L1224.79 1447.87 L1226.88 1447.87 L1228.97 1447.87 L1231.06 1447.87 L1233.15 1447.87 L1235.24 1447.87 L1237.33 1447.87 L1239.41 1447.87 L1241.5 1447.87 L1243.59 1447.87 L1245.68 1447.87 L1247.77 1447.87 L1249.86 1447.87 L1251.95 1447.87 L1254.04 1447.87 L1256.13 1447.87 L1258.21 1447.87 L1260.3 1447.87 L1262.39 1447.87 L1264.48 1447.87 L1266.57 1447.87 L1268.66 1447.87 L1270.75 1447.87 L1272.84 1447.87 L1274.93 1447.87 L1277.02 1447.87 L1279.1 1447.87 L1281.19 1447.87 L1283.28 1447.87 L1285.37 1447.87 L1287.46 1447.87 L1289.55 1447.87 L1291.64 1447.87 L1293.73 1447.87 L1295.82 1447.87 L1297.9 1447.87 L1299.99 1447.87 L1302.08 1447.87 L1304.17 1447.87 L1306.26 1447.87 L1308.35 1447.87 L1310.44 1447.87 L1312.53 1447.87 L1314.62 1447.87 L1316.71 1447.87 L1318.79 1447.87 L1320.88 1447.87 L1322.97 1447.87 L1325.06 1447.87 L1327.15 1447.87 L1329.24 1447.87 L1331.33 1447.87 L1333.42 1447.87 L1335.51 1447.87 L1337.59 1447.87 L1339.68 1447.87 L1341.77 1447.87 L1343.86 1447.87 L1345.95 1447.87 L1348.04 1447.87 L1350.13 1447.87 L1352.22 1447.87 L1354.31 1447.87 L1356.39 1447.87 L1358.48 1447.87 L1360.57 1447.87 L1362.66 1447.87 L1364.75 1447.87 L1366.84 1447.87 L1368.93 1447.87 L1371.02 1447.87 L1373.11 1447.87 L1375.2 1447.87 L1377.28 1447.87 L1379.37 1447.87 L1381.46 1447.87 L1383.55 1447.87 L1385.64 1447.87 L1387.73 1447.87 L1389.82 1447.87 L1391.91 1447.87 L1394 1447.87 L1396.08 1447.87 L1398.17 1447.87 L1400.26 1447.87 L1402.35 1447.87 L1404.44 1447.87 L1406.53 1447.87 L1408.62 1447.87 L1410.71 1447.87 L1412.8 1447.87 L1414.89 1447.87 L1416.97 1447.87 L1419.06 1447.87 L1421.15 1447.87 L1423.24 1447.87 L1425.33 1447.87 L1427.42 1447.87 L1429.51 1447.87 L1431.6 1447.87 L1433.69 1447.87 L1435.77 1447.87 L1437.86 1447.87 L1439.95 1447.87 L1442.04 1447.87 L1444.13 1447.87 L1446.22 1447.87 L1448.31 1447.87 L1450.4 1447.87 L1452.49 1447.87 L1454.58 1447.87 L1456.66 1447.87 L1458.75 1447.87 L1460.84 1447.87 L1462.93 1447.87 L1465.02 1447.87 L1467.11 1447.87 L1469.2 1447.87 L1471.29 1447.87 L1473.38 1447.87 L1475.46 1447.87 L1477.55 1447.87 L1479.64 1447.87 L1481.73 1447.87 L1483.82 1447.87 L1485.91 1447.87 L1488 1447.87 L1490.09 1447.87 L1492.18 1447.87 L1494.26 1447.87 L1496.35 1447.87 L1498.44 1447.87 L1500.53 1447.87 L1502.62 1447.87 L1504.71 1447.87 L1506.8 1447.87 L1508.89 1447.87 L1510.98 1447.87 L1513.07 1447.87 L1515.15 1447.87 L1517.24 1447.87 L1519.33 1447.87 L1521.42 1447.87 L1523.51 1447.87 L1525.6 1447.87 L1527.69 1447.87 L1529.78 1447.86 L1531.87 1447.86 L1533.95 1447.86 L1536.04 1447.86 L1538.13 1447.85 L1540.22 1447.85 L1542.31 1447.84 L1544.4 1447.84 L1546.49 1447.83 L1548.58 1447.82 L1550.67 1447.8 L1552.76 1447.79 L1554.84 1447.77 L1556.93 1447.74 L1559.02 1447.72 L1561.11 1447.68 L1563.2 1447.64 L1565.29 1447.59 L1567.38 1447.53 L1569.47 1447.46 L1571.56 1447.38 L1573.64 1447.28 L1575.73 1447.16 L1577.82 1447.02 L1579.91 1446.85 L1582 1446.66 L1584.09 1446.43 L1586.18 1446.16 L1588.27 1445.84 L1590.36 1445.47 L1592.45 1445.04 L1594.53 1444.54 L1596.62 1443.96 L1598.71 1443.28 L1600.8 1442.5 L1602.89 1441.6 L1604.98 1440.57 L1607.07 1439.38 L1609.16 1438.01 L1611.25 1436.46 L1613.33 1434.68 L1615.42 1432.66 L1617.51 1430.37 L1619.6 1427.78 L1621.69 1424.85 L1623.78 1421.55 L1625.87 1417.84 L1627.96 1413.68 L1630.05 1409.03 L1632.13 1403.84 L1634.22 1398.07 L1636.31 1391.66 L1638.4 1384.56 L1640.49 1376.72 L1642.58 1368.09 L1644.67 1358.6 L1646.76 1348.2 L1648.85 1336.84 L1650.94 1324.45 L1653.02 1310.98 L1655.11 1296.38 L1657.2 1280.6 L1659.29 1263.59 L1661.38 1245.3 L1663.47 1225.7 L1665.56 1204.74 L1667.65 1182.42 L1669.74 1158.7 L1671.82 1133.59 L1673.91 1107.07 L1676 1079.16 L1678.09 1049.89 L1680.18 1019.29 L1682.27 987.405 L1684.36 954.302 L1686.45 920.056 L1688.54 884.758 L1690.63 848.516 L1692.71 811.451 L1694.8 773.698 L1696.89 735.409 L1698.98 696.748 L1701.07 657.892 L1703.16 619.031 L1705.25 580.367 L1707.34 542.108 L1709.43 504.473 L1711.51 467.686 L1713.6 431.974 L1715.69 397.568 L1717.78 364.695 L1719.87 333.584 L1721.96 304.454 L1724.05 277.519 L1726.14 252.981 L1728.23 231.03 L1730.31 211.84 L1732.4 195.57 L1734.49 182.357 L1736.58 172.317 L1738.67 165.544 L1740.76 162.106 L1742.85 162.047 L1744.94 165.384 L1747.03 172.106 L1749.12 182.179 L1751.2 195.538 L1753.29 212.094 L1755.38 231.734 L1757.47 254.32 L1759.56 279.691 L1761.65 307.669 L1763.74 338.053 L1765.83 370.631 L1767.92 405.175 L1770 441.448 L1772.09 479.204 L1774.18 518.193 L1776.27 558.162 L1778.36 598.859 L1780.45 640.035 L1782.54 681.448 L1784.63 722.864 L1786.72 764.058 L1788.81 804.818 L1790.89 844.948 L1792.98 884.265 L1795.07 922.605 L1797.16 959.818 L1799.25 995.778 L1801.34 1030.37 L1803.43 1063.51 L1805.52 1095.11 L1807.61 1125.13 L1809.69 1153.52 L1811.78 1180.26 L1813.87 1205.35 L1815.96 1228.79 L1818.05 1250.61 L1820.14 1270.82 L1822.23 1289.49 L1824.32 1306.65 L1826.41 1322.38 L1828.5 1336.72 L1830.58 1349.75 L1832.67 1361.55 L1834.76 1372.19 L1836.85 1381.75 L1838.94 1390.29 L1841.03 1397.91 L1843.12 1404.67 L1845.21 1410.65 L1847.3 1415.92 L1849.38 1420.54 L1851.47 1424.57 L1853.56 1428.08 L1855.65 1431.13 L1857.74 1433.76 L1859.83 1436.02 L1861.92 1437.95 L1864.01 1439.6 L1866.1 1441.01 L1868.18 1442.19 L1870.27 1443.19 L1872.36 1444.03 L1874.45 1444.73 L1876.54 1445.31 L1878.63 1445.8 L1880.72 1446.2 L1882.81 1446.52 L1884.9 1446.79 L1886.99 1447.01 L1889.07 1447.19 L1891.16 1447.33 L1893.25 1447.45 L1895.34 1447.54 L1897.43 1447.61 L1899.52 1447.67 L1901.61 1447.72 L1903.7 1447.75 L1905.79 1447.78 L1907.87 1447.8 L1909.96 1447.82 L1912.05 1447.83 L1914.14 1447.84 L1916.23 1447.85 L1918.32 1447.86 L1920.41 1447.86 L1922.5 1447.86 L1924.59 1447.87 L1926.68 1447.87 L1928.76 1447.87 L1930.85 1447.87 L1932.94 1447.87 L1935.03 1447.87 L1937.12 1447.87 L1939.21 1447.87 L1941.3 1447.87 L1943.39 1447.87 L1945.48 1447.87 L1947.56 1447.87 L1949.65 1447.87 L1951.74 1447.87 L1953.83 1447.87 L1955.92 1447.87 L1958.01 1447.87 L1960.1 1447.87 L1962.19 1447.87 L1964.28 1447.87 L1966.36 1447.87 L1968.45 1447.87 L1970.54 1447.87 L1972.63 1447.87 L1974.72 1447.87 L1976.81 1447.87 L1978.9 1447.87 L1980.99 1447.87 L1983.08 1447.87 L1985.17 1447.87 L1987.25 1447.87 L1989.34 1447.87 L1991.43 1447.87 L1993.52 1447.87 L1995.61 1447.87 L1997.7 1447.87 L1999.79 1447.87 L2001.88 1447.87 L2003.97 1447.87 L2006.05 1447.87 L2008.14 1447.87 L2010.23 1447.87 L2012.32 1447.87 L2014.41 1447.87 L2016.5 1447.87 L2018.59 1447.87 L2020.68 1447.87 L2022.77 1447.87 L2024.86 1447.87 L2026.94 1447.87 L2029.03 1447.87 L2031.12 1447.87 L2033.21 1447.87 L2035.3 1447.87 L2037.39 1447.87 L2039.48 1447.87 L2041.57 1447.87 L2043.66 1447.87 L2045.74 1447.87 L2047.83 1447.87 L2049.92 1447.87 L2052.01 1447.87 L2054.1 1447.87 L2056.19 1447.87 L2058.28 1447.87 L2060.37 1447.87 L2062.46 1447.87 L2064.55 1447.87 L2066.63 1447.87 L2068.72 1447.87 L2070.81 1447.87 L2072.9 1447.87 L2074.99 1447.87 L2077.08 1447.87 L2079.17 1447.87 L2081.26 1447.87 L2083.35 1447.87 L2085.43 1447.87 L2087.52 1447.87 L2089.61 1447.87 L2091.7 1447.87 L2093.79 1447.87 L2095.88 1447.87 L2097.97 1447.87 L2100.06 1447.87 L2102.15 1447.87 L2104.23 1447.87 L2106.32 1447.87 L2108.41 1447.87 L2110.5 1447.87 L2112.59 1447.87 L2114.68 1447.87 L2116.77 1447.87 L2118.86 1447.87 L2120.95 1447.87 L2123.04 1447.87 L2125.12 1447.87 L2127.21 1447.87 L2129.3 1447.87 L2131.39 1447.87 L2133.48 1447.87 L2135.57 1447.87 L2137.66 1447.87 L2139.75 1447.87 L2141.84 1447.87 L2143.92 1447.87 L2146.01 1447.87 L2148.1 1447.87 L2150.19 1447.87 L2152.28 1447.87 L2154.37 1447.87 L2156.46 1447.87 L2158.55 1447.87 L2160.64 1447.87 L2162.73 1447.87 L2164.81 1447.87 L2166.9 1447.87 L2168.99 1447.87 L2171.08 1447.87 L2173.17 1447.87 L2175.26 1447.87 L2177.35 1447.87 L2179.44 1447.87 L2181.53 1447.87 L2183.61 1447.87 L2185.7 1447.87 L2187.79 1447.87 L2189.88 1447.87 L2191.97 1447.87 L2194.06 1447.87 L2196.15 1447.87 L2198.24 1447.87 L2200.33 1447.87 L2202.42 1447.87 L2204.5 1447.87 L2206.59 1447.87 L2208.68 1447.87 L2210.77 1447.87 L2212.86 1447.87 L2214.95 1447.87 L2217.04 1447.87 L2219.13 1447.87 L2221.22 1447.87 L2223.3 1447.87 L2225.39 1447.87 L2227.48 1447.87 L2229.57 1447.87 L2231.66 1447.87 L2233.75 1447.87 L2235.84 1447.87 L2237.93 1447.87 L2240.02 1447.87 L2242.1 1447.87 L2244.19 1447.87 L2246.28 1447.87 L2248.37 1447.87 L2250.46 1447.87 L2252.55 1447.87 L2254.64 1447.87 L2256.73 1447.87 L2258.82 1447.87 L2260.91 1447.87 L2262.99 1447.87 L2265.08 1447.87 L2267.17 1447.87 L2269.26 1447.87 L2271.35 1447.87 L2273.44 1447.87 L2275.53 1447.87 L2277.62 1447.87 L2279.71 1447.87 L2281.79 1447.87 L2283.88 1447.87 L2285.97 1447.87 L2288.06 1447.87 L2290.15 1447.87 L2290.15 1447.87 L2288.06 1447.87 L2285.97 1447.87 L2283.88 1447.87 L2281.79 1447.87 L2279.71 1447.87 L2277.62 1447.87 L2275.53 1447.87 L2273.44 1447.87 L2271.35 1447.87 L2269.26 1447.87 L2267.17 1447.87 L2265.08 1447.87 L2262.99 1447.87 L2260.91 1447.87 L2258.82 1447.87 L2256.73 1447.87 L2254.64 1447.87 L2252.55 1447.87 L2250.46 1447.87 L2248.37 1447.87 L2246.28 1447.87 L2244.19 1447.87 L2242.1 1447.87 L2240.02 1447.87 L2237.93 1447.87 L2235.84 1447.87 L2233.75 1447.87 L2231.66 1447.87 L2229.57 1447.87 L2227.48 1447.87 L2225.39 1447.87 L2223.3 1447.87 L2221.22 1447.87 L2219.13 1447.87 L2217.04 1447.87 L2214.95 1447.87 L2212.86 1447.87 L2210.77 1447.87 L2208.68 1447.87 L2206.59 1447.87 L2204.5 1447.87 L2202.42 1447.87 L2200.33 1447.87 L2198.24 1447.87 L2196.15 1447.87 L2194.06 1447.87 L2191.97 1447.87 L2189.88 1447.87 L2187.79 1447.87 L2185.7 1447.87 L2183.61 1447.87 L2181.53 1447.87 L2179.44 1447.87 L2177.35 1447.87 L2175.26 1447.87 L2173.17 1447.87 L2171.08 1447.87 L2168.99 1447.87 L2166.9 1447.87 L2164.81 1447.87 L2162.73 1447.87 L2160.64 1447.87 L2158.55 1447.87 L2156.46 1447.87 L2154.37 1447.87 L2152.28 1447.87 L2150.19 1447.87 L2148.1 1447.87 L2146.01 1447.87 L2143.92 1447.87 L2141.84 1447.87 L2139.75 1447.87 L2137.66 1447.87 L2135.57 1447.87 L2133.48 1447.87 L2131.39 1447.87 L2129.3 1447.87 L2127.21 1447.87 L2125.12 1447.87 L2123.04 1447.87 L2120.95 1447.87 L2118.86 1447.87 L2116.77 1447.87 L2114.68 1447.87 L2112.59 1447.87 L2110.5 1447.87 L2108.41 1447.87 L2106.32 1447.87 L2104.23 1447.87 L2102.15 1447.87 L2100.06 1447.87 L2097.97 1447.87 L2095.88 1447.87 L2093.79 1447.87 L2091.7 1447.87 L2089.61 1447.87 L2087.52 1447.87 L2085.43 1447.87 L2083.35 1447.87 L2081.26 1447.87 L2079.17 1447.87 L2077.08 1447.87 L2074.99 1447.87 L2072.9 1447.87 L2070.81 1447.87 L2068.72 1447.87 L2066.63 1447.87 L2064.55 1447.87 L2062.46 1447.87 L2060.37 1447.87 L2058.28 1447.87 L2056.19 1447.87 L2054.1 1447.87 L2052.01 1447.87 L2049.92 1447.87 L2047.83 1447.87 L2045.74 1447.87 L2043.66 1447.87 L2041.57 1447.87 L2039.48 1447.87 L2037.39 1447.87 L2035.3 1447.87 L2033.21 1447.87 L2031.12 1447.87 L2029.03 1447.87 L2026.94 1447.87 L2024.86 1447.87 L2022.77 1447.87 L2020.68 1447.87 L2018.59 1447.87 L2016.5 1447.87 L2014.41 1447.87 L2012.32 1447.87 L2010.23 1447.87 L2008.14 1447.87 L2006.05 1447.87 L2003.97 1447.87 L2001.88 1447.87 L1999.79 1447.87 L1997.7 1447.87 L1995.61 1447.87 L1993.52 1447.87 L1991.43 1447.87 L1989.34 1447.87 L1987.25 1447.87 L1985.17 1447.87 L1983.08 1447.87 L1980.99 1447.87 L1978.9 1447.87 L1976.81 1447.87 L1974.72 1447.87 L1972.63 1447.87 L1970.54 1447.87 L1968.45 1447.87 L1966.36 1447.87 L1964.28 1447.87 L1962.19 1447.87 L1960.1 1447.87 L1958.01 1447.87 L1955.92 1447.87 L1953.83 1447.87 L1951.74 1447.87 L1949.65 1447.87 L1947.56 1447.87 L1945.48 1447.87 L1943.39 1447.87 L1941.3 1447.87 L1939.21 1447.87 L1937.12 1447.87 L1935.03 1447.87 L1932.94 1447.87 L1930.85 1447.87 L1928.76 1447.87 L1926.68 1447.87 L1924.59 1447.87 L1922.5 1447.87 L1920.41 1447.87 L1918.32 1447.87 L1916.23 1447.87 L1914.14 1447.87 L1912.05 1447.87 L1909.96 1447.87 L1907.87 1447.87 L1905.79 1447.87 L1903.7 1447.87 L1901.61 1447.87 L1899.52 1447.87 L1897.43 1447.87 L1895.34 1447.87 L1893.25 1447.87 L1891.16 1447.87 L1889.07 1447.87 L1886.99 1447.87 L1884.9 1447.87 L1882.81 1447.87 L1880.72 1447.87 L1878.63 1447.87 L1876.54 1447.87 L1874.45 1447.87 L1872.36 1447.87 L1870.27 1447.87 L1868.18 1447.87 L1866.1 1447.87 L1864.01 1447.87 L1861.92 1447.87 L1859.83 1447.87 L1857.74 1447.87 L1855.65 1447.87 L1853.56 1447.87 L1851.47 1447.87 L1849.38 1447.87 L1847.3 1447.87 L1845.21 1447.87 L1843.12 1447.87 L1841.03 1447.87 L1838.94 1447.87 L1836.85 1447.87 L1834.76 1447.87 L1832.67 1447.87 L1830.58 1447.87 L1828.5 1447.87 L1826.41 1447.87 L1824.32 1447.87 L1822.23 1447.87 L1820.14 1447.87 L1818.05 1447.87 L1815.96 1447.87 L1813.87 1447.87 L1811.78 1447.87 L1809.69 1447.87 L1807.61 1447.87 L1805.52 1447.87 L1803.43 1447.87 L1801.34 1447.87 L1799.25 1447.87 L1797.16 1447.87 L1795.07 1447.87 L1792.98 1447.87 L1790.89 1447.87 L1788.81 1447.87 L1786.72 1447.87 L1784.63 1447.87 L1782.54 1447.87 L1780.45 1447.87 L1778.36 1447.87 L1776.27 1447.87 L1774.18 1447.87 L1772.09 1447.87 L1770 1447.87 L1767.92 1447.87 L1765.83 1447.87 L1763.74 1447.87 L1761.65 1447.87 L1759.56 1447.87 L1757.47 1447.87 L1755.38 1447.87 L1753.29 1447.87 L1751.2 1447.87 L1749.12 1447.87 L1747.03 1447.87 L1744.94 1447.87 L1742.85 1447.87 L1740.76 1447.87 L1738.67 1447.87 L1736.58 1447.87 L1734.49 1447.87 L1732.4 1447.87 L1730.31 1447.87 L1728.23 1447.87 L1726.14 1447.87 L1724.05 1447.87 L1721.96 1447.87 L1719.87 1447.87 L1717.78 1447.87 L1715.69 1447.87 L1713.6 1447.87 L1711.51 1447.87 L1709.43 1447.87 L1707.34 1447.87 L1705.25 1447.87 L1703.16 1447.87 L1701.07 1447.87 L1698.98 1447.87 L1696.89 1447.87 L1694.8 1447.87 L1692.71 1447.87 L1690.63 1447.87 L1688.54 1447.87 L1686.45 1447.87 L1684.36 1447.87 L1682.27 1447.87 L1680.18 1447.87 L1678.09 1447.87 L1676 1447.87 L1673.91 1447.87 L1671.82 1447.87 L1669.74 1447.87 L1667.65 1447.87 L1665.56 1447.87 L1663.47 1447.87 L1661.38 1447.87 L1659.29 1447.87 L1657.2 1447.87 L1655.11 1447.87 L1653.02 1447.87 L1650.94 1447.87 L1648.85 1447.87 L1646.76 1447.87 L1644.67 1447.87 L1642.58 1447.87 L1640.49 1447.87 L1638.4 1447.87 L1636.31 1447.87 L1634.22 1447.87 L1632.13 1447.87 L1630.05 1447.87 L1627.96 1447.87 L1625.87 1447.87 L1623.78 1447.87 L1621.69 1447.87 L1619.6 1447.87 L1617.51 1447.87 L1615.42 1447.87 L1613.33 1447.87 L1611.25 1447.87 L1609.16 1447.87 L1607.07 1447.87 L1604.98 1447.87 L1602.89 1447.87 L1600.8 1447.87 L1598.71 1447.87 L1596.62 1447.87 L1594.53 1447.87 L1592.45 1447.87 L1590.36 1447.87 L1588.27 1447.87 L1586.18 1447.87 L1584.09 1447.87 L1582 1447.87 L1579.91 1447.87 L1577.82 1447.87 L1575.73 1447.87 L1573.64 1447.87 L1571.56 1447.87 L1569.47 1447.87 L1567.38 1447.87 L1565.29 1447.87 L1563.2 1447.87 L1561.11 1447.87 L1559.02 1447.87 L1556.93 1447.87 L1554.84 1447.87 L1552.76 1447.87 L1550.67 1447.87 L1548.58 1447.87 L1546.49 1447.87 L1544.4 1447.87 L1542.31 1447.87 L1540.22 1447.87 L1538.13 1447.87 L1536.04 1447.87 L1533.95 1447.87 L1531.87 1447.87 L1529.78 1447.87 L1527.69 1447.87 L1525.6 1447.87 L1523.51 1447.87 L1521.42 1447.87 L1519.33 1447.87 L1517.24 1447.87 L1515.15 1447.87 L1513.07 1447.87 L1510.98 1447.87 L1508.89 1447.87 L1506.8 1447.87 L1504.71 1447.87 L1502.62 1447.87 L1500.53 1447.87 L1498.44 1447.87 L1496.35 1447.87 L1494.26 1447.87 L1492.18 1447.87 L1490.09 1447.87 L1488 1447.87 L1485.91 1447.87 L1483.82 1447.87 L1481.73 1447.87 L1479.64 1447.87 L1477.55 1447.87 L1475.46 1447.87 L1473.38 1447.87 L1471.29 1447.87 L1469.2 1447.87 L1467.11 1447.87 L1465.02 1447.87 L1462.93 1447.87 L1460.84 1447.87 L1458.75 1447.87 L1456.66 1447.87 L1454.58 1447.87 L1452.49 1447.87 L1450.4 1447.87 L1448.31 1447.87 L1446.22 1447.87 L1444.13 1447.87 L1442.04 1447.87 L1439.95 1447.87 L1437.86 1447.87 L1435.77 1447.87 L1433.69 1447.87 L1431.6 1447.87 L1429.51 1447.87 L1427.42 1447.87 L1425.33 1447.87 L1423.24 1447.87 L1421.15 1447.87 L1419.06 1447.87 L1416.97 1447.87 L1414.89 1447.87 L1412.8 1447.87 L1410.71 1447.87 L1408.62 1447.87 L1406.53 1447.87 L1404.44 1447.87 L1402.35 1447.87 L1400.26 1447.87 L1398.17 1447.87 L1396.08 1447.87 L1394 1447.87 L1391.91 1447.87 L1389.82 1447.87 L1387.73 1447.87 L1385.64 1447.87 L1383.55 1447.87 L1381.46 1447.87 L1379.37 1447.87 L1377.28 1447.87 L1375.2 1447.87 L1373.11 1447.87 L1371.02 1447.87 L1368.93 1447.87 L1366.84 1447.87 L1364.75 1447.87 L1362.66 1447.87 L1360.57 1447.87 L1358.48 1447.87 L1356.39 1447.87 L1354.31 1447.87 L1352.22 1447.87 L1350.13 1447.87 L1348.04 1447.87 L1345.95 1447.87 L1343.86 1447.87 L1341.77 1447.87 L1339.68 1447.87 L1337.59 1447.87 L1335.51 1447.87 L1333.42 1447.87 L1331.33 1447.87 L1329.24 1447.87 L1327.15 1447.87 L1325.06 1447.87 L1322.97 1447.87 L1320.88 1447.87 L1318.79 1447.87 L1316.71 1447.87 L1314.62 1447.87 L1312.53 1447.87 L1310.44 1447.87 L1308.35 1447.87 L1306.26 1447.87 L1304.17 1447.87 L1302.08 1447.87 L1299.99 1447.87 L1297.9 1447.87 L1295.82 1447.87 L1293.73 1447.87 L1291.64 1447.87 L1289.55 1447.87 L1287.46 1447.87 L1285.37 1447.87 L1283.28 1447.87 L1281.19 1447.87 L1279.1 1447.87 L1277.02 1447.87 L1274.93 1447.87 L1272.84 1447.87 L1270.75 1447.87 L1268.66 1447.87 L1266.57 1447.87 L1264.48 1447.87 L1262.39 1447.87 L1260.3 1447.87 L1258.21 1447.87 L1256.13 1447.87 L1254.04 1447.87 L1251.95 1447.87 L1249.86 1447.87 L1247.77 1447.87 L1245.68 1447.87 L1243.59 1447.87 L1241.5 1447.87 L1239.41 1447.87 L1237.33 1447.87 L1235.24 1447.87 L1233.15 1447.87 L1231.06 1447.87 L1228.97 1447.87 L1226.88 1447.87 L1224.79 1447.87 L1222.7 1447.87 L1220.61 1447.87 L1218.53 1447.87 L1216.44 1447.87 L1214.35 1447.87 L1212.26 1447.87 L1210.17 1447.87 L1208.08 1447.87 L1205.99 1447.87 L1203.9 1447.87 L1201.81 1447.87 L1199.72 1447.87 L1197.64 1447.87 L1195.55 1447.87 L1193.46 1447.87 L1191.37 1447.87 L1189.28 1447.87 L1187.19 1447.87 L1185.1 1447.87 L1183.01 1447.87 L1180.92 1447.87 L1178.84 1447.87 L1176.75 1447.87 L1174.66 1447.87 L1172.57 1447.87 L1170.48 1447.87 L1168.39 1447.87 L1166.3 1447.87 L1164.21 1447.87 L1162.12 1447.87 L1160.03 1447.87 L1157.95 1447.87 L1155.86 1447.87 L1153.77 1447.87 L1151.68 1447.87 L1149.59 1447.87 L1147.5 1447.87 L1145.41 1447.87 L1143.32 1447.87 L1141.23 1447.87 L1139.15 1447.87 L1137.06 1447.87 L1134.97 1447.87 L1132.88 1447.87 L1130.79 1447.87 L1128.7 1447.87 L1126.61 1447.87 L1124.52 1447.87 L1122.43 1447.87 L1120.34 1447.87 L1118.26 1447.87 L1116.17 1447.87 L1114.08 1447.87 L1111.99 1447.87 L1109.9 1447.87 L1107.81 1447.87 L1105.72 1447.87 L1103.63 1447.87 L1101.54 1447.87 L1099.46 1447.87 L1097.37 1447.87 L1095.28 1447.87 L1093.19 1447.87 L1091.1 1447.87 L1089.01 1447.87 L1086.92 1447.87 L1084.83 1447.87 L1082.74 1447.87 L1080.66 1447.87 L1078.57 1447.87 L1076.48 1447.87 L1074.39 1447.87 L1072.3 1447.87 L1070.21 1447.87 L1068.12 1447.87 L1066.03 1447.87 L1063.94 1447.87 L1061.85 1447.87 L1059.77 1447.87 L1057.68 1447.87 L1055.59 1447.87 L1053.5 1447.87 L1051.41 1447.87 L1049.32 1447.87 L1047.23 1447.87 L1045.14 1447.87 L1043.05 1447.87 L1040.97 1447.87 L1038.88 1447.87 L1036.79 1447.87 L1034.7 1447.87 L1032.61 1447.87 L1030.52 1447.87 L1028.43 1447.87 L1026.34 1447.87 L1024.25 1447.87 L1022.16 1447.87 L1020.08 1447.87 L1017.99 1447.87 L1015.9 1447.87 L1013.81 1447.87 L1011.72 1447.87 L1009.63 1447.87 L1007.54 1447.87 L1005.45 1447.87 L1003.36 1447.87 L1001.28 1447.87 L999.187 1447.87 L997.098 1447.87 L995.009 1447.87 L992.92 1447.87 L990.831 1447.87 L988.742 1447.87 L986.653 1447.87 L984.564 1447.87 L982.475 1447.87 L980.386 1447.87 L978.297 1447.87 L976.208 1447.87 L974.119 1447.87 L972.03 1447.87 L969.941 1447.87 L967.852 1447.87 L965.764 1447.87 L963.675 1447.87 L961.586 1447.87 L959.497 1447.87 L957.408 1447.87 L955.319 1447.87 L953.23 1447.87 L951.141 1447.87 L949.052 1447.87 L946.963 1447.87 L944.874 1447.87 L942.785 1447.87 L940.696 1447.87 L938.607 1447.87 L936.518 1447.87 L934.429 1447.87 L932.341 1447.87 L930.252 1447.87 L928.163 1447.87 L926.074 1447.87 L923.985 1447.87 L921.896 1447.87 L919.807 1447.87 L917.718 1447.87 L915.629 1447.87 L913.54 1447.87 L911.451 1447.87 L909.362 1447.87 L907.273 1447.87 L905.184 1447.87 L903.095 1447.87 L901.006 1447.87 L898.917 1447.87 L896.829 1447.87 L894.74 1447.87 L892.651 1447.87 L890.562 1447.87 L888.473 1447.87 L886.384 1447.87 L884.295 1447.87 L882.206 1447.87 L880.117 1447.87 L878.028 1447.87 L875.939 1447.87 L873.85 1447.87 L871.761 1447.87 L869.672 1447.87 L867.583 1447.87 L865.494 1447.87 L863.406 1447.87 L861.317 1447.87 L859.228 1447.87 L857.139 1447.87 L855.05 1447.87 L852.961 1447.87 L850.872 1447.87 L848.783 1447.87 L846.694 1447.87 L844.605 1447.87 L842.516 1447.87 L840.427 1447.87 L838.338 1447.87 L836.249 1447.87 L834.16 1447.87 L832.071 1447.87 L829.983 1447.87 L827.894 1447.87 L825.805 1447.87 L823.716 1447.87 L821.627 1447.87 L819.538 1447.87 L817.449 1447.87 L815.36 1447.87 L813.271 1447.87 L811.182 1447.87 L809.093 1447.87 L807.004 1447.87 L804.915 1447.87 L802.826 1447.87 L800.737 1447.87 L798.648 1447.87 L796.56 1447.87 L794.471 1447.87 L792.382 1447.87 L790.293 1447.87 L788.204 1447.87 L786.115 1447.87 L784.026 1447.87 L781.937 1447.87 L779.848 1447.87 L777.759 1447.87 L775.67 1447.87 L773.581 1447.87 L771.492 1447.87 L769.403 1447.87 L767.314 1447.87 L765.225 1447.87 L763.136 1447.87 L761.048 1447.87 L758.959 1447.87 L756.87 1447.87 L754.781 1447.87 L752.692 1447.87 L750.603 1447.87 L748.514 1447.87 L746.425 1447.87 L744.336 1447.87 L742.247 1447.87 L740.158 1447.87 L738.069 1447.87 L735.98 1447.87 L733.891 1447.87 L731.802 1447.87 L729.713 1447.87 L727.625 1447.87 L725.536 1447.87 L723.447 1447.87 L721.358 1447.87 L719.269 1447.87 L717.18 1447.87 L715.091 1447.87 L713.002 1447.87 L710.913 1447.87 L708.824 1447.87 L706.735 1447.87 L704.646 1447.87 L702.557 1447.87 L700.468 1447.87 L698.379 1447.87 L696.29 1447.87 L694.202 1447.87 L692.113 1447.87 L690.024 1447.87 L687.935 1447.87 L685.846 1447.87 L683.757 1447.87 L681.668 1447.87 L679.579 1447.87 L677.49 1447.87 L675.401 1447.87 L673.312 1447.87 L671.223 1447.87 L669.134 1447.87 L667.045 1447.87 L664.956 1447.87 L662.867 1447.87 L660.779 1447.87 L658.69 1447.87 L656.601 1447.87 L654.512 1447.87 L652.423 1447.87 L650.334 1447.87 L648.245 1447.87 L646.156 1447.87 L644.067 1447.87 L641.978 1447.87 L639.889 1447.87 L637.8 1447.87 L635.711 1447.87 L633.622 1447.87 L631.533 1447.87 L629.444 1447.87 L627.356 1447.87 L625.267 1447.87 L623.178 1447.87 L621.089 1447.87 L619 1447.87 L616.911 1447.87 L614.822 1447.87 L612.733 1447.87 L610.644 1447.87 L608.555 1447.87 L606.466 1447.87 L604.377 1447.87 L602.288 1447.87 L600.199 1447.87 L598.11 1447.87 L596.021 1447.87 L593.932 1447.87 L591.844 1447.87 L589.755 1447.87 L587.666 1447.87 L585.577 1447.87 L583.488 1447.87 L581.399 1447.87 L579.31 1447.87 L577.221 1447.87 L575.132 1447.87 L573.043 1447.87 L570.954 1447.87 L568.865 1447.87 L566.776 1447.87 L564.687 1447.87 L562.598 1447.87 L560.509 1447.87 L558.421 1447.87 L556.332 1447.87 L554.243 1447.87 L552.154 1447.87 L550.065 1447.87 L547.976 1447.87 L545.887 1447.87 L543.798 1447.87 L541.709 1447.87 L539.62 1447.87 L537.531 1447.87 L535.442 1447.87 L533.353 1447.87 L531.264 1447.87 L529.175 1447.87 L527.086 1447.87 L524.998 1447.87 L522.909 1447.87 L520.82 1447.87 L518.731 1447.87 L516.642 1447.87 L514.553 1447.87 L512.464 1447.87 L510.375 1447.87 L508.286 1447.87 L506.197 1447.87 L504.108 1447.87 L502.019 1447.87 L499.93 1447.87 L497.841 1447.87 L495.752 1447.87 L493.663 1447.87 L491.575 1447.87 L489.486 1447.87 L487.397 1447.87 L485.308 1447.87 L483.219 1447.87 L481.13 1447.87 L479.041 1447.87 L476.952 1447.87 L474.863 1447.87 L472.774 1447.87 L470.685 1447.87 L468.596 1447.87 L466.507 1447.87 L464.418 1447.87 L462.329 1447.87 L460.24 1447.87 L458.152 1447.87 L456.063 1447.87 L453.974 1447.87 L451.885 1447.87 L449.796 1447.87 L447.707 1447.87 L445.618 1447.87 L443.529 1447.87 L441.44 1447.87 L439.351 1447.87 L437.262 1447.87 L435.173 1447.87 L433.084 1447.87 L430.995 1447.87 L428.906 1447.87 L426.817 1447.87 L424.728 1447.87 L422.64 1447.87 L420.551 1447.87 L418.462 1447.87 L416.373 1447.87 L414.284 1447.87 L412.195 1447.87 L410.106 1447.87 L408.017 1447.87 L405.928 1447.87 L403.839 1447.87 L401.75 1447.87 L399.661 1447.87 L397.572 1447.87 L395.483 1447.87 L393.394 1447.87 L391.305 1447.87 L389.217 1447.87 L387.128 1447.87 L385.039 1447.87 L382.95 1447.87 L380.861 1447.87 L378.772 1447.87 L376.683 1447.87 L374.594 1447.87 L372.505 1447.87 L370.416 1447.87 L368.327 1447.87 L366.238 1447.87 L364.149 1447.87 L362.06 1447.87 L359.971 1447.87 L357.882 1447.87 L355.794 1447.87 L353.705 1447.87 L351.616 1447.87 L349.527 1447.87 L347.438 1447.87 L345.349 1447.87 L343.26 1447.87 L341.171 1447.87 L339.082 1447.87 L336.993 1447.87 L334.904 1447.87 L332.815 1447.87 L330.726 1447.87 L328.637 1447.87 L326.548 1447.87 L324.459 1447.87 L322.371 1447.87 L320.282 1447.87 L318.193 1447.87 L316.104 1447.87 L314.015 1447.87 L311.926 1447.87 L309.837 1447.87 L307.748 1447.87 L305.659 1447.87 L303.57 1447.87 L301.481 1447.87 L299.392 1447.87 L297.303 1447.87 L295.214 1447.87 L293.125 1447.87 L291.036 1447.87 L288.947 1447.87 L286.859 1447.87 L284.77 1447.87 L282.681 1447.87 L280.592 1447.87 L278.503 1447.87 L276.414 1447.87 L274.325 1447.87 L272.236 1447.87 L270.147 1447.87 L268.058 1447.87 L265.969 1447.87 L263.88 1447.87 L261.791 1447.87 L259.702 1447.87 L257.613 1447.87 L255.524 1447.87 L253.436 1447.87 L251.347 1447.87 L249.258 1447.87 L247.169 1447.87 L245.08 1447.87 L242.991 1447.87 L240.902 1447.87 L238.813 1447.87 L236.724 1447.87 L234.635 1447.87 L232.546 1447.87 L230.457 1447.87 L228.368 1447.87 L226.279 1447.87 L224.19 1447.87 L222.101 1447.87 L220.013 1447.87 L217.924 1447.87 L215.835 1447.87 L213.746 1447.87 L211.657 1447.87 L209.568 1447.87 L207.479 1447.87 L205.39 1447.87 L203.301 1447.87  Z" fill="#3da44d" fill-rule="evenodd" fill-opacity="0.3"/>
<polyline clip-path="url(#clip992)" style="stroke:#3da44d; stroke-linecap:round; stroke-linejoin:round; stroke-width:4; stroke-opacity:1; fill:none" points="203.301,1447.87 205.39,1447.87 207.479,1447.87 209.568,1447.87 211.657,1447.87 213.746,1447.87 215.835,1447.87 217.924,1447.87 220.013,1447.87 222.101,1447.87 224.19,1447.87 226.279,1447.87 228.368,1447.87 230.457,1447.87 232.546,1447.87 234.635,1447.87 236.724,1447.87 238.813,1447.87 240.902,1447.87 242.991,1447.87 245.08,1447.87 247.169,1447.87 249.258,1447.87 251.347,1447.87 253.436,1447.87 255.524,1447.87 257.613,1447.87 259.702,1447.87 261.791,1447.87 263.88,1447.87 265.969,1447.87 268.058,1447.87 270.147,1447.87 272.236,1447.87 274.325,1447.87 276.414,1447.87 278.503,1447.87 280.592,1447.87 282.681,1447.87 284.77,1447.87 286.859,1447.87 288.947,1447.87 291.036,1447.87 293.125,1447.87 295.214,1447.87 297.303,1447.87 299.392,1447.87 301.481,1447.87 303.57,1447.87 305.659,1447.87 307.748,1447.87 309.837,1447.87 311.926,1447.87 314.015,1447.87 316.104,1447.87 318.193,1447.87 320.282,1447.87 322.371,1447.87 324.459,1447.87 326.548,1447.87 328.637,1447.87 330.726,1447.87 332.815,1447.87 334.904,1447.87 336.993,1447.87 339.082,1447.87 341.171,1447.87 343.26,1447.87 345.349,1447.87 347.438,1447.87 349.527,1447.87 351.616,1447.87 353.705,1447.87 355.794,1447.87 357.882,1447.87 359.971,1447.87 362.06,1447.87 364.149,1447.87 366.238,1447.87 368.327,1447.87 370.416,1447.87 372.505,1447.87 374.594,1447.87 376.683,1447.87 378.772,1447.87 380.861,1447.87 382.95,1447.87 385.039,1447.87 387.128,1447.87 389.217,1447.87 391.305,1447.87 393.394,1447.87 395.483,1447.87 397.572,1447.87 399.661,1447.87 401.75,1447.87 403.839,1447.87 405.928,1447.87 408.017,1447.87 410.106,1447.87 412.195,1447.87 414.284,1447.87 416.373,1447.87 418.462,1447.87 420.551,1447.87 422.64,1447.87 424.728,1447.87 426.817,1447.87 428.906,1447.87 430.995,1447.87 433.084,1447.87 435.173,1447.87 437.262,1447.87 439.351,1447.87 441.44,1447.87 443.529,1447.87 445.618,1447.87 447.707,1447.87 449.796,1447.87 451.885,1447.87 453.974,1447.87 456.063,1447.87 458.152,1447.87 460.24,1447.87 462.329,1447.87 464.418,1447.87 466.507,1447.87 468.596,1447.87 470.685,1447.87 472.774,1447.87 474.863,1447.87 476.952,1447.87 479.041,1447.87 481.13,1447.87 483.219,1447.87 485.308,1447.87 487.397,1447.87 489.486,1447.87 491.575,1447.87 493.663,1447.87 495.752,1447.87 497.841,1447.87 499.93,1447.87 502.019,1447.87 504.108,1447.87 506.197,1447.87 508.286,1447.87 510.375,1447.87 512.464,1447.87 514.553,1447.87 516.642,1447.87 518.731,1447.87 520.82,1447.87 522.909,1447.87 524.998,1447.87 527.086,1447.87 529.175,1447.87 531.264,1447.87 533.353,1447.87 535.442,1447.87 537.531,1447.87 539.62,1447.87 541.709,1447.87 543.798,1447.87 545.887,1447.87 547.976,1447.87 550.065,1447.87 552.154,1447.87 554.243,1447.87 556.332,1447.87 558.421,1447.87 560.509,1447.87 562.598,1447.87 564.687,1447.87 566.776,1447.87 568.865,1447.87 570.954,1447.87 573.043,1447.87 575.132,1447.87 577.221,1447.87 579.31,1447.87 581.399,1447.87 583.488,1447.87 585.577,1447.87 587.666,1447.87 589.755,1447.87 591.844,1447.87 593.932,1447.87 596.021,1447.87 598.11,1447.87 600.199,1447.87 602.288,1447.87 604.377,1447.87 606.466,1447.87 608.555,1447.87 610.644,1447.87 612.733,1447.87 614.822,1447.87 616.911,1447.87 619,1447.87 621.089,1447.87 623.178,1447.87 625.267,1447.87 627.356,1447.87 629.444,1447.87 631.533,1447.87 633.622,1447.87 635.711,1447.87 637.8,1447.87 639.889,1447.87 641.978,1447.87 644.067,1447.87 646.156,1447.87 648.245,1447.87 650.334,1447.87 652.423,1447.87 654.512,1447.87 656.601,1447.87 658.69,1447.87 660.779,1447.87 662.867,1447.87 664.956,1447.87 667.045,1447.87 669.134,1447.87 671.223,1447.87 673.312,1447.87 675.401,1447.87 677.49,1447.87 679.579,1447.87 681.668,1447.87 683.757,1447.87 685.846,1447.87 687.935,1447.87 690.024,1447.87 692.113,1447.87 694.202,1447.87 696.29,1447.87 698.379,1447.87 700.468,1447.87 702.557,1447.87 704.646,1447.87 706.735,1447.87 708.824,1447.87 710.913,1447.87 713.002,1447.87 715.091,1447.87 717.18,1447.87 719.269,1447.87 721.358,1447.87 723.447,1447.87 725.536,1447.87 727.625,1447.87 729.713,1447.87 731.802,1447.87 733.891,1447.87 735.98,1447.87 738.069,1447.87 740.158,1447.87 742.247,1447.87 744.336,1447.87 746.425,1447.87 748.514,1447.87 750.603,1447.87 752.692,1447.87 754.781,1447.87 756.87,1447.87 758.959,1447.87 761.048,1447.87 763.136,1447.87 765.225,1447.87 767.314,1447.87 769.403,1447.87 771.492,1447.87 773.581,1447.87 775.67,1447.87 777.759,1447.87 779.848,1447.87 781.937,1447.87 784.026,1447.87 786.115,1447.87 788.204,1447.87 790.293,1447.87 792.382,1447.87 794.471,1447.87 796.56,1447.87 798.648,1447.87 800.737,1447.87 802.826,1447.87 804.915,1447.87 807.004,1447.87 809.093,1447.87 811.182,1447.87 813.271,1447.87 815.36,1447.87 817.449,1447.87 819.538,1447.87 821.627,1447.87 823.716,1447.87 825.805,1447.87 827.894,1447.87 829.983,1447.87 832.071,1447.87 834.16,1447.87 836.249,1447.87 838.338,1447.87 840.427,1447.87 842.516,1447.87 844.605,1447.87 846.694,1447.87 848.783,1447.87 850.872,1447.87 852.961,1447.87 855.05,1447.87 857.139,1447.87 859.228,1447.87 861.317,1447.87 863.406,1447.87 865.494,1447.87 867.583,1447.87 869.672,1447.87 871.761,1447.87 873.85,1447.87 875.939,1447.87 878.028,1447.87 880.117,1447.87 882.206,1447.87 884.295,1447.87 886.384,1447.87 888.473,1447.87 890.562,1447.87 892.651,1447.87 894.74,1447.87 896.829,1447.87 898.917,1447.87 901.006,1447.87 903.095,1447.87 905.184,1447.87 907.273,1447.87 909.362,1447.87 911.451,1447.87 913.54,1447.87 915.629,1447.87 917.718,1447.87 919.807,1447.87 921.896,1447.87 923.985,1447.87 926.074,1447.87 928.163,1447.87 930.252,1447.87 932.341,1447.87 934.429,1447.87 936.518,1447.87 938.607,1447.87 940.696,1447.87 942.785,1447.87 944.874,1447.87 946.963,1447.87 949.052,1447.87 951.141,1447.87 953.23,1447.87 955.319,1447.87 957.408,1447.87 959.497,1447.87 961.586,1447.87 963.675,1447.87 965.764,1447.87 967.852,1447.87 969.941,1447.87 972.03,1447.87 974.119,1447.87 976.208,1447.87 978.297,1447.87 980.386,1447.87 982.475,1447.87 984.564,1447.87 986.653,1447.87 988.742,1447.87 990.831,1447.87 992.92,1447.87 995.009,1447.87 997.098,1447.87 999.187,1447.87 1001.28,1447.87 1003.36,1447.87 1005.45,1447.87 1007.54,1447.87 1009.63,1447.87 1011.72,1447.87 1013.81,1447.87 1015.9,1447.87 1017.99,1447.87 1020.08,1447.87 1022.16,1447.87 1024.25,1447.87 1026.34,1447.87 1028.43,1447.87 1030.52,1447.87 1032.61,1447.87 1034.7,1447.87 1036.79,1447.87 1038.88,1447.87 1040.97,1447.87 1043.05,1447.87 1045.14,1447.87 1047.23,1447.87 1049.32,1447.87 1051.41,1447.87 1053.5,1447.87 1055.59,1447.87 1057.68,1447.87 1059.77,1447.87 1061.85,1447.87 1063.94,1447.87 1066.03,1447.87 1068.12,1447.87 1070.21,1447.87 1072.3,1447.87 1074.39,1447.87 1076.48,1447.87 1078.57,1447.87 1080.66,1447.87 1082.74,1447.87 1084.83,1447.87 1086.92,1447.87 1089.01,1447.87 1091.1,1447.87 1093.19,1447.87 1095.28,1447.87 1097.37,1447.87 1099.46,1447.87 1101.54,1447.87 1103.63,1447.87 1105.72,1447.87 1107.81,1447.87 1109.9,1447.87 1111.99,1447.87 1114.08,1447.87 1116.17,1447.87 1118.26,1447.87 1120.34,1447.87 1122.43,1447.87 1124.52,1447.87 1126.61,1447.87 1128.7,1447.87 1130.79,1447.87 1132.88,1447.87 1134.97,1447.87 1137.06,1447.87 1139.15,1447.87 1141.23,1447.87 1143.32,1447.87 1145.41,1447.87 1147.5,1447.87 1149.59,1447.87 1151.68,1447.87 1153.77,1447.87 1155.86,1447.87 1157.95,1447.87 1160.03,1447.87 1162.12,1447.87 1164.21,1447.87 1166.3,1447.87 1168.39,1447.87 1170.48,1447.87 1172.57,1447.87 1174.66,1447.87 1176.75,1447.87 1178.84,1447.87 1180.92,1447.87 1183.01,1447.87 1185.1,1447.87 1187.19,1447.87 1189.28,1447.87 1191.37,1447.87 1193.46,1447.87 1195.55,1447.87 1197.64,1447.87 1199.72,1447.87 1201.81,1447.87 1203.9,1447.87 1205.99,1447.87 1208.08,1447.87 1210.17,1447.87 1212.26,1447.87 1214.35,1447.87 1216.44,1447.87 1218.53,1447.87 1220.61,1447.87 1222.7,1447.87 1224.79,1447.87 1226.88,1447.87 1228.97,1447.87 1231.06,1447.87 1233.15,1447.87 1235.24,1447.87 1237.33,1447.87 1239.41,1447.87 1241.5,1447.87 1243.59,1447.87 1245.68,1447.87 1247.77,1447.87 1249.86,1447.87 1251.95,1447.87 1254.04,1447.87 1256.13,1447.87 1258.21,1447.87 1260.3,1447.87 1262.39,1447.87 1264.48,1447.87 1266.57,1447.87 1268.66,1447.87 1270.75,1447.87 1272.84,1447.87 1274.93,1447.87 1277.02,1447.87 1279.1,1447.87 1281.19,1447.87 1283.28,1447.87 1285.37,1447.87 1287.46,1447.87 1289.55,1447.87 1291.64,1447.87 1293.73,1447.87 1295.82,1447.87 1297.9,1447.87 1299.99,1447.87 1302.08,1447.87 1304.17,1447.87 1306.26,1447.87 1308.35,1447.87 1310.44,1447.87 1312.53,1447.87 1314.62,1447.87 1316.71,1447.87 1318.79,1447.87 1320.88,1447.87 1322.97,1447.87 1325.06,1447.87 1327.15,1447.87 1329.24,1447.87 1331.33,1447.87 1333.42,1447.87 1335.51,1447.87 1337.59,1447.87 1339.68,1447.87 1341.77,1447.87 1343.86,1447.87 1345.95,1447.87 1348.04,1447.87 1350.13,1447.87 1352.22,1447.87 1354.31,1447.87 1356.39,1447.87 1358.48,1447.87 1360.57,1447.87 1362.66,1447.87 1364.75,1447.87 1366.84,1447.87 1368.93,1447.87 1371.02,1447.87 1373.11,1447.87 1375.2,1447.87 1377.28,1447.87 1379.37,1447.87 1381.46,1447.87 1383.55,1447.87 1385.64,1447.87 1387.73,1447.87 1389.82,1447.87 1391.91,1447.87 1394,1447.87 1396.08,1447.87 1398.17,1447.87 1400.26,1447.87 1402.35,1447.87 1404.44,1447.87 1406.53,1447.87 1408.62,1447.87 1410.71,1447.87 1412.8,1447.87 1414.89,1447.87 1416.97,1447.87 1419.06,1447.87 1421.15,1447.87 1423.24,1447.87 1425.33,1447.87 1427.42,1447.87 1429.51,1447.87 1431.6,1447.87 1433.69,1447.87 1435.77,1447.87 1437.86,1447.87 1439.95,1447.87 1442.04,1447.87 1444.13,1447.87 1446.22,1447.87 1448.31,1447.87 1450.4,1447.87 1452.49,1447.87 1454.58,1447.87 1456.66,1447.87 1458.75,1447.87 1460.84,1447.87 1462.93,1447.87 1465.02,1447.87 1467.11,1447.87 1469.2,1447.87 1471.29,1447.87 1473.38,1447.87 1475.46,1447.87 1477.55,1447.87 1479.64,1447.87 1481.73,1447.87 1483.82,1447.87 1485.91,1447.87 1488,1447.87 1490.09,1447.87 1492.18,1447.87 1494.26,1447.87 1496.35,1447.87 1498.44,1447.87 1500.53,1447.87 1502.62,1447.87 1504.71,1447.87 1506.8,1447.87 1508.89,1447.87 1510.98,1447.87 1513.07,1447.87 1515.15,1447.87 1517.24,1447.87 1519.33,1447.87 1521.42,1447.87 1523.51,1447.87 1525.6,1447.87 1527.69,1447.87 1529.78,1447.86 1531.87,1447.86 1533.95,1447.86 1536.04,1447.86 1538.13,1447.85 1540.22,1447.85 1542.31,1447.84 1544.4,1447.84 1546.49,1447.83 1548.58,1447.82 1550.67,1447.8 1552.76,1447.79 1554.84,1447.77 1556.93,1447.74 1559.02,1447.72 1561.11,1447.68 1563.2,1447.64 1565.29,1447.59 1567.38,1447.53 1569.47,1447.46 1571.56,1447.38 1573.64,1447.28 1575.73,1447.16 1577.82,1447.02 1579.91,1446.85 1582,1446.66 1584.09,1446.43 1586.18,1446.16 1588.27,1445.84 1590.36,1445.47 1592.45,1445.04 1594.53,1444.54 1596.62,1443.96 1598.71,1443.28 1600.8,1442.5 1602.89,1441.6 1604.98,1440.57 1607.07,1439.38 1609.16,1438.01 1611.25,1436.46 1613.33,1434.68 1615.42,1432.66 1617.51,1430.37 1619.6,1427.78 1621.69,1424.85 1623.78,1421.55 1625.87,1417.84 1627.96,1413.68 1630.05,1409.03 1632.13,1403.84 1634.22,1398.07 1636.31,1391.66 1638.4,1384.56 1640.49,1376.72 1642.58,1368.09 1644.67,1358.6 1646.76,1348.2 1648.85,1336.84 1650.94,1324.45 1653.02,1310.98 1655.11,1296.38 1657.2,1280.6 1659.29,1263.59 1661.38,1245.3 1663.47,1225.7 1665.56,1204.74 1667.65,1182.42 1669.74,1158.7 1671.82,1133.59 1673.91,1107.07 1676,1079.16 1678.09,1049.89 1680.18,1019.29 1682.27,987.405 1684.36,954.302 1686.45,920.056 1688.54,884.758 1690.63,848.516 1692.71,811.451 1694.8,773.698 1696.89,735.409 1698.98,696.748 1701.07,657.892 1703.16,619.031 1705.25,580.367 1707.34,542.108 1709.43,504.473 1711.51,467.686 1713.6,431.974 1715.69,397.568 1717.78,364.695 1719.87,333.584 1721.96,304.454 1724.05,277.519 1726.14,252.981 1728.23,231.03 1730.31,211.84 1732.4,195.57 1734.49,182.357 1736.58,172.317 1738.67,165.544 1740.76,162.106 1742.85,162.047 1744.94,165.384 1747.03,172.106 1749.12,182.179 1751.2,195.538 1753.29,212.094 1755.38,231.734 1757.47,254.32 1759.56,279.691 1761.65,307.669 1763.74,338.053 1765.83,370.631 1767.92,405.175 1770,441.448 1772.09,479.204 1774.18,518.193 1776.27,558.162 1778.36,598.859 1780.45,640.035 1782.54,681.448 1784.63,722.864 1786.72,764.058 1788.81,804.818 1790.89,844.948 1792.98,884.265 1795.07,922.605 1797.16,959.818 1799.25,995.778 1801.34,1030.37 1803.43,1063.51 1805.52,1095.11 1807.61,1125.13 1809.69,1153.52 1811.78,1180.26 1813.87,1205.35 1815.96,1228.79 1818.05,1250.61 1820.14,1270.82 1822.23,1289.49 1824.32,1306.65 1826.41,1322.38 1828.5,1336.72 1830.58,1349.75 1832.67,1361.55 1834.76,1372.19 1836.85,1381.75 1838.94,1390.29 1841.03,1397.91 1843.12,1404.67 1845.21,1410.65 1847.3,1415.92 1849.38,1420.54 1851.47,1424.57 1853.56,1428.08 1855.65,1431.13 1857.74,1433.76 1859.83,1436.02 1861.92,1437.95 1864.01,1439.6 1866.1,1441.01 1868.18,1442.19 1870.27,1443.19 1872.36,1444.03 1874.45,1444.73 1876.54,1445.31 1878.63,1445.8 1880.72,1446.2 1882.81,1446.52 1884.9,1446.79 1886.99,1447.01 1889.07,1447.19 1891.16,1447.33 1893.25,1447.45 1895.34,1447.54 1897.43,1447.61 1899.52,1447.67 1901.61,1447.72 1903.7,1447.75 1905.79,1447.78 1907.87,1447.8 1909.96,1447.82 1912.05,1447.83 1914.14,1447.84 1916.23,1447.85 1918.32,1447.86 1920.41,1447.86 1922.5,1447.86 1924.59,1447.87 1926.68,1447.87 1928.76,1447.87 1930.85,1447.87 1932.94,1447.87 1935.03,1447.87 1937.12,1447.87 1939.21,1447.87 1941.3,1447.87 1943.39,1447.87 1945.48,1447.87 1947.56,1447.87 1949.65,1447.87 1951.74,1447.87 1953.83,1447.87 1955.92,1447.87 1958.01,1447.87 1960.1,1447.87 1962.19,1447.87 1964.28,1447.87 1966.36,1447.87 1968.45,1447.87 1970.54,1447.87 1972.63,1447.87 1974.72,1447.87 1976.81,1447.87 1978.9,1447.87 1980.99,1447.87 1983.08,1447.87 1985.17,1447.87 1987.25,1447.87 1989.34,1447.87 1991.43,1447.87 1993.52,1447.87 1995.61,1447.87 1997.7,1447.87 1999.79,1447.87 2001.88,1447.87 2003.97,1447.87 2006.05,1447.87 2008.14,1447.87 2010.23,1447.87 2012.32,1447.87 2014.41,1447.87 2016.5,1447.87 2018.59,1447.87 2020.68,1447.87 2022.77,1447.87 2024.86,1447.87 2026.94,1447.87 2029.03,1447.87 2031.12,1447.87 2033.21,1447.87 2035.3,1447.87 2037.39,1447.87 2039.48,1447.87 2041.57,1447.87 2043.66,1447.87 2045.74,1447.87 2047.83,1447.87 2049.92,1447.87 2052.01,1447.87 2054.1,1447.87 2056.19,1447.87 2058.28,1447.87 2060.37,1447.87 2062.46,1447.87 2064.55,1447.87 2066.63,1447.87 2068.72,1447.87 2070.81,1447.87 2072.9,1447.87 2074.99,1447.87 2077.08,1447.87 2079.17,1447.87 2081.26,1447.87 2083.35,1447.87 2085.43,1447.87 2087.52,1447.87 2089.61,1447.87 2091.7,1447.87 2093.79,1447.87 2095.88,1447.87 2097.97,1447.87 2100.06,1447.87 2102.15,1447.87 2104.23,1447.87 2106.32,1447.87 2108.41,1447.87 2110.5,1447.87 2112.59,1447.87 2114.68,1447.87 2116.77,1447.87 2118.86,1447.87 2120.95,1447.87 2123.04,1447.87 2125.12,1447.87 2127.21,1447.87 2129.3,1447.87 2131.39,1447.87 2133.48,1447.87 2135.57,1447.87 2137.66,1447.87 2139.75,1447.87 2141.84,1447.87 2143.92,1447.87 2146.01,1447.87 2148.1,1447.87 2150.19,1447.87 2152.28,1447.87 2154.37,1447.87 2156.46,1447.87 2158.55,1447.87 2160.64,1447.87 2162.73,1447.87 2164.81,1447.87 2166.9,1447.87 2168.99,1447.87 2171.08,1447.87 2173.17,1447.87 2175.26,1447.87 2177.35,1447.87 2179.44,1447.87 2181.53,1447.87 2183.61,1447.87 2185.7,1447.87 2187.79,1447.87 2189.88,1447.87 2191.97,1447.87 2194.06,1447.87 2196.15,1447.87 2198.24,1447.87 2200.33,1447.87 2202.42,1447.87 2204.5,1447.87 2206.59,1447.87 2208.68,1447.87 2210.77,1447.87 2212.86,1447.87 2214.95,1447.87 2217.04,1447.87 2219.13,1447.87 2221.22,1447.87 2223.3,1447.87 2225.39,1447.87 2227.48,1447.87 2229.57,1447.87 2231.66,1447.87 2233.75,1447.87 2235.84,1447.87 2237.93,1447.87 2240.02,1447.87 2242.1,1447.87 2244.19,1447.87 2246.28,1447.87 2248.37,1447.87 2250.46,1447.87 2252.55,1447.87 2254.64,1447.87 2256.73,1447.87 2258.82,1447.87 2260.91,1447.87 2262.99,1447.87 2265.08,1447.87 2267.17,1447.87 2269.26,1447.87 2271.35,1447.87 2273.44,1447.87 2275.53,1447.87 2277.62,1447.87 2279.71,1447.87 2281.79,1447.87 2283.88,1447.87 2285.97,1447.87 2288.06,1447.87 2290.15,1447.87 "/>
<polyline clip-path="url(#clip992)" style="stroke:#e26f46; stroke-linecap:round; stroke-linejoin:round; stroke-width:4; stroke-opacity:1; fill:none" points="1768.44,2849.42 1768.44,-1239.5 "/>
<path clip-path="url(#clip990)" d="M1917.98 324.425 L2279.02 324.425 L2279.02 168.905 L1917.98 168.905  Z" fill="#ffffff" fill-rule="evenodd" fill-opacity="1"/>
<polyline clip-path="url(#clip990)" style="stroke:#000000; stroke-linecap:round; stroke-linejoin:round; stroke-width:4; stroke-opacity:1; fill:none" points="1917.98,324.425 2279.02,324.425 2279.02,168.905 1917.98,168.905 1917.98,324.425 "/>
<path clip-path="url(#clip990)" d="M1942.56 241.481 L2090.03 241.481 L2090.03 200.009 L1942.56 200.009 L1942.56 241.481  Z" fill="#3da44d" fill-rule="evenodd" fill-opacity="0.3"/>
<polyline clip-path="url(#clip990)" style="stroke:#3da44d; stroke-linecap:round; stroke-linejoin:round; stroke-width:4; stroke-opacity:1; fill:none" points="1942.56,200.009 2090.03,200.009 "/>
<path clip-path="url(#clip990)" d="M2118.89 234.136 L2118.89 247.886 L2114.6 247.886 L2114.6 212.099 L2118.89 212.099 L2118.89 216.034 Q2120.23 213.719 2122.27 212.608 Q2124.33 211.474 2127.17 211.474 Q2131.9 211.474 2134.84 215.224 Q2137.8 218.974 2137.8 225.085 Q2137.8 231.196 2134.84 234.946 Q2131.9 238.696 2127.17 238.696 Q2124.33 238.696 2122.27 237.585 Q2120.23 236.451 2118.89 234.136 M2133.38 225.085 Q2133.38 220.386 2131.43 217.724 Q2129.51 215.039 2126.13 215.039 Q2122.75 215.039 2120.81 217.724 Q2118.89 220.386 2118.89 225.085 Q2118.89 229.784 2120.81 232.469 Q2122.75 235.131 2126.13 235.131 Q2129.51 235.131 2131.43 232.469 Q2133.38 229.784 2133.38 225.085 Z" fill="#000000" fill-rule="nonzero" fill-opacity="1" /><path clip-path="url(#clip990)" d="M2155.09 202.053 Q2151.99 207.377 2150.48 212.585 Q2148.98 217.793 2148.98 223.14 Q2148.98 228.488 2150.48 233.742 Q2152.01 238.974 2155.09 244.275 L2151.39 244.275 Q2147.91 238.835 2146.18 233.58 Q2144.47 228.326 2144.47 223.14 Q2144.47 217.978 2146.18 212.747 Q2147.89 207.516 2151.39 202.053 L2155.09 202.053 Z" fill="#000000" fill-rule="nonzero" fill-opacity="1" /><path clip-path="url(#clip990)" d="M2160.6 212.099 L2185.44 212.099 L2185.44 216.358 L2182.17 216.358 L2182.17 232.284 Q2182.17 233.951 2182.73 234.691 Q2183.31 235.409 2184.58 235.409 Q2184.93 235.409 2185.44 235.363 Q2185.95 235.293 2186.11 235.27 L2186.11 238.349 Q2185.3 238.65 2184.44 238.789 Q2183.59 238.927 2182.73 238.927 Q2179.95 238.927 2178.89 237.423 Q2177.82 235.895 2177.82 231.821 L2177.82 216.358 L2168.26 216.358 L2168.26 238.025 L2163.91 238.025 L2163.91 216.358 L2160.6 216.358 L2160.6 212.099 Z" fill="#000000" fill-rule="nonzero" fill-opacity="1" /><path clip-path="url(#clip990)" d="M2197.38 201.798 L2197.38 249.205 L2193.45 249.205 L2193.45 201.798 L2197.38 201.798 Z" fill="#000000" fill-rule="nonzero" fill-opacity="1" /><path clip-path="url(#clip990)" d="M2229.42 212.099 L2220.04 224.715 L2229.91 238.025 L2224.88 238.025 L2217.34 227.84 L2209.79 238.025 L2204.77 238.025 L2214.84 224.46 L2205.62 212.099 L2210.65 212.099 L2217.52 221.335 L2224.4 212.099 L2229.42 212.099 Z" fill="#000000" fill-rule="nonzero" fill-opacity="1" /><path clip-path="url(#clip990)" d="M2235.25 202.053 L2238.96 202.053 Q2242.43 207.516 2244.14 212.747 Q2245.88 217.978 2245.88 223.14 Q2245.88 228.326 2244.14 233.58 Q2242.43 238.835 2238.96 244.275 L2235.25 244.275 Q2238.33 238.974 2239.84 233.742 Q2241.36 228.488 2241.36 223.14 Q2241.36 217.793 2239.84 212.585 Q2238.33 207.377 2235.25 202.053 Z" fill="#000000" fill-rule="nonzero" fill-opacity="1" /><polyline clip-path="url(#clip990)" style="stroke:#e26f46; stroke-linecap:round; stroke-linejoin:round; stroke-width:4; stroke-opacity:1; fill:none" points="1942.56,272.585 2090.03,272.585 "/>
<path clip-path="url(#clip990)" d="M2130.99 273.661 Q2132.5 274.17 2133.91 275.837 Q2135.35 277.504 2136.78 280.42 L2141.53 289.865 L2136.5 289.865 L2132.08 280.999 Q2130.37 277.527 2128.75 276.393 Q2127.15 275.258 2124.37 275.258 L2119.28 275.258 L2119.28 289.865 L2114.6 289.865 L2114.6 255.305 L2125.16 255.305 Q2131.09 255.305 2134 257.781 Q2136.92 260.258 2136.92 265.258 Q2136.92 268.522 2135.39 270.675 Q2133.89 272.828 2130.99 273.661 M2119.28 259.147 L2119.28 271.416 L2125.16 271.416 Q2128.54 271.416 2130.25 269.865 Q2131.99 268.291 2131.99 265.258 Q2131.99 262.226 2130.25 260.698 Q2128.54 259.147 2125.16 259.147 L2119.28 259.147 Z" fill="#000000" fill-rule="nonzero" fill-opacity="1" /><path clip-path="url(#clip990)" d="M2167.41 275.837 L2167.41 277.92 L2147.82 277.92 Q2148.1 282.318 2150.46 284.633 Q2152.85 286.925 2157.08 286.925 Q2159.54 286.925 2161.83 286.323 Q2164.14 285.721 2166.41 284.517 L2166.41 288.545 Q2164.12 289.517 2161.71 290.027 Q2159.3 290.536 2156.83 290.536 Q2150.62 290.536 2146.99 286.925 Q2143.38 283.314 2143.38 277.156 Q2143.38 270.791 2146.8 267.064 Q2150.25 263.314 2156.09 263.314 Q2161.32 263.314 2164.35 266.693 Q2167.41 270.05 2167.41 275.837 M2163.15 274.587 Q2163.1 271.092 2161.18 269.008 Q2159.28 266.925 2156.13 266.925 Q2152.57 266.925 2150.41 268.939 Q2148.29 270.953 2147.96 274.61 L2163.15 274.587 Z" fill="#000000" fill-rule="nonzero" fill-opacity="1" /><path clip-path="url(#clip990)" d="M2186.18 276.832 Q2181.02 276.832 2179.03 278.013 Q2177.04 279.193 2177.04 282.041 Q2177.04 284.309 2178.52 285.652 Q2180.02 286.971 2182.59 286.971 Q2186.13 286.971 2188.26 284.471 Q2190.41 281.948 2190.41 277.781 L2190.41 276.832 L2186.18 276.832 M2194.67 275.073 L2194.67 289.865 L2190.41 289.865 L2190.41 285.929 Q2188.96 288.291 2186.78 289.425 Q2184.6 290.536 2181.46 290.536 Q2177.47 290.536 2175.11 288.314 Q2172.78 286.068 2172.78 282.318 Q2172.78 277.943 2175.69 275.721 Q2178.63 273.499 2184.44 273.499 L2190.41 273.499 L2190.41 273.082 Q2190.41 270.143 2188.47 268.545 Q2186.55 266.925 2183.05 266.925 Q2180.83 266.925 2178.72 267.457 Q2176.62 267.99 2174.67 269.055 L2174.67 265.119 Q2177.01 264.217 2179.21 263.777 Q2181.41 263.314 2183.49 263.314 Q2189.12 263.314 2191.9 266.231 Q2194.67 269.147 2194.67 275.073 Z" fill="#000000" fill-rule="nonzero" fill-opacity="1" /><path clip-path="url(#clip990)" d="M2203.45 253.846 L2207.71 253.846 L2207.71 289.865 L2203.45 289.865 L2203.45 253.846 Z" fill="#000000" fill-rule="nonzero" fill-opacity="1" /><path clip-path="url(#clip990)" d="M2228.93 263.939 L2253.77 263.939 L2253.77 268.198 L2250.51 268.198 L2250.51 284.124 Q2250.51 285.791 2251.06 286.531 Q2251.64 287.249 2252.91 287.249 Q2253.26 287.249 2253.77 287.203 Q2254.28 287.133 2254.44 287.11 L2254.44 290.189 Q2253.63 290.49 2252.78 290.629 Q2251.92 290.767 2251.06 290.767 Q2248.28 290.767 2247.22 289.263 Q2246.16 287.735 2246.16 283.661 L2246.16 268.198 L2236.59 268.198 L2236.59 289.865 L2232.24 289.865 L2232.24 268.198 L2228.93 268.198 L2228.93 263.939 Z" fill="#000000" fill-rule="nonzero" fill-opacity="1" /></svg>
