<?xml version="1.0" encoding="UTF-8"?>
<svg xmlns="http://www.w3.org/2000/svg"
     xmlns:xlink="http://www.w3.org/1999/xlink"
     version="1.2"
     width="100mm" height="100mm" viewBox="0 0 100 100"
     stroke="none"
     fill="#000000"
     stroke-width="0.3"
     font-size="3.88"
>
<defs>
  <marker id="arrow" markerWidth="15" markerHeight="7" refX="5" refY="3.5" orient="auto" markerUnits="strokeWidth">
    <path d="M0,0 L15,3.5 L0,7 z" stroke="context-stroke" fill="context-stroke"/>
  </marker>
</defs>
<g fill="#000000" fill-opacity="0.000" id="img-f830c8dc-1">
  <g transform="translate(50,50)">
    <path d="M-50,-50 L50,-50 50,50 -50,50  z" class="primitive"/>
  </g>
</g>
<g stroke-width="0.6" stroke="#D3D3D3" id="img-f830c8dc-2">
</g>
<g stroke-width="0.6" stroke="#D3D3D3" id="img-f830c8dc-3">
  <g transform="translate(80.33,74.03)">
    <path fill="none" d="M-0.37,-5.86 L0.37,5.86 " class="primitive"/>
  </g>
  <g transform="translate(83.21,61.3)">
    <path fill="none" d="M-2.18,3.09 L2.18,-3.09 " class="primitive"/>
  </g>
  <g transform="translate(75.53,61.34)">
    <path fill="none" d="M2.89,3.2 L-2.89,-3.2 " class="primitive"/>
  </g>
  <g transform="translate(82.78,86.51)">
    <path fill="none" d="M1.13,2.62 L-1.13,-2.62 " class="primitive"/>
  </g>
  <g transform="translate(78.65,86.69)">
    <path fill="none" d="M-1.31,2.83 L1.31,-2.83 " class="primitive"/>
  </g>
  <g transform="translate(86.85,51.45)">
    <path fill="none" d="M0.15,-2.97 L-0.15,2.97 " class="primitive"/>
  </g>
  <g transform="translate(89.13,53.91)">
    <path fill="none" d="M1.08,-1.11 L-1.08,1.11 " class="primitive"/>
  </g>
  <g transform="translate(66.46,52.77)">
    <path fill="none" d="M-3.16,-2.53 L3.16,2.53 " class="primitive"/>
  </g>
  <g transform="translate(56.54,45.43)">
    <path fill="none" d="M3.41,2.33 L-3.41,-2.33 " class="primitive"/>
  </g>
  <g transform="translate(72.95,53.53)">
    <path fill="none" d="M0.7,-1.25 L-0.7,1.25 " class="primitive"/>
  </g>
  <g transform="translate(46.14,38.47)">
    <path fill="none" d="M-3.52,-2.31 L3.52,2.31 " class="primitive"/>
  </g>
  <g transform="translate(39.71,27.07)">
    <path fill="none" d="M0.86,5.89 L-0.86,-5.89 " class="primitive"/>
  </g>
  <g transform="translate(36.35,39.76)">
    <path fill="none" d="M3.09,-3.23 L-3.09,3.23 " class="primitive"/>
  </g>
  <g transform="translate(51.87,45.5)">
    <path fill="none" d="M0.19,1.51 L-0.19,-1.51 " class="primitive"/>
  </g>
  <g transform="translate(39.18,13.73)">
    <path fill="none" d="M0.39,-3.33 L-0.39,3.33 " class="primitive"/>
  </g>
  <g transform="translate(36.55,14.76)">
    <path fill="none" d="M-1.13,-2.47 L1.13,2.47 " class="primitive"/>
  </g>
  <g transform="translate(27.22,47.95)">
    <path fill="none" d="M-2.94,2.21 L2.94,-2.21 " class="primitive"/>
  </g>
  <g transform="translate(18.93,55.93)">
    <path fill="none" d="M2.36,-2.9 L-2.36,2.9 " class="primitive"/>
  </g>
  <g transform="translate(32.67,49.18)">
    <path fill="none" d="M0.47,2.63 L-0.47,-2.63 " class="primitive"/>
  </g>
  <g transform="translate(15.61,66.84)">
    <path fill="none" d="M0.24,4.32 L-0.24,-4.32 " class="primitive"/>
  </g>
  <g transform="translate(18.51,77.93)">
    <path fill="none" d="M-1.55,-2.86 L1.55,2.86 " class="primitive"/>
  </g>
  <g transform="translate(11.79,59.92)">
    <path fill="none" d="M-1.4,-0.21 L1.4,0.21 " class="primitive"/>
  </g>
  <g transform="translate(23.06,81.46)">
    <path fill="none" d="M0.21,-0.12 L-0.21,0.12 " class="primitive"/>
  </g>
  <g transform="translate(22.59,87.14)">
    <path fill="none" d="M0.86,2.55 L-0.86,-2.55 " class="primitive"/>
  </g>
</g>
<g fill="#D3D3D3" id="img-f830c8dc-4">
</g>
<g fill="#D3D3D3" id="img-f830c8dc-5">
</g>
<g font-size="4" fill="#000000" id="img-f830c8dc-6">
</g>
<g stroke-width="0" stroke="#000000" stroke-opacity="0.000" fill="#40E0D0" id="img-f830c8dc-7">
  <g transform="translate(79.82,66.09)">
    <circle cx="0" cy="0" r="2" class="primitive"/>
  </g>
  <g transform="translate(84.73,91.04)">
    <circle cx="0" cy="0" r="2" class="primitive"/>
  </g>
  <g transform="translate(76.47,91.41)">
    <circle cx="0" cy="0" r="2" class="primitive"/>
  </g>
  <g transform="translate(80.83,81.97)">
    <circle cx="0" cy="0" r="2" class="primitive"/>
  </g>
  <g transform="translate(87.11,46.39)">
    <circle cx="0" cy="0" r="2" class="primitive"/>
  </g>
  <g transform="translate(91.67,51.31)">
    <circle cx="0" cy="0" r="2" class="primitive"/>
  </g>
  <g transform="translate(86.59,56.5)">
    <circle cx="0" cy="0" r="2" class="primitive"/>
  </g>
  <g transform="translate(61.68,48.94)">
    <circle cx="0" cy="0" r="2" class="primitive"/>
  </g>
  <g transform="translate(74.67,50.45)">
    <circle cx="0" cy="0" r="2" class="primitive"/>
  </g>
  <g transform="translate(71.24,56.6)">
    <circle cx="0" cy="0" r="2" class="primitive"/>
  </g>
  <g transform="translate(40.88,35.02)">
    <circle cx="0" cy="0" r="2" class="primitive"/>
  </g>
  <g transform="translate(52.33,49.07)">
    <circle cx="0" cy="0" r="2" class="primitive"/>
  </g>
  <g transform="translate(51.41,41.92)">
    <circle cx="0" cy="0" r="2" class="primitive"/>
  </g>
  <g transform="translate(39.82,8.33)">
    <circle cx="0" cy="0" r="2" class="primitive"/>
  </g>
  <g transform="translate(34.55,10.39)">
    <circle cx="0" cy="0" r="2" class="primitive"/>
  </g>
  <g transform="translate(38.55,19.13)">
    <circle cx="0" cy="0" r="2" class="primitive"/>
  </g>
  <g transform="translate(22.61,51.42)">
    <circle cx="0" cy="0" r="2" class="primitive"/>
  </g>
  <g transform="translate(33.51,53.86)">
    <circle cx="0" cy="0" r="2" class="primitive"/>
  </g>
  <g transform="translate(31.83,44.49)">
    <circle cx="0" cy="0" r="2" class="primitive"/>
  </g>
  <g transform="translate(15.96,73.24)">
    <circle cx="0" cy="0" r="2" class="primitive"/>
  </g>
  <g transform="translate(8.33,59.4)">
    <circle cx="0" cy="0" r="2" class="primitive"/>
  </g>
  <g transform="translate(15.25,60.44)">
    <circle cx="0" cy="0" r="2" class="primitive"/>
  </g>
  <g transform="translate(25.07,80.3)">
    <circle cx="0" cy="0" r="2" class="primitive"/>
  </g>
  <g transform="translate(24.12,91.67)">
    <circle cx="0" cy="0" r="2" class="primitive"/>
  </g>
  <g transform="translate(21.05,82.62)">
    <circle cx="0" cy="0" r="2" class="primitive"/>
  </g>
</g>
<g font-family="Helvetica" font-size="4" fill="#000000" id="img-f830c8dc-8">
  <g transform="translate(79.82,66.09)">
    <g class="primitive">
      <text text-anchor="middle" dy="0.35em">x</text>
    </g>
  </g>
  <g transform="translate(84.73,91.04)">
    <g class="primitive">
      <text text-anchor="middle" dy="0.35em">constvar</text>
    </g>
  </g>
  <g transform="translate(76.47,91.41)">
    <g class="primitive">
      <text text-anchor="middle" dy="0.35em">constvar</text>
    </g>
  </g>
  <g transform="translate(80.83,81.97)">
    <g class="primitive">
      <text text-anchor="middle" dy="0.35em">NormalMeanVariance</text>
    </g>
  </g>
  <g transform="translate(87.11,46.39)">
    <g class="primitive">
      <text text-anchor="middle" dy="0.35em">y</text>
    </g>
  </g>
  <g transform="translate(91.67,51.31)">
    <g class="primitive">
      <text text-anchor="middle" dy="0.35em">constvar</text>
    </g>
  </g>
  <g transform="translate(86.59,56.5)">
    <g class="primitive">
      <text text-anchor="middle" dy="0.35em">NormalMeanVariance</text>
    </g>
  </g>
  <g transform="translate(61.68,48.94)">
    <g class="primitive">
      <text text-anchor="middle" dy="0.35em">anonymous_var_graphppl</text>
    </g>
  </g>
  <g transform="translate(74.67,50.45)">
    <g class="primitive">
      <text text-anchor="middle" dy="0.35em">constvar</text>
    </g>
  </g>
  <g transform="translate(71.24,56.6)">
    <g class="primitive">
      <text text-anchor="middle" dy="0.35em">+</text>
    </g>
  </g>
  <g transform="translate(40.88,35.02)">
    <g class="primitive">
      <text text-anchor="middle" dy="0.35em">x</text>
    </g>
  </g>
  <g transform="translate(52.33,49.07)">
    <g class="primitive">
      <text text-anchor="middle" dy="0.35em">constvar</text>
    </g>
  </g>
  <g transform="translate(51.41,41.92)">
    <g class="primitive">
      <text text-anchor="middle" dy="0.35em">NormalMeanVariance</text>
    </g>
  </g>
  <g transform="translate(39.82,8.33)">
    <g class="primitive">
      <text text-anchor="middle" dy="0.35em">y</text>
    </g>
  </g>
  <g transform="translate(34.55,10.39)">
    <g class="primitive">
      <text text-anchor="middle" dy="0.35em">constvar</text>
    </g>
  </g>
  <g transform="translate(38.55,19.13)">
    <g class="primitive">
      <text text-anchor="middle" dy="0.35em">NormalMeanVariance</text>
    </g>
  </g>
  <g transform="translate(22.61,51.42)">
    <g class="primitive">
      <text text-anchor="middle" dy="0.35em">anonymous_var_graphppl</text>
    </g>
  </g>
  <g transform="translate(33.51,53.86)">
    <g class="primitive">
      <text text-anchor="middle" dy="0.35em">constvar</text>
    </g>
  </g>
  <g transform="translate(31.83,44.49)">
    <g class="primitive">
      <text text-anchor="middle" dy="0.35em">+</text>
    </g>
  </g>
  <g transform="translate(15.96,73.24)">
    <g class="primitive">
      <text text-anchor="middle" dy="0.35em">x</text>
    </g>
  </g>
  <g transform="translate(8.33,59.4)">
    <g class="primitive">
      <text text-anchor="middle" dy="0.35em">constvar</text>
    </g>
  </g>
  <g transform="translate(15.25,60.44)">
    <g class="primitive">
      <text text-anchor="middle" dy="0.35em">NormalMeanVariance</text>
    </g>
  </g>
  <g transform="translate(25.07,80.3)">
    <g class="primitive">
      <text text-anchor="middle" dy="0.35em">y</text>
    </g>
  </g>
  <g transform="translate(24.12,91.67)">
    <g class="primitive">
      <text text-anchor="middle" dy="0.35em">constvar</text>
    </g>
  </g>
  <g transform="translate(21.05,82.62)">
    <g class="primitive">
      <text text-anchor="middle" dy="0.35em">NormalMeanVariance</text>
    </g>
  </g>
</g>
<g font-family="Helvetica" font-size="4" fill="#000000" id="img-f830c8dc-9">
  <g transform="translate(50,0)">
    <g class="primitive">
      <text text-anchor="middle" dy="0.35em"></text>
    </g>
  </g>
</g>
</svg>
