<?xml version="1.0" encoding="utf-8"?>
<!-- Generator: Adobe Illustrator 27.0.0, SVG Export Plug-In . SVG Version: 6.00 Build 0)  -->
<svg version="1.1" id="Layer_1" xmlns="http://www.w3.org/2000/svg" xmlns:xlink="http://www.w3.org/1999/xlink" x="0px" y="0px"
	 viewBox="0 0 642.5 213.6" style="enable-background:new 0 0 642.5 213.6;" xml:space="preserve">
<style type="text/css">
	.st0{fill-rule:evenodd;clip-rule:evenodd;fill:#333333;stroke:#FFFFFF;stroke-miterlimit:10;}
	.st1{fill:#389826;}
	.st2{fill:#9558B2;}
	.st3{stroke:#FFFFFF;stroke-miterlimit:10;}
	.st4{fill:#CB3C33;}
	.st5{fill-rule:evenodd;clip-rule:evenodd;fill:#333333;stroke:#FFE9E9;stroke-miterlimit:10;}
	.st6{fill-rule:evenodd;clip-rule:evenodd;fill:#4063D8;stroke:#FFFFFF;stroke-miterlimit:10;}
</style>
<g id="Слой_2">
	<g id="Layer_1_00000116955105323099935610000000039006590443086520_">
		<path class="st0" d="M66.6,114.5h63c6.7-0.3,12-5.8,12-12.5c0-14.1,0.3-27.6,0.3-41.5c0-6.3,5.1-11.4,11.3-11.4h40.1
			c6.3,0,11.4,5.1,11.4,11.4v40.1c0,6.3-5.1,11.4-11.4,11.4h-35.1c-6.2,0.9-10.8,6.2-10.8,12.4v70.9c0,9.8-8,17.8-17.9,17.8H66.6
			c-9.8,0-17.8-8-17.8-17.8V130c0-6.8-5.5-12.2-12.3-12.2H9.2c-4.8,0-8.7-3.9-8.7-8.7V78.2c0-4.8,3.9-8.7,8.7-8.7h28.7
			c6,0,10.8-4.8,10.8-10.8V13c0-6.9,5.6-12.5,12.5-12.5h44c6.9,0,12.5,5.6,12.5,12.5v44c0,6.9-5.6,12.5-12.5,12.5H59.6
			c-6,0-10.8,4.8-10.8,10.8v22c0,6.7,5.5,12.2,12.2,12.2H66.6z"/>
		<rect x="62" y="13.8" class="st1" width="42.3" height="42.3"/>
		<rect x="155.2" y="62.4" class="st2" width="36.2" height="36.2"/>
		<rect x="13.7" y="82.8" class="st3" width="21.7" height="21.7"/>
		<rect x="62" y="127.7" class="st4" width="72" height="72"/>
		<path class="st5" d="M213.7,130.1c-10.1,0-18.8,5.9-23.3,15.6v-15l-26.3,4.3v77.3h26.3v-54.1c3.1-9.6,10.4-16,19.2-16.4
			c-1,1.7-1.5,3.7-1.4,5.7c0,6.8,5.1,11.7,12.3,11.7c3.1,0.1,6.1-1.1,8.3-3.4c2.2-2.2,3.4-5.2,3.3-8.4c0.2-4.7-1.7-9.3-5.1-12.6
			C223.6,131.6,219,130.1,213.7,130.1z"/>
		<polygon class="st0" points="281.9,165.8 306.4,130.8 294,130.8 276.2,156.7 260.4,130.8 232.2,130.8 259.8,175.5 234.7,211.6 
			247.2,211.6 265.4,184.8 281.9,211.6 310,211.6 		"/>
		<polygon class="st0" points="342.1,211.6 342.1,130 315.8,134.3 315.8,211.6 		"/>
		<path class="st6" d="M329.3,124.6c3.7,0.1,7.2-1.3,9.8-3.9c2.6-2.7,4-6.3,3.9-10.1c0.1-3.7-1.3-7.3-3.9-9.9s-6.1-4.1-9.8-4
			c-3.9-0.1-7.6,1.3-10.4,4c-2.7,2.6-4.2,6.2-4.1,9.9c-0.1,3.8,1.4,7.5,4.1,10.1C321.7,123.3,325.6,124.8,329.3,124.6z"/>
		<path class="st0" d="M405.2,129.3c-5.7-0.1-11.3,1.4-16.3,4.1c-4.8,2.5-8.8,6.3-11.7,10.9V130l-26.3,4.3v77.3h26.3v-55.4
			c3.6-8.1,10.4-13.3,17.6-13.3c6.6,0,11.5,5.2,11.5,12.5v56.2h26.3v-55.7c0.2-7.2-2.6-14.1-7.8-19
			C419.6,131.9,413.1,129.4,405.2,129.3z"/>
		<path class="st0" d="M479.3,93.6c-9.7,0-17.8,2.8-24.3,8.3s-9.8,12.5-9.8,20.7v8.2h-9.4v8.7h9.4v72.1h26.3v-72.1h16.4v-8.7h-16.4
			v-10.3c-0.2-4.3,1.3-8.5,4.1-11.8c2.7-3.1,6.6-4.9,10.6-5c-1.4,1.9-2.1,4.2-2.1,6.6c0,2.9,1.2,5.7,3.4,7.7
			c2.2,2.1,5.1,3.3,8.1,3.2c2.8,0.1,5.6-1.1,7.6-3.1s3.2-4.8,3.1-7.7c0-4.7-2.6-8.7-7.7-11.9S487,93.6,479.3,93.6z"/>
		<path class="st0" d="M527.9,129.4v8.6l0,0V129.4L527.9,129.4z"/>
		<path class="st0" d="M527.9,138L527.9,138L527.9,138L527.9,138z"/>
		<path class="st0" d="M527.3,129.3c-11.7,0.2-21.6,4.2-29.7,12c-8.3,7.9-12.6,17.9-12.6,29.8c-0.2,11.4,4.6,22.4,13.2,29.9
			c7.9,7.3,17.9,11.3,29.8,12v-0.1c1.2,0.1,2.5,0.1,3.7,0.1c9.9,0,18.4-2.1,25.4-6.4s10.5-9.5,10.5-15.7c0.1-3-1.1-6-3.2-8.2
			c-2-2.2-4.9-3.3-7.9-3.3c-3.2-0.1-6.2,1.1-8.5,3.3c-2.3,2.1-3.6,5.1-3.6,8.2c-0.1,3.9,1.9,7.6,5.4,9.5c-3.3,1.5-6.9,2.3-10.5,2.2
			c-3.9,0.1-7.8-0.6-11.4-2l0,0c-9.9-3.9-15.2-13.8-16-29.5h55.9c0-12-3.8-22-11.4-29.9c-7.6-8-17.2-11.9-28.8-11.9L527.3,129.3
			 M527.9,138c8.5,0.1,14.2,9.1,15.1,24.4h-15.7l0,0h-15.1c0.6-7.3,2.4-13.2,5.3-17.7C520.3,140.5,523.8,138.2,527.9,138L527.9,138"
			/>
		<path class="st0" d="M527.9,138L527.9,138L527.9,138L527.9,138z"/>
		<path class="st0" d="M623.6,129.4c-10.1,0-18.8,5.9-23.3,15.6v-15l-26.3,4.3v77.3h26.3v-54.1c3.2-9.6,10.3-16,19.2-16.4
			c-1,1.7-1.5,3.7-1.4,5.7c0,6.8,5.2,11.7,12.3,11.7c3.1,0.1,6.1-1.1,8.3-3.4c2.2-2.2,3.4-5.2,3.3-8.4c0.2-4.7-1.7-9.3-5.1-12.6
			C633.4,130.9,629,129.4,623.6,129.4z"/>
	</g>
</g>
<g id="Layer_2_00000036966862148631286250000015780344526604021166_">
</g>
</svg>
