<svg xmlns="http://www.w3.org/2000/svg" viewBox="0 0 641.51 212.57"><defs><style>.cls-1{fill:#333;}.cls-1,.cls-6{fill-rule:evenodd;}.cls-2{fill:#389826;}.cls-3{fill:#9558b2;}.cls-4{fill:#fff;}.cls-5{fill:#cb3c33;}.cls-6{fill:#4063d8;}</style></defs><title>1</title><g id="Слой_2" data-name="Слой 2"><g id="Layer_1" data-name="Layer 1"><path class="cls-1" d="M66.11,114h63a12.55,12.55,0,0,0,12-12.5c0-14.06.27-27.62.27-41.48A11.4,11.4,0,0,1,152.73,48.6h40.09A11.4,11.4,0,0,1,204.18,60v40.09a11.39,11.39,0,0,1-11.36,11.37H157.67a12.56,12.56,0,0,0-10.78,12.4v70.9A17.9,17.9,0,0,1,129,212.57H66.11a17.9,17.9,0,0,1-17.84-17.84V129.48A12.27,12.27,0,0,0,36,117.24H8.73A8.76,8.76,0,0,1,0,108.5V77.7A8.76,8.76,0,0,1,8.73,69H37.47a10.83,10.83,0,0,0,10.8-10.8V12.48A12.52,12.52,0,0,1,60.75,0h44a12.52,12.52,0,0,1,12.48,12.48v44A12.52,12.52,0,0,1,104.76,69H59.07a10.83,10.83,0,0,0-10.8,10.8v22A12.27,12.27,0,0,0,60.51,114Z"/><rect class="cls-2" x="61.58" y="13.31" width="42.35" height="42.35"/><rect class="cls-3" x="154.67" y="61.92" width="36.2" height="36.2"/><rect class="cls-4" x="13.31" y="82.28" width="21.74" height="21.65"/><rect class="cls-5" x="61.49" y="127.26" width="71.99" height="71.99"/><path class="cls-1" d="M213.16,129.59c-10.1,0-18.77,5.9-23.27,15.59v-15l-26.34,4.33v77.27h26.34V157.68c3.15-9.56,10.35-16,19.21-16.35a11.25,11.25,0,0,0-1.43,5.68c0,6.84,5.14,11.72,12.31,11.72a11.11,11.11,0,0,0,8.29-3.37,11.55,11.55,0,0,0,3.31-8.35,16.66,16.66,0,0,0-5.06-12.63C223.1,131.15,218.6,129.59,213.16,129.59Z"/><polygon class="cls-1" points="281.44 165.36 305.95 130.32 293.58 130.32 275.75 156.2 260 130.32 231.69 130.32 259.38 175.05 234.31 211.12 246.75 211.12 264.95 184.29 281.44 211.12 309.58 211.12 281.44 165.36"/><polygon class="cls-1" points="341.67 211.12 341.67 129.51 315.33 133.85 315.33 211.12 341.67 211.12"/><path class="cls-6" d="M328.9,124.16a13.21,13.21,0,0,0,9.83-3.93,13.68,13.68,0,0,0,3.88-10.1,13.47,13.47,0,0,0-3.88-9.94,13.23,13.23,0,0,0-9.83-4,14.63,14.63,0,0,0-10.42,4,13.12,13.12,0,0,0-4.1,9.94,13.32,13.32,0,0,0,4.1,10.1A14.6,14.6,0,0,0,328.9,124.16Z"/><path class="cls-1" d="M404.78,128.87a33.24,33.24,0,0,0-16.3,4.09,31,31,0,0,0-11.69,10.88V129.51l-26.34,4.34v77.27h26.34v-55.4c3.56-8.08,10.43-13.28,17.64-13.28,6.63,0,11.45,5.2,11.45,12.52v56.16h26.34v-55.7a25.31,25.31,0,0,0-7.81-19Q416.61,128.89,404.78,128.87Z"/><path class="cls-1" d="M478.88,93.15c-9.7,0-17.75,2.78-24.32,8.27s-9.78,12.47-9.78,20.69v8.21h-9.4v8.73h9.4v72.07h26.29V139.05h16.35v-8.73H471.07V120a17,17,0,0,1,4.12-11.77,14.81,14.81,0,0,1,10.64-5,11.2,11.2,0,0,0-2.13,6.63,10,10,0,0,0,3.39,7.65,11.09,11.09,0,0,0,8.11,3.17,10.23,10.23,0,0,0,7.57-3.09,10.53,10.53,0,0,0,3.07-7.73c0-4.74-2.61-8.67-7.73-11.91S486.56,93.15,478.88,93.15Z"/><path class="cls-1" d="M556,179a11.7,11.7,0,0,0-8.45,3.31,10.85,10.85,0,0,0-3.56,8.16,10.54,10.54,0,0,0,5.36,9.54,23.28,23.28,0,0,1-10.48,2.18,30.85,30.85,0,0,1-11.39-2v12.19c1.23.08,2.48.11,3.74.11,9.94,0,18.37-2.13,25.4-6.38s10.48-9.46,10.48-15.68a11.38,11.38,0,0,0-3.23-8.16A10.57,10.57,0,0,0,556,179Zm-28.52-8.32h40.56q0-18-11.36-29.92c-7.63-8-17.24-11.91-28.85-11.91h-.35v8.69H528c8.59,0,14.36,9,15.22,24.42H527.51Zm0,29.55q-14.88-5.91-16-29.55h16V162H511.78q.93-11,5.28-17.67c2.8-4.29,6.26-6.57,10.45-6.74v-8.69c-12,.08-22.14,4-30.4,11.91s-12.56,17.91-12.56,29.76a38.77,38.77,0,0,0,13.17,29.94q11.91,10.92,29.79,12Z"/><path class="cls-1" d="M623.09,128.89c-10.1,0-18.78,5.9-23.27,15.6v-15l-26.34,4.34v77.27h26.34V157C603,147.42,610.16,141,619,140.63a11.42,11.42,0,0,0-1.43,5.69c0,6.84,5.15,11.71,12.31,11.71a11.09,11.09,0,0,0,8.29-3.36,11.58,11.58,0,0,0,3.32-8.35,16.64,16.64,0,0,0-5.07-12.63C633,130.45,628.53,128.89,623.09,128.89Z"/></g></g></svg>