<?xml version="1.0" encoding="utf-8"?>
<!-- Generator: Adobe Illustrator 27.0.0, SVG Export Plug-In . SVG Version: 6.00 Build 0)  -->
<svg version="1.1" id="Layer_1" xmlns="http://www.w3.org/2000/svg" xmlns:xlink="http://www.w3.org/1999/xlink" x="0px" y="0px"
	 viewBox="0 0 210.1 217.8" style="enable-background:new 0 0 210.1 217.8;" xml:space="preserve">
<style type="text/css">
	.st0{fill:#333333;stroke:#FFFFFF;stroke-miterlimit:10;}
	.st1{fill:#389826;stroke:#FFFFFF;stroke-miterlimit:10;}
	.st2{fill:#9558B2;stroke:#FFFFFF;stroke-miterlimit:10;}
	.st3{stroke:#FFFFFF;stroke-miterlimit:10;}
	.st4{fill:#CB3C33;stroke:#FFFFFF;stroke-miterlimit:10;}
</style>
<g id="Слой_2">
	<g id="Layer_1_1_">
		<path class="st0" d="M69.1,116.5h63c6.7-0.3,12-5.8,12-12.5c0-14.1,0.3-27.6,0.3-41.5c0-6.3,5.1-11.4,11.3-11.4h40.1
			c6.3,0,11.4,5.1,11.4,11.4v40.1c0,6.3-5.1,11.4-11.4,11.4h-35.1c-6.2,0.9-10.8,6.2-10.8,12.4v70.9c0,9.8-8,17.8-17.9,17.8H69.1
			c-9.8,0-17.8-8-17.8-17.8V132c0-6.8-5.5-12.2-12.3-12.2H11.7c-4.8,0-8.7-3.9-8.7-8.7V80.2c0-4.8,3.9-8.7,8.7-8.7h28.7
			c6,0,10.8-4.8,10.8-10.8V15c0.1-6.9,5.7-12.5,12.6-12.5h44c6.9,0,12.5,5.6,12.5,12.5v44c0,6.9-5.6,12.5-12.5,12.5H62.1
			c-6,0-10.8,4.8-10.8,10.8v22c0,6.7,5.5,12.2,12.2,12.2H69.1z"/>
		<rect x="64.6" y="15.8" class="st1" width="42.3" height="42.3"/>
		<rect x="157.7" y="64.4" class="st2" width="36.2" height="36.2"/>
		<rect x="16.3" y="84.8" class="st3" width="21.7" height="21.7"/>
		<rect x="64.5" y="129.8" class="st4" width="72" height="72"/>
	</g>
</g>
</svg>
