<?xml version="1.0" encoding="utf-8"?>
<svg xmlns="http://www.w3.org/2000/svg" xmlns:xlink="http://www.w3.org/1999/xlink" width="600" height="400" viewBox="0 0 2400 1600">
<defs>
  <clipPath id="clip390">
    <rect x="0" y="0" width="2400" height="1600"/>
  </clipPath>
</defs>
<path clip-path="url(#clip390)" d="M0 1600 L2400 1600 L2400 0 L0 0  Z" fill="#ffffff" fill-rule="evenodd" fill-opacity="1"/>
<defs>
  <clipPath id="clip391">
    <rect x="480" y="0" width="1681" height="1600"/>
  </clipPath>
</defs>
<path clip-path="url(#clip390)" d="M139.446 1486.45 L2352.76 1486.45 L2352.76 47.2441 L139.446 47.2441  Z" fill="#ffffff" fill-rule="evenodd" fill-opacity="1"/>
<defs>
  <clipPath id="clip392">
    <rect x="139" y="47" width="2214" height="1440"/>
  </clipPath>
</defs>
<polyline clip-path="url(#clip392)" style="stroke:#000000; stroke-linecap:round; stroke-linejoin:round; stroke-width:2; stroke-opacity:0.1; fill:none" points="180.995,1486.45 180.995,47.2441 "/>
<polyline clip-path="url(#clip392)" style="stroke:#000000; stroke-linecap:round; stroke-linejoin:round; stroke-width:2; stroke-opacity:0.1; fill:none" points="708.275,1486.45 708.275,47.2441 "/>
<polyline clip-path="url(#clip392)" style="stroke:#000000; stroke-linecap:round; stroke-linejoin:round; stroke-width:2; stroke-opacity:0.1; fill:none" points="1235.56,1486.45 1235.56,47.2441 "/>
<polyline clip-path="url(#clip392)" style="stroke:#000000; stroke-linecap:round; stroke-linejoin:round; stroke-width:2; stroke-opacity:0.1; fill:none" points="1762.84,1486.45 1762.84,47.2441 "/>
<polyline clip-path="url(#clip392)" style="stroke:#000000; stroke-linecap:round; stroke-linejoin:round; stroke-width:2; stroke-opacity:0.1; fill:none" points="2290.12,1486.45 2290.12,47.2441 "/>
<polyline clip-path="url(#clip392)" style="stroke:#000000; stroke-linecap:round; stroke-linejoin:round; stroke-width:2; stroke-opacity:0.1; fill:none" points="139.446,1416.45 2352.76,1416.45 "/>
<polyline clip-path="url(#clip392)" style="stroke:#000000; stroke-linecap:round; stroke-linejoin:round; stroke-width:2; stroke-opacity:0.1; fill:none" points="139.446,1215.76 2352.76,1215.76 "/>
<polyline clip-path="url(#clip392)" style="stroke:#000000; stroke-linecap:round; stroke-linejoin:round; stroke-width:2; stroke-opacity:0.1; fill:none" points="139.446,1015.06 2352.76,1015.06 "/>
<polyline clip-path="url(#clip392)" style="stroke:#000000; stroke-linecap:round; stroke-linejoin:round; stroke-width:2; stroke-opacity:0.1; fill:none" points="139.446,814.371 2352.76,814.371 "/>
<polyline clip-path="url(#clip392)" style="stroke:#000000; stroke-linecap:round; stroke-linejoin:round; stroke-width:2; stroke-opacity:0.1; fill:none" points="139.446,613.677 2352.76,613.677 "/>
<polyline clip-path="url(#clip392)" style="stroke:#000000; stroke-linecap:round; stroke-linejoin:round; stroke-width:2; stroke-opacity:0.1; fill:none" points="139.446,412.984 2352.76,412.984 "/>
<polyline clip-path="url(#clip392)" style="stroke:#000000; stroke-linecap:round; stroke-linejoin:round; stroke-width:2; stroke-opacity:0.1; fill:none" points="139.446,212.291 2352.76,212.291 "/>
<polyline clip-path="url(#clip390)" style="stroke:#000000; stroke-linecap:round; stroke-linejoin:round; stroke-width:4; stroke-opacity:1; fill:none" points="139.446,1486.45 2352.76,1486.45 "/>
<polyline clip-path="url(#clip390)" style="stroke:#000000; stroke-linecap:round; stroke-linejoin:round; stroke-width:4; stroke-opacity:1; fill:none" points="180.995,1486.45 180.995,1467.55 "/>
<polyline clip-path="url(#clip390)" style="stroke:#000000; stroke-linecap:round; stroke-linejoin:round; stroke-width:4; stroke-opacity:1; fill:none" points="708.275,1486.45 708.275,1467.55 "/>
<polyline clip-path="url(#clip390)" style="stroke:#000000; stroke-linecap:round; stroke-linejoin:round; stroke-width:4; stroke-opacity:1; fill:none" points="1235.56,1486.45 1235.56,1467.55 "/>
<polyline clip-path="url(#clip390)" style="stroke:#000000; stroke-linecap:round; stroke-linejoin:round; stroke-width:4; stroke-opacity:1; fill:none" points="1762.84,1486.45 1762.84,1467.55 "/>
<polyline clip-path="url(#clip390)" style="stroke:#000000; stroke-linecap:round; stroke-linejoin:round; stroke-width:4; stroke-opacity:1; fill:none" points="2290.12,1486.45 2290.12,1467.55 "/>
<path clip-path="url(#clip390)" d="M180.995 1517.37 Q177.384 1517.37 175.555 1520.93 Q173.75 1524.47 173.75 1531.6 Q173.75 1538.71 175.555 1542.27 Q177.384 1545.82 180.995 1545.82 Q184.629 1545.82 186.435 1542.27 Q188.264 1538.71 188.264 1531.6 Q188.264 1524.47 186.435 1520.93 Q184.629 1517.37 180.995 1517.37 M180.995 1513.66 Q186.805 1513.66 189.861 1518.27 Q192.94 1522.85 192.94 1531.6 Q192.94 1540.33 189.861 1544.94 Q186.805 1549.52 180.995 1549.52 Q175.185 1549.52 172.106 1544.94 Q169.051 1540.33 169.051 1531.6 Q169.051 1522.85 172.106 1518.27 Q175.185 1513.66 180.995 1513.66 Z" fill="#000000" fill-rule="nonzero" fill-opacity="1" /><path clip-path="url(#clip390)" d="M687.546 1544.91 L703.865 1544.91 L703.865 1548.85 L681.921 1548.85 L681.921 1544.91 Q684.583 1542.16 689.166 1537.53 Q693.773 1532.88 694.953 1531.53 Q697.199 1529.01 698.078 1527.27 Q698.981 1525.51 698.981 1523.82 Q698.981 1521.07 697.037 1519.33 Q695.116 1517.6 692.014 1517.6 Q689.815 1517.6 687.361 1518.36 Q684.93 1519.13 682.153 1520.68 L682.153 1515.95 Q684.977 1514.82 687.43 1514.24 Q689.884 1513.66 691.921 1513.66 Q697.291 1513.66 700.486 1516.35 Q703.68 1519.03 703.68 1523.52 Q703.68 1525.65 702.87 1527.57 Q702.083 1529.47 699.977 1532.07 Q699.398 1532.74 696.296 1535.95 Q693.194 1539.15 687.546 1544.91 Z" fill="#000000" fill-rule="nonzero" fill-opacity="1" /><path clip-path="url(#clip390)" d="M713.727 1514.29 L732.083 1514.29 L732.083 1518.22 L718.009 1518.22 L718.009 1526.7 Q719.027 1526.35 720.046 1526.19 Q721.064 1526 722.083 1526 Q727.87 1526 731.25 1529.17 Q734.629 1532.34 734.629 1537.76 Q734.629 1543.34 731.157 1546.44 Q727.685 1549.52 721.365 1549.52 Q719.189 1549.52 716.921 1549.15 Q714.676 1548.78 712.268 1548.04 L712.268 1543.34 Q714.352 1544.47 716.574 1545.03 Q718.796 1545.58 721.273 1545.58 Q725.277 1545.58 727.615 1543.48 Q729.953 1541.37 729.953 1537.76 Q729.953 1534.15 727.615 1532.04 Q725.277 1529.94 721.273 1529.94 Q719.398 1529.94 717.523 1530.35 Q715.671 1530.77 713.727 1531.65 L713.727 1514.29 Z" fill="#000000" fill-rule="nonzero" fill-opacity="1" /><path clip-path="url(#clip390)" d="M1210.25 1514.29 L1228.61 1514.29 L1228.61 1518.22 L1214.54 1518.22 L1214.54 1526.7 Q1215.56 1526.35 1216.57 1526.19 Q1217.59 1526 1218.61 1526 Q1224.4 1526 1227.78 1529.17 Q1231.16 1532.34 1231.16 1537.76 Q1231.16 1543.34 1227.68 1546.44 Q1224.21 1549.52 1217.89 1549.52 Q1215.72 1549.52 1213.45 1549.15 Q1211.2 1548.78 1208.8 1548.04 L1208.8 1543.34 Q1210.88 1544.47 1213.1 1545.03 Q1215.32 1545.58 1217.8 1545.58 Q1221.81 1545.58 1224.14 1543.48 Q1226.48 1541.37 1226.48 1537.76 Q1226.48 1534.15 1224.14 1532.04 Q1221.81 1529.94 1217.8 1529.94 Q1215.93 1529.94 1214.05 1530.35 Q1212.2 1530.77 1210.25 1531.65 L1210.25 1514.29 Z" fill="#000000" fill-rule="nonzero" fill-opacity="1" /><path clip-path="url(#clip390)" d="M1250.37 1517.37 Q1246.76 1517.37 1244.93 1520.93 Q1243.12 1524.47 1243.12 1531.6 Q1243.12 1538.71 1244.93 1542.27 Q1246.76 1545.82 1250.37 1545.82 Q1254 1545.82 1255.81 1542.27 Q1257.64 1538.71 1257.64 1531.6 Q1257.64 1524.47 1255.81 1520.93 Q1254 1517.37 1250.37 1517.37 M1250.37 1513.66 Q1256.18 1513.66 1259.24 1518.27 Q1262.31 1522.85 1262.31 1531.6 Q1262.31 1540.33 1259.24 1544.94 Q1256.18 1549.52 1250.37 1549.52 Q1244.56 1549.52 1241.48 1544.94 Q1238.43 1540.33 1238.43 1531.6 Q1238.43 1522.85 1241.48 1518.27 Q1244.56 1513.66 1250.37 1513.66 Z" fill="#000000" fill-rule="nonzero" fill-opacity="1" /><path clip-path="url(#clip390)" d="M1736.69 1514.29 L1758.91 1514.29 L1758.91 1516.28 L1746.37 1548.85 L1741.48 1548.85 L1753.29 1518.22 L1736.69 1518.22 L1736.69 1514.29 Z" fill="#000000" fill-rule="nonzero" fill-opacity="1" /><path clip-path="url(#clip390)" d="M1768.08 1514.29 L1786.43 1514.29 L1786.43 1518.22 L1772.36 1518.22 L1772.36 1526.7 Q1773.38 1526.35 1774.4 1526.19 Q1775.42 1526 1776.43 1526 Q1782.22 1526 1785.6 1529.17 Q1788.98 1532.34 1788.98 1537.76 Q1788.98 1543.34 1785.51 1546.44 Q1782.04 1549.52 1775.72 1549.52 Q1773.54 1549.52 1771.27 1549.15 Q1769.03 1548.78 1766.62 1548.04 L1766.62 1543.34 Q1768.7 1544.47 1770.93 1545.03 Q1773.15 1545.58 1775.62 1545.58 Q1779.63 1545.58 1781.97 1543.48 Q1784.3 1541.37 1784.3 1537.76 Q1784.3 1534.15 1781.97 1532.04 Q1779.63 1529.94 1775.62 1529.94 Q1773.75 1529.94 1771.87 1530.35 Q1770.02 1530.77 1768.08 1531.65 L1768.08 1514.29 Z" fill="#000000" fill-rule="nonzero" fill-opacity="1" /><path clip-path="url(#clip390)" d="M2249.72 1544.91 L2257.36 1544.91 L2257.36 1518.55 L2249.05 1520.21 L2249.05 1515.95 L2257.31 1514.29 L2261.99 1514.29 L2261.99 1544.91 L2269.63 1544.91 L2269.63 1548.85 L2249.72 1548.85 L2249.72 1544.91 Z" fill="#000000" fill-rule="nonzero" fill-opacity="1" /><path clip-path="url(#clip390)" d="M2289.07 1517.37 Q2285.46 1517.37 2283.63 1520.93 Q2281.83 1524.47 2281.83 1531.6 Q2281.83 1538.71 2283.63 1542.27 Q2285.46 1545.82 2289.07 1545.82 Q2292.71 1545.82 2294.51 1542.27 Q2296.34 1538.71 2296.34 1531.6 Q2296.34 1524.47 2294.51 1520.93 Q2292.71 1517.37 2289.07 1517.37 M2289.07 1513.66 Q2294.88 1513.66 2297.94 1518.27 Q2301.02 1522.85 2301.02 1531.6 Q2301.02 1540.33 2297.94 1544.94 Q2294.88 1549.52 2289.07 1549.52 Q2283.26 1549.52 2280.18 1544.94 Q2277.13 1540.33 2277.13 1531.6 Q2277.13 1522.85 2280.18 1518.27 Q2283.26 1513.66 2289.07 1513.66 Z" fill="#000000" fill-rule="nonzero" fill-opacity="1" /><path clip-path="url(#clip390)" d="M2319.24 1517.37 Q2315.62 1517.37 2313.8 1520.93 Q2311.99 1524.47 2311.99 1531.6 Q2311.99 1538.71 2313.8 1542.27 Q2315.62 1545.82 2319.24 1545.82 Q2322.87 1545.82 2324.68 1542.27 Q2326.5 1538.71 2326.5 1531.6 Q2326.5 1524.47 2324.68 1520.93 Q2322.87 1517.37 2319.24 1517.37 M2319.24 1513.66 Q2325.05 1513.66 2328.1 1518.27 Q2331.18 1522.85 2331.18 1531.6 Q2331.18 1540.33 2328.1 1544.94 Q2325.05 1549.52 2319.24 1549.52 Q2313.43 1549.52 2310.35 1544.94 Q2307.29 1540.33 2307.29 1531.6 Q2307.29 1522.85 2310.35 1518.27 Q2313.43 1513.66 2319.24 1513.66 Z" fill="#000000" fill-rule="nonzero" fill-opacity="1" /><polyline clip-path="url(#clip390)" style="stroke:#000000; stroke-linecap:round; stroke-linejoin:round; stroke-width:4; stroke-opacity:1; fill:none" points="139.446,1486.45 139.446,47.2441 "/>
<polyline clip-path="url(#clip390)" style="stroke:#000000; stroke-linecap:round; stroke-linejoin:round; stroke-width:4; stroke-opacity:1; fill:none" points="139.446,1416.45 158.343,1416.45 "/>
<polyline clip-path="url(#clip390)" style="stroke:#000000; stroke-linecap:round; stroke-linejoin:round; stroke-width:4; stroke-opacity:1; fill:none" points="139.446,1215.76 158.343,1215.76 "/>
<polyline clip-path="url(#clip390)" style="stroke:#000000; stroke-linecap:round; stroke-linejoin:round; stroke-width:4; stroke-opacity:1; fill:none" points="139.446,1015.06 158.343,1015.06 "/>
<polyline clip-path="url(#clip390)" style="stroke:#000000; stroke-linecap:round; stroke-linejoin:round; stroke-width:4; stroke-opacity:1; fill:none" points="139.446,814.371 158.343,814.371 "/>
<polyline clip-path="url(#clip390)" style="stroke:#000000; stroke-linecap:round; stroke-linejoin:round; stroke-width:4; stroke-opacity:1; fill:none" points="139.446,613.677 158.343,613.677 "/>
<polyline clip-path="url(#clip390)" style="stroke:#000000; stroke-linecap:round; stroke-linejoin:round; stroke-width:4; stroke-opacity:1; fill:none" points="139.446,412.984 158.343,412.984 "/>
<polyline clip-path="url(#clip390)" style="stroke:#000000; stroke-linecap:round; stroke-linejoin:round; stroke-width:4; stroke-opacity:1; fill:none" points="139.446,212.291 158.343,212.291 "/>
<path clip-path="url(#clip390)" d="M87.1262 1429.79 L103.446 1429.79 L103.446 1433.73 L81.5012 1433.73 L81.5012 1429.79 Q84.1632 1427.04 88.7466 1422.41 Q93.353 1417.76 94.5336 1416.42 Q96.7789 1413.89 97.6585 1412.16 Q98.5613 1410.4 98.5613 1408.71 Q98.5613 1405.95 96.6169 1404.22 Q94.6956 1402.48 91.5938 1402.48 Q89.3947 1402.48 86.941 1403.24 Q84.5105 1404.01 81.7327 1405.56 L81.7327 1400.84 Q84.5568 1399.7 87.0105 1399.12 Q89.4641 1398.54 91.5012 1398.54 Q96.8715 1398.54 100.066 1401.23 Q103.26 1403.92 103.26 1408.41 Q103.26 1410.54 102.45 1412.46 Q101.663 1414.36 99.5567 1416.95 Q98.978 1417.62 95.8761 1420.84 Q92.7743 1424.03 87.1262 1429.79 Z" fill="#000000" fill-rule="nonzero" fill-opacity="1" /><path clip-path="url(#clip390)" d="M93.8623 1202.55 L82.0568 1221 L93.8623 1221 L93.8623 1202.55 M92.6354 1198.48 L98.515 1198.48 L98.515 1221 L103.446 1221 L103.446 1224.89 L98.515 1224.89 L98.515 1233.04 L93.8623 1233.04 L93.8623 1224.89 L78.2605 1224.89 L78.2605 1220.37 L92.6354 1198.48 Z" fill="#000000" fill-rule="nonzero" fill-opacity="1" /><path clip-path="url(#clip390)" d="M91.9178 1013.2 Q88.7697 1013.2 86.9179 1015.35 Q85.0892 1017.51 85.0892 1021.26 Q85.0892 1024.98 86.9179 1027.16 Q88.7697 1029.31 91.9178 1029.31 Q95.066 1029.31 96.8947 1027.16 Q98.7465 1024.98 98.7465 1021.26 Q98.7465 1017.51 96.8947 1015.35 Q95.066 1013.2 91.9178 1013.2 M101.2 998.548 L101.2 1002.81 Q99.4409 1001.97 97.6354 1001.53 Q95.853 1001.09 94.0937 1001.09 Q89.4641 1001.09 87.0105 1004.22 Q84.5799 1007.34 84.2327 1013.66 Q85.5984 1011.65 87.6586 1010.58 Q89.7188 1009.5 92.1956 1009.5 Q97.4039 1009.5 100.413 1012.67 Q103.446 1015.82 103.446 1021.26 Q103.446 1026.58 100.297 1029.8 Q97.1493 1033.01 91.9178 1033.01 Q85.9225 1033.01 82.7512 1028.43 Q79.5799 1023.83 79.5799 1015.1 Q79.5799 1006.9 83.4688 1002.04 Q87.3577 997.159 93.9086 997.159 Q95.6678 997.159 97.4502 997.506 Q99.2558 997.853 101.2 998.548 Z" fill="#000000" fill-rule="nonzero" fill-opacity="1" /><path clip-path="url(#clip390)" d="M91.5938 815.239 Q88.2604 815.239 86.3392 817.021 Q84.441 818.803 84.441 821.928 Q84.441 825.053 86.3392 826.836 Q88.2604 828.618 91.5938 828.618 Q94.9271 828.618 96.8484 826.836 Q98.7696 825.03 98.7696 821.928 Q98.7696 818.803 96.8484 817.021 Q94.9502 815.239 91.5938 815.239 M86.9179 813.248 Q83.9086 812.507 82.2188 810.447 Q80.5522 808.387 80.5522 805.424 Q80.5522 801.28 83.492 798.873 Q86.4549 796.466 91.5938 796.466 Q96.7558 796.466 99.6956 798.873 Q102.635 801.28 102.635 805.424 Q102.635 808.387 100.946 810.447 Q99.2789 812.507 96.2928 813.248 Q99.6724 814.035 101.547 816.327 Q103.446 818.618 103.446 821.928 Q103.446 826.951 100.367 829.637 Q97.3113 832.322 91.5938 832.322 Q85.8762 832.322 82.7975 829.637 Q79.742 826.951 79.742 821.928 Q79.742 818.618 81.6401 816.327 Q83.5382 814.035 86.9179 813.248 M85.2049 805.864 Q85.2049 808.549 86.8716 810.053 Q88.5614 811.558 91.5938 811.558 Q94.603 811.558 96.2928 810.053 Q98.0058 808.549 98.0058 805.864 Q98.0058 803.178 96.2928 801.674 Q94.603 800.169 91.5938 800.169 Q88.5614 800.169 86.8716 801.674 Q85.2049 803.178 85.2049 805.864 Z" fill="#000000" fill-rule="nonzero" fill-opacity="1" /><path clip-path="url(#clip390)" d="M52.1495 627.022 L59.7884 627.022 L59.7884 600.657 L51.4782 602.323 L51.4782 598.064 L59.7421 596.397 L64.418 596.397 L64.418 627.022 L72.0568 627.022 L72.0568 630.957 L52.1495 630.957 L52.1495 627.022 Z" fill="#000000" fill-rule="nonzero" fill-opacity="1" /><path clip-path="url(#clip390)" d="M91.5012 599.476 Q87.8901 599.476 86.0614 603.041 Q84.2558 606.583 84.2558 613.712 Q84.2558 620.819 86.0614 624.383 Q87.8901 627.925 91.5012 627.925 Q95.1354 627.925 96.941 624.383 Q98.7696 620.819 98.7696 613.712 Q98.7696 606.583 96.941 603.041 Q95.1354 599.476 91.5012 599.476 M91.5012 595.772 Q97.3113 595.772 100.367 600.379 Q103.446 604.962 103.446 613.712 Q103.446 622.439 100.367 627.045 Q97.3113 631.629 91.5012 631.629 Q85.691 631.629 82.6123 627.045 Q79.5568 622.439 79.5568 613.712 Q79.5568 604.962 82.6123 600.379 Q85.691 595.772 91.5012 595.772 Z" fill="#000000" fill-rule="nonzero" fill-opacity="1" /><path clip-path="url(#clip390)" d="M53.7467 426.329 L61.3856 426.329 L61.3856 399.963 L53.0754 401.63 L53.0754 397.371 L61.3393 395.704 L66.0152 395.704 L66.0152 426.329 L73.654 426.329 L73.654 430.264 L53.7467 430.264 L53.7467 426.329 Z" fill="#000000" fill-rule="nonzero" fill-opacity="1" /><path clip-path="url(#clip390)" d="M87.1262 426.329 L103.446 426.329 L103.446 430.264 L81.5012 430.264 L81.5012 426.329 Q84.1632 423.574 88.7466 418.945 Q93.353 414.292 94.5336 412.95 Q96.7789 410.426 97.6585 408.69 Q98.5613 406.931 98.5613 405.241 Q98.5613 402.487 96.6169 400.75 Q94.6956 399.014 91.5938 399.014 Q89.3947 399.014 86.941 399.778 Q84.5105 400.542 81.7327 402.093 L81.7327 397.371 Q84.5568 396.237 87.0105 395.658 Q89.4641 395.079 91.5012 395.079 Q96.8715 395.079 100.066 397.764 Q103.26 400.45 103.26 404.94 Q103.26 407.07 102.45 408.991 Q101.663 410.889 99.5567 413.482 Q98.978 414.153 95.8761 417.371 Q92.7743 420.565 87.1262 426.329 Z" fill="#000000" fill-rule="nonzero" fill-opacity="1" /><path clip-path="url(#clip390)" d="M51.6634 225.636 L59.3023 225.636 L59.3023 199.27 L50.9921 200.937 L50.9921 196.678 L59.256 195.011 L63.9319 195.011 L63.9319 225.636 L71.5707 225.636 L71.5707 229.571 L51.6634 229.571 L51.6634 225.636 Z" fill="#000000" fill-rule="nonzero" fill-opacity="1" /><path clip-path="url(#clip390)" d="M93.8623 199.085 L82.0568 217.534 L93.8623 217.534 L93.8623 199.085 M92.6354 195.011 L98.515 195.011 L98.515 217.534 L103.446 217.534 L103.446 221.423 L98.515 221.423 L98.515 229.571 L93.8623 229.571 L93.8623 221.423 L78.2605 221.423 L78.2605 216.909 L92.6354 195.011 Z" fill="#000000" fill-rule="nonzero" fill-opacity="1" /><polyline clip-path="url(#clip392)" style="stroke:#009af9; stroke-linecap:round; stroke-linejoin:round; stroke-width:4; stroke-opacity:1; fill:none" points="202.086,1175.53 223.178,939.781 244.269,87.9763 265.36,1443.33 286.451,1445.72 307.542,1061.93 328.634,1243.66 349.725,1257.59 370.816,1167.22 391.907,1009.91 412.998,1246.51 434.09,1067.53 455.181,1190.41 476.272,1201.91 497.363,793.687 518.454,1070.87 539.546,1324.72 560.637,1333.86 581.728,1368.35 602.819,1358.63 623.91,1250.52 645.002,1296.15 666.093,1354.77 687.184,1319.09 708.275,1332.78 729.366,1357.29 750.458,1367.67 771.549,1344.46 792.64,1367.17 813.731,1343.88 834.822,1360.3 855.914,1234.06 877.005,1375.27 898.096,1373.9 919.187,979.422 940.278,1234.45 961.37,923.552 982.461,1323.74 1003.55,1308.6 1024.64,1158.92 1045.73,1176.84 1066.83,1357.14 1087.92,1255.86 1109.01,1331.49 1130.1,1299.17 1151.19,1324.95 1172.28,1335.27 1193.37,1252.28 1214.46,789.981 1235.56,1189.65 1256.65,1329.45 1277.74,1347.06 1298.83,1214.5 1319.92,1257.5 1341.01,1346.67 1362.1,1342.17 1383.19,1097.25 1404.28,1323.88 1425.38,1321.14 1446.47,1328.75 1467.56,1332.86 1488.65,1344.47 1509.74,1343.71 1530.83,1349.37 1551.92,1307.78 1573.01,1344.48 1594.11,1346.61 1615.2,1346.18 1636.29,1348.98 1657.38,1294.46 1678.47,1268.44 1699.56,1290.95 1720.65,1351.12 1741.74,1342.26 1762.84,1290.7 1783.93,1256.23 1805.02,1352.95 1826.11,1353.51 1847.2,1260.67 1868.29,1315.06 1889.38,1353.63 1910.47,1319.26 1931.56,1348.64 1952.66,1352.7 1973.75,1093.39 1994.84,1155.73 2015.93,1351.35 2037.02,1312.28 2058.11,1267.65 2079.2,1339.49 2100.29,1347 2121.39,1314.88 2142.48,1287.51 2163.57,1336.76 2184.66,1196.69 2205.75,1288.73 2226.84,1080.21 2247.93,1340.71 2269.02,1339.45 2290.12,1281.39 "/>
<path clip-path="url(#clip390)" d="M1103.35 198.898 L2278.98 198.898 L2278.98 95.2176 L1103.35 95.2176  Z" fill="#ffffff" fill-rule="evenodd" fill-opacity="1"/>
<polyline clip-path="url(#clip390)" style="stroke:#000000; stroke-linecap:round; stroke-linejoin:round; stroke-width:4; stroke-opacity:1; fill:none" points="1103.35,198.898 2278.98,198.898 2278.98,95.2176 1103.35,95.2176 1103.35,198.898 "/>
<polyline clip-path="url(#clip390)" style="stroke:#009af9; stroke-linecap:round; stroke-linejoin:round; stroke-width:4; stroke-opacity:1; fill:none" points="1127.94,147.058 1275.49,147.058 "/>
<path clip-path="url(#clip390)" d="M1304.76 147.833 L1304.76 160.495 L1312.26 160.495 Q1316.04 160.495 1317.84 158.944 Q1319.67 157.37 1319.67 154.152 Q1319.67 150.912 1317.84 149.384 Q1316.04 147.833 1312.26 147.833 L1304.76 147.833 M1304.76 133.62 L1304.76 144.037 L1311.68 144.037 Q1315.11 144.037 1316.78 142.764 Q1318.47 141.467 1318.47 138.828 Q1318.47 136.213 1316.78 134.916 Q1315.11 133.62 1311.68 133.62 L1304.76 133.62 M1300.09 129.778 L1312.03 129.778 Q1317.38 129.778 1320.27 132 Q1323.16 134.222 1323.16 138.319 Q1323.16 141.49 1321.68 143.365 Q1320.2 145.24 1317.33 145.703 Q1320.78 146.444 1322.68 148.805 Q1324.6 151.143 1324.6 154.662 Q1324.6 159.291 1321.45 161.814 Q1318.3 164.338 1312.49 164.338 L1300.09 164.338 L1300.09 129.778 Z" fill="#000000" fill-rule="nonzero" fill-opacity="1" /><path clip-path="url(#clip390)" d="M1354.6 150.31 L1354.6 152.393 L1335.02 152.393 Q1335.29 156.791 1337.66 159.106 Q1340.04 161.398 1344.28 161.398 Q1346.73 161.398 1349.02 160.796 Q1351.34 160.194 1353.6 158.99 L1353.6 163.018 Q1351.31 163.99 1348.91 164.5 Q1346.5 165.009 1344.02 165.009 Q1337.82 165.009 1334.18 161.398 Q1330.57 157.787 1330.57 151.629 Q1330.57 145.264 1334 141.537 Q1337.45 137.787 1343.28 137.787 Q1348.51 137.787 1351.54 141.166 Q1354.6 144.523 1354.6 150.31 M1350.34 149.06 Q1350.29 145.565 1348.37 143.481 Q1346.47 141.398 1343.33 141.398 Q1339.76 141.398 1337.61 143.412 Q1335.48 145.426 1335.16 149.083 L1350.34 149.06 Z" fill="#000000" fill-rule="nonzero" fill-opacity="1" /><path clip-path="url(#clip390)" d="M1365.8 131.051 L1365.8 138.412 L1374.58 138.412 L1374.58 141.722 L1365.8 141.722 L1365.8 155.796 Q1365.8 158.967 1366.66 159.87 Q1367.54 160.773 1370.2 160.773 L1374.58 160.773 L1374.58 164.338 L1370.2 164.338 Q1365.27 164.338 1363.4 162.509 Q1361.52 160.657 1361.52 155.796 L1361.52 141.722 L1358.4 141.722 L1358.4 138.412 L1361.52 138.412 L1361.52 131.051 L1365.8 131.051 Z" fill="#000000" fill-rule="nonzero" fill-opacity="1" /><path clip-path="url(#clip390)" d="M1401.73 148.689 L1401.73 164.338 L1397.47 164.338 L1397.47 148.828 Q1397.47 145.148 1396.03 143.319 Q1394.6 141.49 1391.73 141.49 Q1388.28 141.49 1386.29 143.69 Q1384.3 145.889 1384.3 149.685 L1384.3 164.338 L1380.02 164.338 L1380.02 128.319 L1384.3 128.319 L1384.3 142.44 Q1385.83 140.102 1387.89 138.944 Q1389.97 137.787 1392.68 137.787 Q1397.15 137.787 1399.44 140.565 Q1401.73 143.319 1401.73 148.689 Z" fill="#000000" fill-rule="nonzero" fill-opacity="1" /><path clip-path="url(#clip390)" d="M1432.4 150.31 L1432.4 152.393 L1412.82 152.393 Q1413.09 156.791 1415.46 159.106 Q1417.84 161.398 1422.08 161.398 Q1424.53 161.398 1426.82 160.796 Q1429.14 160.194 1431.4 158.99 L1431.4 163.018 Q1429.11 163.99 1426.71 164.5 Q1424.3 165.009 1421.82 165.009 Q1415.62 165.009 1411.98 161.398 Q1408.37 157.787 1408.37 151.629 Q1408.37 145.264 1411.8 141.537 Q1415.25 137.787 1421.08 137.787 Q1426.31 137.787 1429.34 141.166 Q1432.4 144.523 1432.4 150.31 M1428.14 149.06 Q1428.09 145.565 1426.17 143.481 Q1424.28 141.398 1421.13 141.398 Q1417.56 141.398 1415.41 143.412 Q1413.28 145.426 1412.96 149.083 L1428.14 149.06 Z" fill="#000000" fill-rule="nonzero" fill-opacity="1" /><path clip-path="url(#clip390)" d="M1454.65 129.778 L1474.51 129.778 L1474.51 133.713 L1459.32 133.713 L1459.32 143.898 L1473.03 143.898 L1473.03 147.833 L1459.32 147.833 L1459.32 164.338 L1454.65 164.338 L1454.65 129.778 Z" fill="#000000" fill-rule="nonzero" fill-opacity="1" /><path clip-path="url(#clip390)" d="M1493.3 142.393 Q1492.59 141.977 1491.73 141.791 Q1490.9 141.583 1489.88 141.583 Q1486.27 141.583 1484.32 143.944 Q1482.4 146.282 1482.4 150.68 L1482.4 164.338 L1478.12 164.338 L1478.12 138.412 L1482.4 138.412 L1482.4 142.44 Q1483.74 140.078 1485.9 138.944 Q1488.05 137.787 1491.13 137.787 Q1491.57 137.787 1492.1 137.856 Q1492.63 137.903 1493.28 138.018 L1493.3 142.393 Z" fill="#000000" fill-rule="nonzero" fill-opacity="1" /><path clip-path="url(#clip390)" d="M1518.9 150.31 L1518.9 152.393 L1499.32 152.393 Q1499.6 156.791 1501.96 159.106 Q1504.34 161.398 1508.58 161.398 Q1511.03 161.398 1513.33 160.796 Q1515.64 160.194 1517.91 158.99 L1517.91 163.018 Q1515.62 163.99 1513.21 164.5 Q1510.8 165.009 1508.33 165.009 Q1502.12 165.009 1498.49 161.398 Q1494.88 157.787 1494.88 151.629 Q1494.88 145.264 1498.3 141.537 Q1501.75 137.787 1507.59 137.787 Q1512.82 137.787 1515.85 141.166 Q1518.9 144.523 1518.9 150.31 M1514.65 149.06 Q1514.6 145.565 1512.68 143.481 Q1510.78 141.398 1507.63 141.398 Q1504.07 141.398 1501.91 143.412 Q1499.78 145.426 1499.46 149.083 L1514.65 149.06 Z" fill="#000000" fill-rule="nonzero" fill-opacity="1" /><path clip-path="url(#clip390)" d="M1548.07 150.31 L1548.07 152.393 L1528.49 152.393 Q1528.77 156.791 1531.13 159.106 Q1533.51 161.398 1537.75 161.398 Q1540.2 161.398 1542.49 160.796 Q1544.81 160.194 1547.08 158.99 L1547.08 163.018 Q1544.78 163.99 1542.38 164.5 Q1539.97 165.009 1537.49 165.009 Q1531.29 165.009 1527.65 161.398 Q1524.04 157.787 1524.04 151.629 Q1524.04 145.264 1527.47 141.537 Q1530.92 137.787 1536.75 137.787 Q1541.98 137.787 1545.02 141.166 Q1548.07 144.523 1548.07 150.31 M1543.81 149.06 Q1543.77 145.565 1541.84 143.481 Q1539.95 141.398 1536.8 141.398 Q1533.23 141.398 1531.08 143.412 Q1528.95 145.426 1528.63 149.083 L1543.81 149.06 Z" fill="#000000" fill-rule="nonzero" fill-opacity="1" /><path clip-path="url(#clip390)" d="M1570.32 129.778 L1592.17 129.778 L1592.17 133.713 L1574.99 133.713 L1574.99 143.944 L1591.45 143.944 L1591.45 147.879 L1574.99 147.879 L1574.99 160.402 L1592.58 160.402 L1592.58 164.338 L1570.32 164.338 L1570.32 129.778 Z" fill="#000000" fill-rule="nonzero" fill-opacity="1" /><path clip-path="url(#clip390)" d="M1621.64 148.689 L1621.64 164.338 L1617.38 164.338 L1617.38 148.828 Q1617.38 145.148 1615.94 143.319 Q1614.51 141.49 1611.64 141.49 Q1608.19 141.49 1606.2 143.69 Q1604.2 145.889 1604.2 149.685 L1604.2 164.338 L1599.92 164.338 L1599.92 138.412 L1604.2 138.412 L1604.2 142.44 Q1605.73 140.102 1607.79 138.944 Q1609.88 137.787 1612.58 137.787 Q1617.05 137.787 1619.34 140.565 Q1621.64 143.319 1621.64 148.689 Z" fill="#000000" fill-rule="nonzero" fill-opacity="1" /><path clip-path="url(#clip390)" d="M1652.31 150.31 L1652.31 152.393 L1632.72 152.393 Q1633 156.791 1635.36 159.106 Q1637.75 161.398 1641.98 161.398 Q1644.44 161.398 1646.73 160.796 Q1649.04 160.194 1651.31 158.99 L1651.31 163.018 Q1649.02 163.99 1646.61 164.5 Q1644.2 165.009 1641.73 165.009 Q1635.52 165.009 1631.89 161.398 Q1628.28 157.787 1628.28 151.629 Q1628.28 145.264 1631.7 141.537 Q1635.15 137.787 1640.99 137.787 Q1646.22 137.787 1649.25 141.166 Q1652.31 144.523 1652.31 150.31 M1648.05 149.06 Q1648 145.565 1646.08 143.481 Q1644.18 141.398 1641.03 141.398 Q1637.47 141.398 1635.32 143.412 Q1633.19 145.426 1632.86 149.083 L1648.05 149.06 Z" fill="#000000" fill-rule="nonzero" fill-opacity="1" /><path clip-path="url(#clip390)" d="M1674.32 142.393 Q1673.6 141.977 1672.75 141.791 Q1671.91 141.583 1670.89 141.583 Q1667.28 141.583 1665.34 143.944 Q1663.42 146.282 1663.42 150.68 L1663.42 164.338 L1659.14 164.338 L1659.14 138.412 L1663.42 138.412 L1663.42 142.44 Q1664.76 140.078 1666.91 138.944 Q1669.07 137.787 1672.14 137.787 Q1672.58 137.787 1673.12 137.856 Q1673.65 137.903 1674.3 138.018 L1674.32 142.393 Z" fill="#000000" fill-rule="nonzero" fill-opacity="1" /><path clip-path="url(#clip390)" d="M1695.01 151.074 Q1695.01 146.444 1693.09 143.898 Q1691.2 141.352 1687.75 141.352 Q1684.32 141.352 1682.4 143.898 Q1680.5 146.444 1680.5 151.074 Q1680.5 155.68 1682.4 158.226 Q1684.32 160.773 1687.75 160.773 Q1691.2 160.773 1693.09 158.226 Q1695.01 155.68 1695.01 151.074 M1699.27 161.12 Q1699.27 167.74 1696.33 170.958 Q1693.39 174.199 1687.33 174.199 Q1685.08 174.199 1683.09 173.851 Q1681.1 173.527 1679.23 172.833 L1679.23 168.689 Q1681.1 169.708 1682.93 170.194 Q1684.76 170.68 1686.66 170.68 Q1690.85 170.68 1692.93 168.481 Q1695.01 166.305 1695.01 161.884 L1695.01 159.777 Q1693.7 162.069 1691.63 163.203 Q1689.57 164.338 1686.7 164.338 Q1681.94 164.338 1679.02 160.703 Q1676.1 157.069 1676.1 151.074 Q1676.1 145.055 1679.02 141.421 Q1681.94 137.787 1686.7 137.787 Q1689.57 137.787 1691.63 138.921 Q1693.7 140.055 1695.01 142.347 L1695.01 138.412 L1699.27 138.412 L1699.27 161.12 Z" fill="#000000" fill-rule="nonzero" fill-opacity="1" /><path clip-path="url(#clip390)" d="M1718.83 166.745 Q1717.03 171.375 1715.32 172.787 Q1713.6 174.199 1710.73 174.199 L1707.33 174.199 L1707.33 170.634 L1709.83 170.634 Q1711.59 170.634 1712.56 169.8 Q1713.53 168.967 1714.71 165.865 L1715.48 163.921 L1704.99 138.412 L1709.51 138.412 L1717.61 158.689 L1725.71 138.412 L1730.22 138.412 L1718.83 166.745 Z" fill="#000000" fill-rule="nonzero" fill-opacity="1" /><path clip-path="url(#clip390)" d="M1761.4 128.366 Q1758.3 133.69 1756.8 138.898 Q1755.29 144.106 1755.29 149.453 Q1755.29 154.801 1756.8 160.055 Q1758.32 165.287 1761.4 170.588 L1757.7 170.588 Q1754.23 165.148 1752.49 159.893 Q1750.78 154.639 1750.78 149.453 Q1750.78 144.291 1752.49 139.06 Q1754.2 133.828 1757.7 128.366 L1761.4 128.366 Z" fill="#000000" fill-rule="nonzero" fill-opacity="1" /><path clip-path="url(#clip390)" d="M1769.67 128.319 L1773.93 128.319 L1773.93 164.338 L1769.67 164.338 L1769.67 128.319 Z" fill="#000000" fill-rule="nonzero" fill-opacity="1" /><path clip-path="url(#clip390)" d="M1794.62 151.305 Q1789.46 151.305 1787.47 152.486 Q1785.48 153.666 1785.48 156.514 Q1785.48 158.782 1786.96 160.125 Q1788.46 161.444 1791.03 161.444 Q1794.57 161.444 1796.7 158.944 Q1798.86 156.421 1798.86 152.254 L1798.86 151.305 L1794.62 151.305 M1803.12 149.546 L1803.12 164.338 L1798.86 164.338 L1798.86 160.402 Q1797.4 162.763 1795.22 163.898 Q1793.05 165.009 1789.9 165.009 Q1785.92 165.009 1783.56 162.787 Q1781.22 160.541 1781.22 156.791 Q1781.22 152.416 1784.13 150.194 Q1787.07 147.972 1792.88 147.972 L1798.86 147.972 L1798.86 147.555 Q1798.86 144.615 1796.91 143.018 Q1794.99 141.398 1791.5 141.398 Q1789.27 141.398 1787.17 141.93 Q1785.06 142.463 1783.12 143.527 L1783.12 139.592 Q1785.45 138.69 1787.65 138.25 Q1789.85 137.787 1791.94 137.787 Q1797.56 137.787 1800.34 140.703 Q1803.12 143.62 1803.12 149.546 Z" fill="#000000" fill-rule="nonzero" fill-opacity="1" /><path clip-path="url(#clip390)" d="M1828.42 139.176 L1828.42 143.203 Q1826.61 142.277 1824.67 141.815 Q1822.72 141.352 1820.64 141.352 Q1817.47 141.352 1815.87 142.324 Q1814.3 143.296 1814.3 145.24 Q1814.3 146.722 1815.43 147.578 Q1816.56 148.412 1819.99 149.176 L1821.45 149.5 Q1825.99 150.472 1827.88 152.254 Q1829.81 154.014 1829.81 157.185 Q1829.81 160.796 1826.94 162.902 Q1824.09 165.009 1819.09 165.009 Q1817 165.009 1814.74 164.592 Q1812.49 164.199 1809.99 163.388 L1809.99 158.99 Q1812.35 160.217 1814.64 160.842 Q1816.94 161.444 1819.18 161.444 Q1822.19 161.444 1823.81 160.426 Q1825.43 159.384 1825.43 157.509 Q1825.43 155.773 1824.25 154.847 Q1823.09 153.921 1819.13 153.064 L1817.65 152.717 Q1813.69 151.884 1811.94 150.171 Q1810.18 148.435 1810.18 145.426 Q1810.18 141.768 1812.77 139.778 Q1815.36 137.787 1820.13 137.787 Q1822.49 137.787 1824.57 138.134 Q1826.66 138.481 1828.42 139.176 Z" fill="#000000" fill-rule="nonzero" fill-opacity="1" /><path clip-path="url(#clip390)" d="M1840.8 131.051 L1840.8 138.412 L1849.57 138.412 L1849.57 141.722 L1840.8 141.722 L1840.8 155.796 Q1840.8 158.967 1841.66 159.87 Q1842.54 160.773 1845.2 160.773 L1849.57 160.773 L1849.57 164.338 L1845.2 164.338 Q1840.27 164.338 1838.39 162.509 Q1836.52 160.657 1836.52 155.796 L1836.52 141.722 L1833.39 141.722 L1833.39 138.412 L1836.52 138.412 L1836.52 131.051 L1840.8 131.051 Z" fill="#000000" fill-rule="nonzero" fill-opacity="1" /><path clip-path="url(#clip390)" d="M1874.37 160.449 L1874.37 174.199 L1870.08 174.199 L1870.08 138.412 L1874.37 138.412 L1874.37 142.347 Q1875.71 140.032 1877.75 138.921 Q1879.81 137.787 1882.65 137.787 Q1887.37 137.787 1890.31 141.537 Q1893.28 145.287 1893.28 151.398 Q1893.28 157.509 1890.31 161.259 Q1887.37 165.009 1882.65 165.009 Q1879.81 165.009 1877.75 163.898 Q1875.71 162.763 1874.37 160.449 M1888.86 151.398 Q1888.86 146.699 1886.91 144.037 Q1884.99 141.352 1881.61 141.352 Q1878.23 141.352 1876.29 144.037 Q1874.37 146.699 1874.37 151.398 Q1874.37 156.097 1876.29 158.782 Q1878.23 161.444 1881.61 161.444 Q1884.99 161.444 1886.91 158.782 Q1888.86 156.097 1888.86 151.398 Z" fill="#000000" fill-rule="nonzero" fill-opacity="1" /><path clip-path="url(#clip390)" d="M1922.51 150.31 L1922.51 152.393 L1902.93 152.393 Q1903.21 156.791 1905.57 159.106 Q1907.95 161.398 1912.19 161.398 Q1914.64 161.398 1916.93 160.796 Q1919.25 160.194 1921.52 158.99 L1921.52 163.018 Q1919.23 163.99 1916.82 164.5 Q1914.41 165.009 1911.93 165.009 Q1905.73 165.009 1902.1 161.398 Q1898.49 157.787 1898.49 151.629 Q1898.49 145.264 1901.91 141.537 Q1905.36 137.787 1911.19 137.787 Q1916.43 137.787 1919.46 141.166 Q1922.51 144.523 1922.51 150.31 M1918.25 149.06 Q1918.21 145.565 1916.29 143.481 Q1914.39 141.398 1911.24 141.398 Q1907.68 141.398 1905.52 143.412 Q1903.39 145.426 1903.07 149.083 L1918.25 149.06 Z" fill="#000000" fill-rule="nonzero" fill-opacity="1" /><path clip-path="url(#clip390)" d="M1944.53 142.393 Q1943.81 141.977 1942.95 141.791 Q1942.12 141.583 1941.1 141.583 Q1937.49 141.583 1935.55 143.944 Q1933.62 146.282 1933.62 150.68 L1933.62 164.338 L1929.34 164.338 L1929.34 138.412 L1933.62 138.412 L1933.62 142.44 Q1934.97 140.078 1937.12 138.944 Q1939.27 137.787 1942.35 137.787 Q1942.79 137.787 1943.32 137.856 Q1943.86 137.903 1944.5 138.018 L1944.53 142.393 Z" fill="#000000" fill-rule="nonzero" fill-opacity="1" /><path clip-path="url(#clip390)" d="M1974.11 141.398 Q1970.68 141.398 1968.69 144.083 Q1966.7 146.745 1966.7 151.398 Q1966.7 156.051 1968.67 158.736 Q1970.66 161.398 1974.11 161.398 Q1977.51 161.398 1979.5 158.713 Q1981.49 156.027 1981.49 151.398 Q1981.49 146.791 1979.5 144.106 Q1977.51 141.398 1974.11 141.398 M1974.11 137.787 Q1979.67 137.787 1982.84 141.398 Q1986.01 145.009 1986.01 151.398 Q1986.01 157.764 1982.84 161.398 Q1979.67 165.009 1974.11 165.009 Q1968.53 165.009 1965.36 161.398 Q1962.21 157.764 1962.21 151.398 Q1962.21 145.009 1965.36 141.398 Q1968.53 137.787 1974.11 137.787 Z" fill="#000000" fill-rule="nonzero" fill-opacity="1" /><path clip-path="url(#clip390)" d="M2011.68 151.398 Q2011.68 146.699 2009.74 144.037 Q2007.81 141.352 2004.43 141.352 Q2001.05 141.352 1999.11 144.037 Q1997.19 146.699 1997.19 151.398 Q1997.19 156.097 1999.11 158.782 Q2001.05 161.444 2004.43 161.444 Q2007.81 161.444 2009.74 158.782 Q2011.68 156.097 2011.68 151.398 M1997.19 142.347 Q1998.53 140.032 2000.57 138.921 Q2002.63 137.787 2005.48 137.787 Q2010.2 137.787 2013.14 141.537 Q2016.1 145.287 2016.1 151.398 Q2016.1 157.509 2013.14 161.259 Q2010.2 165.009 2005.48 165.009 Q2002.63 165.009 2000.57 163.898 Q1998.53 162.763 1997.19 160.449 L1997.19 164.338 L1992.91 164.338 L1992.91 128.319 L1997.19 128.319 L1997.19 142.347 Z" fill="#000000" fill-rule="nonzero" fill-opacity="1" /><path clip-path="url(#clip390)" d="M2039.69 139.176 L2039.69 143.203 Q2037.88 142.277 2035.94 141.815 Q2033.99 141.352 2031.91 141.352 Q2028.74 141.352 2027.14 142.324 Q2025.57 143.296 2025.57 145.24 Q2025.57 146.722 2026.7 147.578 Q2027.84 148.412 2031.26 149.176 L2032.72 149.5 Q2037.26 150.472 2039.16 152.254 Q2041.08 154.014 2041.08 157.185 Q2041.08 160.796 2038.21 162.902 Q2035.36 165.009 2030.36 165.009 Q2028.28 165.009 2026.01 164.592 Q2023.76 164.199 2021.26 163.388 L2021.26 158.99 Q2023.62 160.217 2025.92 160.842 Q2028.21 161.444 2030.45 161.444 Q2033.46 161.444 2035.08 160.426 Q2036.7 159.384 2036.7 157.509 Q2036.7 155.773 2035.52 154.847 Q2034.36 153.921 2030.41 153.064 L2028.92 152.717 Q2024.97 151.884 2023.21 150.171 Q2021.45 148.435 2021.45 145.426 Q2021.45 141.768 2024.04 139.778 Q2026.63 137.787 2031.4 137.787 Q2033.76 137.787 2035.85 138.134 Q2037.93 138.481 2039.69 139.176 Z" fill="#000000" fill-rule="nonzero" fill-opacity="1" /><path clip-path="url(#clip390)" d="M2070.04 150.31 L2070.04 152.393 L2050.45 152.393 Q2050.73 156.791 2053.09 159.106 Q2055.48 161.398 2059.71 161.398 Q2062.17 161.398 2064.46 160.796 Q2066.77 160.194 2069.04 158.99 L2069.04 163.018 Q2066.75 163.99 2064.34 164.5 Q2061.93 165.009 2059.46 165.009 Q2053.25 165.009 2049.62 161.398 Q2046.01 157.787 2046.01 151.629 Q2046.01 145.264 2049.43 141.537 Q2052.88 137.787 2058.72 137.787 Q2063.95 137.787 2066.98 141.166 Q2070.04 144.523 2070.04 150.31 M2065.78 149.06 Q2065.73 145.565 2063.81 143.481 Q2061.91 141.398 2058.76 141.398 Q2055.2 141.398 2053.05 143.412 Q2050.92 145.426 2050.59 149.083 L2065.78 149.06 Z" fill="#000000" fill-rule="nonzero" fill-opacity="1" /><path clip-path="url(#clip390)" d="M2092.05 142.393 Q2091.33 141.977 2090.48 141.791 Q2089.64 141.583 2088.62 141.583 Q2085.01 141.583 2083.07 143.944 Q2081.15 146.282 2081.15 150.68 L2081.15 164.338 L2076.86 164.338 L2076.86 138.412 L2081.15 138.412 L2081.15 142.44 Q2082.49 140.078 2084.64 138.944 Q2086.79 137.787 2089.87 137.787 Q2090.31 137.787 2090.85 137.856 Q2091.38 137.903 2092.03 138.018 L2092.05 142.393 Z" fill="#000000" fill-rule="nonzero" fill-opacity="1" /><path clip-path="url(#clip390)" d="M2093.46 138.412 L2097.98 138.412 L2106.08 160.171 L2114.18 138.412 L2118.69 138.412 L2108.97 164.338 L2103.18 164.338 L2093.46 138.412 Z" fill="#000000" fill-rule="nonzero" fill-opacity="1" /><path clip-path="url(#clip390)" d="M2136.35 151.305 Q2131.19 151.305 2129.2 152.486 Q2127.21 153.666 2127.21 156.514 Q2127.21 158.782 2128.69 160.125 Q2130.2 161.444 2132.77 161.444 Q2136.31 161.444 2138.44 158.944 Q2140.59 156.421 2140.59 152.254 L2140.59 151.305 L2136.35 151.305 M2144.85 149.546 L2144.85 164.338 L2140.59 164.338 L2140.59 160.402 Q2139.13 162.763 2136.96 163.898 Q2134.78 165.009 2131.63 165.009 Q2127.65 165.009 2125.29 162.787 Q2122.95 160.541 2122.95 156.791 Q2122.95 152.416 2125.87 150.194 Q2128.81 147.972 2134.62 147.972 L2140.59 147.972 L2140.59 147.555 Q2140.59 144.615 2138.65 143.018 Q2136.73 141.398 2133.23 141.398 Q2131.01 141.398 2128.9 141.93 Q2126.79 142.463 2124.85 143.527 L2124.85 139.592 Q2127.19 138.69 2129.39 138.25 Q2131.59 137.787 2133.67 137.787 Q2139.29 137.787 2142.07 140.703 Q2144.85 143.62 2144.85 149.546 Z" fill="#000000" fill-rule="nonzero" fill-opacity="1" /><path clip-path="url(#clip390)" d="M2157.84 131.051 L2157.84 138.412 L2166.61 138.412 L2166.61 141.722 L2157.84 141.722 L2157.84 155.796 Q2157.84 158.967 2158.69 159.87 Q2159.57 160.773 2162.23 160.773 L2166.61 160.773 L2166.61 164.338 L2162.23 164.338 Q2157.3 164.338 2155.43 162.509 Q2153.55 160.657 2153.55 155.796 L2153.55 141.722 L2150.43 141.722 L2150.43 138.412 L2153.55 138.412 L2153.55 131.051 L2157.84 131.051 Z" fill="#000000" fill-rule="nonzero" fill-opacity="1" /><path clip-path="url(#clip390)" d="M2172.21 138.412 L2176.47 138.412 L2176.47 164.338 L2172.21 164.338 L2172.21 138.412 M2172.21 128.319 L2176.47 128.319 L2176.47 133.713 L2172.21 133.713 L2172.21 128.319 Z" fill="#000000" fill-rule="nonzero" fill-opacity="1" /><path clip-path="url(#clip390)" d="M2195.43 141.398 Q2192 141.398 2190.01 144.083 Q2188.02 146.745 2188.02 151.398 Q2188.02 156.051 2189.99 158.736 Q2191.98 161.398 2195.43 161.398 Q2198.83 161.398 2200.82 158.713 Q2202.81 156.027 2202.81 151.398 Q2202.81 146.791 2200.82 144.106 Q2198.83 141.398 2195.43 141.398 M2195.43 137.787 Q2200.98 137.787 2204.16 141.398 Q2207.33 145.009 2207.33 151.398 Q2207.33 157.764 2204.16 161.398 Q2200.98 165.009 2195.43 165.009 Q2189.85 165.009 2186.68 161.398 Q2183.53 157.764 2183.53 151.398 Q2183.53 145.009 2186.68 141.398 Q2189.85 137.787 2195.43 137.787 Z" fill="#000000" fill-rule="nonzero" fill-opacity="1" /><path clip-path="url(#clip390)" d="M2235.94 148.689 L2235.94 164.338 L2231.68 164.338 L2231.68 148.828 Q2231.68 145.148 2230.24 143.319 Q2228.81 141.49 2225.94 141.49 Q2222.49 141.49 2220.5 143.69 Q2218.51 145.889 2218.51 149.685 L2218.51 164.338 L2214.22 164.338 L2214.22 138.412 L2218.51 138.412 L2218.51 142.44 Q2220.03 140.102 2222.1 138.944 Q2224.18 137.787 2226.89 137.787 Q2231.35 137.787 2233.65 140.565 Q2235.94 143.319 2235.94 148.689 Z" fill="#000000" fill-rule="nonzero" fill-opacity="1" /><path clip-path="url(#clip390)" d="M2243.76 128.366 L2247.47 128.366 Q2250.94 133.828 2252.65 139.06 Q2254.39 144.291 2254.39 149.453 Q2254.39 154.639 2252.65 159.893 Q2250.94 165.148 2247.47 170.588 L2243.76 170.588 Q2246.84 165.287 2248.34 160.055 Q2249.87 154.801 2249.87 149.453 Q2249.87 144.106 2248.34 138.898 Q2246.84 133.69 2243.76 128.366 Z" fill="#000000" fill-rule="nonzero" fill-opacity="1" /></svg>
