<?xml version="1.0" encoding="utf-8"?>
<svg xmlns="http://www.w3.org/2000/svg" xmlns:xlink="http://www.w3.org/1999/xlink" width="600" height="400" viewBox="0 0 2400 1600">
<defs>
  <clipPath id="clip650">
    <rect x="0" y="0" width="2400" height="1600"/>
  </clipPath>
</defs>
<path clip-path="url(#clip650)" d="M0 1600 L2400 1600 L2400 0 L0 0  Z" fill="#ffffff" fill-rule="evenodd" fill-opacity="1"/>
<defs>
  <clipPath id="clip651">
    <rect x="480" y="0" width="1681" height="1600"/>
  </clipPath>
</defs>
<path clip-path="url(#clip650)" d="M140.696 1486.45 L2352.76 1486.45 L2352.76 123.472 L140.696 123.472  Z" fill="#ffffff" fill-rule="evenodd" fill-opacity="1"/>
<defs>
  <clipPath id="clip652">
    <rect x="140" y="123" width="2213" height="1364"/>
  </clipPath>
</defs>
<polyline clip-path="url(#clip652)" style="stroke:#000000; stroke-linecap:round; stroke-linejoin:round; stroke-width:2; stroke-opacity:0.1; fill:none" points="203.301,1486.45 203.301,123.472 "/>
<polyline clip-path="url(#clip652)" style="stroke:#000000; stroke-linecap:round; stroke-linejoin:round; stroke-width:2; stroke-opacity:0.1; fill:none" points="725.013,1486.45 725.013,123.472 "/>
<polyline clip-path="url(#clip652)" style="stroke:#000000; stroke-linecap:round; stroke-linejoin:round; stroke-width:2; stroke-opacity:0.1; fill:none" points="1246.73,1486.45 1246.73,123.472 "/>
<polyline clip-path="url(#clip652)" style="stroke:#000000; stroke-linecap:round; stroke-linejoin:round; stroke-width:2; stroke-opacity:0.1; fill:none" points="1768.44,1486.45 1768.44,123.472 "/>
<polyline clip-path="url(#clip652)" style="stroke:#000000; stroke-linecap:round; stroke-linejoin:round; stroke-width:2; stroke-opacity:0.1; fill:none" points="2290.15,1486.45 2290.15,123.472 "/>
<polyline clip-path="url(#clip650)" style="stroke:#000000; stroke-linecap:round; stroke-linejoin:round; stroke-width:4; stroke-opacity:1; fill:none" points="140.696,1486.45 2352.76,1486.45 "/>
<polyline clip-path="url(#clip650)" style="stroke:#000000; stroke-linecap:round; stroke-linejoin:round; stroke-width:4; stroke-opacity:1; fill:none" points="203.301,1486.45 203.301,1467.55 "/>
<polyline clip-path="url(#clip650)" style="stroke:#000000; stroke-linecap:round; stroke-linejoin:round; stroke-width:4; stroke-opacity:1; fill:none" points="725.013,1486.45 725.013,1467.55 "/>
<polyline clip-path="url(#clip650)" style="stroke:#000000; stroke-linecap:round; stroke-linejoin:round; stroke-width:4; stroke-opacity:1; fill:none" points="1246.73,1486.45 1246.73,1467.55 "/>
<polyline clip-path="url(#clip650)" style="stroke:#000000; stroke-linecap:round; stroke-linejoin:round; stroke-width:4; stroke-opacity:1; fill:none" points="1768.44,1486.45 1768.44,1467.55 "/>
<polyline clip-path="url(#clip650)" style="stroke:#000000; stroke-linecap:round; stroke-linejoin:round; stroke-width:4; stroke-opacity:1; fill:none" points="2290.15,1486.45 2290.15,1467.55 "/>
<path clip-path="url(#clip650)" d="M165.604 1517.37 Q161.993 1517.37 160.165 1520.93 Q158.359 1524.47 158.359 1531.6 Q158.359 1538.71 160.165 1542.27 Q161.993 1545.82 165.604 1545.82 Q169.239 1545.82 171.044 1542.27 Q172.873 1538.71 172.873 1531.6 Q172.873 1524.47 171.044 1520.93 Q169.239 1517.37 165.604 1517.37 M165.604 1513.66 Q171.415 1513.66 174.47 1518.27 Q177.549 1522.85 177.549 1531.6 Q177.549 1540.33 174.47 1544.94 Q171.415 1549.52 165.604 1549.52 Q159.794 1549.52 156.716 1544.94 Q153.66 1540.33 153.66 1531.6 Q153.66 1522.85 156.716 1518.27 Q159.794 1513.66 165.604 1513.66 Z" fill="#000000" fill-rule="nonzero" fill-opacity="1" /><path clip-path="url(#clip650)" d="M185.766 1542.97 L190.651 1542.97 L190.651 1548.85 L185.766 1548.85 L185.766 1542.97 Z" fill="#000000" fill-rule="nonzero" fill-opacity="1" /><path clip-path="url(#clip650)" d="M210.836 1517.37 Q207.225 1517.37 205.396 1520.93 Q203.59 1524.47 203.59 1531.6 Q203.59 1538.71 205.396 1542.27 Q207.225 1545.82 210.836 1545.82 Q214.47 1545.82 216.275 1542.27 Q218.104 1538.71 218.104 1531.6 Q218.104 1524.47 216.275 1520.93 Q214.47 1517.37 210.836 1517.37 M210.836 1513.66 Q216.646 1513.66 219.701 1518.27 Q222.78 1522.85 222.78 1531.6 Q222.78 1540.33 219.701 1544.94 Q216.646 1549.52 210.836 1549.52 Q205.026 1549.52 201.947 1544.94 Q198.891 1540.33 198.891 1531.6 Q198.891 1522.85 201.947 1518.27 Q205.026 1513.66 210.836 1513.66 Z" fill="#000000" fill-rule="nonzero" fill-opacity="1" /><path clip-path="url(#clip650)" d="M240.998 1517.37 Q237.386 1517.37 235.558 1520.93 Q233.752 1524.47 233.752 1531.6 Q233.752 1538.71 235.558 1542.27 Q237.386 1545.82 240.998 1545.82 Q244.632 1545.82 246.437 1542.27 Q248.266 1538.71 248.266 1531.6 Q248.266 1524.47 246.437 1520.93 Q244.632 1517.37 240.998 1517.37 M240.998 1513.66 Q246.808 1513.66 249.863 1518.27 Q252.942 1522.85 252.942 1531.6 Q252.942 1540.33 249.863 1544.94 Q246.808 1549.52 240.998 1549.52 Q235.187 1549.52 232.109 1544.94 Q229.053 1540.33 229.053 1531.6 Q229.053 1522.85 232.109 1518.27 Q235.187 1513.66 240.998 1513.66 Z" fill="#000000" fill-rule="nonzero" fill-opacity="1" /><path clip-path="url(#clip650)" d="M687.814 1517.37 Q684.203 1517.37 682.375 1520.93 Q680.569 1524.47 680.569 1531.6 Q680.569 1538.71 682.375 1542.27 Q684.203 1545.82 687.814 1545.82 Q691.449 1545.82 693.254 1542.27 Q695.083 1538.71 695.083 1531.6 Q695.083 1524.47 693.254 1520.93 Q691.449 1517.37 687.814 1517.37 M687.814 1513.66 Q693.625 1513.66 696.68 1518.27 Q699.759 1522.85 699.759 1531.6 Q699.759 1540.33 696.68 1544.94 Q693.625 1549.52 687.814 1549.52 Q682.004 1549.52 678.926 1544.94 Q675.87 1540.33 675.87 1531.6 Q675.87 1522.85 678.926 1518.27 Q682.004 1513.66 687.814 1513.66 Z" fill="#000000" fill-rule="nonzero" fill-opacity="1" /><path clip-path="url(#clip650)" d="M707.976 1542.97 L712.861 1542.97 L712.861 1548.85 L707.976 1548.85 L707.976 1542.97 Z" fill="#000000" fill-rule="nonzero" fill-opacity="1" /><path clip-path="url(#clip650)" d="M727.074 1544.91 L743.393 1544.91 L743.393 1548.85 L721.449 1548.85 L721.449 1544.91 Q724.111 1542.16 728.694 1537.53 Q733.3 1532.88 734.481 1531.53 Q736.726 1529.01 737.606 1527.27 Q738.509 1525.51 738.509 1523.82 Q738.509 1521.07 736.564 1519.33 Q734.643 1517.6 731.541 1517.6 Q729.342 1517.6 726.888 1518.36 Q724.458 1519.13 721.68 1520.68 L721.68 1515.95 Q724.504 1514.82 726.958 1514.24 Q729.411 1513.66 731.449 1513.66 Q736.819 1513.66 740.013 1516.35 Q743.208 1519.03 743.208 1523.52 Q743.208 1525.65 742.398 1527.57 Q741.611 1529.47 739.504 1532.07 Q738.925 1532.74 735.824 1535.95 Q732.722 1539.15 727.074 1544.91 Z" fill="#000000" fill-rule="nonzero" fill-opacity="1" /><path clip-path="url(#clip650)" d="M753.254 1514.29 L771.61 1514.29 L771.61 1518.22 L757.536 1518.22 L757.536 1526.7 Q758.555 1526.35 759.573 1526.19 Q760.592 1526 761.61 1526 Q767.397 1526 770.777 1529.17 Q774.157 1532.34 774.157 1537.76 Q774.157 1543.34 770.684 1546.44 Q767.212 1549.52 760.893 1549.52 Q758.717 1549.52 756.448 1549.15 Q754.203 1548.78 751.796 1548.04 L751.796 1543.34 Q753.879 1544.47 756.101 1545.03 Q758.323 1545.58 760.8 1545.58 Q764.805 1545.58 767.143 1543.48 Q769.481 1541.37 769.481 1537.76 Q769.481 1534.15 767.143 1532.04 Q764.805 1529.94 760.8 1529.94 Q758.925 1529.94 757.05 1530.35 Q755.198 1530.77 753.254 1531.65 L753.254 1514.29 Z" fill="#000000" fill-rule="nonzero" fill-opacity="1" /><path clip-path="url(#clip650)" d="M1209.03 1517.37 Q1205.42 1517.37 1203.59 1520.93 Q1201.78 1524.47 1201.78 1531.6 Q1201.78 1538.71 1203.59 1542.27 Q1205.42 1545.82 1209.03 1545.82 Q1212.66 1545.82 1214.47 1542.27 Q1216.3 1538.71 1216.3 1531.6 Q1216.3 1524.47 1214.47 1520.93 Q1212.66 1517.37 1209.03 1517.37 M1209.03 1513.66 Q1214.84 1513.66 1217.89 1518.27 Q1220.97 1522.85 1220.97 1531.6 Q1220.97 1540.33 1217.89 1544.94 Q1214.84 1549.52 1209.03 1549.52 Q1203.22 1549.52 1200.14 1544.94 Q1197.08 1540.33 1197.08 1531.6 Q1197.08 1522.85 1200.14 1518.27 Q1203.22 1513.66 1209.03 1513.66 Z" fill="#000000" fill-rule="nonzero" fill-opacity="1" /><path clip-path="url(#clip650)" d="M1229.19 1542.97 L1234.08 1542.97 L1234.08 1548.85 L1229.19 1548.85 L1229.19 1542.97 Z" fill="#000000" fill-rule="nonzero" fill-opacity="1" /><path clip-path="url(#clip650)" d="M1244.31 1514.29 L1262.66 1514.29 L1262.66 1518.22 L1248.59 1518.22 L1248.59 1526.7 Q1249.61 1526.35 1250.63 1526.19 Q1251.64 1526 1252.66 1526 Q1258.45 1526 1261.83 1529.17 Q1265.21 1532.34 1265.21 1537.76 Q1265.21 1543.34 1261.74 1546.44 Q1258.27 1549.52 1251.95 1549.52 Q1249.77 1549.52 1247.5 1549.15 Q1245.26 1548.78 1242.85 1548.04 L1242.85 1543.34 Q1244.93 1544.47 1247.15 1545.03 Q1249.38 1545.58 1251.85 1545.58 Q1255.86 1545.58 1258.2 1543.48 Q1260.53 1541.37 1260.53 1537.76 Q1260.53 1534.15 1258.2 1532.04 Q1255.86 1529.94 1251.85 1529.94 Q1249.98 1529.94 1248.1 1530.35 Q1246.25 1530.77 1244.31 1531.65 L1244.31 1514.29 Z" fill="#000000" fill-rule="nonzero" fill-opacity="1" /><path clip-path="url(#clip650)" d="M1284.42 1517.37 Q1280.81 1517.37 1278.98 1520.93 Q1277.18 1524.47 1277.18 1531.6 Q1277.18 1538.71 1278.98 1542.27 Q1280.81 1545.82 1284.42 1545.82 Q1288.06 1545.82 1289.86 1542.27 Q1291.69 1538.71 1291.69 1531.6 Q1291.69 1524.47 1289.86 1520.93 Q1288.06 1517.37 1284.42 1517.37 M1284.42 1513.66 Q1290.23 1513.66 1293.29 1518.27 Q1296.37 1522.85 1296.37 1531.6 Q1296.37 1540.33 1293.29 1544.94 Q1290.23 1549.52 1284.42 1549.52 Q1278.61 1549.52 1275.53 1544.94 Q1272.48 1540.33 1272.48 1531.6 Q1272.48 1522.85 1275.53 1518.27 Q1278.61 1513.66 1284.42 1513.66 Z" fill="#000000" fill-rule="nonzero" fill-opacity="1" /><path clip-path="url(#clip650)" d="M1731.24 1517.37 Q1727.63 1517.37 1725.8 1520.93 Q1723.99 1524.47 1723.99 1531.6 Q1723.99 1538.71 1725.8 1542.27 Q1727.63 1545.82 1731.24 1545.82 Q1734.87 1545.82 1736.68 1542.27 Q1738.51 1538.71 1738.51 1531.6 Q1738.51 1524.47 1736.68 1520.93 Q1734.87 1517.37 1731.24 1517.37 M1731.24 1513.66 Q1737.05 1513.66 1740.1 1518.27 Q1743.18 1522.85 1743.18 1531.6 Q1743.18 1540.33 1740.1 1544.94 Q1737.05 1549.52 1731.24 1549.52 Q1725.43 1549.52 1722.35 1544.94 Q1719.29 1540.33 1719.29 1531.6 Q1719.29 1522.85 1722.35 1518.27 Q1725.43 1513.66 1731.24 1513.66 Z" fill="#000000" fill-rule="nonzero" fill-opacity="1" /><path clip-path="url(#clip650)" d="M1751.4 1542.97 L1756.29 1542.97 L1756.29 1548.85 L1751.4 1548.85 L1751.4 1542.97 Z" fill="#000000" fill-rule="nonzero" fill-opacity="1" /><path clip-path="url(#clip650)" d="M1765.29 1514.29 L1787.51 1514.29 L1787.51 1516.28 L1774.97 1548.85 L1770.08 1548.85 L1781.89 1518.22 L1765.29 1518.22 L1765.29 1514.29 Z" fill="#000000" fill-rule="nonzero" fill-opacity="1" /><path clip-path="url(#clip650)" d="M1796.68 1514.29 L1815.04 1514.29 L1815.04 1518.22 L1800.96 1518.22 L1800.96 1526.7 Q1801.98 1526.35 1803 1526.19 Q1804.02 1526 1805.04 1526 Q1810.82 1526 1814.2 1529.17 Q1817.58 1532.34 1817.58 1537.76 Q1817.58 1543.34 1814.11 1546.44 Q1810.64 1549.52 1804.32 1549.52 Q1802.14 1549.52 1799.87 1549.15 Q1797.63 1548.78 1795.22 1548.04 L1795.22 1543.34 Q1797.3 1544.47 1799.53 1545.03 Q1801.75 1545.58 1804.22 1545.58 Q1808.23 1545.58 1810.57 1543.48 Q1812.91 1541.37 1812.91 1537.76 Q1812.91 1534.15 1810.57 1532.04 Q1808.23 1529.94 1804.22 1529.94 Q1802.35 1529.94 1800.47 1530.35 Q1798.62 1530.77 1796.68 1531.65 L1796.68 1514.29 Z" fill="#000000" fill-rule="nonzero" fill-opacity="1" /><path clip-path="url(#clip650)" d="M2242.22 1544.91 L2249.86 1544.91 L2249.86 1518.55 L2241.55 1520.21 L2241.55 1515.95 L2249.81 1514.29 L2254.49 1514.29 L2254.49 1544.91 L2262.13 1544.91 L2262.13 1548.85 L2242.22 1548.85 L2242.22 1544.91 Z" fill="#000000" fill-rule="nonzero" fill-opacity="1" /><path clip-path="url(#clip650)" d="M2271.57 1542.97 L2276.46 1542.97 L2276.46 1548.85 L2271.57 1548.85 L2271.57 1542.97 Z" fill="#000000" fill-rule="nonzero" fill-opacity="1" /><path clip-path="url(#clip650)" d="M2296.64 1517.37 Q2293.03 1517.37 2291.2 1520.93 Q2289.4 1524.47 2289.4 1531.6 Q2289.4 1538.71 2291.2 1542.27 Q2293.03 1545.82 2296.64 1545.82 Q2300.28 1545.82 2302.08 1542.27 Q2303.91 1538.71 2303.91 1531.6 Q2303.91 1524.47 2302.08 1520.93 Q2300.28 1517.37 2296.64 1517.37 M2296.64 1513.66 Q2302.45 1513.66 2305.51 1518.27 Q2308.59 1522.85 2308.59 1531.6 Q2308.59 1540.33 2305.51 1544.94 Q2302.45 1549.52 2296.64 1549.52 Q2290.83 1549.52 2287.75 1544.94 Q2284.7 1540.33 2284.7 1531.6 Q2284.7 1522.85 2287.75 1518.27 Q2290.83 1513.66 2296.64 1513.66 Z" fill="#000000" fill-rule="nonzero" fill-opacity="1" /><path clip-path="url(#clip650)" d="M2326.81 1517.37 Q2323.19 1517.37 2321.37 1520.93 Q2319.56 1524.47 2319.56 1531.6 Q2319.56 1538.71 2321.37 1542.27 Q2323.19 1545.82 2326.81 1545.82 Q2330.44 1545.82 2332.25 1542.27 Q2334.07 1538.71 2334.07 1531.6 Q2334.07 1524.47 2332.25 1520.93 Q2330.44 1517.37 2326.81 1517.37 M2326.81 1513.66 Q2332.62 1513.66 2335.67 1518.27 Q2338.75 1522.85 2338.75 1531.6 Q2338.75 1540.33 2335.67 1544.94 Q2332.62 1549.52 2326.81 1549.52 Q2321 1549.52 2317.92 1544.94 Q2314.86 1540.33 2314.86 1531.6 Q2314.86 1522.85 2317.92 1518.27 Q2321 1513.66 2326.81 1513.66 Z" fill="#000000" fill-rule="nonzero" fill-opacity="1" /><polyline clip-path="url(#clip652)" style="stroke:#000000; stroke-linecap:round; stroke-linejoin:round; stroke-width:2; stroke-opacity:0.1; fill:none" points="140.696,1447.87 2352.76,1447.87 "/>
<polyline clip-path="url(#clip652)" style="stroke:#000000; stroke-linecap:round; stroke-linejoin:round; stroke-width:2; stroke-opacity:0.1; fill:none" points="140.696,1146.13 2352.76,1146.13 "/>
<polyline clip-path="url(#clip652)" style="stroke:#000000; stroke-linecap:round; stroke-linejoin:round; stroke-width:2; stroke-opacity:0.1; fill:none" points="140.696,844.389 2352.76,844.389 "/>
<polyline clip-path="url(#clip652)" style="stroke:#000000; stroke-linecap:round; stroke-linejoin:round; stroke-width:2; stroke-opacity:0.1; fill:none" points="140.696,542.647 2352.76,542.647 "/>
<polyline clip-path="url(#clip652)" style="stroke:#000000; stroke-linecap:round; stroke-linejoin:round; stroke-width:2; stroke-opacity:0.1; fill:none" points="140.696,240.905 2352.76,240.905 "/>
<polyline clip-path="url(#clip650)" style="stroke:#000000; stroke-linecap:round; stroke-linejoin:round; stroke-width:4; stroke-opacity:1; fill:none" points="140.696,1486.45 140.696,123.472 "/>
<polyline clip-path="url(#clip650)" style="stroke:#000000; stroke-linecap:round; stroke-linejoin:round; stroke-width:4; stroke-opacity:1; fill:none" points="140.696,1447.87 159.593,1447.87 "/>
<polyline clip-path="url(#clip650)" style="stroke:#000000; stroke-linecap:round; stroke-linejoin:round; stroke-width:4; stroke-opacity:1; fill:none" points="140.696,1146.13 159.593,1146.13 "/>
<polyline clip-path="url(#clip650)" style="stroke:#000000; stroke-linecap:round; stroke-linejoin:round; stroke-width:4; stroke-opacity:1; fill:none" points="140.696,844.389 159.593,844.389 "/>
<polyline clip-path="url(#clip650)" style="stroke:#000000; stroke-linecap:round; stroke-linejoin:round; stroke-width:4; stroke-opacity:1; fill:none" points="140.696,542.647 159.593,542.647 "/>
<polyline clip-path="url(#clip650)" style="stroke:#000000; stroke-linecap:round; stroke-linejoin:round; stroke-width:4; stroke-opacity:1; fill:none" points="140.696,240.905 159.593,240.905 "/>
<path clip-path="url(#clip650)" d="M92.7512 1433.67 Q89.1401 1433.67 87.3114 1437.24 Q85.5058 1440.78 85.5058 1447.91 Q85.5058 1455.01 87.3114 1458.58 Q89.1401 1462.12 92.7512 1462.12 Q96.3854 1462.12 98.1909 1458.58 Q100.02 1455.01 100.02 1447.91 Q100.02 1440.78 98.1909 1437.24 Q96.3854 1433.67 92.7512 1433.67 M92.7512 1429.97 Q98.5613 1429.97 101.617 1434.57 Q104.696 1439.16 104.696 1447.91 Q104.696 1456.63 101.617 1461.24 Q98.5613 1465.82 92.7512 1465.82 Q86.941 1465.82 83.8623 1461.24 Q80.8068 1456.63 80.8068 1447.91 Q80.8068 1439.16 83.8623 1434.57 Q86.941 1429.97 92.7512 1429.97 Z" fill="#000000" fill-rule="nonzero" fill-opacity="1" /><path clip-path="url(#clip650)" d="M83.7929 1128.85 L102.149 1128.85 L102.149 1132.79 L88.0753 1132.79 L88.0753 1141.26 Q89.0938 1140.91 90.1123 1140.75 Q91.1308 1140.56 92.1493 1140.56 Q97.9363 1140.56 101.316 1143.74 Q104.696 1146.91 104.696 1152.32 Q104.696 1157.9 101.223 1161 Q97.7511 1164.08 91.4317 1164.08 Q89.2558 1164.08 86.9873 1163.71 Q84.7419 1163.34 82.3346 1162.6 L82.3346 1157.9 Q84.4179 1159.04 86.6401 1159.59 Q88.8623 1160.15 91.3391 1160.15 Q95.3437 1160.15 97.6817 1158.04 Q100.02 1155.93 100.02 1152.32 Q100.02 1148.71 97.6817 1146.61 Q95.3437 1144.5 91.3391 1144.5 Q89.4641 1144.5 87.5892 1144.92 Q85.7373 1145.33 83.7929 1146.21 L83.7929 1128.85 Z" fill="#000000" fill-rule="nonzero" fill-opacity="1" /><path clip-path="url(#clip650)" d="M53.3995 857.734 L61.0384 857.734 L61.0384 831.368 L52.7282 833.035 L52.7282 828.776 L60.9921 827.109 L65.668 827.109 L65.668 857.734 L73.3068 857.734 L73.3068 861.669 L53.3995 861.669 L53.3995 857.734 Z" fill="#000000" fill-rule="nonzero" fill-opacity="1" /><path clip-path="url(#clip650)" d="M92.7512 830.188 Q89.1401 830.188 87.3114 833.752 Q85.5058 837.294 85.5058 844.424 Q85.5058 851.53 87.3114 855.095 Q89.1401 858.637 92.7512 858.637 Q96.3854 858.637 98.1909 855.095 Q100.02 851.53 100.02 844.424 Q100.02 837.294 98.1909 833.752 Q96.3854 830.188 92.7512 830.188 M92.7512 826.484 Q98.5613 826.484 101.617 831.09 Q104.696 835.674 104.696 844.424 Q104.696 853.151 101.617 857.757 Q98.5613 862.34 92.7512 862.34 Q86.941 862.34 83.8623 857.757 Q80.8068 853.151 80.8068 844.424 Q80.8068 835.674 83.8623 831.09 Q86.941 826.484 92.7512 826.484 Z" fill="#000000" fill-rule="nonzero" fill-opacity="1" /><path clip-path="url(#clip650)" d="M54.3949 555.992 L62.0337 555.992 L62.0337 529.626 L53.7236 531.293 L53.7236 527.034 L61.9874 525.367 L66.6633 525.367 L66.6633 555.992 L74.3022 555.992 L74.3022 559.927 L54.3949 559.927 L54.3949 555.992 Z" fill="#000000" fill-rule="nonzero" fill-opacity="1" /><path clip-path="url(#clip650)" d="M83.7929 525.367 L102.149 525.367 L102.149 529.302 L88.0753 529.302 L88.0753 537.774 Q89.0938 537.427 90.1123 537.265 Q91.1308 537.08 92.1493 537.08 Q97.9363 537.08 101.316 540.251 Q104.696 543.422 104.696 548.839 Q104.696 554.418 101.223 557.52 Q97.7511 560.598 91.4317 560.598 Q89.2558 560.598 86.9873 560.228 Q84.7419 559.858 82.3346 559.117 L82.3346 554.418 Q84.4179 555.552 86.6401 556.108 Q88.8623 556.663 91.3391 556.663 Q95.3437 556.663 97.6817 554.557 Q100.02 552.45 100.02 548.839 Q100.02 545.228 97.6817 543.121 Q95.3437 541.015 91.3391 541.015 Q89.4641 541.015 87.5892 541.432 Q85.7373 541.848 83.7929 542.728 L83.7929 525.367 Z" fill="#000000" fill-rule="nonzero" fill-opacity="1" /><path clip-path="url(#clip650)" d="M56.6171 254.25 L72.9365 254.25 L72.9365 258.185 L50.9921 258.185 L50.9921 254.25 Q53.6541 251.495 58.2375 246.866 Q62.8439 242.213 64.0245 240.87 Q66.2698 238.347 67.1494 236.611 Q68.0522 234.852 68.0522 233.162 Q68.0522 230.407 66.1078 228.671 Q64.1865 226.935 61.0847 226.935 Q58.8856 226.935 56.4319 227.699 Q54.0014 228.463 51.2236 230.014 L51.2236 225.292 Q54.0477 224.157 56.5014 223.579 Q58.955 223 60.9921 223 Q66.3624 223 69.5568 225.685 Q72.7513 228.37 72.7513 232.861 Q72.7513 234.991 71.9411 236.912 Q71.1541 238.81 69.0476 241.403 Q68.4689 242.074 65.367 245.291 Q62.2652 248.486 56.6171 254.25 Z" fill="#000000" fill-rule="nonzero" fill-opacity="1" /><path clip-path="url(#clip650)" d="M92.7512 226.704 Q89.1401 226.704 87.3114 230.268 Q85.5058 233.81 85.5058 240.94 Q85.5058 248.046 87.3114 251.611 Q89.1401 255.153 92.7512 255.153 Q96.3854 255.153 98.1909 251.611 Q100.02 248.046 100.02 240.94 Q100.02 233.81 98.1909 230.268 Q96.3854 226.704 92.7512 226.704 M92.7512 223 Q98.5613 223 101.617 227.606 Q104.696 232.19 104.696 240.94 Q104.696 249.666 101.617 254.273 Q98.5613 258.856 92.7512 258.856 Q86.941 258.856 83.8623 254.273 Q80.8068 249.666 80.8068 240.94 Q80.8068 232.19 83.8623 227.606 Q86.941 223 92.7512 223 Z" fill="#000000" fill-rule="nonzero" fill-opacity="1" /><path clip-path="url(#clip650)" d="M905.741 12.096 L913.924 12.096 L913.924 72.576 L905.741 72.576 L905.741 12.096 Z" fill="#000000" fill-rule="nonzero" fill-opacity="1" /><path clip-path="url(#clip650)" d="M967.598 45.1919 L967.598 72.576 L960.145 72.576 L960.145 45.4349 Q960.145 38.994 957.633 35.7938 Q955.121 32.5936 950.098 32.5936 Q944.062 32.5936 940.579 36.4419 Q937.095 40.2903 937.095 46.9338 L937.095 72.576 L929.601 72.576 L929.601 27.2059 L937.095 27.2059 L937.095 34.2544 Q939.768 30.163 943.374 28.1376 Q947.02 26.1121 951.759 26.1121 Q959.577 26.1121 963.588 30.9732 Q967.598 35.7938 967.598 45.1919 Z" fill="#000000" fill-rule="nonzero" fill-opacity="1" /><path clip-path="url(#clip650)" d="M1005.43 9.54393 L1005.43 15.7418 L998.304 15.7418 Q994.294 15.7418 992.714 17.3622 Q991.174 18.9825 991.174 23.1955 L991.174 27.2059 L1003.45 27.2059 L1003.45 32.9987 L991.174 32.9987 L991.174 72.576 L983.68 72.576 L983.68 32.9987 L976.551 32.9987 L976.551 27.2059 L983.68 27.2059 L983.68 24.0462 Q983.68 16.471 987.205 13.0277 Q990.729 9.54393 998.385 9.54393 L1005.43 9.54393 Z" fill="#000000" fill-rule="nonzero" fill-opacity="1" /><path clip-path="url(#clip650)" d="M1050.48 48.0275 L1050.48 51.6733 L1016.21 51.6733 Q1016.7 59.3701 1020.83 63.421 Q1025 67.4314 1032.41 67.4314 Q1036.71 67.4314 1040.72 66.3781 Q1044.77 65.3249 1048.74 63.2184 L1048.74 70.267 Q1044.73 71.9684 1040.51 72.8596 Q1036.3 73.7508 1031.97 73.7508 Q1021.11 73.7508 1014.75 67.4314 Q1008.43 61.1119 1008.43 50.3365 Q1008.43 39.1965 1014.43 32.6746 Q1020.46 26.1121 1030.67 26.1121 Q1039.83 26.1121 1045.13 32.0264 Q1050.48 37.9003 1050.48 48.0275 M1043.03 45.84 Q1042.94 39.7232 1039.58 36.0774 Q1036.26 32.4315 1030.75 32.4315 Q1024.51 32.4315 1020.75 35.9558 Q1017.02 39.4801 1016.45 45.8805 L1043.03 45.84 Z" fill="#000000" fill-rule="nonzero" fill-opacity="1" /><path clip-path="url(#clip650)" d="M1089 34.1734 Q1087.75 33.4443 1086.25 33.1202 Q1084.79 32.7556 1083.01 32.7556 Q1076.69 32.7556 1073.29 36.8875 Q1069.92 40.9789 1069.92 48.6757 L1069.92 72.576 L1062.43 72.576 L1062.43 27.2059 L1069.92 27.2059 L1069.92 34.2544 Q1072.27 30.1225 1076.04 28.1376 Q1079.81 26.1121 1085.2 26.1121 Q1085.97 26.1121 1086.9 26.2337 Q1087.83 26.3147 1088.96 26.5172 L1089 34.1734 Z" fill="#000000" fill-rule="nonzero" fill-opacity="1" /><path clip-path="url(#clip650)" d="M1133.81 48.0275 L1133.81 51.6733 L1099.54 51.6733 Q1100.02 59.3701 1104.15 63.421 Q1108.33 67.4314 1115.74 67.4314 Q1120.03 67.4314 1124.04 66.3781 Q1128.09 65.3249 1132.06 63.2184 L1132.06 70.267 Q1128.05 71.9684 1123.84 72.8596 Q1119.63 73.7508 1115.29 73.7508 Q1104.44 73.7508 1098.08 67.4314 Q1091.76 61.1119 1091.76 50.3365 Q1091.76 39.1965 1097.75 32.6746 Q1103.79 26.1121 1114 26.1121 Q1123.15 26.1121 1128.46 32.0264 Q1133.81 37.9003 1133.81 48.0275 M1126.35 45.84 Q1126.27 39.7232 1122.91 36.0774 Q1119.59 32.4315 1114.08 32.4315 Q1107.84 32.4315 1104.07 35.9558 Q1100.35 39.4801 1099.78 45.8805 L1126.35 45.84 Z" fill="#000000" fill-rule="nonzero" fill-opacity="1" /><path clip-path="url(#clip650)" d="M1183.75 45.1919 L1183.75 72.576 L1176.3 72.576 L1176.3 45.4349 Q1176.3 38.994 1173.79 35.7938 Q1171.28 32.5936 1166.25 32.5936 Q1160.22 32.5936 1156.73 36.4419 Q1153.25 40.2903 1153.25 46.9338 L1153.25 72.576 L1145.76 72.576 L1145.76 27.2059 L1153.25 27.2059 L1153.25 34.2544 Q1155.92 30.163 1159.53 28.1376 Q1163.18 26.1121 1167.92 26.1121 Q1175.73 26.1121 1179.74 30.9732 Q1183.75 35.7938 1183.75 45.1919 Z" fill="#000000" fill-rule="nonzero" fill-opacity="1" /><path clip-path="url(#clip650)" d="M1231.27 28.9478 L1231.27 35.9153 Q1228.11 34.1734 1224.91 33.3227 Q1221.75 32.4315 1218.51 32.4315 Q1211.26 32.4315 1207.25 37.0496 Q1203.24 41.6271 1203.24 49.9314 Q1203.24 58.2358 1207.25 62.8538 Q1211.26 67.4314 1218.51 67.4314 Q1221.75 67.4314 1224.91 66.5807 Q1228.11 65.6895 1231.27 63.9476 L1231.27 70.8341 Q1228.15 72.2924 1224.79 73.0216 Q1221.47 73.7508 1217.7 73.7508 Q1207.45 73.7508 1201.42 67.3098 Q1195.38 60.8689 1195.38 49.9314 Q1195.38 38.832 1201.46 32.472 Q1207.57 26.1121 1218.19 26.1121 Q1221.63 26.1121 1224.91 26.8413 Q1228.19 27.5299 1231.27 28.9478 Z" fill="#000000" fill-rule="nonzero" fill-opacity="1" /><path clip-path="url(#clip650)" d="M1283.04 48.0275 L1283.04 51.6733 L1248.77 51.6733 Q1249.26 59.3701 1253.39 63.421 Q1257.56 67.4314 1264.98 67.4314 Q1269.27 67.4314 1273.28 66.3781 Q1277.33 65.3249 1281.3 63.2184 L1281.3 70.267 Q1277.29 71.9684 1273.08 72.8596 Q1268.86 73.7508 1264.53 73.7508 Q1253.67 73.7508 1247.31 67.4314 Q1240.99 61.1119 1240.99 50.3365 Q1240.99 39.1965 1246.99 32.6746 Q1253.02 26.1121 1263.23 26.1121 Q1272.39 26.1121 1277.69 32.0264 Q1283.04 37.9003 1283.04 48.0275 M1275.59 45.84 Q1275.51 39.7232 1272.15 36.0774 Q1268.82 32.4315 1263.31 32.4315 Q1257.08 32.4315 1253.31 35.9558 Q1249.58 39.4801 1249.01 45.8805 L1275.59 45.84 Z" fill="#000000" fill-rule="nonzero" fill-opacity="1" /><path clip-path="url(#clip650)" d="M1347.94 34.1734 Q1346.68 33.4443 1345.18 33.1202 Q1343.72 32.7556 1341.94 32.7556 Q1335.62 32.7556 1332.22 36.8875 Q1328.86 40.9789 1328.86 48.6757 L1328.86 72.576 L1321.36 72.576 L1321.36 27.2059 L1328.86 27.2059 L1328.86 34.2544 Q1331.21 30.1225 1334.97 28.1376 Q1338.74 26.1121 1344.13 26.1121 Q1344.9 26.1121 1345.83 26.2337 Q1346.76 26.3147 1347.9 26.5172 L1347.94 34.1734 Z" fill="#000000" fill-rule="nonzero" fill-opacity="1" /><path clip-path="url(#clip650)" d="M1392.74 48.0275 L1392.74 51.6733 L1358.47 51.6733 Q1358.96 59.3701 1363.09 63.421 Q1367.26 67.4314 1374.67 67.4314 Q1378.97 67.4314 1382.98 66.3781 Q1387.03 65.3249 1391 63.2184 L1391 70.267 Q1386.99 71.9684 1382.78 72.8596 Q1378.56 73.7508 1374.23 73.7508 Q1363.37 73.7508 1357.01 67.4314 Q1350.69 61.1119 1350.69 50.3365 Q1350.69 39.1965 1356.69 32.6746 Q1362.72 26.1121 1372.93 26.1121 Q1382.09 26.1121 1387.39 32.0264 Q1392.74 37.9003 1392.74 48.0275 M1385.29 45.84 Q1385.21 39.7232 1381.84 36.0774 Q1378.52 32.4315 1373.01 32.4315 Q1366.77 32.4315 1363.01 35.9558 Q1359.28 39.4801 1358.71 45.8805 L1385.29 45.84 Z" fill="#000000" fill-rule="nonzero" fill-opacity="1" /><path clip-path="url(#clip650)" d="M1433.9 28.5427 L1433.9 35.5912 Q1430.74 33.9709 1427.34 33.1607 Q1423.93 32.3505 1420.29 32.3505 Q1414.74 32.3505 1411.94 34.0519 Q1409.19 35.7533 1409.19 39.156 Q1409.19 41.7486 1411.17 43.2475 Q1413.16 44.7058 1419.15 46.0426 L1421.7 46.6097 Q1429.64 48.3111 1432.97 51.4303 Q1436.33 54.509 1436.33 60.0587 Q1436.33 66.3781 1431.31 70.0644 Q1426.32 73.7508 1417.57 73.7508 Q1413.93 73.7508 1409.96 73.0216 Q1406.03 72.3329 1401.65 70.9151 L1401.65 63.2184 Q1405.78 65.3654 1409.79 66.4591 Q1413.81 67.5124 1417.73 67.5124 Q1423 67.5124 1425.84 65.73 Q1428.67 63.9071 1428.67 60.6258 Q1428.67 57.5877 1426.61 55.9673 Q1424.58 54.3469 1417.65 52.8481 L1415.06 52.2405 Q1408.13 50.7821 1405.06 47.7845 Q1401.98 44.7463 1401.98 39.4801 Q1401.98 33.0797 1406.51 29.5959 Q1411.05 26.1121 1419.4 26.1121 Q1423.53 26.1121 1427.17 26.7198 Q1430.82 27.3274 1433.9 28.5427 Z" fill="#000000" fill-rule="nonzero" fill-opacity="1" /><path clip-path="url(#clip650)" d="M1447.43 54.671 L1447.43 27.2059 L1454.88 27.2059 L1454.88 54.3874 Q1454.88 60.8284 1457.39 64.0691 Q1459.9 67.2693 1464.93 67.2693 Q1470.96 67.2693 1474.45 63.421 Q1477.97 59.5726 1477.97 52.9291 L1477.97 27.2059 L1485.43 27.2059 L1485.43 72.576 L1477.97 72.576 L1477.97 65.6084 Q1475.26 69.7404 1471.65 71.7658 Q1468.09 73.7508 1463.35 73.7508 Q1455.53 73.7508 1451.48 68.8897 Q1447.43 64.0286 1447.43 54.671 M1466.18 26.1121 L1466.18 26.1121 Z" fill="#000000" fill-rule="nonzero" fill-opacity="1" /><path clip-path="url(#clip650)" d="M1500.78 9.54393 L1508.23 9.54393 L1508.23 72.576 L1500.78 72.576 L1500.78 9.54393 Z" fill="#000000" fill-rule="nonzero" fill-opacity="1" /><path clip-path="url(#clip650)" d="M1531.2 14.324 L1531.2 27.2059 L1546.55 27.2059 L1546.55 32.9987 L1531.2 32.9987 L1531.2 57.6282 Q1531.2 63.1779 1532.7 64.7578 Q1534.24 66.3376 1538.9 66.3376 L1546.55 66.3376 L1546.55 72.576 L1538.9 72.576 Q1530.27 72.576 1526.99 69.3758 Q1523.71 66.1351 1523.71 57.6282 L1523.71 32.9987 L1518.24 32.9987 L1518.24 27.2059 L1523.71 27.2059 L1523.71 14.324 L1531.2 14.324 Z" fill="#000000" fill-rule="nonzero" fill-opacity="1" /><path clip-path="url(#clip650)" d="M1585.28 28.5427 L1585.28 35.5912 Q1582.12 33.9709 1578.72 33.1607 Q1575.31 32.3505 1571.67 32.3505 Q1566.12 32.3505 1563.32 34.0519 Q1560.57 35.7533 1560.57 39.156 Q1560.57 41.7486 1562.55 43.2475 Q1564.54 44.7058 1570.53 46.0426 L1573.09 46.6097 Q1581.03 48.3111 1584.35 51.4303 Q1587.71 54.509 1587.71 60.0587 Q1587.71 66.3781 1582.69 70.0644 Q1577.7 73.7508 1568.95 73.7508 Q1565.31 73.7508 1561.34 73.0216 Q1557.41 72.3329 1553.03 70.9151 L1553.03 63.2184 Q1557.17 65.3654 1561.18 66.4591 Q1565.19 67.5124 1569.12 67.5124 Q1574.38 67.5124 1577.22 65.73 Q1580.05 63.9071 1580.05 60.6258 Q1580.05 57.5877 1577.99 55.9673 Q1575.96 54.3469 1569.04 52.8481 L1566.44 52.2405 Q1559.52 50.7821 1556.44 47.7845 Q1553.36 44.7463 1553.36 39.4801 Q1553.36 33.0797 1557.9 29.5959 Q1562.43 26.1121 1570.78 26.1121 Q1574.91 26.1121 1578.56 26.7198 Q1582.2 27.3274 1585.28 28.5427 Z" fill="#000000" fill-rule="nonzero" fill-opacity="1" /><path clip-path="url(#clip652)" d="M203.301 1447.87 L205.39 1447.84 L207.479 1447.45 L209.568 1445.95 L211.657 1442.4 L213.746 1435.81 L215.835 1425.29 L217.924 1410.13 L220.013 1389.78 L222.101 1363.92 L224.19 1332.45 L226.279 1295.45 L228.368 1253.19 L230.457 1206.06 L232.546 1154.6 L234.635 1099.43 L236.724 1041.24 L238.813 980.752 L240.902 918.708 L242.991 855.853 L245.08 792.91 L247.169 730.57 L249.258 669.481 L251.347 610.238 L253.436 553.378 L255.524 499.376 L257.613 448.643 L259.702 401.524 L261.791 358.301 L263.88 319.192 L265.969 284.356 L268.058 253.897 L270.147 227.865 L272.236 206.264 L274.325 189.052 L276.414 176.152 L278.503 167.45 L280.592 162.804 L282.681 162.047 L284.77 164.992 L286.859 171.434 L288.947 181.156 L291.036 193.932 L293.125 209.529 L295.214 227.713 L297.303 248.245 L299.392 270.892 L301.481 295.422 L303.57 321.61 L305.659 349.236 L307.748 378.089 L309.837 407.969 L311.926 438.682 L314.015 470.047 L316.104 501.893 L318.193 534.062 L320.282 566.404 L322.371 598.783 L324.459 631.073 L326.548 663.159 L328.637 694.938 L330.726 726.315 L332.815 757.208 L334.904 787.543 L336.993 817.255 L339.082 846.288 L341.171 874.594 L343.26 902.135 L345.349 928.875 L347.438 954.791 L349.527 979.861 L351.616 1004.07 L353.705 1027.41 L355.794 1049.88 L357.882 1071.48 L359.971 1092.2 L362.06 1112.07 L364.149 1131.08 L366.238 1149.25 L368.327 1166.6 L370.416 1183.14 L372.505 1198.9 L374.594 1213.89 L376.683 1228.13 L378.772 1241.65 L380.861 1254.48 L382.95 1266.62 L385.039 1278.12 L387.128 1288.99 L389.217 1299.26 L391.305 1308.96 L393.394 1318.1 L395.483 1326.71 L397.572 1334.82 L399.661 1342.45 L401.75 1349.62 L403.839 1356.36 L405.928 1362.68 L408.017 1368.61 L410.106 1374.16 L412.195 1379.36 L414.284 1384.23 L416.373 1388.79 L418.462 1393.04 L420.551 1397.02 L422.64 1400.73 L424.728 1404.19 L426.817 1407.41 L428.906 1410.42 L430.995 1413.22 L433.084 1415.82 L435.173 1418.25 L437.262 1420.5 L439.351 1422.59 L441.44 1424.53 L443.529 1426.34 L445.618 1428.01 L447.707 1429.56 L449.796 1430.99 L451.885 1432.32 L453.974 1433.56 L456.063 1434.7 L458.152 1435.75 L460.24 1436.72 L462.329 1437.62 L464.418 1438.45 L466.507 1439.22 L468.596 1439.93 L470.685 1440.58 L472.774 1441.18 L474.863 1441.73 L476.952 1442.25 L479.041 1442.71 L481.13 1443.15 L483.219 1443.54 L485.308 1443.91 L487.397 1444.25 L489.486 1444.56 L491.575 1444.84 L493.663 1445.1 L495.752 1445.34 L497.841 1445.56 L499.93 1445.76 L502.019 1445.94 L504.108 1446.11 L506.197 1446.26 L508.286 1446.41 L510.375 1446.54 L512.464 1446.65 L514.553 1446.76 L516.642 1446.86 L518.731 1446.95 L520.82 1447.03 L522.909 1447.11 L524.998 1447.18 L527.086 1447.24 L529.175 1447.3 L531.264 1447.35 L533.353 1447.4 L535.442 1447.44 L537.531 1447.48 L539.62 1447.52 L541.709 1447.55 L543.798 1447.58 L545.887 1447.61 L547.976 1447.63 L550.065 1447.66 L552.154 1447.68 L554.243 1447.69 L556.332 1447.71 L558.421 1447.73 L560.509 1447.74 L562.598 1447.75 L564.687 1447.76 L566.776 1447.77 L568.865 1447.78 L570.954 1447.79 L573.043 1447.8 L575.132 1447.81 L577.221 1447.81 L579.31 1447.82 L581.399 1447.82 L583.488 1447.83 L585.577 1447.83 L587.666 1447.84 L589.755 1447.84 L591.844 1447.84 L593.932 1447.85 L596.021 1447.85 L598.11 1447.85 L600.199 1447.85 L602.288 1447.86 L604.377 1447.86 L606.466 1447.86 L608.555 1447.86 L610.644 1447.86 L612.733 1447.86 L614.822 1447.86 L616.911 1447.86 L619 1447.87 L621.089 1447.87 L623.178 1447.87 L625.267 1447.87 L627.356 1447.87 L629.444 1447.87 L631.533 1447.87 L633.622 1447.87 L635.711 1447.87 L637.8 1447.87 L639.889 1447.87 L641.978 1447.87 L644.067 1447.87 L646.156 1447.87 L648.245 1447.87 L650.334 1447.87 L652.423 1447.87 L654.512 1447.87 L656.601 1447.87 L658.69 1447.87 L660.779 1447.87 L662.867 1447.87 L664.956 1447.87 L667.045 1447.87 L669.134 1447.87 L671.223 1447.87 L673.312 1447.87 L675.401 1447.87 L677.49 1447.87 L679.579 1447.87 L681.668 1447.87 L683.757 1447.87 L685.846 1447.87 L687.935 1447.87 L690.024 1447.87 L692.113 1447.87 L694.202 1447.87 L696.29 1447.87 L698.379 1447.87 L700.468 1447.87 L702.557 1447.87 L704.646 1447.87 L706.735 1447.87 L708.824 1447.87 L710.913 1447.87 L713.002 1447.87 L715.091 1447.87 L717.18 1447.87 L719.269 1447.87 L721.358 1447.87 L723.447 1447.87 L725.536 1447.87 L727.625 1447.87 L729.713 1447.87 L731.802 1447.87 L733.891 1447.87 L735.98 1447.87 L738.069 1447.87 L740.158 1447.87 L742.247 1447.87 L744.336 1447.87 L746.425 1447.87 L748.514 1447.87 L750.603 1447.87 L752.692 1447.87 L754.781 1447.87 L756.87 1447.87 L758.959 1447.87 L761.048 1447.87 L763.136 1447.87 L765.225 1447.87 L767.314 1447.87 L769.403 1447.87 L771.492 1447.87 L773.581 1447.87 L775.67 1447.87 L777.759 1447.87 L779.848 1447.87 L781.937 1447.87 L784.026 1447.87 L786.115 1447.87 L788.204 1447.87 L790.293 1447.87 L792.382 1447.87 L794.471 1447.87 L796.56 1447.87 L798.648 1447.87 L800.737 1447.87 L802.826 1447.87 L804.915 1447.87 L807.004 1447.87 L809.093 1447.87 L811.182 1447.87 L813.271 1447.87 L815.36 1447.87 L817.449 1447.87 L819.538 1447.87 L821.627 1447.87 L823.716 1447.87 L825.805 1447.87 L827.894 1447.87 L829.983 1447.87 L832.071 1447.87 L834.16 1447.87 L836.249 1447.87 L838.338 1447.87 L840.427 1447.87 L842.516 1447.87 L844.605 1447.87 L846.694 1447.87 L848.783 1447.87 L850.872 1447.87 L852.961 1447.87 L855.05 1447.87 L857.139 1447.87 L859.228 1447.87 L861.317 1447.87 L863.406 1447.87 L865.494 1447.87 L867.583 1447.87 L869.672 1447.87 L871.761 1447.87 L873.85 1447.87 L875.939 1447.87 L878.028 1447.87 L880.117 1447.87 L882.206 1447.87 L884.295 1447.87 L886.384 1447.87 L888.473 1447.87 L890.562 1447.87 L892.651 1447.87 L894.74 1447.87 L896.829 1447.87 L898.917 1447.87 L901.006 1447.87 L903.095 1447.87 L905.184 1447.87 L907.273 1447.87 L909.362 1447.87 L911.451 1447.87 L913.54 1447.87 L915.629 1447.87 L917.718 1447.87 L919.807 1447.87 L921.896 1447.87 L923.985 1447.87 L926.074 1447.87 L928.163 1447.87 L930.252 1447.87 L932.341 1447.87 L934.429 1447.87 L936.518 1447.87 L938.607 1447.87 L940.696 1447.87 L942.785 1447.87 L944.874 1447.87 L946.963 1447.87 L949.052 1447.87 L951.141 1447.87 L953.23 1447.87 L955.319 1447.87 L957.408 1447.87 L959.497 1447.87 L961.586 1447.87 L963.675 1447.87 L965.764 1447.87 L967.852 1447.87 L969.941 1447.87 L972.03 1447.87 L974.119 1447.87 L976.208 1447.87 L978.297 1447.87 L980.386 1447.87 L982.475 1447.87 L984.564 1447.87 L986.653 1447.87 L988.742 1447.87 L990.831 1447.87 L992.92 1447.87 L995.009 1447.87 L997.098 1447.87 L999.187 1447.87 L1001.28 1447.87 L1003.36 1447.87 L1005.45 1447.87 L1007.54 1447.87 L1009.63 1447.87 L1011.72 1447.87 L1013.81 1447.87 L1015.9 1447.87 L1017.99 1447.87 L1020.08 1447.87 L1022.16 1447.87 L1024.25 1447.87 L1026.34 1447.87 L1028.43 1447.87 L1030.52 1447.87 L1032.61 1447.87 L1034.7 1447.87 L1036.79 1447.87 L1038.88 1447.87 L1040.97 1447.87 L1043.05 1447.87 L1045.14 1447.87 L1047.23 1447.87 L1049.32 1447.87 L1051.41 1447.87 L1053.5 1447.87 L1055.59 1447.87 L1057.68 1447.87 L1059.77 1447.87 L1061.85 1447.87 L1063.94 1447.87 L1066.03 1447.87 L1068.12 1447.87 L1070.21 1447.87 L1072.3 1447.87 L1074.39 1447.87 L1076.48 1447.87 L1078.57 1447.87 L1080.66 1447.87 L1082.74 1447.87 L1084.83 1447.87 L1086.92 1447.87 L1089.01 1447.87 L1091.1 1447.87 L1093.19 1447.87 L1095.28 1447.87 L1097.37 1447.87 L1099.46 1447.87 L1101.54 1447.87 L1103.63 1447.87 L1105.72 1447.87 L1107.81 1447.87 L1109.9 1447.87 L1111.99 1447.87 L1114.08 1447.87 L1116.17 1447.87 L1118.26 1447.87 L1120.34 1447.87 L1122.43 1447.87 L1124.52 1447.87 L1126.61 1447.87 L1128.7 1447.87 L1130.79 1447.87 L1132.88 1447.87 L1134.97 1447.87 L1137.06 1447.87 L1139.15 1447.87 L1141.23 1447.87 L1143.32 1447.87 L1145.41 1447.87 L1147.5 1447.87 L1149.59 1447.87 L1151.68 1447.87 L1153.77 1447.87 L1155.86 1447.87 L1157.95 1447.87 L1160.03 1447.87 L1162.12 1447.87 L1164.21 1447.87 L1166.3 1447.87 L1168.39 1447.87 L1170.48 1447.87 L1172.57 1447.87 L1174.66 1447.87 L1176.75 1447.87 L1178.84 1447.87 L1180.92 1447.87 L1183.01 1447.87 L1185.1 1447.87 L1187.19 1447.87 L1189.28 1447.87 L1191.37 1447.87 L1193.46 1447.87 L1195.55 1447.87 L1197.64 1447.87 L1199.72 1447.87 L1201.81 1447.87 L1203.9 1447.87 L1205.99 1447.87 L1208.08 1447.87 L1210.17 1447.87 L1212.26 1447.87 L1214.35 1447.87 L1216.44 1447.87 L1218.53 1447.87 L1220.61 1447.87 L1222.7 1447.87 L1224.79 1447.87 L1226.88 1447.87 L1228.97 1447.87 L1231.06 1447.87 L1233.15 1447.87 L1235.24 1447.87 L1237.33 1447.87 L1239.41 1447.87 L1241.5 1447.87 L1243.59 1447.87 L1245.68 1447.87 L1247.77 1447.87 L1249.86 1447.87 L1251.95 1447.87 L1254.04 1447.87 L1256.13 1447.87 L1258.21 1447.87 L1260.3 1447.87 L1262.39 1447.87 L1264.48 1447.87 L1266.57 1447.87 L1268.66 1447.87 L1270.75 1447.87 L1272.84 1447.87 L1274.93 1447.87 L1277.02 1447.87 L1279.1 1447.87 L1281.19 1447.87 L1283.28 1447.87 L1285.37 1447.87 L1287.46 1447.87 L1289.55 1447.87 L1291.64 1447.87 L1293.73 1447.87 L1295.82 1447.87 L1297.9 1447.87 L1299.99 1447.87 L1302.08 1447.87 L1304.17 1447.87 L1306.26 1447.87 L1308.35 1447.87 L1310.44 1447.87 L1312.53 1447.87 L1314.62 1447.87 L1316.71 1447.87 L1318.79 1447.87 L1320.88 1447.87 L1322.97 1447.87 L1325.06 1447.87 L1327.15 1447.87 L1329.24 1447.87 L1331.33 1447.87 L1333.42 1447.87 L1335.51 1447.87 L1337.59 1447.87 L1339.68 1447.87 L1341.77 1447.87 L1343.86 1447.87 L1345.95 1447.87 L1348.04 1447.87 L1350.13 1447.87 L1352.22 1447.87 L1354.31 1447.87 L1356.39 1447.87 L1358.48 1447.87 L1360.57 1447.87 L1362.66 1447.87 L1364.75 1447.87 L1366.84 1447.87 L1368.93 1447.87 L1371.02 1447.87 L1373.11 1447.87 L1375.2 1447.87 L1377.28 1447.87 L1379.37 1447.87 L1381.46 1447.87 L1383.55 1447.87 L1385.64 1447.87 L1387.73 1447.87 L1389.82 1447.87 L1391.91 1447.87 L1394 1447.87 L1396.08 1447.87 L1398.17 1447.87 L1400.26 1447.87 L1402.35 1447.87 L1404.44 1447.87 L1406.53 1447.87 L1408.62 1447.87 L1410.71 1447.87 L1412.8 1447.87 L1414.89 1447.87 L1416.97 1447.87 L1419.06 1447.87 L1421.15 1447.87 L1423.24 1447.87 L1425.33 1447.87 L1427.42 1447.87 L1429.51 1447.87 L1431.6 1447.87 L1433.69 1447.87 L1435.77 1447.87 L1437.86 1447.87 L1439.95 1447.87 L1442.04 1447.87 L1444.13 1447.87 L1446.22 1447.87 L1448.31 1447.87 L1450.4 1447.87 L1452.49 1447.87 L1454.58 1447.87 L1456.66 1447.87 L1458.75 1447.87 L1460.84 1447.87 L1462.93 1447.87 L1465.02 1447.87 L1467.11 1447.87 L1469.2 1447.87 L1471.29 1447.87 L1473.38 1447.87 L1475.46 1447.87 L1477.55 1447.87 L1479.64 1447.87 L1481.73 1447.87 L1483.82 1447.87 L1485.91 1447.87 L1488 1447.87 L1490.09 1447.87 L1492.18 1447.87 L1494.26 1447.87 L1496.35 1447.87 L1498.44 1447.87 L1500.53 1447.87 L1502.62 1447.87 L1504.71 1447.87 L1506.8 1447.87 L1508.89 1447.87 L1510.98 1447.87 L1513.07 1447.87 L1515.15 1447.87 L1517.24 1447.87 L1519.33 1447.87 L1521.42 1447.87 L1523.51 1447.87 L1525.6 1447.87 L1527.69 1447.87 L1529.78 1447.87 L1531.87 1447.87 L1533.95 1447.87 L1536.04 1447.87 L1538.13 1447.87 L1540.22 1447.87 L1542.31 1447.87 L1544.4 1447.87 L1546.49 1447.87 L1548.58 1447.87 L1550.67 1447.87 L1552.76 1447.87 L1554.84 1447.87 L1556.93 1447.87 L1559.02 1447.87 L1561.11 1447.87 L1563.2 1447.87 L1565.29 1447.87 L1567.38 1447.87 L1569.47 1447.87 L1571.56 1447.87 L1573.64 1447.87 L1575.73 1447.87 L1577.82 1447.87 L1579.91 1447.87 L1582 1447.87 L1584.09 1447.87 L1586.18 1447.87 L1588.27 1447.87 L1590.36 1447.87 L1592.45 1447.87 L1594.53 1447.87 L1596.62 1447.87 L1598.71 1447.87 L1600.8 1447.87 L1602.89 1447.87 L1604.98 1447.87 L1607.07 1447.87 L1609.16 1447.87 L1611.25 1447.87 L1613.33 1447.87 L1615.42 1447.87 L1617.51 1447.87 L1619.6 1447.87 L1621.69 1447.87 L1623.78 1447.87 L1625.87 1447.87 L1627.96 1447.87 L1630.05 1447.87 L1632.13 1447.87 L1634.22 1447.87 L1636.31 1447.87 L1638.4 1447.87 L1640.49 1447.87 L1642.58 1447.87 L1644.67 1447.87 L1646.76 1447.87 L1648.85 1447.87 L1650.94 1447.87 L1653.02 1447.87 L1655.11 1447.87 L1657.2 1447.87 L1659.29 1447.87 L1661.38 1447.87 L1663.47 1447.87 L1665.56 1447.87 L1667.65 1447.87 L1669.74 1447.87 L1671.82 1447.87 L1673.91 1447.87 L1676 1447.87 L1678.09 1447.87 L1680.18 1447.87 L1682.27 1447.87 L1684.36 1447.87 L1686.45 1447.87 L1688.54 1447.87 L1690.63 1447.87 L1692.71 1447.87 L1694.8 1447.87 L1696.89 1447.87 L1698.98 1447.87 L1701.07 1447.87 L1703.16 1447.87 L1705.25 1447.87 L1707.34 1447.87 L1709.43 1447.87 L1711.51 1447.87 L1713.6 1447.87 L1715.69 1447.87 L1717.78 1447.87 L1719.87 1447.87 L1721.96 1447.87 L1724.05 1447.87 L1726.14 1447.87 L1728.23 1447.87 L1730.31 1447.87 L1732.4 1447.87 L1734.49 1447.87 L1736.58 1447.87 L1738.67 1447.87 L1740.76 1447.87 L1742.85 1447.87 L1744.94 1447.87 L1747.03 1447.87 L1749.12 1447.87 L1751.2 1447.87 L1753.29 1447.87 L1755.38 1447.87 L1757.47 1447.87 L1759.56 1447.87 L1761.65 1447.87 L1763.74 1447.87 L1765.83 1447.87 L1767.92 1447.87 L1770 1447.87 L1772.09 1447.87 L1774.18 1447.87 L1776.27 1447.87 L1778.36 1447.87 L1780.45 1447.87 L1782.54 1447.87 L1784.63 1447.87 L1786.72 1447.87 L1788.81 1447.87 L1790.89 1447.87 L1792.98 1447.87 L1795.07 1447.87 L1797.16 1447.87 L1799.25 1447.87 L1801.34 1447.87 L1803.43 1447.87 L1805.52 1447.87 L1807.61 1447.87 L1809.69 1447.87 L1811.78 1447.87 L1813.87 1447.87 L1815.96 1447.87 L1818.05 1447.87 L1820.14 1447.87 L1822.23 1447.87 L1824.32 1447.87 L1826.41 1447.87 L1828.5 1447.87 L1830.58 1447.87 L1832.67 1447.87 L1834.76 1447.87 L1836.85 1447.87 L1838.94 1447.87 L1841.03 1447.87 L1843.12 1447.87 L1845.21 1447.87 L1847.3 1447.87 L1849.38 1447.87 L1851.47 1447.87 L1853.56 1447.87 L1855.65 1447.87 L1857.74 1447.87 L1859.83 1447.87 L1861.92 1447.87 L1864.01 1447.87 L1866.1 1447.87 L1868.18 1447.87 L1870.27 1447.87 L1872.36 1447.87 L1874.45 1447.87 L1876.54 1447.87 L1878.63 1447.87 L1880.72 1447.87 L1882.81 1447.87 L1884.9 1447.87 L1886.99 1447.87 L1889.07 1447.87 L1891.16 1447.87 L1893.25 1447.87 L1895.34 1447.87 L1897.43 1447.87 L1899.52 1447.87 L1901.61 1447.87 L1903.7 1447.87 L1905.79 1447.87 L1907.87 1447.87 L1909.96 1447.87 L1912.05 1447.87 L1914.14 1447.87 L1916.23 1447.87 L1918.32 1447.87 L1920.41 1447.87 L1922.5 1447.87 L1924.59 1447.87 L1926.68 1447.87 L1928.76 1447.87 L1930.85 1447.87 L1932.94 1447.87 L1935.03 1447.87 L1937.12 1447.87 L1939.21 1447.87 L1941.3 1447.87 L1943.39 1447.87 L1945.48 1447.87 L1947.56 1447.87 L1949.65 1447.87 L1951.74 1447.87 L1953.83 1447.87 L1955.92 1447.87 L1958.01 1447.87 L1960.1 1447.87 L1962.19 1447.87 L1964.28 1447.87 L1966.36 1447.87 L1968.45 1447.87 L1970.54 1447.87 L1972.63 1447.87 L1974.72 1447.87 L1976.81 1447.87 L1978.9 1447.87 L1980.99 1447.87 L1983.08 1447.87 L1985.17 1447.87 L1987.25 1447.87 L1989.34 1447.87 L1991.43 1447.87 L1993.52 1447.87 L1995.61 1447.87 L1997.7 1447.87 L1999.79 1447.87 L2001.88 1447.87 L2003.97 1447.87 L2006.05 1447.87 L2008.14 1447.87 L2010.23 1447.87 L2012.32 1447.87 L2014.41 1447.87 L2016.5 1447.87 L2018.59 1447.87 L2020.68 1447.87 L2022.77 1447.87 L2024.86 1447.87 L2026.94 1447.87 L2029.03 1447.87 L2031.12 1447.87 L2033.21 1447.87 L2035.3 1447.87 L2037.39 1447.87 L2039.48 1447.87 L2041.57 1447.87 L2043.66 1447.87 L2045.74 1447.87 L2047.83 1447.87 L2049.92 1447.87 L2052.01 1447.87 L2054.1 1447.87 L2056.19 1447.87 L2058.28 1447.87 L2060.37 1447.87 L2062.46 1447.87 L2064.55 1447.87 L2066.63 1447.87 L2068.72 1447.87 L2070.81 1447.87 L2072.9 1447.87 L2074.99 1447.87 L2077.08 1447.87 L2079.17 1447.87 L2081.26 1447.87 L2083.35 1447.87 L2085.43 1447.87 L2087.52 1447.87 L2089.61 1447.87 L2091.7 1447.87 L2093.79 1447.87 L2095.88 1447.87 L2097.97 1447.87 L2100.06 1447.87 L2102.15 1447.87 L2104.23 1447.87 L2106.32 1447.87 L2108.41 1447.87 L2110.5 1447.87 L2112.59 1447.87 L2114.68 1447.87 L2116.77 1447.87 L2118.86 1447.87 L2120.95 1447.87 L2123.04 1447.87 L2125.12 1447.87 L2127.21 1447.87 L2129.3 1447.87 L2131.39 1447.87 L2133.48 1447.87 L2135.57 1447.87 L2137.66 1447.87 L2139.75 1447.87 L2141.84 1447.87 L2143.92 1447.87 L2146.01 1447.87 L2148.1 1447.87 L2150.19 1447.87 L2152.28 1447.87 L2154.37 1447.87 L2156.46 1447.87 L2158.55 1447.87 L2160.64 1447.87 L2162.73 1447.87 L2164.81 1447.87 L2166.9 1447.87 L2168.99 1447.87 L2171.08 1447.87 L2173.17 1447.87 L2175.26 1447.87 L2177.35 1447.87 L2179.44 1447.87 L2181.53 1447.87 L2183.61 1447.87 L2185.7 1447.87 L2187.79 1447.87 L2189.88 1447.87 L2191.97 1447.87 L2194.06 1447.87 L2196.15 1447.87 L2198.24 1447.87 L2200.33 1447.87 L2202.42 1447.87 L2204.5 1447.87 L2206.59 1447.87 L2208.68 1447.87 L2210.77 1447.87 L2212.86 1447.87 L2214.95 1447.87 L2217.04 1447.87 L2219.13 1447.87 L2221.22 1447.87 L2223.3 1447.87 L2225.39 1447.87 L2227.48 1447.87 L2229.57 1447.87 L2231.66 1447.87 L2233.75 1447.87 L2235.84 1447.87 L2237.93 1447.87 L2240.02 1447.87 L2242.1 1447.87 L2244.19 1447.87 L2246.28 1447.87 L2248.37 1447.87 L2250.46 1447.87 L2252.55 1447.87 L2254.64 1447.87 L2256.73 1447.87 L2258.82 1447.87 L2260.91 1447.87 L2262.99 1447.87 L2265.08 1447.87 L2267.17 1447.87 L2269.26 1447.87 L2271.35 1447.87 L2273.44 1447.87 L2275.53 1447.87 L2277.62 1447.87 L2279.71 1447.87 L2281.79 1447.87 L2283.88 1447.87 L2285.97 1447.87 L2288.06 1447.87 L2290.15 1447.87 L2290.15 1447.87 L2288.06 1447.87 L2285.97 1447.87 L2283.88 1447.87 L2281.79 1447.87 L2279.71 1447.87 L2277.62 1447.87 L2275.53 1447.87 L2273.44 1447.87 L2271.35 1447.87 L2269.26 1447.87 L2267.17 1447.87 L2265.08 1447.87 L2262.99 1447.87 L2260.91 1447.87 L2258.82 1447.87 L2256.73 1447.87 L2254.64 1447.87 L2252.55 1447.87 L2250.46 1447.87 L2248.37 1447.87 L2246.28 1447.87 L2244.19 1447.87 L2242.1 1447.87 L2240.02 1447.87 L2237.93 1447.87 L2235.84 1447.87 L2233.75 1447.87 L2231.66 1447.87 L2229.57 1447.87 L2227.48 1447.87 L2225.39 1447.87 L2223.3 1447.87 L2221.22 1447.87 L2219.13 1447.87 L2217.04 1447.87 L2214.95 1447.87 L2212.86 1447.87 L2210.77 1447.87 L2208.68 1447.87 L2206.59 1447.87 L2204.5 1447.87 L2202.42 1447.87 L2200.33 1447.87 L2198.24 1447.87 L2196.15 1447.87 L2194.06 1447.87 L2191.97 1447.87 L2189.88 1447.87 L2187.79 1447.87 L2185.7 1447.87 L2183.61 1447.87 L2181.53 1447.87 L2179.44 1447.87 L2177.35 1447.87 L2175.26 1447.87 L2173.17 1447.87 L2171.08 1447.87 L2168.99 1447.87 L2166.9 1447.87 L2164.81 1447.87 L2162.73 1447.87 L2160.64 1447.87 L2158.55 1447.87 L2156.46 1447.87 L2154.37 1447.87 L2152.28 1447.87 L2150.19 1447.87 L2148.1 1447.87 L2146.01 1447.87 L2143.92 1447.87 L2141.84 1447.87 L2139.75 1447.87 L2137.66 1447.87 L2135.57 1447.87 L2133.48 1447.87 L2131.39 1447.87 L2129.3 1447.87 L2127.21 1447.87 L2125.12 1447.87 L2123.04 1447.87 L2120.95 1447.87 L2118.86 1447.87 L2116.77 1447.87 L2114.68 1447.87 L2112.59 1447.87 L2110.5 1447.87 L2108.41 1447.87 L2106.32 1447.87 L2104.23 1447.87 L2102.15 1447.87 L2100.06 1447.87 L2097.97 1447.87 L2095.88 1447.87 L2093.79 1447.87 L2091.7 1447.87 L2089.61 1447.87 L2087.52 1447.87 L2085.43 1447.87 L2083.35 1447.87 L2081.26 1447.87 L2079.17 1447.87 L2077.08 1447.87 L2074.99 1447.87 L2072.9 1447.87 L2070.81 1447.87 L2068.72 1447.87 L2066.63 1447.87 L2064.55 1447.87 L2062.46 1447.87 L2060.37 1447.87 L2058.28 1447.87 L2056.19 1447.87 L2054.1 1447.87 L2052.01 1447.87 L2049.92 1447.87 L2047.83 1447.87 L2045.74 1447.87 L2043.66 1447.87 L2041.57 1447.87 L2039.48 1447.87 L2037.39 1447.87 L2035.3 1447.87 L2033.21 1447.87 L2031.12 1447.87 L2029.03 1447.87 L2026.94 1447.87 L2024.86 1447.87 L2022.77 1447.87 L2020.68 1447.87 L2018.59 1447.87 L2016.5 1447.87 L2014.41 1447.87 L2012.32 1447.87 L2010.23 1447.87 L2008.14 1447.87 L2006.05 1447.87 L2003.97 1447.87 L2001.88 1447.87 L1999.79 1447.87 L1997.7 1447.87 L1995.61 1447.87 L1993.52 1447.87 L1991.43 1447.87 L1989.34 1447.87 L1987.25 1447.87 L1985.17 1447.87 L1983.08 1447.87 L1980.99 1447.87 L1978.9 1447.87 L1976.81 1447.87 L1974.72 1447.87 L1972.63 1447.87 L1970.54 1447.87 L1968.45 1447.87 L1966.36 1447.87 L1964.28 1447.87 L1962.19 1447.87 L1960.1 1447.87 L1958.01 1447.87 L1955.92 1447.87 L1953.83 1447.87 L1951.74 1447.87 L1949.65 1447.87 L1947.56 1447.87 L1945.48 1447.87 L1943.39 1447.87 L1941.3 1447.87 L1939.21 1447.87 L1937.12 1447.87 L1935.03 1447.87 L1932.94 1447.87 L1930.85 1447.87 L1928.76 1447.87 L1926.68 1447.87 L1924.59 1447.87 L1922.5 1447.87 L1920.41 1447.87 L1918.32 1447.87 L1916.23 1447.87 L1914.14 1447.87 L1912.05 1447.87 L1909.96 1447.87 L1907.87 1447.87 L1905.79 1447.87 L1903.7 1447.87 L1901.61 1447.87 L1899.52 1447.87 L1897.43 1447.87 L1895.34 1447.87 L1893.25 1447.87 L1891.16 1447.87 L1889.07 1447.87 L1886.99 1447.87 L1884.9 1447.87 L1882.81 1447.87 L1880.72 1447.87 L1878.63 1447.87 L1876.54 1447.87 L1874.45 1447.87 L1872.36 1447.87 L1870.27 1447.87 L1868.18 1447.87 L1866.1 1447.87 L1864.01 1447.87 L1861.92 1447.87 L1859.83 1447.87 L1857.74 1447.87 L1855.65 1447.87 L1853.56 1447.87 L1851.47 1447.87 L1849.38 1447.87 L1847.3 1447.87 L1845.21 1447.87 L1843.12 1447.87 L1841.03 1447.87 L1838.94 1447.87 L1836.85 1447.87 L1834.76 1447.87 L1832.67 1447.87 L1830.58 1447.87 L1828.5 1447.87 L1826.41 1447.87 L1824.32 1447.87 L1822.23 1447.87 L1820.14 1447.87 L1818.05 1447.87 L1815.96 1447.87 L1813.87 1447.87 L1811.78 1447.87 L1809.69 1447.87 L1807.61 1447.87 L1805.52 1447.87 L1803.43 1447.87 L1801.34 1447.87 L1799.25 1447.87 L1797.16 1447.87 L1795.07 1447.87 L1792.98 1447.87 L1790.89 1447.87 L1788.81 1447.87 L1786.72 1447.87 L1784.63 1447.87 L1782.54 1447.87 L1780.45 1447.87 L1778.36 1447.87 L1776.27 1447.87 L1774.18 1447.87 L1772.09 1447.87 L1770 1447.87 L1767.92 1447.87 L1765.83 1447.87 L1763.74 1447.87 L1761.65 1447.87 L1759.56 1447.87 L1757.47 1447.87 L1755.38 1447.87 L1753.29 1447.87 L1751.2 1447.87 L1749.12 1447.87 L1747.03 1447.87 L1744.94 1447.87 L1742.85 1447.87 L1740.76 1447.87 L1738.67 1447.87 L1736.58 1447.87 L1734.49 1447.87 L1732.4 1447.87 L1730.31 1447.87 L1728.23 1447.87 L1726.14 1447.87 L1724.05 1447.87 L1721.96 1447.87 L1719.87 1447.87 L1717.78 1447.87 L1715.69 1447.87 L1713.6 1447.87 L1711.51 1447.87 L1709.43 1447.87 L1707.34 1447.87 L1705.25 1447.87 L1703.16 1447.87 L1701.07 1447.87 L1698.98 1447.87 L1696.89 1447.87 L1694.8 1447.87 L1692.71 1447.87 L1690.63 1447.87 L1688.54 1447.87 L1686.45 1447.87 L1684.36 1447.87 L1682.27 1447.87 L1680.18 1447.87 L1678.09 1447.87 L1676 1447.87 L1673.91 1447.87 L1671.82 1447.87 L1669.74 1447.87 L1667.65 1447.87 L1665.56 1447.87 L1663.47 1447.87 L1661.38 1447.87 L1659.29 1447.87 L1657.2 1447.87 L1655.11 1447.87 L1653.02 1447.87 L1650.94 1447.87 L1648.85 1447.87 L1646.76 1447.87 L1644.67 1447.87 L1642.58 1447.87 L1640.49 1447.87 L1638.4 1447.87 L1636.31 1447.87 L1634.22 1447.87 L1632.13 1447.87 L1630.05 1447.87 L1627.96 1447.87 L1625.87 1447.87 L1623.78 1447.87 L1621.69 1447.87 L1619.6 1447.87 L1617.51 1447.87 L1615.42 1447.87 L1613.33 1447.87 L1611.25 1447.87 L1609.16 1447.87 L1607.07 1447.87 L1604.98 1447.87 L1602.89 1447.87 L1600.8 1447.87 L1598.71 1447.87 L1596.62 1447.87 L1594.53 1447.87 L1592.45 1447.87 L1590.36 1447.87 L1588.27 1447.87 L1586.18 1447.87 L1584.09 1447.87 L1582 1447.87 L1579.91 1447.87 L1577.82 1447.87 L1575.73 1447.87 L1573.64 1447.87 L1571.56 1447.87 L1569.47 1447.87 L1567.38 1447.87 L1565.29 1447.87 L1563.2 1447.87 L1561.11 1447.87 L1559.02 1447.87 L1556.93 1447.87 L1554.84 1447.87 L1552.76 1447.87 L1550.67 1447.87 L1548.58 1447.87 L1546.49 1447.87 L1544.4 1447.87 L1542.31 1447.87 L1540.22 1447.87 L1538.13 1447.87 L1536.04 1447.87 L1533.95 1447.87 L1531.87 1447.87 L1529.78 1447.87 L1527.69 1447.87 L1525.6 1447.87 L1523.51 1447.87 L1521.42 1447.87 L1519.33 1447.87 L1517.24 1447.87 L1515.15 1447.87 L1513.07 1447.87 L1510.98 1447.87 L1508.89 1447.87 L1506.8 1447.87 L1504.71 1447.87 L1502.62 1447.87 L1500.53 1447.87 L1498.44 1447.87 L1496.35 1447.87 L1494.26 1447.87 L1492.18 1447.87 L1490.09 1447.87 L1488 1447.87 L1485.91 1447.87 L1483.82 1447.87 L1481.73 1447.87 L1479.64 1447.87 L1477.55 1447.87 L1475.46 1447.87 L1473.38 1447.87 L1471.29 1447.87 L1469.2 1447.87 L1467.11 1447.87 L1465.02 1447.87 L1462.93 1447.87 L1460.84 1447.87 L1458.75 1447.87 L1456.66 1447.87 L1454.58 1447.87 L1452.49 1447.87 L1450.4 1447.87 L1448.31 1447.87 L1446.22 1447.87 L1444.13 1447.87 L1442.04 1447.87 L1439.95 1447.87 L1437.86 1447.87 L1435.77 1447.87 L1433.69 1447.87 L1431.6 1447.87 L1429.51 1447.87 L1427.42 1447.87 L1425.33 1447.87 L1423.24 1447.87 L1421.15 1447.87 L1419.06 1447.87 L1416.97 1447.87 L1414.89 1447.87 L1412.8 1447.87 L1410.71 1447.87 L1408.62 1447.87 L1406.53 1447.87 L1404.44 1447.87 L1402.35 1447.87 L1400.26 1447.87 L1398.17 1447.87 L1396.08 1447.87 L1394 1447.87 L1391.91 1447.87 L1389.82 1447.87 L1387.73 1447.87 L1385.64 1447.87 L1383.55 1447.87 L1381.46 1447.87 L1379.37 1447.87 L1377.28 1447.87 L1375.2 1447.87 L1373.11 1447.87 L1371.02 1447.87 L1368.93 1447.87 L1366.84 1447.87 L1364.75 1447.87 L1362.66 1447.87 L1360.57 1447.87 L1358.48 1447.87 L1356.39 1447.87 L1354.31 1447.87 L1352.22 1447.87 L1350.13 1447.87 L1348.04 1447.87 L1345.95 1447.87 L1343.86 1447.87 L1341.77 1447.87 L1339.68 1447.87 L1337.59 1447.87 L1335.51 1447.87 L1333.42 1447.87 L1331.33 1447.87 L1329.24 1447.87 L1327.15 1447.87 L1325.06 1447.87 L1322.97 1447.87 L1320.88 1447.87 L1318.79 1447.87 L1316.71 1447.87 L1314.62 1447.87 L1312.53 1447.87 L1310.44 1447.87 L1308.35 1447.87 L1306.26 1447.87 L1304.17 1447.87 L1302.08 1447.87 L1299.99 1447.87 L1297.9 1447.87 L1295.82 1447.87 L1293.73 1447.87 L1291.64 1447.87 L1289.55 1447.87 L1287.46 1447.87 L1285.37 1447.87 L1283.28 1447.87 L1281.19 1447.87 L1279.1 1447.87 L1277.02 1447.87 L1274.93 1447.87 L1272.84 1447.87 L1270.75 1447.87 L1268.66 1447.87 L1266.57 1447.87 L1264.48 1447.87 L1262.39 1447.87 L1260.3 1447.87 L1258.21 1447.87 L1256.13 1447.87 L1254.04 1447.87 L1251.95 1447.87 L1249.86 1447.87 L1247.77 1447.87 L1245.68 1447.87 L1243.59 1447.87 L1241.5 1447.87 L1239.41 1447.87 L1237.33 1447.87 L1235.24 1447.87 L1233.15 1447.87 L1231.06 1447.87 L1228.97 1447.87 L1226.88 1447.87 L1224.79 1447.87 L1222.7 1447.87 L1220.61 1447.87 L1218.53 1447.87 L1216.44 1447.87 L1214.35 1447.87 L1212.26 1447.87 L1210.17 1447.87 L1208.08 1447.87 L1205.99 1447.87 L1203.9 1447.87 L1201.81 1447.87 L1199.72 1447.87 L1197.64 1447.87 L1195.55 1447.87 L1193.46 1447.87 L1191.37 1447.87 L1189.28 1447.87 L1187.19 1447.87 L1185.1 1447.87 L1183.01 1447.87 L1180.92 1447.87 L1178.84 1447.87 L1176.75 1447.87 L1174.66 1447.87 L1172.57 1447.87 L1170.48 1447.87 L1168.39 1447.87 L1166.3 1447.87 L1164.21 1447.87 L1162.12 1447.87 L1160.03 1447.87 L1157.95 1447.87 L1155.86 1447.87 L1153.77 1447.87 L1151.68 1447.87 L1149.59 1447.87 L1147.5 1447.87 L1145.41 1447.87 L1143.32 1447.87 L1141.23 1447.87 L1139.15 1447.87 L1137.06 1447.87 L1134.97 1447.87 L1132.88 1447.87 L1130.79 1447.87 L1128.7 1447.87 L1126.61 1447.87 L1124.52 1447.87 L1122.43 1447.87 L1120.34 1447.87 L1118.26 1447.87 L1116.17 1447.87 L1114.08 1447.87 L1111.99 1447.87 L1109.9 1447.87 L1107.81 1447.87 L1105.72 1447.87 L1103.63 1447.87 L1101.54 1447.87 L1099.46 1447.87 L1097.37 1447.87 L1095.28 1447.87 L1093.19 1447.87 L1091.1 1447.87 L1089.01 1447.87 L1086.92 1447.87 L1084.83 1447.87 L1082.74 1447.87 L1080.66 1447.87 L1078.57 1447.87 L1076.48 1447.87 L1074.39 1447.87 L1072.3 1447.87 L1070.21 1447.87 L1068.12 1447.87 L1066.03 1447.87 L1063.94 1447.87 L1061.85 1447.87 L1059.77 1447.87 L1057.68 1447.87 L1055.59 1447.87 L1053.5 1447.87 L1051.41 1447.87 L1049.32 1447.87 L1047.23 1447.87 L1045.14 1447.87 L1043.05 1447.87 L1040.97 1447.87 L1038.88 1447.87 L1036.79 1447.87 L1034.7 1447.87 L1032.61 1447.87 L1030.52 1447.87 L1028.43 1447.87 L1026.34 1447.87 L1024.25 1447.87 L1022.16 1447.87 L1020.08 1447.87 L1017.99 1447.87 L1015.9 1447.87 L1013.81 1447.87 L1011.72 1447.87 L1009.63 1447.87 L1007.54 1447.87 L1005.45 1447.87 L1003.36 1447.87 L1001.28 1447.87 L999.187 1447.87 L997.098 1447.87 L995.009 1447.87 L992.92 1447.87 L990.831 1447.87 L988.742 1447.87 L986.653 1447.87 L984.564 1447.87 L982.475 1447.87 L980.386 1447.87 L978.297 1447.87 L976.208 1447.87 L974.119 1447.87 L972.03 1447.87 L969.941 1447.87 L967.852 1447.87 L965.764 1447.87 L963.675 1447.87 L961.586 1447.87 L959.497 1447.87 L957.408 1447.87 L955.319 1447.87 L953.23 1447.87 L951.141 1447.87 L949.052 1447.87 L946.963 1447.87 L944.874 1447.87 L942.785 1447.87 L940.696 1447.87 L938.607 1447.87 L936.518 1447.87 L934.429 1447.87 L932.341 1447.87 L930.252 1447.87 L928.163 1447.87 L926.074 1447.87 L923.985 1447.87 L921.896 1447.87 L919.807 1447.87 L917.718 1447.87 L915.629 1447.87 L913.54 1447.87 L911.451 1447.87 L909.362 1447.87 L907.273 1447.87 L905.184 1447.87 L903.095 1447.87 L901.006 1447.87 L898.917 1447.87 L896.829 1447.87 L894.74 1447.87 L892.651 1447.87 L890.562 1447.87 L888.473 1447.87 L886.384 1447.87 L884.295 1447.87 L882.206 1447.87 L880.117 1447.87 L878.028 1447.87 L875.939 1447.87 L873.85 1447.87 L871.761 1447.87 L869.672 1447.87 L867.583 1447.87 L865.494 1447.87 L863.406 1447.87 L861.317 1447.87 L859.228 1447.87 L857.139 1447.87 L855.05 1447.87 L852.961 1447.87 L850.872 1447.87 L848.783 1447.87 L846.694 1447.87 L844.605 1447.87 L842.516 1447.87 L840.427 1447.87 L838.338 1447.87 L836.249 1447.87 L834.16 1447.87 L832.071 1447.87 L829.983 1447.87 L827.894 1447.87 L825.805 1447.87 L823.716 1447.87 L821.627 1447.87 L819.538 1447.87 L817.449 1447.87 L815.36 1447.87 L813.271 1447.87 L811.182 1447.87 L809.093 1447.87 L807.004 1447.87 L804.915 1447.87 L802.826 1447.87 L800.737 1447.87 L798.648 1447.87 L796.56 1447.87 L794.471 1447.87 L792.382 1447.87 L790.293 1447.87 L788.204 1447.87 L786.115 1447.87 L784.026 1447.87 L781.937 1447.87 L779.848 1447.87 L777.759 1447.87 L775.67 1447.87 L773.581 1447.87 L771.492 1447.87 L769.403 1447.87 L767.314 1447.87 L765.225 1447.87 L763.136 1447.87 L761.048 1447.87 L758.959 1447.87 L756.87 1447.87 L754.781 1447.87 L752.692 1447.87 L750.603 1447.87 L748.514 1447.87 L746.425 1447.87 L744.336 1447.87 L742.247 1447.87 L740.158 1447.87 L738.069 1447.87 L735.98 1447.87 L733.891 1447.87 L731.802 1447.87 L729.713 1447.87 L727.625 1447.87 L725.536 1447.87 L723.447 1447.87 L721.358 1447.87 L719.269 1447.87 L717.18 1447.87 L715.091 1447.87 L713.002 1447.87 L710.913 1447.87 L708.824 1447.87 L706.735 1447.87 L704.646 1447.87 L702.557 1447.87 L700.468 1447.87 L698.379 1447.87 L696.29 1447.87 L694.202 1447.87 L692.113 1447.87 L690.024 1447.87 L687.935 1447.87 L685.846 1447.87 L683.757 1447.87 L681.668 1447.87 L679.579 1447.87 L677.49 1447.87 L675.401 1447.87 L673.312 1447.87 L671.223 1447.87 L669.134 1447.87 L667.045 1447.87 L664.956 1447.87 L662.867 1447.87 L660.779 1447.87 L658.69 1447.87 L656.601 1447.87 L654.512 1447.87 L652.423 1447.87 L650.334 1447.87 L648.245 1447.87 L646.156 1447.87 L644.067 1447.87 L641.978 1447.87 L639.889 1447.87 L637.8 1447.87 L635.711 1447.87 L633.622 1447.87 L631.533 1447.87 L629.444 1447.87 L627.356 1447.87 L625.267 1447.87 L623.178 1447.87 L621.089 1447.87 L619 1447.87 L616.911 1447.87 L614.822 1447.87 L612.733 1447.87 L610.644 1447.87 L608.555 1447.87 L606.466 1447.87 L604.377 1447.87 L602.288 1447.87 L600.199 1447.87 L598.11 1447.87 L596.021 1447.87 L593.932 1447.87 L591.844 1447.87 L589.755 1447.87 L587.666 1447.87 L585.577 1447.87 L583.488 1447.87 L581.399 1447.87 L579.31 1447.87 L577.221 1447.87 L575.132 1447.87 L573.043 1447.87 L570.954 1447.87 L568.865 1447.87 L566.776 1447.87 L564.687 1447.87 L562.598 1447.87 L560.509 1447.87 L558.421 1447.87 L556.332 1447.87 L554.243 1447.87 L552.154 1447.87 L550.065 1447.87 L547.976 1447.87 L545.887 1447.87 L543.798 1447.87 L541.709 1447.87 L539.62 1447.87 L537.531 1447.87 L535.442 1447.87 L533.353 1447.87 L531.264 1447.87 L529.175 1447.87 L527.086 1447.87 L524.998 1447.87 L522.909 1447.87 L520.82 1447.87 L518.731 1447.87 L516.642 1447.87 L514.553 1447.87 L512.464 1447.87 L510.375 1447.87 L508.286 1447.87 L506.197 1447.87 L504.108 1447.87 L502.019 1447.87 L499.93 1447.87 L497.841 1447.87 L495.752 1447.87 L493.663 1447.87 L491.575 1447.87 L489.486 1447.87 L487.397 1447.87 L485.308 1447.87 L483.219 1447.87 L481.13 1447.87 L479.041 1447.87 L476.952 1447.87 L474.863 1447.87 L472.774 1447.87 L470.685 1447.87 L468.596 1447.87 L466.507 1447.87 L464.418 1447.87 L462.329 1447.87 L460.24 1447.87 L458.152 1447.87 L456.063 1447.87 L453.974 1447.87 L451.885 1447.87 L449.796 1447.87 L447.707 1447.87 L445.618 1447.87 L443.529 1447.87 L441.44 1447.87 L439.351 1447.87 L437.262 1447.87 L435.173 1447.87 L433.084 1447.87 L430.995 1447.87 L428.906 1447.87 L426.817 1447.87 L424.728 1447.87 L422.64 1447.87 L420.551 1447.87 L418.462 1447.87 L416.373 1447.87 L414.284 1447.87 L412.195 1447.87 L410.106 1447.87 L408.017 1447.87 L405.928 1447.87 L403.839 1447.87 L401.75 1447.87 L399.661 1447.87 L397.572 1447.87 L395.483 1447.87 L393.394 1447.87 L391.305 1447.87 L389.217 1447.87 L387.128 1447.87 L385.039 1447.87 L382.95 1447.87 L380.861 1447.87 L378.772 1447.87 L376.683 1447.87 L374.594 1447.87 L372.505 1447.87 L370.416 1447.87 L368.327 1447.87 L366.238 1447.87 L364.149 1447.87 L362.06 1447.87 L359.971 1447.87 L357.882 1447.87 L355.794 1447.87 L353.705 1447.87 L351.616 1447.87 L349.527 1447.87 L347.438 1447.87 L345.349 1447.87 L343.26 1447.87 L341.171 1447.87 L339.082 1447.87 L336.993 1447.87 L334.904 1447.87 L332.815 1447.87 L330.726 1447.87 L328.637 1447.87 L326.548 1447.87 L324.459 1447.87 L322.371 1447.87 L320.282 1447.87 L318.193 1447.87 L316.104 1447.87 L314.015 1447.87 L311.926 1447.87 L309.837 1447.87 L307.748 1447.87 L305.659 1447.87 L303.57 1447.87 L301.481 1447.87 L299.392 1447.87 L297.303 1447.87 L295.214 1447.87 L293.125 1447.87 L291.036 1447.87 L288.947 1447.87 L286.859 1447.87 L284.77 1447.87 L282.681 1447.87 L280.592 1447.87 L278.503 1447.87 L276.414 1447.87 L274.325 1447.87 L272.236 1447.87 L270.147 1447.87 L268.058 1447.87 L265.969 1447.87 L263.88 1447.87 L261.791 1447.87 L259.702 1447.87 L257.613 1447.87 L255.524 1447.87 L253.436 1447.87 L251.347 1447.87 L249.258 1447.87 L247.169 1447.87 L245.08 1447.87 L242.991 1447.87 L240.902 1447.87 L238.813 1447.87 L236.724 1447.87 L234.635 1447.87 L232.546 1447.87 L230.457 1447.87 L228.368 1447.87 L226.279 1447.87 L224.19 1447.87 L222.101 1447.87 L220.013 1447.87 L217.924 1447.87 L215.835 1447.87 L213.746 1447.87 L211.657 1447.87 L209.568 1447.87 L207.479 1447.87 L205.39 1447.87 L203.301 1447.87  Z" fill="#009af9" fill-rule="evenodd" fill-opacity="0.4"/>
<polyline clip-path="url(#clip652)" style="stroke:#009af9; stroke-linecap:round; stroke-linejoin:round; stroke-width:4; stroke-opacity:1; fill:none" points="203.301,1447.87 205.39,1447.84 207.479,1447.45 209.568,1445.95 211.657,1442.4 213.746,1435.81 215.835,1425.29 217.924,1410.13 220.013,1389.78 222.101,1363.92 224.19,1332.45 226.279,1295.45 228.368,1253.19 230.457,1206.06 232.546,1154.6 234.635,1099.43 236.724,1041.24 238.813,980.752 240.902,918.708 242.991,855.853 245.08,792.91 247.169,730.57 249.258,669.481 251.347,610.238 253.436,553.378 255.524,499.376 257.613,448.643 259.702,401.524 261.791,358.301 263.88,319.192 265.969,284.356 268.058,253.897 270.147,227.865 272.236,206.264 274.325,189.052 276.414,176.152 278.503,167.45 280.592,162.804 282.681,162.047 284.77,164.992 286.859,171.434 288.947,181.156 291.036,193.932 293.125,209.529 295.214,227.713 297.303,248.245 299.392,270.892 301.481,295.422 303.57,321.61 305.659,349.236 307.748,378.089 309.837,407.969 311.926,438.682 314.015,470.047 316.104,501.893 318.193,534.062 320.282,566.404 322.371,598.783 324.459,631.073 326.548,663.159 328.637,694.938 330.726,726.315 332.815,757.208 334.904,787.543 336.993,817.255 339.082,846.288 341.171,874.594 343.26,902.135 345.349,928.875 347.438,954.791 349.527,979.861 351.616,1004.07 353.705,1027.41 355.794,1049.88 357.882,1071.48 359.971,1092.2 362.06,1112.07 364.149,1131.08 366.238,1149.25 368.327,1166.6 370.416,1183.14 372.505,1198.9 374.594,1213.89 376.683,1228.13 378.772,1241.65 380.861,1254.48 382.95,1266.62 385.039,1278.12 387.128,1288.99 389.217,1299.26 391.305,1308.96 393.394,1318.1 395.483,1326.71 397.572,1334.82 399.661,1342.45 401.75,1349.62 403.839,1356.36 405.928,1362.68 408.017,1368.61 410.106,1374.16 412.195,1379.36 414.284,1384.23 416.373,1388.79 418.462,1393.04 420.551,1397.02 422.64,1400.73 424.728,1404.19 426.817,1407.41 428.906,1410.42 430.995,1413.22 433.084,1415.82 435.173,1418.25 437.262,1420.5 439.351,1422.59 441.44,1424.53 443.529,1426.34 445.618,1428.01 447.707,1429.56 449.796,1430.99 451.885,1432.32 453.974,1433.56 456.063,1434.7 458.152,1435.75 460.24,1436.72 462.329,1437.62 464.418,1438.45 466.507,1439.22 468.596,1439.93 470.685,1440.58 472.774,1441.18 474.863,1441.73 476.952,1442.25 479.041,1442.71 481.13,1443.15 483.219,1443.54 485.308,1443.91 487.397,1444.25 489.486,1444.56 491.575,1444.84 493.663,1445.1 495.752,1445.34 497.841,1445.56 499.93,1445.76 502.019,1445.94 504.108,1446.11 506.197,1446.26 508.286,1446.41 510.375,1446.54 512.464,1446.65 514.553,1446.76 516.642,1446.86 518.731,1446.95 520.82,1447.03 522.909,1447.11 524.998,1447.18 527.086,1447.24 529.175,1447.3 531.264,1447.35 533.353,1447.4 535.442,1447.44 537.531,1447.48 539.62,1447.52 541.709,1447.55 543.798,1447.58 545.887,1447.61 547.976,1447.63 550.065,1447.66 552.154,1447.68 554.243,1447.69 556.332,1447.71 558.421,1447.73 560.509,1447.74 562.598,1447.75 564.687,1447.76 566.776,1447.77 568.865,1447.78 570.954,1447.79 573.043,1447.8 575.132,1447.81 577.221,1447.81 579.31,1447.82 581.399,1447.82 583.488,1447.83 585.577,1447.83 587.666,1447.84 589.755,1447.84 591.844,1447.84 593.932,1447.85 596.021,1447.85 598.11,1447.85 600.199,1447.85 602.288,1447.86 604.377,1447.86 606.466,1447.86 608.555,1447.86 610.644,1447.86 612.733,1447.86 614.822,1447.86 616.911,1447.86 619,1447.87 621.089,1447.87 623.178,1447.87 625.267,1447.87 627.356,1447.87 629.444,1447.87 631.533,1447.87 633.622,1447.87 635.711,1447.87 637.8,1447.87 639.889,1447.87 641.978,1447.87 644.067,1447.87 646.156,1447.87 648.245,1447.87 650.334,1447.87 652.423,1447.87 654.512,1447.87 656.601,1447.87 658.69,1447.87 660.779,1447.87 662.867,1447.87 664.956,1447.87 667.045,1447.87 669.134,1447.87 671.223,1447.87 673.312,1447.87 675.401,1447.87 677.49,1447.87 679.579,1447.87 681.668,1447.87 683.757,1447.87 685.846,1447.87 687.935,1447.87 690.024,1447.87 692.113,1447.87 694.202,1447.87 696.29,1447.87 698.379,1447.87 700.468,1447.87 702.557,1447.87 704.646,1447.87 706.735,1447.87 708.824,1447.87 710.913,1447.87 713.002,1447.87 715.091,1447.87 717.18,1447.87 719.269,1447.87 721.358,1447.87 723.447,1447.87 725.536,1447.87 727.625,1447.87 729.713,1447.87 731.802,1447.87 733.891,1447.87 735.98,1447.87 738.069,1447.87 740.158,1447.87 742.247,1447.87 744.336,1447.87 746.425,1447.87 748.514,1447.87 750.603,1447.87 752.692,1447.87 754.781,1447.87 756.87,1447.87 758.959,1447.87 761.048,1447.87 763.136,1447.87 765.225,1447.87 767.314,1447.87 769.403,1447.87 771.492,1447.87 773.581,1447.87 775.67,1447.87 777.759,1447.87 779.848,1447.87 781.937,1447.87 784.026,1447.87 786.115,1447.87 788.204,1447.87 790.293,1447.87 792.382,1447.87 794.471,1447.87 796.56,1447.87 798.648,1447.87 800.737,1447.87 802.826,1447.87 804.915,1447.87 807.004,1447.87 809.093,1447.87 811.182,1447.87 813.271,1447.87 815.36,1447.87 817.449,1447.87 819.538,1447.87 821.627,1447.87 823.716,1447.87 825.805,1447.87 827.894,1447.87 829.983,1447.87 832.071,1447.87 834.16,1447.87 836.249,1447.87 838.338,1447.87 840.427,1447.87 842.516,1447.87 844.605,1447.87 846.694,1447.87 848.783,1447.87 850.872,1447.87 852.961,1447.87 855.05,1447.87 857.139,1447.87 859.228,1447.87 861.317,1447.87 863.406,1447.87 865.494,1447.87 867.583,1447.87 869.672,1447.87 871.761,1447.87 873.85,1447.87 875.939,1447.87 878.028,1447.87 880.117,1447.87 882.206,1447.87 884.295,1447.87 886.384,1447.87 888.473,1447.87 890.562,1447.87 892.651,1447.87 894.74,1447.87 896.829,1447.87 898.917,1447.87 901.006,1447.87 903.095,1447.87 905.184,1447.87 907.273,1447.87 909.362,1447.87 911.451,1447.87 913.54,1447.87 915.629,1447.87 917.718,1447.87 919.807,1447.87 921.896,1447.87 923.985,1447.87 926.074,1447.87 928.163,1447.87 930.252,1447.87 932.341,1447.87 934.429,1447.87 936.518,1447.87 938.607,1447.87 940.696,1447.87 942.785,1447.87 944.874,1447.87 946.963,1447.87 949.052,1447.87 951.141,1447.87 953.23,1447.87 955.319,1447.87 957.408,1447.87 959.497,1447.87 961.586,1447.87 963.675,1447.87 965.764,1447.87 967.852,1447.87 969.941,1447.87 972.03,1447.87 974.119,1447.87 976.208,1447.87 978.297,1447.87 980.386,1447.87 982.475,1447.87 984.564,1447.87 986.653,1447.87 988.742,1447.87 990.831,1447.87 992.92,1447.87 995.009,1447.87 997.098,1447.87 999.187,1447.87 1001.28,1447.87 1003.36,1447.87 1005.45,1447.87 1007.54,1447.87 1009.63,1447.87 1011.72,1447.87 1013.81,1447.87 1015.9,1447.87 1017.99,1447.87 1020.08,1447.87 1022.16,1447.87 1024.25,1447.87 1026.34,1447.87 1028.43,1447.87 1030.52,1447.87 1032.61,1447.87 1034.7,1447.87 1036.79,1447.87 1038.88,1447.87 1040.97,1447.87 1043.05,1447.87 1045.14,1447.87 1047.23,1447.87 1049.32,1447.87 1051.41,1447.87 1053.5,1447.87 1055.59,1447.87 1057.68,1447.87 1059.77,1447.87 1061.85,1447.87 1063.94,1447.87 1066.03,1447.87 1068.12,1447.87 1070.21,1447.87 1072.3,1447.87 1074.39,1447.87 1076.48,1447.87 1078.57,1447.87 1080.66,1447.87 1082.74,1447.87 1084.83,1447.87 1086.92,1447.87 1089.01,1447.87 1091.1,1447.87 1093.19,1447.87 1095.28,1447.87 1097.37,1447.87 1099.46,1447.87 1101.54,1447.87 1103.63,1447.87 1105.72,1447.87 1107.81,1447.87 1109.9,1447.87 1111.99,1447.87 1114.08,1447.87 1116.17,1447.87 1118.26,1447.87 1120.34,1447.87 1122.43,1447.87 1124.52,1447.87 1126.61,1447.87 1128.7,1447.87 1130.79,1447.87 1132.88,1447.87 1134.97,1447.87 1137.06,1447.87 1139.15,1447.87 1141.23,1447.87 1143.32,1447.87 1145.41,1447.87 1147.5,1447.87 1149.59,1447.87 1151.68,1447.87 1153.77,1447.87 1155.86,1447.87 1157.95,1447.87 1160.03,1447.87 1162.12,1447.87 1164.21,1447.87 1166.3,1447.87 1168.39,1447.87 1170.48,1447.87 1172.57,1447.87 1174.66,1447.87 1176.75,1447.87 1178.84,1447.87 1180.92,1447.87 1183.01,1447.87 1185.1,1447.87 1187.19,1447.87 1189.28,1447.87 1191.37,1447.87 1193.46,1447.87 1195.55,1447.87 1197.64,1447.87 1199.72,1447.87 1201.81,1447.87 1203.9,1447.87 1205.99,1447.87 1208.08,1447.87 1210.17,1447.87 1212.26,1447.87 1214.35,1447.87 1216.44,1447.87 1218.53,1447.87 1220.61,1447.87 1222.7,1447.87 1224.79,1447.87 1226.88,1447.87 1228.97,1447.87 1231.06,1447.87 1233.15,1447.87 1235.24,1447.87 1237.33,1447.87 1239.41,1447.87 1241.5,1447.87 1243.59,1447.87 1245.68,1447.87 1247.77,1447.87 1249.86,1447.87 1251.95,1447.87 1254.04,1447.87 1256.13,1447.87 1258.21,1447.87 1260.3,1447.87 1262.39,1447.87 1264.48,1447.87 1266.57,1447.87 1268.66,1447.87 1270.75,1447.87 1272.84,1447.87 1274.93,1447.87 1277.02,1447.87 1279.1,1447.87 1281.19,1447.87 1283.28,1447.87 1285.37,1447.87 1287.46,1447.87 1289.55,1447.87 1291.64,1447.87 1293.73,1447.87 1295.82,1447.87 1297.9,1447.87 1299.99,1447.87 1302.08,1447.87 1304.17,1447.87 1306.26,1447.87 1308.35,1447.87 1310.44,1447.87 1312.53,1447.87 1314.62,1447.87 1316.71,1447.87 1318.79,1447.87 1320.88,1447.87 1322.97,1447.87 1325.06,1447.87 1327.15,1447.87 1329.24,1447.87 1331.33,1447.87 1333.42,1447.87 1335.51,1447.87 1337.59,1447.87 1339.68,1447.87 1341.77,1447.87 1343.86,1447.87 1345.95,1447.87 1348.04,1447.87 1350.13,1447.87 1352.22,1447.87 1354.31,1447.87 1356.39,1447.87 1358.48,1447.87 1360.57,1447.87 1362.66,1447.87 1364.75,1447.87 1366.84,1447.87 1368.93,1447.87 1371.02,1447.87 1373.11,1447.87 1375.2,1447.87 1377.28,1447.87 1379.37,1447.87 1381.46,1447.87 1383.55,1447.87 1385.64,1447.87 1387.73,1447.87 1389.82,1447.87 1391.91,1447.87 1394,1447.87 1396.08,1447.87 1398.17,1447.87 1400.26,1447.87 1402.35,1447.87 1404.44,1447.87 1406.53,1447.87 1408.62,1447.87 1410.71,1447.87 1412.8,1447.87 1414.89,1447.87 1416.97,1447.87 1419.06,1447.87 1421.15,1447.87 1423.24,1447.87 1425.33,1447.87 1427.42,1447.87 1429.51,1447.87 1431.6,1447.87 1433.69,1447.87 1435.77,1447.87 1437.86,1447.87 1439.95,1447.87 1442.04,1447.87 1444.13,1447.87 1446.22,1447.87 1448.31,1447.87 1450.4,1447.87 1452.49,1447.87 1454.58,1447.87 1456.66,1447.87 1458.75,1447.87 1460.84,1447.87 1462.93,1447.87 1465.02,1447.87 1467.11,1447.87 1469.2,1447.87 1471.29,1447.87 1473.38,1447.87 1475.46,1447.87 1477.55,1447.87 1479.64,1447.87 1481.73,1447.87 1483.82,1447.87 1485.91,1447.87 1488,1447.87 1490.09,1447.87 1492.18,1447.87 1494.26,1447.87 1496.35,1447.87 1498.44,1447.87 1500.53,1447.87 1502.62,1447.87 1504.71,1447.87 1506.8,1447.87 1508.89,1447.87 1510.98,1447.87 1513.07,1447.87 1515.15,1447.87 1517.24,1447.87 1519.33,1447.87 1521.42,1447.87 1523.51,1447.87 1525.6,1447.87 1527.69,1447.87 1529.78,1447.87 1531.87,1447.87 1533.95,1447.87 1536.04,1447.87 1538.13,1447.87 1540.22,1447.87 1542.31,1447.87 1544.4,1447.87 1546.49,1447.87 1548.58,1447.87 1550.67,1447.87 1552.76,1447.87 1554.84,1447.87 1556.93,1447.87 1559.02,1447.87 1561.11,1447.87 1563.2,1447.87 1565.29,1447.87 1567.38,1447.87 1569.47,1447.87 1571.56,1447.87 1573.64,1447.87 1575.73,1447.87 1577.82,1447.87 1579.91,1447.87 1582,1447.87 1584.09,1447.87 1586.18,1447.87 1588.27,1447.87 1590.36,1447.87 1592.45,1447.87 1594.53,1447.87 1596.62,1447.87 1598.71,1447.87 1600.8,1447.87 1602.89,1447.87 1604.98,1447.87 1607.07,1447.87 1609.16,1447.87 1611.25,1447.87 1613.33,1447.87 1615.42,1447.87 1617.51,1447.87 1619.6,1447.87 1621.69,1447.87 1623.78,1447.87 1625.87,1447.87 1627.96,1447.87 1630.05,1447.87 1632.13,1447.87 1634.22,1447.87 1636.31,1447.87 1638.4,1447.87 1640.49,1447.87 1642.58,1447.87 1644.67,1447.87 1646.76,1447.87 1648.85,1447.87 1650.94,1447.87 1653.02,1447.87 1655.11,1447.87 1657.2,1447.87 1659.29,1447.87 1661.38,1447.87 1663.47,1447.87 1665.56,1447.87 1667.65,1447.87 1669.74,1447.87 1671.82,1447.87 1673.91,1447.87 1676,1447.87 1678.09,1447.87 1680.18,1447.87 1682.27,1447.87 1684.36,1447.87 1686.45,1447.87 1688.54,1447.87 1690.63,1447.87 1692.71,1447.87 1694.8,1447.87 1696.89,1447.87 1698.98,1447.87 1701.07,1447.87 1703.16,1447.87 1705.25,1447.87 1707.34,1447.87 1709.43,1447.87 1711.51,1447.87 1713.6,1447.87 1715.69,1447.87 1717.78,1447.87 1719.87,1447.87 1721.96,1447.87 1724.05,1447.87 1726.14,1447.87 1728.23,1447.87 1730.31,1447.87 1732.4,1447.87 1734.49,1447.87 1736.58,1447.87 1738.67,1447.87 1740.76,1447.87 1742.85,1447.87 1744.94,1447.87 1747.03,1447.87 1749.12,1447.87 1751.2,1447.87 1753.29,1447.87 1755.38,1447.87 1757.47,1447.87 1759.56,1447.87 1761.65,1447.87 1763.74,1447.87 1765.83,1447.87 1767.92,1447.87 1770,1447.87 1772.09,1447.87 1774.18,1447.87 1776.27,1447.87 1778.36,1447.87 1780.45,1447.87 1782.54,1447.87 1784.63,1447.87 1786.72,1447.87 1788.81,1447.87 1790.89,1447.87 1792.98,1447.87 1795.07,1447.87 1797.16,1447.87 1799.25,1447.87 1801.34,1447.87 1803.43,1447.87 1805.52,1447.87 1807.61,1447.87 1809.69,1447.87 1811.78,1447.87 1813.87,1447.87 1815.96,1447.87 1818.05,1447.87 1820.14,1447.87 1822.23,1447.87 1824.32,1447.87 1826.41,1447.87 1828.5,1447.87 1830.58,1447.87 1832.67,1447.87 1834.76,1447.87 1836.85,1447.87 1838.94,1447.87 1841.03,1447.87 1843.12,1447.87 1845.21,1447.87 1847.3,1447.87 1849.38,1447.87 1851.47,1447.87 1853.56,1447.87 1855.65,1447.87 1857.74,1447.87 1859.83,1447.87 1861.92,1447.87 1864.01,1447.87 1866.1,1447.87 1868.18,1447.87 1870.27,1447.87 1872.36,1447.87 1874.45,1447.87 1876.54,1447.87 1878.63,1447.87 1880.72,1447.87 1882.81,1447.87 1884.9,1447.87 1886.99,1447.87 1889.07,1447.87 1891.16,1447.87 1893.25,1447.87 1895.34,1447.87 1897.43,1447.87 1899.52,1447.87 1901.61,1447.87 1903.7,1447.87 1905.79,1447.87 1907.87,1447.87 1909.96,1447.87 1912.05,1447.87 1914.14,1447.87 1916.23,1447.87 1918.32,1447.87 1920.41,1447.87 1922.5,1447.87 1924.59,1447.87 1926.68,1447.87 1928.76,1447.87 1930.85,1447.87 1932.94,1447.87 1935.03,1447.87 1937.12,1447.87 1939.21,1447.87 1941.3,1447.87 1943.39,1447.87 1945.48,1447.87 1947.56,1447.87 1949.65,1447.87 1951.74,1447.87 1953.83,1447.87 1955.92,1447.87 1958.01,1447.87 1960.1,1447.87 1962.19,1447.87 1964.28,1447.87 1966.36,1447.87 1968.45,1447.87 1970.54,1447.87 1972.63,1447.87 1974.72,1447.87 1976.81,1447.87 1978.9,1447.87 1980.99,1447.87 1983.08,1447.87 1985.17,1447.87 1987.25,1447.87 1989.34,1447.87 1991.43,1447.87 1993.52,1447.87 1995.61,1447.87 1997.7,1447.87 1999.79,1447.87 2001.88,1447.87 2003.97,1447.87 2006.05,1447.87 2008.14,1447.87 2010.23,1447.87 2012.32,1447.87 2014.41,1447.87 2016.5,1447.87 2018.59,1447.87 2020.68,1447.87 2022.77,1447.87 2024.86,1447.87 2026.94,1447.87 2029.03,1447.87 2031.12,1447.87 2033.21,1447.87 2035.3,1447.87 2037.39,1447.87 2039.48,1447.87 2041.57,1447.87 2043.66,1447.87 2045.74,1447.87 2047.83,1447.87 2049.92,1447.87 2052.01,1447.87 2054.1,1447.87 2056.19,1447.87 2058.28,1447.87 2060.37,1447.87 2062.46,1447.87 2064.55,1447.87 2066.63,1447.87 2068.72,1447.87 2070.81,1447.87 2072.9,1447.87 2074.99,1447.87 2077.08,1447.87 2079.17,1447.87 2081.26,1447.87 2083.35,1447.87 2085.43,1447.87 2087.52,1447.87 2089.61,1447.87 2091.7,1447.87 2093.79,1447.87 2095.88,1447.87 2097.97,1447.87 2100.06,1447.87 2102.15,1447.87 2104.23,1447.87 2106.32,1447.87 2108.41,1447.87 2110.5,1447.87 2112.59,1447.87 2114.68,1447.87 2116.77,1447.87 2118.86,1447.87 2120.95,1447.87 2123.04,1447.87 2125.12,1447.87 2127.21,1447.87 2129.3,1447.87 2131.39,1447.87 2133.48,1447.87 2135.57,1447.87 2137.66,1447.87 2139.75,1447.87 2141.84,1447.87 2143.92,1447.87 2146.01,1447.87 2148.1,1447.87 2150.19,1447.87 2152.28,1447.87 2154.37,1447.87 2156.46,1447.87 2158.55,1447.87 2160.64,1447.87 2162.73,1447.87 2164.81,1447.87 2166.9,1447.87 2168.99,1447.87 2171.08,1447.87 2173.17,1447.87 2175.26,1447.87 2177.35,1447.87 2179.44,1447.87 2181.53,1447.87 2183.61,1447.87 2185.7,1447.87 2187.79,1447.87 2189.88,1447.87 2191.97,1447.87 2194.06,1447.87 2196.15,1447.87 2198.24,1447.87 2200.33,1447.87 2202.42,1447.87 2204.5,1447.87 2206.59,1447.87 2208.68,1447.87 2210.77,1447.87 2212.86,1447.87 2214.95,1447.87 2217.04,1447.87 2219.13,1447.87 2221.22,1447.87 2223.3,1447.87 2225.39,1447.87 2227.48,1447.87 2229.57,1447.87 2231.66,1447.87 2233.75,1447.87 2235.84,1447.87 2237.93,1447.87 2240.02,1447.87 2242.1,1447.87 2244.19,1447.87 2246.28,1447.87 2248.37,1447.87 2250.46,1447.87 2252.55,1447.87 2254.64,1447.87 2256.73,1447.87 2258.82,1447.87 2260.91,1447.87 2262.99,1447.87 2265.08,1447.87 2267.17,1447.87 2269.26,1447.87 2271.35,1447.87 2273.44,1447.87 2275.53,1447.87 2277.62,1447.87 2279.71,1447.87 2281.79,1447.87 2283.88,1447.87 2285.97,1447.87 2288.06,1447.87 2290.15,1447.87 "/>
<polyline clip-path="url(#clip652)" style="stroke:#e26f46; stroke-linecap:round; stroke-linejoin:round; stroke-width:4; stroke-opacity:1; fill:none" points="829.356,2849.42 829.356,-1239.5 "/>
<path clip-path="url(#clip650)" d="M1667.1 324.425 L2279.02 324.425 L2279.02 168.905 L1667.1 168.905  Z" fill="#ffffff" fill-rule="evenodd" fill-opacity="1"/>
<polyline clip-path="url(#clip650)" style="stroke:#000000; stroke-linecap:round; stroke-linejoin:round; stroke-width:4; stroke-opacity:1; fill:none" points="1667.1,324.425 2279.02,324.425 2279.02,168.905 1667.1,168.905 1667.1,324.425 "/>
<path clip-path="url(#clip650)" d="M1691.68 241.481 L1839.15 241.481 L1839.15 200.009 L1691.68 200.009 L1691.68 241.481  Z" fill="#009af9" fill-rule="evenodd" fill-opacity="0.4"/>
<polyline clip-path="url(#clip650)" style="stroke:#009af9; stroke-linecap:round; stroke-linejoin:round; stroke-width:4; stroke-opacity:1; fill:none" points="1691.68,200.009 1839.15,200.009 "/>
<path clip-path="url(#clip650)" d="M1863.73 203.465 L1868.4 203.465 L1868.4 238.025 L1863.73 238.025 L1863.73 203.465 Z" fill="#000000" fill-rule="nonzero" fill-opacity="1" /><path clip-path="url(#clip650)" d="M1899.07 222.377 L1899.07 238.025 L1894.81 238.025 L1894.81 222.515 Q1894.81 218.835 1893.38 217.006 Q1891.94 215.178 1889.07 215.178 Q1885.62 215.178 1883.63 217.377 Q1881.64 219.576 1881.64 223.372 L1881.64 238.025 L1877.36 238.025 L1877.36 212.099 L1881.64 212.099 L1881.64 216.127 Q1883.17 213.789 1885.23 212.631 Q1887.31 211.474 1890.02 211.474 Q1894.49 211.474 1896.78 214.252 Q1899.07 217.006 1899.07 222.377 Z" fill="#000000" fill-rule="nonzero" fill-opacity="1" /><path clip-path="url(#clip650)" d="M1920.69 202.006 L1920.69 205.548 L1916.62 205.548 Q1914.33 205.548 1913.43 206.474 Q1912.55 207.4 1912.55 209.807 L1912.55 212.099 L1919.56 212.099 L1919.56 215.409 L1912.55 215.409 L1912.55 238.025 L1908.26 238.025 L1908.26 215.409 L1904.19 215.409 L1904.19 212.099 L1908.26 212.099 L1908.26 210.293 Q1908.26 205.965 1910.28 203.997 Q1912.29 202.006 1916.67 202.006 L1920.69 202.006 Z" fill="#000000" fill-rule="nonzero" fill-opacity="1" /><path clip-path="url(#clip650)" d="M1946.43 223.997 L1946.43 226.08 L1926.85 226.08 Q1927.13 230.478 1929.49 232.793 Q1931.87 235.085 1936.11 235.085 Q1938.56 235.085 1940.86 234.483 Q1943.17 233.881 1945.44 232.677 L1945.44 236.705 Q1943.15 237.677 1940.74 238.187 Q1938.33 238.696 1935.86 238.696 Q1929.65 238.696 1926.02 235.085 Q1922.41 231.474 1922.41 225.316 Q1922.41 218.951 1925.83 215.224 Q1929.28 211.474 1935.12 211.474 Q1940.35 211.474 1943.38 214.853 Q1946.43 218.21 1946.43 223.997 M1942.18 222.747 Q1942.13 219.252 1940.21 217.168 Q1938.31 215.085 1935.16 215.085 Q1931.6 215.085 1929.44 217.099 Q1927.31 219.113 1926.99 222.77 L1942.18 222.747 Z" fill="#000000" fill-rule="nonzero" fill-opacity="1" /><path clip-path="url(#clip650)" d="M1968.45 216.08 Q1967.73 215.664 1966.87 215.478 Q1966.04 215.27 1965.02 215.27 Q1961.41 215.27 1959.47 217.631 Q1957.55 219.969 1957.55 224.367 L1957.55 238.025 L1953.26 238.025 L1953.26 212.099 L1957.55 212.099 L1957.55 216.127 Q1958.89 213.766 1961.04 212.631 Q1963.19 211.474 1966.27 211.474 Q1966.71 211.474 1967.24 211.543 Q1967.78 211.59 1968.43 211.705 L1968.45 216.08 Z" fill="#000000" fill-rule="nonzero" fill-opacity="1" /><path clip-path="url(#clip650)" d="M1994.05 223.997 L1994.05 226.08 L1974.47 226.08 Q1974.74 230.478 1977.11 232.793 Q1979.49 235.085 1983.73 235.085 Q1986.18 235.085 1988.47 234.483 Q1990.79 233.881 1993.05 232.677 L1993.05 236.705 Q1990.76 237.677 1988.36 238.187 Q1985.95 238.696 1983.47 238.696 Q1977.27 238.696 1973.63 235.085 Q1970.02 231.474 1970.02 225.316 Q1970.02 218.951 1973.45 215.224 Q1976.9 211.474 1982.73 211.474 Q1987.96 211.474 1990.99 214.853 Q1994.05 218.21 1994.05 223.997 M1989.79 222.747 Q1989.74 219.252 1987.82 217.168 Q1985.93 215.085 1982.78 215.085 Q1979.21 215.085 1977.06 217.099 Q1974.93 219.113 1974.61 222.77 L1989.79 222.747 Z" fill="#000000" fill-rule="nonzero" fill-opacity="1" /><path clip-path="url(#clip650)" d="M2018.1 216.034 L2018.1 202.006 L2022.36 202.006 L2022.36 238.025 L2018.1 238.025 L2018.1 234.136 Q2016.76 236.451 2014.7 237.585 Q2012.66 238.696 2009.79 238.696 Q2005.09 238.696 2002.13 234.946 Q1999.19 231.196 1999.19 225.085 Q1999.19 218.974 2002.13 215.224 Q2005.09 211.474 2009.79 211.474 Q2012.66 211.474 2014.7 212.608 Q2016.76 213.719 2018.1 216.034 M2003.59 225.085 Q2003.59 229.784 2005.51 232.469 Q2007.45 235.131 2010.83 235.131 Q2014.21 235.131 2016.16 232.469 Q2018.1 229.784 2018.1 225.085 Q2018.1 220.386 2016.16 217.724 Q2014.21 215.039 2010.83 215.039 Q2007.45 215.039 2005.51 217.724 Q2003.59 220.386 2003.59 225.085 Z" fill="#000000" fill-rule="nonzero" fill-opacity="1" /><path clip-path="url(#clip650)" d="M2050.32 234.136 L2050.32 247.886 L2046.04 247.886 L2046.04 212.099 L2050.32 212.099 L2050.32 216.034 Q2051.67 213.719 2053.7 212.608 Q2055.76 211.474 2058.61 211.474 Q2063.33 211.474 2066.27 215.224 Q2069.23 218.974 2069.23 225.085 Q2069.23 231.196 2066.27 234.946 Q2063.33 238.696 2058.61 238.696 Q2055.76 238.696 2053.7 237.585 Q2051.67 236.451 2050.32 234.136 M2064.81 225.085 Q2064.81 220.386 2062.87 217.724 Q2060.95 215.039 2057.57 215.039 Q2054.19 215.039 2052.24 217.724 Q2050.32 220.386 2050.32 225.085 Q2050.32 229.784 2052.24 232.469 Q2054.19 235.131 2057.57 235.131 Q2060.95 235.131 2062.87 232.469 Q2064.81 229.784 2064.81 225.085 Z" fill="#000000" fill-rule="nonzero" fill-opacity="1" /><path clip-path="url(#clip650)" d="M2086.34 215.085 Q2082.92 215.085 2080.92 217.77 Q2078.93 220.432 2078.93 225.085 Q2078.93 229.738 2080.9 232.423 Q2082.89 235.085 2086.34 235.085 Q2089.74 235.085 2091.73 232.4 Q2093.73 229.715 2093.73 225.085 Q2093.73 220.478 2091.73 217.793 Q2089.74 215.085 2086.34 215.085 M2086.34 211.474 Q2091.9 211.474 2095.07 215.085 Q2098.24 218.696 2098.24 225.085 Q2098.24 231.451 2095.07 235.085 Q2091.9 238.696 2086.34 238.696 Q2080.76 238.696 2077.59 235.085 Q2074.44 231.451 2074.44 225.085 Q2074.44 218.696 2077.59 215.085 Q2080.76 211.474 2086.34 211.474 Z" fill="#000000" fill-rule="nonzero" fill-opacity="1" /><path clip-path="url(#clip650)" d="M2121.83 212.863 L2121.83 216.891 Q2120.02 215.965 2118.08 215.502 Q2116.13 215.039 2114.05 215.039 Q2110.88 215.039 2109.28 216.011 Q2107.71 216.983 2107.71 218.928 Q2107.71 220.409 2108.84 221.265 Q2109.98 222.099 2113.4 222.863 L2114.86 223.187 Q2119.4 224.159 2121.29 225.941 Q2123.22 227.701 2123.22 230.872 Q2123.22 234.483 2120.35 236.589 Q2117.5 238.696 2112.5 238.696 Q2110.42 238.696 2108.15 238.279 Q2105.9 237.886 2103.4 237.076 L2103.4 232.677 Q2105.76 233.904 2108.05 234.529 Q2110.35 235.131 2112.59 235.131 Q2115.6 235.131 2117.22 234.113 Q2118.84 233.071 2118.84 231.196 Q2118.84 229.46 2117.66 228.534 Q2116.5 227.608 2112.54 226.752 L2111.06 226.404 Q2107.1 225.571 2105.35 223.858 Q2103.59 222.122 2103.59 219.113 Q2103.59 215.455 2106.18 213.465 Q2108.77 211.474 2113.54 211.474 Q2115.9 211.474 2117.98 211.821 Q2120.07 212.168 2121.83 212.863 Z" fill="#000000" fill-rule="nonzero" fill-opacity="1" /><path clip-path="url(#clip650)" d="M2134.21 204.738 L2134.21 212.099 L2142.98 212.099 L2142.98 215.409 L2134.21 215.409 L2134.21 229.483 Q2134.21 232.654 2135.07 233.557 Q2135.95 234.46 2138.61 234.46 L2142.98 234.46 L2142.98 238.025 L2138.61 238.025 Q2133.68 238.025 2131.8 236.196 Q2129.93 234.344 2129.93 229.483 L2129.93 215.409 L2126.8 215.409 L2126.8 212.099 L2129.93 212.099 L2129.93 204.738 L2134.21 204.738 Z" fill="#000000" fill-rule="nonzero" fill-opacity="1" /><path clip-path="url(#clip650)" d="M2170.76 223.997 L2170.76 226.08 L2151.18 226.08 Q2151.46 230.478 2153.82 232.793 Q2156.2 235.085 2160.44 235.085 Q2162.89 235.085 2165.18 234.483 Q2167.5 233.881 2169.77 232.677 L2169.77 236.705 Q2167.47 237.677 2165.07 238.187 Q2162.66 238.696 2160.18 238.696 Q2153.98 238.696 2150.35 235.085 Q2146.73 231.474 2146.73 225.316 Q2146.73 218.951 2150.16 215.224 Q2153.61 211.474 2159.44 211.474 Q2164.67 211.474 2167.71 214.853 Q2170.76 218.21 2170.76 223.997 M2166.5 222.747 Q2166.46 219.252 2164.54 217.168 Q2162.64 215.085 2159.49 215.085 Q2155.92 215.085 2153.77 217.099 Q2151.64 219.113 2151.32 222.77 L2166.5 222.747 Z" fill="#000000" fill-rule="nonzero" fill-opacity="1" /><path clip-path="url(#clip650)" d="M2192.78 216.08 Q2192.06 215.664 2191.2 215.478 Q2190.37 215.27 2189.35 215.27 Q2185.74 215.27 2183.79 217.631 Q2181.87 219.969 2181.87 224.367 L2181.87 238.025 L2177.59 238.025 L2177.59 212.099 L2181.87 212.099 L2181.87 216.127 Q2183.22 213.766 2185.37 212.631 Q2187.52 211.474 2190.6 211.474 Q2191.04 211.474 2191.57 211.543 Q2192.1 211.59 2192.75 211.705 L2192.78 216.08 Z" fill="#000000" fill-rule="nonzero" fill-opacity="1" /><path clip-path="url(#clip650)" d="M2197.24 212.099 L2201.5 212.099 L2201.5 238.025 L2197.24 238.025 L2197.24 212.099 M2197.24 202.006 L2201.5 202.006 L2201.5 207.4 L2197.24 207.4 L2197.24 202.006 Z" fill="#000000" fill-rule="nonzero" fill-opacity="1" /><path clip-path="url(#clip650)" d="M2220.46 215.085 Q2217.03 215.085 2215.04 217.77 Q2213.05 220.432 2213.05 225.085 Q2213.05 229.738 2215.02 232.423 Q2217.01 235.085 2220.46 235.085 Q2223.86 235.085 2225.85 232.4 Q2227.85 229.715 2227.85 225.085 Q2227.85 220.478 2225.85 217.793 Q2223.86 215.085 2220.46 215.085 M2220.46 211.474 Q2226.02 211.474 2229.19 215.085 Q2232.36 218.696 2232.36 225.085 Q2232.36 231.451 2229.19 235.085 Q2226.02 238.696 2220.46 238.696 Q2214.88 238.696 2211.71 235.085 Q2208.56 231.451 2208.56 225.085 Q2208.56 218.696 2211.71 215.085 Q2214.88 211.474 2220.46 211.474 Z" fill="#000000" fill-rule="nonzero" fill-opacity="1" /><path clip-path="url(#clip650)" d="M2254.44 216.08 Q2253.72 215.664 2252.87 215.478 Q2252.03 215.27 2251.02 215.27 Q2247.41 215.27 2245.46 217.631 Q2243.54 219.969 2243.54 224.367 L2243.54 238.025 L2239.26 238.025 L2239.26 212.099 L2243.54 212.099 L2243.54 216.127 Q2244.88 213.766 2247.03 212.631 Q2249.19 211.474 2252.27 211.474 Q2252.71 211.474 2253.24 211.543 Q2253.77 211.59 2254.42 211.705 L2254.44 216.08 Z" fill="#000000" fill-rule="nonzero" fill-opacity="1" /><polyline clip-path="url(#clip650)" style="stroke:#e26f46; stroke-linecap:round; stroke-linejoin:round; stroke-width:4; stroke-opacity:1; fill:none" points="1691.68,272.585 1839.15,272.585 "/>
<path clip-path="url(#clip650)" d="M1880.12 273.661 Q1881.62 274.17 1883.03 275.837 Q1884.47 277.504 1885.9 280.42 L1890.65 289.865 L1885.62 289.865 L1881.2 280.999 Q1879.49 277.527 1877.87 276.393 Q1876.27 275.258 1873.5 275.258 L1868.4 275.258 L1868.4 289.865 L1863.73 289.865 L1863.73 255.305 L1874.28 255.305 Q1880.21 255.305 1883.12 257.781 Q1886.04 260.258 1886.04 265.258 Q1886.04 268.522 1884.51 270.675 Q1883.01 272.828 1880.12 273.661 M1868.4 259.147 L1868.4 271.416 L1874.28 271.416 Q1877.66 271.416 1879.37 269.865 Q1881.11 268.291 1881.11 265.258 Q1881.11 262.226 1879.37 260.698 Q1877.66 259.147 1874.28 259.147 L1868.4 259.147 Z" fill="#000000" fill-rule="nonzero" fill-opacity="1" /><path clip-path="url(#clip650)" d="M1916.53 275.837 L1916.53 277.92 L1896.94 277.92 Q1897.22 282.318 1899.58 284.633 Q1901.97 286.925 1906.2 286.925 Q1908.66 286.925 1910.95 286.323 Q1913.26 285.721 1915.53 284.517 L1915.53 288.545 Q1913.24 289.517 1910.83 290.027 Q1908.43 290.536 1905.95 290.536 Q1899.74 290.536 1896.11 286.925 Q1892.5 283.314 1892.5 277.156 Q1892.5 270.791 1895.93 267.064 Q1899.37 263.314 1905.21 263.314 Q1910.44 263.314 1913.47 266.693 Q1916.53 270.05 1916.53 275.837 M1912.27 274.587 Q1912.22 271.092 1910.3 269.008 Q1908.4 266.925 1905.25 266.925 Q1901.69 266.925 1899.54 268.939 Q1897.41 270.953 1897.08 274.61 L1912.27 274.587 Z" fill="#000000" fill-rule="nonzero" fill-opacity="1" /><path clip-path="url(#clip650)" d="M1935.3 276.832 Q1930.14 276.832 1928.15 278.013 Q1926.16 279.193 1926.16 282.041 Q1926.16 284.309 1927.64 285.652 Q1929.14 286.971 1931.71 286.971 Q1935.25 286.971 1937.38 284.471 Q1939.54 281.948 1939.54 277.781 L1939.54 276.832 L1935.3 276.832 M1943.8 275.073 L1943.8 289.865 L1939.54 289.865 L1939.54 285.929 Q1938.08 288.291 1935.9 289.425 Q1933.73 290.536 1930.58 290.536 Q1926.6 290.536 1924.24 288.314 Q1921.9 286.068 1921.9 282.318 Q1921.9 277.943 1924.81 275.721 Q1927.75 273.499 1933.56 273.499 L1939.54 273.499 L1939.54 273.082 Q1939.54 270.143 1937.59 268.545 Q1935.67 266.925 1932.18 266.925 Q1929.95 266.925 1927.85 267.457 Q1925.74 267.99 1923.8 269.055 L1923.8 265.119 Q1926.13 264.217 1928.33 263.777 Q1930.53 263.314 1932.62 263.314 Q1938.24 263.314 1941.02 266.231 Q1943.8 269.147 1943.8 275.073 Z" fill="#000000" fill-rule="nonzero" fill-opacity="1" /><path clip-path="url(#clip650)" d="M1952.57 253.846 L1956.83 253.846 L1956.83 289.865 L1952.57 289.865 L1952.57 253.846 Z" fill="#000000" fill-rule="nonzero" fill-opacity="1" /><path clip-path="url(#clip650)" d="M1998.22 273.43 L1983.47 273.43 Q1983.82 280.351 1985.42 283.291 Q1987.41 286.902 1990.86 286.902 Q1994.33 286.902 1996.25 283.267 Q1997.94 280.073 1998.22 273.43 M1998.15 269.494 Q1997.5 262.92 1996.25 260.606 Q1994.26 256.948 1990.86 256.948 Q1987.31 256.948 1985.44 260.559 Q1983.96 263.476 1983.52 269.494 L1998.15 269.494 M1990.86 253.476 Q1996.41 253.476 1999.58 258.383 Q2002.75 263.268 2002.75 271.925 Q2002.75 280.559 1999.58 285.467 Q1996.41 290.397 1990.86 290.397 Q1985.28 290.397 1982.13 285.467 Q1978.96 280.559 1978.96 271.925 Q1978.96 263.268 1982.13 258.383 Q1985.28 253.476 1990.86 253.476 Z" fill="#000000" fill-rule="nonzero" fill-opacity="1" /></svg>
